<?xml version="1.0" encoding="utf-8" standalone="no"?>
<!DOCTYPE svg PUBLIC "-//W3C//DTD SVG 1.1//EN"
  "http://www.w3.org/Graphics/SVG/1.1/DTD/svg11.dtd">
<svg xmlns:xlink="http://www.w3.org/1999/xlink" width="864pt" height="648pt" viewBox="0 0 864 648" xmlns="http://www.w3.org/2000/svg" version="1.1">
 <metadata>
  <rdf:RDF xmlns:dc="http://purl.org/dc/elements/1.1/" xmlns:cc="http://creativecommons.org/ns#" xmlns:rdf="http://www.w3.org/1999/02/22-rdf-syntax-ns#">
   <cc:Work>
    <dc:type rdf:resource="http://purl.org/dc/dcmitype/StillImage"/>
    <dc:date>2022-05-23T22:07:34.723788</dc:date>
    <dc:format>image/svg+xml</dc:format>
    <dc:creator>
     <cc:Agent>
      <dc:title>Matplotlib v3.5.2, https://matplotlib.org/</dc:title>
     </cc:Agent>
    </dc:creator>
   </cc:Work>
  </rdf:RDF>
 </metadata>
 <defs>
  <style type="text/css">*{stroke-linejoin: round; stroke-linecap: butt}</style>
 </defs>
 <g id="figure_1">
  <g id="patch_1">
   <path d="M 0 648 
L 864 648 
L 864 0 
L 0 0 
z
" style="fill: #ffffff"/>
  </g>
  <g id="axes_1">
   <g id="LineCollection_1">
    <path d="M 719.494215 120.214711 
L 476.235096 315.927363 
" clip-path="url(#p22edadda2d)" style="fill: none; stroke: #000000; stroke-opacity: 0.9"/>
    <path d="M 719.494215 120.214711 
L 400.553012 193.526214 
" clip-path="url(#p22edadda2d)" style="fill: none; stroke: #000000; stroke-opacity: 0.9"/>
    <path d="M 166.105785 130.31585 
L 476.235096 315.927363 
" clip-path="url(#p22edadda2d)" style="fill: none; stroke: #000000; stroke-opacity: 0.9"/>
    <path d="M 166.105785 130.31585 
L 400.553012 193.526214 
" clip-path="url(#p22edadda2d)" style="fill: none; stroke: #000000; stroke-opacity: 0.9"/>
    <path d="M 166.105785 130.31585 
L 183.353823 368.015776 
" clip-path="url(#p22edadda2d)" style="fill: none; stroke: #000000; stroke-opacity: 0.9"/>
    <path d="M 476.235096 315.927363 
L 400.553012 193.526214 
" clip-path="url(#p22edadda2d)" style="fill: none; stroke: #000000; stroke-opacity: 0.9"/>
    <path d="M 476.235096 315.927363 
L 183.353823 368.015776 
" clip-path="url(#p22edadda2d)" style="fill: none; stroke: #000000; stroke-opacity: 0.9"/>
    <path d="M 476.235096 315.927363 
L 376.39359 524.545289 
" clip-path="url(#p22edadda2d)" style="fill: none; stroke: #000000; stroke-opacity: 0.9"/>
    <path d="M 400.553012 193.526214 
L 183.353823 368.015776 
" clip-path="url(#p22edadda2d)" style="fill: none; stroke: #000000; stroke-opacity: 0.9"/>
    <path d="M 400.553012 193.526214 
L 376.39359 524.545289 
" clip-path="url(#p22edadda2d)" style="fill: none; stroke: #000000; stroke-opacity: 0.9"/>
    <path d="M 183.353823 368.015776 
L 376.39359 524.545289 
" clip-path="url(#p22edadda2d)" style="fill: none; stroke: #000000; stroke-opacity: 0.9"/>
   </g>
   <g id="PathCollection_1">
    <defs>
     <path id="md940a12d6c" d="M 0 29.580399 
C 7.844813 29.580399 15.36938 26.463621 20.916501 20.916501 
C 26.463621 15.36938 29.580399 7.844813 29.580399 0 
C 29.580399 -7.844813 26.463621 -15.36938 20.916501 -20.916501 
C 15.36938 -26.463621 7.844813 -29.580399 0 -29.580399 
C -7.844813 -29.580399 -15.36938 -26.463621 -20.916501 -20.916501 
C -26.463621 -15.36938 -29.580399 -7.844813 -29.580399 0 
C -29.580399 7.844813 -26.463621 15.36938 -20.916501 20.916501 
C -15.36938 26.463621 -7.844813 29.580399 0 29.580399 
z
" style="stroke: #7f7f7f; stroke-opacity: 0.9"/>
    </defs>
    <g clip-path="url(#p22edadda2d)">
     <use xlink:href="#md940a12d6c" x="719.494215" y="120.214711" style="fill: #1f78b4; fill-opacity: 0.9; stroke: #7f7f7f; stroke-opacity: 0.9"/>
     <use xlink:href="#md940a12d6c" x="166.105785" y="130.31585" style="fill: #1f78b4; fill-opacity: 0.9; stroke: #7f7f7f; stroke-opacity: 0.9"/>
     <use xlink:href="#md940a12d6c" x="476.235096" y="315.927363" style="fill: #1f78b4; fill-opacity: 0.9; stroke: #7f7f7f; stroke-opacity: 0.9"/>
     <use xlink:href="#md940a12d6c" x="400.553012" y="193.526214" style="fill: #1f78b4; fill-opacity: 0.9; stroke: #7f7f7f; stroke-opacity: 0.9"/>
     <use xlink:href="#md940a12d6c" x="183.353823" y="368.015776" style="fill: #1f78b4; fill-opacity: 0.9; stroke: #7f7f7f; stroke-opacity: 0.9"/>
     <use xlink:href="#md940a12d6c" x="376.39359" y="524.545289" style="fill: #1f78b4; fill-opacity: 0.9; stroke: #7f7f7f; stroke-opacity: 0.9"/>
    </g>
   </g>
   <g id="text_1">
    <g clip-path="url(#p22edadda2d)">
     <!-- JULES -->
     <g transform="translate(702.389527 123.525961)scale(0.12 -0.12)">
      <defs>
       <path id="DejaVuSans-4a" d="M 628 4666 
L 1259 4666 
L 1259 325 
Q 1259 -519 939 -900 
Q 619 -1281 -91 -1281 
L -331 -1281 
L -331 -750 
L -134 -750 
Q 284 -750 456 -515 
Q 628 -281 628 325 
L 628 4666 
z
" transform="scale(0.015625)"/>
       <path id="DejaVuSans-55" d="M 556 4666 
L 1191 4666 
L 1191 1831 
Q 1191 1081 1462 751 
Q 1734 422 2344 422 
Q 2950 422 3222 751 
Q 3494 1081 3494 1831 
L 3494 4666 
L 4128 4666 
L 4128 1753 
Q 4128 841 3676 375 
Q 3225 -91 2344 -91 
Q 1459 -91 1007 375 
Q 556 841 556 1753 
L 556 4666 
z
" transform="scale(0.015625)"/>
       <path id="DejaVuSans-4c" d="M 628 4666 
L 1259 4666 
L 1259 531 
L 3531 531 
L 3531 0 
L 628 0 
L 628 4666 
z
" transform="scale(0.015625)"/>
       <path id="DejaVuSans-45" d="M 628 4666 
L 3578 4666 
L 3578 4134 
L 1259 4134 
L 1259 2753 
L 3481 2753 
L 3481 2222 
L 1259 2222 
L 1259 531 
L 3634 531 
L 3634 0 
L 628 0 
L 628 4666 
z
" transform="scale(0.015625)"/>
       <path id="DejaVuSans-53" d="M 3425 4513 
L 3425 3897 
Q 3066 4069 2747 4153 
Q 2428 4238 2131 4238 
Q 1616 4238 1336 4038 
Q 1056 3838 1056 3469 
Q 1056 3159 1242 3001 
Q 1428 2844 1947 2747 
L 2328 2669 
Q 3034 2534 3370 2195 
Q 3706 1856 3706 1288 
Q 3706 609 3251 259 
Q 2797 -91 1919 -91 
Q 1588 -91 1214 -16 
Q 841 59 441 206 
L 441 856 
Q 825 641 1194 531 
Q 1563 422 1919 422 
Q 2459 422 2753 634 
Q 3047 847 3047 1241 
Q 3047 1584 2836 1778 
Q 2625 1972 2144 2069 
L 1759 2144 
Q 1053 2284 737 2584 
Q 422 2884 422 3419 
Q 422 4038 858 4394 
Q 1294 4750 2059 4750 
Q 2388 4750 2728 4690 
Q 3069 4631 3425 4513 
z
" transform="scale(0.015625)"/>
      </defs>
      <use xlink:href="#DejaVuSans-4a"/>
      <use xlink:href="#DejaVuSans-55" x="29.492188"/>
      <use xlink:href="#DejaVuSans-4c" x="102.685547"/>
      <use xlink:href="#DejaVuSans-45" x="158.398438"/>
      <use xlink:href="#DejaVuSans-53" x="221.582031"/>
     </g>
    </g>
   </g>
   <g id="text_2">
    <g clip-path="url(#p22edadda2d)">
     <!-- HUGO -->
     <g transform="translate(147.83016 133.6271)scale(0.12 -0.12)">
      <defs>
       <path id="DejaVuSans-48" d="M 628 4666 
L 1259 4666 
L 1259 2753 
L 3553 2753 
L 3553 4666 
L 4184 4666 
L 4184 0 
L 3553 0 
L 3553 2222 
L 1259 2222 
L 1259 0 
L 628 0 
L 628 4666 
z
" transform="scale(0.015625)"/>
       <path id="DejaVuSans-47" d="M 3809 666 
L 3809 1919 
L 2778 1919 
L 2778 2438 
L 4434 2438 
L 4434 434 
Q 4069 175 3628 42 
Q 3188 -91 2688 -91 
Q 1594 -91 976 548 
Q 359 1188 359 2328 
Q 359 3472 976 4111 
Q 1594 4750 2688 4750 
Q 3144 4750 3555 4637 
Q 3966 4525 4313 4306 
L 4313 3634 
Q 3963 3931 3569 4081 
Q 3175 4231 2741 4231 
Q 1884 4231 1454 3753 
Q 1025 3275 1025 2328 
Q 1025 1384 1454 906 
Q 1884 428 2741 428 
Q 3075 428 3337 486 
Q 3600 544 3809 666 
z
" transform="scale(0.015625)"/>
       <path id="DejaVuSans-4f" d="M 2522 4238 
Q 1834 4238 1429 3725 
Q 1025 3213 1025 2328 
Q 1025 1447 1429 934 
Q 1834 422 2522 422 
Q 3209 422 3611 934 
Q 4013 1447 4013 2328 
Q 4013 3213 3611 3725 
Q 3209 4238 2522 4238 
z
M 2522 4750 
Q 3503 4750 4090 4092 
Q 4678 3434 4678 2328 
Q 4678 1225 4090 567 
Q 3503 -91 2522 -91 
Q 1538 -91 948 565 
Q 359 1222 359 2328 
Q 359 3434 948 4092 
Q 1538 4750 2522 4750 
z
" transform="scale(0.015625)"/>
      </defs>
      <use xlink:href="#DejaVuSans-48"/>
      <use xlink:href="#DejaVuSans-55" x="75.195312"/>
      <use xlink:href="#DejaVuSans-47" x="148.388672"/>
      <use xlink:href="#DejaVuSans-4f" x="225.878906"/>
     </g>
    </g>
   </g>
   <g id="text_3">
    <g clip-path="url(#p22edadda2d)">
     <!-- AMBRE -->
     <g transform="translate(454.876971 319.238613)scale(0.12 -0.12)">
      <defs>
       <path id="DejaVuSans-41" d="M 2188 4044 
L 1331 1722 
L 3047 1722 
L 2188 4044 
z
M 1831 4666 
L 2547 4666 
L 4325 0 
L 3669 0 
L 3244 1197 
L 1141 1197 
L 716 0 
L 50 0 
L 1831 4666 
z
" transform="scale(0.015625)"/>
       <path id="DejaVuSans-4d" d="M 628 4666 
L 1569 4666 
L 2759 1491 
L 3956 4666 
L 4897 4666 
L 4897 0 
L 4281 0 
L 4281 4097 
L 3078 897 
L 2444 897 
L 1241 4097 
L 1241 0 
L 628 0 
L 628 4666 
z
" transform="scale(0.015625)"/>
       <path id="DejaVuSans-42" d="M 1259 2228 
L 1259 519 
L 2272 519 
Q 2781 519 3026 730 
Q 3272 941 3272 1375 
Q 3272 1813 3026 2020 
Q 2781 2228 2272 2228 
L 1259 2228 
z
M 1259 4147 
L 1259 2741 
L 2194 2741 
Q 2656 2741 2882 2914 
Q 3109 3088 3109 3444 
Q 3109 3797 2882 3972 
Q 2656 4147 2194 4147 
L 1259 4147 
z
M 628 4666 
L 2241 4666 
Q 2963 4666 3353 4366 
Q 3744 4066 3744 3513 
Q 3744 3084 3544 2831 
Q 3344 2578 2956 2516 
Q 3422 2416 3680 2098 
Q 3938 1781 3938 1306 
Q 3938 681 3513 340 
Q 3088 0 2303 0 
L 628 0 
L 628 4666 
z
" transform="scale(0.015625)"/>
       <path id="DejaVuSans-52" d="M 2841 2188 
Q 3044 2119 3236 1894 
Q 3428 1669 3622 1275 
L 4263 0 
L 3584 0 
L 2988 1197 
Q 2756 1666 2539 1819 
Q 2322 1972 1947 1972 
L 1259 1972 
L 1259 0 
L 628 0 
L 628 4666 
L 2053 4666 
Q 2853 4666 3247 4331 
Q 3641 3997 3641 3322 
Q 3641 2881 3436 2590 
Q 3231 2300 2841 2188 
z
M 1259 4147 
L 1259 2491 
L 2053 2491 
Q 2509 2491 2742 2702 
Q 2975 2913 2975 3322 
Q 2975 3731 2742 3939 
Q 2509 4147 2053 4147 
L 1259 4147 
z
" transform="scale(0.015625)"/>
      </defs>
      <use xlink:href="#DejaVuSans-41"/>
      <use xlink:href="#DejaVuSans-4d" x="68.408203"/>
      <use xlink:href="#DejaVuSans-42" x="154.6875"/>
      <use xlink:href="#DejaVuSans-52" x="223.291016"/>
      <use xlink:href="#DejaVuSans-45" x="292.773438"/>
     </g>
    </g>
   </g>
   <g id="text_4">
    <g clip-path="url(#p22edadda2d)">
     <!-- RAPHAËL -->
     <g transform="translate(373.150824 196.837464)scale(0.12 -0.12)">
      <defs>
       <path id="DejaVuSans-50" d="M 1259 4147 
L 1259 2394 
L 2053 2394 
Q 2494 2394 2734 2622 
Q 2975 2850 2975 3272 
Q 2975 3691 2734 3919 
Q 2494 4147 2053 4147 
L 1259 4147 
z
M 628 4666 
L 2053 4666 
Q 2838 4666 3239 4311 
Q 3641 3956 3641 3272 
Q 3641 2581 3239 2228 
Q 2838 1875 2053 1875 
L 1259 1875 
L 1259 0 
L 628 0 
L 628 4666 
z
" transform="scale(0.015625)"/>
       <path id="DejaVuSans-cb" d="M 628 4666 
L 3578 4666 
L 3578 4134 
L 1259 4134 
L 1259 2753 
L 3481 2753 
L 3481 2222 
L 1259 2222 
L 1259 531 
L 3634 531 
L 3634 0 
L 628 0 
L 628 4666 
z
M 2390 5830 
L 3024 5830 
L 3024 5196 
L 2390 5196 
L 2390 5830 
z
M 1168 5830 
L 1802 5830 
L 1802 5196 
L 1168 5196 
L 1168 5830 
z
" transform="scale(0.015625)"/>
      </defs>
      <use xlink:href="#DejaVuSans-52"/>
      <use xlink:href="#DejaVuSans-41" x="65.482422"/>
      <use xlink:href="#DejaVuSans-50" x="133.890625"/>
      <use xlink:href="#DejaVuSans-48" x="194.193359"/>
      <use xlink:href="#DejaVuSans-41" x="269.388672"/>
      <use xlink:href="#DejaVuSans-cb" x="337.796875"/>
      <use xlink:href="#DejaVuSans-4c" x="400.980469"/>
     </g>
    </g>
   </g>
   <g id="text_5">
    <g clip-path="url(#p22edadda2d)">
     <!-- ROSE -->
     <g transform="translate(166.861323 371.327026)scale(0.12 -0.12)">
      <use xlink:href="#DejaVuSans-52"/>
      <use xlink:href="#DejaVuSans-4f" x="69.482422"/>
      <use xlink:href="#DejaVuSans-53" x="148.193359"/>
      <use xlink:href="#DejaVuSans-45" x="211.669922"/>
     </g>
    </g>
   </g>
   <g id="text_6">
    <g clip-path="url(#p22edadda2d)">
     <!-- CHLOÉ -->
     <g transform="translate(356.051715 527.856539)scale(0.12 -0.12)">
      <defs>
       <path id="DejaVuSans-43" d="M 4122 4306 
L 4122 3641 
Q 3803 3938 3442 4084 
Q 3081 4231 2675 4231 
Q 1875 4231 1450 3742 
Q 1025 3253 1025 2328 
Q 1025 1406 1450 917 
Q 1875 428 2675 428 
Q 3081 428 3442 575 
Q 3803 722 4122 1019 
L 4122 359 
Q 3791 134 3420 21 
Q 3050 -91 2638 -91 
Q 1578 -91 968 557 
Q 359 1206 359 2328 
Q 359 3453 968 4101 
Q 1578 4750 2638 4750 
Q 3056 4750 3426 4639 
Q 3797 4528 4122 4306 
z
" transform="scale(0.015625)"/>
       <path id="DejaVuSans-c9" d="M 628 4666 
L 3578 4666 
L 3578 4134 
L 1259 4134 
L 1259 2753 
L 3481 2753 
L 3481 2222 
L 1259 2222 
L 1259 531 
L 3634 531 
L 3634 0 
L 628 0 
L 628 4666 
z
M 2268 5921 
L 2846 5921 
L 2134 5096 
L 1655 5096 
L 2268 5921 
z
" transform="scale(0.015625)"/>
      </defs>
      <use xlink:href="#DejaVuSans-43"/>
      <use xlink:href="#DejaVuSans-48" x="69.824219"/>
      <use xlink:href="#DejaVuSans-4c" x="145.019531"/>
      <use xlink:href="#DejaVuSans-4f" x="197.107422"/>
      <use xlink:href="#DejaVuSans-c9" x="275.818359"/>
     </g>
    </g>
   </g>
  </g>
 </g>
 <defs>
  <clipPath id="p22edadda2d">
   <rect x="108" y="77.76" width="669.6" height="489.24"/>
  </clipPath>
 </defs>
</svg>
