<?xml version="1.0" encoding="UTF-8" standalone="no"?>
<svg
   xmlns:dc="http://purl.org/dc/elements/1.1/"
   xmlns:cc="http://creativecommons.org/ns#"
   xmlns:rdf="http://www.w3.org/1999/02/22-rdf-syntax-ns#"
   xmlns:svg="http://www.w3.org/2000/svg"
   xmlns="http://www.w3.org/2000/svg"
   xmlns:sodipodi="http://sodipodi.sourceforge.net/DTD/sodipodi-0.dtd"
   xmlns:inkscape="http://www.inkscape.org/namespaces/inkscape"
   inkscape:version="1.0 (4035a4fb49, 2020-05-01)"
   sodipodi:docname="graphe-vocab.svg"
   id="svg8"
   version="1.1"
   viewBox="0 0 183.58134 80.337449"
   height="80.337448mm"
   width="183.58134mm">
  <defs
     id="defs2">
    <rect
       id="rect3665"
       height="52.791115"
       width="60.435151"
       y="5.2916667"
       x="18.520835" />
  </defs>
  <sodipodi:namedview
     lock-margins="true"
     fit-margin-bottom="5"
     fit-margin-right="5"
     fit-margin-left="5"
     fit-margin-top="5"
     height="147mm"
     objecttolerance="10000"
     inkscape:window-maximized="1"
     inkscape:window-y="0"
     inkscape:window-x="0"
     inkscape:window-height="1015"
     inkscape:window-width="1920"
     showgrid="true"
     inkscape:document-rotation="0"
     inkscape:current-layer="layer1"
     inkscape:document-units="mm"
     inkscape:cy="126.63176"
     inkscape:cx="210.94288"
     inkscape:zoom="1.4630397"
     inkscape:pageshadow="2"
     inkscape:pageopacity="0.0"
     borderopacity="1.0"
     bordercolor="#666666"
     pagecolor="#ffffff"
     id="base">
    <inkscape:grid
       originy="0.1059651"
       originx="-14.49561"
       id="grid64"
       type="xygrid" />
  </sodipodi:namedview>
  <metadata
     id="metadata5">
    <rdf:RDF>
      <cc:Work
         rdf:about="">
        <dc:format>image/svg+xml</dc:format>
        <dc:type
           rdf:resource="http://purl.org/dc/dcmitype/StillImage" />
        <dc:title></dc:title>
      </cc:Work>
    </rdf:RDF>
  </metadata>
  <g
     transform="translate(-14.495612,0.10596508)"
     id="layer1"
     inkscape:groupmode="layer"
     inkscape:label="Calque 1">
    <path
       d="m 122.81158,15.565289 c -0.62567,0.141777 -1.18358,0.395157 -1.73164,0.729198 -1.23031,0.749865 -2.67674,1.43141 -3.67264,2.548009 -0.23611,0.264725 -0.41931,0.572267 -0.62896,0.8584 -0.58005,0.976331 -1.03247,2.02138 -1.08385,3.174019 -0.0296,0.665094 0.11957,1.549316 0.32406,2.180632 0.10979,0.338948 0.27779,0.656195 0.41669,0.984292 0.22454,0.284914 0.41812,0.597231 0.67362,0.854742 1.10095,1.109604 2.61874,1.541253 4.14251,1.587963 0.36273,0.01111 0.72539,-0.0241 1.08809,-0.03616 0.3595,-0.08283 0.72553,-0.141179 1.07849,-0.248484 0.31563,-0.09595 0.63252,-0.201474 0.922,-0.359685 1.47689,-0.807164 2.68037,-1.29314 3.69914,-2.485098 0.36929,-0.432063 0.69297,-1.034278 0.9779,-1.520882 0.46397,-0.719176 0.64987,-1.493785 0.76809,-2.325835 0.0851,-0.599251 0.15829,-0.947606 0.0701,-1.547955 -0.0335,-0.227889 -0.11743,-0.445452 -0.17614,-0.668179 -0.27772,-0.976974 -0.77378,-1.905275 -1.64044,-2.488544 -0.42102,-0.283345 -1.31239,-0.63607 -1.77069,-0.831077 -0.94757,-0.157371 -1.84347,-0.472918 -2.80831,-0.51667 -0.35604,-0.01615 -0.90634,0.02193 -1.28256,0.04325 -0.0445,-0.05872 -2.12073,1.514993 -2.07622,1.573718 v 0 c 0.19784,-0.04355 0.39274,-0.103798 0.59353,-0.13066 1.2159,-0.16267 2.29774,0.07884 3.44658,0.463225 0.33822,0.131741 1.42827,0.535772 1.74798,0.739994 0.48019,0.306737 1.1455,1.163089 1.37202,1.689475 0.0885,0.205606 0.11562,0.432482 0.17343,0.648724 0.0425,0.22024 0.10391,0.43766 0.12746,0.660721 0.025,0.237124 0.0267,1.214266 -0.009,1.447934 -0.0402,0.263199 -0.13205,0.515889 -0.20196,0.772797 -0.24795,0.911165 -0.12739,0.55031 -0.54741,1.448297 -0.38139,0.589816 -0.60079,0.990561 -1.09622,1.502193 -0.23984,0.24768 -1.12002,0.696953 -0.77547,0.684444 0.51215,-0.0186 0.93783,-0.424032 1.36586,-0.705881 0.57261,-0.37705 -2.51149,1.313208 -1.94441,0.670609 -0.36977,0.03325 -0.73809,0.0941 -1.10931,0.09976 -1.41411,0.02156 -3.03115,-0.349136 -4.04307,-1.416837 -0.2321,-0.244885 -0.38116,-0.556831 -0.57174,-0.835246 -0.15123,-0.302855 -0.34104,-0.589341 -0.45368,-0.908564 -0.34977,-0.991276 -0.34918,-2.19345 -0.0765,-3.203346 0.2088,-0.773238 0.54334,-1.274018 0.92782,-1.961891 0.22581,-0.279611 0.42921,-0.578912 0.67743,-0.838832 0.25001,-0.261789 1.17334,-0.69713 0.81214,-0.720943 -0.51185,-0.03374 -0.91216,0.470421 -1.37873,0.683589 -0.21184,0.09679 0.40528,-0.23005 0.61367,-0.334053 0.17634,-0.08801 0.3588,-0.163229 0.53965,-0.241545 0.1521,-0.06587 0.30608,-0.127312 0.45913,-0.190968 0.0432,0.05831 2.10481,-1.470343 2.06157,-1.528653 z"
       id="path118"
       style="fill:#6f42c1;stroke-width:0.264583" />
    <path
       d="m 152.31738,26.270068 c -0.58345,-0.109262 -1.14135,0.14141 -1.63043,0.439508 -2.86299,1.745004 -2.02802,0.995704 -3.3402,2.308585 -0.20811,0.235373 -0.43693,0.453946 -0.62433,0.706123 -0.75836,1.020508 -1.34843,2.423236 -1.33344,3.712956 0.004,0.322516 0.0879,0.639061 0.13185,0.958593 0.213,0.510249 0.50128,1.278887 0.82348,1.736548 0.29919,0.42496 0.96968,1.048155 1.40457,1.330327 0.65955,0.42793 1.13455,0.545481 1.86746,0.802651 0.76503,0.151482 1.20678,0.282517 1.99226,0.266049 0.988,-0.02072 2.12022,-0.245086 2.9977,-0.716954 1.02319,-0.55022 2.00804,-1.168938 3.01206,-1.753405 0.51901,-0.439433 0.99567,-0.799084 1.41881,-1.343358 0.32981,-0.424215 0.67852,-1.150961 0.89173,-1.63861 0.12701,-0.290494 0.2717,-0.576805 0.35268,-0.883332 0.0729,-0.275828 0.0701,-0.566264 0.10508,-0.849397 0.008,-0.279221 0.0465,-0.559364 0.0226,-0.837661 -0.0217,-0.253005 -0.10585,-0.496726 -0.15858,-0.74513 -0.12246,-0.576813 -0.13856,-0.883497 -0.43885,-1.402501 -0.23779,-0.410977 -0.61774,-0.760719 -0.94336,-1.096076 -0.57827,-0.477128 -1.35149,-0.933277 -2.05841,-1.185778 -0.7532,-0.269034 -1.62232,-0.392492 -2.41096,-0.513348 -1.12135,-0.05327 -0.38587,-0.0502 -1.5084,0.02447 -0.19009,0.01264 -0.38226,9.79e-4 -0.57085,0.02799 -0.18827,0.02696 -0.36987,0.08878 -0.55481,0.133173 -0.0437,-0.05721 -2.06655,1.489207 -2.02282,1.54642 v 0 c 0.85125,-0.215098 1.7081,-0.305088 2.58849,-0.272489 2.43004,0.433306 -1.10225,-0.209761 1.48195,0.307285 0.29942,0.05991 0.60952,0.0699 0.90297,0.154331 0.25502,0.07337 0.48962,0.205047 0.7308,0.315717 0.81473,0.373854 0.59342,0.26497 1.30061,0.753777 0.4092,0.522187 0.87818,1.067437 1.10431,1.703784 0.0788,0.221734 0.10734,0.458332 0.15293,0.689195 0.17283,0.875268 0.12828,0.58828 0.10656,1.509749 -0.0332,0.266036 -0.0334,0.538287 -0.0995,0.798108 -0.0729,0.286533 -0.19707,0.558001 -0.31445,0.829363 -0.52442,1.212411 -1.2956,2.068737 -2.34882,2.851057 0.39903,-0.218059 0.86006,-0.348919 1.19709,-0.654177 0.24012,-0.217474 -0.58907,0.272026 -0.89447,0.380098 -1.28328,0.454104 -2.62225,0.562898 -3.93941,0.183211 -0.33316,-0.08949 -0.68117,-0.135525 -0.99949,-0.268481 -0.2869,-0.119832 -0.53822,-0.312063 -0.79831,-0.482423 -0.76567,-0.50151 -1.52771,-1.121912 -1.92722,-1.975718 -0.12956,-0.276889 -0.17245,-0.586581 -0.25867,-0.879871 -0.0298,-0.304179 -0.0944,-0.606949 -0.0893,-0.912538 0.0276,-1.645089 0.96737,-3.098808 2.03998,-4.2683 1.06357,-1.017225 0.65116,-0.521063 -0.99419,0.26884 -0.1732,0.08315 0.32069,-0.213392 0.49238,-0.299635 0.25097,-0.126072 0.48871,-0.172786 0.76227,-0.213672 0.0931,-0.01392 0.18734,-0.01802 0.28102,-0.02703 0.0429,0.05933 2.14056,-1.458688 2.09763,-1.518018 z"
       id="path122"
       style="fill:#6f42c1;stroke-width:0.264583" />
    <path
       d="m 146.55536,6.4580187 c -0.37312,0.2979457 -0.76937,0.6082811 -1.06986,0.9824908 -0.14377,0.1790367 -0.25382,0.3828164 -0.3742,0.5783461 -0.15403,0.2501892 -0.32741,0.4910262 -0.44887,0.7585482 -0.13163,0.2899244 -0.2042,0.6031849 -0.3063,0.9047774 -0.29733,1.4466428 -0.34578,2.8060108 0.42979,4.1254418 0.31958,0.543684 0.98817,1.248813 1.40452,1.716262 0.2695,0.231898 0.51976,0.488243 0.8085,0.695694 1.19189,0.856334 2.60486,1.230179 4.06315,1.222604 0.39539,-0.0021 0.78817,-0.06432 1.18225,-0.09648 1.1541,-0.13441 2.27999,-0.469032 3.28375,-1.065781 1.26085,-0.749586 2.82538,-1.432327 3.73227,-2.695107 0.18098,-0.251995 0.28359,-0.5519 0.42538,-0.827849 0.059,-0.18912 0.4792,-1.51891 0.51349,-1.701648 0.0538,-0.286513 0.0895,-1.310226 0.0625,-1.606584 -0.0452,-0.4951703 -0.20483,-0.9454271 -0.34561,-1.4171059 -0.50922,-0.8887843 -1.2778,-1.6129854 -2.19815,-2.0670223 -0.28656,-0.1413688 -1.26387,-0.5125554 -1.56237,-0.6282312 -1.64779,-0.4772297 -3.39655,-0.5213384 -5.09635,-0.3529229 -0.43032,0.042636 -0.85733,0.1138216 -1.286,0.1707324 -0.9761,0.08863 -1.9299,0.311013 -2.88169,0.532983 -0.0445,-0.057891 -2.09122,1.5141866 -2.04675,1.5720774 v 0 c 0.96351,-0.2854978 1.92897,-0.5827365 2.94225,-0.6255345 0.43889,-0.06909 0.87484,-0.1604221 1.31666,-0.2072698 0.38501,-0.040825 0.77332,-0.040149 1.16019,-0.055363 0.36708,-0.014436 0.7343,-0.041613 1.10158,-0.033584 0.91186,0.019934 1.82379,0.1823826 2.70365,0.4117808 1.12227,0.3895522 2.54646,0.9448446 3.26055,1.9552902 0.12687,0.1795179 0.20571,0.3885475 0.30857,0.5828212 0.22325,0.5118455 0.36181,0.7245836 0.42176,1.2942126 0.11553,1.097647 -0.27346,2.199883 -0.67565,3.197116 -0.15418,0.263999 -0.27823,0.548077 -0.46254,0.791997 -0.20409,0.270096 -1.02374,0.658327 -0.69528,0.740288 0.45054,0.112422 0.80394,-0.499102 1.25718,-0.600077 0.37532,-0.08362 -0.66592,0.387283 -1.01601,0.546347 -1.07371,0.48785 -1.17476,0.443486 -2.3057,0.673838 -0.66598,0.04311 -1.55709,0.129193 -2.22393,0.05627 -0.96607,-0.105649 -2.01943,-0.569605 -2.8303,-1.093144 -0.29463,-0.190227 -0.55693,-0.426379 -0.83539,-0.639568 -0.24202,-0.259263 -0.51164,-0.495272 -0.72606,-0.777788 -0.18354,-0.241821 -0.93437,-1.536149 -1.02405,-1.839743 -0.098,-0.33169 -0.0837,-0.686869 -0.10981,-1.031739 -0.0887,-1.1732549 -0.0812,-0.8060836 0.18011,-1.9632224 0.11777,-0.2938423 0.21105,-0.5987248 0.35331,-0.8815268 0.46237,-0.9192075 1.19535,-1.6993526 2.04925,-2.262056 -0.0271,-0.069007 -2.4669,0.8904197 -2.43977,0.959427 z"
       id="path124"
       style="fill:#6f42c1;stroke-width:0.264583" />
    <path
       d="m 185.77989,44.145448 c -0.39492,-0.211206 -0.11132,-0.08384 -0.65909,-0.237646 -0.15701,-0.04409 -0.30796,-0.11258 -0.46865,-0.140366 -0.75958,-0.131342 -1.50099,0.0079 -2.24722,0.139393 -2.46227,0.954058 -5.08234,2.266547 -6.74906,4.371763 -0.22517,0.284408 -0.40341,0.603009 -0.60511,0.904515 -0.61526,0.948193 -0.98011,1.801992 -0.99023,2.944267 -0.003,0.333659 0.003,0.672667 0.0773,0.998019 0.15681,0.689034 0.47793,1.087221 0.84561,1.666124 0.28825,0.306337 0.8669,0.954135 1.2217,1.205759 0.67631,0.479647 1.56777,0.756526 2.37868,0.87889 0.28498,0.043 0.57445,0.04766 0.86167,0.07148 1.42277,0.08102 2.8574,-0.175252 4.17344,-0.725204 0.28179,-0.117758 0.55124,-0.263117 0.82686,-0.394676 1.40891,-0.80236 2.96717,-1.497354 4.13865,-2.663095 0.56466,-0.561896 1.00142,-1.199922 1.43344,-1.863876 0.86784,-1.23639 1.26558,-2.687976 1.61552,-4.135411 0.0364,-0.237524 0.10973,-0.472273 0.10932,-0.712578 -5.3e-4,-0.234953 -0.0709,-0.464577 -0.11175,-0.69595 -0.14318,-0.810424 -0.10097,-0.678055 -0.40309,-1.446664 -0.0931,-0.236805 -0.16619,-0.484439 -0.2941,-0.704393 -0.1267,-0.21786 -0.30873,-0.398433 -0.4631,-0.597649 -0.6257,-0.700672 -0.35998,-0.445195 -1.05503,-1.058799 -0.50208,-0.443243 -0.97243,-0.813763 -1.63951,-0.97347 -0.18719,-0.04481 -0.38168,-0.05015 -0.57252,-0.07522 -0.0428,-0.06026 -2.17333,1.452555 -2.13054,1.512816 v 0 c 0.20062,-0.0016 0.40296,-0.03099 0.60185,-0.0047 0.96442,0.127494 2.00616,1.191929 2.63406,1.870686 0.86373,1.419577 1.38218,2.292702 0.99137,4.01492 -0.0304,0.217654 -0.0457,0.437962 -0.0913,0.652965 -0.25778,1.217271 -0.83631,2.350701 -1.52813,3.373316 -0.59073,0.867285 -1.22602,1.662512 -2.06516,2.305698 -0.21469,0.164557 -0.91296,0.573093 -0.66489,0.465243 0.49311,-0.214379 0.93831,-0.525383 1.40747,-0.788075 -0.25305,0.124011 -0.49994,0.261459 -0.75914,0.372031 -1.30713,0.557612 -2.71521,0.834046 -4.13373,0.83098 -1.38482,-0.158258 -2.73015,-0.313966 -3.78147,-1.340705 -0.19696,-0.192355 -0.34917,-0.425749 -0.52375,-0.638625 -0.29422,-0.446617 -0.71938,-1.001567 -0.83309,-1.544084 -0.16026,-0.764596 0.0921,-2.121429 0.41189,-2.828581 0.14882,-0.32911 0.36206,-0.6251 0.54309,-0.937647 0.60504,-0.816665 0.71161,-1.035738 1.46386,-1.741614 0.28641,-0.268753 1.18641,-0.481187 0.90471,-0.754867 -0.29814,-0.289639 -0.74358,0.372216 -1.12234,0.543438 -0.61404,0.277591 2.4654,-1.219567 1.85019,-0.814728 0.28031,-0.06494 0.55695,-0.148434 0.84092,-0.194808 0.8562,-0.139824 1.60363,-0.0052 2.39639,0.30856 0.0401,0.06121 2.20401,-1.356238 2.16392,-1.417442 z"
       id="path126"
       style="fill:#6f42c1;stroke-width:0.264583" />
    <path
       d="m 183.35758,7.1958451 c -0.82373,-0.00496 -1.61716,0.4354763 -2.30927,0.8423126 -3.04069,1.7873946 -2.13253,1.1098369 -3.81269,2.4939123 -1.1528,1.192701 -2.25383,2.545051 -2.6324,4.2024 -0.17176,0.751968 -0.14187,1.527175 -0.15219,2.289873 0.0971,0.345092 0.15031,0.705654 0.29125,1.035276 0.54115,1.265666 1.83599,2.395959 3.09083,2.919053 0.36943,0.154001 0.76733,0.228031 1.15099,0.342047 1.35884,0.227593 1.12428,0.242923 2.52351,0.253167 0.40146,0.0029 0.80466,0.01206 1.20407,-0.02854 1.15144,-0.11703 2.26886,-0.44822 3.35922,-0.814978 1.61271,-0.831634 3.3404,-1.58286 4.61237,-2.90819 0.61441,-0.640175 1.04717,-1.355312 1.47448,-2.124621 0.3905,-0.859578 0.66809,-1.745197 0.81689,-2.676488 0.0379,-0.237019 0.0965,-0.472854 0.10198,-0.712816 0.005,-0.221946 -0.0471,-0.441507 -0.0706,-0.66226 -0.0251,-0.231872 -0.0254,-0.467819 -0.0754,-0.695617 -0.0468,-0.213129 -0.14519,-0.411602 -0.21338,-0.618884 -0.14302,-0.4346667 -0.20448,-0.7834967 -0.46496,-1.1697495 -0.15328,-0.2272892 -0.6815,-0.7271565 -0.87234,-0.9147728 -0.55748,-0.5138205 -1.2434,-0.7690405 -1.93636,-1.0349851 -0.21522,-0.082595 -1.03996,-0.4113858 -1.28141,-0.47542 -0.21671,-0.057473 -0.44107,-0.080731 -0.66161,-0.1210967 -1.06006,-0.2447324 -0.0558,-0.054006 -1.23456,-0.1433562 -0.17644,-0.013375 -0.34815,-0.076316 -0.52509,-0.07792 -0.23667,-0.00214 -0.47096,0.047883 -0.70688,0.066748 -1.00107,0.080049 -0.26855,-0.024699 -1.31259,0.1626396 -1.02378,0.2192891 -2.03636,0.4708134 -3.01108,0.8544574 -1.28227,0.5197448 -2.41515,1.2552134 -3.62399,1.9517854 0.0263,0.067894 2.42669,-0.8611118 2.40041,-0.9290058 v 0 c -4.08101,2.3802767 -1.80125,0.9868186 -0.8038,0.5711336 0.27004,-0.1024364 0.5334,-0.222349 0.80531,-0.3197463 0.71148,-0.254857 1.45451,-0.4225285 2.18975,-0.5903476 1.2401,-0.224636 2.51844,-0.3702357 3.76734,-0.1250535 0.42408,0.10561 0.86025,0.1698554 1.27314,0.3130754 0.20962,0.07271 0.39669,0.2006759 0.60407,0.2795389 0.24211,0.092069 0.502,0.1336807 0.74157,0.2321795 0.53716,0.220861 0.69533,0.3817885 1.14651,0.7197146 0.1578,0.1287298 0.33349,0.2382007 0.47338,0.3861894 0.4249,0.4494837 0.58566,1.0231997 0.76382,1.5940227 0.0628,0.201078 0.14781,0.395903 0.19394,0.601434 0.0483,0.214996 0.0587,0.43676 0.0881,0.65514 0.0186,0.211943 0.0541,0.423078 0.0558,0.635828 0.005,0.621304 -0.0622,0.720683 -0.21656,1.326842 -0.17224,0.676337 -0.32832,1.351587 -0.71539,1.947134 -0.45846,0.711403 -0.9048,1.427754 -1.4971,2.039485 -0.19322,0.199552 -0.88933,0.601473 -0.61423,0.563126 0.0294,-0.0041 2.75282,-1.454535 0.34103,-0.172048 -0.35101,0.13656 -0.69506,0.292584 -1.05303,0.40968 -1.45911,0.477288 -3.28942,0.682507 -4.81816,0.55554 -0.39929,-0.03316 -0.79099,-0.128417 -1.18648,-0.192626 -0.68129,-0.198433 -1.53231,-0.394197 -2.14722,-0.778515 -0.49792,-0.311198 -1.05828,-0.979734 -1.40988,-1.4376 -0.20423,-0.265958 -0.45306,-0.512167 -0.57802,-0.823344 -0.13041,-0.324775 -0.11248,-0.690865 -0.16872,-1.036297 -0.038,-0.848947 -0.12076,-1.312976 0.0971,-2.155995 0.42181,-1.632151 1.52273,-2.969622 2.72533,-4.0947916 1.24681,-1.0191409 1.05801,-0.7742836 -0.42336,-0.014079 -0.23693,0.1215871 0.46531,-0.2594338 0.70284,-0.3798451 0.44187,-0.2239962 0.69998,-0.3714036 1.15874,-0.4619688 0.0869,-0.017164 0.17696,-0.00996 0.26543,-0.014946 0.0435,0.059668 2.15307,-1.4781656 2.10958,-1.5378334 z"
       id="path128"
       style="fill:#0b5cd5;stroke-width:0.264583" />
    <path
       transform="scale(0.26458333)"
       id="path130"
       d=""
       style="fill:#0b5cd5;stroke-width:0.714286" />
    <path
       id="path146"
       d="m 121.93044,26.836741 c -1.47331,-0.213426 -2.5727,-0.956454 -3.28724,-2.221699 -0.51425,-0.910587 -0.58639,-1.215136 -0.582,-2.456845 0.004,-1.218964 0.0894,-1.580295 0.60796,-2.58081 0.36437,-0.703056 0.9433,-1.442293 1.4631,-1.868231 0.83403,-0.683427 0.89592,-0.701811 2.03787,-0.605358 2.27584,0.192223 4.2717,1.273547 4.9365,2.674512 0.37634,0.793088 0.39975,2.759178 0.0468,3.931921 -0.31264,1.038834 -1.24196,2.430362 -1.91965,2.874396 -0.57206,0.37483 -1.80607,0.469011 -3.30334,0.252114 z"
       style="fill:#0b5cd5;stroke-width:0.188988" />
    <path
       id="path150"
       d="m 150.76518,15.623192 c -3.61015,-1.322431 -5.22208,-4.721084 -3.69168,-7.783681 l 0.57461,-1.1498903 1.22788,-0.1314952 c 2.97109,-0.3181768 5.80945,0.1943716 7.4774,1.3502631 0.82122,0.5691016 1.67378,2.1085104 1.67378,3.0222164 0,0.332444 -0.17203,1.161418 -0.38229,1.842165 -0.50888,1.647537 -1.47425,2.651311 -2.8294,2.941938 -1.30686,0.280272 -3.14897,0.23865 -4.0503,-0.09152 z"
       style="fill:#0b5cd5;stroke-width:0.188988" />
    <path
       id="path152"
       d="m 152.31523,36.865425 c -1.7438,-0.226195 -3.58183,-1.409549 -4.19439,-2.700425 -0.40852,-0.860874 -0.42054,-2.656702 -0.0241,-3.605416 0.39766,-0.951748 1.74523,-2.731743 2.06809,-2.731743 0.13853,0 0.46811,-0.17009 0.7324,-0.377979 0.57757,-0.454321 0.93827,-0.465521 2.78325,-0.08642 2.71647,0.55817 4.10866,1.956586 4.29816,4.317404 0.0719,0.896102 0.0129,1.441509 -0.2189,2.020703 -0.42159,1.053647 -1.30046,2.311175 -1.8812,2.691691 -0.64844,0.424873 -2.27071,0.639849 -3.56327,0.472188 z"
       style="fill:#0b5cd5;stroke-width:0.188988" />
    <path
       id="path154"
       d="m 180.65339,19.736329 c -1.46371,-0.396308 -1.97943,-0.734496 -3.05471,-2.003133 l -0.76619,-0.903975 8e-4,-1.634991 c 7.9e-4,-1.434909 0.0675,-1.761993 0.54551,-2.672796 0.72762,-1.386285 2.80834,-3.5328273 3.58413,-3.6975167 0.32629,-0.069268 0.75114,-0.2653048 0.94412,-0.4356377 0.27646,-0.2440313 0.73728,-0.3063346 2.17336,-0.2938423 1.50929,0.013129 2.04529,0.1035074 3.11886,0.5258816 2.30022,0.904976 2.96424,1.6709441 3.37819,3.8968811 0.17352,0.933048 0.15246,1.314931 -0.1301,2.358787 -0.35633,1.316394 -1.38801,3.07185 -2.29817,3.910462 -1.2066,1.111739 -5.08351,1.603027 -7.4958,0.94988 z"
       style="fill:#6f42c1;fill-opacity:1;stroke-width:0.188988" />
    <path
       d="m 182.35108,44.995523 c 0.84673,-0.02405 1.6828,-0.184211 2.52701,-0.222509 0.77721,-0.01312 1.57075,-0.07004 2.34525,0.01556 0.35025,0.04145 0.68471,0.127251 1.03005,0.194614 0.0169,0.05229 0.15738,-5.29e-4 0.14226,-0.01357 -0.2131,-0.184854 0.0664,0.198372 -0.15967,-0.151577 0.32405,0.504672 -0.13245,-0.03639 0.27047,0.207788 0.0982,0.0595 -0.23339,0.102918 0.16811,0.161404 0.11358,0.04232 0.10607,0.161292 0.1816,0.23691 0.0208,0.02082 0.0541,0.02711 0.0731,0.04957 0.12373,0.145979 -0.0766,-0.0039 0.0711,0.09643 0.0363,0.02953 0.0198,0.02024 -0.0144,-0.05509 0.0326,0.06625 2.37477,-1.086789 2.34215,-1.153035 v 0 c -0.022,-0.137798 0.008,-0.09101 -0.0531,-0.158382 -0.0489,-0.06971 -0.0155,-0.03835 -0.10959,-0.08299 -0.0197,-0.02175 -0.0117,-0.06017 -0.0308,-0.08245 -0.0716,-0.08359 -0.19531,-0.118224 -0.22191,-0.246663 -0.0484,-0.01326 -0.10535,-0.0094 -0.14532,-0.03976 -0.025,-0.01897 -0.007,-0.06544 -0.0258,-0.0904 -0.0327,-0.04298 -0.18863,-0.08261 -0.15726,-0.03869 0.0382,0.05345 0.10404,0.08024 0.15605,0.120359 -0.0313,-0.03819 -0.0669,-0.07325 -0.0939,-0.114578 -0.0156,-0.02384 -0.0107,-0.06086 -0.0327,-0.079 -0.0173,-0.01431 -0.0485,0.0088 -0.0673,-0.0035 -0.0104,-0.0068 0.0178,-0.03513 0.006,-0.03699 -0.0336,-0.0051 -0.0679,0.03568 -0.0993,0.02281 -0.0193,-0.0079 0.001,-0.04178 0.002,-0.06266 -0.13813,-0.01587 -0.27222,-0.02003 -0.40781,-0.05543 -0.0595,-0.01553 -0.11562,-0.04513 -0.17649,-0.05409 -0.58321,-0.08585 -0.004,0.07413 -0.51873,-0.08745 -0.22844,-0.01458 -0.45529,-0.05005 -0.68383,-0.06298 -0.57347,-0.03243 -1.15003,0.04678 -1.72348,0.0415 -0.84016,0.09015 -1.68492,0.106511 -2.52388,0.20846 -0.0435,-0.05853 -2.11275,1.477862 -2.0693,1.53639 z"
       id="path156"
       style="fill:#0b5cd5;fill-opacity:1;stroke-width:0.264583" />
    <path
       id="path158"
       d="m 179.85529,55.168056 c -1.24937,-0.323535 -1.62472,-0.543112 -2.36007,-1.380635 -0.72147,-0.821703 -1.13621,-1.728669 -1.13621,-2.484686 0,-1.005779 0.57215,-2.470912 1.3741,-3.518723 1.51891,-1.984573 3.18148,-2.763671 5.04483,-2.364055 0.85645,0.183677 1.01846,0.162274 1.62927,-0.215225 0.6037,-0.37311 0.8541,-0.408212 2.27809,-0.319373 1.15922,0.07232 1.70143,0.191741 1.96868,0.433599 1.24069,1.122807 0.73008,4.329861 -1.1195,7.031386 -1.02686,1.499863 -1.84927,2.224072 -2.93833,2.587475 -1.26112,0.420817 -3.57161,0.533024 -4.74086,0.230237 z"
       style="fill:none;fill-opacity:1;stroke-width:0.188988" />
    <path
       id="path162"
       d="m 179.85529,55.168056 c -1.24937,-0.323535 -1.62472,-0.543112 -2.36007,-1.380635 -0.72147,-0.821703 -1.13621,-1.728669 -1.13621,-2.484686 0,-1.005779 0.57215,-2.470912 1.3741,-3.518723 1.51891,-1.984573 3.18148,-2.763671 5.04483,-2.364055 0.85645,0.183677 1.01846,0.162274 1.62927,-0.215225 0.6037,-0.37311 0.8541,-0.408212 2.27809,-0.319373 1.15922,0.07232 1.70143,0.191741 1.96868,0.433599 1.24069,1.122807 0.73008,4.329861 -1.1195,7.031386 -1.02686,1.499863 -1.84927,2.224072 -2.93833,2.587475 -1.26112,0.420817 -3.57161,0.533024 -4.74086,0.230237 z"
       style="fill:#0b5cd5;fill-opacity:1;stroke-width:0.188988" />
    <path
       d="m 140.98287,64.754931 c -0.0605,-0.05219 -0.11017,-0.120406 -0.18139,-0.156567 -0.27494,-0.139597 -0.91573,-0.28652 -1.21471,-0.282845 -0.42872,0.0053 -0.80661,0.133996 -1.21482,0.243076 -0.45857,0.269975 -0.94657,0.495263 -1.3757,0.809929 -0.61305,0.449522 -1.05501,1.376952 -1.17063,2.108692 -0.0815,0.516072 0.0375,1.114486 0.10527,1.619811 0.10302,0.239667 0.16916,0.498814 0.30905,0.719003 0.24843,0.391022 1.08034,1.150228 1.52011,1.339807 0.44166,0.190397 0.68384,0.132056 1.14209,0.115647 0.13646,-0.029 0.278,-0.04006 0.40938,-0.08698 0.38817,-0.138639 1.27926,-0.868595 1.33799,-0.937783 0.0524,-0.06171 -0.16213,-0.713457 -0.17459,-0.733732 -0.071,-0.115589 -0.19342,-0.19031 -0.29012,-0.285467 -0.0919,-0.323469 -0.39334,-0.466183 -0.58225,-0.713126 -0.0321,-0.04194 -0.0897,-0.09428 -0.0687,-0.142725 0.0236,-0.05446 0.20848,-0.110513 0.16238,-0.07312 -0.1604,0.130098 -0.33904,0.235934 -0.50857,0.353902 0.73856,-0.153244 1.49178,-0.250921 2.24382,-0.307978 0.19615,0.02743 0.38524,-0.04695 0.58029,-0.03297 0.0164,0.02217 0.80019,-0.558715 0.78376,-0.580885 v 0 c -0.1931,0.07875 -0.41865,0.04749 -0.62499,0.06676 -0.18412,0.01503 -0.36985,0.009 -0.55338,0.03 -0.57997,0.06639 -1.14726,0.183184 -1.72349,0.274397 -0.37012,0.192627 -0.75781,0.354705 -1.11034,0.577881 -0.27325,0.172985 0.34382,0.636606 0.41923,0.719926 0.0786,0.08688 0.14194,0.186492 0.21291,0.279736 0.0666,0.105805 0.13268,0.211947 0.19982,0.317413 0.0644,0.101169 0.16466,0.186407 0.19484,0.302485 0.0275,0.105587 -0.13852,0.304599 -0.0315,0.325779 0.20987,0.04153 0.39189,-0.206214 0.60575,-0.212146 0.28249,-0.0078 -1.09082,0.509164 -0.77414,0.345633 -0.16856,0.0013 -0.33813,0.02262 -0.50568,0.0041 -1.19337,-0.131847 -1.93796,-1.051747 -2.36497,-2.095574 -0.0368,-0.265292 -0.10436,-0.528111 -0.11056,-0.79588 -0.008,-0.364759 0.10982,-1.212498 0.25489,-1.560202 0.45738,-1.096251 0.33625,-0.355508 0.96922,-1.274414 0.0421,-0.06118 -0.13848,0.05382 -0.20773,0.08073 0.85621,-0.245653 1.80284,-0.458325 2.56919,0.130601 0.0139,0.02172 0.78222,-0.471184 0.76828,-0.492914 z"
       id="path182"
       style="fill:#4d1230;fill-opacity:1;stroke-width:0.264583" />
    <path
       d="m 145.33433,71.471739 c -0.0356,-0.152424 -0.0754,-0.303924 -0.10684,-0.457269 -0.0397,-0.194027 -0.0614,-0.391681 -0.10652,-0.584536 -0.15079,-0.645009 -0.3669,-1.290484 -0.39319,-1.960512 -0.009,-0.227415 0.0279,-0.454324 0.0419,-0.681485 0.0434,-0.212632 0.0625,-0.431715 0.13022,-0.637891 0.25001,-0.761048 0.80129,-1.508853 1.46452,-1.956745 0.14181,-0.09577 0.29965,-0.165354 0.44947,-0.248034 -0.12796,0.127614 -0.392,0.202301 -0.38389,0.382837 0.006,0.136371 0.28322,0.0031 0.40409,0.06656 0.10713,0.05625 0.16218,0.179681 0.24054,0.271896 0.31994,0.376528 0.34385,0.491178 0.31139,0.976215 -0.31723,0.323294 -0.35245,0.410739 -0.78,0.620863 -0.1202,0.05908 0.46554,-0.214919 0.33208,-0.226222 -0.17864,-0.01513 -0.32754,0.146103 -0.49406,0.212503 -0.28369,0.11312 -0.4532,0.162814 -0.73115,0.251473 -0.36149,0.178533 -0.72837,0.350243 -1.0287,0.635035 -0.0659,0.06249 1.06165,0.595079 1.08386,0.606216 0.66173,0.622173 1.3866,1.176385 1.91875,1.919644 0.28203,0.18442 0.46978,0.462746 0.73732,0.659551 0.012,0.01466 0.0239,0.0293 0.0358,0.04395 0.014,0.02172 0.78194,-0.471945 0.76798,-0.493667 v 0 c -0.003,-0.01283 -0.005,-0.02567 -0.008,-0.03852 -0.0731,-0.06832 -0.1365,-0.170757 -0.21521,-0.229124 -0.0509,-0.03774 -0.11731,-0.05144 -0.16702,-0.09073 -0.1263,-0.09983 -0.19806,-0.258765 -0.32905,-0.353542 -0.32164,-0.350263 -0.14099,-0.175627 -0.54974,-0.515733 -0.10695,-0.110525 -0.18137,-0.24946 -0.28683,-0.361403 -0.34921,-0.370641 -0.7701,-0.677508 -1.12747,-1.040378 -0.12949,-0.0735 -0.25898,-0.147003 -0.38847,-0.220504 -0.11085,-0.05255 -0.22493,-0.09877 -0.33256,-0.157655 -0.0661,-0.03616 -0.11768,-0.09749 -0.18712,-0.126685 -0.025,-0.0105 -0.056,0.0019 -0.08,0.01437 -0.2583,0.133906 -0.50899,0.28203 -0.76353,0.422942 -0.0637,0.03525 0.12728,-0.07064 0.19093,-0.105963 0.9586,-0.325329 1.58992,-0.607587 2.51424,-1.155253 0.13531,-0.08017 0.26478,-0.173583 0.3768,-0.283985 0.11083,-0.109231 0.19055,-0.246063 0.28583,-0.369094 0.0247,-0.132477 0.0832,-0.26298 0.0741,-0.397433 -0.009,-0.128535 -0.0756,-0.246809 -0.12577,-0.365448 -0.15659,-0.369956 -0.16776,-0.422762 -0.54227,-0.608491 -0.12057,-0.05979 -0.25262,-0.157782 -0.38348,-0.126328 -0.43602,0.104809 -0.828,0.344701 -1.242,0.517051 -0.37239,0.226362 -0.53184,0.293463 -0.84944,0.623136 -0.41958,0.435541 -0.83722,1.072928 -1.02458,1.64774 -0.0686,0.210394 -0.078,0.435645 -0.11701,0.653468 -0.008,0.229503 -0.0395,0.45928 -0.0254,0.68851 0.0137,0.222869 0.0696,0.441153 0.10833,0.66105 0.13966,0.792187 0.35318,1.56812 0.47713,2.363142 0.0126,0.02331 0.83659,-0.422206 0.82398,-0.445513 z"
       id="path184"
       style="fill:#4d1230;fill-opacity:1;stroke-width:0.264583" />
    <path
       d="m 152.51904,71.232945 c 0.0155,-0.108167 0.0268,-0.216996 0.0464,-0.324499 0.0287,-0.157736 0.0767,-0.311957 0.0982,-0.470828 0.094,-0.694367 -0.0109,-0.540576 0.12151,-1.270461 0.0269,-0.14814 0.3117,-1.240324 0.35449,-1.406003 0.13162,-0.551781 0.32377,-1.073441 0.56476,-1.584516 0.1364,-0.289258 0.24558,-0.493998 0.50615,-0.686551 -0.17217,0.145992 -0.41276,0.237495 -0.5165,0.437975 -0.0394,0.07626 0.16285,0.06067 0.2325,0.110874 0.0884,0.06376 0.16574,0.143155 0.2358,0.226703 0.34335,0.409458 0.48585,0.902517 0.6574,1.398278 0.39617,1.767877 -0.0881,-0.454851 0.25721,1.334079 0.0399,0.206484 0.10555,0.407723 0.1396,0.615244 0.0784,0.477707 0.0874,0.961697 0.17232,1.43974 0.003,0.101315 0.006,0.202632 0.009,0.303946 0.0118,0.02278 0.81767,-0.396444 0.80582,-0.419235 v 0 c -0.002,-0.103283 -0.003,-0.206563 -0.005,-0.309846 -0.0161,-0.171857 -0.0662,-0.733226 -0.0911,-0.874707 -0.0323,-0.183639 -0.0919,-0.361667 -0.12647,-0.544885 -0.12459,-0.659758 -0.1824,-1.333649 -0.3655,-1.982552 -0.0768,-0.185114 -0.15898,-0.368107 -0.23049,-0.555342 -0.0648,-0.169559 -0.0946,-0.35342 -0.17812,-0.514551 -0.0948,-0.182843 -0.36372,-0.465977 -0.52732,-0.608804 -0.0692,-0.06039 -0.13077,-0.183084 -0.22077,-0.164817 -0.37092,0.07529 -0.70235,0.282318 -1.05352,0.423479 -0.0706,0.05269 -0.15211,0.09335 -0.21192,0.158073 -0.0681,0.07373 -0.11395,0.165422 -0.16621,0.251129 -0.36146,0.592799 -0.53702,1.272392 -0.70625,1.940705 -0.13886,0.698535 -0.32565,1.390576 -0.43784,2.094027 -0.0321,0.201136 -0.0408,0.405455 -0.0707,0.606938 -0.12399,0.837205 -0.0677,0.130429 -0.10722,0.777891 0.0113,0.02302 0.82516,-0.378468 0.8138,-0.401484 z"
       id="path186"
       style="fill:#4d1230;fill-opacity:1;stroke-width:0.264583" />
    <path
       d="m 152.23085,69.173873 c 0.47163,-0.125924 0.93012,-0.28339 1.41217,-0.362379 0.0163,0.02154 0.77796,-0.553969 0.76168,-0.575514 v 0 c -0.49728,0.102611 -0.98541,0.238218 -1.46922,0.392819 -0.0154,-0.01992 -0.72005,0.525142 -0.70463,0.545074 z"
       id="path188"
       style="fill:#4d1230;fill-opacity:1;stroke-width:0.264583" />
    <path
       d="m 158.26227,66.148531 c 0.0392,0.535141 0.16823,1.059016 0.23772,1.589001 0.0375,0.285718 0.0399,0.575328 0.0778,0.86098 0.0746,0.561488 0.18629,1.117582 0.2635,1.678721 0.0985,0.561059 0.15999,1.125037 0.19018,1.693214 0.0122,0.0232 0.83291,-0.408048 0.82071,-0.431263 v 0 c -0.0909,-0.562147 -0.12306,-1.12748 -0.19431,-1.692648 -0.11504,-0.626187 -0.19908,-1.032433 -0.27637,-1.67123 -0.0842,-0.695923 -0.12164,-1.400654 -0.21343,-2.095574 -0.0165,-0.124783 -0.0492,-0.246875 -0.0738,-0.370314 -0.0124,-0.02352 -0.8444,0.415581 -0.83198,0.439113 z"
       id="path190"
       style="fill:#4d1230;fill-opacity:1;stroke-width:0.264583" />
    <path
       d="m 157.45791,64.877187 c 0.50725,0.0065 1.02408,-0.01992 1.52903,0.04087 0.63045,0.07588 1.26478,0.267226 1.87672,0.429148 0.41589,0.299863 0.82638,0.478883 1.10027,0.929453 0.0563,0.09258 0.12709,0.186383 0.13832,0.29415 0.0256,0.24561 -0.1927,0.404707 -0.32957,0.556205 -0.15,0.09688 -0.29659,0.199247 -0.44999,0.290639 -0.0884,0.05265 0.35563,-0.194061 0.25468,-0.174281 -0.18864,0.03696 -0.35199,0.154675 -0.52962,0.228153 -0.45935,0.190016 -0.92146,0.371454 -1.39431,0.524491 -0.0994,0.03355 -0.19883,0.0671 -0.29825,0.100656 -0.0169,-0.02175 -0.78574,0.576326 -0.76882,0.598072 v 0 c 0.10385,-0.03669 0.20771,-0.07339 0.31157,-0.110085 1.30589,-0.412504 2.58509,-1.002387 3.69491,-1.805604 0.17645,-0.219499 0.36878,-0.350536 0.32341,-0.66506 -0.0168,-0.116607 -0.0956,-0.215799 -0.15354,-0.318349 -0.0704,-0.124468 -0.1297,-0.260535 -0.23094,-0.361513 -0.21672,-0.216154 -0.69303,-0.436674 -0.95062,-0.570929 -0.19356,-0.07275 -0.38213,-0.160451 -0.58067,-0.218241 -0.90128,-0.262343 -1.87617,-0.31477 -2.80808,-0.31173 -0.0154,-0.02077 -0.74989,0.523179 -0.7345,0.543955 z"
       id="path192"
       style="fill:#4d1230;fill-opacity:1;stroke-width:0.264583" />
    <path
       d="m 164.6314,64.262878 c 0.007,0.30608 -0.0214,0.612606 -0.01,0.918623 0.009,0.249462 0.0489,0.497371 0.054,0.746955 0.0195,0.955871 -0.0565,1.920814 -0.0893,2.875984 -0.0737,0.773457 -0.0465,1.545908 -0.14059,2.317253 0.012,0.02408 0.8631,-0.400897 0.85108,-0.424969 v 0 c 0.0659,-0.762312 0.0539,-1.529868 0.084,-2.294162 0.0802,-1.522585 0.0563,-3.050074 0.11148,-4.574109 -0.0123,-0.02434 -0.87289,0.410083 -0.8606,0.434425 z"
       id="path194"
       style="fill:#4d1230;fill-opacity:1;stroke-width:0.264583" />
    <path
       d="m 164.7503,68.217504 c 0.76603,-0.04271 1.53766,-0.01101 2.30222,-0.07897 0.0913,-0.0037 0.18254,-0.0074 0.2738,-0.01111 0.0154,0.02098 0.7577,-0.524574 0.74227,-0.545569 v 0 c -0.095,0.0072 -0.18999,0.01439 -0.28499,0.02159 -0.26637,0.0126 -0.53175,0.04464 -0.79832,0.05196 -0.49148,0.01349 -0.98636,-0.03277 -1.47798,0.0071 -0.0157,-0.0214 -0.7727,0.533599 -0.757,0.555012 z"
       id="path196"
       style="fill:#4d1230;fill-opacity:1;stroke-width:0.264583" />
    <path
       d="m 168.51393,64.207979 c -0.0564,1.284889 -0.27234,2.549528 -0.49116,3.815144 -0.14404,0.72572 -0.163,1.466723 -0.28201,2.195827 -0.0309,0.189497 -0.0836,0.375108 -0.11258,0.564907 -0.0399,0.260935 -0.0537,0.525378 -0.0923,0.7865 -0.007,0.08292 -0.0142,0.165849 -0.0213,0.248772 0.0117,0.02381 0.85409,-0.391216 0.84235,-0.415041 v 0 c 0.002,-0.0803 0.003,-0.160594 0.005,-0.24089 0.0944,-0.940276 -0.0468,0.367197 0.12056,-0.799767 0.13084,-0.912212 0.19011,-1.834549 0.35799,-2.741779 0.22836,-1.267066 0.40144,-2.546689 0.50679,-3.82779 -0.0117,-0.02358 -0.84475,0.390554 -0.83304,0.414117 z"
       id="path198"
       style="fill:#4d1230;fill-opacity:1;stroke-width:0.264583" />
    <path
       d="m 176.75499,63.716802 c -0.73111,0.0272 -1.45201,0.172421 -2.18258,0.226655 -0.56074,0.05722 -1.12567,0.145783 -1.68928,0.170675 -0.14987,0.02588 -0.25709,-0.01392 -0.39399,0.03927 -0.65961,0.379878 -1.11114,0.557067 -1.28778,1.290547 -0.066,0.421233 -0.22777,0.825537 -0.29941,1.244749 -0.06,0.350819 -0.0522,0.710385 -0.10116,1.06291 -0.0263,0.189757 -0.0677,0.377113 -0.1016,0.565669 -0.0367,0.21178 -0.16238,0.913164 -0.18402,1.132128 -0.0165,0.166936 -0.003,0.335944 -0.0202,0.502841 -0.006,0.05764 -0.1429,0.8378 -0.14619,0.923464 -0.004,0.110159 0.0245,0.219118 0.0368,0.328676 0.0664,0.267235 -0.12861,0.596837 0.0394,0.846151 0.0358,0.05314 0.21768,0.16913 0.26388,0.200557 0.74824,0.13702 1.50546,0.117321 2.26159,0.113527 0.62973,-0.0104 1.2769,0.05801 1.9022,-0.03443 0.0217,0.01495 0.0434,0.0299 0.065,0.04485 0.0162,0.02204 0.79523,-0.549489 0.77907,-0.571526 v 0 c -0.0422,5.29e-4 -0.0843,7.94e-4 -0.12653,0.0013 -0.63484,0.04955 -1.27657,0.0092 -1.91337,0.0467 -1.00378,-0.07142 0.26137,0.0042 -0.86934,-0.0109 -0.34553,-0.0046 -0.68715,-0.05294 -1.02759,-0.09972 -0.0906,-0.01246 -0.18212,-0.01611 -0.27318,-0.02416 -0.0582,-0.01159 -0.12171,-0.0077 -0.17447,-0.03479 -0.18826,-0.09662 -0.10461,-0.743617 -0.10421,-0.88982 0.0332,-0.421381 0.10409,-0.840454 0.13547,-1.261126 0.0123,-0.165439 -0.004,-0.332401 0.0118,-0.497554 0.0354,-0.372277 0.14923,-0.734896 0.14864,-1.111983 0.10255,-0.962806 0.29331,-1.91716 0.51669,-2.858143 0.0919,-0.168275 0.18526,-0.426252 0.31744,-0.575768 0.24596,-0.278204 0.90449,-0.593058 -0.59215,0.255191 0.11101,-0.09597 0.27426,-0.05242 0.40849,-0.08994 0.56462,-0.0358 1.12567,-0.09356 1.68881,-0.166979 0.7349,-0.07647 1.46952,-0.148701 2.20234,-0.242858 0.0149,0.02005 0.72439,-0.506169 0.70951,-0.526238 z"
       id="path204"
       style="fill:#4d1230;fill-opacity:1;stroke-width:0.264583" />
    <path
       d="m 171.47719,68.440424 c 0.79067,0.0096 1.58181,0.01011 2.37293,0.0053 0.53716,0.03903 1.07184,0.0021 1.60903,0.01474 0.0531,0.0064 0.10603,-0.0033 0.15802,0.0093 0.0165,0.02223 0.80246,-0.561882 0.78594,-0.58411 v 0 c -0.065,0.01119 -0.12687,0.03365 -0.19429,0.02821 -0.22126,-0.02736 0.0297,-0.0044 -0.30398,0.0094 -0.44191,0.01828 -0.88399,-0.05322 -1.32558,-0.0063 -0.15784,5.3e-4 -0.31568,0.0013 -0.47352,0.0019 -0.14441,-0.01098 -0.28842,-0.03061 -0.43322,-0.03293 -0.46768,-0.0075 -0.93988,0.0419 -1.40675,-0.01455 -0.0161,-0.0223 -0.80467,0.546722 -0.78858,0.569026 z"
       id="path206"
       style="fill:#4d1230;fill-opacity:1;stroke-width:0.264583" />
    <path
       d="m 130.17579,25.175198 c 1.76654,0.848488 3.61984,1.481792 5.4607,2.146563 1.73104,0.659281 3.49383,1.234255 5.20878,1.933956 0.31567,0.200671 0.69203,0.239456 1.02954,0.380791 0.11204,0.04692 0.2065,0.129408 0.31723,0.179343 0.10213,0.04605 0.21428,0.0662 0.31848,0.107323 0.14231,0.05616 0.27796,0.128233 0.4201,0.18483 -0.001,0.06811 0.33331,0.143211 0.3398,0.146806 0.0199,0.01103 -0.007,0.05848 0.10548,0.09424 0.0769,0.06127 0.0202,-0.0035 0.12843,0.01627 0.0141,0.0026 10e-4,0.03422 0.0143,0.04035 0.16174,0.07691 0.0485,-0.0616 0.13803,0.07535 0.0524,0.02785 0.2057,0.03469 0.25033,0.07578 0.0141,0.01294 -0.0114,0.04084 -0.002,0.05733 0.0525,0.08944 0.0554,-0.04514 0.043,0.06075 0.0151,0.02432 0.87423,-0.508288 0.85916,-0.532588 v 0 c -0.10138,-0.151159 -0.13212,-0.02442 -0.25358,-0.07599 -0.0237,-0.01005 -0.005,-0.0513 -0.007,-0.07695 -0.0331,-0.0085 -0.0661,-0.01709 -0.0992,-0.02564 -0.0903,-0.06611 -0.18181,-0.0832 -0.25266,-0.158067 -0.0908,-0.01717 -0.14635,-0.07915 -0.22929,-0.09988 -0.30675,-0.07669 -0.0288,0.06469 -0.29068,-0.09213 -0.34987,-0.232426 0.0746,0.02844 -0.42178,-0.186582 -0.0921,-0.0399 -0.17032,-0.108209 -0.26317,-0.146327 -0.12885,-0.0529 -0.26814,-0.0766 -0.39861,-0.125349 -0.33563,-0.125389 -0.64964,-0.305126 -0.99595,-0.404215 -1.73129,-0.66775 -3.49181,-1.253035 -5.22059,-1.927333 -0.35563,-0.129562 -0.70915,-0.265057 -1.06689,-0.388689 -0.37585,-0.129894 -0.76064,-0.233796 -1.1336,-0.371788 -0.35122,-0.129948 -0.68964,-0.292315 -1.03733,-0.431432 -0.0167,-0.0067 -1.68083,-0.639844 -1.80202,-0.70322 -0.12973,-0.06785 -0.22662,-0.185411 -0.33993,-0.278116 -0.0148,-0.02318 -0.83431,0.501417 -0.81947,0.524596 z"
       id="path234"
       style="fill:#4d1230;fill-opacity:1;stroke-width:0.264583" />
    <path
       d="m 130.08633,19.518484 c 1.24859,-0.560948 2.4868,-1.143506 3.74387,-1.68551 1.97199,-0.872605 3.97988,-1.659735 5.96466,-2.502047 0.74623,-0.31519 1.5111,-0.594485 2.23942,-0.950852 0.42979,-0.188032 0.79227,-0.335208 1.23176,-0.700425 0.32006,-0.197858 1.32044,-0.778411 -0.11398,0.06194 0.2522,-0.150419 0.51135,-0.288536 0.76567,-0.434933 0.40652,-0.170132 0.77859,-0.40497 1.11378,-0.669036 -0.0272,-0.0078 -0.0543,-0.01553 -0.0814,-0.02329 -0.0118,-0.02219 -0.79642,0.395702 -0.7846,0.417894 v 0 c -0.008,-0.0087 -0.0169,-0.01735 -0.0254,-0.02603 -0.63292,0.328527 1.02534,-0.558352 0.49282,-0.27664 -0.2487,0.145398 -0.50341,0.281829 -0.75417,0.425269 -0.47297,0.268187 -0.97066,0.521717 -1.41655,0.838911 -0.63809,0.382828 1.14333,-0.593287 0.30512,-0.195021 -0.73773,0.365236 -1.51058,0.659556 -2.26926,0.977861 -1.98827,0.828512 -3.98547,1.636702 -5.96043,2.49606 -1.25975,0.522831 -2.48232,1.124183 -3.72915,1.676402 -0.0161,-0.02042 -0.73822,0.54902 -0.72211,0.569444 z"
       id="path236"
       style="fill:#4d1230;fill-opacity:1;stroke-width:0.264583" />
    <path
       d="m 152.93372,17.393795 c -0.23633,1.382874 -0.49903,2.760557 -0.70524,4.148506 0.0116,0.424676 -0.17036,0.813695 -0.23058,1.224719 -0.0199,0.135905 0.005,0.275505 -0.0111,0.411917 -0.0376,0.318868 -0.11829,0.453515 -0.0661,0.772948 -0.0247,0.05904 -0.1098,0.467108 -0.0756,0.505899 -0.0638,0.155014 -0.0822,0.325057 -0.14053,0.482104 -0.0903,0.184543 -0.11296,0.394911 -0.20289,0.579796 0.0112,0.0241 0.86307,-0.372075 0.85186,-0.396169 v 0 c 0.11619,-0.165838 0.1175,-0.392747 0.19118,-0.580406 0.0902,-0.159355 0.13858,-0.323499 0.13307,-0.503686 0.0103,-0.158149 0.0347,-0.318195 0.0323,-0.479591 0.0224,-0.265808 0.0828,-0.525325 0.10779,-0.790356 0.0131,-0.137905 0.004,-0.277449 0.0188,-0.415131 0.0441,-0.398904 0.15557,-0.788851 0.16752,-1.19228 0.19967,-1.082515 0.42404,-2.161417 0.61652,-3.245042 0.0358,-0.201257 0.0522,-0.405693 0.0898,-0.606621 0.0212,-0.113686 0.0576,-0.224015 0.0864,-0.336023 -0.0119,-0.02441 -0.87503,0.395002 -0.86316,0.419416 z"
       id="path238"
       style="fill:#4d1230;fill-opacity:1;stroke-width:0.264583" />
    <path
       d="m 161.71363,28.623411 c -0.24989,0.12904 -0.51444,0.231375 -0.75787,0.372017 -0.17948,0.1699 -0.41936,0.293135 -0.53844,0.509699 -0.0577,0.104915 0.22095,-0.09239 0.33267,-0.135454 0.14217,-0.0548 0.28659,-0.103608 0.42888,-0.158112 0.76769,-0.294071 1.53304,-0.591312 2.29385,-0.902859 1.93805,-0.755692 3.86204,-1.545151 5.77975,-2.350937 1.41067,-0.584762 2.79012,-1.241469 4.19233,-1.845302 0.47815,-0.199168 0.9326,-0.450551 1.40223,-0.666479 0.48451,-0.28366 0.9734,-0.558572 1.47184,-0.816946 0.50508,-0.256188 1.03091,-0.468738 1.53617,-0.72401 0.20516,-0.09439 0.4318,-0.162876 0.62731,-0.277437 0.34613,-0.15452 0.7739,-0.314353 1.01615,-0.620701 -0.0105,-0.0252 -0.90139,0.345781 -0.89089,0.370979 v 0 c -0.36129,0.259995 0.97303,-0.545981 0.59814,-0.33278 -0.19824,0.118623 -0.42386,0.188773 -0.63228,0.288233 -0.49879,0.215564 -0.97407,0.486901 -1.48417,0.678699 -0.49726,0.267105 -0.98808,0.546031 -1.48096,0.82015 -0.4707,0.250038 -0.94005,0.503658 -1.43609,0.703024 -1.39139,0.631843 -2.77525,1.281156 -4.19422,1.850128 -1.91929,0.828752 -3.86779,1.589162 -5.80566,2.373715 -0.76196,0.299336 -1.52125,0.605478 -2.28578,0.898213 -0.14647,0.05608 -0.29321,0.111453 -0.44023,0.166068 -0.10068,0.0374 -0.21188,0.05291 -0.30287,0.109982 -0.32688,0.20501 -0.62865,0.44758 -0.94297,0.67137 0.23668,-0.147598 0.49316,-0.265769 0.74912,-0.374626 0.0171,0.02162 0.78115,-0.585023 0.76399,-0.606634 z"
       id="path240"
       style="fill:#4d1230;fill-opacity:1;stroke-width:0.264583" />
    <path
       d="m 182.46532,22.133649 c -0.0359,0.1115 -0.0796,0.220783 -0.10767,0.334499 -0.0502,0.203249 -0.0766,0.411895 -0.12689,0.615121 -0.0875,0.353458 -0.53444,1.920163 -0.60556,2.176206 -0.42271,1.521645 -0.30918,1.109966 -0.69216,2.646563 -0.1056,0.447836 -0.20225,0.897882 -0.31681,1.343512 -0.11349,0.441476 -0.25775,0.87477 -0.3672,1.317265 -0.0947,0.382918 -0.15356,0.774025 -0.24501,1.157737 -0.0835,0.350457 -0.19362,0.694164 -0.27975,1.04399 -0.48425,1.966834 0.0993,-0.165557 -0.40209,1.619116 -0.0186,0.414535 -0.2007,0.791673 -0.27849,1.192331 -0.0293,0.150858 -0.0186,0.307406 -0.0446,0.458859 -0.12952,0.753054 -0.0839,0.141388 -0.24151,0.87666 -0.0249,0.116118 -0.0252,0.236177 -0.0378,0.354266 -0.094,0.210111 -0.0825,0.443617 -0.14116,0.661228 -0.032,0.118814 -0.092,0.228915 -0.12365,0.347827 -0.0308,0.115768 -0.0366,0.236987 -0.0631,0.353819 -0.0612,0.269859 -0.1437,0.534448 -0.21544,0.801698 -0.2033,0.521711 -0.28698,1.092999 -0.53261,1.597626 -0.0752,0.221141 -0.0985,0.449678 -0.1568,0.674899 -0.0809,0.210894 -0.0632,0.440031 -0.0993,0.657127 -0.004,0.02676 -0.10286,0.37474 -0.10989,0.39982 0.0449,0.209936 -0.10823,0.371173 -0.1413,0.569076 -0.009,0.05365 0.0151,0.110416 0.002,0.163169 -0.0339,0.134932 -0.11001,0.256143 -0.15115,0.389046 -0.14921,0.317188 -0.25129,0.652251 -0.37986,0.979599 -0.059,0.146571 -0.11889,0.317711 -0.22103,0.4344 -0.0185,0.05214 -0.006,0.03703 -0.0603,0.05568 0.01,0.02503 0.89506,-0.327631 0.88509,-0.352663 v 0 c 0.008,-0.03449 0.0283,-0.06654 0.0457,-0.100688 0.10509,-0.136366 0.1501,-0.26525 0.20135,-0.430074 0.23515,-0.536853 -0.0956,0.251137 0.0774,-0.268259 0.0813,-0.244059 0.24769,-0.457314 0.29024,-0.713147 0.0349,-0.253781 0.11932,-0.347684 0.19313,-0.575607 0.0601,-0.18575 0.0221,-0.407572 0.14216,-0.578955 0.0143,-0.159846 0.0491,-0.597837 0.0893,-0.734815 0.0199,-0.06767 0.0722,-0.12284 0.092,-0.190526 0.0109,-0.03731 -0.001,-0.07773 -0.002,-0.116599 0.0214,-0.246253 0.10191,-0.456653 0.19835,-0.682644 0.0711,-0.286448 0.14708,-0.586187 0.2466,-0.863621 0.043,-0.119793 0.11358,-0.229679 0.14625,-0.352684 0.0289,-0.108979 0.0245,-0.224182 0.0367,-0.336272 0.31558,-0.911342 -0.008,0.0755 0.2289,-0.810655 0.1201,-0.449931 0.29632,-0.89372 0.31857,-1.363506 0.22532,-0.95799 0.42299,-1.922362 0.61888,-2.886562 0.25829,-0.875636 0.42792,-1.761733 0.64967,-2.647053 0.0999,-0.398788 0.22052,-0.792263 0.3169,-1.191916 0.96282,-3.992453 -0.4615,1.581732 0.62995,-2.634422 1.36308,-4.845956 -0.54144,1.991813 0.69058,-2.64443 0.28081,-1.056732 0.64507,-2.091192 0.90703,-3.153088 -0.0115,-0.02442 -0.87503,0.382626 -0.86351,0.40705 z"
       id="path242"
       style="fill:#4d1230;fill-opacity:1;stroke-width:0.264583" />
    <path
       d="m 160.59091,11.74486 c 0.15901,-0.0017 0.31847,-0.01703 0.47703,-0.005 0.17651,0.01343 0.34881,0.06226 0.52481,0.08118 2.41024,0.258987 -1.19648,-0.187938 1.47458,0.119151 1.82224,0.209501 -0.33269,0.02706 1.74684,0.183037 1.59975,0.252732 3.20382,0.478808 4.80098,0.748595 0.40033,0.107793 0.82111,0.125272 1.22537,0.205578 0.0901,0.0179 0.17436,0.05865 0.26376,0.07974 0.1904,0.04491 0.38503,0.0696 0.57707,0.106913 0.29306,0.0073 0.55696,0.181758 0.83629,0.232322 0.34734,0.01863 0.18241,-0.0037 0.49558,0.0608 0.27845,0.03811 0.53372,0.139052 0.80715,0.189769 0.10781,0.02771 0.11655,0.04937 0.18712,0.01889 0.0826,0.02749 0.18086,0.0467 0.2686,0.02988 -0.006,0.07651 0.13326,-0.06965 0.0672,0.0266 0.0158,0.02219 0.80023,-0.537122 0.78441,-0.559308 v 0 c -0.0691,0.02076 -0.0153,-0.02929 -0.099,-0.0045 -0.0794,0.01635 -0.17055,-0.02142 -0.25354,-0.03526 -0.0383,0.02026 -0.11054,0.0037 -0.16906,-0.02129 -0.1182,-0.06142 0.0247,0.002 -0.1809,-0.02445 -0.21453,-0.02757 -0.43849,-0.09405 -0.64444,-0.155563 -0.15672,-0.01495 -0.3305,-0.02326 -0.4834,-0.06848 -0.0617,-0.01824 -0.11463,-0.06198 -0.17745,-0.0757 -0.0805,-0.01758 -0.16609,6.61e-4 -0.24658,-0.01692 -0.0614,-0.0134 -0.11529,-0.0498 -0.17293,-0.0747 -0.0895,-0.01389 -0.17896,-0.02777 -0.26844,-0.04165 -0.69011,-0.166423 -1.37396,-0.341611 -2.08532,-0.385959 -0.42865,-0.08197 -0.8538,-0.184804 -1.28584,-0.246406 -0.28727,-0.04096 -0.57821,-0.05159 -0.86593,-0.08921 -0.89603,-0.117172 -1.79093,-0.253966 -2.68386,-0.393125 -1.36997,-0.178438 -2.74702,-0.283134 -4.1184,-0.448038 -0.0159,-0.02267 -0.81759,0.540415 -0.80166,0.563089 z"
       id="path246"
       style="fill:#4d1230;fill-opacity:1;stroke-width:0.264583" />
    <path
       d="m 159.15526,36.882401 c 1.35432,0.283715 2.61993,0.882494 3.84926,1.499751 1.52017,0.662985 2.88717,1.608576 4.31234,2.443527 1.48724,0.871316 0.4963,0.190842 1.78033,1.13878 0.0603,0.0384 1.4188,0.901113 1.49952,0.961083 1.32509,0.984446 -0.1235,0.05049 1.13582,0.94896 0.84004,0.599337 0.32214,0.05501 0.90431,0.771231 0.1614,0.09123 0.33868,0.158817 0.48422,0.273685 0.12382,0.09773 0.19673,0.248235 0.31262,0.355254 0.23058,0.212939 0.50371,0.374623 0.75326,0.564975 0.44756,0.341387 0.3203,0.243586 0.76428,0.622036 0.13778,0.110961 0.27557,0.221924 0.41335,0.332885 0.0189,0.03019 1.08613,-0.636818 1.06727,-0.667004 v 0 c -0.13169,-0.115083 -0.26337,-0.230166 -0.39506,-0.345252 -0.75988,-0.610963 -1.55824,-1.178012 -2.2704,-1.845294 -0.62154,-0.487987 -0.29264,-0.246184 -0.98988,-0.721035 -0.86361,-0.653507 -1.67301,-1.383019 -2.61055,-1.937914 -0.9542,-0.590822 -1.9291,-1.14732 -2.88446,-1.734944 -0.35765,-0.21998 -0.69421,-0.473506 -1.05535,-0.687702 -0.69956,-0.414923 -1.45417,-0.733296 -2.12759,-1.194682 -1.26743,-0.539646 -2.50382,-1.159684 -3.8258,-1.561322 -0.0221,-0.03161 -1.13963,0.751375 -1.11749,0.782982 z"
       id="path3571"
       style="fill:#4d1230;fill-opacity:1;stroke-width:0.264583" />
    <text
       transform="translate(3.0648494,18.646385)"
       style="font-size:8.46667px;line-height:1.25;font-family:sans-serif;letter-spacing:0px;word-spacing:0px;white-space:pre;shape-inside:url(#rect3665);"
       id="text3663"
       xml:space="preserve"><tspan
         x="18.521484"
         y="12.782034"><tspan
           style="shape-inside:url(#rect3665)">Aucune règle </tspan></tspan><tspan
         x="18.521484"
         y="23.365372"><tspan
           style="shape-inside:url(#rect3665)">ne limite la </tspan></tspan><tspan
         x="18.521484"
         y="33.94871"><tspan
           style="shape-inside:url(#rect3665)">façon dont les </tspan></tspan><tspan
         x="18.521484"
         y="44.532049"><tspan
           style="shape-inside:url(#rect3665)">arêtes relient </tspan></tspan><tspan
         x="18.521484"
         y="55.115385"><tspan
           style="shape-inside:url(#rect3665)">les sommets.</tspan></tspan></text>
    <path
       d="m 103.57442,9.9134955 c 1.50884,0.2298205 3.04689,0.2920785 4.57186,0.3258425 2.22907,0.149679 4.46163,0.176572 6.69056,0.327954 0.0394,0.0024 2.04958,0.122842 2.11477,0.125147 0.34745,0.01229 0.69568,-0.0043 1.04294,0.01282 0.30224,0.01488 0.60188,0.06618 0.90402,0.08302 2.82876,0.157706 -0.7843,-0.120781 1.73974,0.08521 1.48204,0.05045 2.96044,0.14484 4.44215,0.199003 0.73573,0.115124 1.47992,0.122567 2.22168,0.154257 0.72422,0.03094 1.43929,0.09015 2.16452,0.09653 0.71925,0.08973 1.44149,0.04906 2.16263,0.05582 0.72164,0.0068 1.44616,0.04264 2.16803,0.05932 0.77657,-0.04916 1.55267,0.03629 2.32891,0.02317 1.18089,-0.01997 -0.0438,-0.03603 1.03231,-0.01293 0.83704,-0.04286 1.67198,0.01958 2.50923,0.004 0.0752,0.01297 0.14934,0.03875 0.22568,0.03892 0.10502,2.32e-4 0.20784,-0.03372 0.31277,-0.03772 0.0728,-0.0028 0.14504,0.01468 0.21782,0.01746 0.19433,0.0074 0.39186,-5.02e-4 0.58622,-0.0061 0.2315,-0.02098 0.48484,0.01097 0.70663,-0.06756 0.0148,0.0195 0.70427,-0.504772 0.68945,-0.524272 v 0 c -0.21291,0.06974 -0.45003,0.01729 -0.66961,0.06213 -0.20105,-0.04542 -0.38206,0.01076 -0.58701,0.0083 -0.25419,-0.003 -0.50972,-0.03213 -0.76512,-0.01138 -0.83494,0.0173 -1.67041,0.01513 -2.50524,-0.0069 -1.12843,-0.01617 -2.25848,-0.01448 -3.38609,0.0084 -1.45321,-0.06595 -2.91054,-0.0415 -4.36485,-0.08715 -1.23184,-0.113895 -0.0567,-0.02186 -1.40048,-0.0726 -0.99119,-0.03742 -1.97946,-0.134612 -2.96975,-0.187378 -0.70696,-0.06223 -1.40774,-0.06509 -2.11585,-0.09913 -0.76452,-0.03675 -1.52726,-0.122456 -2.29366,-0.125183 -1.93256,-0.110667 -3.86598,-0.193408 -5.79795,-0.308443 -2.23657,-0.1097627 -4.47553,-0.1552461 -6.70934,-0.3147745 -1.52782,-0.07857 -3.06027,-0.1177073 -4.57966,-0.3089627 -0.0136,-0.019439 -0.70098,0.4637976 -0.68731,0.4832376 z"
       id="path3679"
       style="fill:#4d1230;fill-opacity:1;stroke-width:0.264583" />
    <path
       d="m 139.16545,9.3972927 c 0.38652,0.4885203 0.87089,0.9040973 1.17049,1.4554113 0.16173,0.144264 0.30824,0.273958 0.40307,0.470754 0.0269,0.05593 0.0408,0.118279 0.0731,0.17128 0.36309,0.595385 -0.10029,-0.281452 0.18407,0.27192 0.14196,0.06302 0.15588,0.297443 0.28963,0.348616 0.0272,0.0053 -0.0152,0.03893 -0.002,0.0452 0.0142,0.0065 0.0568,-0.01893 0.0461,-0.0075 -0.0371,0.03996 -0.0679,0.02061 0.007,0.03839 0.32662,-0.328098 1.01148,-0.516386 0.49021,-0.526032 -0.29265,-0.0054 -0.55227,0.0045 -0.84462,0.04373 -0.68615,0.127416 -1.3649,0.281247 -2.04366,0.43906 -0.17008,0.06286 -0.37114,0.07063 -0.51489,0.144182 -0.0158,-0.0197 -0.71224,0.539235 -0.69644,0.558934 v 0 c 0.15548,-0.0927 0.35119,-0.08843 0.51269,-0.167626 0.66579,-0.165571 1.32726,-0.346144 2.01029,-0.427835 0.92864,-0.141443 -0.0928,-0.0044 0.61497,-0.05532 0.0867,-0.0062 0.17125,-0.03322 0.25807,-0.03661 0.0448,-0.0017 0.0923,0.04081 0.13273,0.02138 0.29244,-0.140667 0.56085,-0.326597 0.84128,-0.489896 -0.002,-0.002 -0.003,-0.004 -0.005,-0.0061 -0.0639,0.07113 0.0294,0.01717 -0.0431,-0.02415 -0.0162,-0.05055 -0.2475,-0.294612 -0.28289,-0.351922 -0.0455,-0.08499 -0.10605,-0.207652 -0.16825,-0.280643 -0.0416,-0.0488 -0.10382,-0.07884 -0.14035,-0.131534 -0.13251,-0.1911 -0.0783,-0.415306 -0.34597,-0.510371 -0.32236,-0.5222515 0.0863,0.10276 -0.34149,-0.4243565 -0.0673,-0.082873 -0.1125,-0.1818092 -0.1773,-0.2666127 -0.20546,-0.2688971 -0.47518,-0.4796535 -0.6597,-0.7653382 -0.0131,-0.021725 -0.78118,0.4412432 -0.76808,0.4629679 z"
       id="path3681"
       style="fill:#4d1230;fill-opacity:1;stroke-width:0.264583" />
    <path
       d="m 103.35522,12.394966 c 1.07967,0.805713 2.10692,1.680899 3.19294,2.476637 0.39138,0.331499 0.85251,0.563237 1.26268,0.86738 0.18043,0.133792 0.34226,0.291083 0.51704,0.432184 0.43313,0.349676 0.88698,0.659583 1.30557,1.02668 0.45649,0.367901 0.89021,0.759969 1.39305,1.064793 0.14426,0.267425 0.43235,0.340796 0.65369,0.513338 0.0505,0.03935 0.0886,0.09238 0.13294,0.138568 0.0533,0.04135 0.10666,0.0827 0.15999,0.124048 0.22225,0.222325 0.5163,0.365534 0.71386,0.617954 0.18852,0.06876 0.29379,0.261999 0.47192,0.336873 0.10777,-4.76e-4 -0.002,0.04684 0.081,0.05561 0.015,0.02117 0.76355,-0.509301 0.74854,-0.530473 v 0 c -0.0488,0.04401 -0.004,0.01 -0.066,-0.0099 -0.0524,-0.0418 -0.12447,-0.11135 -0.18169,-0.140564 -0.0395,-0.02016 -0.0904,-0.01422 -0.12722,-0.03883 -0.0303,-0.02026 -0.0427,-0.05921 -0.064,-0.08881 -0.0345,-0.02 -0.0691,-0.03999 -0.10361,-0.05999 -0.0962,-0.07168 -0.1655,-0.191053 -0.26298,-0.254705 -0.0553,-0.03609 -0.12812,-0.04067 -0.18126,-0.07985 -0.10606,-0.07821 -0.1403,-0.235814 -0.28522,-0.273749 -0.16244,-0.120312 -0.28416,-0.277688 -0.44317,-0.398267 -0.27154,-0.205917 -0.10777,-0.02088 -0.38225,-0.223015 -0.0546,-0.04018 -0.0982,-0.09337 -0.14734,-0.140055 -0.46596,-0.347364 -0.9009,-0.739981 -1.3796,-1.072628 -1.01166,-0.790359 -2.04199,-1.556114 -3.04844,-2.352125 -1.38277,-0.989331 0.0714,0.07215 -1.27688,-0.977293 -0.64013,-0.498248 -1.32228,-0.939348 -1.91684,-1.494658 -0.0136,-0.02168 -0.78033,0.459216 -0.76673,0.480903 z"
       id="path3683"
       style="fill:#4d1230;fill-opacity:1;stroke-width:0.264583" />
    <path
       d="m 113.59672,16.725662 c 0.0617,0.309938 0.22035,0.58941 0.31541,0.887377 0.0334,0.104586 0.0423,0.215964 0.076,0.320455 0.0515,0.159718 0.14134,0.316109 0.2195,0.463936 0.0157,0.06507 0.0315,0.130129 0.0472,0.195193 0.0288,0.04581 0.0698,0.08593 0.0864,0.137428 0.0274,0.08509 0.001,0.180393 0.0225,0.267248 0.0815,0.334412 -0.006,-0.138104 0.0459,0.159506 0.0586,0.04857 -0.0531,0.0745 -0.0363,0.108915 0.008,0.01695 0.0727,-0.01668 0.056,-0.0079 -0.024,0.01262 -0.10145,0.03491 -0.0789,0.01993 0.63106,-0.418473 0.92724,-0.417227 0.58667,-0.404307 -0.19111,0.05431 -0.3884,0.04611 -0.581,0.09593 -0.13785,0.0051 -0.27836,0.04431 -0.44659,0.07412 -0.80107,0.110757 -1.59819,0.221473 -2.3973,0.347048 -0.52779,0.06663 -1.05487,0.153632 -1.58411,0.208515 -0.35612,0.03693 -0.69938,0.04748 -1.05308,0.109301 -0.26994,-0.02045 -0.53546,0.09281 -0.80365,0.07371 -0.0157,-0.02111 -0.76213,0.532545 -0.74647,0.553658 v 0 c 0.27512,-0.05595 0.55679,-0.04768 0.83344,-0.09475 0.35001,-0.04464 0.71404,-0.06645 1.05891,-0.111933 0.18078,-0.02384 0.35768,-0.07227 0.5383,-0.09728 0.35209,-0.04875 0.71057,-0.04378 1.05963,-0.119452 0.79432,-0.154813 1.60356,-0.190984 2.39746,-0.344127 0.22207,0.0021 0.29731,-0.04453 0.4591,-0.08358 0.19195,0.01819 0.38444,-0.06704 0.57231,-0.09375 0.41789,-0.0476 0.93437,-0.23108 0.9827,-0.666541 -0.0218,-0.017 -0.0542,-0.02573 -0.0655,-0.051 -0.014,-0.03133 0.001,-0.06887 -0.003,-0.102869 -0.0278,-0.207587 -0.0851,-0.412361 -0.20685,-0.585432 -0.0241,-0.09304 -0.11015,-0.432454 -0.13925,-0.510215 -0.0762,-0.203559 -0.20474,-0.385457 -0.27565,-0.590914 -0.0362,-0.104854 -0.0455,-0.217217 -0.0733,-0.324604 -0.0232,-0.0896 -0.053,-0.17734 -0.0795,-0.26601 -0.0122,-0.02226 -0.7991,0.410142 -0.78687,0.432398 z"
       id="path3685"
       style="fill:#4d1230;fill-opacity:1;stroke-width:0.264583" />
    <path
       d="m 109.7213,52.251052 c 0.63349,-1.468716 1.16112,-2.979338 1.75139,-4.464918 0.083,-0.208008 0.16598,-0.416015 0.24897,-0.62402 0.074,-0.169407 0.15195,-0.337166 0.2221,-0.50822 0.0488,-0.118959 0.0731,-0.248539 0.13454,-0.361492 0.0265,-0.04875 0.16559,-0.147735 0.12301,-0.112151 -0.72603,0.606795 -0.71419,0.277735 -0.4777,0.906425 0.14894,0.772742 0.25588,1.555208 0.30421,2.341041 0.017,0.276826 0.003,0.555326 0.027,0.831607 0.15163,1.72403 0.0938,-0.265835 0.11687,1.334098 -0.0247,0.446455 0.12684,0.873051 0.0506,1.315408 0.0117,0.02326 0.83391,-0.390271 0.82221,-0.413526 v 0 c 0.007,-0.439335 -0.0638,-0.874201 -0.0791,-1.312936 -0.1283,-1.507588 -0.19404,-3.025989 -0.47852,-4.51552 -0.0469,-0.142996 0.008,-0.407431 -0.14078,-0.42899 -0.1503,-0.02175 -0.91002,0.09286 -1.0811,0.428829 -0.0572,0.112366 -0.0768,0.240475 -0.12401,0.357383 -0.46045,1.139294 1.1e-4,-0.158863 -0.43229,1.11651 -0.8101,1.821413 0.0875,-0.287448 -0.57238,1.552784 -0.10515,0.293243 -0.2401,0.574929 -0.35978,0.86255 -0.28793,0.691978 -0.56969,1.386774 -0.87583,2.071005 0.0106,0.0232 0.83125,-0.352655 0.82062,-0.375867 z"
       id="path3687"
       style="fill:#4d1230;fill-opacity:1;stroke-width:0.264583" />
    <path
       d="m 108.99965,50.12449 c 0.69474,0.0096 1.3812,0.143086 2.07273,0.173659 0.33925,0.04521 0.67319,0.06631 1.01468,0.04738 0.0155,0.02132 0.76934,-0.526847 0.75384,-0.548169 v 0 c -0.33193,0.04788 -0.6742,0.02864 -1.00207,-0.04691 -0.89255,0.03485 0.0815,0.02551 -0.67141,-0.0428 -0.13333,-0.01209 -0.26822,0.0059 -0.40157,-0.0058 -0.11434,-0.01005 -0.22488,-0.0489 -0.33918,-0.05937 -0.13146,-0.01204 -0.26396,-0.0053 -0.39594,-0.0079 -0.10129,-0.0097 -0.20258,-0.01945 -0.30387,-0.02919 -0.0147,-0.02056 -0.7419,0.498557 -0.72721,0.519126 z"
       id="path3689"
       style="fill:#4d1230;fill-opacity:1;stroke-width:0.264583" />
    <path
       d="m 114.22024,49.640355 c -0.0136,0.147976 -0.0322,0.295579 -0.0409,0.443928 -0.01,0.16274 -0.002,0.326253 -0.0136,0.488863 -0.0374,0.52773 -0.1282,1.054883 -0.11992,1.584262 -0.0525,0.545451 -0.2857,0.778279 0.78797,-0.146937 0.0614,-0.05295 0.0189,-0.161448 0.037,-0.240524 0.0272,-0.119185 0.0658,-0.235482 0.0988,-0.353222 0.20932,-0.697995 0.27708,-1.175827 0.96129,-1.53919 -0.16365,0.112488 -0.37903,0.173427 -0.49096,0.337461 -0.0606,0.08878 0.20798,-0.05468 0.31314,-0.07687 0.20254,-0.08151 0.42213,-0.04541 0.63017,-0.08625 0.22447,-0.04407 0.44097,-0.122021 0.66269,-0.178298 0.52324,-0.138054 0.97519,-0.430188 1.42879,-0.722275 0.0248,-0.01595 0.0585,-0.04643 0.0483,-0.07406 -0.0142,-0.03818 -0.0674,-0.04566 -0.10116,-0.06849 -0.53601,-0.154681 -1.26468,0.631928 -1.57905,1.079182 -0.23542,0.355444 -0.51228,0.916559 -0.47141,1.356029 0.008,0.08982 0.0589,0.170503 0.0884,0.255757 -0.0158,0.396706 0.0474,0.446757 0.30227,0.710123 0.054,0.05582 0.0839,0.140393 0.15302,0.175768 0.0862,0.04407 0.19121,0.03024 0.28617,0.04888 0.0721,0.01416 0.14315,0.03297 0.21472,0.04945 0.33662,0.03766 0.65272,-0.105669 0.96042,-0.222462 0.0162,0.02037 0.73649,-0.552458 0.72029,-0.572831 v 0 c -0.31133,0.147246 -0.63121,0.271926 -0.97871,0.299919 -0.21599,-0.01741 -0.45571,-0.06177 -0.62105,-0.224131 -0.0539,-0.05293 -0.0749,-0.131488 -0.11849,-0.193223 -0.20897,-0.296161 -0.14051,-0.06338 -0.16987,-0.456485 -0.0142,-0.08861 -0.0405,-0.176115 -0.0425,-0.265827 -0.0101,-0.470594 0.2545,-0.929929 0.4966,-1.314048 0.0794,-0.101386 0.19349,-0.25296 0.2844,-0.347282 0.0501,-0.05203 0.22625,-0.173733 0.15895,-0.147418 -1.13259,0.442863 -0.6515,0.374807 -0.40907,0.226677 -0.002,-0.04211 0.005,-0.02889 -0.0453,0.0067 0.22429,-0.126209 0.44859,-0.252415 0.67289,-0.378624 0.0396,-0.0227 -0.0805,0.04312 -0.12174,0.06257 -0.22966,0.108212 -0.19023,0.08602 -0.44645,0.169773 -0.0836,0.024 -0.595,0.172135 -0.65515,0.183179 -0.0937,0.01722 -0.19097,0.0057 -0.28513,0.0204 -0.68505,0.106571 -1.06889,0.234908 -1.73092,0.671864 -0.61276,0.42354 -0.73887,0.908474 -0.92338,1.602187 -0.0258,0.115501 -0.0509,0.231167 -0.0774,0.346509 -0.0194,0.08428 -0.14665,0.255471 -0.0602,0.252354 0.8613,-0.03106 0.78204,-0.144666 0.77715,-0.623543 0.11699,-0.850553 0.15756,-1.707502 0.25655,-2.55882 -0.0119,-0.02368 -0.84934,0.395264 -0.83749,0.418952 z"
       id="path3691"
       style="fill:#4d1230;fill-opacity:1;stroke-width:0.264583" />
    <path
       d="m 121.08382,43.459003 c -0.0514,0.143775 -0.11583,0.283554 -0.15432,0.431321 -0.0878,0.336931 -0.24246,1.289788 -0.29528,1.589321 -0.11315,0.641691 -0.25497,1.278474 -0.35244,1.922735 -0.0456,0.301482 -0.0686,0.605959 -0.10284,0.908939 -0.19156,1.570444 -0.0522,0.181194 -0.11895,1.607227 -0.0406,0.868156 -0.12179,1.169524 0.24411,1.97368 0.049,0.08868 0.0776,0.192318 0.14713,0.266028 0.0657,0.06967 0.15968,0.10667 0.24519,0.149829 0.40292,0.203377 0.81255,-0.01662 1.18746,-0.186913 0.68475,-0.36213 1.29823,-0.706112 1.75495,-1.327658 0.0938,-0.127627 0.19281,-0.255807 0.25241,-0.402545 0.0993,-0.244543 0.0671,-0.495125 0.0594,-0.747403 -0.0364,-0.08496 -0.0507,-0.183266 -0.10912,-0.254878 -0.30832,-0.377968 -1.03545,0.273796 -1.44974,0.630637 -0.12655,0.109 -0.29077,0.598427 -0.34205,0.732885 -0.0795,0.503224 -0.0245,1.106072 0.35158,1.496121 0.17902,0.18564 0.47513,0.316077 0.69677,0.43148 0.12619,0.04579 0.25237,0.09157 0.37856,0.137361 0.0139,0.02045 0.73736,-0.471218 0.72345,-0.491681 v 0 c -0.12137,-0.04278 -0.24275,-0.08555 -0.36412,-0.128333 -0.12287,-0.05709 -0.25444,-0.09834 -0.36862,-0.171267 -0.55478,-0.354344 -0.69656,-1.047507 -0.60067,-1.654355 0.0542,-0.127022 0.1006,-0.257715 0.16275,-0.381064 0.0549,-0.109051 0.30484,-0.279932 0.18774,-0.314566 -0.18356,-0.05429 -0.34861,0.163034 -0.53359,0.212276 -0.0809,0.02154 0.13372,-0.113975 0.21632,-0.127818 0.19784,-0.03316 0.21705,0.166193 0.26672,0.28485 0.005,0.108252 0.036,0.218292 0.0157,0.324755 -0.0827,0.433959 -0.39413,0.829353 -0.69541,1.1312 -0.0982,0.0984 -0.41337,0.182012 -0.31184,0.276976 0.10737,0.100423 0.26141,-0.134593 0.39212,-0.20189 -0.29787,0.149836 -0.81042,0.429077 -1.16153,0.278683 -0.0503,-0.02156 -0.34881,-0.361132 -0.35992,-0.373385 -0.10773,-0.453927 -0.16295,-0.841201 -0.20427,-1.308111 -0.0182,-0.206039 -0.0604,-0.410683 -0.061,-0.617524 -0.002,-0.533659 0.12645,-1.062633 0.11454,-1.59688 0.47036,-3.053625 -0.22309,1.311857 0.36184,-1.908542 0.0562,-0.309454 0.0743,-0.624978 0.12905,-0.934689 0.12114,-0.684789 0.35527,-1.33641 0.45817,-2.022408 -0.0104,-0.02151 -0.77058,0.344103 -0.76024,0.365606 z"
       id="path3693"
       style="fill:#4d1230;fill-opacity:1;stroke-width:0.264583" />
    <path
       d="m 120.08332,46.83111 c 0.42261,0.06965 0.2082,0.03538 0.64327,0.102634 0.0144,0.02061 0.74262,-0.489574 0.72819,-0.510172 v 0 c -0.41898,-0.06233 -0.21872,-0.02172 -0.60161,-0.117676 -0.0148,-0.02177 -0.78471,0.503439 -0.76985,0.525214 z"
       id="path3695"
       style="fill:#4d1230;fill-opacity:1;stroke-width:0.264583" />
    <path
       d="m 115.30398,47.840027 c 0.76297,-0.347425 1.36638,-0.894078 2.01442,-1.400871 0.0815,-0.0637 0.34003,-0.233204 0.24758,-0.186886 -0.19836,0.09939 -0.37853,0.23155 -0.56779,0.347324 0.0506,-0.0039 0.10315,-0.02619 0.15181,-0.01175 0.20909,0.06207 0.38645,0.424288 0.44188,0.605263 0.0331,0.10791 0.0154,0.226965 0.0471,0.335283 0.0277,0.09483 0.0861,0.1779 0.12907,0.26685 0.0327,0.241435 0.0871,0.50727 0.21445,0.718609 0.0124,0.02225 0.79934,-0.416102 0.78694,-0.438362 v 0 c -0.0335,-0.05726 -0.10624,-0.175027 -0.11644,-0.230709 -0.0829,-0.452546 0.12195,-0.02839 -0.13665,-0.458033 -0.11373,-0.356227 -0.22704,-1.182277 -0.60607,-1.35369 -0.0603,-0.02729 -0.13236,-0.0054 -0.19853,-0.0081 -0.66813,0.384606 -0.98719,0.564507 -1.53862,0.989078 -0.11247,0.0866 -0.22163,0.177422 -0.3321,0.266571 -0.099,0.0799 -0.42322,0.249674 -0.29632,0.240572 0.17663,-0.01267 0.31149,-0.168555 0.46724,-0.252833 -0.0162,-0.02003 -0.72416,0.551609 -0.70799,0.571632 z"
       id="path3697"
       style="fill:#4d1230;fill-opacity:1;stroke-width:0.264583" />
    <path
       d="m 120.26888,47.10562 c 0.59381,0.01193 1.18223,0.102243 1.77505,0.137427 0.646,0.03834 0.18664,-0.0553 0.65735,0.06202 0.21594,0.01355 0.43224,0.07028 0.64481,0.01786 0.0153,0.02019 0.7289,-0.520086 0.71362,-0.540269 v 0 c -0.19539,0.06514 -0.42181,0.02609 -0.62026,-0.0051 -0.21648,-0.01326 -0.43049,-0.05611 -0.647,-0.06885 -0.16532,-0.0097 -0.33132,0.0071 -0.4968,7.94e-4 -0.42157,-0.01595 -0.84513,-0.06727 -1.25966,-0.143823 -0.0153,-0.0217 -0.78238,0.518245 -0.76711,0.539941 z"
       id="path3699"
       style="fill:#4d1230;fill-opacity:1;stroke-width:0.264583" />
    <path
       d="m 126.40733,46.183153 c 0.83926,-1.168932 1.60515,-2.390034 2.36331,-3.612711 0.56934,-0.855252 1.10147,-1.737407 1.67676,-2.58853 0.52719,-0.779959 1.09827,-1.533853 1.64024,-2.303893 0.61563,-0.952201 1.33048,-1.831335 1.96045,-2.773291 0.3259,-0.465381 0.70241,-0.898531 0.99604,-1.385454 0.24479,-0.381772 0.46036,-0.774655 0.72966,-1.141042 0.13895,-0.303064 0.36273,-0.562041 0.54791,-0.840052 0.10199,-0.10918 0.21252,-0.441989 0.33722,-0.476975 -0.01,-0.02455 -0.87785,0.322906 -0.86803,0.347459 v 0 c 0.019,0.03633 -0.26455,0.428527 -0.30336,0.493556 -0.1943,0.294143 -0.38132,0.597064 -0.60441,0.869072 -0.0495,0.09527 -0.0771,0.201403 -0.131,0.294259 -0.15841,0.272883 -0.37451,0.51712 -0.51023,0.805611 -0.33843,0.460738 -0.65796,0.933249 -1.00688,1.386906 -0.63643,0.931701 -1.29674,1.845331 -1.94715,2.767328 -1.27987,1.855398 0.40247,-0.565756 -1.07142,1.491175 -0.78517,1.095769 -1.46903,2.260778 -2.20602,3.388593 -0.80321,1.222155 -1.54049,2.490846 -2.44529,3.642934 0.0103,0.02381 0.85252,-0.341124 0.8422,-0.364945 z"
       id="path3701"
       style="fill:#4d1230;fill-opacity:1;stroke-width:0.264583" />
    <path
       d="m 135.32613,31.316972 c -0.62583,0.402135 -1.205,0.869157 -1.78278,1.336014 0.15293,-0.148437 -0.20987,0.151043 -0.13936,0.176472 0.4268,0.153937 1.16327,-0.531474 1.24216,-0.578379 0.30371,-0.180563 0.35334,-0.231532 0.62519,-0.441664 0.51383,-0.376621 0.97673,-0.816536 1.47483,-1.212681 0.25763,-0.259223 0.68921,-0.753107 -0.60882,0.291693 -0.0414,0.0333 0.006,0.106167 0.005,0.159247 -0.003,0.08519 -0.0116,0.170064 -0.0174,0.255096 -0.0303,0.607083 -0.073,1.207362 -0.20585,1.801585 -0.0121,0.379055 0.0255,-0.0781 -0.0926,0.323553 -0.0243,0.0827 0.0325,0.171109 -0.0446,0.296259 0.0631,0.06588 -0.0501,0.07158 -0.0434,0.06693 0.22286,-0.154062 0.45317,-0.297051 0.67975,-0.445574 -0.47686,-0.159978 -0.94835,-0.309846 -1.39312,-0.55231 -0.11819,-0.130567 -0.27107,-0.05923 -0.38165,-0.18098 -0.0144,-0.02135 -0.769,0.487595 -0.75461,0.508936 v 0 c 0.12195,0.06878 0.26247,0.07566 0.36613,0.181576 0.65335,0.19949 -0.16183,-0.07033 0.45889,0.202848 0.0955,0.04202 0.19953,0.06135 0.29742,0.09743 0.22766,0.08391 0.44364,0.207068 0.68793,0.239549 0.29435,-0.128932 0.59101,-0.252736 0.88306,-0.3868 0.0177,-0.0081 0.0233,-0.03459 0.0219,-0.05395 -0.001,-0.02003 -0.0514,-0.024 -0.01,-0.06821 0.0346,-0.206005 0.13468,-0.403432 0.12009,-0.619199 0.10812,-0.320321 0.0693,-0.467347 0.1227,-0.788125 0.0208,-0.125013 0.0717,-0.244568 0.0847,-0.370631 0.0225,-0.217983 -0.053,-0.439568 0.003,-0.657405 7.9e-4,-0.08447 -7.9e-4,-0.168982 0.002,-0.253402 0.002,-0.06261 0.0753,-0.194993 0.013,-0.1875 -0.35239,0.04245 -0.80112,0.196429 -1.05143,0.488088 -0.47805,0.395909 -0.91893,0.837284 -1.43463,1.186637 -0.10315,0.07583 -0.20368,0.155364 -0.30945,0.227497 -0.11078,0.07555 -0.46671,0.258673 -0.33982,0.215281 0.17375,-0.05942 0.30763,-0.210952 0.48333,-0.264359 0.0997,-0.03031 -0.37371,0.434891 0.0947,0.0031 0.56798,-0.482724 1.16248,-0.936548 1.79838,-1.326451 -0.009,-0.02418 -0.86469,0.30558 -0.85536,0.329771 z"
       id="path3703"
       style="fill:#4d1230;fill-opacity:1;stroke-width:0.264583" />
    <path
       d="m 127.55782,51.33726 c 1.34815,-0.114382 2.69008,-0.301691 4.03889,-0.413173 0.98664,-0.130276 1.96232,-0.329285 2.9441,-0.488932 0.31011,-0.05042 0.62299,-0.08332 0.93246,-0.137506 1.34323,-0.268941 0.68269,-0.145804 1.98127,-0.371369 1.81271,-0.337773 3.59941,-0.791594 5.39108,-1.223786 1.86113,-0.439507 3.70202,-0.956328 5.55809,-1.417253 1.81807,-0.477079 3.64013,-0.93979 5.45278,-1.437111 1.34769,-0.314362 2.67167,-0.716857 4.0006,-1.100175 1.15621,-0.308649 2.3017,-0.654415 3.44312,-1.014045 0.69481,-0.281363 1.41595,-0.486449 2.12321,-0.732065 0.21269,-0.06145 0.42596,-0.120993 0.63723,-0.186769 0.029,-0.0118 0.0581,-0.0236 0.0871,-0.03539 0.0153,0.01984 0.71685,-0.522867 0.7015,-0.542708 v 0 c -0.024,0.0088 -0.0481,0.01752 -0.0722,0.02627 -0.21679,0.05734 -0.42732,0.129301 -0.64295,0.188214 -0.70077,0.24435 -1.40823,0.468587 -2.10734,0.717756 -1.14586,0.406238 -2.32513,0.700341 -3.48796,1.053438 -1.32526,0.399706 -2.66031,0.76603 -4.00264,1.10399 -1.79792,0.504182 -3.60792,0.96393 -5.42,1.413489 -0.95488,0.24674 -1.91204,0.48641 -2.8658,0.737198 -0.62824,0.165193 -1.24891,0.358592 -1.87837,0.51907 -0.28484,0.07262 -0.573,0.131551 -0.85951,0.197326 -1.7762,0.423307 -3.5527,0.844976 -5.34516,1.194322 -1.9443,0.342982 -3.87969,0.746381 -5.83985,0.991798 -1.21116,0.133138 -0.60375,0.05671 -1.82215,0.229857 -0.74202,0.08239 -1.4924,0.101163 -2.23333,0.200136 -0.0149,-0.02021 -0.72915,0.507212 -0.71423,0.527415 z"
       id="path3705"
       style="fill:#4d1230;fill-opacity:1;stroke-width:0.264583" />
    <path
       d="m 161.07008,40.917725 c 0.42089,0.182925 0.8698,0.300109 1.28735,0.491429 0.71035,0.325483 -0.21402,-0.0227 0.49927,0.232725 0.29972,0.120351 0.55319,0.337968 0.85936,0.43643 0.14503,0.08565 0.26731,0.224372 0.44362,0.233932 -0.0214,0.06701 0.0619,0.01087 0.0482,0.01579 -0.0919,0.03313 -0.035,0.0095 -0.0275,0.0019 -0.16619,0.04613 -0.36104,0.373452 -0.4701,0.49647 -0.0945,0.106622 -0.19295,0.209732 -0.28943,0.314597 -0.59505,0.593408 -1.16257,1.213935 -1.76477,1.800117 -0.14823,0.150757 -0.29516,0.306509 -0.47227,0.422693 0.009,0.02323 0.83051,-0.301887 0.82131,-0.325117 v 0 c 0.17366,-0.12944 0.31167,-0.269584 0.45542,-0.431335 0.59649,-0.602096 1.17927,-1.216641 1.78427,-1.810274 0.24812,-0.255193 0.51642,-0.516694 0.73495,-0.799774 0.008,-0.01019 -0.0455,-0.0241 -0.0122,-0.03664 -0.0254,-0.07862 0.005,0.04404 0.0277,-0.06299 0.004,-0.01902 -0.0962,-0.06054 -0.0914,-0.06188 -0.10375,-0.118147 -0.30793,-0.168611 -0.44116,-0.24515 -0.27769,-0.161121 -0.57027,-0.28874 -0.84539,-0.454268 -0.60712,-0.224616 -1.19254,-0.506596 -1.80417,-0.720561 -0.0142,-0.02101 -0.75723,0.480964 -0.74303,0.50198 z"
       id="path3707"
       style="fill:#4d1230;fill-opacity:1;stroke-width:0.264583" />
    <path
       d="m 75.106745,4.584596 c -0.723477,-0.084466 -1.346221,-0.121878 -2.03912,0.170689 -0.160316,0.067691 -0.30883,0.1604897 -0.463243,0.2407346 -0.777624,0.4282631 -1.841519,0.9611072 -1.645436,2.0304887 0.01939,0.105751 0.07568,0.2012699 0.11352,0.3019049 0.05385,0.098933 0.09292,0.2074783 0.161549,0.2967998 0.188635,0.2455312 0.349956,0.2923064 0.574812,0.5020641 0.302372,0.2820699 0.550448,0.6376709 0.803902,0.9620834 0.04741,0.075969 0.406975,0.6443393 0.441918,0.731315 0.0523,0.1301829 0.06779,0.2723245 0.09758,0.4094235 0.02804,0.129093 0.07011,0.257003 0.07587,0.388982 0.01138,0.260233 -0.04802,0.518792 -0.06602,0.77865 -0.09157,0.338333 -0.344996,0.751533 -0.612788,0.980817 -0.110136,0.0943 -0.468403,0.338239 -0.364993,0.236608 0.348446,-0.342445 0.800373,-0.409679 0.0068,-0.196693 -0.482859,0.05652 -1.047726,0.13189 -1.516004,-0.06195 -0.152168,-0.06299 -0.279464,-0.202386 -0.395463,-0.312076 -0.141345,-0.149232 -0.252203,-0.317979 -0.352485,-0.495905 -0.0127,-0.02228 -0.800217,0.426318 -0.787527,0.448593 v 0 c 0.113784,0.185618 0.223202,0.372153 0.396247,0.511179 0.05761,0.06313 0.105143,0.137209 0.172832,0.189389 0.489862,0.377638 1.214061,0.316624 1.783148,0.253213 0.776452,-0.122599 0.40861,-0.02101 1.534089,-0.66795 0.488722,-0.280921 0.775041,-0.739267 0.925282,-1.271981 0.02297,-0.134164 0.06116,-0.266597 0.06888,-0.402492 0.0075,-0.132634 -0.01569,-0.265231 -0.02339,-0.397855 -0.0084,-0.143898 0.0082,-0.2913934 -0.02477,-0.4317131 C 73.883005,9.4004034 73.563462,8.9699107 73.404913,8.6162874 73.100473,8.3152275 72.830537,7.993159 72.542303,7.6770076 72.379716,7.4986723 72.200808,7.3348386 72.047878,7.148155 71.980357,7.0657299 71.927131,6.9725656 71.866755,6.884771 71.715877,6.4512946 71.669897,6.0862141 71.980013,5.6985524 c 0.09489,-0.1186143 0.393679,-0.185492 0.323985,-0.3204573 -0.06661,-0.1289984 -0.264875,0.1189705 -0.397312,0.1784557 0.156586,-0.0874 0.306385,-0.1882672 0.469763,-0.2621987 0.618797,-0.2800154 1.32848,-0.300592 1.986272,-0.1863344 0.01482,0.021045 0.758827,-0.5023776 0.744024,-0.5234217 z"
       id="path3738"
       style="fill:#4d1230;fill-opacity:1;stroke-width:0.264583" />
    <path
       d="m 76.491701,9.1982945 c -0.580551,0.414097 -1.096603,0.9660785 -1.363583,1.6396585 -0.06185,0.156054 -0.081,0.325812 -0.121499,0.488718 -0.05925,0.531524 -0.126762,1.228219 0.273042,1.666389 0.08521,0.09338 0.209732,0.14129 0.312078,0.215495 0.08478,0.06147 0.166074,0.127594 0.249113,0.191391 0.439966,0.143193 0.818441,0.07099 1.207773,-0.164942 1.011611,-0.613015 0.741434,-0.324864 1.13832,-0.812276 0.05743,-0.08242 0.137747,-0.15293 0.172296,-0.247256 0.02564,-0.07 -0.0033,-0.149175 1.83e-4,-0.223639 0.0047,-0.09861 0.03222,-0.196756 0.02432,-0.29516 -0.02841,-0.354105 -0.169545,-0.625961 -0.37025,-0.904831 -0.344477,-0.523056 -0.617352,-0.7733762 -1.26188,-0.686594 -0.0951,0.09274 -1.092943,0.349045 -1.075325,0.813376 0.0087,0.229724 0.126222,0.29298 0.313767,0.391902 0.602276,0.15783 1.002689,0.135517 1.590691,-0.07397 0.432596,-0.122435 2.964103,-1.6619221 1.096214,-0.550126 0.03584,-0.0072 0.07189,-0.02971 0.107532,-0.02158 0.07685,0.01753 0.307813,0.491731 0.317851,0.547583 0.01873,0.104248 -0.0016,0.21183 -0.0024,0.317746 -0.03871,0.410721 -0.04595,0.829499 -0.103526,1.237565 -0.06613,0.267691 -0.04396,0.144404 -0.07436,0.368361 -0.01095,0.03194 -0.02191,0.06388 -0.03284,0.09582 -0.0032,0.0054 -0.01521,0.01943 -0.0097,0.01635 0.298402,-0.166232 0.616733,-0.302774 0.890511,-0.507035 0.05287,-0.03945 0.02529,-0.12993 0.04682,-0.192288 0.07551,-0.218766 0.164726,-0.372999 0.270991,-0.580328 0.114025,-0.276755 0.281355,-0.52216 0.448014,-0.768198 0.02946,-0.04349 0.04687,-0.09709 0.08617,-0.131949 0.04338,-0.03849 0.202411,-0.112934 0.153947,-0.08108 -0.244049,0.160419 -0.494162,0.311414 -0.741243,0.467122 0.127124,0.197811 0.03195,0.01793 0.104211,0.336592 0.03276,0.144466 0.140896,0.448885 0.163074,0.587673 0.03509,0.219606 0.0293,0.443836 0.04749,0.665482 -0.09593,0.02571 0.07204,0.539654 0.0434,0.611383 -0.01169,0.02927 -0.107458,0.06513 -0.08298,0.04528 0.889522,-0.721558 0.756669,-0.287277 0.851848,-0.92383 -0.0045,-0.596256 0.430207,-1.000995 0.761724,-1.442302 0.293553,-0.166367 0.832345,-0.716807 -0.414469,0.244903 -0.02643,0.0204 0.06942,0.0053 0.09739,0.02348 0.07868,0.05127 0.110149,0.164354 0.143286,0.24073 0.01392,0.06679 0.02056,0.135536 0.04178,0.20038 0.02387,0.07287 0.07397,0.136168 0.09271,0.210519 0.07977,0.316503 0.01818,0.644949 0.114938,0.956536 0.004,0.195642 0.02537,0.615747 0.181869,0.748998 0.131271,0.160583 0.251788,0.204069 0.448249,0.14753 0.907124,-0.187378 1.230966,-0.747873 1.540878,-1.471225 0.217929,-0.375018 0.296275,-0.821765 0.566798,-1.164416 0.227928,-0.230927 0.843378,-0.718203 -0.441505,0.208225 -0.02752,0.01984 0.06895,-0.01425 0.10164,-0.0052 0.03049,0.0084 0.05167,0.03654 0.07751,0.05481 0.28149,0.361016 0.355859,0.811489 0.428302,1.250525 0.230722,0.851746 0.0048,0.786801 0.996471,0.0888 -0.0258,-0.534488 0.307956,-1.009303 0.624734,-1.408708 0.02135,-0.02087 0.30902,-0.305807 0.35922,-0.342122 0.0539,-0.03899 0.230764,-0.132128 0.175252,-0.09547 -0.224637,0.141582 -0.449274,0.283164 -0.67391,0.424746 0.04031,6.09e-4 0.08909,-0.02295 0.12092,0.0018 0.03207,0.02492 0.02164,0.07829 0.03248,0.117437 0.119374,0.159892 0.133985,0.341362 0.170336,0.528929 0.01326,0.06839 0.04309,0.13369 0.04939,0.203066 0.04235,0.46614 -0.07404,-0.0017 0.03391,0.372609 -0.178083,0.206293 0.02519,0.175496 0.0048,0.348217 -0.005,0.04249 -0.02948,0.08114 -0.03446,0.123637 0.24524,-0.156529 0.502722,-0.295357 0.735719,-0.469585 0.02674,-0.01999 -0.0199,-0.254493 -0.0058,-0.30238 0.178654,-0.609025 0.01527,0.183755 0.123497,-0.394002 0.213936,-0.313239 0.285374,-0.749844 0.61025,-0.975825 -0.226713,0.139701 -0.467113,0.259306 -0.680143,0.419103 -0.02906,0.0218 0.07649,-0.0074 0.108559,0.0097 0.03406,0.01812 0.05173,0.05736 0.07511,0.08804 0.131564,0.172671 0.225197,0.326616 0.307523,0.528648 0.05303,0.06913 0.12071,0.129182 0.159104,0.2074 0.03892,0.07929 0.03135,0.175823 0.06838,0.256017 0.12976,0.281021 0.397701,0.480322 0.640776,0.653299 0.02669,0.002 0.430604,0.03595 0.481505,0.02596 0.144756,-0.0284 0.438227,-0.168702 0.565597,-0.243192 1.050025,-0.61409 0.76354,-0.40011 1.320768,-0.858133 0.353693,-0.322074 0.757074,-0.642616 0.813403,-1.14336 -0.01707,-0.02783 -0.130857,-0.219116 -0.157437,-0.239646 -0.432115,-0.333769 -1.40027,0.477911 -1.52473,0.549929 -0.176419,0.161592 -0.290439,0.240597 -0.409549,0.457446 -0.04495,0.08183 -0.05803,0.177772 -0.09513,0.263455 -0.0473,0.10925 -0.123359,0.206462 -0.157662,0.320462 -0.03417,0.113547 -0.01667,0.420246 -0.01347,0.536737 0.228123,0.582728 0.589663,0.60275 1.149731,0.605265 0.01516,0.02058 0.742632,-0.515233 0.727477,-0.535809 v 0 c -0.317381,0.0175 -0.581539,0.02845 -0.863934,-0.136038 -0.06362,-0.03706 -0.14478,-0.05813 -0.186018,-0.119129 -0.04148,-0.06136 -0.02801,-0.145453 -0.04201,-0.218179 -0.01622,-0.651939 0.206783,-1.051465 0.691926,-1.484038 -1.232591,0.670943 0.05637,-0.168981 0.05548,0.4144 -0.06626,0.485466 -0.495096,0.751078 -0.830686,1.06679 -0.09094,0.07184 -0.387225,0.234088 -0.272825,0.21553 0.178737,-0.02899 0.316489,-0.177258 0.482507,-0.249542 0.09979,-0.04345 -0.185393,0.114724 -0.28308,0.162712 -0.180758,0.08879 -0.277654,0.12514 -0.471969,0.127215 -0.07301,7.68e-4 -0.145473,-0.01264 -0.21821,-0.01896 -0.40604,-0.25033 -0.688832,-0.61132 -0.835398,-1.070275 -0.05867,-0.08977 -0.434043,-0.759479 -0.583348,-0.699069 -0.306313,0.123936 -0.586401,0.304774 -0.879602,0.457161 -0.22207,0.303008 -0.399605,0.635465 -0.528783,0.988222 -0.05213,0.187485 -0.117427,0.369872 -0.127129,0.565522 -0.0056,0.112106 0.01185,0.194441 0.01603,0.193199 0.300149,-0.08915 0.581255,-0.232997 0.871884,-0.349496 -0.01294,-0.0042 -0.07404,-0.08653 -0.07364,-0.09794 0.0016,-0.043 0.04528,-0.07565 0.05194,-0.118155 0.01352,-0.08617 -0.06387,-0.173211 -0.01701,-0.261125 -0.0029,-0.327539 0.0164,-0.03769 -0.05644,-0.366506 -0.05993,-0.270455 -0.02868,-0.559937 -0.177372,-0.807158 -0.0651,-0.07057 -0.194799,-0.212634 -0.199498,-0.210898 -0.588217,0.217285 -1.001816,0.47289 -1.400104,0.912514 -0.331144,0.443394 -0.626142,0.900553 -0.649758,1.472168 0.250507,-0.118662 0.495755,-0.249135 0.751525,-0.355986 0.01347,-0.0056 0.02914,0.0418 0.03373,0.02794 0.02455,-0.07429 -0.204679,-0.537043 -0.128293,-0.613113 -0.03392,-0.0757 -0.0784,-0.147507 -0.101757,-0.227104 -0.02643,-0.09004 -0.02474,-0.18635 -0.04637,-0.277658 -0.06712,-0.283349 -0.144118,-0.563229 -0.348266,-0.779401 -0.01881,-0.03854 -0.02339,-0.08826 -0.05641,-0.115612 -0.287152,-0.237881 -1.011007,0.391709 -1.280398,0.708875 -0.193501,0.371598 -0.40322,0.733986 -0.497629,1.147131 -0.09967,0.178858 -0.180517,0.368948 -0.294362,0.539132 -0.158874,0.237498 -0.364373,0.366044 -0.297053,0.335212 0.03122,-0.0143 0.980443,-0.551652 0.505079,-0.282657 -0.206311,0.0789 -0.224369,0.08036 -0.350184,-0.07801 -0.140837,-0.06632 -0.07769,-0.103071 -0.118168,-0.235148 -0.01207,-0.03941 -0.05426,-0.06696 -0.06089,-0.107646 -0.0093,-0.05739 0.01003,-0.115865 0.01503,-0.173797 -0.01453,-0.05715 -0.02908,-0.114302 -0.04361,-0.171453 0.0039,-0.254042 -0.02917,-0.458996 -0.0742,-0.707007 -0.04316,-0.237674 -0.02924,-0.487617 -0.155125,-0.704058 -0.02516,-0.04253 -0.188161,-0.394853 -0.283488,-0.360893 -0.498721,0.177669 -0.808768,0.31098 -1.136647,0.634491 -0.09476,0.127649 -0.212146,0.237616 -0.30494,0.366699 -0.05151,0.07166 -0.08386,0.155362 -0.128538,0.231476 -0.181707,0.309574 -0.307324,0.555269 -0.347048,0.921175 0.01294,0.552514 -0.0841,0.347262 0.850111,0.107931 0.05295,-0.01357 -0.03052,-0.10538 -0.03799,-0.15953 -0.01,-0.07234 -0.01156,-0.145668 -0.0132,-0.218673 -0.0021,-0.09516 0.0013,-0.190367 0.0019,-0.285551 -0.04317,-0.577712 -0.056,-1.178017 -0.332761,-1.70124 -0.303591,0.134032 -0.612187,0.257263 -0.910778,0.402096 -0.199432,0.09673 -0.529068,0.810928 -0.628988,1.00694 -0.08044,0.189086 -0.148476,0.383372 -0.231571,0.571305 -0.03443,0.07787 -0.20128,0.235641 -0.116555,0.227267 0.909072,-0.08985 0.759661,-0.04338 0.808953,-0.399123 0.06847,-0.539965 0.188886,-1.073184 0.166987,-1.621827 -0.03504,-0.314661 -0.06922,-0.641608 -0.255799,-0.90369 -0.02585,-0.03632 -0.03603,-0.09133 -0.07672,-0.109545 -0.04752,-0.02127 -0.104061,0.0035 -0.156094,0.0053 -1.488797,0.823643 -0.919958,0.514815 -0.249983,0.125493 0.04761,-0.02767 -0.09635,0.05336 -0.145047,0.07907 -0.238782,0.126111 -0.469033,0.268636 -0.720559,0.369132 -0.418115,0.142586 -0.611978,0.201548 -1.053962,0.197278 -0.395915,-0.0038 -0.189598,0.05665 -0.483942,-0.0746 -0.06912,-0.01641 -0.146245,-0.013 -0.207359,-0.04923 -0.03465,-0.02054 -0.04416,-0.06854 -0.05619,-0.106989 -0.114649,-0.366379 1.020633,-0.7670548 -0.445791,-0.0047 0.243075,-0.07282 0.368633,-0.06825 0.60742,0.02326 0.08742,0.0335 0.186354,0.04738 0.260863,0.104058 0.150326,0.114358 0.182988,0.34489 0.337161,0.455411 0.240747,0.375565 0.128723,0.14755 0.265515,0.578977 0.02985,0.09416 0.08025,0.183302 0.09356,0.28118 0.03625,0.266567 -0.107407,0.496637 -0.234767,0.714211 -0.27741,0.342502 -0.153157,0.139867 0.347681,-0.069 0.08756,-0.03652 -0.160128,0.103115 -0.246687,0.141941 -0.286131,0.12834 -0.585396,0.150672 -0.889548,0.08076 -0.795432,-0.510459 -0.951343,-1.062254 -0.754985,-1.982185 0.03857,-0.156582 0.05558,-0.320113 0.115712,-0.469746 0.268571,-0.6683259 0.807638,-1.2066712 1.396037,-1.5982035 -0.0092,-0.023791 -0.850381,0.3021594 -0.841163,0.325951 z"
       id="path3740"
       style="fill:#4d1230;fill-opacity:1;stroke-width:0.264583" />
    <path
       d="m 93.485788,4.0376827 c 0.0071,0.1047572 0.02522,0.2093446 0.02135,0.3142715 -0.0057,0.1554411 -0.03563,0.3090712 -0.05005,0.4639482 -0.08842,0.9497391 -0.232619,1.8844881 -0.383905,2.8263675 -0.2436,1.5683272 -0.317585,3.1477771 -0.313923,4.7324931 0.04423,0.414834 0.033,1.030752 0.28544,1.398956 0.198329,0.289282 0.550805,0.368202 0.866003,0.423266 0.419211,-0.03882 0.219924,-0.0069 0.598797,-0.08976 0.0154,0.02009 0.725749,-0.524127 0.710356,-0.544219 v 0 c -0.375486,0.119429 -0.191196,0.09284 -0.550416,0.09523 -0.11639,-5.7e-5 -0.234815,0.02149 -0.349176,-1.72e-4 -0.774477,-0.146676 -0.755173,-1.093492 -0.769678,-1.687795 -0.0069,-1.581921 0.0305,-3.166718 0.332351,-4.72583 0.106553,-1.2106585 0.315796,-2.4079936 0.42023,-3.6190605 -0.01167,-0.023119 -0.829027,0.3891857 -0.817367,0.4123042 z"
       id="path3742"
       style="fill:#4d1230;fill-opacity:1;stroke-width:0.264583" />
    <path
       d="m 91.762684,8.5233919 c 0.809513,0.289878 1.654082,0.4778428 2.496409,0.6578822 0.233987,0.067578 0.474298,0.072639 0.708645,0.1338292 0.01498,0.021378 0.770829,-0.5076595 0.755864,-0.5290386 v 0 C 95.486554,8.7243707 95.246529,8.6802835 95.00117,8.6657163 94.7273,8.5989117 94.455541,8.5232853 94.180491,8.4615059 93.714626,8.3568669 93.226766,8.2853439 92.771246,8.138171 92.680304,8.1087883 92.597423,8.0586645 92.51051,8.0189114 92.496249,7.9977606 91.748415,8.5022401 91.762684,8.5233919 Z"
       id="path3744"
       style="fill:#4d1230;fill-opacity:1;stroke-width:0.264583" />
    <path
       d="m 77.195813,15.688913 c -1.368677,0.700992 -1.783927,1.3391 -2.321161,2.738645 -0.231486,0.798602 -0.383315,1.628516 -0.264644,2.456619 0.0067,0.01278 0.458677,-0.223847 0.451983,-0.236631 v 0 c -0.06338,-0.823104 0.03386,-1.640972 0.270581,-2.433586 0.229344,-0.615079 0.445159,-1.126344 0.881526,-1.626624 1.338003,-1.533968 -0.488913,0.612753 0.7235,-0.649121 0.04983,-0.05186 -0.1261,0.0692 -0.189151,0.103797 0.01,0.01265 0.457354,-0.340446 0.447366,-0.353099 z"
       id="path3746"
       style="fill:#4d1230;fill-opacity:1;stroke-width:0.264583" />
    <path
       d="m 79.697469,16.58429 c -0.607044,0.856429 -1.224618,1.706854 -1.821235,2.571476 -0.335735,0.35595 -0.49838,0.826784 -0.816322,1.193518 0.0061,0.01425 0.509834,-0.200446 0.503762,-0.214695 v 0 c 0.31039,-0.346384 0.474159,-0.806126 0.759137,-1.17333 0.639328,-0.857188 1.251709,-1.734821 1.884378,-2.597096 -0.0062,-0.01442 -0.515948,0.20571 -0.50972,0.220127 z"
       id="path3748"
       style="fill:#4d1230;fill-opacity:1;stroke-width:0.264583" />
    <path
       d="m 79.806382,21.446876 c 0.02439,-0.801933 0.218861,-1.577241 0.450062,-2.340306 0.186029,-0.20009 0.201216,-0.498659 0.352108,-0.71697 0.02899,-0.04194 0.155291,-0.128791 0.109092,-0.107223 -0.482943,0.225453 -0.461872,0.210459 -0.26462,0.224734 0.247343,0.229087 0.156345,0.26929 0.233307,0.608421 0.03111,0.137108 0.103129,0.26315 0.130749,0.401005 0.05352,0.267122 0.04113,0.621468 0.04146,0.892323 0.0815,0.493447 -0.0699,0.900911 0.555533,0.167797 0.05515,-0.06465 0.03812,-0.165635 0.05884,-0.248048 0.02402,-0.09555 0.05024,-0.190536 0.07535,-0.285804 0.08606,-0.314719 0.242806,-0.565389 0.436176,-0.820981 0.03834,-0.05067 0.06527,-0.111453 0.112694,-0.153749 0.05242,-0.04676 0.230381,-0.157985 0.180904,-0.108117 -0.111911,0.112789 -0.247206,0.199676 -0.370808,0.299513 0.302831,0.278372 0.280754,0.71945 0.302881,1.098224 0.02484,0.425144 0.0078,0.270432 0.08082,0.656917 -0.121246,0.870291 -0.02334,-0.135742 0.01614,0.480543 0.02477,0.386529 -0.09629,0.02213 0.0082,0.289091 0.0064,0.01253 0.449453,-0.212575 0.443085,-0.225107 v 0 c -0.01672,-0.261536 0.03616,-0.521355 -0.0073,-0.782376 -0.04751,-0.343693 -0.0839,-0.686767 -0.129315,-1.030526 -0.03197,-0.242034 -0.0034,-0.41674 -0.125807,-0.633961 -0.03588,-0.06368 -0.101068,-0.105619 -0.151604,-0.158429 -0.193495,0.06958 -0.392022,0.126502 -0.580482,0.208748 -0.375169,0.163729 -0.546677,0.772443 -0.69491,1.107556 -0.01923,0.09354 -0.03884,0.186996 -0.05767,0.280611 -0.01662,0.08257 -0.12632,0.215294 -0.04868,0.247948 0.623361,0.26218 0.402759,-0.420057 0.39533,-0.650259 -0.05346,-0.560946 -0.106821,-1.110086 -0.273749,-1.649951 -0.02162,-0.06992 -0.03376,-0.143693 -0.06593,-0.209431 -0.02193,-0.04483 -0.06247,-0.07785 -0.09371,-0.116775 -0.370676,-0.01 -0.754409,0.298317 -0.923552,0.62662 -0.08447,0.163948 -0.0958,0.359752 -0.193516,0.518339 -0.22746,0.61259 -0.06407,0.107418 -0.204573,0.748734 -0.117594,0.53675 -0.25981,1.068264 -0.277392,1.622043 0.0068,0.0136 0.48768,-0.227553 0.480859,-0.241154 z"
       id="path3750"
       style="fill:#4d1230;fill-opacity:1;stroke-width:0.264583" />
    <path
       d="m 84.1453,18.572849 c -0.01429,0.108361 -0.02439,0.217359 -0.0429,0.325083 -0.02468,0.143777 -0.06386,0.284891 -0.08657,0.428993 -0.08739,0.554588 -0.08114,1.103783 -0.04815,1.661729 0.03881,0.08679 0.05679,0.186328 0.116429,0.260371 0.306063,0.379998 0.934916,-0.186859 1.109994,-0.335268 0.156204,-0.132412 0.283837,-0.494202 0.356849,-0.66551 0.09372,-0.522987 0.06158,-0.193994 0.05189,-0.696333 -0.0021,-0.107609 0.02252,-0.217548 5.29e-4,-0.322888 -0.04039,-0.19269 -0.210833,-0.402095 -0.351655,-0.530816 -0.462746,-0.0019 -0.49285,0.07802 -0.957199,0.399157 -0.09037,0.06249 -0.08029,0.06567 -0.09854,0.144786 0.04781,0.0328 -0.0097,0.109107 0.02564,0.141413 0.07668,0.07003 0.502078,0.05359 0.590534,0.04762 0.366125,0.04124 0.724659,-0.07343 1.085591,-0.104698 0.508751,-0.04407 -0.133737,0.08608 0.473702,-0.05929 0.577566,-0.111986 1.129905,-0.403845 1.501375,-0.865609 0.244922,-0.496954 -0.244411,-0.631447 -0.638283,-0.63465 -0.257824,0.05341 -0.222785,0.02307 -0.4649,0.181826 -0.777266,0.509642 -0.528129,0.206876 -0.755393,0.682553 -0.212508,0.444792 -0.117732,0.158335 -0.229875,0.604984 -0.05151,0.310124 -0.107461,0.890112 -0.0064,1.190315 0.04946,0.146966 0.150977,0.271023 0.220165,0.409797 0.222917,0.220166 0.51217,0.470924 0.856562,0.401523 0.08931,-0.018 0.170151,-0.06519 0.255228,-0.09778 0.471882,-0.200519 0.84949,-0.482892 1.220068,-0.819114 -0.0056,-0.01373 -0.491072,0.183497 -0.485495,0.197229 v 0 c -0.09407,0.084 -1.016844,0.748961 -0.33565,0.310308 -0.07795,0.03385 -0.15135,0.08119 -0.23386,0.101544 -0.320514,0.07908 -0.631153,-0.125191 -0.82309,-0.35528 -0.185438,-0.278588 -0.136466,-0.372758 -0.197254,-0.687825 -0.01728,-0.08949 -0.06592,-0.173607 -0.0685,-0.264716 -0.0057,-0.201269 0.112308,-0.39601 0.05198,-0.601808 0.03676,-0.10191 0.07601,-0.202957 0.110284,-0.305728 0.02926,-0.08772 0.03686,-0.183897 0.08026,-0.265559 0.05096,-0.09591 0.224253,-0.153123 0.198236,-0.258565 -0.02035,-0.08241 -0.179512,0.126103 -0.244417,0.07141 -0.117403,-0.09893 0.525701,-0.152586 0.422421,-0.183589 0.244795,0.0059 0.502224,0.0056 0.633145,0.255411 0.02043,0.03899 0.04117,0.08488 0.03245,0.128027 -0.01154,0.05702 -0.05914,0.100194 -0.0887,0.150291 -0.157287,0.188469 -0.573284,0.458537 0.04361,0.100672 0.227541,-0.131998 -0.787302,0.412765 -0.636339,0.240046 -0.52188,0.04412 -1.036804,0.171011 -1.563444,0.17671 -0.07878,9.79e-4 -0.586071,0.05014 -0.521602,-0.114061 -0.0067,-0.01119 -0.02782,-0.02307 -0.02008,-0.03357 0.02751,-0.0373 0.151598,-0.10431 0.108746,-0.08665 -0.134877,0.05559 -0.256498,0.139366 -0.388313,0.201867 -0.08444,0.04003 0.503023,-0.248325 0.384651,-0.102351 0.291926,0.162357 0.245674,0.18795 0.308184,0.501173 0.01852,0.09274 0.06727,0.179588 0.07384,0.273929 0.01588,0.227847 -0.06618,0.491821 -0.117891,0.707251 -0.04733,0.115532 -0.08253,0.236811 -0.141983,0.346598 -0.05521,0.101948 -0.225793,0.17166 -0.199853,0.284656 0.01939,0.08442 0.191445,-0.01658 0.245936,-0.08391 0.04989,-0.06165 -0.150601,0.07301 -0.22932,0.06338 -0.149752,-0.01832 -0.244451,-0.25256 -0.297619,-0.342571 -0.04166,-0.690179 -0.01214,0.01612 0.0011,-0.756701 0.0024,-0.142456 -0.02318,-0.285738 -0.0076,-0.427362 0.01812,-0.165024 0.07911,-0.322718 0.108003,-0.486202 0.275061,-1.556167 -0.151932,0.581824 0.118761,-0.745017 -0.0069,-0.01429 -0.51194,0.228491 -0.505074,0.242777 z"
       id="path3752"
       style="fill:#4d1230;fill-opacity:1;stroke-width:0.264583" />
    <path
       d="m 88.450743,18.231143 c -0.100417,0.735083 -0.241549,1.477104 -0.170323,2.220066 0.08759,0.787806 0.367626,0.602283 0.915009,-0.0016 0.07659,-0.08448 0.101206,-0.204372 0.15181,-0.306558 0.158763,-0.322381 0.206878,-0.684092 0.340974,-1.014397 0.111892,-0.275618 0.04724,-0.05428 0.102174,-0.263634 0.01492,-0.02681 0.07037,-0.09739 0.04478,-0.08044 -0.169109,0.112015 -0.348293,0.218621 -0.48272,0.370525 -0.03914,0.04423 -0.07396,0.958037 -0.08344,1.070863 0.0024,0.143054 -0.0011,0.788721 0.06256,0.904939 0.03066,0.0561 0.105786,0.07308 0.150977,0.118304 0.03717,0.0372 0.06261,0.08451 0.09391,0.126768 0.0083,0.01306 0.470117,-0.279368 0.461846,-0.292431 v 0 c -0.446006,-0.37492 -0.196898,-0.584633 -0.320223,-1.083594 0.01537,-0.08959 0.146241,-1.072709 0.10182,-1.0826 -0.159748,-0.03557 -0.325565,0.04785 -0.480677,0.10005 -0.02307,0.0078 -0.01521,0.04626 -0.02281,0.0694 -0.152249,0.436342 -0.287126,0.878754 -0.490823,1.295257 -0.153712,0.472261 -0.147288,0.170952 0.201118,0.242464 0.03807,0.0078 -0.05499,0.06541 -0.09364,0.06945 -0.0314,0.0033 -0.06245,-0.02484 -0.07956,-0.05137 -0.06462,-0.100185 -0.09742,-0.326452 -0.118015,-0.426337 0.02633,-0.37735 -0.0011,-0.759018 0.03647,-1.134963 0.03596,-0.360771 0.120391,-0.719336 0.155953,-1.08074 -0.0065,-0.0135 -0.483695,0.217037 -0.477173,0.230534 z"
       id="path3754"
       style="fill:#4d1230;fill-opacity:1;stroke-width:0.264583" />
    <path
       d="m 92.699428,18.759744 c -0.991489,0.38159 -1.524633,0.75948 -1.690251,1.796586 0.02117,0.06883 0.01947,0.149507 0.06353,0.206481 0.155927,0.201726 0.705419,-0.391099 0.789276,-0.48589 0.1896,-0.214329 0.340699,-1.203412 0.391306,-1.481902 0.259135,-1.092599 0.06534,-0.136082 0.183589,-1.118888 0.01855,-0.154155 0.05745,-0.305353 0.07718,-0.459361 0.0368,-0.287288 0.04497,-0.580357 0.07599,-0.86875 0.01196,-0.325708 0.24644,-0.706993 -0.491549,0.0528 -0.04592,0.04728 0.01439,0.132269 0.006,0.197637 -0.01548,0.12003 -0.05147,0.236511 -0.0772,0.354767 -0.0709,0.535004 -0.126309,1.082674 -0.11762,1.623363 0.0032,0.200309 0.0332,0.399352 0.04385,0.599403 0.04631,0.869239 -0.03309,0.284451 0.104191,1.065049 0.216535,0.706862 0.351779,1.215602 1.097147,1.474577 0.0082,0.01228 0.442196,-0.277463 0.433999,-0.289738 v 0 c -0.149442,-0.07789 -0.317743,-0.124282 -0.452498,-0.225477 -0.385739,-0.289671 -0.464064,-0.788412 -0.595614,-1.215818 -0.04819,-0.609086 -0.02655,-0.424074 -0.106625,-1.055852 -0.02447,-0.193058 -0.07331,-0.384191 -0.07655,-0.578767 -0.0035,-0.210518 0.04409,-0.41893 0.05643,-0.629116 0.04976,-0.847679 -0.05985,-0.237477 0.125378,-1.019032 0.01453,-0.112713 0.03219,-0.225068 0.0436,-0.338141 0.0069,-0.06874 0.07998,-0.198607 0.0114,-0.206948 -0.426966,-0.05193 -0.547786,0.135186 -0.466421,0.421888 -0.07624,0.29626 -0.07407,0.573582 -0.09912,0.878295 -0.04252,0.517121 -0.04613,0.425768 -0.13779,0.978863 -0.03196,0.192886 -0.06159,0.386151 -0.09239,0.579227 -0.05857,0.288524 -0.148865,0.79223 -0.251256,1.07788 -0.0501,0.139759 -0.22914,0.259061 -0.190759,0.40248 0.02516,0.09401 0.193148,-0.03458 0.290367,-0.03026 0.07015,0.0031 -0.520557,0.191532 -0.148042,-0.149886 0.06055,-0.373965 0.135427,-0.673978 0.402963,-0.96295 0.08496,-0.09177 0.212317,-0.141152 0.287377,-0.241178 0.03644,-0.04856 -0.224854,0.08617 -0.16473,0.07773 0.07828,-0.01099 0.147431,-0.0571 0.221147,-0.08565 0.0097,0.01283 0.463457,-0.330577 0.453742,-0.343411 z"
       id="path3756"
       style="fill:#4d1230;fill-opacity:1;stroke-width:0.264583" />
    <path
       d="m 94.839968,14.603636 c 0.319987,1.312036 0.460909,2.657731 0.673338,3.989626 0.117887,0.75921 0.226388,1.523177 0.237492,2.292956 0.0072,0.499475 -0.05554,0.993072 -0.07015,1.491462 -0.03276,0.110825 -0.06552,0.221651 -0.09828,0.332476 0.0067,0.01378 0.493906,-0.224525 0.487167,-0.238305 v 0 c 0.02119,-0.106078 0.04238,-0.212157 0.06357,-0.318236 0.20088,-1.256018 0.02066,-2.548725 -0.176061,-3.794231 -0.200737,-1.832848 0.02846,0.03366 -0.257638,-1.712781 -0.125233,-0.764478 -0.205208,-1.537245 -0.358974,-2.297398 -0.0072,-0.01415 -0.507661,0.240276 -0.500464,0.254431 z"
       id="path3758"
       style="fill:#4d1230;fill-opacity:1;stroke-width:0.264583" />
    <path
       d="m 107.81816,54.242909 c -0.73191,0.680789 -1.35223,1.490467 -1.72541,2.426938 -0.0876,0.219821 -0.13359,0.45402 -0.20038,0.68103 -0.2111,0.747186 -0.29781,1.570958 -0.008,2.313884 0.47482,1.218351 -0.0463,-0.423032 0.29592,0.706575 0.16629,0.323781 0.066,0.185508 0.28812,0.423863 0.008,0.01286 0.46206,-0.257646 0.45441,-0.270497 v 0 c -0.16701,-0.264993 -0.0771,-0.123894 -0.27024,-0.422923 -0.17536,-0.327605 -0.38471,-0.766895 -0.43671,-1.135735 -0.0261,-0.184801 -0.003,-0.373247 -0.006,-0.559853 -0.0132,-0.843121 -0.064,-0.380793 0.15595,-1.277617 0.0723,-0.227174 0.12813,-0.460232 0.21678,-0.681524 0.37733,-0.941819 0.99811,-1.814849 1.8067,-2.428635 -0.006,-0.01617 -0.57744,0.208341 -0.57109,0.224494 z"
       id="path3760"
       style="fill:#4d1230;fill-opacity:1;stroke-width:0.264583" />
    <path
       d="m 109.51156,54.911299 c -0.1446,0.466844 -0.38218,0.89611 -0.56348,1.346669 -0.0758,0.188449 -0.12479,0.386686 -0.19264,0.578151 -0.15308,0.431959 -0.30095,0.793232 -0.46984,1.218949 -0.35585,0.730978 -0.58491,1.515205 -0.92137,2.254589 0.0178,0.128796 -0.1441,0.168224 -0.0566,0.257429 0.009,0.01333 0.48031,-0.302337 0.47138,-0.315669 v 0 c 0.002,0.01053 -0.003,0.03943 0.004,0.03156 0.0293,-0.03237 0.0471,-0.171227 0.0507,-0.19046 0.0688,-0.141571 0.16614,-0.334801 0.21994,-0.47839 0.039,-0.104082 0.0592,-0.214858 0.10179,-0.31753 0.19887,-0.479623 0.45541,-0.937971 0.5775,-1.449035 0.42162,-1.055489 0.83919,-2.111857 1.27055,-3.162903 -0.006,-0.01392 -0.49884,0.212714 -0.49243,0.226644 z"
       id="path3762"
       style="fill:#4d1230;fill-opacity:1;stroke-width:0.264583" />
    <path
       d="m 113.8993,56.691744 c -0.70595,-0.125015 -1.49161,-0.104217 -2.1378,0.248346 -0.29698,0.162033 -0.57375,0.358624 -0.86062,0.537938 -0.11422,0.112749 -0.24483,0.211021 -0.34266,0.338254 -0.20849,0.271168 -0.43218,0.901903 -0.0544,1.149463 0.0746,0.04889 0.17117,0.05025 0.25675,0.07537 0.83905,-0.07541 1.56079,-0.669428 1.9952,-1.364353 0.17185,-0.315259 0.34779,-0.644565 0.44733,-0.991852 -0.0318,-0.03107 0.0447,-0.05854 0.0318,-0.08644 -0.005,-0.0098 -0.0359,0.0096 -0.0322,-5.29e-4 0.006,-0.0163 0.0572,-0.03921 0.0429,-0.02933 -0.58852,0.408741 -0.56555,0.157683 -0.5292,0.537808 -0.0236,0.09405 -0.0597,0.185817 -0.0707,0.282146 -0.0116,0.101481 0.006,0.204309 0.003,0.306406 -0.003,0.09241 -0.0463,0.644962 -0.0428,0.730999 0.008,0.191296 0.0766,0.472614 0.11723,0.6604 0.0893,0.225184 0.30931,0.624713 0.55572,0.719844 0.12864,0.04966 0.23747,0.0041 0.36074,-0.02484 0.72766,-0.339098 0.91343,-0.632192 1.27232,-1.28815 0.10896,-0.320339 0.35423,-0.682607 0.24296,-1.033756 -0.0225,-0.07099 -0.0662,-0.133445 -0.0992,-0.200171 -0.10897,-0.16846 -0.12458,-0.222938 -0.28283,-0.349231 -0.0547,-0.04365 -0.13005,-0.06052 -0.17777,-0.111705 -0.0935,-0.100322 0.003,-0.233161 -0.0708,-0.174815 -0.10541,0.08369 -0.18624,0.194371 -0.27935,0.291555 0.72718,-0.01331 -0.11978,-0.02254 0.5552,0.05831 0.42615,0.05106 0.68611,-0.0051 1.07398,0.21903 0.36659,0.131445 0.36478,0.31962 0.30805,0.664742 -0.073,0.444236 -0.008,0.134271 -0.11869,0.597337 -0.0935,0.35139 -0.12825,0.697986 -0.0972,1.057457 0.006,0.06897 -0.0185,0.14509 0.0117,0.207349 0.0279,0.05727 0.0986,0.08062 0.1479,0.120933 0.21989,0.148235 0.10103,0.08539 0.35826,0.185351 0.009,0.01283 0.46251,-0.298511 0.45371,-0.311346 v 0 c -0.25204,-0.07332 -0.14113,-0.01873 -0.33767,-0.153336 -0.0365,-0.04083 -0.083,-0.07459 -0.10962,-0.122481 -0.0917,-0.165087 -0.0674,-0.726845 -0.0313,-0.905084 0.0225,-0.111141 0.0727,-0.214818 0.10907,-0.322226 0.10517,-0.453995 0.242,-1.041098 -0.22869,-1.33265 -0.34692,-0.153816 -0.0601,-0.04943 -0.49245,-0.129376 -0.38789,-0.07173 -0.76809,-0.141727 -1.16417,-0.155924 -0.21831,0.102626 -0.44905,0.182144 -0.65492,0.307874 -0.0224,0.01371 0.0201,0.04913 0.0356,0.07035 0.16319,0.223051 0.0113,-0.02831 0.25712,0.215484 0.1015,0.10064 0.13954,0.254977 0.26121,0.340069 0.2539,0.48269 0.0417,0.759865 -0.19597,1.202754 -0.11421,0.277119 -0.27407,0.545438 -0.4876,0.758052 -0.0482,0.048 -0.21837,0.150937 -0.15195,0.136232 0.11989,-0.02654 0.21631,-0.116282 0.32447,-0.174422 -0.0639,0.02466 -0.12391,0.06437 -0.19173,0.07395 -0.0434,0.0061 -0.0867,-0.01479 -0.12829,-0.02873 -0.35843,-0.120298 -0.37213,-0.37144 -0.56913,-0.656246 -0.0382,-0.44205 -0.009,-0.221324 -0.0872,-0.662106 -0.042,-0.435322 0.10502,-0.854697 0.0723,-1.291511 0.011,-0.06026 0.0929,-0.167936 0.033,-0.18079 -0.46961,-0.100788 -0.38169,0.07519 -0.53688,0.235389 0.10483,0.204714 -0.32503,0.700263 -0.35768,0.933779 -0.17897,0.226353 -0.25266,0.331178 -0.45266,0.538363 -0.0704,0.07291 -0.1732,0.119698 -0.22041,0.209365 -0.0239,0.04548 0.18861,-0.08174 0.14192,-0.06026 -0.3616,0.166376 -0.214,0.113933 -0.59383,0.191932 -0.0731,-0.02093 -0.15741,-0.0186 -0.21932,-0.06276 -0.06,-0.0428 -0.0958,-0.114832 -0.12469,-0.182626 -0.20993,-0.491877 0.24037,-0.91965 0.56028,-1.224212 -0.21586,-0.01365 -0.21096,-0.0033 0.39283,-0.202107 0.4233,-0.139366 0.87746,-0.169667 1.31659,-0.111866 0.10421,0.01373 0.20654,0.03913 0.30981,0.05869 0.009,0.01365 0.49255,-0.322466 0.48305,-0.336129 z"
       id="path3764"
       style="fill:#4d1230;fill-opacity:1;stroke-width:0.264583" />
    <path
       d="m 120.02345,56.757898 c -0.72694,0.320995 -1.52623,0.75002 -1.78467,1.56604 -0.0348,0.109804 -0.0252,0.228973 -0.0379,0.343458 0.0333,0.716023 0.4403,0.962498 1.069,1.13865 0.37505,0.0072 0.19155,0.01204 0.55054,-0.01249 0.009,0.01183 0.42653,-0.298347 0.41776,-0.310163 v 0 c -0.34248,0.0149 -0.16189,0.0066 -0.54176,0.02516 -0.15828,-0.05694 -0.32968,-0.08104 -0.47928,-0.157943 -0.33531,-0.17236 -0.51481,-0.543107 -0.58515,-0.89214 0.20905,-0.737373 0.56518,-1.242872 0.95958,-1.362612 0.01,0.01222 0.44139,-0.325745 0.43184,-0.337958 z"
       id="path3766"
       style="fill:#4d1230;fill-opacity:1;stroke-width:0.264583" />
    <path
       d="m 120.98377,53.656685 c 0.30281,0.587978 0.39044,1.246187 0.52226,1.884661 0.0635,0.307452 0.15227,0.610177 0.19792,0.920777 0.0836,0.568767 0.0906,1.146175 0.13612,1.719244 -0.0612,0.556699 -0.0227,1.147633 -0.16851,1.695098 -0.0334,0.125494 -0.0955,0.241535 -0.14328,0.362302 0.006,0.01341 0.48108,-0.211209 0.47473,-0.224637 v 0 c 0.21254,-0.66866 0.31547,-1.362353 0.29029,-2.066388 -0.0146,-0.187679 -0.12167,-1.59331 -0.14073,-1.723773 -0.0456,-0.312375 -0.12866,-0.618136 -0.19158,-0.927492 -0.12975,-0.637855 -0.20817,-1.314357 -0.53192,-1.89207 -0.007,-0.01259 -0.45243,0.239684 -0.4453,0.252278 z"
       id="path3768"
       style="fill:#4d1230;fill-opacity:1;stroke-width:0.264583" />
  </g>
</svg>
