<?xml version="1.0" encoding="utf-8" standalone="no"?>
<!DOCTYPE svg PUBLIC "-//W3C//DTD SVG 1.1//EN"
  "http://www.w3.org/Graphics/SVG/1.1/DTD/svg11.dtd">
<!-- Created with matplotlib (https://matplotlib.org/) -->
<svg height="482.266125pt" version="1.1" viewBox="0 0 690.163125 482.266125" width="690.163125pt" xmlns="http://www.w3.org/2000/svg" xmlns:xlink="http://www.w3.org/1999/xlink">
 <defs>
  <style type="text/css">
*{stroke-linecap:butt;stroke-linejoin:round;}
  </style>
 </defs>
 <g id="figure_1">
  <g id="patch_1">
   <path d="M 0 482.266125 
L 690.163125 482.266125 
L 690.163125 0 
L 0 0 
z
" style="fill:none;"/>
  </g>
  <g id="axes_1">
   <g id="patch_2">
    <path d="M 30.103125 458.388 
L 682.963125 458.388 
L 682.963125 7.2 
L 30.103125 7.2 
z
" style="fill:#ffffff;"/>
   </g>
   <g id="PathCollection_1">
    <defs>
     <path d="M 0 3 
C 0.795609 3 1.55874 2.683901 2.12132 2.12132 
C 2.683901 1.55874 3 0.795609 3 0 
C 3 -0.795609 2.683901 -1.55874 2.12132 -2.12132 
C 1.55874 -2.683901 0.795609 -3 0 -3 
C -0.795609 -3 -1.55874 -2.683901 -2.12132 -2.12132 
C -2.683901 -1.55874 -3 -0.795609 -3 0 
C -3 0.795609 -2.683901 1.55874 -2.12132 2.12132 
C -1.55874 2.683901 -0.795609 3 0 3 
z
" id="m41b149250b" style="stroke:#008000;stroke-opacity:0.5;"/>
    </defs>
    <g clip-path="url(#pa6118e26b6)">
     <use style="fill:#008000;fill-opacity:0.5;stroke:#008000;stroke-opacity:0.5;" x="60.337251" xlink:href="#m41b149250b" y="197.122705"/>
     <use style="fill:#008000;fill-opacity:0.5;stroke:#008000;stroke-opacity:0.5;" x="67.804756" xlink:href="#m41b149250b" y="183.604123"/>
     <use style="fill:#008000;fill-opacity:0.5;stroke:#008000;stroke-opacity:0.5;" x="76.182933" xlink:href="#m41b149250b" y="169.000108"/>
     <use style="fill:#008000;fill-opacity:0.5;stroke:#008000;stroke-opacity:0.5;" x="86.018184" xlink:href="#m41b149250b" y="153.50801"/>
     <use style="fill:#008000;fill-opacity:0.5;stroke:#008000;stroke-opacity:0.5;" x="96.67304" xlink:href="#m41b149250b" y="137.423858"/>
     <use style="fill:#008000;fill-opacity:0.5;stroke:#008000;stroke-opacity:0.5;" x="108.056432" xlink:href="#m41b149250b" y="121.438382"/>
     <use style="fill:#008000;fill-opacity:0.5;stroke:#008000;stroke-opacity:0.5;" x="120.441563" xlink:href="#m41b149250b" y="106.04496"/>
     <use style="fill:#008000;fill-opacity:0.5;stroke:#008000;stroke-opacity:0.5;" x="133.008829" xlink:href="#m41b149250b" y="91.835647"/>
     <use style="fill:#008000;fill-opacity:0.5;stroke:#008000;stroke-opacity:0.5;" x="145.667161" xlink:href="#m41b149250b" y="79.205148"/>
     <use style="fill:#008000;fill-opacity:0.5;stroke:#008000;stroke-opacity:0.5;" x="158.416561" xlink:href="#m41b149250b" y="67.561405"/>
     <use style="fill:#008000;fill-opacity:0.5;stroke:#008000;stroke-opacity:0.5;" x="171.165961" xlink:href="#m41b149250b" y="57.496476"/>
     <use style="fill:#008000;fill-opacity:0.5;stroke:#008000;stroke-opacity:0.5;" x="184.006427" xlink:href="#m41b149250b" y="48.911683"/>
     <use style="fill:#008000;fill-opacity:0.5;stroke:#008000;stroke-opacity:0.5;" x="196.755827" xlink:href="#m41b149250b" y="42.103054"/>
     <use style="fill:#008000;fill-opacity:0.5;stroke:#008000;stroke-opacity:0.5;" x="209.232025" xlink:href="#m41b149250b" y="36.57721"/>
     <use style="fill:#008000;fill-opacity:0.5;stroke:#008000;stroke-opacity:0.5;" x="221.890358" xlink:href="#m41b149250b" y="32.630179"/>
     <use style="fill:#008000;fill-opacity:0.5;stroke:#008000;stroke-opacity:0.5;" x="234.457623" xlink:href="#m41b149250b" y="29.867257"/>
     <use style="fill:#008000;fill-opacity:0.5;stroke:#008000;stroke-opacity:0.5;" x="246.933822" xlink:href="#m41b149250b" y="28.584472"/>
     <use style="fill:#008000;fill-opacity:0.5;stroke:#008000;stroke-opacity:0.5;" x="259.227885" xlink:href="#m41b149250b" y="28.979175"/>
     <use style="fill:#008000;fill-opacity:0.5;stroke:#008000;stroke-opacity:0.5;" x="271.704084" xlink:href="#m41b149250b" y="30.459312"/>
     <use style="fill:#008000;fill-opacity:0.5;stroke:#008000;stroke-opacity:0.5;" x="284.180282" xlink:href="#m41b149250b" y="33.912964"/>
     <use style="fill:#008000;fill-opacity:0.5;stroke:#008000;stroke-opacity:0.5;" x="296.565413" xlink:href="#m41b149250b" y="38.748077"/>
     <use style="fill:#008000;fill-opacity:0.5;stroke:#008000;stroke-opacity:0.5;" x="309.132678" xlink:href="#m41b149250b" y="45.063327"/>
     <use style="fill:#008000;fill-opacity:0.5;stroke:#008000;stroke-opacity:0.5;" x="321.699944" xlink:href="#m41b149250b" y="52.562687"/>
     <use style="fill:#008000;fill-opacity:0.5;stroke:#008000;stroke-opacity:0.5;" x="334.631478" xlink:href="#m41b149250b" y="61.739534"/>
     <use style="fill:#008000;fill-opacity:0.5;stroke:#008000;stroke-opacity:0.5;" x="347.380877" xlink:href="#m41b149250b" y="72.297843"/>
     <use style="fill:#008000;fill-opacity:0.5;stroke:#008000;stroke-opacity:0.5;" x="360.221344" xlink:href="#m41b149250b" y="84.336288"/>
     <use style="fill:#008000;fill-opacity:0.5;stroke:#008000;stroke-opacity:0.5;" x="373.243945" xlink:href="#m41b149250b" y="97.756194"/>
     <use style="fill:#008000;fill-opacity:0.5;stroke:#008000;stroke-opacity:0.5;" x="386.084412" xlink:href="#m41b149250b" y="112.853589"/>
     <use style="fill:#008000;fill-opacity:0.5;stroke:#008000;stroke-opacity:0.5;" x="398.742745" xlink:href="#m41b149250b" y="129.332444"/>
     <use style="fill:#008000;fill-opacity:0.5;stroke:#008000;stroke-opacity:0.5;" x="411.492144" xlink:href="#m41b149250b" y="147.390112"/>
     <use style="fill:#008000;fill-opacity:0.5;stroke:#008000;stroke-opacity:0.5;" x="424.514745" xlink:href="#m41b149250b" y="167.223944"/>
     <use style="fill:#008000;fill-opacity:0.5;stroke:#008000;stroke-opacity:0.5;" x="437.173078" xlink:href="#m41b149250b" y="188.340561"/>
     <use style="fill:#008000;fill-opacity:0.5;stroke:#008000;stroke-opacity:0.5;" x="450.104612" xlink:href="#m41b149250b" y="210.739963"/>
     <use style="fill:#008000;fill-opacity:0.5;stroke:#008000;stroke-opacity:0.5;" x="462.58081" xlink:href="#m41b149250b" y="234.520826"/>
     <use style="fill:#008000;fill-opacity:0.5;stroke:#008000;stroke-opacity:0.5;" x="475.421277" xlink:href="#m41b149250b" y="259.781826"/>
     <use style="fill:#008000;fill-opacity:0.5;stroke:#008000;stroke-opacity:0.5;" x="488.261744" xlink:href="#m41b149250b" y="286.424287"/>
     <use style="fill:#008000;fill-opacity:0.5;stroke:#008000;stroke-opacity:0.5;" x="500.829009" xlink:href="#m41b149250b" y="314.744236"/>
     <use style="fill:#008000;fill-opacity:0.5;stroke:#008000;stroke-opacity:0.5;" x="513.760543" xlink:href="#m41b149250b" y="344.34697"/>
     <use style="fill:#008000;fill-opacity:0.5;stroke:#008000;stroke-opacity:0.5;" x="526.236741" xlink:href="#m41b149250b" y="373.061622"/>
     <use style="fill:#008000;fill-opacity:0.5;stroke:#008000;stroke-opacity:0.5;" x="537.620134" xlink:href="#m41b149250b" y="396.053079"/>
     <use style="fill:#008000;fill-opacity:0.5;stroke:#008000;stroke-opacity:0.5;" x="548.183922" xlink:href="#m41b149250b" y="413.913395"/>
     <use style="fill:#008000;fill-opacity:0.5;stroke:#008000;stroke-opacity:0.5;" x="558.019173" xlink:href="#m41b149250b" y="426.543895"/>
     <use style="fill:#008000;fill-opacity:0.5;stroke:#008000;stroke-opacity:0.5;" x="566.579484" xlink:href="#m41b149250b" y="434.437958"/>
     <use style="fill:#008000;fill-opacity:0.5;stroke:#008000;stroke-opacity:0.5;" x="574.502326" xlink:href="#m41b149250b" y="437.003528"/>
     <use style="fill:#008000;fill-opacity:0.5;stroke:#008000;stroke-opacity:0.5;" x="581.150227" xlink:href="#m41b149250b" y="434.733985"/>
     <use style="fill:#008000;fill-opacity:0.5;stroke:#008000;stroke-opacity:0.5;" x="586.887457" xlink:href="#m41b149250b" y="427.333301"/>
     <use style="fill:#008000;fill-opacity:0.5;stroke:#008000;stroke-opacity:0.5;" x="591.987217" xlink:href="#m41b149250b" y="414.50545"/>
     <use style="fill:#008000;fill-opacity:0.5;stroke:#008000;stroke-opacity:0.5;" x="595.812036" xlink:href="#m41b149250b" y="396.645134"/>
     <use style="fill:#008000;fill-opacity:0.5;stroke:#008000;stroke-opacity:0.5;" x="599.181521" xlink:href="#m41b149250b" y="376.712626"/>
     <use style="fill:#008000;fill-opacity:0.5;stroke:#008000;stroke-opacity:0.5;" x="602.368871" xlink:href="#m41b149250b" y="358.556282"/>
     <use style="fill:#008000;fill-opacity:0.5;stroke:#008000;stroke-opacity:0.5;" x="605.647288" xlink:href="#m41b149250b" y="341.880075"/>
     <use style="fill:#008000;fill-opacity:0.5;stroke:#008000;stroke-opacity:0.5;" x="608.834638" xlink:href="#m41b149250b" y="326.782681"/>
     <use style="fill:#008000;fill-opacity:0.5;stroke:#008000;stroke-opacity:0.5;" x="612.113055" xlink:href="#m41b149250b" y="312.869396"/>
     <use style="fill:#008000;fill-opacity:0.5;stroke:#008000;stroke-opacity:0.5;" x="615.209337" xlink:href="#m41b149250b" y="300.830951"/>
     <use style="fill:#008000;fill-opacity:0.5;stroke:#008000;stroke-opacity:0.5;" x="618.396687" xlink:href="#m41b149250b" y="290.075291"/>
     <use style="fill:#008000;fill-opacity:0.5;stroke:#008000;stroke-opacity:0.5;" x="621.857239" xlink:href="#m41b149250b" y="281.095795"/>
     <use style="fill:#008000;fill-opacity:0.5;stroke:#008000;stroke-opacity:0.5;" x="624.862454" xlink:href="#m41b149250b" y="273.793787"/>
     <use style="fill:#008000;fill-opacity:0.5;stroke:#008000;stroke-opacity:0.5;" x="628.414073" xlink:href="#m41b149250b" y="267.87324"/>
     <use style="fill:#008000;fill-opacity:0.5;stroke:#008000;stroke-opacity:0.5;" x="631.69249" xlink:href="#m41b149250b" y="263.334154"/>
     <use style="fill:#008000;fill-opacity:0.5;stroke:#008000;stroke-opacity:0.5;" x="635.426243" xlink:href="#m41b149250b" y="260.472556"/>
     <use style="fill:#008000;fill-opacity:0.5;stroke:#008000;stroke-opacity:0.5;" x="638.70466" xlink:href="#m41b149250b" y="258.99242"/>
     <use style="fill:#008000;fill-opacity:0.5;stroke:#008000;stroke-opacity:0.5;" x="642.074144" xlink:href="#m41b149250b" y="259.091096"/>
     <use style="fill:#008000;fill-opacity:0.5;stroke:#008000;stroke-opacity:0.5;" x="645.534695" xlink:href="#m41b149250b" y="261.064611"/>
     <use style="fill:#008000;fill-opacity:0.5;stroke:#008000;stroke-opacity:0.5;" x="649.086314" xlink:href="#m41b149250b" y="264.320912"/>
     <use style="fill:#008000;fill-opacity:0.5;stroke:#008000;stroke-opacity:0.5;" x="652.728999" xlink:href="#m41b149250b" y="269.353377"/>
    </g>
   </g>
   <g id="Quiver_1">
    <path clip-path="url(#pa6118e26b6)" d="M 58.395577 195.9337 
L 128.675203 81.165369 
L 123.60285 80.729033 
L 141.317924 64.879306 
L 135.252895 87.863064 
L 132.558552 83.543379 
L 62.278925 198.31171 
L 58.395577 195.9337 
" style="fill:#0000ff;fill-opacity:0.5;"/>
    <path clip-path="url(#pa6118e26b6)" d="M 65.863567 182.414327 
L 140.539322 60.578488 
L 135.467147 60.140086 
L 153.188677 44.297578 
L 147.114285 67.278862 
L 144.421702 62.958081 
L 69.745946 184.793919 
L 65.863567 182.414327 
" style="fill:#0000ff;fill-opacity:0.5;"/>
    <path clip-path="url(#pa6118e26b6)" d="M 74.279588 167.750665 
L 159.448259 38.008538 
L 154.392125 37.412998 
L 172.596592 22.127872 
L 165.812198 44.909656 
L 163.25495 40.507425 
L 78.086279 170.249551 
L 74.279588 167.750665 
" style="fill:#0000ff;fill-opacity:0.5;"/>
    <path clip-path="url(#pa6118e26b6)" d="M 84.155197 152.199152 
L 179.824993 16.025823 
L 174.79016 15.271093 
L 193.467706 0.567796 
L 185.968084 23.124244 
L 183.550968 18.64354 
L 87.881172 154.816869 
L 84.155197 152.199152 
" style="fill:#0000ff;fill-opacity:0.5;"/>
    <path clip-path="url(#pa6118e26b6)" d="M 94.851928 136.057336 
L 198.782453 -2.446969 
L 193.773706 -3.358901 
L 212.902262 -17.470458 
L 204.70038 4.84023 
L 202.424677 0.286074 
L 98.494152 138.79038 
L 94.851928 136.057336 
" style="fill:#0000ff;fill-opacity:0.5;"/>
    <path clip-path="url(#pa6118e26b6)" d="M 106.297873 119.992248 
L 217.545526 -15.289613 
L 212.582274 -16.42332 
L 232.319284 -29.670513 
L 223.13363 -7.746521 
L 221.062645 -12.397347 
L 109.814992 122.884515 
L 106.297873 119.992248 
" style="fill:#0000ff;fill-opacity:0.5;"/>
    <path clip-path="url(#pa6118e26b6)" d="M 118.760231 104.509723 
L 234.498151 -22.242 
L 229.600249 -23.631141 
L 249.996617 -35.838756 
L 239.688244 -14.419719 
L 237.860816 -19.171526 
L 122.122896 107.580197 
L 118.760231 104.509723 
" style="fill:#0000ff;fill-opacity:0.5;"/>
    <path clip-path="url(#pa6118e26b6)" d="M 131.412633 90.212074 
L 248.036466 -24.445227 
L 243.220501 -26.096177 
L 264.244821 -37.187419 
L 252.797678 -16.354738 
L 251.228859 -21.19808 
L 134.605025 93.459221 
L 131.412633 90.212074 
" style="fill:#0000ff;fill-opacity:0.5;"/>
    <path clip-path="url(#pa6118e26b6)" d="M 144.161146 77.497591 
L 260.433021 -25.050852 
L 255.713433 -26.959949 
L 277.307044 -36.897436 
L 264.749527 -16.714611 
L 263.445052 -21.635739 
L 147.173177 80.912704 
L 144.161146 77.497591 
" style="fill:#0000ff;fill-opacity:0.5;"/>
    <path clip-path="url(#pa6118e26b6)" d="M 157.01302 65.768669 
L 272.450249 -24.607612 
L 267.85043 -26.789545 
L 289.98842 -35.446744 
L 276.271676 -16.033125 
L 275.257331 -21.022139 
L 159.820102 69.354142 
L 157.01302 65.768669 
" style="fill:#0000ff;fill-opacity:0.5;"/>
    <path clip-path="url(#pa6118e26b6)" d="M 169.895643 55.606999 
L 284.078174 -21.159265 
L 279.648061 -23.667901 
L 302.353788 -30.702648 
L 287.269969 -12.331038 
L 286.61881 -17.38031 
L 172.436279 59.385953 
L 169.895643 55.606999 
" style="fill:#0000ff;fill-opacity:0.5;"/>
    <path clip-path="url(#pa6118e26b6)" d="M 182.897094 46.923415 
L 295.056367 -15.654703 
L 290.849431 -18.521906 
L 314.060115 -23.65044 
L 297.505435 -6.592297 
L 297.275035 -11.678167 
L 185.115761 50.899951 
L 182.897094 46.923415 
" style="fill:#0000ff;fill-opacity:0.5;"/>
    <path clip-path="url(#pa6118e26b6)" d="M 195.818735 40.028038 
L 305.242565 -9.38856 
L 301.293365 -12.601499 
L 324.854798 -15.747374 
L 306.915918 -0.151405 
L 307.116749 -5.238529 
L 197.692919 44.17807 
L 195.818735 40.028038 
" style="fill:#0000ff;fill-opacity:0.5;"/>
    <path clip-path="url(#pa6118e26b6)" d="M 208.483456 34.426984 
L 316.02947 -3.013581 
L 312.382104 -6.565464 
L 336.130081 -7.600482 
L 316.873523 6.335896 
L 317.52661 1.286873 
L 209.980595 38.727437 
L 208.483456 34.426984 
" style="fill:#0000ff;fill-opacity:0.5;"/>
    <path clip-path="url(#pa6118e26b6)" d="M 221.345597 30.419508 
L 327.786293 4.190026 
L 324.486099 0.313445 
L 348.227095 1.497846 
L 327.754666 13.577472 
L 328.875815 8.611368 
L 222.435119 34.84085 
L 221.345597 30.419508 
" style="fill:#0000ff;fill-opacity:0.5;"/>
    <path clip-path="url(#pa6118e26b6)" d="M 234.129283 27.614254 
L 339.126941 12.312453 
L 336.217256 8.134787 
L 359.732312 11.61039 
L 338.1873 21.652807 
L 339.783622 16.81846 
L 234.785964 32.120261 
L 234.129283 27.614254 
" style="fill:#0000ff;fill-opacity:0.5;"/>
    <path clip-path="url(#pa6118e26b6)" d="M 246.853552 26.309084 
L 350.378712 22.657 
L 347.942786 18.186494 
L 370.93747 24.209962 
L 348.424402 31.838819 
L 350.539251 27.207775 
L 247.014091 30.85986 
L 246.853552 26.309084 
" style="fill:#0000ff;fill-opacity:0.5;"/>
    <path clip-path="url(#pa6118e26b6)" d="M 259.391519 26.70826 
L 362.82387 34.161189 
L 360.880221 29.455725 
L 383.098474 37.904804 
L 359.898422 43.081217 
L 362.496604 38.70302 
L 259.064252 31.25009 
L 259.391519 26.70826 
" style="fill:#0000ff;fill-opacity:0.5;"/>
    <path clip-path="url(#pa6118e26b6)" d="M 272.118905 28.220617 
L 376.77872 47.613682 
L 375.369668 42.72147 
L 396.512153 53.585771 
L 372.880739 56.15364 
L 375.949077 52.091072 
L 271.289262 32.698007 
L 272.118905 28.220617 
" style="fill:#0000ff;fill-opacity:0.5;"/>
    <path clip-path="url(#pa6118e26b6)" d="M 284.843531 31.734907 
L 390.562976 63.927961 
L 389.711416 58.908598 
L 409.502241 72.075259 
L 385.731923 71.97694 
L 389.236478 68.284075 
L 283.517033 36.091021 
L 284.843531 31.734907 
" style="fill:#0000ff;fill-opacity:0.5;"/>
    <path clip-path="url(#pa6118e26b6)" d="M 297.430392 36.641981 
L 404.817402 80.746078 
L 404.441263 75.668906 
L 422.907293 90.636985 
L 399.251389 88.305486 
L 403.087444 84.958272 
L 295.700434 40.854174 
L 297.430392 36.641981 
" style="fill:#0000ff;fill-opacity:0.5;"/>
    <path clip-path="url(#pa6118e26b6)" d="M 310.16273 43.032853 
L 419.844395 98.673938 
L 419.874024 93.582938 
L 437.088611 109.974878 
L 413.693714 105.765783 
L 417.784292 102.734887 
L 308.102627 47.093802 
L 310.16273 43.032853 
" style="fill:#0000ff;fill-opacity:0.5;"/>
    <path clip-path="url(#pa6118e26b6)" d="M 322.878661 50.61475 
L 435.439592 118.726538 
L 435.849089 113.651947 
L 451.792308 131.282927 
L 428.776788 125.339569 
L 433.082158 122.622412 
L 320.521227 54.510624 
L 322.878661 50.61475 
" style="fill:#0000ff;fill-opacity:0.5;"/>
    <path clip-path="url(#pa6118e26b6)" d="M 335.948562 59.882353 
L 451.000949 141.475733 
L 451.777936 136.444287 
L 466.398494 155.186672 
L 443.875431 147.587373 
L 448.366781 145.190095 
L 333.314394 63.596715 
L 335.948562 59.882353 
" style="fill:#0000ff;fill-opacity:0.5;"/>
    <path clip-path="url(#pa6118e26b6)" d="M 348.816836 70.530966 
L 465.445414 165.316167 
L 466.550454 160.346454 
L 479.91135 180.006671 
L 457.934702 170.947717 
L 462.573497 168.849921 
L 345.944919 74.06472 
L 348.816836 70.530966 
" style="fill:#0000ff;fill-opacity:0.5;"/>
    <path clip-path="url(#pa6118e26b6)" d="M 361.754793 82.653324 
L 480.50541 190.854107 
L 481.889344 185.954731 
L 494.118634 206.33811 
L 472.688651 196.052513 
L 477.438512 194.220034 
L 358.687895 86.019252 
L 361.754793 82.653324 
" style="fill:#0000ff;fill-opacity:0.5;"/>
    <path clip-path="url(#pa6118e26b6)" d="M 374.869934 96.162459 
L 495.053184 218.777944 
L 496.711427 213.964485 
L 507.770813 235.005579 
L 486.955494 223.526897 
L 491.801207 221.965415 
L 371.617956 99.34993 
L 374.869934 96.162459 
" style="fill:#0000ff;fill-opacity:0.5;"/>
    <path clip-path="url(#pa6118e26b6)" d="M 387.796163 111.352342 
L 508.058391 248.477642 
L 509.980645 243.763397 
L 519.857862 265.384643 
L 499.710142 252.770879 
L 504.63489 251.480135 
L 384.372662 114.354836 
L 387.796163 111.352342 
" style="fill:#0000ff;fill-opacity:0.5;"/>
    <path clip-path="url(#pa6118e26b6)" d="M 400.522494 127.912471 
L 521.5387 279.590397 
L 523.678226 274.970702 
L 532.538706 297.028117 
L 512.999728 283.490539 
L 517.9792 282.430343 
L 396.962995 130.752417 
L 400.522494 127.912471 
" style="fill:#0000ff;fill-opacity:0.5;"/>
    <path clip-path="url(#pa6118e26b6)" d="M 413.326068 146.040833 
L 536.455973 313.397532 
L 538.774542 308.865049 
L 546.765561 331.252128 
L 527.770997 316.960724 
L 532.788125 316.09609 
L 409.65822 148.739391 
L 413.326068 146.040833 
" style="fill:#0000ff;fill-opacity:0.5;"/>
    <path clip-path="url(#pa6118e26b6)" d="M 426.396651 165.942436 
L 550.455428 348.123831 
L 552.937732 343.678909 
L 560.107095 366.342491 
L 541.646298 351.367958 
L 546.691617 350.686847 
L 422.63284 168.505452 
L 426.396651 165.942436 
" style="fill:#0000ff;fill-opacity:0.5;"/>
    <path clip-path="url(#pa6118e26b6)" d="M 439.093679 187.117809 
L 563.560647 382.620541 
L 566.179097 378.254436 
L 572.644816 401.128704 
L 554.65549 385.590949 
L 559.719445 385.066046 
L 435.252477 189.563313 
L 439.093679 187.117809 
" style="fill:#0000ff;fill-opacity:0.5;"/>
    <path clip-path="url(#pa6118e26b6)" d="M 452.0602 209.573985 
L 576.508996 418.30061 
L 579.254195 414.013065 
L 585.04721 437.066886 
L 567.520663 421.008933 
L 572.597819 420.632566 
L 448.149023 211.905941 
L 452.0602 209.573985 
" style="fill:#0000ff;fill-opacity:0.5;"/>
    <path clip-path="url(#pa6118e26b6)" d="M 464.56641 233.406724 
L 589.456749 455.991661 
L 592.313847 451.777856 
L 597.498065 474.976166 
L 580.400245 458.462468 
L 585.485548 458.219864 
L 460.59521 235.634928 
L 464.56641 233.406724 
" style="fill:#0000ff;fill-opacity:0.5;"/>
    <path clip-path="url(#pa6118e26b6)" d="M 477.430034 258.71004 
L 603.958052 495.850843 
L 606.903781 491.698514 
L 611.595366 515.001448 
L 594.851236 498.129229 
L 599.940537 497.994415 
L 473.412519 260.853612 
L 477.430034 258.71004 
" style="fill:#0000ff;fill-opacity:0.5;"/>
    <path clip-path="url(#pa6118e26b6)" d="M 490.296295 285.402312 
L 616.921351 537.487854 
L 619.968479 533.409353 
L 624.084577 556.820791 
L 607.761171 539.541204 
L 612.852249 539.531805 
L 486.227192 287.446262 
L 490.296295 285.402312 
" style="fill:#0000ff;fill-opacity:0.5;"/>
    <path clip-path="url(#pa6118e26b6)" d="M 502.881601 313.758996 
L 629.878865 578.337889 
L 632.99881 574.314818 
L 636.693429 597.796459 
L 620.683256 580.226255 
L 625.77368 580.308368 
L 498.776417 315.729475 
L 502.881601 313.758996 
" style="fill:#0000ff;fill-opacity:0.5;"/>
    <path clip-path="url(#pa6118e26b6)" d="M 515.815425 343.366514 
L 641.343562 606.453916 
L 644.47287 602.438124 
L 648.112779 625.928308 
L 632.143579 608.320856 
L 637.233798 608.414827 
L 511.705661 345.327425 
L 515.815425 343.366514 
" style="fill:#0000ff;fill-opacity:0.5;"/>
    <path clip-path="url(#pa6118e26b6)" d="M 528.268596 372.034297 
L 645.956987 604.799835 
L 648.993372 600.713331 
L 653.171053 624.113858 
L 636.802241 606.877279 
L 641.893276 606.854485 
L 524.204886 374.088947 
L 528.268596 372.034297 
" style="fill:#0000ff;fill-opacity:0.5;"/>
    <path clip-path="url(#pa6118e26b6)" d="M 539.58787 394.907721 
L 646.261045 578.173272 
L 649.051159 573.914819 
L 654.601532 597.028257 
L 637.244741 580.786968 
L 642.325572 580.463988 
L 535.652397 397.198437 
L 539.58787 394.907721 
" style="fill:#0000ff;fill-opacity:0.5;"/>
    <path clip-path="url(#pa6118e26b6)" d="M 550.032502 412.584267 
L 645.373597 545.186712 
L 647.741629 540.679875 
L 655.487172 563.153064 
L 636.650146 548.654645 
L 641.676436 547.844969 
L 546.335342 415.242524 
L 550.032502 412.584267 
" style="fill:#0000ff;fill-opacity:0.5;"/>
    <path clip-path="url(#pa6118e26b6)" d="M 559.654062 424.959291 
L 641.425182 509.325282 
L 643.110355 504.521185 
L 654.05173 525.623886 
L 633.301022 514.028809 
L 638.155404 512.49449 
L 556.384284 428.128499 
L 559.654062 424.959291 
" style="fill:#0000ff;fill-opacity:0.5;"/>
    <path clip-path="url(#pa6118e26b6)" d="M 567.733218 432.47512 
L 634.292223 471.59777 
L 634.636854 466.518361 
L 650.804023 483.944213 
L 627.71445 478.295384 
L 631.984755 475.523444 
L 565.42575 436.400795 
L 567.733218 432.47512 
" style="fill:#0000ff;fill-opacity:0.5;"/>
    <path clip-path="url(#pa6118e26b6)" d="M 574.561253 434.727488 
L 626.717521 436.077834 
L 624.559336 431.466825 
L 647.142956 438.884222 
L 624.20577 445.123067 
L 626.599666 440.629914 
L 574.443398 439.279568 
L 574.561253 434.727488 
" style="fill:#0000ff;fill-opacity:0.5;"/>
    <path clip-path="url(#pa6118e26b6)" d="M 579.821813 432.884891 
L 627.396303 398.706755 
L 622.890382 396.33698 
L 645.366564 388.600128 
L 630.860862 407.431546 
L 630.05313 402.404944 
L 582.47864 436.583079 
L 579.821813 432.884891 
" style="fill:#0000ff;fill-opacity:0.5;"/>
    <path clip-path="url(#pa6118e26b6)" d="M 584.917224 426.192243 
L 631.925794 345.02393 
L 626.844269 344.712045 
L 644.165556 328.432895 
L 638.665665 351.558398 
L 635.866259 347.306048 
L 588.857689 428.47436 
L 584.917224 426.192243 
" style="fill:#0000ff;fill-opacity:0.5;"/>
    <path clip-path="url(#pa6118e26b6)" d="M 589.820655 413.805561 
L 631.715197 284.11777 
L 626.682186 284.884553 
L 640.180761 265.318609 
L 639.681552 289.083888 
L 636.048319 285.517548 
L 594.153778 415.205339 
L 589.820655 413.805561 
" style="fill:#0000ff;fill-opacity:0.5;"/>
    <path clip-path="url(#pa6118e26b6)" d="M 593.58753 396.159951 
L 629.000661 233.794935 
L 624.066465 235.049075 
L 635.591814 214.259559 
L 637.413504 237.960173 
L 633.449674 234.7653 
L 598.036543 397.130317 
L 593.58753 396.159951 
" style="fill:#0000ff;fill-opacity:0.5;"/>
    <path clip-path="url(#pa6118e26b6)" d="M 596.94563 376.282946 
L 628.974831 209.615199 
L 624.073369 210.99173 
L 635.077841 189.921863 
L 637.488713 213.56981 
L 633.446612 210.474559 
L 601.417411 377.142306 
L 596.94563 376.282946 
" style="fill:#0000ff;fill-opacity:0.5;"/>
    <path clip-path="url(#pa6118e26b6)" d="M 600.136916 358.106604 
L 631.088836 204.478303 
L 626.175249 205.810902 
L 637.367894 184.840389 
L 639.566977 208.50897 
L 635.552746 205.377659 
L 604.600825 359.00596 
L 600.136916 358.106604 
" style="fill:#0000ff;fill-opacity:0.5;"/>
    <path clip-path="url(#pa6118e26b6)" d="M 603.423721 341.390605 
L 633.917148 202.865103 
L 628.980543 204.109728 
L 640.545952 183.34247 
L 642.321946 207.046552 
L 638.364282 203.844044 
L 607.870855 342.369546 
L 603.423721 341.390605 
" style="fill:#0000ff;fill-opacity:0.5;"/>
    <path clip-path="url(#pa6118e26b6)" d="M 606.621319 326.248778 
L 636.600093 201.970507 
L 631.639553 203.116019 
L 643.618541 182.584543 
L 644.919464 206.319439 
L 641.02673 203.038314 
L 611.047956 327.316584 
L 606.621319 326.248778 
" style="fill:#0000ff;fill-opacity:0.5;"/>
    <path clip-path="url(#pa6118e26b6)" d="M 609.912903 312.283594 
L 638.961149 203.184292 
L 633.975043 204.212841 
L 646.433516 183.968727 
L 647.175955 207.727651 
L 643.361452 204.355896 
L 614.313206 313.455198 
L 609.912903 312.283594 
" style="fill:#0000ff;fill-opacity:0.5;"/>
    <path clip-path="url(#pa6118e26b6)" d="M 613.029774 300.172668 
L 641.316959 206.51422 
L 636.29955 207.377219 
L 649.421064 187.556433 
L 649.376929 211.326913 
L 645.676085 207.830785 
L 617.388901 301.489233 
L 613.029774 300.172668 
" style="fill:#0000ff;fill-opacity:0.5;"/>
    <path clip-path="url(#pa6118e26b6)" d="M 616.255129 289.302272 
L 644.48094 211.105968 
L 639.424804 211.701489 
L 653.57967 192.60496 
L 652.274156 216.339603 
L 648.764057 212.652006 
L 620.538246 290.84831 
L 616.255129 289.302272 
" style="fill:#0000ff;fill-opacity:0.5;"/>
    <path clip-path="url(#pa6118e26b6)" d="M 619.76666 280.193957 
L 646.441829 218.35739 
L 641.358833 218.644293 
L 656.648948 200.444017 
L 653.902307 224.05532 
L 650.622987 220.161065 
L 623.947818 281.997632 
L 619.76666 280.193957 
" style="fill:#0000ff;fill-opacity:0.5;"/>
    <path clip-path="url(#pa6118e26b6)" d="M 622.857315 272.715246 
L 648.200482 225.599219 
L 643.111663 225.447276 
L 659.912489 208.631511 
L 655.142496 231.918521 
L 652.210759 227.756301 
L 626.867593 274.872328 
L 622.857315 272.715246 
" style="fill:#0000ff;fill-opacity:0.5;"/>
    <path clip-path="url(#pa6118e26b6)" d="M 626.556895 266.55615 
L 650.653823 232.578001 
L 645.622379 231.800999 
L 664.364806 217.180496 
L 656.765442 239.703536 
L 654.368177 235.21218 
L 630.27125 269.19033 
L 626.556895 266.55615 
" style="fill:#0000ff;fill-opacity:0.5;"/>
    <path clip-path="url(#pa6118e26b6)" d="M 630.100772 261.70619 
L 651.742491 240.546314 
L 646.931091 238.882104 
L 667.985883 227.848816 
L 656.481399 248.649886 
L 654.925927 243.802241 
L 633.284208 264.962118 
L 630.100772 261.70619 
" style="fill:#0000ff;fill-opacity:0.5;"/>
    <path clip-path="url(#pa6118e26b6)" d="M 634.28577 258.501984 
L 651.981891 248.260322 
L 647.730374 245.45965 
L 670.857513 239.966644 
L 654.573208 257.283083 
L 654.262836 252.201467 
L 636.566715 262.443129 
L 634.28577 258.501984 
" style="fill:#0000ff;fill-opacity:0.5;"/>
    <path clip-path="url(#pa6118e26b6)" d="M 638.303985 256.75115 
L 651.857522 254.32817 
L 648.814903 250.246304 
L 672.429628 252.963374 
L 651.218948 263.693925 
L 652.65887 258.810711 
L 639.105334 261.23369 
L 638.303985 256.75115 
" style="fill:#0000ff;fill-opacity:0.5;"/>
    <path clip-path="url(#pa6118e26b6)" d="M 642.673564 256.894615 
L 657.239204 260.869584 
L 656.241564 255.877202 
L 676.408108 268.460849 
L 652.645041 269.056086 
L 656.040363 265.262545 
L 641.474723 261.287576 
L 642.673564 256.894615 
" style="fill:#0000ff;fill-opacity:0.5;"/>
    <path clip-path="url(#pa6118e26b6)" d="M 646.821381 259.186242 
L 665.913945 272.264685 
L 666.608949 267.221261 
L 681.53258 285.723232 
L 658.888831 278.491475 
L 663.340572 276.021423 
L 644.248009 262.94298 
L 646.821381 259.186242 
" style="fill:#0000ff;fill-opacity:0.5;"/>
    <path clip-path="url(#pa6118e26b6)" d="M 650.748237 262.764685 
L 674.060959 287.660783 
L 675.82858 282.886406 
L 686.405074 304.174324 
L 665.857037 292.223765 
L 670.737111 290.773236 
L 647.42439 265.877138 
L 650.748237 262.764685 
" style="fill:#0000ff;fill-opacity:0.5;"/>
    <path clip-path="url(#pa6118e26b6)" d="M 654.614527 268.077205 
L 680.691103 306.605017 
L 683.185987 302.167145 
L 690.291123 324.850944 
L 671.872818 309.824178 
L 676.920046 309.157362 
L 650.843471 270.629549 
L 654.614527 268.077205 
" style="fill:#0000ff;fill-opacity:0.5;"/>
   </g>
   <g id="Quiver_2">
    <path clip-path="url(#pa6118e26b6)" style="fill:#ff0000;fill-opacity:0.5;"/>
    <path clip-path="url(#pa6118e26b6)" d="M 65.872648 182.399636 
L 68.241885 178.599163 
L 63.173181 178.122296 
L 81.01438 162.414676 
L 74.765831 185.34922 
L 72.106102 181.008137 
L 69.736865 184.808611 
L 65.872648 182.399636 
" style="fill:#ff0000;fill-opacity:0.5;"/>
    <path clip-path="url(#pa6118e26b6)" d="M 74.875317 167.136249 
L 90.768249 155.986341 
L 86.289157 153.566239 
L 108.850598 146.081653 
L 94.134855 164.749394 
L 93.383481 159.714059 
L 77.49055 170.863967 
L 74.875317 167.136249 
" style="fill:#ff0000;fill-opacity:0.5;"/>
    <path clip-path="url(#pa6118e26b6)" d="M 84.892441 151.528987 
L 99.709682 143.100375 
L 95.479171 140.268073 
L 118.646634 134.947704 
L 102.233634 152.142212 
L 101.961169 147.058422 
L 87.143928 155.487033 
L 84.892441 151.528987 
" style="fill:#ff0000;fill-opacity:0.5;"/>
    <path clip-path="url(#pa6118e26b6)" d="M 96.108884 135.218057 
L 102.088354 133.688747 
L 98.754241 129.8413 
L 122.504723 130.817144 
L 102.139177 143.076108 
L 103.216666 138.10035 
L 97.237196 139.629659 
L 96.108884 135.218057 
" style="fill:#ff0000;fill-opacity:0.5;"/>
    <path clip-path="url(#pa6118e26b6)" d="M 108.877965 119.314961 
L 114.102176 121.336163 
L 113.621822 116.267788 
L 132.39143 130.85338 
L 108.692624 129.008313 
L 112.459111 125.583004 
L 107.234899 123.561802 
L 108.877965 119.314961 
" style="fill:#ff0000;fill-opacity:0.5;"/>
    <path clip-path="url(#pa6118e26b6)" d="M 122.330584 104.773963 
L 128.474231 113.904964 
L 130.981275 109.47395 
L 138.024184 132.177146 
L 119.647152 117.099932 
L 124.69619 116.446958 
L 118.552543 107.315957 
L 122.330584 104.773963 
" style="fill:#ff0000;fill-opacity:0.5;"/>
    <path clip-path="url(#pa6118e26b6)" d="M 135.248622 91.4268 
L 138.529983 109.4031 
L 142.600722 106.345611 
L 139.969819 129.970091 
L 129.161961 108.798698 
L 134.050396 110.220796 
L 130.769035 92.244495 
L 135.248622 91.4268 
" style="fill:#ff0000;fill-opacity:0.5;"/>
    <path clip-path="url(#pa6118e26b6)" d="M 147.936943 79.026481 
L 149.376448 97.313944 
L 153.737345 94.686829 
L 148.714667 117.920649 
L 140.118654 95.75883 
L 144.836884 97.671278 
L 143.397379 79.383814 
L 147.936943 79.026481 
" style="fill:#ff0000;fill-opacity:0.5;"/>
    <path clip-path="url(#pa6118e26b6)" d="M 160.691215 67.462507 
L 161.519128 86.504497 
L 165.969538 84.032047 
L 160.134556 107.075282 
L 152.321613 84.625435 
L 156.96982 86.702293 
L 156.141907 67.660303 
L 160.691215 67.462507 
" style="fill:#ff0000;fill-opacity:0.5;"/>
    <path clip-path="url(#pa6118e26b6)" d="M 173.442051 57.439504 
L 174.056898 82.00321 
L 178.552106 79.613175 
L 172.293558 102.544992 
L 164.895566 79.955008 
L 169.504718 82.117154 
L 168.889871 57.553448 
L 173.442051 57.439504 
" style="fill:#ff0000;fill-opacity:0.5;"/>
    <path clip-path="url(#pa6118e26b6)" d="M 186.282683 48.961623 
L 185.677066 76.565622 
L 190.279516 74.389246 
L 182.951353 97.00198 
L 176.621985 74.089608 
L 181.124556 76.465743 
L 181.730172 48.861743 
L 186.282683 48.961623 
" style="fill:#ff0000;fill-opacity:0.5;"/>
    <path clip-path="url(#pa6118e26b6)" d="M 199.024475 42.295588 
L 196.87177 67.661099 
L 201.6016 65.77752 
L 192.870314 87.886395 
L 187.989713 64.622315 
L 192.334475 67.276031 
L 194.487179 41.91052 
L 199.024475 42.295588 
" style="fill:#ff0000;fill-opacity:0.5;"/>
    <path clip-path="url(#pa6118e26b6)" d="M 211.507007 36.668272 
L 210.602994 59.253097 
L 215.244018 57.160239 
L 207.508458 79.636867 
L 201.594131 56.613869 
L 206.053032 59.070974 
L 206.957044 36.486149 
L 211.507007 36.668272 
" style="fill:#ff0000;fill-opacity:0.5;"/>
    <path clip-path="url(#pa6118e26b6)" d="M 224.16716 32.631747 
L 224.152639 53.714562 
L 228.707813 51.440896 
L 221.861723 74.204216 
L 215.046998 51.431487 
L 219.599034 53.711426 
L 219.613555 32.628611 
L 224.16716 32.631747 
" style="fill:#ff0000;fill-opacity:0.5;"/>
    <path clip-path="url(#pa6118e26b6)" d="M 236.731353 29.985512 
L 235.639767 50.973878 
L 240.305482 48.936657 
L 232.301746 71.319193 
L 226.663102 48.22713 
L 231.092308 50.737369 
L 232.183893 29.749003 
L 236.731353 29.985512 
" style="fill:#ff0000;fill-opacity:0.5;"/>
    <path clip-path="url(#pa6118e26b6)" d="M 249.204007 28.757942 
L 247.326555 53.327976 
L 252.040395 51.404731 
L 243.495141 73.586172 
L 238.419285 50.363912 
L 242.786185 52.981037 
L 244.663636 28.411002 
L 249.204007 28.757942 
" style="fill:#ff0000;fill-opacity:0.5;"/>
    <path clip-path="url(#pa6118e26b6)" d="M 261.504491 29.009192 
L 261.204809 51.738701 
L 265.788035 49.522129 
L 258.658056 72.198131 
L 252.128404 49.342031 
L 256.651598 51.678669 
L 256.95128 28.949159 
L 261.504491 29.009192 
" style="fill:#ff0000;fill-opacity:0.5;"/>
    <path clip-path="url(#pa6118e26b6)" d="M 273.9786 30.357303 
L 275.121393 55.838503 
L 279.568418 53.359969 
L 273.764954 76.411161 
L 265.921318 53.97202 
L 270.57236 56.04252 
L 269.429567 30.561321 
L 273.9786 30.357303 
" style="fill:#ff0000;fill-opacity:0.5;"/>
    <path clip-path="url(#pa6118e26b6)" d="M 286.457076 33.919504 
L 286.377519 61.614581 
L 290.937647 59.350868 
L 284.041864 82.099183 
L 277.276885 59.311626 
L 281.823932 61.6015 
L 281.903488 33.906424 
L 286.457076 33.919504 
" style="fill:#ff0000;fill-opacity:0.5;"/>
    <path clip-path="url(#pa6118e26b6)" d="M 298.841308 38.683787 
L 299.489929 61.644961 
L 303.977428 59.240484 
L 297.792651 82.192308 
L 290.322058 59.626229 
L 294.938139 61.773543 
L 294.289518 38.812368 
L 298.841308 38.683787 
" style="fill:#ff0000;fill-opacity:0.5;"/>
    <path clip-path="url(#pa6118e26b6)" d="M 311.402951 44.891001 
L 312.943887 65.191648 
L 317.312105 62.576722 
L 312.224557 85.796424 
L 303.690472 63.610683 
L 308.403343 65.536302 
L 306.862406 45.235654 
L 311.402951 44.891001 
" style="fill:#ff0000;fill-opacity:0.5;"/>
    <path clip-path="url(#pa6118e26b6)" d="M 323.963531 52.317731 
L 326.38445 74.688926 
L 330.666669 71.935426 
L 326.325467 95.306169 
L 317.085144 73.405163 
L 321.857275 75.178838 
L 319.436356 52.807643 
L 323.963531 52.317731 
" style="fill:#ff0000;fill-opacity:0.5;"/>
    <path clip-path="url(#pa6118e26b6)" d="M 336.903205 61.587588 
L 338.555348 86.288585 
L 342.946856 83.712965 
L 337.651135 106.886075 
L 329.316493 84.624642 
L 334.011894 86.592477 
L 332.359751 61.89148 
L 336.903205 61.587588 
" style="fill:#ff0000;fill-opacity:0.5;"/>
    <path clip-path="url(#pa6118e26b6)" d="M 349.657641 72.284455 
L 349.791837 95.105543 
L 354.331976 92.802003 
L 347.635567 115.609803 
L 340.671394 92.882332 
L 345.23831 95.132319 
L 345.104114 72.311231 
L 349.657641 72.284455 
" style="fill:#ff0000;fill-opacity:0.5;"/>
    <path clip-path="url(#pa6118e26b6)" d="M 362.494653 84.210192 
L 363.755477 106.940809 
L 368.175998 104.415308 
L 362.617033 127.526682 
L 354.536147 105.171885 
L 359.20886 107.193001 
L 357.948036 84.462384 
L 362.494653 84.210192 
" style="fill:#ff0000;fill-opacity:0.5;"/>
    <path clip-path="url(#pa6118e26b6)" d="M 375.520746 97.752826 
L 375.558155 123.036919 
L 380.108387 120.753381 
L 373.311672 143.531493 
L 366.447584 120.773593 
L 371.004554 123.043657 
L 370.967145 97.759563 
L 375.520746 97.752826 
" style="fill:#ff0000;fill-opacity:0.5;"/>
    <path clip-path="url(#pa6118e26b6)" d="M 388.351701 113.061511 
L 386.050881 138.150831 
L 390.793381 136.299386 
L 381.912292 158.348511 
L 377.189646 135.051853 
L 381.516302 137.734986 
L 383.817123 112.645667 
L 388.351701 113.061511 
" style="fill:#ff0000;fill-opacity:0.5;"/>
    <path clip-path="url(#pa6118e26b6)" d="M 401.01841 129.404414 
L 400.238099 154.077677 
L 404.861399 151.945951 
L 397.314707 174.486695 
L 391.207408 151.514133 
L 395.686769 153.933738 
L 396.467079 129.260474 
L 401.01841 129.404414 
" style="fill:#ff0000;fill-opacity:0.5;"/>
    <path clip-path="url(#pa6118e26b6)" d="M 413.763553 147.233475 
L 415.682079 175.054227 
L 420.068259 172.469545 
L 414.820402 195.653541 
L 406.439808 173.409366 
L 411.139262 175.367501 
L 409.220736 147.546749 
L 413.763553 147.233475 
" style="fill:#ff0000;fill-opacity:0.5;"/>
    <path clip-path="url(#pa6118e26b6)" d="M 426.791538 167.230798 
L 426.716653 192.105835 
L 431.277092 189.842751 
L 424.378172 212.590115 
L 417.616336 189.801626 
L 422.163067 192.092127 
L 422.237953 167.21709 
L 426.791538 167.230798 
" style="fill:#ff0000;fill-opacity:0.5;"/>
    <path clip-path="url(#pa6118e26b6)" d="M 439.448736 188.412744 
L 438.811667 208.496993 
L 443.435168 206.365701 
L 435.886357 228.905735 
L 429.781217 205.9326 
L 434.26035 208.352626 
L 434.897419 188.268377 
L 439.448736 188.412744 
" style="fill:#ff0000;fill-opacity:0.5;"/>
    <path clip-path="url(#pa6118e26b6)" d="M 452.377151 210.879239 
L 451.173003 230.527094 
L 455.857358 228.533106 
L 447.646981 250.84067 
L 442.222123 227.697451 
L 446.627925 230.248542 
L 447.832073 210.600687 
L 452.377151 210.879239 
" style="fill:#ff0000;fill-opacity:0.5;"/>
    <path clip-path="url(#pa6118e26b6)" d="M 464.857197 234.564368 
L 464.446831 256.018291 
L 469.043146 253.828989 
L 461.778564 276.462228 
L 455.384826 253.567735 
L 459.894057 255.931207 
L 460.304423 234.477284 
L 464.857197 234.564368 
" style="fill:#ff0000;fill-opacity:0.5;"/>
    <path clip-path="url(#pa6118e26b6)" d="M 477.691828 259.613216 
L 479.442925 283.19393 
L 483.815416 280.586158 
L 478.689867 303.797501 
L 470.19211 281.597821 
L 474.901822 283.531151 
L 473.150726 259.950436 
L 477.691828 259.613216 
" style="fill:#ff0000;fill-opacity:0.5;"/>
    <path clip-path="url(#pa6118e26b6)" d="M 490.536909 286.510638 
L 489.605247 311.057813 
L 494.241928 308.955351 
L 486.552919 331.447946 
L 480.590939 308.437242 
L 485.054917 310.88511 
L 485.986579 286.337935 
L 490.536909 286.510638 
" style="fill:#ff0000;fill-opacity:0.5;"/>
    <path clip-path="url(#pa6118e26b6)" d="M 503.105728 314.763752 
L 502.958963 331.884763 
L 507.531918 329.647077 
L 500.506594 352.355721 
L 493.871602 329.529978 
L 498.405524 331.84573 
L 498.55229 314.724719 
L 503.105728 314.763752 
" style="fill:#ff0000;fill-opacity:0.5;"/>
    <path clip-path="url(#pa6118e26b6)" d="M 513.318772 344.794867 
L 512.870875 344.353096 
L 512.435229 345.690662 
L 509.281571 339.929258 
L 515.085857 343.003278 
L 513.754417 343.457302 
L 514.202314 343.899073 
L 513.318772 344.794867 
" style="fill:#ff0000;fill-opacity:0.5;"/>
    <path clip-path="url(#pa6118e26b6)" d="M 524.022781 373.59286 
L 506.862332 302.075894 
L 502.965651 305.35233 
L 504.295148 281.619018 
L 516.24941 302.164901 
L 511.290252 301.013418 
L 528.450701 372.530384 
L 524.022781 373.59286 
" style="fill:#ff0000;fill-opacity:0.5;"/>
    <path clip-path="url(#pa6118e26b6)" d="M 535.384507 396.484131 
L 510.376512 266.781649 
L 506.336311 269.87938 
L 508.732669 246.229958 
L 519.750071 267.293067 
L 514.847765 265.919545 
L 539.85576 395.622027 
L 535.384507 396.484131 
" style="fill:#ff0000;fill-opacity:0.5;"/>
    <path clip-path="url(#pa6118e26b6)" d="M 545.941731 414.308885 
L 522.207206 279.748123 
L 518.118313 282.781293 
L 520.889994 259.172916 
L 531.571459 280.408357 
L 526.691588 278.957145 
L 550.426113 413.517906 
L 545.941731 414.308885 
" style="fill:#ff0000;fill-opacity:0.5;"/>
    <path clip-path="url(#pa6118e26b6)" d="M 555.789874 427.006558 
L 528.721621 296.580727 
L 524.725686 299.735353 
L 526.786951 276.054372 
L 538.101481 296.959374 
L 533.180219 295.655401 
L 560.248472 426.081232 
L 555.789874 427.006558 
" style="fill:#ff0000;fill-opacity:0.5;"/>
    <path clip-path="url(#pa6118e26b6)" d="M 564.349654 434.898052 
L 537.412107 304.34614 
L 533.412539 307.496159 
L 535.50109 283.817569 
L 546.791524 304.735594 
L 541.871768 303.425951 
L 568.809315 433.977863 
L 564.349654 434.898052 
" style="fill:#ff0000;fill-opacity:0.5;"/>
    <path clip-path="url(#pa6118e26b6)" d="M 572.274028 437.470993 
L 544.832914 306.665478 
L 540.843785 309.828705 
L 542.854029 286.143338 
L 554.213568 307.023917 
L 549.289509 305.730549 
L 576.730623 436.536063 
L 572.274028 437.470993 
" style="fill:#ff0000;fill-opacity:0.5;"/>
    <path clip-path="url(#pa6118e26b6)" d="M 578.926271 435.221685 
L 550.135198 303.931767 
L 546.174985 307.131123 
L 547.969855 283.428462 
L 559.518722 304.204923 
L 554.58311 302.956367 
L 583.374183 434.246285 
L 578.926271 435.221685 
" style="fill:#ff0000;fill-opacity:0.5;"/>
    <path clip-path="url(#pa6118e26b6)" d="M 584.645413 427.729627 
L 560.579128 291.584933 
L 556.491368 294.619628 
L 559.25424 271.010218 
L 569.943627 292.241673 
L 565.063215 290.792282 
L 589.1295 426.936976 
L 584.645413 427.729627 
" style="fill:#ff0000;fill-opacity:0.5;"/>
    <path clip-path="url(#pa6118e26b6)" d="M 589.754203 414.949841 
L 564.315322 287.122483 
L 560.293686 290.244279 
L 562.548814 266.580973 
L 573.691766 287.577932 
L 568.781348 286.233701 
L 594.22023 414.061059 
L 589.754203 414.949841 
" style="fill:#ff0000;fill-opacity:0.5;"/>
    <path clip-path="url(#pa6118e26b6)" d="M 593.610188 397.224528 
L 573.088084 319.235195 
L 569.263782 322.595831 
L 570.075385 298.83917 
L 582.47487 319.119467 
L 577.49178 318.076407 
L 598.013884 396.06574 
L 593.610188 397.224528 
" style="fill:#ff0000;fill-opacity:0.5;"/>
    <path clip-path="url(#pa6118e26b6)" d="M 597.940771 377.849 
L 596.804398 376.608251 
L 595.459273 380.121747 
L 587.817783 364.305134 
L 602.903768 373.303505 
L 599.285896 374.335503 
L 600.42227 375.576252 
L 597.940771 377.849 
" style="fill:#ff0000;fill-opacity:0.5;"/>
    <path clip-path="url(#pa6118e26b6)" d="M 604.6404 358.711155 
L 603.362766 377.450369 
L 608.060698 375.488584 
L 599.697388 397.739263 
L 594.43152 374.559351 
L 598.819707 377.140625 
L 600.097341 358.40141 
L 604.6404 358.711155 
" style="fill:#ff0000;fill-opacity:0.5;"/>
    <path clip-path="url(#pa6118e26b6)" d="M 607.924057 341.892382 
L 607.789357 366.811852 
L 612.355204 364.559696 
L 605.401826 387.290473 
L 598.694585 364.485855 
L 603.235818 366.787239 
L 603.370518 341.867769 
L 607.924057 341.892382 
" style="fill:#ff0000;fill-opacity:0.5;"/>
    <path clip-path="url(#pa6118e26b6)" d="M 611.111393 326.797379 
L 610.966841 349.188498 
L 615.53505 346.941139 
L 608.557801 369.6646 
L 601.874517 346.85295 
L 606.41333 349.159102 
L 606.557882 326.767983 
L 611.111393 326.797379 
" style="fill:#ff0000;fill-opacity:0.5;"/>
    <path clip-path="url(#pa6118e26b6)" d="M 614.388926 312.934521 
L 613.665833 338.203796 
L 618.282701 336.058175 
L 610.803835 358.621513 
L 604.627473 335.667423 
L 609.11409 338.073545 
L 609.837183 312.804271 
L 614.388926 312.934521 
" style="fill:#ff0000;fill-opacity:0.5;"/>
    <path clip-path="url(#pa6118e26b6)" d="M 617.486121 300.840378 
L 617.377743 327.013863 
L 621.940737 324.755935 
L 615.016111 347.495487 
L 608.280037 324.699369 
L 612.824176 326.995008 
L 612.932554 300.821523 
L 617.486121 300.840378 
" style="fill:#ff0000;fill-opacity:0.5;"/>
    <path clip-path="url(#pa6118e26b6)" d="M 620.66828 289.921354 
L 622.467241 316.468006 
L 626.85649 313.888539 
L 621.581079 337.066281 
L 613.226931 314.81216 
L 617.924054 316.775879 
L 616.125094 290.229227 
L 620.66828 289.921354 
" style="fill:#ff0000;fill-opacity:0.5;"/>
    <path clip-path="url(#pa6118e26b6)" d="M 624.133713 281.134488 
L 623.630037 310.767856 
L 628.221679 308.568768 
L 621.005326 331.217431 
L 614.562833 308.33661 
L 619.077089 310.69047 
L 619.580764 281.057102 
L 624.133713 281.134488 
" style="fill:#ff0000;fill-opacity:0.5;"/>
    <path clip-path="url(#pa6118e26b6)" d="M 627.138301 273.727807 
L 627.877918 299.239601 
L 632.363632 296.831795 
L 626.195887 319.788202 
L 618.708551 297.227672 
L 623.326224 299.37156 
L 622.586607 273.859766 
L 627.138301 273.727807 
" style="fill:#ff0000;fill-opacity:0.5;"/>
    <path clip-path="url(#pa6118e26b6)" d="M 630.682482 267.677917 
L 632.610029 290.0637 
L 636.951524 287.404644 
L 632.099529 310.674707 
L 623.341068 288.576584 
L 628.07321 290.454346 
L 626.145663 268.068563 
L 630.682482 267.677917 
" style="fill:#ff0000;fill-opacity:0.5;"/>
    <path clip-path="url(#pa6118e26b6)" d="M 633.965471 263.202295 
L 635.403788 287.995936 
L 639.817892 285.459237 
L 634.317538 308.584629 
L 626.180002 286.250391 
L 630.857825 288.259655 
L 629.419508 263.466013 
L 633.965471 263.202295 
" style="fill:#ff0000;fill-opacity:0.5;"/>
    <path clip-path="url(#pa6118e26b6)" d="M 637.702898 260.498513 
L 637.417899 285.496189 
L 641.997166 283.271446 
L 634.90764 305.960129 
L 628.337235 283.11571 
L 632.864589 285.444277 
L 633.149587 260.4466 
L 637.702898 260.498513 
" style="fill:#ff0000;fill-opacity:0.5;"/>
    <path clip-path="url(#pa6118e26b6)" d="M 640.975169 259.161587 
L 639.093974 284.410389 
L 643.804161 282.478214 
L 635.300958 304.675809 
L 630.181102 281.46321 
L 634.552955 284.072055 
L 636.43415 258.823252 
L 640.975169 259.161587 
" style="fill:#ff0000;fill-opacity:0.5;"/>
    <path clip-path="url(#pa6118e26b6)" d="M 644.349764 259.01771 
L 645.295835 288.354669 
L 649.77369 285.932279 
L 643.680681 308.908635 
L 636.119969 286.37259 
L 640.744595 288.501439 
L 639.798524 259.164481 
L 644.349764 259.01771 
" style="fill:#ff0000;fill-opacity:0.5;"/>
    <path clip-path="url(#pa6118e26b6)" d="M 647.807155 260.924054 
L 649.494233 288.199885 
L 653.898596 285.64631 
L 648.486789 308.792584 
L 640.263835 286.489654 
L 644.949313 288.480999 
L 643.262235 261.205168 
L 647.807155 260.924054 
" style="fill:#ff0000;fill-opacity:0.5;"/>
    <path clip-path="url(#pa6118e26b6)" d="M 651.360614 264.214192 
L 652.554195 289.650437 
L 656.996076 287.162697 
L 651.240376 310.225862 
L 643.350273 287.803018 
L 648.005594 289.863878 
L 646.812013 264.427632 
L 651.360614 264.214192 
" style="fill:#ff0000;fill-opacity:0.5;"/>
    <path clip-path="url(#pa6118e26b6)" d="M 655.005586 269.384722 
L 654.646337 295.476663 
L 659.230857 293.262766 
L 652.087641 315.934602 
L 645.571334 293.074694 
L 650.093163 295.413972 
L 650.452412 269.322031 
L 655.005586 269.384722 
" style="fill:#ff0000;fill-opacity:0.5;"/>
   </g>
   <g id="matplotlib.axis_1">
    <g id="xtick_1">
     <g id="line2d_1">
      <defs>
       <path d="M 0 0 
L 0 3.5 
" id="m8e7757c250" style="stroke:#000000;stroke-width:0.8;"/>
      </defs>
      <g>
       <use style="stroke:#000000;stroke-width:0.8;" x="31.833236" xlink:href="#m8e7757c250" y="458.388"/>
      </g>
     </g>
     <g id="text_1">
      <!-- 0 -->
      <defs>
       <path d="M 31.78125 66.40625 
Q 24.171875 66.40625 20.328125 58.90625 
Q 16.5 51.421875 16.5 36.375 
Q 16.5 21.390625 20.328125 13.890625 
Q 24.171875 6.390625 31.78125 6.390625 
Q 39.453125 6.390625 43.28125 13.890625 
Q 47.125 21.390625 47.125 36.375 
Q 47.125 51.421875 43.28125 58.90625 
Q 39.453125 66.40625 31.78125 66.40625 
z
M 31.78125 74.21875 
Q 44.046875 74.21875 50.515625 64.515625 
Q 56.984375 54.828125 56.984375 36.375 
Q 56.984375 17.96875 50.515625 8.265625 
Q 44.046875 -1.421875 31.78125 -1.421875 
Q 19.53125 -1.421875 13.0625 8.265625 
Q 6.59375 17.96875 6.59375 36.375 
Q 6.59375 54.828125 13.0625 64.515625 
Q 19.53125 74.21875 31.78125 74.21875 
z
" id="DejaVuSans-48"/>
      </defs>
      <g transform="translate(28.651986 472.986437)scale(0.1 -0.1)">
       <use xlink:href="#DejaVuSans-48"/>
      </g>
     </g>
    </g>
    <g id="xtick_2">
     <g id="line2d_2">
      <g>
       <use style="stroke:#000000;stroke-width:0.8;" x="153.411278" xlink:href="#m8e7757c250" y="458.388"/>
      </g>
     </g>
     <g id="text_2">
      <!-- 1 -->
      <defs>
       <path d="M 12.40625 8.296875 
L 28.515625 8.296875 
L 28.515625 63.921875 
L 10.984375 60.40625 
L 10.984375 69.390625 
L 28.421875 72.90625 
L 38.28125 72.90625 
L 38.28125 8.296875 
L 54.390625 8.296875 
L 54.390625 0 
L 12.40625 0 
z
" id="DejaVuSans-49"/>
      </defs>
      <g transform="translate(150.230028 472.986437)scale(0.1 -0.1)">
       <use xlink:href="#DejaVuSans-49"/>
      </g>
     </g>
    </g>
    <g id="xtick_3">
     <g id="line2d_3">
      <g>
       <use style="stroke:#000000;stroke-width:0.8;" x="274.98932" xlink:href="#m8e7757c250" y="458.388"/>
      </g>
     </g>
     <g id="text_3">
      <!-- 2 -->
      <defs>
       <path d="M 19.1875 8.296875 
L 53.609375 8.296875 
L 53.609375 0 
L 7.328125 0 
L 7.328125 8.296875 
Q 12.9375 14.109375 22.625 23.890625 
Q 32.328125 33.6875 34.8125 36.53125 
Q 39.546875 41.84375 41.421875 45.53125 
Q 43.3125 49.21875 43.3125 52.78125 
Q 43.3125 58.59375 39.234375 62.25 
Q 35.15625 65.921875 28.609375 65.921875 
Q 23.96875 65.921875 18.8125 64.3125 
Q 13.671875 62.703125 7.8125 59.421875 
L 7.8125 69.390625 
Q 13.765625 71.78125 18.9375 73 
Q 24.125 74.21875 28.421875 74.21875 
Q 39.75 74.21875 46.484375 68.546875 
Q 53.21875 62.890625 53.21875 53.421875 
Q 53.21875 48.921875 51.53125 44.890625 
Q 49.859375 40.875 45.40625 35.40625 
Q 44.1875 33.984375 37.640625 27.21875 
Q 31.109375 20.453125 19.1875 8.296875 
z
" id="DejaVuSans-50"/>
      </defs>
      <g transform="translate(271.80807 472.986437)scale(0.1 -0.1)">
       <use xlink:href="#DejaVuSans-50"/>
      </g>
     </g>
    </g>
    <g id="xtick_4">
     <g id="line2d_4">
      <g>
       <use style="stroke:#000000;stroke-width:0.8;" x="396.567362" xlink:href="#m8e7757c250" y="458.388"/>
      </g>
     </g>
     <g id="text_4">
      <!-- 3 -->
      <defs>
       <path d="M 40.578125 39.3125 
Q 47.65625 37.796875 51.625 33 
Q 55.609375 28.21875 55.609375 21.1875 
Q 55.609375 10.40625 48.1875 4.484375 
Q 40.765625 -1.421875 27.09375 -1.421875 
Q 22.515625 -1.421875 17.65625 -0.515625 
Q 12.796875 0.390625 7.625 2.203125 
L 7.625 11.71875 
Q 11.71875 9.328125 16.59375 8.109375 
Q 21.484375 6.890625 26.8125 6.890625 
Q 36.078125 6.890625 40.9375 10.546875 
Q 45.796875 14.203125 45.796875 21.1875 
Q 45.796875 27.640625 41.28125 31.265625 
Q 36.765625 34.90625 28.71875 34.90625 
L 20.21875 34.90625 
L 20.21875 43.015625 
L 29.109375 43.015625 
Q 36.375 43.015625 40.234375 45.921875 
Q 44.09375 48.828125 44.09375 54.296875 
Q 44.09375 59.90625 40.109375 62.90625 
Q 36.140625 65.921875 28.71875 65.921875 
Q 24.65625 65.921875 20.015625 65.03125 
Q 15.375 64.15625 9.8125 62.3125 
L 9.8125 71.09375 
Q 15.4375 72.65625 20.34375 73.4375 
Q 25.25 74.21875 29.59375 74.21875 
Q 40.828125 74.21875 47.359375 69.109375 
Q 53.90625 64.015625 53.90625 55.328125 
Q 53.90625 49.265625 50.4375 45.09375 
Q 46.96875 40.921875 40.578125 39.3125 
z
" id="DejaVuSans-51"/>
      </defs>
      <g transform="translate(393.386112 472.986437)scale(0.1 -0.1)">
       <use xlink:href="#DejaVuSans-51"/>
      </g>
     </g>
    </g>
    <g id="xtick_5">
     <g id="line2d_5">
      <g>
       <use style="stroke:#000000;stroke-width:0.8;" x="518.145404" xlink:href="#m8e7757c250" y="458.388"/>
      </g>
     </g>
     <g id="text_5">
      <!-- 4 -->
      <defs>
       <path d="M 37.796875 64.3125 
L 12.890625 25.390625 
L 37.796875 25.390625 
z
M 35.203125 72.90625 
L 47.609375 72.90625 
L 47.609375 25.390625 
L 58.015625 25.390625 
L 58.015625 17.1875 
L 47.609375 17.1875 
L 47.609375 0 
L 37.796875 0 
L 37.796875 17.1875 
L 4.890625 17.1875 
L 4.890625 26.703125 
z
" id="DejaVuSans-52"/>
      </defs>
      <g transform="translate(514.964154 472.986437)scale(0.1 -0.1)">
       <use xlink:href="#DejaVuSans-52"/>
      </g>
     </g>
    </g>
    <g id="xtick_6">
     <g id="line2d_6">
      <g>
       <use style="stroke:#000000;stroke-width:0.8;" x="639.723446" xlink:href="#m8e7757c250" y="458.388"/>
      </g>
     </g>
     <g id="text_6">
      <!-- 5 -->
      <defs>
       <path d="M 10.796875 72.90625 
L 49.515625 72.90625 
L 49.515625 64.59375 
L 19.828125 64.59375 
L 19.828125 46.734375 
Q 21.96875 47.46875 24.109375 47.828125 
Q 26.265625 48.1875 28.421875 48.1875 
Q 40.625 48.1875 47.75 41.5 
Q 54.890625 34.8125 54.890625 23.390625 
Q 54.890625 11.625 47.5625 5.09375 
Q 40.234375 -1.421875 26.90625 -1.421875 
Q 22.3125 -1.421875 17.546875 -0.640625 
Q 12.796875 0.140625 7.71875 1.703125 
L 7.71875 11.625 
Q 12.109375 9.234375 16.796875 8.0625 
Q 21.484375 6.890625 26.703125 6.890625 
Q 35.15625 6.890625 40.078125 11.328125 
Q 45.015625 15.765625 45.015625 23.390625 
Q 45.015625 31 40.078125 35.4375 
Q 35.15625 39.890625 26.703125 39.890625 
Q 22.75 39.890625 18.8125 39.015625 
Q 14.890625 38.140625 10.796875 36.28125 
z
" id="DejaVuSans-53"/>
      </defs>
      <g transform="translate(636.542196 472.986437)scale(0.1 -0.1)">
       <use xlink:href="#DejaVuSans-53"/>
      </g>
     </g>
    </g>
   </g>
   <g id="matplotlib.axis_2">
    <g id="ytick_1">
     <g id="line2d_7">
      <defs>
       <path d="M 0 0 
L -3.5 0 
" id="ma2476dd7cf" style="stroke:#000000;stroke-width:0.8;"/>
      </defs>
      <g>
       <use style="stroke:#000000;stroke-width:0.8;" x="30.103125" xlink:href="#ma2476dd7cf" y="448.300058"/>
      </g>
     </g>
     <g id="text_7">
      <!-- 0.5 -->
      <defs>
       <path d="M 10.6875 12.40625 
L 21 12.40625 
L 21 0 
L 10.6875 0 
z
" id="DejaVuSans-46"/>
      </defs>
      <g transform="translate(7.2 452.099276)scale(0.1 -0.1)">
       <use xlink:href="#DejaVuSans-48"/>
       <use x="63.623047" xlink:href="#DejaVuSans-46"/>
       <use x="95.410156" xlink:href="#DejaVuSans-53"/>
      </g>
     </g>
    </g>
    <g id="ytick_2">
     <g id="line2d_8">
      <g>
       <use style="stroke:#000000;stroke-width:0.8;" x="30.103125" xlink:href="#ma2476dd7cf" y="382.432127"/>
      </g>
     </g>
     <g id="text_8">
      <!-- 1.0 -->
      <g transform="translate(7.2 386.231345)scale(0.1 -0.1)">
       <use xlink:href="#DejaVuSans-49"/>
       <use x="63.623047" xlink:href="#DejaVuSans-46"/>
       <use x="95.410156" xlink:href="#DejaVuSans-48"/>
      </g>
     </g>
    </g>
    <g id="ytick_3">
     <g id="line2d_9">
      <g>
       <use style="stroke:#000000;stroke-width:0.8;" x="30.103125" xlink:href="#ma2476dd7cf" y="316.564196"/>
      </g>
     </g>
     <g id="text_9">
      <!-- 1.5 -->
      <g transform="translate(7.2 320.363415)scale(0.1 -0.1)">
       <use xlink:href="#DejaVuSans-49"/>
       <use x="63.623047" xlink:href="#DejaVuSans-46"/>
       <use x="95.410156" xlink:href="#DejaVuSans-53"/>
      </g>
     </g>
    </g>
    <g id="ytick_4">
     <g id="line2d_10">
      <g>
       <use style="stroke:#000000;stroke-width:0.8;" x="30.103125" xlink:href="#ma2476dd7cf" y="250.696265"/>
      </g>
     </g>
     <g id="text_10">
      <!-- 2.0 -->
      <g transform="translate(7.2 254.495484)scale(0.1 -0.1)">
       <use xlink:href="#DejaVuSans-50"/>
       <use x="63.623047" xlink:href="#DejaVuSans-46"/>
       <use x="95.410156" xlink:href="#DejaVuSans-48"/>
      </g>
     </g>
    </g>
    <g id="ytick_5">
     <g id="line2d_11">
      <g>
       <use style="stroke:#000000;stroke-width:0.8;" x="30.103125" xlink:href="#ma2476dd7cf" y="184.828334"/>
      </g>
     </g>
     <g id="text_11">
      <!-- 2.5 -->
      <g transform="translate(7.2 188.627553)scale(0.1 -0.1)">
       <use xlink:href="#DejaVuSans-50"/>
       <use x="63.623047" xlink:href="#DejaVuSans-46"/>
       <use x="95.410156" xlink:href="#DejaVuSans-53"/>
      </g>
     </g>
    </g>
    <g id="ytick_6">
     <g id="line2d_12">
      <g>
       <use style="stroke:#000000;stroke-width:0.8;" x="30.103125" xlink:href="#ma2476dd7cf" y="118.960404"/>
      </g>
     </g>
     <g id="text_12">
      <!-- 3.0 -->
      <g transform="translate(7.2 122.759622)scale(0.1 -0.1)">
       <use xlink:href="#DejaVuSans-51"/>
       <use x="63.623047" xlink:href="#DejaVuSans-46"/>
       <use x="95.410156" xlink:href="#DejaVuSans-48"/>
      </g>
     </g>
    </g>
    <g id="ytick_7">
     <g id="line2d_13">
      <g>
       <use style="stroke:#000000;stroke-width:0.8;" x="30.103125" xlink:href="#ma2476dd7cf" y="53.092473"/>
      </g>
     </g>
     <g id="text_13">
      <!-- 3.5 -->
      <g transform="translate(7.2 56.891692)scale(0.1 -0.1)">
       <use xlink:href="#DejaVuSans-51"/>
       <use x="63.623047" xlink:href="#DejaVuSans-46"/>
       <use x="95.410156" xlink:href="#DejaVuSans-53"/>
      </g>
     </g>
    </g>
   </g>
   <g id="patch_3">
    <path d="M 30.103125 458.388 
L 30.103125 7.2 
" style="fill:none;stroke:#000000;stroke-linecap:square;stroke-linejoin:miter;stroke-width:0.8;"/>
   </g>
   <g id="patch_4">
    <path d="M 682.963125 458.388 
L 682.963125 7.2 
" style="fill:none;stroke:#000000;stroke-linecap:square;stroke-linejoin:miter;stroke-width:0.8;"/>
   </g>
   <g id="patch_5">
    <path d="M 30.103125 458.388 
L 682.963125 458.388 
" style="fill:none;stroke:#000000;stroke-linecap:square;stroke-linejoin:miter;stroke-width:0.8;"/>
   </g>
   <g id="patch_6">
    <path d="M 30.103125 7.2 
L 682.963125 7.2 
" style="fill:none;stroke:#000000;stroke-linecap:square;stroke-linejoin:miter;stroke-width:0.8;"/>
   </g>
   <g id="legend_1">
    <g id="patch_7">
     <path d="M 631.163125 45.478125 
L 675.963125 45.478125 
Q 677.963125 45.478125 677.963125 43.478125 
L 677.963125 14.2 
Q 677.963125 12.2 675.963125 12.2 
L 631.163125 12.2 
Q 629.163125 12.2 629.163125 14.2 
L 629.163125 43.478125 
Q 629.163125 45.478125 631.163125 45.478125 
z
" style="fill:#ffffff;opacity:0.8;stroke:#cccccc;stroke-linejoin:miter;"/>
    </g>
    <g id="patch_8">
     <path d="M 633.163125 23.798437 
L 653.163125 23.798437 
L 653.163125 16.798437 
L 633.163125 16.798437 
z
" style="fill:#0000ff;opacity:0.5;"/>
    </g>
    <g id="text_14">
     <!-- $\vec{v}$ -->
     <defs>
      <path d="M -47.015625 63.53125 
L -47.015625 68.40625 
L -10.84375 68.40625 
L -17.28125 75.984375 
L -11.140625 75.984375 
L -2.59375 65.96875 
L -11.140625 55.953125 
L -17.28125 55.953125 
L -10.84375 63.53125 
z
" id="DejaVuSans-8407"/>
      <path d="M 7.171875 54.6875 
L 16.703125 54.6875 
L 24.703125 8.203125 
L 50.875 54.6875 
L 60.40625 54.6875 
L 29.296875 0 
L 17.1875 0 
z
" id="DejaVuSans-Oblique-118"/>
     </defs>
     <g transform="translate(661.163125 23.798437)scale(0.1 -0.1)">
      <use transform="translate(61.810547 12.015625)" xlink:href="#DejaVuSans-8407"/>
      <use transform="translate(0 0.78125)" xlink:href="#DejaVuSans-Oblique-118"/>
     </g>
    </g>
    <g id="patch_9">
     <path d="M 633.163125 39.398437 
L 653.163125 39.398437 
L 653.163125 32.398437 
L 633.163125 32.398437 
z
" style="fill:#ff0000;opacity:0.5;"/>
    </g>
    <g id="text_15">
     <!-- $\vec{\Delta v}$ -->
     <defs>
      <path d="M 34.1875 63.1875 
L 14.15625 8.203125 
L 54.25 8.203125 
z
M 0.78125 0 
L 28.609375 72.90625 
L 39.796875 72.90625 
L 67.578125 0 
z
" id="DejaVuSans-916"/>
     </defs>
     <g transform="translate(661.163125 39.398437)scale(0.1 -0.1)">
      <use transform="translate(104.912598 30.015625)" xlink:href="#DejaVuSans-8407"/>
      <use transform="translate(0 0.5625)" xlink:href="#DejaVuSans-916"/>
      <use transform="translate(68.408203 0.5625)" xlink:href="#DejaVuSans-Oblique-118"/>
     </g>
    </g>
   </g>
  </g>
 </g>
 <defs>
  <clipPath id="pa6118e26b6">
   <rect height="451.188" width="652.86" x="30.103125" y="7.2"/>
  </clipPath>
 </defs>
</svg>
