<?xml version="1.0" encoding="utf-8" standalone="no"?>
<!DOCTYPE svg PUBLIC "-//W3C//DTD SVG 1.1//EN"
  "http://www.w3.org/Graphics/SVG/1.1/DTD/svg11.dtd">
<!-- Created with matplotlib (https://matplotlib.org/) -->
<svg height="482.266125pt" version="1.1" viewBox="0 0 690.163125 482.266125" width="690.163125pt" xmlns="http://www.w3.org/2000/svg" xmlns:xlink="http://www.w3.org/1999/xlink">
 <defs>
  <style type="text/css">
*{stroke-linecap:butt;stroke-linejoin:round;}
  </style>
 </defs>
 <g id="figure_1">
  <g id="patch_1">
   <path d="M 0 482.266125 
L 690.163125 482.266125 
L 690.163125 0 
L 0 0 
z
" style="fill:none;"/>
  </g>
  <g id="axes_1">
   <g id="patch_2">
    <path d="M 30.103125 458.388 
L 682.963125 458.388 
L 682.963125 7.2 
L 30.103125 7.2 
z
" style="fill:#ffffff;"/>
   </g>
   <g id="PathCollection_1">
    <defs>
     <path d="M 0 3 
C 0.795609 3 1.55874 2.683901 2.12132 2.12132 
C 2.683901 1.55874 3 0.795609 3 0 
C 3 -0.795609 2.683901 -1.55874 2.12132 -2.12132 
C 1.55874 -2.683901 0.795609 -3 0 -3 
C -0.795609 -3 -1.55874 -2.683901 -2.12132 -2.12132 
C -2.683901 -1.55874 -3 -0.795609 -3 0 
C -3 0.795609 -2.683901 1.55874 -2.12132 2.12132 
C -1.55874 2.683901 -0.795609 3 0 3 
z
" id="m90f69d3759" style="stroke:#008000;stroke-opacity:0.5;"/>
    </defs>
    <g clip-path="url(#pcbd5929e9d)">
     <use style="fill:#008000;fill-opacity:0.5;stroke:#008000;stroke-opacity:0.5;" x="60.303806" xlink:href="#m90f69d3759" y="216.044652"/>
     <use style="fill:#008000;fill-opacity:0.5;stroke:#008000;stroke-opacity:0.5;" x="64.584576" xlink:href="#m90f69d3759" y="212.694782"/>
     <use style="fill:#008000;fill-opacity:0.5;stroke:#008000;stroke-opacity:0.5;" x="63.728422" xlink:href="#m90f69d3759" y="209.344912"/>
     <use style="fill:#008000;fill-opacity:0.5;stroke:#008000;stroke-opacity:0.5;" x="66.296885" xlink:href="#m90f69d3759" y="203.48264"/>
     <use style="fill:#008000;fill-opacity:0.5;stroke:#008000;stroke-opacity:0.5;" x="70.577655" xlink:href="#m90f69d3759" y="195.945434"/>
     <use style="fill:#008000;fill-opacity:0.5;stroke:#008000;stroke-opacity:0.5;" x="74.858426" xlink:href="#m90f69d3759" y="183.383422"/>
     <use style="fill:#008000;fill-opacity:0.5;stroke:#008000;stroke-opacity:0.5;" x="85.988429" xlink:href="#m90f69d3759" y="164.959139"/>
     <use style="fill:#008000;fill-opacity:0.5;stroke:#008000;stroke-opacity:0.5;" x="97.118432" xlink:href="#m90f69d3759" y="148.209791"/>
     <use style="fill:#008000;fill-opacity:0.5;stroke:#008000;stroke-opacity:0.5;" x="108.248436" xlink:href="#m90f69d3759" y="131.460442"/>
     <use style="fill:#008000;fill-opacity:0.5;stroke:#008000;stroke-opacity:0.5;" x="119.378439" xlink:href="#m90f69d3759" y="115.548561"/>
     <use style="fill:#008000;fill-opacity:0.5;stroke:#008000;stroke-opacity:0.5;" x="130.508442" xlink:href="#m90f69d3759" y="101.311615"/>
     <use style="fill:#008000;fill-opacity:0.5;stroke:#008000;stroke-opacity:0.5;" x="143.350754" xlink:href="#m90f69d3759" y="88.749604"/>
     <use style="fill:#008000;fill-opacity:0.5;stroke:#008000;stroke-opacity:0.5;" x="156.193065" xlink:href="#m90f69d3759" y="77.862527"/>
     <use style="fill:#008000;fill-opacity:0.5;stroke:#008000;stroke-opacity:0.5;" x="166.466915" xlink:href="#m90f69d3759" y="66.975451"/>
     <use style="fill:#008000;fill-opacity:0.5;stroke:#008000;stroke-opacity:0.5;" x="177.596918" xlink:href="#m90f69d3759" y="60.275712"/>
     <use style="fill:#008000;fill-opacity:0.5;stroke:#008000;stroke-opacity:0.5;" x="191.295383" xlink:href="#m90f69d3759" y="52.738505"/>
     <use style="fill:#008000;fill-opacity:0.5;stroke:#008000;stroke-opacity:0.5;" x="204.137695" xlink:href="#m90f69d3759" y="44.363831"/>
     <use style="fill:#008000;fill-opacity:0.5;stroke:#008000;stroke-opacity:0.5;" x="216.123852" xlink:href="#m90f69d3759" y="41.013961"/>
     <use style="fill:#008000;fill-opacity:0.5;stroke:#008000;stroke-opacity:0.5;" x="228.11001" xlink:href="#m90f69d3759" y="32.639287"/>
     <use style="fill:#008000;fill-opacity:0.5;stroke:#008000;stroke-opacity:0.5;" x="239.240013" xlink:href="#m90f69d3759" y="30.126885"/>
     <use style="fill:#008000;fill-opacity:0.5;stroke:#008000;stroke-opacity:0.5;" x="251.226171" xlink:href="#m90f69d3759" y="28.45195"/>
     <use style="fill:#008000;fill-opacity:0.5;stroke:#008000;stroke-opacity:0.5;" x="263.212328" xlink:href="#m90f69d3759" y="30.964352"/>
     <use style="fill:#008000;fill-opacity:0.5;stroke:#008000;stroke-opacity:0.5;" x="273.486177" xlink:href="#m90f69d3759" y="30.964352"/>
     <use style="fill:#008000;fill-opacity:0.5;stroke:#008000;stroke-opacity:0.5;" x="285.472335" xlink:href="#m90f69d3759" y="33.476754"/>
     <use style="fill:#008000;fill-opacity:0.5;stroke:#008000;stroke-opacity:0.5;" x="295.746184" xlink:href="#m90f69d3759" y="36.826624"/>
     <use style="fill:#008000;fill-opacity:0.5;stroke:#008000;stroke-opacity:0.5;" x="308.588495" xlink:href="#m90f69d3759" y="41.851428"/>
     <use style="fill:#008000;fill-opacity:0.5;stroke:#008000;stroke-opacity:0.5;" x="319.718499" xlink:href="#m90f69d3759" y="47.7137"/>
     <use style="fill:#008000;fill-opacity:0.5;stroke:#008000;stroke-opacity:0.5;" x="333.416964" xlink:href="#m90f69d3759" y="53.575972"/>
     <use style="fill:#008000;fill-opacity:0.5;stroke:#008000;stroke-opacity:0.5;" x="345.403122" xlink:href="#m90f69d3759" y="61.950647"/>
     <use style="fill:#008000;fill-opacity:0.5;stroke:#008000;stroke-opacity:0.5;" x="355.676971" xlink:href="#m90f69d3759" y="71.162788"/>
     <use style="fill:#008000;fill-opacity:0.5;stroke:#008000;stroke-opacity:0.5;" x="369.375437" xlink:href="#m90f69d3759" y="82.049865"/>
     <use style="fill:#008000;fill-opacity:0.5;stroke:#008000;stroke-opacity:0.5;" x="381.361594" xlink:href="#m90f69d3759" y="94.611876"/>
     <use style="fill:#008000;fill-opacity:0.5;stroke:#008000;stroke-opacity:0.5;" x="395.06006" xlink:href="#m90f69d3759" y="108.848822"/>
     <use style="fill:#008000;fill-opacity:0.5;stroke:#008000;stroke-opacity:0.5;" x="405.333909" xlink:href="#m90f69d3759" y="123.085768"/>
     <use style="fill:#008000;fill-opacity:0.5;stroke:#008000;stroke-opacity:0.5;" x="416.463912" xlink:href="#m90f69d3759" y="138.997649"/>
     <use style="fill:#008000;fill-opacity:0.5;stroke:#008000;stroke-opacity:0.5;" x="431.018532" xlink:href="#m90f69d3759" y="155.746997"/>
     <use style="fill:#008000;fill-opacity:0.5;stroke:#008000;stroke-opacity:0.5;" x="440.436227" xlink:href="#m90f69d3759" y="175.846216"/>
     <use style="fill:#008000;fill-opacity:0.5;stroke:#008000;stroke-opacity:0.5;" x="452.422384" xlink:href="#m90f69d3759" y="193.433031"/>
     <use style="fill:#008000;fill-opacity:0.5;stroke:#008000;stroke-opacity:0.5;" x="465.264696" xlink:href="#m90f69d3759" y="215.207184"/>
     <use style="fill:#008000;fill-opacity:0.5;stroke:#008000;stroke-opacity:0.5;" x="478.107007" xlink:href="#m90f69d3759" y="239.493739"/>
     <use style="fill:#008000;fill-opacity:0.5;stroke:#008000;stroke-opacity:0.5;" x="488.380857" xlink:href="#m90f69d3759" y="261.267892"/>
     <use style="fill:#008000;fill-opacity:0.5;stroke:#008000;stroke-opacity:0.5;" x="502.935476" xlink:href="#m90f69d3759" y="284.71698"/>
     <use style="fill:#008000;fill-opacity:0.5;stroke:#008000;stroke-opacity:0.5;" x="512.353171" xlink:href="#m90f69d3759" y="310.67847"/>
     <use style="fill:#008000;fill-opacity:0.5;stroke:#008000;stroke-opacity:0.5;" x="526.051637" xlink:href="#m90f69d3759" y="337.477427"/>
     <use style="fill:#008000;fill-opacity:0.5;stroke:#008000;stroke-opacity:0.5;" x="537.18164" xlink:href="#m90f69d3759" y="365.113852"/>
     <use style="fill:#008000;fill-opacity:0.5;stroke:#008000;stroke-opacity:0.5;" x="549.167798" xlink:href="#m90f69d3759" y="396.100147"/>
     <use style="fill:#008000;fill-opacity:0.5;stroke:#008000;stroke-opacity:0.5;" x="562.010109" xlink:href="#m90f69d3759" y="427.086441"/>
     <use style="fill:#008000;fill-opacity:0.5;stroke:#008000;stroke-opacity:0.5;" x="569.715496" xlink:href="#m90f69d3759" y="437.13605"/>
     <use style="fill:#008000;fill-opacity:0.5;stroke:#008000;stroke-opacity:0.5;" x="572.283959" xlink:href="#m90f69d3759" y="410.337093"/>
     <use style="fill:#008000;fill-opacity:0.5;stroke:#008000;stroke-opacity:0.5;" x="577.420883" xlink:href="#m90f69d3759" y="391.075342"/>
     <use style="fill:#008000;fill-opacity:0.5;stroke:#008000;stroke-opacity:0.5;" x="580.8455" xlink:href="#m90f69d3759" y="368.463722"/>
     <use style="fill:#008000;fill-opacity:0.5;stroke:#008000;stroke-opacity:0.5;" x="583.413962" xlink:href="#m90f69d3759" y="351.714373"/>
     <use style="fill:#008000;fill-opacity:0.5;stroke:#008000;stroke-opacity:0.5;" x="586.838578" xlink:href="#m90f69d3759" y="332.452623"/>
     <use style="fill:#008000;fill-opacity:0.5;stroke:#008000;stroke-opacity:0.5;" x="588.550886" xlink:href="#m90f69d3759" y="318.215677"/>
     <use style="fill:#008000;fill-opacity:0.5;stroke:#008000;stroke-opacity:0.5;" x="591.119349" xlink:href="#m90f69d3759" y="302.303796"/>
     <use style="fill:#008000;fill-opacity:0.5;stroke:#008000;stroke-opacity:0.5;" x="597.112427" xlink:href="#m90f69d3759" y="287.229382"/>
     <use style="fill:#008000;fill-opacity:0.5;stroke:#008000;stroke-opacity:0.5;" x="597.968582" xlink:href="#m90f69d3759" y="275.504838"/>
     <use style="fill:#008000;fill-opacity:0.5;stroke:#008000;stroke-opacity:0.5;" x="601.393198" xlink:href="#m90f69d3759" y="267.967632"/>
     <use style="fill:#008000;fill-opacity:0.5;stroke:#008000;stroke-opacity:0.5;" x="602.249352" xlink:href="#m90f69d3759" y="256.243088"/>
     <use style="fill:#008000;fill-opacity:0.5;stroke:#008000;stroke-opacity:0.5;" x="608.242431" xlink:href="#m90f69d3759" y="249.543348"/>
     <use style="fill:#008000;fill-opacity:0.5;stroke:#008000;stroke-opacity:0.5;" x="610.810893" xlink:href="#m90f69d3759" y="240.331207"/>
     <use style="fill:#008000;fill-opacity:0.5;stroke:#008000;stroke-opacity:0.5;" x="614.235509" xlink:href="#m90f69d3759" y="233.631467"/>
     <use style="fill:#008000;fill-opacity:0.5;stroke:#008000;stroke-opacity:0.5;" x="615.947818" xlink:href="#m90f69d3759" y="230.281598"/>
     <use style="fill:#008000;fill-opacity:0.5;stroke:#008000;stroke-opacity:0.5;" x="618.51628" xlink:href="#m90f69d3759" y="226.931728"/>
     <use style="fill:#008000;fill-opacity:0.5;stroke:#008000;stroke-opacity:0.5;" x="623.653205" xlink:href="#m90f69d3759" y="226.094261"/>
     <use style="fill:#008000;fill-opacity:0.5;stroke:#008000;stroke-opacity:0.5;" x="625.365513" xlink:href="#m90f69d3759" y="225.256793"/>
     <use style="fill:#008000;fill-opacity:0.5;stroke:#008000;stroke-opacity:0.5;" x="631.358591" xlink:href="#m90f69d3759" y="225.256793"/>
     <use style="fill:#008000;fill-opacity:0.5;stroke:#008000;stroke-opacity:0.5;" x="632.214746" xlink:href="#m90f69d3759" y="229.44413"/>
     <use style="fill:#008000;fill-opacity:0.5;stroke:#008000;stroke-opacity:0.5;" x="637.35167" xlink:href="#m90f69d3759" y="231.956533"/>
     <use style="fill:#008000;fill-opacity:0.5;stroke:#008000;stroke-opacity:0.5;" x="639.063978" xlink:href="#m90f69d3759" y="236.981337"/>
     <use style="fill:#008000;fill-opacity:0.5;stroke:#008000;stroke-opacity:0.5;" x="642.488595" xlink:href="#m90f69d3759" y="241.168674"/>
     <use style="fill:#008000;fill-opacity:0.5;stroke:#008000;stroke-opacity:0.5;" x="646.769365" xlink:href="#m90f69d3759" y="250.380816"/>
     <use style="fill:#008000;fill-opacity:0.5;stroke:#008000;stroke-opacity:0.5;" x="649.337828" xlink:href="#m90f69d3759" y="257.918023"/>
     <use style="fill:#008000;fill-opacity:0.5;stroke:#008000;stroke-opacity:0.5;" x="652.762444" xlink:href="#m90f69d3759" y="269.642566"/>
    </g>
   </g>
   <g id="Quiver_1">
    <path clip-path="url(#pcbd5929e9d)" d="M 58.760583 214.370646 
L 124.330283 153.923579 
L 119.56983 152.118792 
L 140.939552 141.708573 
L 128.829171 162.162823 
L 127.41673 157.271589 
L 61.847029 217.718657 
L 58.760583 214.370646 
" style="fill:#0000ff;fill-opacity:0.5;"/>
    <path clip-path="url(#pcbd5929e9d)" d="M 62.5386 211.695876 
L 78.082363 179.858861 
L 72.991504 179.907027 
L 89.118489 162.443979 
L 85.267363 185.90046 
L 82.174316 181.856673 
L 66.630553 213.693688 
L 62.5386 211.695876 
" style="fill:#0000ff;fill-opacity:0.5;"/>
    <path clip-path="url(#pcbd5929e9d)" d="M 61.551056 208.679398 
L 71.112452 177.39734 
L 66.092206 178.243677 
L 79.279447 158.46656 
L 79.156402 182.236763 
L 75.467184 178.728369 
L 65.905788 210.010427 
L 61.551056 208.679398 
" style="fill:#0000ff;fill-opacity:0.5;"/>
    <path clip-path="url(#pcbd5929e9d)" d="M 64.216108 202.558411 
L 86.628684 152.099539 
L 81.542901 152.331857 
L 97.027524 134.296777 
L 94.027562 157.877233 
L 90.790237 153.947997 
L 68.377662 204.40687 
L 64.216108 202.558411 
" style="fill:#0000ff;fill-opacity:0.5;"/>
    <path clip-path="url(#pcbd5929e9d)" d="M 68.496034 195.023109 
L 106.332292 109.629372 
L 101.246724 109.866344 
L 116.714838 91.817103 
L 113.736453 115.400294 
L 110.495535 111.474022 
L 72.659277 196.867759 
L 68.496034 195.023109 
" style="fill:#0000ff;fill-opacity:0.5;"/>
    <path clip-path="url(#pcbd5929e9d)" d="M 72.82565 182.357919 
L 139.696709 49.804621 
L 134.605656 49.786389 
L 150.959013 32.535147 
L 146.802307 55.939409 
L 143.76226 51.855627 
L 76.891201 184.408925 
L 72.82565 182.357919 
" style="fill:#0000ff;fill-opacity:0.5;"/>
    <path clip-path="url(#pcbd5929e9d)" d="M 84.039538 163.782 
L 177.068147 9.762311 
L 171.993226 9.356924 
L 189.61129 -6.600567 
L 183.686571 16.419758 
L 180.965929 12.116589 
L 87.93732 166.136278 
L 84.039538 163.782 
" style="fill:#0000ff;fill-opacity:0.5;"/>
    <path clip-path="url(#pcbd5929e9d)" d="M 95.207109 146.972586 
L 193.120701 -4.291361 
L 188.06085 -4.854448 
L 206.166869 -20.256063 
L 199.528789 2.568782 
L 196.943347 -1.816951 
L 99.029755 149.446996 
L 95.207109 146.972586 
" style="fill:#0000ff;fill-opacity:0.5;"/>
    <path clip-path="url(#pcbd5929e9d)" d="M 106.359048 130.189992 
L 204.012471 -15.038176 
L 198.963244 -15.689689 
L 217.335914 -30.772218 
L 210.299572 -8.066985 
L 207.791247 -12.497275 
L 110.137824 132.730893 
L 106.359048 130.189992 
" style="fill:#0000ff;fill-opacity:0.5;"/>
    <path clip-path="url(#pcbd5929e9d)" d="M 117.543827 114.200218 
L 216.27563 -20.138394 
L 211.258062 -21.000468 
L 230.245332 -35.30156 
L 222.265735 -12.910408 
L 219.944854 -17.441707 
L 121.213051 116.896905 
L 117.543827 114.200218 
" style="fill:#0000ff;fill-opacity:0.5;"/>
    <path clip-path="url(#pcbd5929e9d)" d="M 128.794973 99.81233 
L 234.289263 -20.752573 
L 229.36304 -22.037674 
L 249.496299 -34.674507 
L 239.643853 -13.041963 
L 237.716201 -17.754002 
L 132.221911 102.8109 
L 128.794973 99.81233 
" style="fill:#0000ff;fill-opacity:0.5;"/>
    <path clip-path="url(#pcbd5929e9d)" d="M 141.764145 87.11666 
L 250.283458 -18.323365 
L 245.477298 -20.002644 
L 266.566562 -30.969896 
L 254.996948 -10.204981 
L 253.456675 -15.057477 
L 144.937362 90.382548 
L 141.764145 87.11666 
" style="fill:#0000ff;fill-opacity:0.5;"/>
    <path clip-path="url(#pcbd5929e9d)" d="M 154.634957 76.202368 
L 254.523916 -17.546366 
L 249.747539 -19.308577 
L 271.02346 -29.909184 
L 259.096191 -9.34762 
L 257.640133 -14.226047 
L 157.751174 79.522687 
L 154.634957 76.202368 
" style="fill:#0000ff;fill-opacity:0.5;"/>
    <path clip-path="url(#pcbd5929e9d)" d="M 165.029211 65.209993 
L 259.995276 -12.12578 
L 255.354411 -14.218992 
L 277.322098 -23.299653 
L 263.980632 -3.626246 
L 262.870683 -8.594865 
L 167.904618 68.740909 
L 165.029211 65.209993 
" style="fill:#0000ff;fill-opacity:0.5;"/>
    <path clip-path="url(#pcbd5929e9d)" d="M 176.385895 58.347693 
L 280.687649 -7.166107 
L 276.337584 -9.811121 
L 299.250838 -16.137295 
L 283.603722 1.75699 
L 283.109694 -3.31007 
L 178.807941 62.20373 
L 176.385895 58.347693 
" style="fill:#0000ff;fill-opacity:0.5;"/>
    <path clip-path="url(#pcbd5929e9d)" d="M 190.141656 50.775664 
L 301.269754 -14.543695 
L 296.999458 -17.31565 
L 320.089051 -22.9644 
L 303.921822 -5.538604 
L 303.577209 -10.618013 
L 192.449111 54.701346 
L 190.141656 50.775664 
" style="fill:#0000ff;fill-opacity:0.5;"/>
    <path clip-path="url(#pcbd5929e9d)" d="M 203.105999 42.334191 
L 309.76414 -11.881716 
L 305.67111 -14.909299 
L 329.062591 -19.137338 
L 311.861284 -2.731463 
L 311.827532 -7.822437 
L 205.169391 46.39347 
L 203.105999 42.334191 
" style="fill:#0000ff;fill-opacity:0.5;"/>
    <path clip-path="url(#pcbd5929e9d)" d="M 215.115416 38.972665 
L 315.800474 -10.767551 
L 311.742305 -13.841706 
L 335.180571 -17.802184 
L 317.792924 -1.593932 
L 317.817347 -6.68496 
L 217.132289 43.055257 
L 215.115416 38.972665 
" style="fill:#0000ff;fill-opacity:0.5;"/>
    <path clip-path="url(#pcbd5929e9d)" d="M 227.200784 30.55191 
L 323.731012 -11.494999 
L 319.825185 -14.760527 
L 343.426627 -17.590651 
L 325.280537 -2.236267 
L 325.549463 -7.320246 
L 229.019235 34.726663 
L 227.200784 30.55191 
" style="fill:#0000ff;fill-opacity:0.5;"/>
    <path clip-path="url(#pcbd5929e9d)" d="M 238.801406 27.892728 
L 334.316941 9.141212 
L 331.205569 5.111506 
L 354.862957 7.427902 
L 333.837214 18.516446 
L 335.194155 13.609525 
L 239.678621 32.361041 
L 238.801406 27.892728 
" style="fill:#0000ff;fill-opacity:0.5;"/>
    <path clip-path="url(#pcbd5929e9d)" d="M 251.253493 26.175311 
L 348.181785 27.338556 
L 345.95979 22.757956 
L 368.644214 29.861094 
L 345.795857 36.41779 
L 348.127141 31.891834 
L 251.198848 30.728589 
L 251.253493 26.175311 
" style="fill:#0000ff;fill-opacity:0.5;"/>
    <path clip-path="url(#pcbd5929e9d)" d="M 263.44203 28.699166 
L 356.315234 38.116995 
L 354.509451 33.356921 
L 376.472209 42.449498 
L 353.13124 46.948039 
L 355.85583 42.647368 
L 262.982626 33.229538 
L 263.44203 28.699166 
" style="fill:#0000ff;fill-opacity:0.5;"/>
    <path clip-path="url(#pcbd5929e9d)" d="M 273.804402 28.709898 
L 364.491342 41.510708 
L 362.873337 36.683574 
L 384.463207 46.629187 
L 360.963988 50.210301 
L 363.854892 46.019617 
L 273.167952 33.218806 
L 273.804402 28.709898 
" style="fill:#0000ff;fill-opacity:0.5;"/>
    <path clip-path="url(#pcbd5929e9d)" d="M 286.047538 31.273808 
L 377.806063 55.23254 
L 376.753523 50.251444 
L 397.057378 62.612316 
L 373.302304 63.469123 
L 376.655657 59.638433 
L 284.897131 35.679701 
L 286.047538 31.273808 
" style="fill:#0000ff;fill-opacity:0.5;"/>
    <path clip-path="url(#pcbd5929e9d)" d="M 296.53695 34.691555 
L 393.185868 70.48745 
L 392.632332 65.426546 
L 411.610725 79.739417 
L 387.887734 78.236961 
L 391.604336 74.757589 
L 294.955417 38.961693 
L 296.53695 34.691555 
" style="fill:#0000ff;fill-opacity:0.5;"/>
    <path clip-path="url(#pcbd5929e9d)" d="M 309.526818 39.776969 
L 409.981634 85.214835 
L 409.78382 80.127593 
L 427.713448 95.734197 
L 404.153885 92.574351 
L 408.104989 89.363754 
L 307.650173 43.925888 
L 309.526818 39.776969 
" style="fill:#0000ff;fill-opacity:0.5;"/>
    <path clip-path="url(#pcbd5929e9d)" d="M 320.727415 45.672642 
L 425.666131 97.544935 
L 425.642906 92.453902 
L 443.026742 108.66624 
L 419.589408 104.700253 
L 423.648299 101.627052 
L 318.709582 49.754759 
L 320.727415 45.672642 
" style="fill:#0000ff;fill-opacity:0.5;"/>
    <path clip-path="url(#pcbd5929e9d)" d="M 334.571511 51.613613 
L 441.736899 114.66396 
L 442.083633 109.584695 
L 458.243586 127.017239 
L 435.156353 121.358851 
L 439.427805 118.588679 
L 332.262418 55.538332 
L 334.571511 51.613613 
" style="fill:#0000ff;fill-opacity:0.5;"/>
    <path clip-path="url(#pcbd5929e9d)" d="M 346.793804 60.147917 
L 444.952058 135.870258 
L 445.930692 130.874116 
L 459.785945 150.189127 
L 437.586599 141.690495 
L 442.170693 139.475718 
L 344.01244 63.753376 
L 346.793804 60.147917 
" style="fill:#0000ff;fill-opacity:0.5;"/>
    <path clip-path="url(#pcbd5929e9d)" d="M 357.1646 69.43919 
L 459.813176 158.034687 
L 461.064837 153.099861 
L 473.837931 173.14695 
L 452.139061 163.44145 
L 456.837918 161.481883 
L 354.189342 72.886386 
L 357.1646 69.43919 
" style="fill:#0000ff;fill-opacity:0.5;"/>
    <path clip-path="url(#pcbd5929e9d)" d="M 370.938197 80.394083 
L 481.108722 184.375253 
L 482.578461 179.50093 
L 494.447996 200.095876 
L 473.2019 189.435619 
L 477.983202 187.686816 
L 367.812676 83.705646 
L 370.938197 80.394083 
" style="fill:#0000ff;fill-opacity:0.5;"/>
    <path clip-path="url(#pcbd5929e9d)" d="M 383.023155 93.055261 
L 494.222701 211.751828 
L 495.989208 206.977039 
L 506.57067 228.262488 
L 486.019844 216.316725 
L 490.89958 214.865057 
L 379.700033 96.16849 
L 383.023155 93.055261 
" style="fill:#0000ff;fill-opacity:0.5;"/>
    <path clip-path="url(#pcbd5929e9d)" d="M 396.821781 107.406542 
L 502.043239 235.932843 
L 504.124401 231.286562 
L 513.262034 253.230613 
L 493.554075 239.94024 
L 498.519796 238.817402 
L 393.298338 110.291102 
L 396.821781 107.406542 
" style="fill:#0000ff;fill-opacity:0.5;"/>
    <path clip-path="url(#pcbd5929e9d)" d="M 407.174361 121.745407 
L 505.988857 257.427764 
L 508.3294 252.906589 
L 516.211654 275.332194 
L 497.286687 260.948756 
L 502.307952 260.108486 
L 403.493457 124.426129 
L 407.174361 121.745407 
" style="fill:#0000ff;fill-opacity:0.5;"/>
    <path clip-path="url(#pcbd5929e9d)" d="M 418.300342 137.651782 
L 527.544061 286.714368 
L 529.871053 282.186204 
L 537.820434 304.588102 
L 518.852475 290.261406 
L 523.871202 289.406102 
L 414.627482 140.343516 
L 418.300342 137.651782 
" style="fill:#0000ff;fill-opacity:0.5;"/>
    <path clip-path="url(#pcbd5929e9d)" d="M 432.934261 154.516626 
L 539.776353 320.873238 
L 542.377439 316.496765 
L 548.933971 339.34517 
L 530.883066 323.878996 
L 535.944896 323.333981 
L 429.102803 156.977369 
L 432.934261 154.516626 
" style="fill:#0000ff;fill-opacity:0.5;"/>
    <path clip-path="url(#pcbd5929e9d)" d="M 442.406199 174.704707 
L 542.07202 346.704171 
L 544.870456 342.451182 
L 550.375626 365.575428 
L 533.050623 349.300234 
L 538.132076 348.987189 
L 438.466255 176.987724 
L 442.406199 174.704707 
" style="fill:#0000ff;fill-opacity:0.5;"/>
    <path clip-path="url(#pcbd5929e9d)" d="M 454.380104 192.270635 
L 563.360201 375.816062 
L 566.113245 371.53355 
L 571.864047 394.597937 
L 554.366926 378.507927 
L 559.444762 378.140854 
L 450.464664 194.595427 
L 454.380104 192.270635 
" style="fill:#0000ff;fill-opacity:0.5;"/>
    <path clip-path="url(#pcbd5929e9d)" d="M 467.262542 214.115194 
L 580.28477 420.894497 
L 583.188472 416.712671 
L 588.114837 439.967102 
L 571.201395 423.264613 
L 576.289078 423.078478 
L 463.26685 216.299175 
L 467.262542 214.115194 
" style="fill:#0000ff;fill-opacity:0.5;"/>
    <path clip-path="url(#pcbd5929e9d)" d="M 480.137165 238.463064 
L 587.673216 450.280595 
L 590.702856 446.189086 
L 594.919138 469.582689 
L 578.52191 452.373139 
L 583.612901 452.341946 
L 476.07685 240.524415 
L 480.137165 238.463064 
" style="fill:#0000ff;fill-opacity:0.5;"/>
    <path clip-path="url(#pcbd5929e9d)" d="M 490.402224 260.220082 
L 601.509706 474.56144 
L 604.50463 470.444453 
L 608.918629 493.801557 
L 592.376426 476.731313 
L 597.466971 476.657061 
L 486.359489 262.315702 
L 490.402224 260.220082 
" style="fill:#0000ff;fill-opacity:0.5;"/>
    <path clip-path="url(#pcbd5929e9d)" d="M 504.991322 283.738547 
L 613.626243 511.997975 
L 616.7595 507.985263 
L 620.376296 531.479017 
L 604.424428 513.855862 
L 609.514552 513.954841 
L 500.879631 285.695413 
L 504.991322 283.738547 
" style="fill:#0000ff;fill-opacity:0.5;"/>
    <path clip-path="url(#pcbd5929e9d)" d="M 514.438022 309.763468 
L 621.497334 553.700265 
L 624.752033 549.78541 
L 627.647502 573.378924 
L 612.242928 555.275423 
L 617.327632 555.530269 
L 510.268321 311.593472 
L 514.438022 309.763468 
" style="fill:#0000ff;fill-opacity:0.5;"/>
    <path clip-path="url(#pcbd5929e9d)" d="M 528.141209 336.573259 
L 639.698791 594.387791 
L 642.973768 590.489883 
L 645.74673 614.098109 
L 630.436334 595.91489 
L 635.519647 596.196127 
L 523.962065 338.381595 
L 528.141209 336.573259 
" style="fill:#0000ff;fill-opacity:0.5;"/>
    <path clip-path="url(#pcbd5929e9d)" d="M 539.298337 364.275146 
L 647.679409 637.803199 
L 651.074095 634.009089 
L 653.111073 657.692172 
L 638.373917 639.041329 
L 643.446016 639.480612 
L 535.064944 365.952559 
L 539.298337 364.275146 
" style="fill:#0000ff;fill-opacity:0.5;"/>
    <path clip-path="url(#pcbd5929e9d)" d="M 551.279956 395.250075 
L 660.228304 665.952122 
L 663.602548 662.139821 
L 665.76679 685.811613 
L 650.929602 667.24025 
L 656.003989 667.652265 
L 547.05564 396.950218 
L 551.279956 395.250075 
" style="fill:#0000ff;fill-opacity:0.5;"/>
    <path clip-path="url(#pcbd5929e9d)" d="M 564.007339 425.993324 
L 650.813266 584.596056 
L 653.714609 580.412592 
L 658.654092 603.664241 
L 641.73123 586.971295 
L 646.818807 586.78229 
L 560.01288 428.179558 
L 564.007339 425.993324 
" style="fill:#0000ff;fill-opacity:0.5;"/>
    <path clip-path="url(#pcbd5929e9d)" d="M 568.06007 435.572914 
L 611.008806 390.08843 
L 606.134817 388.617583 
L 626.732462 376.752731 
L 616.067374 397.996402 
L 614.319658 393.214703 
L 571.370922 438.699187 
L 568.06007 435.572914 
" style="fill:#0000ff;fill-opacity:0.5;"/>
    <path clip-path="url(#pcbd5929e9d)" d="M 570.051369 409.890575 
L 606.343856 228.428143 
L 601.43216 229.767697 
L 612.595105 208.78136 
L 614.827694 232.446804 
L 610.809034 229.321179 
L 574.516548 410.783611 
L 570.051369 409.890575 
" style="fill:#0000ff;fill-opacity:0.5;"/>
    <path clip-path="url(#pcbd5929e9d)" d="M 575.182242 390.66023 
L 610.362763 200.936709 
L 605.470368 202.345125 
L 616.337414 181.204052 
L 618.902214 204.835799 
L 614.840045 201.766933 
L 579.659524 391.490454 
L 575.182242 390.66023 
" style="fill:#0000ff;fill-opacity:0.5;"/>
    <path clip-path="url(#pcbd5929e9d)" d="M 578.597361 368.103573 
L 606.711255 192.609546 
L 601.854831 194.137387 
L 612.20073 172.736452 
L 615.343659 196.298279 
L 611.207532 193.329843 
L 583.093638 368.82387 
L 578.597361 368.103573 
" style="fill:#0000ff;fill-opacity:0.5;"/>
    <path clip-path="url(#pcbd5929e9d)" d="M 581.165177 351.358288 
L 606.74199 189.833318 
L 601.888334 191.369932 
L 612.195548 169.950337 
L 615.381045 193.506447 
L 611.239561 190.54549 
L 585.662747 352.070459 
L 581.165177 351.358288 
" style="fill:#0000ff;fill-opacity:0.5;"/>
    <path clip-path="url(#pcbd5929e9d)" d="M 584.587174 332.113492 
L 606.60922 185.91463 
L 601.767281 187.487773 
L 611.912802 165.991121 
L 615.275708 189.522558 
L 611.112029 186.592892 
L 589.089983 332.791754 
L 584.587174 332.113492 
" style="fill:#0000ff;fill-opacity:0.5;"/>
    <path clip-path="url(#pcbd5929e9d)" d="M 586.303745 317.849363 
L 608.104131 184.115518 
L 603.243534 185.630032 
L 613.648098 164.257556 
L 616.726384 187.827915 
L 612.598415 184.848145 
L 590.798028 318.581991 
L 586.303745 317.849363 
" style="fill:#0000ff;fill-opacity:0.5;"/>
    <path clip-path="url(#pcbd5929e9d)" d="M 588.908269 301.760697 
L 621.293116 169.914641 
L 616.327857 171.039522 
L 628.39209 150.558019 
L 629.594337 174.298118 
L 625.715276 171.000839 
L 593.330429 302.846895 
L 588.908269 301.760697 
" style="fill:#0000ff;fill-opacity:0.5;"/>
    <path clip-path="url(#pcbd5929e9d)" d="M 594.903604 286.677176 
L 622.69308 175.519273 
L 617.723227 176.623684 
L 629.871756 156.192068 
L 630.976168 179.936919 
L 627.110727 176.623684 
L 599.321251 287.781588 
L 594.903604 286.677176 
" style="fill:#0000ff;fill-opacity:0.5;"/>
    <path clip-path="url(#pcbd5929e9d)" d="M 595.747084 275.006061 
L 614.266609 192.522233 
L 609.324836 193.746175 
L 620.977105 173.027529 
L 622.653823 196.738841 
L 618.709605 193.519788 
L 600.190079 276.003616 
L 595.747084 275.006061 
" style="fill:#0000ff;fill-opacity:0.5;"/>
    <path clip-path="url(#pcbd5929e9d)" d="M 599.179585 267.434949 
L 617.540192 191.135686 
L 612.580284 192.283934 
L 624.547946 171.745853 
L 625.86196 195.480028 
L 621.967417 192.201051 
L 603.606811 268.500314 
L 599.179585 267.434949 
" style="fill:#0000ff;fill-opacity:0.5;"/>
    <path clip-path="url(#pcbd5929e9d)" d="M 600.108181 255.468995 
L 625.942497 184.010271 
L 620.886063 184.603256 
L 635.050503 165.513826 
L 633.733088 189.247813 
L 630.224839 185.558456 
L 604.390523 257.017181 
L 600.108181 255.468995 
" style="fill:#0000ff;fill-opacity:0.5;"/>
    <path clip-path="url(#pcbd5929e9d)" d="M 606.181938 248.574741 
L 635.813069 185.541244 
L 630.723475 185.664522 
L 646.591031 167.965416 
L 643.086432 191.476168 
L 639.934054 187.47846 
L 610.302924 250.511956 
L 606.181938 248.574741 
" style="fill:#0000ff;fill-opacity:0.5;"/>
    <path clip-path="url(#pcbd5929e9d)" d="M 608.705176 239.465304 
L 631.56597 183.87201 
L 626.488633 184.245922 
L 641.464809 165.786457 
L 639.122936 189.441337 
L 635.777404 185.603815 
L 612.91661 241.197109 
L 608.705176 239.465304 
" style="fill:#0000ff;fill-opacity:0.5;"/>
    <path clip-path="url(#pcbd5929e9d)" d="M 612.182842 232.646384 
L 628.484401 198.678011 
L 623.393983 198.760511 
L 639.402818 181.189089 
L 635.709987 204.671011 
L 632.589736 200.648177 
L 616.288177 234.616551 
L 612.182842 232.646384 
" style="fill:#0000ff;fill-opacity:0.5;"/>
    <path clip-path="url(#pcbd5929e9d)" d="M 614.09434 228.959307 
L 626.894616 211.016945 
L 621.865371 210.225841 
L 640.648713 195.65794 
L 632.986235 218.159587 
L 630.601571 213.661527 
L 617.801295 231.603889 
L 614.09434 228.959307 
" style="fill:#0000ff;fill-opacity:0.5;"/>
    <path clip-path="url(#pcbd5929e9d)" d="M 617.326997 224.990224 
L 634.502633 214.46916 
L 630.182564 211.775435 
L 653.165454 205.707119 
L 637.31826 223.42446 
L 636.881199 218.352169 
L 619.705563 228.873232 
L 617.326997 224.990224 
" style="fill:#0000ff;fill-opacity:0.5;"/>
    <path clip-path="url(#pcbd5929e9d)" d="M 623.039018 223.901863 
L 638.843172 219.474425 
L 635.422401 215.703817 
L 659.188935 216.13914 
L 639.107522 228.858201 
L 640.071546 223.85922 
L 624.267391 228.286658 
L 623.039018 223.901863 
" style="fill:#0000ff;fill-opacity:0.5;"/>
    <path clip-path="url(#pcbd5929e9d)" d="M 625.319566 222.980454 
L 642.134843 222.641045 
L 639.766609 218.134313 
L 662.667844 224.503863 
L 640.042291 231.792349 
L 642.226736 227.193724 
L 625.41146 227.533133 
L 625.319566 222.980454 
" style="fill:#0000ff;fill-opacity:0.5;"/>
    <path clip-path="url(#pcbd5929e9d)" d="M 632.474349 223.272122 
L 648.595931 232.335475 
L 648.842775 227.250376 
L 665.342211 244.361959 
L 642.148232 239.158401 
L 646.364417 236.304816 
L 630.242834 227.241464 
L 632.474349 223.272122 
" style="fill:#0000ff;fill-opacity:0.5;"/>
    <path clip-path="url(#pcbd5929e9d)" d="M 633.860059 227.870353 
L 650.578045 245.348247 
L 652.294893 240.555378 
L 663.096732 261.729843 
L 642.423015 249.998045 
L 647.287419 248.495803 
L 630.569432 231.017908 
L 633.860059 227.870353 
" style="fill:#0000ff;fill-opacity:0.5;"/>
    <path clip-path="url(#pcbd5929e9d)" d="M 639.113818 230.514775 
L 657.668231 253.192391 
L 659.75077 248.546727 
L 668.881902 270.493483 
L 649.177881 257.197273 
L 654.143935 256.075906 
L 635.589522 233.39829 
L 639.113818 230.514775 
" style="fill:#0000ff;fill-opacity:0.5;"/>
    <path clip-path="url(#pcbd5929e9d)" d="M 641.021109 235.817948 
L 659.278236 266.53131 
L 662.029108 262.247402 
L 667.791604 285.308871 
L 650.286326 269.227734 
L 655.363976 268.858087 
L 637.106848 238.144726 
L 641.021109 235.817948 
" style="fill:#0000ff;fill-opacity:0.5;"/>
    <path clip-path="url(#pcbd5929e9d)" d="M 644.503076 240.107685 
L 670.225366 288.946111 
L 673.193338 284.809651 
L 677.759792 308.137428 
L 661.106453 291.175588 
L 666.196405 291.06809 
L 640.474114 242.229664 
L 644.503076 240.107685 
" style="fill:#0000ff;fill-opacity:0.5;"/>
    <path clip-path="url(#pcbd5929e9d)" d="M 648.880855 249.529087 
L 674.73621 313.626127 
L 678.10746 309.811178 
L 680.290282 333.481264 
L 665.438521 314.921553 
L 670.51323 315.329585 
L 644.657875 251.232545 
L 648.880855 249.529087 
" style="fill:#0000ff;fill-opacity:0.5;"/>
    <path clip-path="url(#pcbd5929e9d)" d="M 651.506031 257.223239 
L 675.927145 333.433954 
L 679.568769 329.876183 
L 680.011993 353.642572 
L 666.559546 334.044884 
L 671.590737 334.823521 
L 647.169624 258.612806 
L 651.506031 257.223239 
" style="fill:#0000ff;fill-opacity:0.5;"/>
    <path clip-path="url(#pcbd5929e9d)" d="M 654.948518 269.00624 
L 681.558312 360.423196 
L 685.294134 356.96447 
L 685.099171 380.734191 
L 672.177688 360.782426 
L 677.186163 361.695848 
L 650.57637 270.278892 
L 654.948518 269.00624 
" style="fill:#0000ff;fill-opacity:0.5;"/>
   </g>
   <g id="Quiver_2">
    <path clip-path="url(#pcbd5929e9d)" style="fill:#ff0000;fill-opacity:0.5;"/>
    <path clip-path="url(#pcbd5929e9d)" d="M 65.473002 214.791096 
L -84.525732 278.361122 
L -80.652567 281.665324 
L -104.280982 284.260639 
L -85.983121 269.087441 
L -86.302583 274.168494 
L 63.696151 210.598468 
L 65.473002 214.791096 
" style="fill:#ff0000;fill-opacity:0.5;"/>
    <path clip-path="url(#pcbd5929e9d)" d="M 63.538248 211.613759 
L 56.644993 211.035969 
L 58.533492 215.763836 
L 36.415546 207.055556 
L 59.674535 202.150755 
L 57.025341 206.498275 
L 63.918596 207.076065 
L 63.538248 211.613759 
" style="fill:#ff0000;fill-opacity:0.5;"/>
    <path clip-path="url(#pcbd5929e9d)" d="M 64.546435 202.026701 
L 97.146566 162.832157 
L 92.189728 161.670728 
L 112.000469 148.534052 
L 102.692424 170.406363 
L 100.647465 165.744035 
L 68.047334 204.93858 
L 64.546435 202.026701 
" style="fill:#ff0000;fill-opacity:0.5;"/>
    <path clip-path="url(#pcbd5929e9d)" d="M 68.494364 195.026886 
L 106.447077 108.949101 
L 101.361947 109.195296 
L 116.797297 91.118028 
L 113.861694 114.706583 
L 110.613659 110.786196 
L 72.660946 196.863981 
L 68.494364 195.026886 
" style="fill:#ff0000;fill-opacity:0.5;"/>
    <path clip-path="url(#pcbd5929e9d)" d="M 72.942242 182.153759 
L 151.823442 59.233196 
L 146.761411 58.690053 
L 164.806593 43.217204 
L 158.258514 66.068032 
L 155.655809 61.692522 
L 76.77461 184.613085 
L 72.942242 182.153759 
" style="fill:#ff0000;fill-opacity:0.5;"/>
    <path clip-path="url(#pcbd5929e9d)" d="M 84.625127 163.135615 
L 151.134729 113.411748 
L 146.584601 111.128002 
L 168.909747 102.965555 
L 154.764413 122.069146 
L 153.861333 117.058796 
L 87.351731 166.782663 
L 84.625127 163.135615 
" style="fill:#ff0000;fill-opacity:0.5;"/>
    <path clip-path="url(#pcbd5929e9d)" d="M 98.088079 146.585752 
L 99.712118 147.555399 
L 100.027373 143.337674 
L 113.358822 157.906259 
L 94.209492 153.081908 
L 97.772825 150.803476 
L 96.148786 149.83383 
L 98.088079 146.585752 
" style="fill:#ff0000;fill-opacity:0.5;"/>
    <path clip-path="url(#pcbd5929e9d)" d="M 110.123363 131.460442 
L 110.123363 133.335369 
L 113.873217 131.460442 
L 108.248436 150.209713 
L 102.623654 131.460442 
L 106.373509 133.335369 
L 106.373509 131.460442 
L 110.123363 131.460442 
" style="fill:#ff0000;fill-opacity:0.5;"/>
    <path clip-path="url(#pcbd5929e9d)" d="M 121.631319 115.219373 
L 123.683327 129.262808 
L 127.859899 126.351552 
L 124.393139 149.867913 
L 114.34262 128.326679 
L 119.177568 129.921183 
L 117.125559 115.877749 
L 121.631319 115.219373 
" style="fill:#ff0000;fill-opacity:0.5;"/>
    <path clip-path="url(#pcbd5929e9d)" d="M 132.52609 100.25666 
L 146.667065 127.301888 
L 149.647405 123.17433 
L 154.144014 146.515671 
L 137.54152 129.504061 
L 142.63177 129.411799 
L 128.490795 102.36657 
L 132.52609 100.25666 
" style="fill:#ff0000;fill-opacity:0.5;"/>
    <path clip-path="url(#pcbd5929e9d)" d="M 145.563059 88.211518 
L 152.644333 117.325744 
L 156.530859 114.037267 
L 155.274797 137.774579 
L 143.257026 117.26578 
L 148.219722 118.401915 
L 141.138448 89.287689 
L 145.563059 88.211518 
" style="fill:#ff0000;fill-opacity:0.5;"/>
    <path clip-path="url(#pcbd5929e9d)" d="M 158.055593 79.17204 
L 144.656287 98.229951 
L 149.690854 98.986448 
L 131.008145 113.683185 
L 138.51569 91.129372 
L 140.931232 95.610925 
L 154.330538 76.553015 
L 158.055593 79.17204 
" style="fill:#ff0000;fill-opacity:0.5;"/>
    <path clip-path="url(#pcbd5929e9d)" d="M 168.683321 67.496386 
L 161.069409 99.8911 
L 166.023157 98.716562 
L 154.164591 119.317826 
L 152.724717 95.590955 
L 156.636596 98.849231 
L 164.250508 66.454516 
L 168.683321 67.496386 
" style="fill:#ff0000;fill-opacity:0.5;"/>
    <path clip-path="url(#pcbd5929e9d)" d="M 179.42156 58.913907 
L 198.467711 84.43328 
L 200.75519 79.885028 
L 208.899314 102.216864 
L 189.807337 88.055858 
L 194.818426 87.15689 
L 175.772276 61.637517 
L 179.42156 58.913907 
" style="fill:#ff0000;fill-opacity:0.5;"/>
    <path clip-path="url(#pcbd5929e9d)" d="M 191.522714 50.606083 
L 193.655135 50.833413 
L 191.977374 46.34124 
L 212.6196 55.011807 
L 190.613393 59.13577 
L 193.200475 55.098257 
L 191.068053 54.870927 
L 191.522714 50.606083 
" style="fill:#ff0000;fill-opacity:0.5;"/>
    <path clip-path="url(#pcbd5929e9d)" d="M 206.301966 45.070769 
L 200.808932 61.887524 
L 205.844413 61.137131 
L 192.282213 80.659026 
L 192.858786 56.895498 
L 196.48039 60.473647 
L 201.973424 43.656892 
L 206.301966 45.070769 
" style="fill:#ff0000;fill-opacity:0.5;"/>
    <path clip-path="url(#pcbd5929e9d)" d="M 217.527242 42.774465 
L 215.766738 44.177855 
L 220.334022 46.295474 
L 198.51881 55.047858 
L 211.913683 35.732448 
L 212.959958 40.656847 
L 214.720463 39.253457 
L 217.527242 42.774465 
" style="fill:#ff0000;fill-opacity:0.5;"/>
    <path clip-path="url(#pcbd5929e9d)" d="M 230.190737 33.563627 
L 227.174461 40.353386 
L 232.260257 40.121339 
L 216.77467 58.155593 
L 219.775892 34.575297 
L 223.013006 38.504705 
L 226.029282 31.714946 
L 230.190737 33.563627 
" style="fill:#ff0000;fill-opacity:0.5;"/>
    <path clip-path="url(#pcbd5929e9d)" d="M 241.516816 30.126885 
L 241.516816 90.882497 
L 246.070422 88.605694 
L 239.240013 111.373724 
L 232.409604 88.605694 
L 236.96321 90.882497 
L 236.96321 30.126885 
L 241.516816 30.126885 
" style="fill:#ff0000;fill-opacity:0.5;"/>
    <path clip-path="url(#pcbd5929e9d)" d="M 253.497324 28.291663 
L 257.051971 78.658445 
L 261.433992 76.066717 
L 256.223402 99.259117 
L 247.807069 77.02844 
L 252.509663 78.979019 
L 248.955017 28.612237 
L 253.497324 28.291663 
" style="fill:#ff0000;fill-opacity:0.5;"/>
    <path clip-path="url(#pcbd5929e9d)" d="M 265.318839 31.828322 
L 260.924992 42.541289 
L 266.001984 42.162719 
L 251.042749 60.635915 
L 253.362919 36.978898 
L 256.711971 40.813349 
L 261.105817 30.100382 
L 265.318839 31.828322 
" style="fill:#ff0000;fill-opacity:0.5;"/>
    <path clip-path="url(#pcbd5929e9d)" d="M 274.72016 31.631197 
L 274.053315 32.86518 
L 277.188125 32.964887 
L 266.817728 43.30418 
L 269.784229 28.963817 
L 271.585349 31.53149 
L 272.252194 30.297507 
L 274.72016 31.631197 
" style="fill:#ff0000;fill-opacity:0.5;"/>
    <path clip-path="url(#pcbd5929e9d)" d="M 287.745951 33.356334 
L 288.761212 52.525073 
L 293.188024 50.010615 
L 287.571383 73.108039 
L 279.546326 50.73314 
L 284.21398 52.765914 
L 283.198718 33.597175 
L 287.745951 33.356334 
" style="fill:#ff0000;fill-opacity:0.5;"/>
    <path clip-path="url(#pcbd5929e9d)" d="M 297.914821 36.133193 
L 304.696163 57.341173 
L 308.340005 53.785674 
L 308.768404 77.552335 
L 295.328185 57.946259 
L 300.358889 58.728034 
L 293.577547 37.520055 
L 297.914821 36.133193 
" style="fill:#ff0000;fill-opacity:0.5;"/>
    <path clip-path="url(#pcbd5929e9d)" d="M 310.764908 41.182802 
L 314.734357 54.103548 
L 318.418554 50.589882 
L 318.575586 74.359884 
L 305.360081 54.601643 
L 310.381532 55.440801 
L 306.412083 42.520055 
L 310.764908 41.182802 
" style="fill:#ff0000;fill-opacity:0.5;"/>
    <path clip-path="url(#pcbd5929e9d)" d="M 321.671872 46.544016 
L 323.749947 50.014401 
L 326.48701 45.721657 
L 332.323738 68.76445 
L 314.766767 52.739766 
L 319.8432 52.35377 
L 317.765125 48.883385 
L 321.671872 46.544016 
" style="fill:#ff0000;fill-opacity:0.5;"/>
    <path clip-path="url(#pcbd5929e9d)" d="M 335.67366 53.27405 
L 337.920821 70.070267 
L 342.13229 67.209726 
L 338.381431 90.682449 
L 328.592117 69.021262 
L 333.40743 70.674112 
L 331.160269 53.877895 
L 335.67366 53.27405 
" style="fill:#ff0000;fill-opacity:0.5;"/>
    <path clip-path="url(#pcbd5929e9d)" d="M 347.289446 63.225641 
L 328.591629 90.888624 
L 333.639273 91.552289 
L 315.230353 106.590552 
L 322.321325 83.902321 
L 324.818979 88.338635 
L 343.516797 60.675652 
L 347.289446 63.225641 
" style="fill:#ff0000;fill-opacity:0.5;"/>
    <path clip-path="url(#pcbd5929e9d)" d="M 357.867993 70.543714 
L 363.906668 91.915726 
L 367.669638 88.486554 
L 367.287317 112.254001 
L 354.523504 92.201002 
L 359.524623 93.153875 
L 353.485949 71.781863 
L 357.867993 70.543714 
" style="fill:#ff0000;fill-opacity:0.5;"/>
    <path clip-path="url(#pcbd5929e9d)" d="M 371.463424 81.142044 
L 384.200153 110.436519 
L 387.468308 106.53289 
L 390.282552 130.136231 
L 374.940381 111.979815 
L 380.024177 112.252161 
L 367.287449 82.957685 
L 371.463424 81.142044 
" style="fill:#ff0000;fill-opacity:0.5;"/>
    <path clip-path="url(#pcbd5929e9d)" d="M 383.637968 94.567689 
L 384.148782 120.88341 
L 388.657344 118.518662 
L 382.270088 141.414964 
L 374.999099 118.783782 
L 379.596034 120.971783 
L 379.08522 94.656063 
L 383.637968 94.567689 
" style="fill:#ff0000;fill-opacity:0.5;"/>
    <path clip-path="url(#pcbd5929e9d)" d="M 396.991197 110.054866 
L 387.428503 125.366808 
L 392.496821 125.847759 
L 374.642973 141.540999 
L 380.909999 118.611496 
L 383.566229 122.954721 
L 393.128922 107.642778 
L 396.991197 110.054866 
" style="fill:#ff0000;fill-opacity:0.5;"/>
    <path clip-path="url(#pcbd5929e9d)" d="M 407.032005 124.602443 
L 399.093121 133.490961 
L 404.005988 134.826214 
L 383.744954 147.257152 
L 393.817411 125.726167 
L 395.696928 130.457612 
L 403.635813 121.569094 
L 407.032005 124.602443 
" style="fill:#ff0000;fill-opacity:0.5;"/>
    <path clip-path="url(#pcbd5929e9d)" d="M 418.254547 137.591428 
L 437.036156 161.507306 
L 439.211206 156.904229 
L 447.90151 179.029244 
L 428.467395 165.341555 
L 433.454886 164.319748 
L 414.673277 140.40387 
L 418.254547 137.591428 
" style="fill:#ff0000;fill-opacity:0.5;"/>
    <path clip-path="url(#pcbd5929e9d)" d="M 433.259176 156.151156 
L 427.095174 190.324256 
L 431.980621 188.891927 
L 421.217105 210.085898 
L 418.536754 186.466978 
L 422.613884 189.515939 
L 428.777887 155.342839 
L 433.259176 156.151156 
" style="fill:#ff0000;fill-opacity:0.5;"/>
    <path clip-path="url(#pcbd5929e9d)" d="M 441.858806 177.623883 
L 434.062207 183.863117 
L 438.685032 185.995872 
L 416.640624 194.888664 
L 430.149556 175.32987 
L 431.217048 180.307783 
L 439.013648 174.068548 
L 441.858806 177.623883 
" style="fill:#ff0000;fill-opacity:0.5;"/>
    <path clip-path="url(#pcbd5929e9d)" d="M 454.172794 191.977045 
L 469.601298 210.52544 
L 471.646132 205.863058 
L 480.954765 227.735118 
L 461.143671 214.598975 
L 466.100478 213.437413 
L 450.671974 194.889018 
L 454.172794 191.977045 
" style="fill:#ff0000;fill-opacity:0.5;"/>
    <path clip-path="url(#pcbd5929e9d)" d="M 467.517272 214.875923 
L 474.957156 265.467139 
L 479.131047 262.552041 
L 475.685931 286.071583 
L 465.615592 264.539608 
L 470.452005 266.129662 
L 463.01212 215.538445 
L 467.517272 214.875923 
" style="fill:#ff0000;fill-opacity:0.5;"/>
    <path clip-path="url(#pcbd5929e9d)" d="M 479.642956 241.174422 
L 476.72616 243.840035 
L 481.47874 245.665451 
L 460.06407 255.982891 
L 472.263048 235.581356 
L 473.654263 240.47867 
L 476.571059 237.813057 
L 479.642956 241.174422 
" style="fill:#ff0000;fill-opacity:0.5;"/>
    <path clip-path="url(#pcbd5929e9d)" d="M 489.111564 260.143435 
L 490.236021 260.874142 
L 490.572978 257.89452 
L 499.625432 268.574962 
L 486.188736 264.641265 
L 488.774607 263.123057 
L 487.65015 262.39235 
L 489.111564 260.143435 
" style="fill:#ff0000;fill-opacity:0.5;"/>
    <path clip-path="url(#pcbd5929e9d)" d="M 505.16348 285.18584 
L 500.340512 308.104381 
L 505.26538 306.814097 
L 493.892765 327.687557 
L 491.897356 304.000935 
L 495.884504 307.16666 
L 500.707472 284.24812 
L 505.16348 285.18584 
" style="fill:#ff0000;fill-opacity:0.5;"/>
    <path clip-path="url(#pcbd5929e9d)" d="M 514.61103 310.971565 
L 511.012458 338.693233 
L 515.82127 337.021563 
L 506.116748 358.72087 
L 502.274116 335.262996 
L 506.49674 338.107044 
L 510.095312 310.385375 
L 514.61103 310.971565 
" style="fill:#ff0000;fill-opacity:0.5;"/>
    <path clip-path="url(#pcbd5929e9d)" d="M 528.222414 336.790727 
L 535.254056 359.018947 
L 538.908911 355.474769 
L 539.263583 379.242644 
L 525.884246 359.594972 
L 530.912502 360.392348 
L 523.88086 338.164128 
L 528.222414 336.790727 
" style="fill:#ff0000;fill-opacity:0.5;"/>
    <path clip-path="url(#pcbd5929e9d)" d="M 539.40036 365.624846 
L 532.900718 393.846084 
L 537.849151 392.649353 
L 526.083052 413.303567 
L 524.536833 389.583389 
L 528.463278 392.824096 
L 534.962921 364.602858 
L 539.40036 365.624846 
" style="fill:#ff0000;fill-opacity:0.5;"/>
    <path clip-path="url(#pcbd5929e9d)" d="M 548.302204 395.902566 
L 548.499785 395.036972 
L 546.571017 395.507403 
L 551.143609 387.444211 
L 551.764578 396.69289 
L 550.230972 395.432134 
L 550.033391 396.297728 
L 548.302204 395.902566 
" style="fill:#ff0000;fill-opacity:0.5;"/>
    <path clip-path="url(#pcbd5929e9d)" d="M 559.76837 427.484484 
L 503.042983 108.012198 
L 498.957547 111.050022 
L 501.70234 87.438504 
L 512.407982 108.661768 
L 507.526461 107.216113 
L 564.251848 426.688399 
L 559.76837 427.484484 
" style="fill:#ff0000;fill-opacity:0.5;"/>
    <path clip-path="url(#pcbd5929e9d)" d="M 567.470432 437.514889 
L 451.630148 -248.97394 
L 447.518859 -245.971197 
L 450.46566 -269.558356 
L 460.989244 -248.244232 
L 456.120276 -249.731618 
L 571.96056 436.757211 
L 567.470432 437.514889 
" style="fill:#ff0000;fill-opacity:0.5;"/>
    <path clip-path="url(#pcbd5929e9d)" d="M 570.021804 410.594948 
L 523.896788 5.941912 
L 519.630334 8.719777 
L 523.838245 -14.675333 
L 533.203261 7.172645 
L 528.421097 5.426201 
L 574.546113 410.079238 
L 570.021804 410.594948 
" style="fill:#ff0000;fill-opacity:0.5;"/>
    <path clip-path="url(#pcbd5929e9d)" d="M 575.175058 391.449646 
L 574.374751 386.647801 
L 570.257406 389.642234 
L 573.251839 366.061075 
L 583.732354 387.396409 
L 578.8664 385.899193 
L 579.666708 390.701038 
L 575.175058 391.449646 
" style="fill:#ff0000;fill-opacity:0.5;"/>
    <path clip-path="url(#pcbd5929e9d)" d="M 582.852588 369.538629 
L 569.763644 393.978566 
L 574.85273 394.121293 
L 558.082387 410.967458 
L 562.810197 387.671847 
L 565.749467 391.828751 
L 578.838411 367.388814 
L 582.852588 369.538629 
" style="fill:#ff0000;fill-opacity:0.5;"/>
    <path clip-path="url(#pcbd5929e9d)" d="M 585.653047 352.127082 
L 581.646219 373.865512 
L 586.537098 372.451843 
L 575.692759 393.604573 
L 573.102585 369.975593 
L 577.168048 373.040095 
L 581.174876 351.301665 
L 585.653047 352.127082 
" style="fill:#ff0000;fill-opacity:0.5;"/>
    <path clip-path="url(#pcbd5929e9d)" d="M 589.051341 332.988825 
L 582.751158 358.988014 
L 587.712885 357.847655 
L 575.712579 378.366678 
L 574.436308 354.630444 
L 578.325632 357.91561 
L 584.625815 331.916421 
L 589.051341 332.988825 
" style="fill:#ff0000;fill-opacity:0.5;"/>
    <path clip-path="url(#pcbd5929e9d)" d="M 590.827686 318.211876 
L 590.856131 335.250548 
L 595.40593 332.966146 
L 588.613541 355.745547 
L 581.745131 332.988952 
L 586.302532 335.25815 
L 586.274087 318.219478 
L 590.827686 318.211876 
" style="fill:#ff0000;fill-opacity:0.5;"/>
    <path clip-path="url(#pcbd5929e9d)" d="M 591.546095 300.067343 
L 608.62983 303.327155 
L 607.246869 298.427504 
L 628.331157 309.40432 
L 604.686394 311.846219 
L 607.776339 307.80006 
L 590.692603 304.540248 
L 591.546095 300.067343 
" style="fill:#ff0000;fill-opacity:0.5;"/>
    <path clip-path="url(#pcbd5929e9d)" d="M 599.337003 287.714248 
L 590.159826 329.819326 
L 595.093843 328.564483 
L 583.571455 349.355641 
L 581.746389 325.655286 
L 585.710675 328.849594 
L 594.887852 286.744516 
L 599.337003 287.714248 
" style="fill:#ff0000;fill-opacity:0.5;"/>
    <path clip-path="url(#pcbd5929e9d)" d="M 600.123198 276.240677 
L 577.480158 342.542024 
L 582.525231 341.859084 
L 568.702996 361.197738 
L 569.597529 337.444054 
L 573.170925 341.070348 
L 595.813965 274.769 
L 600.123198 276.240677 
" style="fill:#ff0000;fill-opacity:0.5;"/>
    <path clip-path="url(#pcbd5929e9d)" d="M 603.272229 267.924865 
L 603.314996 269.803896 
L 607.030291 267.839331 
L 601.820865 286.757942 
L 595.756105 268.095932 
L 599.556934 269.889429 
L 599.514167 268.010398 
L 603.272229 267.924865 
" style="fill:#ff0000;fill-opacity:0.5;"/>
    <path clip-path="url(#pcbd5929e9d)" d="M 603.398951 254.277826 
L 614.96041 261.040815 
L 615.294347 255.960692 
L 631.498166 273.352469 
L 608.396752 267.752263 
L 612.661212 264.971338 
L 601.099753 258.208349 
L 603.398951 254.277826 
" style="fill:#ff0000;fill-opacity:0.5;"/>
    <path clip-path="url(#pcbd5929e9d)" d="M 610.201379 248.383023 
L 616.285519 258.654722 
L 619.043089 254.375124 
L 624.7695 277.445579 
L 607.289402 261.337076 
L 612.367623 260.975373 
L 606.283483 250.703674 
L 610.201379 248.383023 
" style="fill:#ff0000;fill-opacity:0.5;"/>
    <path clip-path="url(#pcbd5929e9d)" d="M 612.342436 242.015905 
L 604.307588 249.320312 
L 609.055372 251.158165 
L 587.613764 261.419506 
L 599.866112 241.049978 
L 601.244501 245.950917 
L 609.27935 238.646509 
L 612.342436 242.015905 
" style="fill:#ff0000;fill-opacity:0.5;"/>
    <path clip-path="url(#pcbd5929e9d)" d="M 616.444977 234.181091 
L 604.891885 280.624081 
L 609.860443 279.513861 
L 597.735802 299.959662 
L 596.60364 276.216118 
L 600.47295 279.524833 
L 612.026042 233.081844 
L 616.444977 234.181091 
" style="fill:#ff0000;fill-opacity:0.5;"/>
    <path clip-path="url(#pcbd5929e9d)" d="M 618.223555 230.351255 
L 617.210507 263.448165 
L 621.831638 261.311742 
L 614.307857 283.860143 
L 608.177215 260.8938 
L 612.659032 263.308851 
L 613.67208 230.211941 
L 618.223555 230.351255 
" style="fill:#ff0000;fill-opacity:0.5;"/>
    <path clip-path="url(#pcbd5929e9d)" d="M 620.372121 225.612756 
L 637.456026 249.650428 
L 639.848736 245.156643 
L 647.470931 267.671967 
L 628.713691 253.070474 
L 633.744344 252.288371 
L 616.660439 228.2507 
L 620.372121 225.612756 
" style="fill:#ff0000;fill-opacity:0.5;"/>
    <path clip-path="url(#pcbd5929e9d)" d="M 625.925253 225.947196 
L 626.763441 238.896595 
L 631.160473 236.330416 
L 625.814978 259.492095 
L 617.528183 237.212806 
L 622.219344 239.190725 
L 621.381156 226.241326 
L 625.925253 225.947196 
" style="fill:#ff0000;fill-opacity:0.5;"/>
    <path clip-path="url(#pcbd5929e9d)" d="M 627.60408 224.841282 
L 628.889131 231.764501 
L 632.950754 228.694912 
L 630.390164 252.327115 
L 619.519352 231.187978 
L 624.411997 232.595523 
L 623.126946 225.672304 
L 627.60408 224.841282 
" style="fill:#ff0000;fill-opacity:0.5;"/>
    <path clip-path="url(#pcbd5929e9d)" d="M 633.607703 225.610814 
L 627.570148 263.967718 
L 632.422391 262.426648 
L 622.134852 283.855699 
L 618.927724 260.302525 
L 623.071926 263.259677 
L 629.10948 224.902773 
L 633.607703 225.610814 
" style="fill:#ff0000;fill-opacity:0.5;"/>
    <path clip-path="url(#pcbd5929e9d)" d="M 634.439552 229.927937 
L 630.201449 249.417023 
L 635.134869 248.159831 
L 623.622379 268.956471 
L 621.786031 245.256988 
L 625.751837 248.449409 
L 629.989939 228.960323 
L 634.439552 229.927937 
" style="fill:#ff0000;fill-opacity:0.5;"/>
    <path clip-path="url(#pcbd5929e9d)" d="M 639.227113 231.74815 
L 639.435496 233.623593 
L 642.977999 231.331385 
L 639.435496 250.710961 
L 631.725342 232.58168 
L 635.68461 234.040358 
L 635.476227 232.164915 
L 639.227113 231.74815 
" style="fill:#ff0000;fill-opacity:0.5;"/>
    <path clip-path="url(#pcbd5929e9d)" d="M 641.260448 237.580798 
L 638.576256 247.415884 
L 643.568656 246.418335 
L 630.984643 266.584651 
L 630.389838 242.821573 
L 634.183317 246.216963 
L 636.867509 236.381877 
L 641.260448 237.580798 
" style="fill:#ff0000;fill-opacity:0.5;"/>
    <path clip-path="url(#pcbd5929e9d)" d="M 644.636471 240.413386 
L 657.506842 277.013951 
L 661.047306 273.355499 
L 662.156557 297.100125 
L 648.160049 277.887226 
L 653.211089 278.524527 
L 640.340719 241.923962 
L 644.636471 240.413386 
" style="fill:#ff0000;fill-opacity:0.5;"/>
    <path clip-path="url(#pcbd5929e9d)" d="M 649.033959 250.616286 
L 646.099761 278.835474 
L 650.864419 277.04182 
L 641.715939 298.98135 
L 637.276855 275.629001 
L 641.570573 278.364534 
L 644.504771 250.145346 
L 649.033959 250.616286 
" style="fill:#ff0000;fill-opacity:0.5;"/>
    <path clip-path="url(#pcbd5929e9d)" d="M 651.560901 258.409729 
L 647.560441 276.496373 
L 652.498294 275.256712 
L 640.912009 296.01233 
L 639.159852 272.306474 
L 643.114293 275.512961 
L 647.114754 257.426316 
L 651.560901 258.409729 
" style="fill:#ff0000;fill-opacity:0.5;"/>
    <path clip-path="url(#pcbd5929e9d)" d="M 655.02593 269.396673 
L 657.824111 295.154328 
L 662.105189 292.399054 
L 657.773668 315.771594 
L 648.524274 293.874416 
L 653.29714 295.646115 
L 650.498958 269.88846 
L 655.02593 269.396673 
" style="fill:#ff0000;fill-opacity:0.5;"/>
   </g>
   <g id="matplotlib.axis_1">
    <g id="xtick_1">
     <g id="line2d_1">
      <defs>
       <path d="M 0 0 
L 0 3.5 
" id="m34f8cfb250" style="stroke:#000000;stroke-width:0.8;"/>
      </defs>
      <g>
       <use style="stroke:#000000;stroke-width:0.8;" x="54.310727" xlink:href="#m34f8cfb250" y="458.388"/>
      </g>
     </g>
     <g id="text_1">
      <!-- 0 -->
      <defs>
       <path d="M 31.78125 66.40625 
Q 24.171875 66.40625 20.328125 58.90625 
Q 16.5 51.421875 16.5 36.375 
Q 16.5 21.390625 20.328125 13.890625 
Q 24.171875 6.390625 31.78125 6.390625 
Q 39.453125 6.390625 43.28125 13.890625 
Q 47.125 21.390625 47.125 36.375 
Q 47.125 51.421875 43.28125 58.90625 
Q 39.453125 66.40625 31.78125 66.40625 
z
M 31.78125 74.21875 
Q 44.046875 74.21875 50.515625 64.515625 
Q 56.984375 54.828125 56.984375 36.375 
Q 56.984375 17.96875 50.515625 8.265625 
Q 44.046875 -1.421875 31.78125 -1.421875 
Q 19.53125 -1.421875 13.0625 8.265625 
Q 6.59375 17.96875 6.59375 36.375 
Q 6.59375 54.828125 13.0625 64.515625 
Q 19.53125 74.21875 31.78125 74.21875 
z
" id="DejaVuSans-48"/>
      </defs>
      <g transform="translate(51.129477 472.986437)scale(0.1 -0.1)">
       <use xlink:href="#DejaVuSans-48"/>
      </g>
     </g>
    </g>
    <g id="xtick_2">
     <g id="line2d_2">
      <g>
       <use style="stroke:#000000;stroke-width:0.8;" x="168.610505" xlink:href="#m34f8cfb250" y="458.388"/>
      </g>
     </g>
     <g id="text_2">
      <!-- 1 -->
      <defs>
       <path d="M 12.40625 8.296875 
L 28.515625 8.296875 
L 28.515625 63.921875 
L 10.984375 60.40625 
L 10.984375 69.390625 
L 28.421875 72.90625 
L 38.28125 72.90625 
L 38.28125 8.296875 
L 54.390625 8.296875 
L 54.390625 0 
L 12.40625 0 
z
" id="DejaVuSans-49"/>
      </defs>
      <g transform="translate(165.429255 472.986437)scale(0.1 -0.1)">
       <use xlink:href="#DejaVuSans-49"/>
      </g>
     </g>
    </g>
    <g id="xtick_3">
     <g id="line2d_3">
      <g>
       <use style="stroke:#000000;stroke-width:0.8;" x="282.910283" xlink:href="#m34f8cfb250" y="458.388"/>
      </g>
     </g>
     <g id="text_3">
      <!-- 2 -->
      <defs>
       <path d="M 19.1875 8.296875 
L 53.609375 8.296875 
L 53.609375 0 
L 7.328125 0 
L 7.328125 8.296875 
Q 12.9375 14.109375 22.625 23.890625 
Q 32.328125 33.6875 34.8125 36.53125 
Q 39.546875 41.84375 41.421875 45.53125 
Q 43.3125 49.21875 43.3125 52.78125 
Q 43.3125 58.59375 39.234375 62.25 
Q 35.15625 65.921875 28.609375 65.921875 
Q 23.96875 65.921875 18.8125 64.3125 
Q 13.671875 62.703125 7.8125 59.421875 
L 7.8125 69.390625 
Q 13.765625 71.78125 18.9375 73 
Q 24.125 74.21875 28.421875 74.21875 
Q 39.75 74.21875 46.484375 68.546875 
Q 53.21875 62.890625 53.21875 53.421875 
Q 53.21875 48.921875 51.53125 44.890625 
Q 49.859375 40.875 45.40625 35.40625 
Q 44.1875 33.984375 37.640625 27.21875 
Q 31.109375 20.453125 19.1875 8.296875 
z
" id="DejaVuSans-50"/>
      </defs>
      <g transform="translate(279.729033 472.986437)scale(0.1 -0.1)">
       <use xlink:href="#DejaVuSans-50"/>
      </g>
     </g>
    </g>
    <g id="xtick_4">
     <g id="line2d_4">
      <g>
       <use style="stroke:#000000;stroke-width:0.8;" x="397.210061" xlink:href="#m34f8cfb250" y="458.388"/>
      </g>
     </g>
     <g id="text_4">
      <!-- 3 -->
      <defs>
       <path d="M 40.578125 39.3125 
Q 47.65625 37.796875 51.625 33 
Q 55.609375 28.21875 55.609375 21.1875 
Q 55.609375 10.40625 48.1875 4.484375 
Q 40.765625 -1.421875 27.09375 -1.421875 
Q 22.515625 -1.421875 17.65625 -0.515625 
Q 12.796875 0.390625 7.625 2.203125 
L 7.625 11.71875 
Q 11.71875 9.328125 16.59375 8.109375 
Q 21.484375 6.890625 26.8125 6.890625 
Q 36.078125 6.890625 40.9375 10.546875 
Q 45.796875 14.203125 45.796875 21.1875 
Q 45.796875 27.640625 41.28125 31.265625 
Q 36.765625 34.90625 28.71875 34.90625 
L 20.21875 34.90625 
L 20.21875 43.015625 
L 29.109375 43.015625 
Q 36.375 43.015625 40.234375 45.921875 
Q 44.09375 48.828125 44.09375 54.296875 
Q 44.09375 59.90625 40.109375 62.90625 
Q 36.140625 65.921875 28.71875 65.921875 
Q 24.65625 65.921875 20.015625 65.03125 
Q 15.375 64.15625 9.8125 62.3125 
L 9.8125 71.09375 
Q 15.4375 72.65625 20.34375 73.4375 
Q 25.25 74.21875 29.59375 74.21875 
Q 40.828125 74.21875 47.359375 69.109375 
Q 53.90625 64.015625 53.90625 55.328125 
Q 53.90625 49.265625 50.4375 45.09375 
Q 46.96875 40.921875 40.578125 39.3125 
z
" id="DejaVuSans-51"/>
      </defs>
      <g transform="translate(394.028811 472.986437)scale(0.1 -0.1)">
       <use xlink:href="#DejaVuSans-51"/>
      </g>
     </g>
    </g>
    <g id="xtick_5">
     <g id="line2d_5">
      <g>
       <use style="stroke:#000000;stroke-width:0.8;" x="511.509839" xlink:href="#m34f8cfb250" y="458.388"/>
      </g>
     </g>
     <g id="text_5">
      <!-- 4 -->
      <defs>
       <path d="M 37.796875 64.3125 
L 12.890625 25.390625 
L 37.796875 25.390625 
z
M 35.203125 72.90625 
L 47.609375 72.90625 
L 47.609375 25.390625 
L 58.015625 25.390625 
L 58.015625 17.1875 
L 47.609375 17.1875 
L 47.609375 0 
L 37.796875 0 
L 37.796875 17.1875 
L 4.890625 17.1875 
L 4.890625 26.703125 
z
" id="DejaVuSans-52"/>
      </defs>
      <g transform="translate(508.328589 472.986437)scale(0.1 -0.1)">
       <use xlink:href="#DejaVuSans-52"/>
      </g>
     </g>
    </g>
    <g id="xtick_6">
     <g id="line2d_6">
      <g>
       <use style="stroke:#000000;stroke-width:0.8;" x="625.809617" xlink:href="#m34f8cfb250" y="458.388"/>
      </g>
     </g>
     <g id="text_6">
      <!-- 5 -->
      <defs>
       <path d="M 10.796875 72.90625 
L 49.515625 72.90625 
L 49.515625 64.59375 
L 19.828125 64.59375 
L 19.828125 46.734375 
Q 21.96875 47.46875 24.109375 47.828125 
Q 26.265625 48.1875 28.421875 48.1875 
Q 40.625 48.1875 47.75 41.5 
Q 54.890625 34.8125 54.890625 23.390625 
Q 54.890625 11.625 47.5625 5.09375 
Q 40.234375 -1.421875 26.90625 -1.421875 
Q 22.3125 -1.421875 17.546875 -0.640625 
Q 12.796875 0.140625 7.71875 1.703125 
L 7.71875 11.625 
Q 12.109375 9.234375 16.796875 8.0625 
Q 21.484375 6.890625 26.703125 6.890625 
Q 35.15625 6.890625 40.078125 11.328125 
Q 45.015625 15.765625 45.015625 23.390625 
Q 45.015625 31 40.078125 35.4375 
Q 35.15625 39.890625 26.703125 39.890625 
Q 22.75 39.890625 18.8125 39.015625 
Q 14.890625 38.140625 10.796875 36.28125 
z
" id="DejaVuSans-53"/>
      </defs>
      <g transform="translate(622.628367 472.986437)scale(0.1 -0.1)">
       <use xlink:href="#DejaVuSans-53"/>
      </g>
     </g>
    </g>
   </g>
   <g id="matplotlib.axis_2">
    <g id="ytick_1">
     <g id="line2d_7">
      <defs>
       <path d="M 0 0 
L -3.5 0 
" id="m441c8b99d2" style="stroke:#000000;stroke-width:0.8;"/>
      </defs>
      <g>
       <use style="stroke:#000000;stroke-width:0.8;" x="30.103125" xlink:href="#m441c8b99d2" y="447.185659"/>
      </g>
     </g>
     <g id="text_7">
      <!-- 0.0 -->
      <defs>
       <path d="M 10.6875 12.40625 
L 21 12.40625 
L 21 0 
L 10.6875 0 
z
" id="DejaVuSans-46"/>
      </defs>
      <g transform="translate(7.2 450.984878)scale(0.1 -0.1)">
       <use xlink:href="#DejaVuSans-48"/>
       <use x="63.623047" xlink:href="#DejaVuSans-46"/>
       <use x="95.410156" xlink:href="#DejaVuSans-48"/>
      </g>
     </g>
    </g>
    <g id="ytick_2">
     <g id="line2d_8">
      <g>
       <use style="stroke:#000000;stroke-width:0.8;" x="30.103125" xlink:href="#m441c8b99d2" y="391.283141"/>
      </g>
     </g>
     <g id="text_8">
      <!-- 0.5 -->
      <g transform="translate(7.2 395.08236)scale(0.1 -0.1)">
       <use xlink:href="#DejaVuSans-48"/>
       <use x="63.623047" xlink:href="#DejaVuSans-46"/>
       <use x="95.410156" xlink:href="#DejaVuSans-53"/>
      </g>
     </g>
    </g>
    <g id="ytick_3">
     <g id="line2d_9">
      <g>
       <use style="stroke:#000000;stroke-width:0.8;" x="30.103125" xlink:href="#m441c8b99d2" y="335.380623"/>
      </g>
     </g>
     <g id="text_9">
      <!-- 1.0 -->
      <g transform="translate(7.2 339.179842)scale(0.1 -0.1)">
       <use xlink:href="#DejaVuSans-49"/>
       <use x="63.623047" xlink:href="#DejaVuSans-46"/>
       <use x="95.410156" xlink:href="#DejaVuSans-48"/>
      </g>
     </g>
    </g>
    <g id="ytick_4">
     <g id="line2d_10">
      <g>
       <use style="stroke:#000000;stroke-width:0.8;" x="30.103125" xlink:href="#m441c8b99d2" y="279.478105"/>
      </g>
     </g>
     <g id="text_10">
      <!-- 1.5 -->
      <g transform="translate(7.2 283.277324)scale(0.1 -0.1)">
       <use xlink:href="#DejaVuSans-49"/>
       <use x="63.623047" xlink:href="#DejaVuSans-46"/>
       <use x="95.410156" xlink:href="#DejaVuSans-53"/>
      </g>
     </g>
    </g>
    <g id="ytick_5">
     <g id="line2d_11">
      <g>
       <use style="stroke:#000000;stroke-width:0.8;" x="30.103125" xlink:href="#m441c8b99d2" y="223.575587"/>
      </g>
     </g>
     <g id="text_11">
      <!-- 2.0 -->
      <g transform="translate(7.2 227.374806)scale(0.1 -0.1)">
       <use xlink:href="#DejaVuSans-50"/>
       <use x="63.623047" xlink:href="#DejaVuSans-46"/>
       <use x="95.410156" xlink:href="#DejaVuSans-48"/>
      </g>
     </g>
    </g>
    <g id="ytick_6">
     <g id="line2d_12">
      <g>
       <use style="stroke:#000000;stroke-width:0.8;" x="30.103125" xlink:href="#m441c8b99d2" y="167.673069"/>
      </g>
     </g>
     <g id="text_12">
      <!-- 2.5 -->
      <g transform="translate(7.2 171.472288)scale(0.1 -0.1)">
       <use xlink:href="#DejaVuSans-50"/>
       <use x="63.623047" xlink:href="#DejaVuSans-46"/>
       <use x="95.410156" xlink:href="#DejaVuSans-53"/>
      </g>
     </g>
    </g>
    <g id="ytick_7">
     <g id="line2d_13">
      <g>
       <use style="stroke:#000000;stroke-width:0.8;" x="30.103125" xlink:href="#m441c8b99d2" y="111.770551"/>
      </g>
     </g>
     <g id="text_13">
      <!-- 3.0 -->
      <g transform="translate(7.2 115.56977)scale(0.1 -0.1)">
       <use xlink:href="#DejaVuSans-51"/>
       <use x="63.623047" xlink:href="#DejaVuSans-46"/>
       <use x="95.410156" xlink:href="#DejaVuSans-48"/>
      </g>
     </g>
    </g>
    <g id="ytick_8">
     <g id="line2d_14">
      <g>
       <use style="stroke:#000000;stroke-width:0.8;" x="30.103125" xlink:href="#m441c8b99d2" y="55.868033"/>
      </g>
     </g>
     <g id="text_14">
      <!-- 3.5 -->
      <g transform="translate(7.2 59.667252)scale(0.1 -0.1)">
       <use xlink:href="#DejaVuSans-51"/>
       <use x="63.623047" xlink:href="#DejaVuSans-46"/>
       <use x="95.410156" xlink:href="#DejaVuSans-53"/>
      </g>
     </g>
    </g>
   </g>
   <g id="patch_3">
    <path d="M 30.103125 458.388 
L 30.103125 7.2 
" style="fill:none;stroke:#000000;stroke-linecap:square;stroke-linejoin:miter;stroke-width:0.8;"/>
   </g>
   <g id="patch_4">
    <path d="M 682.963125 458.388 
L 682.963125 7.2 
" style="fill:none;stroke:#000000;stroke-linecap:square;stroke-linejoin:miter;stroke-width:0.8;"/>
   </g>
   <g id="patch_5">
    <path d="M 30.103125 458.388 
L 682.963125 458.388 
" style="fill:none;stroke:#000000;stroke-linecap:square;stroke-linejoin:miter;stroke-width:0.8;"/>
   </g>
   <g id="patch_6">
    <path d="M 30.103125 7.2 
L 682.963125 7.2 
" style="fill:none;stroke:#000000;stroke-linecap:square;stroke-linejoin:miter;stroke-width:0.8;"/>
   </g>
   <g id="legend_1">
    <g id="patch_7">
     <path d="M 631.163125 45.478125 
L 675.963125 45.478125 
Q 677.963125 45.478125 677.963125 43.478125 
L 677.963125 14.2 
Q 677.963125 12.2 675.963125 12.2 
L 631.163125 12.2 
Q 629.163125 12.2 629.163125 14.2 
L 629.163125 43.478125 
Q 629.163125 45.478125 631.163125 45.478125 
z
" style="fill:#ffffff;opacity:0.8;stroke:#cccccc;stroke-linejoin:miter;"/>
    </g>
    <g id="patch_8">
     <path d="M 633.163125 23.798437 
L 653.163125 23.798437 
L 653.163125 16.798437 
L 633.163125 16.798437 
z
" style="fill:#0000ff;opacity:0.5;"/>
    </g>
    <g id="text_15">
     <!-- $\vec{v}$ -->
     <defs>
      <path d="M -47.015625 63.53125 
L -47.015625 68.40625 
L -10.84375 68.40625 
L -17.28125 75.984375 
L -11.140625 75.984375 
L -2.59375 65.96875 
L -11.140625 55.953125 
L -17.28125 55.953125 
L -10.84375 63.53125 
z
" id="DejaVuSans-8407"/>
      <path d="M 7.171875 54.6875 
L 16.703125 54.6875 
L 24.703125 8.203125 
L 50.875 54.6875 
L 60.40625 54.6875 
L 29.296875 0 
L 17.1875 0 
z
" id="DejaVuSans-Oblique-118"/>
     </defs>
     <g transform="translate(661.163125 23.798437)scale(0.1 -0.1)">
      <use transform="translate(61.810547 12.015625)" xlink:href="#DejaVuSans-8407"/>
      <use transform="translate(0 0.78125)" xlink:href="#DejaVuSans-Oblique-118"/>
     </g>
    </g>
    <g id="patch_9">
     <path d="M 633.163125 39.398437 
L 653.163125 39.398437 
L 653.163125 32.398437 
L 633.163125 32.398437 
z
" style="fill:#ff0000;opacity:0.5;"/>
    </g>
    <g id="text_16">
     <!-- $\vec{\Delta v}$ -->
     <defs>
      <path d="M 34.1875 63.1875 
L 14.15625 8.203125 
L 54.25 8.203125 
z
M 0.78125 0 
L 28.609375 72.90625 
L 39.796875 72.90625 
L 67.578125 0 
z
" id="DejaVuSans-916"/>
     </defs>
     <g transform="translate(661.163125 39.398437)scale(0.1 -0.1)">
      <use transform="translate(104.912598 30.015625)" xlink:href="#DejaVuSans-8407"/>
      <use transform="translate(0 0.5625)" xlink:href="#DejaVuSans-916"/>
      <use transform="translate(68.408203 0.5625)" xlink:href="#DejaVuSans-Oblique-118"/>
     </g>
    </g>
   </g>
  </g>
 </g>
 <defs>
  <clipPath id="pcbd5929e9d">
   <rect height="451.188" width="652.86" x="30.103125" y="7.2"/>
  </clipPath>
 </defs>
</svg>
