<?xml version="1.0" encoding="UTF-8" standalone="no"?>
<!DOCTYPE svg PUBLIC "-//W3C//DTD SVG 1.1//EN" "http://www.w3.org/Graphics/SVG/1.1/DTD/svg11.dtd">
<!-- Generated by graphviz version 2.40.1 (20161225.0304)
 -->
<!-- Title: %0 Pages: 1 -->
<svg width="412pt" height="264pt" viewBox="0.00 0.00 412.00 264.00" xmlns="http://www.w3.org/2000/svg" xmlns:xlink="http://www.w3.org/1999/xlink">
<g id="graph0" class="graph" transform="scale(1 1) rotate(0) translate(4 260)">
<title>%0</title>
<polygon fill="#ffffff" stroke="transparent" points="-4,4 -4,-260 408,-260 408,4 -4,4"/>
<!-- 140364686235520 -->
<g id="node1" class="node">
<title>140364686235520</title>
<path fill="#d3d3d3" stroke="#d3d3d3" d="M219.5,-219.5C219.5,-219.5 257.5,-219.5 257.5,-219.5 263.5,-219.5 269.5,-225.5 269.5,-231.5 269.5,-231.5 269.5,-243.5 269.5,-243.5 269.5,-249.5 263.5,-255.5 257.5,-255.5 257.5,-255.5 219.5,-255.5 219.5,-255.5 213.5,-255.5 207.5,-249.5 207.5,-243.5 207.5,-243.5 207.5,-231.5 207.5,-231.5 207.5,-225.5 213.5,-219.5 219.5,-219.5"/>
<text text-anchor="middle" x="217.25" y="-233.3" font-family="Times,serif" font-size="14.00" fill="#000000"> </text>
<polyline fill="none" stroke="#d3d3d3" points="227,-219.5 227,-255.5 "/>
<text text-anchor="middle" x="238.5" y="-233.3" font-family="Times,serif" font-size="14.00" fill="#000000">7</text>
<polyline fill="none" stroke="#d3d3d3" points="250,-219.5 250,-255.5 "/>
<text text-anchor="middle" x="259.75" y="-233.3" font-family="Times,serif" font-size="14.00" fill="#000000"> </text>
</g>
<!-- 140364686121408 -->
<g id="node2" class="node">
<title>140364686121408</title>
<path fill="#d3d3d3" stroke="#d3d3d3" d="M151,-146.5C151,-146.5 196,-146.5 196,-146.5 202,-146.5 208,-152.5 208,-158.5 208,-158.5 208,-170.5 208,-170.5 208,-176.5 202,-182.5 196,-182.5 196,-182.5 151,-182.5 151,-182.5 145,-182.5 139,-176.5 139,-170.5 139,-170.5 139,-158.5 139,-158.5 139,-152.5 145,-146.5 151,-146.5"/>
<text text-anchor="middle" x="148.75" y="-160.3" font-family="Times,serif" font-size="14.00" fill="#000000"> </text>
<polyline fill="none" stroke="#d3d3d3" points="158.5,-146.5 158.5,-182.5 "/>
<text text-anchor="middle" x="173.5" y="-160.3" font-family="Times,serif" font-size="14.00" fill="#000000">13</text>
<polyline fill="none" stroke="#d3d3d3" points="188.5,-146.5 188.5,-182.5 "/>
<text text-anchor="middle" x="198.25" y="-160.3" font-family="Times,serif" font-size="14.00" fill="#000000"> </text>
</g>
<!-- 140364686235520&#45;&gt;140364686121408 -->
<g id="edge1" class="edge">
<title>140364686235520:l-&gt;140364686121408:v</title>
<path fill="none" stroke="#000000" d="M217.5,-219.5C217.5,-198.1412 186.7532,-204.491 176.6644,-192.2241"/>
<polygon fill="#000000" stroke="#000000" points="179.9227,-190.9261 173.5,-182.5 173.2663,-193.0923 179.9227,-190.9261"/>
</g>
<!-- 140364686385088 -->
<g id="node3" class="node">
<title>140364686385088</title>
<path fill="#d3d3d3" stroke="#d3d3d3" d="M284.5,-146.5C284.5,-146.5 322.5,-146.5 322.5,-146.5 328.5,-146.5 334.5,-152.5 334.5,-158.5 334.5,-158.5 334.5,-170.5 334.5,-170.5 334.5,-176.5 328.5,-182.5 322.5,-182.5 322.5,-182.5 284.5,-182.5 284.5,-182.5 278.5,-182.5 272.5,-176.5 272.5,-170.5 272.5,-170.5 272.5,-158.5 272.5,-158.5 272.5,-152.5 278.5,-146.5 284.5,-146.5"/>
<text text-anchor="middle" x="282.25" y="-160.3" font-family="Times,serif" font-size="14.00" fill="#000000"> </text>
<polyline fill="none" stroke="#d3d3d3" points="292,-146.5 292,-182.5 "/>
<text text-anchor="middle" x="303.5" y="-160.3" font-family="Times,serif" font-size="14.00" fill="#000000">8</text>
<polyline fill="none" stroke="#d3d3d3" points="315,-146.5 315,-182.5 "/>
<text text-anchor="middle" x="324.75" y="-160.3" font-family="Times,serif" font-size="14.00" fill="#000000"> </text>
</g>
<!-- 140364686235520&#45;&gt;140364686385088 -->
<g id="edge2" class="edge">
<title>140364686235520:r-&gt;140364686385088:v</title>
<path fill="none" stroke="#000000" d="M259.5,-219.5C259.5,-198.1412 290.2468,-204.491 300.3356,-192.2241"/>
<polygon fill="#000000" stroke="#000000" points="303.7337,-193.0923 303.5,-182.5 297.0773,-190.9261 303.7337,-193.0923"/>
</g>
<!-- 140364686919712 -->
<g id="node4" class="node">
<title>140364686919712</title>
<path fill="#d3d3d3" stroke="#d3d3d3" d="M78.5,-73.5C78.5,-73.5 116.5,-73.5 116.5,-73.5 122.5,-73.5 128.5,-79.5 128.5,-85.5 128.5,-85.5 128.5,-97.5 128.5,-97.5 128.5,-103.5 122.5,-109.5 116.5,-109.5 116.5,-109.5 78.5,-109.5 78.5,-109.5 72.5,-109.5 66.5,-103.5 66.5,-97.5 66.5,-97.5 66.5,-85.5 66.5,-85.5 66.5,-79.5 72.5,-73.5 78.5,-73.5"/>
<text text-anchor="middle" x="76.25" y="-87.3" font-family="Times,serif" font-size="14.00" fill="#000000"> </text>
<polyline fill="none" stroke="#d3d3d3" points="86,-73.5 86,-109.5 "/>
<text text-anchor="middle" x="97.5" y="-87.3" font-family="Times,serif" font-size="14.00" fill="#000000">9</text>
<polyline fill="none" stroke="#d3d3d3" points="109,-73.5 109,-109.5 "/>
<text text-anchor="middle" x="118.75" y="-87.3" font-family="Times,serif" font-size="14.00" fill="#000000"> </text>
</g>
<!-- 140364686121408&#45;&gt;140364686919712 -->
<g id="edge3" class="edge">
<title>140364686121408:l-&gt;140364686919712:v</title>
<path fill="none" stroke="#000000" d="M148.5,-146.5C148.5,-122.6532 111.5169,-132.8966 100.5376,-119.1704"/>
<polygon fill="#000000" stroke="#000000" points="103.8359,-117.9915 97.5,-109.5 97.1577,-120.0893 103.8359,-117.9915"/>
</g>
<!-- 140364686927200 -->
<g id="node5" class="node">
<title>140364686927200</title>
<path fill="#d3d3d3" stroke="#d3d3d3" d="M179.5,-73.5C179.5,-73.5 217.5,-73.5 217.5,-73.5 223.5,-73.5 229.5,-79.5 229.5,-85.5 229.5,-85.5 229.5,-97.5 229.5,-97.5 229.5,-103.5 223.5,-109.5 217.5,-109.5 217.5,-109.5 179.5,-109.5 179.5,-109.5 173.5,-109.5 167.5,-103.5 167.5,-97.5 167.5,-97.5 167.5,-85.5 167.5,-85.5 167.5,-79.5 173.5,-73.5 179.5,-73.5"/>
<text text-anchor="middle" x="177.25" y="-87.3" font-family="Times,serif" font-size="14.00" fill="#000000"> </text>
<polyline fill="none" stroke="#d3d3d3" points="187,-73.5 187,-109.5 "/>
<text text-anchor="middle" x="198.5" y="-87.3" font-family="Times,serif" font-size="14.00" fill="#000000">6</text>
<polyline fill="none" stroke="#d3d3d3" points="210,-73.5 210,-109.5 "/>
<text text-anchor="middle" x="219.75" y="-87.3" font-family="Times,serif" font-size="14.00" fill="#000000"> </text>
</g>
<!-- 140364686121408&#45;&gt;140364686927200 -->
<g id="edge4" class="edge">
<title>140364686121408:r-&gt;140364686927200:v</title>
<path fill="none" stroke="#000000" d="M198.5,-146.5C198.5,-134.0382 198.5,-128.6592 198.5,-119.6281"/>
<polygon fill="#000000" stroke="#000000" points="202.0001,-119.5 198.5,-109.5 195.0001,-119.5 202.0001,-119.5"/>
</g>
<!-- 140364686927440 -->
<g id="node6" class="node">
<title>140364686927440</title>
<path fill="#d3d3d3" stroke="#d3d3d3" d="M260,-73.5C260,-73.5 305,-73.5 305,-73.5 311,-73.5 317,-79.5 317,-85.5 317,-85.5 317,-97.5 317,-97.5 317,-103.5 311,-109.5 305,-109.5 305,-109.5 260,-109.5 260,-109.5 254,-109.5 248,-103.5 248,-97.5 248,-97.5 248,-85.5 248,-85.5 248,-79.5 254,-73.5 260,-73.5"/>
<text text-anchor="middle" x="257.75" y="-87.3" font-family="Times,serif" font-size="14.00" fill="#000000"> </text>
<polyline fill="none" stroke="#d3d3d3" points="267.5,-73.5 267.5,-109.5 "/>
<text text-anchor="middle" x="282.5" y="-87.3" font-family="Times,serif" font-size="14.00" fill="#000000">10</text>
<polyline fill="none" stroke="#d3d3d3" points="297.5,-73.5 297.5,-109.5 "/>
<text text-anchor="middle" x="307.25" y="-87.3" font-family="Times,serif" font-size="14.00" fill="#000000"> </text>
</g>
<!-- 140364686385088&#45;&gt;140364686927440 -->
<g id="edge5" class="edge">
<title>140364686385088:l-&gt;140364686927440:v</title>
<path fill="none" stroke="#000000" d="M282.5,-146.5C282.5,-134.0382 282.5,-128.6592 282.5,-119.6281"/>
<polygon fill="#000000" stroke="#000000" points="286.0001,-119.5 282.5,-109.5 279.0001,-119.5 286.0001,-119.5"/>
</g>
<!-- 140364686921344 -->
<g id="node7" class="node">
<title>140364686921344</title>
<path fill="#d3d3d3" stroke="#d3d3d3" d="M347,-73.5C347,-73.5 392,-73.5 392,-73.5 398,-73.5 404,-79.5 404,-85.5 404,-85.5 404,-97.5 404,-97.5 404,-103.5 398,-109.5 392,-109.5 392,-109.5 347,-109.5 347,-109.5 341,-109.5 335,-103.5 335,-97.5 335,-97.5 335,-85.5 335,-85.5 335,-79.5 341,-73.5 347,-73.5"/>
<text text-anchor="middle" x="344.75" y="-87.3" font-family="Times,serif" font-size="14.00" fill="#000000"> </text>
<polyline fill="none" stroke="#d3d3d3" points="354.5,-73.5 354.5,-109.5 "/>
<text text-anchor="middle" x="369.5" y="-87.3" font-family="Times,serif" font-size="14.00" fill="#000000">12</text>
<polyline fill="none" stroke="#d3d3d3" points="384.5,-73.5 384.5,-109.5 "/>
<text text-anchor="middle" x="394.25" y="-87.3" font-family="Times,serif" font-size="14.00" fill="#000000"> </text>
</g>
<!-- 140364686385088&#45;&gt;140364686921344 -->
<g id="edge6" class="edge">
<title>140364686385088:r-&gt;140364686921344:v</title>
<path fill="none" stroke="#000000" d="M324.5,-146.5C324.5,-124.8555 355.9456,-131.6361 366.2637,-119.3185"/>
<polygon fill="#000000" stroke="#000000" points="369.6936,-120.0931 369.5,-109.5 363.0454,-117.9017 369.6936,-120.0931"/>
</g>
<!-- 140364686918512 -->
<g id="node8" class="node">
<title>140364686918512</title>
<path fill="#d3d3d3" stroke="#d3d3d3" d="M12,-.5C12,-.5 57,-.5 57,-.5 63,-.5 69,-6.5 69,-12.5 69,-12.5 69,-24.5 69,-24.5 69,-30.5 63,-36.5 57,-36.5 57,-36.5 12,-36.5 12,-36.5 6,-36.5 0,-30.5 0,-24.5 0,-24.5 0,-12.5 0,-12.5 0,-6.5 6,-.5 12,-.5"/>
<text text-anchor="middle" x="9.75" y="-14.3" font-family="Times,serif" font-size="14.00" fill="#000000"> </text>
<polyline fill="none" stroke="#d3d3d3" points="19.5,-.5 19.5,-36.5 "/>
<text text-anchor="middle" x="34.5" y="-14.3" font-family="Times,serif" font-size="14.00" fill="#000000">11</text>
<polyline fill="none" stroke="#d3d3d3" points="49.5,-.5 49.5,-36.5 "/>
<text text-anchor="middle" x="59.25" y="-14.3" font-family="Times,serif" font-size="14.00" fill="#000000"> </text>
</g>
<!-- 140364686919712&#45;&gt;140364686918512 -->
<g id="edge7" class="edge">
<title>140364686919712:l-&gt;140364686918512:v</title>
<path fill="none" stroke="#000000" d="M76.5,-73.5C76.5,-52.7044 47.1508,-58.205 37.5205,-46.0378"/>
<polygon fill="#000000" stroke="#000000" points="40.8559,-44.9766 34.5,-36.5 34.1825,-47.0901 40.8559,-44.9766"/>
</g>
<!-- 140364686927392 -->
<g id="node9" class="node">
<title>140364686927392</title>
<path fill="#d3d3d3" stroke="#d3d3d3" d="M99.5,-.5C99.5,-.5 137.5,-.5 137.5,-.5 143.5,-.5 149.5,-6.5 149.5,-12.5 149.5,-12.5 149.5,-24.5 149.5,-24.5 149.5,-30.5 143.5,-36.5 137.5,-36.5 137.5,-36.5 99.5,-36.5 99.5,-36.5 93.5,-36.5 87.5,-30.5 87.5,-24.5 87.5,-24.5 87.5,-12.5 87.5,-12.5 87.5,-6.5 93.5,-.5 99.5,-.5"/>
<text text-anchor="middle" x="97.25" y="-14.3" font-family="Times,serif" font-size="14.00" fill="#000000"> </text>
<polyline fill="none" stroke="#d3d3d3" points="107,-.5 107,-36.5 "/>
<text text-anchor="middle" x="118.5" y="-14.3" font-family="Times,serif" font-size="14.00" fill="#000000">1</text>
<polyline fill="none" stroke="#d3d3d3" points="130,-.5 130,-36.5 "/>
<text text-anchor="middle" x="139.75" y="-14.3" font-family="Times,serif" font-size="14.00" fill="#000000"> </text>
</g>
<!-- 140364686919712&#45;&gt;140364686927392 -->
<g id="edge8" class="edge">
<title>140364686919712:r-&gt;140364686927392:v</title>
<path fill="none" stroke="#000000" d="M118.5,-73.5C118.5,-61.0382 118.5,-55.6592 118.5,-46.6281"/>
<polygon fill="#000000" stroke="#000000" points="122.0001,-46.5 118.5,-36.5 115.0001,-46.5 122.0001,-46.5"/>
</g>
<!-- 140364686918704 -->
<g id="node10" class="node">
<title>140364686918704</title>
<path fill="#d3d3d3" stroke="#d3d3d3" d="M179.5,-.5C179.5,-.5 217.5,-.5 217.5,-.5 223.5,-.5 229.5,-6.5 229.5,-12.5 229.5,-12.5 229.5,-24.5 229.5,-24.5 229.5,-30.5 223.5,-36.5 217.5,-36.5 217.5,-36.5 179.5,-36.5 179.5,-36.5 173.5,-36.5 167.5,-30.5 167.5,-24.5 167.5,-24.5 167.5,-12.5 167.5,-12.5 167.5,-6.5 173.5,-.5 179.5,-.5"/>
<text text-anchor="middle" x="177.25" y="-14.3" font-family="Times,serif" font-size="14.00" fill="#000000"> </text>
<polyline fill="none" stroke="#d3d3d3" points="187,-.5 187,-36.5 "/>
<text text-anchor="middle" x="198.5" y="-14.3" font-family="Times,serif" font-size="14.00" fill="#000000">4</text>
<polyline fill="none" stroke="#d3d3d3" points="210,-.5 210,-36.5 "/>
<text text-anchor="middle" x="219.75" y="-14.3" font-family="Times,serif" font-size="14.00" fill="#000000"> </text>
</g>
<!-- 140364686927200&#45;&gt;140364686918704 -->
<g id="edge9" class="edge">
<title>140364686927200:l-&gt;140364686918704:v</title>
<path fill="none" stroke="#000000" d="M177.5,-73.5C177.5,-58.7277 190.3174,-55.995 195.925,-46.49"/>
<polygon fill="#000000" stroke="#000000" points="199.3931,-47.0571 198.5,-36.5 192.6147,-45.3099 199.3931,-47.0571"/>
</g>
</g>
</svg>