<?xml version="1.0" encoding="UTF-8" standalone="no"?>
<svg xmlns:inkscape="http://www.inkscape.org/namespaces/inkscape" xmlns:sodipodi="http://sodipodi.sourceforge.net/DTD/sodipodi-0.dtd" xmlns="http://www.w3.org/2000/svg" xmlns:svg="http://www.w3.org/2000/svg" version="1.1" width="700" height="344" style="clip-rule:evenodd;fill-rule:evenodd;image-rendering:optimizeQuality;shape-rendering:geometricPrecision;text-rendering:geometricPrecision" id="svg1070" sodipodi:docname="QUEUE_VS_STACK.svg" inkscape:version="1.1.1 (3bf5ae0d25, 2021-09-20, custom)">
  <defs id="defs1074"/>
  <sodipodi:namedview id="namedview1072" pagecolor="#ffffff" bordercolor="#666666" borderopacity="1.0" inkscape:pageshadow="2" inkscape:pageopacity="0.0" inkscape:pagecheckerboard="0" showgrid="false" inkscape:snap-text-baseline="true" inkscape:snap-nodes="true" inkscape:zoom="1.6265438" inkscape:cx="662.44757" inkscape:cy="226.55399" inkscape:window-width="960" inkscape:window-height="1015" inkscape:window-x="0" inkscape:window-y="0" inkscape:window-maximized="0" inkscape:current-layer="svg1070" width="700px"/>
  <g id="g12" transform="translate(-100.60116,-0.65964224)">
    <path style="opacity:1" fill="#3b5b97" d="m 717.5,15.5 c 10.282,-0.8225 20.282,0.3442 30,3.5 7.248,4.0816 12.582,9.915 16,17.5 1.333,0.6667 2.667,1.3333 4,2 -2.333,2.6667 -4.667,5.3333 -7,8 -3.774,-2.2706 -7.107,-5.1039 -10,-8.5 1.333,-0.3333 2.667,-0.6667 4,-1 -10.1,-18.4787 -24.434,-22.812 -43,-13 -7.046,5.8709 -10.713,13.3709 -11,22.5 -3,0 -6,0 -9,0 0.344,-10.8525 5.01,-19.3525 14,-25.5 3.99,-2.1416 7.99,-3.975 12,-5.5 z" id="path10"/>
  </g>
  <g id="g16" transform="translate(-100.60116,-0.65964224)">
    <path style="opacity:1" fill="#426fbf" d="m 741.5,20.5 c 0.751,-1.0735 1.751,-1.2401 3,-0.5 8.821,4.3129 15.154,10.9796 19,20 -2.545,4.5023 -5.211,4.5023 -8,0 -0.405,-9.2823 -5.072,-15.7823 -14,-19.5 z" id="path14"/>
  </g>
  <g id="g24" transform="translate(-100.60116,-0.65964224)">
    <path style="opacity:1" fill="#3b5b97" d="m 627.5,17.5 c 10.282,-0.8225 20.282,0.3442 30,3.5 7.248,4.0816 12.582,9.915 16,17.5 1.333,0.6667 2.667,1.3333 4,2 -2.333,2.6667 -4.667,5.3333 -7,8 -3.774,-2.2706 -7.107,-5.1039 -10,-8.5 1.333,-0.3333 2.667,-0.6667 4,-1 -10.1,-18.4787 -24.434,-22.812 -43,-13 -7.046,5.8709 -10.713,13.3709 -11,22.5 -3,0 -6,0 -9,0 0.344,-10.8525 5.01,-19.3525 14,-25.5 3.99,-2.1416 7.99,-3.975 12,-5.5 z" id="path22"/>
  </g>
  <g id="g28" transform="translate(-100.60116,-0.65964224)">
    <path style="opacity:1" fill="#426fbf" d="m 651.5,22.5 c 0.751,-1.0735 1.751,-1.2401 3,-0.5 8.821,4.3129 15.154,10.9796 19,20 -2.545,4.5023 -5.211,4.5023 -8,0 -0.405,-9.2823 -5.072,-15.7823 -14,-19.5 z" id="path26"/>
  </g>
  <g id="g148">
    <path style="opacity:1" fill="#c3c3c3" d="m 430.5,46.5 c -0.139,1.837 -0.806,2.1704 -2,1 0.457,-0.7975 1.124,-1.1309 2,-1 z" id="path146"/>
  </g>
  <g id="g244" transform="translate(-100.60116,-0.65964224)">
    <path style="opacity:1" fill="#2f528f" d="m 645.5,61.5 c 24.667,0 49.333,0 74,0 0,12 0,24 0,36 -24.667,0 -49.333,0 -74,0 0,-12 0,-24 0,-36 z" id="path242"/>
  </g>
  <g id="g248">
    <path style="opacity:1" fill="#ed7d31" d="m 128.5,61.5 c 0.951,1.4187 1.284,3.0853 1,5 276,0.3333 276,0.6667 0,1 0.16,1.6992 -0.006,3.3659 -0.5,5 -3.421,-1.9608 -6.921,-3.7941 -10.5,-5.5 3.556,-1.6076 6.889,-3.4409 10,-5.5 z" id="path246"/>
  </g>
  <g id="g252" transform="translate(-100.60116,-0.65964224)">
    <path style="opacity:1" fill="#4472c4" d="m 647.5,63.5 c 23.333,0 46.667,0 70,0 0,10.6667 0,21.3333 0,32 -23.333,0 -46.667,0 -70,0 0,-10.6667 0,-21.3333 0,-32 z" id="path250"/>
  </g>
  <switch style="font-style:normal;font-variant:normal;font-weight:bold;font-stretch:normal;font-size:16px;line-height:1.25;font-family:sans-serif;-inkscape-font-specification:'sans-serif Bold';letter-spacing:0px;word-spacing:0px;writing-mode:lr-tb;clip-rule:evenodd;fill:#ffffff;fill-opacity:1;fill-rule:evenodd;image-rendering:optimizeQuality;shape-rendering:geometricPrecision;text-rendering:geometricPrecision"><text xml:space="preserve" style="font-style:normal;font-variant:normal;font-weight:bold;font-stretch:normal;font-size:16px;line-height:1.25;font-family:sans-serif;-inkscape-font-specification:'sans-serif Bold';letter-spacing:0px;word-spacing:0px;writing-mode:lr-tb;clip-rule:evenodd;fill:#ffffff;fill-opacity:1;fill-rule:evenodd;image-rendering:optimizeQuality;shape-rendering:geometricPrecision;text-rendering:geometricPrecision" x="577.7027" y="85.67688" id="text95264-6-5"><tspan sodipodi:role="line" id="tspan95262-31-7" x="577.7027" y="85.67688">F</tspan></text></switch>
  <g id="g260">
    <path style="opacity:1" fill="#2f528f" d="m 116.5,89.5 c 12,0 24,0 36,0 0,24.667 0,49.333 0,74 -12,0 -24,0 -36,0 0,-24.667 0,-49.333 0,-74 z" id="path258"/>
  </g>
  <g id="g264">
    <path style="opacity:1" fill="#2f528f" d="m 155.5,89.5 c 12,0 24,0 36,0 0,24.667 0,49.333 0,74 -12,0 -24,0 -36,0 0,-24.667 0,-49.333 0,-74 z" id="path262"/>
  </g>
  <g id="g268">
    <path style="opacity:1" fill="#2f528f" d="m 194.5,89.5 c 12,0 24,0 36,0 0,24.667 0,49.333 0,74 -12,0 -24,0 -36,0 0,-24.667 0,-49.333 0,-74 z" id="path266"/>
  </g>
  <g id="g272">
    <path style="opacity:1" fill="#2f528f" d="m 233.5,89.5 c 12,0 24,0 36,0 0,24.667 0,49.333 0,74 -12,0 -24,0 -36,0 0,-24.667 0,-49.333 0,-74 z" id="path270"/>
  </g>
  <g id="g276">
    <path style="opacity:1" fill="#2f528f" d="m 272.5,89.5 c 12,0 24,0 36,0 0,24.667 0,49.333 0,74 -12,0 -24,0 -36,0 0,-24.667 0,-49.333 0,-74 z" id="path274"/>
  </g>
  <g id="g280">
    <path style="opacity:1" fill="#2f528f" d="m 311.5,89.5 c 12,0 24,0 36,0 0,24.667 0,49.333 0,74 -12,0 -24,0 -36,0 0,-24.667 0,-49.333 0,-74 z" id="path278"/>
  </g>
  <g id="g288">
    <path style="opacity:1" fill="#4472c4" d="m 118.5,91.5 c 10.667,0 21.333,0 32,0 0,23.333 0,46.667 0,70 -10.667,0 -21.333,0 -32,0 0,-23.333 0,-46.667 0,-70 z" id="path286"/>
  </g>
  <g id="g292">
    <path style="opacity:1" fill="#4472c4" d="m 157.5,91.5 c 10.667,0 21.333,0 32,0 0,23.333 0,46.667 0,70 -10.667,0 -21.333,0 -32,0 0,-23.333 0,-46.667 0,-70 z" id="path290"/>
  </g>
  <g id="g296">
    <path style="opacity:1" fill="#4472c4" d="m 196.5,91.5 c 10.667,0 21.333,0 32,0 0,23.333 0,46.667 0,70 -10.667,0 -21.333,0 -32,0 0,-23.333 0,-46.667 0,-70 z" id="path294"/>
  </g>
  <g id="g300">
    <path style="opacity:1" fill="#4472c4" d="m 235.5,91.5 c 10.667,0 21.333,0 32,0 0,23.333 0,46.667 0,70 -10.667,0 -21.333,0 -32,0 0,-23.333 0,-46.667 0,-70 z" id="path298"/>
  </g>
  <g id="g304">
    <path style="opacity:1" fill="#4472c4" d="m 274.5,91.5 c 10.667,0 21.333,0 32,0 0,23.333 0,46.667 0,70 -10.667,0 -21.333,0 -32,0 0,-23.333 0,-46.667 0,-70 z" id="path302"/>
  </g>
  <g id="g308">
    <path style="opacity:1" fill="#4472c4" d="m 313.5,91.5 c 10.667,0 21.333,0 32,0 0,23.333 0,46.667 0,70 -10.667,0 -21.333,0 -32,0 0,-23.333 0,-46.667 0,-70 z" id="path306"/>
  </g>
  <g id="g312">
    <path style="opacity:1" fill="#395a96" d="m 362.5,117.5 c -1.333,-3.667 -1.333,-7.333 0,-11 4.679,-0.166 9.345,0.001 14,0.5 -1.333,1 -2.667,2 -4,3 13.519,7.264 25.686,5.431 36.5,-5.5 7.381,-11.7346 7.214,-23.2346 -0.5,-34.5 1.97,-2.3157 4.304,-4.1491 7,-5.5 4.548,4.7632 6.548,10.4298 6,17 0.35,7.2672 -1.483,13.9338 -5.5,20 -7.226,8.573 -16.059,14.74 -26.5,18.5 -8.568,1.387 -16.735,0.22 -24.5,-3.5 -0.902,0.243 -1.735,0.577 -2.5,1 z" id="path310"/>
  </g>
  <g id="g316" transform="translate(-100.60116,-0.65964224)">
    <path style="opacity:1" fill="#2f528f" d="m 645.5,100.5 c 24.667,0 49.333,0 74,0 0,12 0,24 0,36 -24.667,0 -49.333,0 -74,0 0,-12 0,-24 0,-36 z" id="path314"/>
  </g>
  <g id="g320" transform="translate(-100.60116,-0.65964224)">
    <path style="opacity:1" fill="#4472c4" d="m 647.5,102.5 c 23.333,0 46.667,0 70,0 0,10.667 0,21.333 0,32 -23.333,0 -46.667,0 -70,0 0,-10.667 0,-21.333 0,-32 z" id="path318"/>
  </g>
  <switch style="font-style:normal;font-variant:normal;font-weight:bold;font-stretch:normal;font-size:16px;line-height:1.25;font-family:sans-serif;-inkscape-font-specification:'sans-serif Bold';letter-spacing:0px;word-spacing:0px;writing-mode:lr-tb;clip-rule:evenodd;fill:#ffffff;fill-opacity:1;fill-rule:evenodd;image-rendering:optimizeQuality;shape-rendering:geometricPrecision;text-rendering:geometricPrecision"><text xml:space="preserve" style="font-style:normal;font-variant:normal;font-weight:bold;font-stretch:normal;font-size:16px;line-height:1.25;font-family:sans-serif;-inkscape-font-specification:'sans-serif Bold';letter-spacing:0px;word-spacing:0px;writing-mode:lr-tb;clip-rule:evenodd;fill:#ffffff;fill-opacity:1;fill-rule:evenodd;image-rendering:optimizeQuality;shape-rendering:geometricPrecision;text-rendering:geometricPrecision" x="579.05865" y="124.23929" id="text95264-44-7"><tspan sodipodi:role="line" id="tspan95262-7-8" x="579.05865" y="124.23929">E</tspan></text></switch>
  <g id="g328">
    <path style="opacity:1" fill="#4270c0" d="m 363.5,108.5 c 2.357,-0.163 4.69,0.003 7,0.5 -1.211,0.893 -1.211,1.726 0,2.5 6.459,3.662 13.459,5.495 21,5.5 -9.595,2.864 -18.595,1.698 -27,-3.5 -0.952,-1.545 -1.285,-3.212 -1,-5 z" id="path326"/>
  </g>
  <g id="g340" transform="translate(-100.60116,-0.65964224)">
    <path style="opacity:1" fill="#f8c4a2" d="m 742.5,119.5 c -0.995,11.488 -1.328,23.155 -1,35 -1.164,-30.497 -1.331,-61.1639 -0.5,-92 1.406,18.9632 1.906,37.963 1.5,57 z" id="path338"/>
  </g>
  <g id="g348">
    <path style="opacity:1" fill="#98a9c7" d="m 362.5,106.5 c -1.333,3.667 -1.333,7.333 0,11 -0.283,0.789 -0.783,1.456 -1.5,2 -0.828,-4.702 -0.662,-9.369 0.5,-14 0.607,0.124 0.94,0.457 1,1 z" id="path346"/>
  </g>
  <switch style="font-style:normal;font-variant:normal;font-weight:bold;font-stretch:normal;font-size:16px;line-height:1.25;font-family:sans-serif;-inkscape-font-specification:'sans-serif Bold';letter-spacing:0px;word-spacing:0px;writing-mode:lr-tb;clip-rule:evenodd;fill:#ffffff;fill-opacity:1;fill-rule:evenodd;image-rendering:optimizeQuality;shape-rendering:geometricPrecision;text-rendering:geometricPrecision"><text xml:space="preserve" style="font-style:normal;font-variant:normal;font-weight:bold;font-stretch:normal;font-size:16px;line-height:1.25;font-family:sans-serif;-inkscape-font-specification:'sans-serif Bold';letter-spacing:0px;word-spacing:0px;writing-mode:lr-tb;clip-rule:evenodd;fill:#ffffff;fill-opacity:1;fill-rule:evenodd;image-rendering:optimizeQuality;shape-rendering:geometricPrecision;text-rendering:geometricPrecision" x="322.298" y="133.57703" id="text95264-6"><tspan sodipodi:role="line" id="tspan95262-31" x="322.298" y="133.57703">F</tspan></text></switch>
  <switch style="font-style:normal;font-variant:normal;font-weight:bold;font-stretch:normal;font-size:16px;line-height:1.25;font-family:sans-serif;-inkscape-font-specification:'sans-serif Bold';letter-spacing:0px;word-spacing:0px;writing-mode:lr-tb;clip-rule:evenodd;fill:#ffffff;fill-opacity:1;fill-rule:evenodd;image-rendering:optimizeQuality;shape-rendering:geometricPrecision;text-rendering:geometricPrecision"><text xml:space="preserve" style="font-style:normal;font-variant:normal;font-weight:bold;font-stretch:normal;font-size:16px;line-height:1.25;font-family:sans-serif;-inkscape-font-specification:'sans-serif Bold';letter-spacing:0px;word-spacing:0px;writing-mode:lr-tb;clip-rule:evenodd;fill:#ffffff;fill-opacity:1;fill-rule:evenodd;image-rendering:optimizeQuality;shape-rendering:geometricPrecision;text-rendering:geometricPrecision" x="284.40509" y="133.10764" id="text95264-44"><tspan sodipodi:role="line" id="tspan95262-7" x="284.40509" y="133.10764">E</tspan></text></switch>
  <switch style="font-style:normal;font-variant:normal;font-weight:bold;font-stretch:normal;font-size:16px;line-height:1.25;font-family:sans-serif;-inkscape-font-specification:'sans-serif Bold';letter-spacing:0px;word-spacing:0px;writing-mode:lr-tb;clip-rule:evenodd;fill:#ffffff;fill-opacity:1;fill-rule:evenodd;image-rendering:optimizeQuality;shape-rendering:geometricPrecision;text-rendering:geometricPrecision"><text xml:space="preserve" style="font-style:normal;font-variant:normal;font-weight:bold;font-stretch:normal;font-size:16px;line-height:1.25;font-family:sans-serif;-inkscape-font-specification:'sans-serif Bold';letter-spacing:0px;word-spacing:0px;writing-mode:lr-tb;clip-rule:evenodd;fill:#ffffff;fill-opacity:1;fill-rule:evenodd;image-rendering:optimizeQuality;shape-rendering:geometricPrecision;text-rendering:geometricPrecision" x="206.65967" y="132.41878" id="text95264-0"><tspan sodipodi:role="line" id="tspan95262-3" x="206.65967" y="132.41878">C</tspan></text></switch>
  <switch style="font-style:normal;font-variant:normal;font-weight:bold;font-stretch:normal;font-size:16px;line-height:1.25;font-family:sans-serif;-inkscape-font-specification:'sans-serif Bold';letter-spacing:0px;word-spacing:0px;writing-mode:lr-tb;clip-rule:evenodd;fill:#ffffff;fill-opacity:1;fill-rule:evenodd;image-rendering:optimizeQuality;shape-rendering:geometricPrecision;text-rendering:geometricPrecision"><text xml:space="preserve" style="font-style:normal;font-variant:normal;font-weight:bold;font-stretch:normal;font-size:16px;line-height:1.25;font-family:sans-serif;-inkscape-font-specification:'sans-serif Bold';letter-spacing:0px;word-spacing:0px;writing-mode:lr-tb;clip-rule:evenodd;fill:#ffffff;fill-opacity:1;fill-rule:evenodd;image-rendering:optimizeQuality;shape-rendering:geometricPrecision;text-rendering:geometricPrecision" x="244.25475" y="132.91219" id="text95264-04"><tspan sodipodi:role="line" id="tspan95262-4" x="244.25475" y="132.91219">D</tspan></text></switch>
  <g id="g392">
    <path style="opacity:1" fill="#3c5c97" d="m 75.5,121.5 c 8.6202,-0.681 16.2868,1.652 23,7 1.021,0.502 1.1877,1.168 0.5,2 -1.6837,1.851 -3.5171,3.518 -5.5,5 -7.0594,-6.654 -15.3927,-8.821 -25,-6.5 -11.6011,3.268 -18.7678,10.768 -21.5,22.5 -0.6667,4 -0.6667,8 0,12 1.1544,2.457 2.4877,2.457 4,0 0.0514,3.657 -0.282,7.323 -1,11 -3.2755,2.42 -6.7755,2.587 -10.5,0.5 1.3045,-0.804 1.9712,-1.971 2,-3.5 -3.5285,-10.933 -1.6952,-20.933 5.5,-30 7.6697,-9.559 17.1697,-16.226 28.5,-20 z" id="path390"/>
  </g>
  <switch style="font-style:normal;font-variant:normal;font-weight:bold;font-stretch:normal;font-size:16px;line-height:1.25;font-family:sans-serif;-inkscape-font-specification:'sans-serif Bold';letter-spacing:0px;word-spacing:0px;writing-mode:lr-tb;clip-rule:evenodd;fill:#ffffff;fill-opacity:1;fill-rule:evenodd;image-rendering:optimizeQuality;shape-rendering:geometricPrecision;text-rendering:geometricPrecision"><text xml:space="preserve" style="font-style:normal;font-variant:normal;font-weight:bold;font-stretch:normal;font-size:16px;line-height:1.25;font-family:sans-serif;-inkscape-font-specification:'sans-serif Bold';letter-spacing:0px;word-spacing:0px;writing-mode:lr-tb;clip-rule:evenodd;fill:#ffffff;fill-opacity:1;fill-rule:evenodd;image-rendering:optimizeQuality;shape-rendering:geometricPrecision;text-rendering:geometricPrecision" x="166.59824" y="132.28952" id="text95264-4"><tspan sodipodi:role="line" id="tspan95262-81" x="166.59824" y="132.28952">B</tspan></text></switch>
  <g id="g404" transform="translate(-100.60116,-0.65964224)">
    <path style="opacity:1" fill="#2f528f" d="m 645.5,139.5 c 24.667,0 49.333,0 74,0 0,12 0,24 0,36 -24.667,0 -49.333,0 -74,0 0,-12 0,-24 0,-36 z" id="path402"/>
  </g>
  <g id="g408" transform="translate(-100.60116,-0.65964224)">
    <path style="opacity:1" fill="#4472c4" d="m 647.5,141.5 c 23.333,0 46.667,0 70,0 0,10.667 0,21.333 0,32 -23.333,0 -46.667,0 -70,0 0,-10.667 0,-21.333 0,-32 z" id="path406"/>
  </g>
  <switch style="font-style:normal;font-variant:normal;font-weight:bold;font-stretch:normal;font-size:16px;line-height:1.25;font-family:sans-serif;-inkscape-font-specification:'sans-serif Bold';letter-spacing:0px;word-spacing:0px;writing-mode:lr-tb;clip-rule:evenodd;fill:#ffffff;fill-opacity:1;fill-rule:evenodd;image-rendering:optimizeQuality;shape-rendering:geometricPrecision;text-rendering:geometricPrecision"><text xml:space="preserve" style="font-style:normal;font-variant:normal;font-weight:bold;font-stretch:normal;font-size:16px;line-height:1.25;font-family:sans-serif;-inkscape-font-specification:'sans-serif Bold';letter-spacing:0px;word-spacing:0px;writing-mode:lr-tb;clip-rule:evenodd;fill:#ffffff;fill-opacity:1;fill-rule:evenodd;image-rendering:optimizeQuality;shape-rendering:geometricPrecision;text-rendering:geometricPrecision" x="576.36945" y="160.68358" id="text95264-04-2"><tspan sodipodi:role="line" id="tspan95262-4-1" x="576.36945" y="160.68358">D</tspan></text></switch>
  <g id="g424">
    <path style="opacity:1" fill="#416ebe" d="m 45.5,146.5 c 0.5967,0.235 0.9301,0.735 1,1.5 -1.8523,4.69 -2.3523,9.523 -1.5,14.5 1.4805,3.946 2.6472,7.946 3.5,12 -1.6667,0 -3.3333,0 -5,0 -0.4233,-4.196 -1.09,-8.363 -2,-12.5 0.5133,-5.408 1.8467,-10.575 4,-15.5 z" id="path422"/>
  </g>
  <g id="g448" transform="translate(-100.60116,-0.65964224)">
    <path style="opacity:1" fill="#2f528f" d="m 645.5,178.5 c 24.667,0 49.333,0 74,0 0,12 0,24 0,36 -24.667,0 -49.333,0 -74,0 0,-12 0,-24 0,-36 z" id="path446"/>
  </g>
  <g id="g468" transform="translate(-100.60116,-0.65964224)">
    <path style="opacity:1" fill="#4472c4" d="m 647.5,180.5 c 23.333,0 46.667,0 70,0 0,10.667 0,21.333 0,32 -23.333,0 -46.667,0 -70,0 0,-10.667 0,-21.333 0,-32 z" id="path466"/>
  </g>
  <switch style="font-style:normal;font-variant:normal;font-weight:bold;font-stretch:normal;font-size:16px;line-height:1.25;font-family:sans-serif;-inkscape-font-specification:'sans-serif Bold';letter-spacing:0px;word-spacing:0px;writing-mode:lr-tb;clip-rule:evenodd;fill:#ffffff;fill-opacity:1;fill-rule:evenodd;image-rendering:optimizeQuality;shape-rendering:geometricPrecision;text-rendering:geometricPrecision"><text xml:space="preserve" style="font-style:normal;font-variant:normal;font-weight:bold;font-stretch:normal;font-size:16px;line-height:1.25;font-family:sans-serif;-inkscape-font-specification:'sans-serif Bold';letter-spacing:0px;word-spacing:0px;writing-mode:lr-tb;clip-rule:evenodd;fill:#ffffff;fill-opacity:1;fill-rule:evenodd;image-rendering:optimizeQuality;shape-rendering:geometricPrecision;text-rendering:geometricPrecision" x="575.16003" y="199.9626" id="text95264-0-9"><tspan sodipodi:role="line" id="tspan95262-3-6" x="575.16003" y="199.9626">C</tspan></text></switch>
  <g id="g580"/>
  <g id="g592" transform="translate(-100.60116,-0.65964224)">
    <path style="opacity:1" fill="#2f528f" d="m 645.5,216.5 c 24.667,0 49.333,0 74,0 0,12 0,24 0,36 -24.667,0 -49.333,0 -74,0 0,-12 0,-24 0,-36 z" id="path590"/>
  </g>
  <g id="g600"/>
  <g id="g608" transform="translate(-100.60116,-0.65964224)">
    <path style="opacity:1" fill="#4472c4" d="m 647.5,218.5 c 23.333,0 46.667,0 70,0 0,10.667 0,21.333 0,32 -23.333,0 -46.667,0 -70,0 0,-10.667 0,-21.333 0,-32 z" id="path606"/>
  </g>
  <switch style="font-style:normal;font-variant:normal;font-weight:bold;font-stretch:normal;font-size:16px;line-height:1.25;font-family:sans-serif;-inkscape-font-specification:'sans-serif Bold';letter-spacing:0px;word-spacing:0px;writing-mode:lr-tb;clip-rule:evenodd;fill:#ffffff;fill-opacity:1;fill-rule:evenodd;image-rendering:optimizeQuality;shape-rendering:geometricPrecision;text-rendering:geometricPrecision"><text xml:space="preserve" style="font-style:normal;font-variant:normal;font-weight:bold;font-stretch:normal;font-size:16px;line-height:1.25;font-family:sans-serif;-inkscape-font-specification:'sans-serif Bold';letter-spacing:0px;word-spacing:0px;writing-mode:lr-tb;clip-rule:evenodd;fill:#ffffff;fill-opacity:1;fill-rule:evenodd;image-rendering:optimizeQuality;shape-rendering:geometricPrecision;text-rendering:geometricPrecision" x="576.36371" y="240.13985" id="text95264-4-7"><tspan sodipodi:role="line" id="tspan95262-81-5" x="576.36371" y="240.13985">B</tspan></text></switch>
  <g id="g652" transform="translate(-14.933454,-0.5515906)">
    <path style="opacity:1" fill="#fafafa" d="m 514.5,220.5 c 5.168,0.839 6.168,3.339 3,7.5 -0.948,0.483 -1.948,0.649 -3,0.5 0,-2.667 0,-5.333 0,-8 z" id="path650"/>
  </g>
  <g id="g708"/>
  <g id="g736" transform="translate(-100.60116,-0.65964224)">
    <path style="opacity:1" fill="#f6b489" d="m 742.5,119.5 c 0.453,47.332 0.786,94.666 1,142 -0.333,0 -0.667,0 -1,0 -0.96,-35.649 -1.294,-71.316 -1,-107 -0.328,-11.845 0.005,-23.512 1,-35 z" id="path734"/>
  </g>
  <g id="g812" transform="translate(-100.60116,-0.65964224)">
    <path style="opacity:1" fill="#2f528f" d="m 645.5,254.5 c 24.667,0 49.333,0 74,0 0,12 0,24 0,36 -24.667,0 -49.333,0 -74,0 0,-12 0,-24 0,-36 z" id="path810"/>
  </g>
  <g id="g824" transform="translate(-100.60116,-0.65964224)">
    <path style="opacity:1" fill="#4472c4" d="m 647.5,256.5 c 23.333,0 46.667,0 70,0 0,10.667 0,21.333 0,32 -23.333,0 -46.667,0 -70,0 0,-10.667 0,-21.333 0,-32 z" id="path822"/>
  </g>
  <g id="g908" transform="translate(-14.933454,-0.5515906)">
    <path style="opacity:1" fill="#fafafa" d="m 493.5,262.5 c 5.168,0.839 6.168,3.339 3,7.5 -0.948,0.483 -1.948,0.649 -3,0.5 0,-2.667 0,-5.333 0,-8 z" id="path906"/>
  </g>
  <switch style="font-style:normal;font-variant:normal;font-weight:bold;font-stretch:normal;font-size:16px;line-height:1.25;font-family:sans-serif;-inkscape-font-specification:'sans-serif Bold';letter-spacing:0px;word-spacing:0px;writing-mode:lr-tb;clip-rule:evenodd;fill:#ffffff;fill-opacity:1;fill-rule:evenodd;image-rendering:optimizeQuality;shape-rendering:geometricPrecision;text-rendering:geometricPrecision"><text xml:space="preserve" style="font-style:normal;font-variant:normal;font-weight:bold;font-stretch:normal;font-size:16px;line-height:1.25;font-family:sans-serif;-inkscape-font-specification:'sans-serif Bold';letter-spacing:0px;word-spacing:0px;writing-mode:lr-tb;clip-rule:evenodd;fill:#ffffff;fill-opacity:1;fill-rule:evenodd;image-rendering:optimizeQuality;shape-rendering:geometricPrecision;text-rendering:geometricPrecision" x="576.37726" y="278.7735" id="text95264-9"><tspan sodipodi:role="line" id="tspan95262-8" x="576.37726" y="278.7735">A</tspan></text></switch>
  <g id="g1032" transform="translate(-100.60116,-0.65964224)">
    <path style="opacity:1" fill="#ef8843" d="m 742.5,261.5 c 0.333,0 0.667,0 1,0 0,5.333 0,10.667 0,16 1.788,-0.285 3.455,0.048 5,1 -1.833,3.667 -3.667,7.333 -5.5,11 -2.146,-3.941 -3.979,-7.941 -5.5,-12 1.667,0 3.333,0 5,0 0,-5.333 0,-10.667 0,-16 z" id="path1030"/>
  </g>
  <switch style="font-style:normal;font-variant:normal;font-weight:normal;font-stretch:normal;font-size:16px;line-height:1.25;font-family:sans-serif;-inkscape-font-specification:sans-serif;letter-spacing:0px;word-spacing:0px"><text xml:space="preserve" style="font-style:normal;font-variant:normal;font-weight:normal;font-stretch:normal;font-size:16px;line-height:1.25;font-family:sans-serif;-inkscape-font-specification:sans-serif;letter-spacing:0px;word-spacing:0px" x="12.663601" y="198.87602" id="text12584-fr" systemLanguage="fr"><tspan sodipodi:role="line" id="tspan12582-fr" x="12.663601" y="198.87602">Défile</tspan></text><text xml:space="preserve" style="font-style:normal;font-variant:normal;font-weight:normal;font-stretch:normal;font-size:16px;line-height:1.25;font-family:sans-serif;-inkscape-font-specification:sans-serif;letter-spacing:0px;word-spacing:0px" x="12.663601" y="198.87602" id="text12584"><tspan sodipodi:role="line" id="tspan12582" x="12.663601" y="198.87602">Dequeue</tspan></text></switch>
  <switch style="font-size:16px;line-height:1.25;font-family:sans-serif;letter-spacing:0px;word-spacing:0px"><text xml:space="preserve" style="font-size:16px;line-height:1.25;font-family:sans-serif;letter-spacing:0px;word-spacing:0px" x="142.19315" y="58.996487" id="text40052-fr" systemLanguage="fr"><tspan sodipodi:role="line" id="tspan40050-fr" x="142.19315" y="58.996487">Premier entré, premier sorti</tspan></text><text xml:space="preserve" style="font-size:16px;line-height:1.25;font-family:sans-serif;letter-spacing:0px;word-spacing:0px" x="142.19315" y="58.996487" id="text40052"><tspan sodipodi:role="line" id="tspan40050" x="142.19315" y="58.996487">First in first out (FIFO)</tspan></text></switch>
  <switch style="font-size:16px;line-height:1.25;font-family:sans-serif;letter-spacing:0px;word-spacing:0px"><text xml:space="preserve" style="font-size:16px;line-height:1.25;font-family:sans-serif;letter-spacing:0px;word-spacing:0px" x="303.62793" y="242.61505" id="text47704-fr" systemLanguage="fr"><tspan sodipodi:role="line" id="tspan47702-fr" x="303.62793" y="242.61505">File [A,B,C,D,E,F]</tspan></text><text xml:space="preserve" style="font-size:16px;line-height:1.25;font-family:sans-serif;letter-spacing:0px;word-spacing:0px" x="303.62793" y="242.61505" id="text47704"><tspan sodipodi:role="line" id="tspan47702" x="303.62793" y="242.61505">Queue [A,B,C,D,E,F]</tspan></text></switch>
  <switch style="font-size:16px;line-height:1.25;font-family:sans-serif;letter-spacing:0px;word-spacing:0px"><text xml:space="preserve" style="font-size:16px;line-height:1.25;font-family:sans-serif;letter-spacing:0px;word-spacing:0px" x="304.41577" y="277.68207" id="text53874-fr" systemLanguage="fr"><tspan sodipodi:role="line" id="tspan53872-fr" x="304.41577" y="277.68207">Pile [F,E,D,C,B,A]</tspan></text><text xml:space="preserve" style="font-size:16px;line-height:1.25;font-family:sans-serif;letter-spacing:0px;word-spacing:0px" x="304.41577" y="277.68207" id="text53874"><tspan sodipodi:role="line" id="tspan53872" x="304.41577" y="277.68207">Stack [F,E,D,C,B,A]</tspan></text></switch>
  <switch style="font-size:16px;line-height:1.25;font-family:sans-serif;letter-spacing:0px;word-spacing:0px"><text xml:space="preserve" style="font-size:16px;line-height:1.25;font-family:sans-serif;letter-spacing:0px;word-spacing:0px" x="193.96275" y="193.53365" id="text61150-fr" systemLanguage="fr"><tspan sodipodi:role="line" id="tspan61148-fr" x="193.96275" y="193.53365">File</tspan></text><text xml:space="preserve" style="font-size:16px;line-height:1.25;font-family:sans-serif;letter-spacing:0px;word-spacing:0px" x="193.96275" y="193.53365" id="text61150"><tspan sodipodi:role="line" id="tspan61148" x="193.96275" y="193.53365">QUEUE</tspan></text></switch>
  <switch style="font-size:16px;line-height:1.25;font-family:sans-serif;letter-spacing:0px;word-spacing:0px"><text xml:space="preserve" style="font-size:16px;line-height:1.25;font-family:sans-serif;letter-spacing:0px;word-spacing:0px" x="380.37616" y="55.442986" id="text64696-fr" systemLanguage="fr"><tspan sodipodi:role="line" id="tspan64694-fr" x="380.37616" y="55.442986">Enfile</tspan></text><text xml:space="preserve" style="font-size:16px;line-height:1.25;font-family:sans-serif;letter-spacing:0px;word-spacing:0px" x="380.37616" y="55.442986" id="text64696"><tspan sodipodi:role="line" id="tspan64694" x="380.37616" y="55.442986">Enqueue</tspan></text></switch>
  <switch style="font-size:16px;line-height:1.25;font-family:sans-serif;letter-spacing:0px;word-spacing:0px"><text xml:space="preserve" style="font-size:16px;line-height:1.25;font-family:sans-serif;letter-spacing:0px;word-spacing:0px" x="485.2341" y="68.369461" id="text67230-fr" systemLanguage="fr"><tspan sodipodi:role="line" id="tspan67228-fr" x="485.2341" y="68.369461">Empile</tspan></text><text xml:space="preserve" style="font-size:16px;line-height:1.25;font-family:sans-serif;letter-spacing:0px;word-spacing:0px" x="485.2341" y="68.369461" id="text67230"><tspan sodipodi:role="line" id="tspan67228" x="485.2341" y="68.369461">Push</tspan></text></switch>
  <switch style="font-size:16px;line-height:1.25;font-family:sans-serif;letter-spacing:0px;word-spacing:0px"><text xml:space="preserve" style="font-size:16px;line-height:1.25;font-family:sans-serif;letter-spacing:0px;word-spacing:0px" x="640.39886" y="61.840359" id="text72256-fr" systemLanguage="fr"><tspan sodipodi:role="line" id="tspan72254-fr" x="640.39886" y="61.840359">Dépile</tspan></text><text xml:space="preserve" style="font-size:16px;line-height:1.25;font-family:sans-serif;letter-spacing:0px;word-spacing:0px" x="640.39886" y="61.840359" id="text72256"><tspan sodipodi:role="line" id="tspan72254" x="640.39886" y="61.840359">Pop</tspan></text></switch>
  <switch style="font-size:16px;line-height:1.25;font-family:sans-serif;letter-spacing:0px;word-spacing:0px"><text xml:space="preserve" style="font-size:16px;line-height:1.25;font-family:sans-serif;letter-spacing:0px;word-spacing:0px" x="556.03296" y="317.25403" id="text77386-fr" systemLanguage="fr"><tspan sodipodi:role="line" id="tspan77384-fr" x="556.03296" y="317.25403">Pile</tspan></text><text xml:space="preserve" style="font-size:16px;line-height:1.25;font-family:sans-serif;letter-spacing:0px;word-spacing:0px" x="556.03296" y="317.25403" id="text77386"><tspan sodipodi:role="line" id="tspan77384" x="556.03296" y="317.25403">STACK</tspan></text></switch>
  <switch style="font-size:16px;line-height:1.25;font-family:sans-serif;letter-spacing:0px;word-spacing:0px;writing-mode:lr-tb;direction:ltr;stroke-width:0.999999"><text xml:space="preserve" style="font-size:16px;line-height:1.25;font-family:sans-serif;letter-spacing:0px;word-spacing:0px;writing-mode:lr-tb;direction:ltr;stroke-width:0.999999" x="83.590141" y="-650.35083" id="text84290-fr" transform="rotate(90.163468)" systemLanguage="fr"><tspan sodipodi:role="line" id="tspan84288-fr" x="83.590141" y="-650.35083" style="writing-mode:lr-tb;direction:ltr;stroke-width:0.999999">Dernier arrivé, premier sorti</tspan></text><text xml:space="preserve" style="font-size:16px;line-height:1.25;font-family:sans-serif;letter-spacing:0px;word-spacing:0px;writing-mode:lr-tb;direction:ltr;stroke-width:0.999999" x="83.590141" y="-650.35083" id="text84290" transform="rotate(90.163468)"><tspan sodipodi:role="line" id="tspan84288" x="83.590141" y="-650.35083" style="writing-mode:lr-tb;direction:ltr;stroke-width:0.999999">Last in first out (LIFO)</tspan></text></switch>
  <switch style="font-style:normal;font-variant:normal;font-weight:bold;font-stretch:normal;font-size:16px;line-height:1.25;font-family:sans-serif;-inkscape-font-specification:'sans-serif Bold';letter-spacing:0px;word-spacing:0px;writing-mode:lr-tb;fill:#ffffff;fill-opacity:1"><text xml:space="preserve" style="font-style:normal;font-variant:normal;font-weight:bold;font-stretch:normal;font-size:16px;line-height:1.25;font-family:sans-serif;-inkscape-font-specification:'sans-serif Bold';letter-spacing:0px;word-spacing:0px;writing-mode:lr-tb;fill:#ffffff;fill-opacity:1" x="128.05328" y="132.65048" id="text95264"><tspan sodipodi:role="line" id="tspan95262" x="128.05328" y="132.65048">A</tspan></text></switch>
</svg>
