<?xml version="1.0" encoding="UTF-8" standalone="no"?>
<svg
   xmlns:dc="http://purl.org/dc/elements/1.1/"
   xmlns:cc="http://creativecommons.org/ns#"
   xmlns:rdf="http://www.w3.org/1999/02/22-rdf-syntax-ns#"
   xmlns:svg="http://www.w3.org/2000/svg"
   xmlns="http://www.w3.org/2000/svg"
   xmlns:sodipodi="http://sodipodi.sourceforge.net/DTD/sodipodi-0.dtd"
   xmlns:inkscape="http://www.inkscape.org/namespaces/inkscape"
   xml:space="preserve"
   width="1150px"
   height="1020px"
   viewBox="0 0 1150 1020"
   id="svg2"
   version="1.1"
   inkscape:version="0.48.0 r9654"
   sodipodi:docname="World_population_(UN)_French.svg"><metadata
   id="metadata168"><rdf:RDF><cc:Work
       rdf:about=""><dc:format>image/svg+xml</dc:format><dc:type
         rdf:resource="http://purl.org/dc/dcmitype/StillImage" /><dc:title /></cc:Work></rdf:RDF></metadata><defs
   id="defs166" /><sodipodi:namedview
   pagecolor="#ffffff"
   bordercolor="#666666"
   borderopacity="1"
   objecttolerance="10"
   gridtolerance="10"
   guidetolerance="10"
   inkscape:pageopacity="0"
   inkscape:pageshadow="2"
   inkscape:window-width="1280"
   inkscape:window-height="980"
   id="namedview164"
   showgrid="false"
   inkscape:zoom="0.32"
   inkscape:cx="900.11761"
   inkscape:cy="367.56592"
   inkscape:window-x="-4"
   inkscape:window-y="-4"
   inkscape:window-maximized="1"
   inkscape:current-layer="g92" />

<g
   stroke="gray"
   id="g4">
<line
   x1="100"
   x2="1100"
   y1="50"
   y2="50"
   id="line6" />
<line
   x1="100"
   x2="1100"
   y1="140.3"
   y2="140.3"
   id="line8" />
<line
   x1="100"
   x2="1100"
   y1="259.7"
   y2="259.7"
   id="line10" />
<line
   x1="100"
   x2="1100"
   y1="350"
   y2="350"
   id="line12" />
<line
   x1="100"
   x2="1100"
   y1="440.3"
   y2="440.3"
   id="line14" />
<line
   x1="100"
   x2="1100"
   y1="559.7"
   y2="559.7"
   id="line16" />
<line
   x1="100"
   x2="1100"
   y1="650"
   y2="650"
   id="line18" />
<line
   x1="100"
   x2="1100"
   y1="740.3"
   y2="740.3"
   id="line20" />
<line
   x1="100"
   x2="1100"
   y1="859.7"
   y2="859.7"
   id="line22" />

<line
   x1="200"
   x2="200"
   y1="20"
   y2="950"
   id="line24" />
<line
   x1="300"
   x2="300"
   y1="20"
   y2="950"
   id="line26" />
<line
   x1="400"
   x2="400"
   y1="20"
   y2="950"
   id="line28" />
<line
   x1="500"
   x2="500"
   y1="20"
   y2="950"
   id="line30" />
<line
   x1="600"
   x2="600"
   y1="20"
   y2="950"
   id="line32" />
<line
   x1="700"
   x2="700"
   y1="20"
   y2="950"
   id="line34" />
<line
   x1="800"
   x2="800"
   y1="20"
   y2="950"
   id="line36" />
<line
   x1="900"
   x2="900"
   y1="20"
   y2="950"
   id="line38" />
<line
   x1="1000"
   x2="1000"
   y1="20"
   y2="950"
   id="line40" />
</g>
<rect
   width="1000"
   height="930"
   x="100"
   y="20"
   fill="none"
   stroke="black"
   stroke-width="2"
   id="rect42" />

<g
   font-family="sans-serif"
   font-size="30"
   fill="black"
   id="g44">
<text
   x="7"
   y="60"
   id="text46">10000</text>


<text
   x="23"
   y="150.3"
   id="text48">5000</text>


<text
   x="23"
   y="269.7"
   id="text50">2000</text>


<text
   x="23"
   y="360"
   id="text52">1000</text>


<text
   x="39"
   y="450.3"
   id="text54">500</text>


<text
   x="39"
   y="569.7"
   id="text56">200</text>


<text
   x="39"
   y="660"
   id="text58">100</text>


<text
   x="55"
   y="750.3"
   id="text60">50</text>


<text
   x="55"
   y="869.7"
   id="text62">20</text>


<text
   x="55"
   y="960"
   id="text64">10</text>


<text
   x="65"
   y="1000"
   id="text66">1950</text>


<text
   x="165"
   y="1000"
   id="text68">1960</text>


<text
   x="265"
   y="1000"
   id="text70">1970</text>


<text
   x="365"
   y="1000"
   id="text72">1980</text>


<text
   x="465"
   y="1000"
   id="text74">1990</text>


<text
   x="565"
   y="1000"
   id="text76">2000</text>


<text
   x="665"
   y="1000"
   id="text78">2010</text>


<text
   x="765"
   y="1000"
   id="text80">2020</text>


<text
   x="865"
   y="1000"
   id="text82">2030</text>


<text
   x="965"
   y="1000"
   id="text84">2040</text>


<text
   x="1065"
   y="1000"
   id="text86">2050</text>


</g>

<g
   transform="translate(100, 50)"
   id="g88">
<g
   transform="scale(10, -10)"
   id="g90">
<g
   transform="translate(-1950, -210)"
   id="g92">

<!-- World -->
<!-- x-coordinate is simply year. y-coordinate is 30*lg(population/1000) [logarithmic scale] -->
<!-- this path represents low and high variants (low variant is in the reverse order) -->
<path
   fill="purple"
   opacity="0.3"
   d="M 2005,204.42  L 2010,205.29  L 2015,206.18  L 2020,207.03  L 2025,207.80  L 2030,208.50  L 2035,209.14  L 2040,209.77  L 2045,210.38  L 2050,210.94  L 2050,206.74  L 2045,206.85  L 2040,206.88  L 2035,206.81  L 2030,206.64  L 2025,206.37  L 2020,206.01  L 2015,205.58  L 2010,205.05  Z"
   id="path94" />
<!-- this path represents medium variant -->
<path
   stroke="purple"
   stroke-width="0.3"
   fill="none"
   d="M 1950,192.12  L 1955,193.28  L 1960,194.45  L 1965,195.72  L 1970,197.04  L 1975,198.31  L 1980,199.46  L 1985,200.59  L 1990,201.72  L 1995,202.72  L 2000,203.61  L 2005,204.42  L 2010,205.18  L 2015,205.89  L 2020,206.54  L 2025,207.11  L 2030,207.60  L 2035,208.02  L 2040,208.37  L 2045,208.66  L 2050,208.90"
   id="path96" />
<!-- this path represents constant-fertility variant -->
<path
   stroke="purple"
   stroke-width="0.3"
   fill="none"
   stroke-dasharray="1"
   d="M 2005,204.41  L 2010,205.24  L 2015,206.10  L 2020,206.96  L 2025,207.79  L 2030,208.62  L 2035,209.46  L 2040,210.34  L 2045,211.25  L 2050,212.22"
   id="path98" />
<g
   transform="matrix(1,0,0,-1,-7.0710678,3.6460194)"
   id="g100">
<text
   x="1961"
   y="-197.5"
   font-size="3"
   id="text102"
   style="font-size:3px;fill:#800080;font-family:sans-serif"><tspan
     style="font-size:7.19999981px"
     id="tspan3175">Monde</tspan></text>


</g>
	
<!-- Africa -->
<path
   fill="black"
   opacity="0.3"
   d="M 2005,178.94  L 2010,180.51  L 2015,182.06  L 2020,183.56  L 2025,184.95  L 2030,186.26  L 2035,187.50  L 2040,188.69  L 2045,189.81  L 2050,190.86  L 2050,187.04  L 2045,186.59  L 2040,186.02  L 2035,185.35  L 2030,184.56  L 2025,183.65  L 2020,182.64  L 2015,181.53  L 2010,180.30  Z"
   id="path104" />
<path
   stroke="black"
   stroke-width="0.3"
   fill="none"
   d="M 1950,160.519184472357  L 1955,161.97  L 1960,163.51  L 1965,165.13  L 1970,166.83  L 1975,168.58  L 1980,170.43  L 1985,172.31  L 1990,174.13  L 1995,175.83  L 2000,177.42  L 2005,178.94  L 2010,180.41  L 2015,181.81  L 2020,183.11  L 2025,184.32  L 2030,185.44  L 2035,186.46  L 2040,187.40  L 2045,188.25  L 2050,189.01"
   id="path106" />
<path
   stroke="black"
   stroke-width="0.3"
   fill="none"
   stroke-dasharray="1"
   d="M 2005,178.94  L 2010,180.54  L 2015,182.23  L 2020,183.97  L 2025,185.73  L 2030,187.54  L 2035,189.40  L 2040,191.33  L 2045,193.32  L 2050,195.35"
   id="path108" />
<g
   transform="matrix(1,0,0,-1,63.41864,22.318058)"
   id="g110">
<text
   x="1889.7578"
   y="509.15756"
   font-size="3"
   id="text112"
   style="font-size:4.62304878px;fill:#000000;font-family:sans-serif"
   transform="matrix(0.94040204,-0.34006471,0.34006471,0.94040204,0,0)"><tspan
     style="font-size:7.19999981px"
     id="tspan3173">Afrique</tspan></text>


</g>
	
<!-- Asia -->
<path
   fill="gold"
   opacity="0.3"
   d="M 2005,197.85  L 2010,198.70  L 2015,199.56  L 2020,200.38  L 2025,201.09  L 2030,201.71  L 2035,202.26  L 2040,202.78  L 2045,203.28  L 2050,203.74  L 2050,199.43  L 2045,199.67  L 2040,199.82  L 2035,199.87  L 2030,199.80  L 2025,199.61  L 2020,199.32  L 2015,198.95  L 2010,198.46  Z"
   id="path114" />
<path
   stroke="gold"
   stroke-width="0.3"
   fill="none"
   d="M 1950,184.48  L 1955,185.72  L 1960,186.95  L 1965,188.35  L 1970,189.9  L 1975,191.37  L 1980,192.63  L 1985,193.85  L 1990,195.08  L 1995,196.14  L 2000,197.06  L 2005,197.86  L 2010,198.59  L 2015,199.27  L 2020,199.87  L 2025,200.38  L 2030,200.79  L 2035,201.1  L 2040,201.35  L 2045,201.53  L 2050,201.64"
   id="path116" />
<path
   stroke="gold"
   stroke-width="0.3"
   fill="none"
   stroke-dasharray="1"
   d="M 2005,197.86  L 2010,198.67  L 2015,199.49  L 2020,200.29  L 2025,201.02  L 2030,201.72  L 2035,202.39  L 2040,203.07  L 2045,203.75  L 2050,204.44"
   id="path118" />
<g
   transform="matrix(2.400655,0,0,-2.400655,-2804.854,-277.23425)"
   id="g120">
<text
   x="1981"
   y="-190"
   font-size="3"
   id="text122"
   style="font-size:3px;fill:#ffd700;font-family:sans-serif"><tspan
     style="font-size:2.99918151px"
     id="tspan3169">Asie</tspan></text>


</g>
	
<!-- Europe -->
<path
   fill="blue"
   opacity="0.3"
   d="M 2005,175.92  L 2010,176.02  L 2015,176.13  L 2020,176.23  L 2025,176.29  L 2030,176.33  L 2035,176.38  L 2040,176.47  L 2045,176.59  L 2050,176.72  L 2050,172.59  L 2045,173.18  L 2040,173.71  L 2035,174.17  L 2030,174.57  L 2025,174.93  L 2020,175.26  L 2015,175.56  L 2010,175.79  Z"
   id="path124" />
<path
   stroke="blue"
   stroke-width="0.3"
   fill="none"
   d="M 1950,172.17  L 1955,172.81  L 1960,173.46  L 1965,174.08  L 1970,174.52  L 1975,174.91  L 1980,175.23  L 1985,175.47  L 1990,175.74  L 1995,175.87  L 2000,175.87  L 2005,175.92  L 2010,175.91  L 2015,175.85  L 2020,175.76  L 2025,175.63  L 2030,175.48  L 2035,175.31  L 2040,175.11  L 2045,174.9  L 2050,174.67"
   id="path126" />
<path
   stroke="blue"
   stroke-width="0.3"
   fill="none"
   stroke-dasharray="1"
   d="M 2005,175.92  L 2010,175.89  L 2015,175.8  L 2020,175.65  L 2025,175.46  L 2030,175.24  L 2035,174.97  L 2040,174.66  L 2045,174.3  L 2050,173.9"
   id="path128" />
<g
   transform="matrix(1.5807372,0,0,-1.5807372,-1140.986,-100.53768)"
   id="g130">
<text
   x="1970"
   y="-176"
   font-size="3"
   id="text132"
   style="font-size:3px;fill:#0000ff;font-family:sans-serif"><tspan
     style="font-size:4.55483675px"
     id="tspan3171">Europe</tspan></text>


</g>
	
<!-- Latin America -->
<path
   fill="red"
   opacity="0.3"
   d="M 2005,172.4  L 2010,173.33  L 2015,174.25  L 2020,175.11  L 2025,175.88  L 2030,176.57  L 2035,177.21  L 2040,177.8  L 2045,178.34  L 2050,178.83  L 2050,174.2  L 2045,174.45  L 2040,174.6  L 2035,174.63  L 2030,174.54  L 2025,174.33  L 2020,174.01  L 2015,173.61  L 2010,173.08  Z"
   id="path134" />
<path
   stroke="red"
   stroke-width="0.3"
   fill="none"
   d="M 1950,156.73  L 1955,158.5  L 1960,160.28  L 1965,162.09  L 1970,163.76  L 1975,165.35  L 1980,166.85  L 1985,168.21  L 1990,169.43  L 1995,170.54  L 2000,171.56  L 2005,172.4  L 2010,173.21  L 2015,173.94  L 2020,174.58  L 2025,175.13  L 2030,175.59  L 2035,175.96  L 2040,176.25  L 2045,176.45  L 2050,176.58"
   id="path136" />
<path
   stroke="red"
   stroke-width="0.3"
   fill="none"
   stroke-dasharray="1"
   d="M 2005,172.4  L 2010,173.29  L 2015,174.17  L 2020,175.01  L 2025,175.8  L 2030,176.54  L 2035,177.25  L 2040,177.92  L 2045,178.56  L 2050,179.18"
   id="path138" />
<g
   transform="matrix(0.96372314,0.26690397,0.26690397,-0.96372314,85.416591,-541.60118)"
   id="g140">
<text
   x="1982.0732"
   y="-164.9064"
   font-size="3"
   id="text142"
   style="font-size:3px;fill:#ff0000;font-family:sans-serif"><tspan
     style="font-size:7.19999981px"
     id="tspan3177">Amerique Latine</tspan></text>


</g>
	
<!-- Northern America -->
<path
   fill="brown"
   opacity="0.3"
   d="M 2005,165.64  L 2010,166.38  L 2015,167.12  L 2020,167.84  L 2025,168.49  L 2030,169.09  L 2035,169.68  L 2040,170.26  L 2045,170.83  L 2050,171.41  L 2050,167.45  L 2045,167.5  L 2040,167.52  L 2035,167.46  L 2030,167.34  L 2025,167.14  L 2020,166.88  L 2015,166.57  L 2010,166.16  Z"
   id="path144" />
<path
   stroke="brown"
   stroke-width="0.3"
   fill="none"
   d="M 1950,157.04  L 1955,158.15  L 1960,159.3  L 1965,160.22  L 1970,160.96  L 1975,161.59  L 1980,162.22  L 1985,162.89  L 1990,163.6  L 1995,164.3  L 2000,164.98  L 2005,165.64  L 2010,166.27  L 2015,166.84  L 2020,167.37  L 2025,167.83  L 2030,168.24  L 2035,168.6  L 2040,168.92  L 2045,169.2  L 2050,169.46"
   id="path146" />
<path
   stroke="brown"
   stroke-width="0.3"
   fill="none"
   stroke-dasharray="1"
   d="M 2005,165.64  L 2010,166.26  L 2015,166.85  L 2020,167.41  L 2025,167.92  L 2030,168.39  L 2035,168.81  L 2040,169.19  L 2045,169.54  L 2050,169.88"
   id="path148" />
<g
   transform="matrix(1,0,0,-1,7.4025242,-1.9887378)"
   id="g150">
<g
   style="font-size:7.19999981px;fill:#a52a2a;font-family:sans-serif"
   id="text152" />

<g
   transform="matrix(0.1,0,0,0.1,1935.8788,-219.95749)"
   style="font-size:72px;font-style:normal;font-weight:normal;line-height:125%;letter-spacing:0px;word-spacing:0px;fill:#800000;fill-opacity:1;stroke:none;font-family:Sans"
   id="flowRoot3183"><path
     d="m 710.47266,584.84879 19.79296,-51.53906 7.34766,0 21.09375,51.53906 -7.76953,0 -6.01172,-15.60937 -21.55078,0 -5.66016,15.60937 z m 14.87109,-21.16406 17.47266,0 -5.37891,-14.27344 c -1.64065,-4.3359 -2.8594,-7.89839 -3.65625,-10.6875 -0.65627,3.30473 -1.58205,6.58598 -2.77734,9.84375 z"
     style="text-align:center;text-anchor:middle"
     id="path3077" /><path
     d="m 763.41797,584.84879 0,-37.33594 5.66015,0 0,5.23828 c 1.17187,-1.82809 2.73046,-3.29879 4.67579,-4.41211 1.94529,-1.11324 4.16013,-1.66988 6.64453,-1.66992 2.7656,4e-5 5.03317,0.57426 6.80273,1.72266 1.7695,1.14847 3.01755,2.75394 3.74414,4.81641 2.95309,-4.35934 6.79684,-6.53903 11.53125,-6.53907 3.70308,4e-5 6.55073,1.02543 8.54297,3.07617 1.99213,2.05082 2.98823,5.20902 2.98828,9.47461 l 0,25.62891 -6.29297,0 0,-23.51953 c -5e-5,-2.53122 -0.20512,-4.35349 -0.61523,-5.4668 -0.4102,-1.11325 -1.15434,-2.00973 -2.23242,-2.68945 -1.07817,-0.67966 -2.3438,-1.0195 -3.79688,-1.01953 -2.62504,3e-5 -4.80472,0.87308 -6.53906,2.61914 -1.73441,1.74612 -2.6016,4.54104 -2.60156,8.38476 l 0,21.69141 -6.32813,0 0,-24.25781 c -2e-5,-2.81248 -0.51565,-4.92185 -1.54687,-6.32813 -1.03128,-1.40622 -2.71878,-2.10934 -5.0625,-2.10937 -1.78127,3e-5 -3.42775,0.46878 -4.93946,1.40625 -1.51173,0.93753 -2.60743,2.30862 -3.28711,4.11328 -0.67969,1.80471 -1.01954,4.40627 -1.01953,7.80469 l 0,19.37109 z"
     style="text-align:center;text-anchor:middle"
     id="path3079" /><path
     d="m 849.02344,572.82535 6.53906,0.8086 c -1.03129,3.82032 -2.94144,6.78516 -5.73047,8.89453 -2.78909,2.10937 -6.35159,3.16406 -10.6875,3.16406 -5.46095,0 -9.79103,-1.68164 -12.99023,-5.04492 -3.19923,-3.36328 -4.79883,-8.08007 -4.79883,-14.15039 0,-6.28123 1.61718,-11.15622 4.85156,-14.625 3.23437,-3.46872 7.42967,-5.20309 12.58594,-5.20313 4.99216,4e-5 9.07028,1.69926 12.23437,5.09766 3.16403,3.39847 4.74606,8.17971 4.7461,14.34375 -4e-5,0.37502 -0.0118,0.93752 -0.0352,1.6875 l -27.84375,0 c 0.23437,4.10157 1.39452,7.2422 3.48047,9.42187 2.08592,2.1797 4.68748,3.26954 7.80469,3.26954 2.32029,0 4.30075,-0.60937 5.9414,-1.82813 1.6406,-1.21874 2.94138,-3.16405 3.90235,-5.83594 z m -20.77735,-10.23047 20.84766,0 c -0.28128,-3.1406 -1.07815,-5.49606 -2.39063,-7.0664 -2.01565,-2.43747 -4.62892,-3.65622 -7.83984,-3.65625 -2.90627,3e-5 -5.34962,0.97269 -7.33008,2.91797 -1.98048,1.94534 -3.07618,4.5469 -3.28711,7.80468 z"
     style="text-align:center;text-anchor:middle"
     id="path3081" /><path
     d="m 863.47266,584.84879 0,-37.33594 5.69531,0 0,5.66016 c 1.45311,-2.6484 2.79491,-4.3945 4.02539,-5.23828 1.23045,-0.84371 2.58397,-1.26559 4.06055,-1.26563 2.13279,4e-5 4.30075,0.67973 6.5039,2.03907 l -2.17969,5.87109 c -1.54689,-0.91403 -3.09376,-1.37106 -4.64062,-1.37109 -1.38283,3e-5 -2.62502,0.41604 -3.72656,1.24804 -1.10158,0.83206 -1.88673,1.98636 -2.35547,3.46289 -0.70314,2.25003 -1.0547,4.71096 -1.05469,7.38282 l 0,19.54687 z"
     style="text-align:center;text-anchor:middle"
     id="path3083" /><path
     d="m 887.625,540.58707 0,-7.27734 6.32812,0 0,7.27734 z m 0,44.26172 0,-37.33594 6.32812,0 0,37.33594 z"
     style="text-align:center;text-anchor:middle"
     id="path3085" /><path
     d="m 927.42187,599.15738 0,-18.28125 c -0.9844,1.38282 -2.36135,2.53126 -4.13085,3.44532 -1.76956,0.91406 -3.65042,1.37109 -5.64258,1.37109 -4.4297,0 -8.24415,-1.76953 -11.44336,-5.30859 -3.19922,-3.53906 -4.79883,-8.39062 -4.79883,-14.55469 0,-3.74998 0.65039,-7.11326 1.95117,-10.08984 1.30078,-2.97654 3.18749,-5.23239 5.66016,-6.76758 2.47264,-1.53512 5.18553,-2.3027 8.13867,-2.30274 4.61716,4e-5 8.24997,1.94535 10.89844,5.83594 l 0,-4.99219 5.69531,0 0,51.64453 z m -19.51171,-33.08203 c -10e-6,4.8047 1.0078,8.40822 3.02343,10.81055 2.01561,2.40235 4.42967,3.60352 7.24219,3.60352 2.69529,0 5.0156,-1.14258 6.96094,-3.42774 1.94528,-2.28515 2.91794,-5.75975 2.91797,-10.42383 -3e-5,-4.96872 -1.02542,-8.707 -3.07617,-11.21484 -2.05081,-2.50778 -4.45901,-3.76169 -7.22461,-3.76172 -2.74221,3e-5 -5.06838,1.16605 -6.97852,3.49805 -1.91017,2.33206 -2.86524,5.97072 -2.86523,10.91601 z"
     style="text-align:center;text-anchor:middle"
     id="path3087" /><path
     d="m 968.16797,584.84879 0,-5.48437 c -2.90628,4.21875 -6.85549,6.32812 -11.84766,6.32812 -2.20314,0 -4.25978,-0.42188 -6.16992,-1.26562 -1.91016,-0.84375 -3.32813,-1.9043 -4.25391,-3.18165 -0.92578,-1.27733 -1.57617,-2.84179 -1.95117,-4.69335 -0.25781,-1.24218 -0.38672,-3.21093 -0.38672,-5.90625 l 0,-23.13282 6.32813,0 0,20.70703 c -10e-6,3.3047 0.12889,5.53127 0.38672,6.67969 0.39842,1.66407 1.24217,2.97071 2.53125,3.91992 1.28904,0.94923 2.88279,1.42384 4.78125,1.42383 1.89841,10e-6 3.67966,-0.48632 5.34375,-1.45898 1.66403,-0.97265 2.84177,-2.29687 3.5332,-3.97266 0.69138,-1.67577 1.03708,-4.10741 1.03711,-7.29492 l 0,-20.00391 6.32812,0 0,37.33594 z"
     style="text-align:center;text-anchor:middle"
     id="path3089" /><path
     d="m 1009.3359,572.82535 6.5391,0.8086 c -1.0313,3.82032 -2.9414,6.78516 -5.7305,8.89453 -2.7891,2.10937 -6.3516,3.16406 -10.68747,3.16406 -5.46095,0 -9.79103,-1.68164 -12.99023,-5.04492 -3.19923,-3.36328 -4.79883,-8.08007 -4.79883,-14.15039 0,-6.28123 1.61718,-11.15622 4.85156,-14.625 3.23437,-3.46872 7.42967,-5.20309 12.58594,-5.20313 4.99213,4e-5 9.07033,1.69926 12.23433,5.09766 3.1641,3.39847 4.7461,8.17971 4.7461,14.34375 0,0.37502 -0.012,0.93752 -0.035,1.6875 l -27.84377,0 c 0.23437,4.10157 1.39452,7.2422 3.48047,9.42187 2.08592,2.1797 4.68748,3.26954 7.80469,3.26954 2.32031,0 4.30071,-0.60937 5.94141,-1.82813 1.6406,-1.21874 2.9414,-3.16405 3.9023,-5.83594 z m -20.77731,-10.23047 20.84761,0 c -0.2812,-3.1406 -1.0781,-5.49606 -2.3906,-7.0664 -2.0156,-2.43747 -4.6289,-3.65622 -7.83982,-3.65625 -2.90627,3e-5 -5.34962,0.97269 -7.33008,2.91797 -1.98048,1.94534 -3.07618,4.5469 -3.28711,7.80468 z"
     style="text-align:center;text-anchor:middle"
     id="path3091" /><path
     d="m 775.61719,674.84879 0,-4.71094 c -2.36722,3.70313 -5.84768,5.55469 -10.44141,5.55469 -2.97658,0 -5.7129,-0.82031 -8.20898,-2.46094 -2.4961,-1.64062 -4.4297,-3.93163 -5.80078,-6.87304 -1.3711,-2.9414 -2.05665,-6.32225 -2.05665,-10.14258 0,-3.72654 0.6211,-7.1074 1.86329,-10.14258 1.24218,-3.03512 3.10546,-5.36129 5.58984,-6.97852 2.48436,-1.61715 5.2617,-2.42574 8.33203,-2.42578 2.24998,4e-5 4.25388,0.47465 6.01172,1.42383 1.75779,0.94926 3.18747,2.18558 4.28906,3.70899 l 0,-18.49219 6.29297,0 0,51.53906 z m -20.00391,-18.63281 c -10e-6,4.78126 1.0078,8.35548 3.02344,10.72265 2.01561,2.3672 4.39451,3.55079 7.13672,3.55079 2.7656,0 5.11521,-1.13086 7.04883,-3.39258 1.93356,-2.26171 2.90036,-5.71288 2.90039,-10.35352 -3e-5,-5.10935 -0.98441,-8.85935 -2.95313,-11.25 -1.96877,-2.39059 -4.39455,-3.5859 -7.27734,-3.58594 -2.81252,4e-5 -5.16213,1.14847 -7.04883,3.44532 -1.88673,2.2969 -2.83009,5.91799 -2.83008,10.86328 z"
     style="text-align:center;text-anchor:middle"
     id="path3093" /><path
     d="m 815.94141,674.84879 0,-5.48437 c -2.90628,4.21875 -6.85549,6.32812 -11.84766,6.32812 -2.20314,0 -4.25978,-0.42188 -6.16992,-1.26562 -1.91017,-0.84375 -3.32813,-1.9043 -4.25391,-3.18165 -0.92579,-1.27733 -1.57618,-2.84179 -1.95117,-4.69335 -0.25782,-1.24218 -0.38672,-3.21093 -0.38672,-5.90625 l 0,-23.13282 6.32813,0 0,20.70703 c -10e-6,3.3047 0.12889,5.53127 0.38671,6.67969 0.39843,1.66407 1.24218,2.97071 2.53125,3.91992 1.28905,0.94923 2.8828,1.42384 4.78125,1.42383 1.89842,10e-6 3.67967,-0.48632 5.34375,-1.45898 1.66404,-0.97265 2.84178,-2.29687 3.53321,-3.97266 0.69138,-1.67577 1.03708,-4.10741 1.03711,-7.29492 l 0,-20.00391 6.32812,0 0,37.33594 z"
     style="text-align:center;text-anchor:middle"
     id="path3095" /><path
     d="m 852.25781,674.84879 0,-51.53906 6.9961,0 27.07031,40.46484 0,-40.46484 6.53906,0 0,51.53906 -6.99609,0 -27.07032,-40.5 0,40.5 z"
     style="text-align:center;text-anchor:middle"
     id="path3097" /><path
     d="m 901.19531,656.18082 c 0,-6.91404 1.92187,-12.03512 5.76563,-15.36328 3.21092,-2.76559 7.12498,-4.1484 11.74218,-4.14844 5.13279,4e-5 9.3281,1.68168 12.58594,5.04492 3.25778,3.36332 4.88668,8.0098 4.88672,13.93946 -4e-5,4.8047 -0.72074,8.58399 -2.16211,11.33789 -1.44144,2.75391 -3.53909,4.89258 -6.29297,6.41601 -2.75393,1.52344 -5.75979,2.28516 -9.01758,2.28516 -5.22657,0 -9.45118,-1.67578 -12.67382,-5.02734 -3.22266,-3.35156 -4.83399,-8.17968 -4.83399,-14.48438 z m 6.50391,0 c -10e-6,4.78127 1.04296,8.36134 3.1289,10.74024 2.08593,2.37891 4.71093,3.56836 7.875,3.56836 3.14061,0 5.75389,-1.19531 7.83985,-3.58594 2.08591,-2.39062 3.12887,-6.03514 3.1289,-10.9336 -3e-5,-4.61716 -1.04885,-8.1152 -3.14648,-10.49414 -2.09768,-2.37887 -4.7051,-3.56832 -7.82227,-3.56836 -3.16407,4e-5 -5.78907,1.18363 -7.875,3.55079 -2.08594,2.36721 -3.12891,5.94143 -3.1289,10.72265 z"
     style="text-align:center;text-anchor:middle"
     id="path3099" /><path
     d="m 943.55859,674.84879 0,-37.33594 5.69532,0 0,5.66016 c 1.45311,-2.6484 2.7949,-4.3945 4.02539,-5.23828 1.23045,-0.84371 2.58396,-1.26559 4.06054,-1.26563 2.1328,4e-5 4.30076,0.67973 6.50391,2.03907 l -2.17969,5.87109 c -1.54689,-0.91403 -3.09377,-1.37106 -4.64062,-1.37109 -1.38283,3e-5 -2.62502,0.41604 -3.72657,1.24804 -1.10157,0.83206 -1.88673,1.98636 -2.35546,3.46289 -0.70314,2.25003 -1.0547,4.71096 -1.05469,7.38282 l 0,19.54687 z"
     style="text-align:center;text-anchor:middle"
     id="path3101" /><path
     d="m 991.89844,674.84879 0,-4.71094 c -2.36722,3.70313 -5.84768,5.55469 -10.44141,5.55469 -2.97658,0 -5.7129,-0.82031 -8.20898,-2.46094 -2.4961,-1.64062 -4.4297,-3.93163 -5.80078,-6.87304 -1.3711,-2.9414 -2.05665,-6.32225 -2.05665,-10.14258 0,-3.72654 0.6211,-7.1074 1.86329,-10.14258 1.24218,-3.03512 3.10546,-5.36129 5.58984,-6.97852 2.48436,-1.61715 5.2617,-2.42574 8.33203,-2.42578 2.24998,4e-5 4.25388,0.47465 6.01172,1.42383 1.75779,0.94926 3.18747,2.18558 4.28906,3.70899 l 0,-18.49219 6.29297,0 0,51.53906 z m -20.00391,-18.63281 c -10e-6,4.78126 1.0078,8.35548 3.02344,10.72265 2.01561,2.3672 4.39451,3.55079 7.13672,3.55079 2.7656,0 5.11521,-1.13086 7.04883,-3.39258 1.93356,-2.26171 2.90036,-5.71288 2.90039,-10.35352 -3e-5,-5.10935 -0.98441,-8.85935 -2.95313,-11.25 -1.96877,-2.39059 -4.39455,-3.5859 -7.27734,-3.58594 -2.81252,4e-5 -5.16213,1.14847 -7.04883,3.44532 -1.88673,2.2969 -2.83009,5.91799 -2.83008,10.86328 z"
     style="text-align:center;text-anchor:middle"
     id="path3103" /></g><g
   style="font-size:40px;font-style:normal;font-weight:normal;line-height:125%;letter-spacing:0px;word-spacing:0px;fill:#000000;fill-opacity:1;stroke:none;font-family:Sans"
   id="flowRoot3193" /></g>
	
<!-- Oceania -->
<path
   fill="green"
   opacity="0.3"
   d="M 2005,135.72  L 2010,136.61  L 2015,137.5  L 2020,138.37  L 2025,139.18  L 2030,139.92  L 2035,140.6  L 2040,141.26  L 2045,141.9  L 2050,142.53  L 2050,138.69  L 2045,138.69  L 2040,138.61  L 2035,138.44  L 2030,138.18  L 2025,137.82  L 2020,137.4  L 2015,136.94  L 2010,136.39  Z"
   id="path154" />
<path
   stroke="green"
   stroke-width="0.3"
   fill="none"
   d="M 1950,123.22  L 1955,124.62  L 1960,126.03  L 1965,127.5  L 1970,128.79  L 1975,129.84  L 1980,130.77  L 1985,131.77  L 1990,132.81  L 1995,133.87  L 2000,134.79  L 2005,135.72  L 2010,136.5  L 2015,137.22  L 2020,137.89  L 2025,138.52  L 2030,139.08  L 2035,139.56  L 2040,139.97  L 2045,140.32  L 2050,140.64"
   id="path156" />
<path
   stroke="green"
   stroke-width="0.3"
   fill="none"
   stroke-dasharray="1"
   d="M 2005,135.72  L 2010,136.55  L 2015,137.35  L 2020,138.15  L 2025,138.93  L 2030,139.68  L 2035,140.41  L 2040,141.13  L 2045,141.85  L 2050,142.59"
   id="path158" />
<g
   transform="matrix(1,0,0,-1,30.604465,-3.7565048)"
   id="g160">
<text
   x="1965"
   y="-131"
   font-size="3"
   id="text162"
   style="font-size:7.19999981px;fill:#008000;font-family:sans-serif">Oceanie</text>


</g>

</g></g></g>

</svg>