<svg xmlns="http://www.w3.org/2000/svg" version="1.1" style="font-family:Lato, &#x27;Helvetica Neue&#x27;, Helvetica, Arial, &#x27;Liberation Sans&#x27;, sans-serif;font-size:18px;background-color:white;text-rendering:geometricPrecision;-webkit-font-smoothing:antialiased" width="850" height="600" viewBox="0 0 850 600"><defs><pattern id="noDataPattern" patternUnits="userSpaceOnUse" width="4" height="4" patternTransform="rotate(-45 2 2)"><path d="M -1,2 l 6,0" stroke="#ccc" stroke-width="0.7"></path></pattern></defs><rect class="background-fill" fill="white" width="850" height="600"></rect><g class="HeaderView"><g transform="translate(774, 15) scale(0.29)"><svg className="owidLog" width="210" height="120" viewBox="0 0 210 120" fill="none" xmlns="http://www.w3.org/2000/svg">
<g clip-path="url(#clip0)">
  <path d="M0 0h210v107.89H0V0z" fill="#002147" />
  <path
    d="M40.98 32.25c0 2.36-.38 4.53-1.12 6.51a14.26 14.26 0 0 1-8.1 8.4c-1.9.78-4.02 1.17-6.34 1.17-2.31 0-4.42-.39-6.33-1.17a14.31 14.31 0 0 1-8.08-8.4 18.29 18.29 0 0 1-1.12-6.51c0-2.36.38-4.53 1.12-6.5.75-1.97 1.8-3.67 3.17-5.1a14.32 14.32 0 0 1 4.9-3.34c1.92-.8 4.03-1.19 6.34-1.19 2.32 0 4.43.4 6.34 1.19 1.92.8 3.56 1.9 4.93 3.34a14.87 14.87 0 0 1 3.17 5.1 18.1 18.1 0 0 1 1.12 6.5zm-4.38 0c0-1.94-.26-3.68-.8-5.22a10.91 10.91 0 0 0-2.24-3.89 9.68 9.68 0 0 0-3.52-2.46 11.95 11.95 0 0 0-4.62-.86c-1.68 0-3.21.28-4.6.86a9.88 9.88 0 0 0-3.54 2.46 10.91 10.91 0 0 0-2.24 3.9c-.53 1.53-.8 3.27-.8 5.2 0 1.94.27 3.68.8 5.22a11.17 11.17 0 0 0 2.24 3.9 10.01 10.01 0 0 0 3.55 2.44c1.38.56 2.9.83 4.6.83s3.24-.27 4.61-.83a9.8 9.8 0 0 0 3.52-2.44 11.17 11.17 0 0 0 2.25-3.9c.53-1.54.8-3.28.8-5.21zm26.22-6.54V48H60.5c-.56 0-.9-.27-1.05-.81l-.31-2.4a12.45 12.45 0 0 1-3.26 2.6c-1.2.64-2.58.96-4.13.96-1.22 0-2.3-.2-3.24-.6a6.52 6.52 0 0 1-2.33-1.7 7.37 7.37 0 0 1-1.43-2.67c-.3-1.04-.46-2.2-.46-3.45V25.7h3.91v14.22c0 1.68.38 2.99 1.15 3.91.77.93 1.96 1.39 3.54 1.39 1.16 0 2.24-.27 3.23-.82a10.42 10.42 0 0 0 2.8-2.28V25.7h3.91zm8.61 4.47a9.94 9.94 0 0 1 2.6-3.56 5.64 5.64 0 0 1 3.76-1.3c.47 0 .92.05 1.34.15.44.1.83.27 1.17.49l-.3 2.92c-.09.37-.3.55-.66.55-.2 0-.5-.04-.9-.13a6.21 6.21 0 0 0-3.24.18 4.23 4.23 0 0 0-1.47.92c-.42.4-.81.9-1.17 1.5-.33.58-.64 1.26-.92 2.02V48H67.7V25.71h2.25c.42 0 .72.08.88.25.16.16.27.44.33.83l.26 3.39zm61.16-13.7L122.75 48h-3.82l-7.99-24.05a21.95 21.95 0 0 1-.42-1.58 38.36 38.36 0 0 1-.44 1.58L102.05 48h-3.83L88.4 16.47h3.54c.38 0 .7.1.95.29.26.2.43.43.5.73l6.52 21.9.28 1.28.29 1.46.3-1.46.38-1.27 7.41-21.91c.1-.25.26-.48.51-.69.27-.22.58-.33.95-.33h1.23c.38 0 .69.1.92.29a1.77 1.77 0 0 1 .53.73l7.4 21.9a28.4 28.4 0 0 1 .68 2.62 29.52 29.52 0 0 1 .52-2.61l6.54-21.91a1.31 1.31 0 0 1 .48-.7c.27-.21.58-.32.95-.32h3.32zm9.35 8.88c1.63 0 3.1.27 4.4.82a9.43 9.43 0 0 1 5.46 5.94c.5 1.4.74 2.98.74 4.73 0 1.76-.25 3.34-.74 4.75a9.43 9.43 0 0 1-5.46 5.92c-1.3.52-2.77.79-4.4.79-1.64 0-3.12-.27-4.44-.8a9.42 9.42 0 0 1-3.35-2.3c-.92-1-1.63-2.2-2.13-3.61-.49-1.41-.73-3-.73-4.75s.24-3.33.73-4.73c.5-1.43 1.2-2.64 2.13-3.63.93-1 2.04-1.77 3.35-2.31 1.32-.55 2.8-.82 4.44-.82zm0 19.89c2.2 0 3.84-.73 4.93-2.2 1.08-1.48 1.63-3.54 1.63-6.18 0-2.66-.55-4.72-1.63-6.2-1.09-1.49-2.73-2.23-4.93-2.23-1.12 0-2.09.2-2.93.57a5.71 5.71 0 0 0-2.06 1.65c-.55.72-.96 1.61-1.24 2.67-.26 1.04-.4 2.22-.4 3.54 0 2.64.55 4.7 1.64 6.18 1.1 1.47 2.76 2.2 4.99 2.2zm17.97-15.07a9.94 9.94 0 0 1 2.6-3.56 5.64 5.64 0 0 1 3.76-1.3c.47 0 .91.05 1.34.15.44.1.83.27 1.16.49l-.28 2.92c-.09.37-.31.55-.66.55-.2 0-.5-.04-.9-.13a6.2 6.2 0 0 0-3.24.18 4.23 4.23 0 0 0-1.47.92c-.43.4-.82.9-1.17 1.5a13.1 13.1 0 0 0-.92 2.02V48h-3.94V25.71h2.24c.43 0 .72.08.88.25.17.16.28.44.33.83l.27 3.39zm15.04-14.59V48h-3.92V15.6h3.92zm19.55 15.43a6.22 6.22 0 0 0-2.38-2.05 6.7 6.7 0 0 0-2.86-.6c-2.07 0-3.66.75-4.77 2.23-1.12 1.48-1.68 3.6-1.68 6.33 0 1.46.13 2.7.38 3.74a7.29 7.29 0 0 0 1.1 2.56 4.35 4.35 0 0 0 1.78 1.45c.7.3 1.5.46 2.4.46 1.29 0 2.41-.3 3.36-.88a9.6 9.6 0 0 0 2.67-2.49V31.02zm3.91-15.43V48h-2.33c-.56 0-.9-.27-1.06-.81l-.35-2.71a12.13 12.13 0 0 1-3.25 2.77 8.28 8.28 0 0 1-4.23 1.06 7.31 7.31 0 0 1-6.14-2.9c-.73-.96-1.3-2.15-1.69-3.57a18.35 18.35 0 0 1 .07-9.48 11.29 11.29 0 0 1 1.89-3.7 8.7 8.7 0 0 1 7.06-3.34 7.96 7.96 0 0 1 6.12 2.62V15.59h3.91zM46.61 70.71V93H42.7V70.71h3.91zm.84-7c0 .39-.08.75-.24 1.09-.15.32-.35.61-.62.88-.25.25-.55.44-.9.59a2.67 2.67 0 0 1-2.16 0 2.9 2.9 0 0 1-1.45-1.47 2.67 2.67 0 0 1 0-2.16c.15-.35.35-.65.6-.9.25-.27.53-.47.85-.62a2.67 2.67 0 0 1 2.16 0c.35.15.65.35.9.62.27.25.47.55.62.9.16.34.24.7.24 1.08zm7.97 10.24c.49-.54 1-1.04 1.54-1.48a9.85 9.85 0 0 1 3.66-1.84 8.96 8.96 0 0 1 5.43.35c.94.4 1.72.97 2.33 1.71.63.74 1.11 1.62 1.43 2.67.32 1.04.49 2.19.49 3.45V93h-3.94V78.81c0-1.69-.4-3-1.17-3.92-.76-.93-1.93-1.4-3.5-1.4-1.15 0-2.24.27-3.25.83-1 .56-1.92 1.31-2.77 2.27V93h-3.94V70.71h2.35c.56 0 .9.28 1.04.82l.3 2.42zm57.7 3.3c0 2.36-.37 4.5-1.11 6.44a14.3 14.3 0 0 1-3.17 4.98c-1.37 1.37-3 2.45-4.93 3.2-1.9.76-4.02 1.13-6.33 1.13H85.8V61.47h11.77c2.31 0 4.42.39 6.33 1.15a13.8 13.8 0 0 1 8.1 8.18 17.75 17.75 0 0 1 1.12 6.45zm-4.37 0c0-1.94-.26-3.67-.8-5.2a10.94 10.94 0 0 0-2.23-3.87 9.57 9.57 0 0 0-3.53-2.42 12.23 12.23 0 0 0-4.61-.83h-7.5v24.62h7.5c1.7 0 3.24-.28 4.61-.84a9.7 9.7 0 0 0 3.53-2.4 10.94 10.94 0 0 0 2.24-3.87c.53-1.53.8-3.26.8-5.2zm19.8 5.72c-1.8.06-3.34.2-4.62.44-1.26.22-2.3.51-3.1.88-.8.36-1.37.8-1.74 1.3-.35.5-.53 1.05-.53 1.67 0 .58.1 1.1.3 1.52a3 3 0 0 0 .76 1.05c.34.27.73.46 1.17.6a6.13 6.13 0 0 0 1.45.17 7.28 7.28 0 0 0 3.5-.81 11.95 11.95 0 0 0 2.82-2.2v-4.62zm-12.65-9.11a12.73 12.73 0 0 1 3.98-2.66c1.43-.59 3-.88 4.73-.88 1.25 0 2.36.2 3.33.61a6.81 6.81 0 0 1 3.94 4.38c.33 1.04.5 2.19.5 3.43V93h-1.74a1.8 1.8 0 0 1-.88-.18c-.2-.13-.36-.38-.48-.74l-.44-2.12-1.72 1.46a9.48 9.48 0 0 1-3.74 1.7c-.69.15-1.46.23-2.3.23-.87 0-1.69-.12-2.45-.35a5.34 5.34 0 0 1-3.34-2.93 6.64 6.64 0 0 1-.49-2.64c0-.88.25-1.72.73-2.53a6.33 6.33 0 0 1 2.35-2.17c1.09-.63 2.5-1.15 4.25-1.54 1.75-.41 3.89-.65 6.42-.7v-1.75c0-1.73-.37-3.03-1.12-3.91-.75-.9-1.84-1.34-3.28-1.34-.97 0-1.78.12-2.44.37-.64.23-1.2.5-1.7.81l-1.23.82c-.33.23-.67.35-1 .35-.27 0-.5-.07-.69-.2a2.1 2.1 0 0 1-.48-.53l-.7-1.25zm27.67 19.5c-1.76 0-3.12-.5-4.07-1.48-.94-.98-1.41-2.4-1.41-4.25V74h-2.68a.9.9 0 0 1-.6-.2c-.16-.14-.24-.36-.24-.66v-1.56l3.65-.46.9-6.89c.05-.22.14-.4.29-.52a.88.88 0 0 1 .62-.22H142v7.67h6.44V74H142v13.38c0 .94.22 1.63.68 2.09.45.45 1.04.68 1.76.68a3.21 3.21 0 0 0 1.85-.53l.55-.35c.16-.12.3-.18.41-.18.2 0 .4.13.55.38l1.15 1.87a7.45 7.45 0 0 1-2.44 1.5 8.53 8.53 0 0 1-2.95.52zm19.68-10.4c-1.8.07-3.34.21-4.62.45-1.26.22-2.3.51-3.1.88-.8.36-1.37.8-1.74 1.3-.35.5-.53 1.05-.53 1.67 0 .58.1 1.1.3 1.52a2.9 2.9 0 0 0 .76 1.05c.34.27.73.46 1.17.6a6.13 6.13 0 0 0 1.45.17 7.3 7.3 0 0 0 3.5-.81 12.04 12.04 0 0 0 2.82-2.2v-4.62zm-12.65-9.1a12.72 12.72 0 0 1 3.99-2.66c1.42-.59 3-.88 4.72-.88 1.25 0 2.36.2 3.33.61a6.81 6.81 0 0 1 3.94 4.38c.33 1.04.5 2.19.5 3.43V93h-1.74a1.8 1.8 0 0 1-.88-.18c-.2-.13-.36-.38-.48-.74l-.44-2.12-1.72 1.46a9.48 9.48 0 0 1-3.74 1.7c-.69.15-1.46.23-2.3.23-.87 0-1.69-.12-2.45-.35a5.33 5.33 0 0 1-3.34-2.93 6.62 6.62 0 0 1-.49-2.64c0-.88.25-1.72.73-2.53a6.33 6.33 0 0 1 2.35-2.17c1.09-.63 2.5-1.15 4.25-1.54 1.74-.41 3.89-.65 6.42-.7v-1.75c0-1.73-.37-3.03-1.12-3.91-.75-.9-1.84-1.34-3.28-1.34-.97 0-1.78.12-2.44.37-.64.23-1.2.5-1.7.81l-1.22.82c-.34.23-.68.35-1.02.35-.26 0-.49-.07-.68-.2a1.88 1.88 0 0 1-.48-.53l-.7-1.25zM40.98 32.25c0 2.36-.38 4.53-1.12 6.51a14.26 14.26 0 0 1-8.1 8.4c-1.9.78-4.02 1.17-6.34 1.17-2.31 0-4.42-.39-6.33-1.17a14.31 14.31 0 0 1-8.08-8.4 18.29 18.29 0 0 1-1.12-6.51c0-2.36.38-4.53 1.12-6.5.75-1.97 1.8-3.67 3.17-5.1a14.32 14.32 0 0 1 4.9-3.34c1.92-.8 4.03-1.19 6.34-1.19 2.32 0 4.43.4 6.34 1.19 1.92.8 3.56 1.9 4.93 3.34a14.87 14.87 0 0 1 3.17 5.1 18.1 18.1 0 0 1 1.12 6.5zm-4.38 0c0-1.94-.26-3.68-.8-5.22a10.91 10.91 0 0 0-2.24-3.89 9.68 9.68 0 0 0-3.52-2.46 11.95 11.95 0 0 0-4.62-.86c-1.68 0-3.21.28-4.6.86a9.88 9.88 0 0 0-3.54 2.46 10.91 10.91 0 0 0-2.24 3.9c-.53 1.53-.8 3.27-.8 5.2 0 1.94.27 3.68.8 5.22a11.17 11.17 0 0 0 2.24 3.9 10.01 10.01 0 0 0 3.55 2.44c1.38.56 2.9.83 4.6.83s3.24-.27 4.61-.83a9.8 9.8 0 0 0 3.52-2.44 11.17 11.17 0 0 0 2.25-3.9c.53-1.54.8-3.28.8-5.21zm26.22-6.54V48H60.5c-.56 0-.9-.27-1.05-.81l-.31-2.4a12.45 12.45 0 0 1-3.26 2.6c-1.2.64-2.58.96-4.13.96-1.22 0-2.3-.2-3.24-.6a6.52 6.52 0 0 1-2.33-1.7 7.37 7.37 0 0 1-1.43-2.67c-.3-1.04-.46-2.2-.46-3.45V25.7h3.91v14.22c0 1.68.38 2.99 1.15 3.91.77.93 1.96 1.39 3.54 1.39 1.16 0 2.24-.27 3.23-.82a10.42 10.42 0 0 0 2.8-2.28V25.7h3.91zm8.61 4.47a9.94 9.94 0 0 1 2.6-3.56 5.64 5.64 0 0 1 3.76-1.3c.47 0 .92.05 1.34.15.44.1.83.27 1.17.49l-.3 2.92c-.09.37-.3.55-.66.55-.2 0-.5-.04-.9-.13a6.21 6.21 0 0 0-3.24.18 4.23 4.23 0 0 0-1.47.92c-.42.4-.81.9-1.17 1.5-.33.58-.64 1.26-.92 2.02V48H67.7V25.71h2.25c.42 0 .72.08.88.25.16.16.27.44.33.83l.26 3.39zm61.16-13.7L122.75 48h-3.82l-7.99-24.05a21.95 21.95 0 0 1-.42-1.58 38.36 38.36 0 0 1-.44 1.58L102.05 48h-3.83L88.4 16.47h3.54c.38 0 .7.1.95.29.26.2.43.43.5.73l6.52 21.9.28 1.28.29 1.46.3-1.46.38-1.27 7.41-21.91c.1-.25.26-.48.51-.69.27-.22.58-.33.95-.33h1.23c.38 0 .69.1.92.29a1.77 1.77 0 0 1 .53.73l7.4 21.9a28.4 28.4 0 0 1 .68 2.62 29.52 29.52 0 0 1 .52-2.61l6.54-21.91a1.31 1.31 0 0 1 .48-.7c.27-.21.58-.32.95-.32h3.32zm9.35 8.88c1.63 0 3.1.27 4.4.82a9.43 9.43 0 0 1 5.46 5.94c.5 1.4.74 2.98.74 4.73 0 1.76-.25 3.34-.74 4.75a9.43 9.43 0 0 1-5.46 5.92c-1.3.52-2.77.79-4.4.79-1.64 0-3.12-.27-4.44-.8a9.42 9.42 0 0 1-3.35-2.3c-.92-1-1.63-2.2-2.13-3.61-.49-1.41-.73-3-.73-4.75s.24-3.33.73-4.73c.5-1.43 1.2-2.64 2.13-3.63.93-1 2.04-1.77 3.35-2.31 1.32-.55 2.8-.82 4.44-.82zm0 19.89c2.2 0 3.84-.73 4.93-2.2 1.08-1.48 1.63-3.54 1.63-6.18 0-2.66-.55-4.72-1.63-6.2-1.09-1.49-2.73-2.23-4.93-2.23-1.12 0-2.09.2-2.93.57a5.71 5.71 0 0 0-2.06 1.65c-.55.72-.96 1.61-1.24 2.67-.26 1.04-.4 2.22-.4 3.54 0 2.64.55 4.7 1.64 6.18 1.1 1.47 2.76 2.2 4.99 2.2zm17.97-15.07a9.94 9.94 0 0 1 2.6-3.56 5.64 5.64 0 0 1 3.76-1.3c.47 0 .91.05 1.34.15.44.1.83.27 1.16.49l-.28 2.92c-.09.37-.31.55-.66.55-.2 0-.5-.04-.9-.13a6.2 6.2 0 0 0-3.24.18 4.23 4.23 0 0 0-1.47.92c-.43.4-.82.9-1.17 1.5a13.1 13.1 0 0 0-.92 2.02V48h-3.94V25.71h2.24c.43 0 .72.08.88.25.17.16.28.44.33.83l.27 3.39zm15.04-14.59V48h-3.92V15.6h3.92zm19.55 15.43a6.22 6.22 0 0 0-2.38-2.05 6.7 6.7 0 0 0-2.86-.6c-2.07 0-3.66.75-4.77 2.23-1.12 1.48-1.68 3.6-1.68 6.33 0 1.46.13 2.7.38 3.74a7.29 7.29 0 0 0 1.1 2.56 4.35 4.35 0 0 0 1.78 1.45c.7.3 1.5.46 2.4.46 1.29 0 2.41-.3 3.36-.88a9.6 9.6 0 0 0 2.67-2.49V31.02zm3.91-15.43V48h-2.33c-.56 0-.9-.27-1.06-.81l-.35-2.71a12.13 12.13 0 0 1-3.25 2.77 8.28 8.28 0 0 1-4.23 1.06 7.31 7.31 0 0 1-6.14-2.9c-.73-.96-1.3-2.15-1.69-3.57a18.35 18.35 0 0 1 .07-9.48 11.29 11.29 0 0 1 1.89-3.7 8.7 8.7 0 0 1 7.06-3.34 7.96 7.96 0 0 1 6.12 2.62V15.59h3.91zM46.61 70.71V93H42.7V70.71h3.91zm.84-7c0 .39-.08.75-.24 1.09-.15.32-.35.61-.62.88-.25.25-.55.44-.9.59a2.67 2.67 0 0 1-2.16 0 2.9 2.9 0 0 1-1.45-1.47 2.67 2.67 0 0 1 0-2.16c.15-.35.35-.65.6-.9.25-.27.53-.47.85-.62a2.67 2.67 0 0 1 2.16 0c.35.15.65.35.9.62.27.25.47.55.62.9.16.34.24.7.24 1.08zm7.97 10.24c.49-.54 1-1.04 1.54-1.48a9.85 9.85 0 0 1 3.66-1.84 8.96 8.96 0 0 1 5.43.35c.94.4 1.72.97 2.33 1.71.63.74 1.11 1.62 1.43 2.67.32 1.04.49 2.19.49 3.45V93h-3.94V78.81c0-1.69-.4-3-1.17-3.92-.76-.93-1.93-1.4-3.5-1.4-1.15 0-2.24.27-3.25.83-1 .56-1.92 1.31-2.77 2.27V93h-3.94V70.71h2.35c.56 0 .9.28 1.04.82l.3 2.42zm57.7 3.3c0 2.36-.37 4.5-1.11 6.44a14.3 14.3 0 0 1-3.17 4.98c-1.37 1.37-3 2.45-4.93 3.2-1.9.76-4.02 1.13-6.33 1.13H85.8V61.47h11.77c2.31 0 4.42.39 6.33 1.15a13.8 13.8 0 0 1 8.1 8.18 17.75 17.75 0 0 1 1.12 6.45zm-4.37 0c0-1.94-.26-3.67-.8-5.2a10.94 10.94 0 0 0-2.23-3.87 9.57 9.57 0 0 0-3.53-2.42 12.23 12.23 0 0 0-4.61-.83h-7.5v24.62h7.5c1.7 0 3.24-.28 4.61-.84a9.7 9.7 0 0 0 3.53-2.4 10.94 10.94 0 0 0 2.24-3.87c.53-1.53.8-3.26.8-5.2zm19.8 5.72c-1.8.06-3.34.2-4.62.44-1.26.22-2.3.51-3.1.88-.8.36-1.37.8-1.74 1.3-.35.5-.53 1.05-.53 1.67 0 .58.1 1.1.3 1.52a3 3 0 0 0 .76 1.05c.34.27.73.46 1.17.6a6.13 6.13 0 0 0 1.45.17 7.28 7.28 0 0 0 3.5-.81 11.95 11.95 0 0 0 2.82-2.2v-4.62zm-12.65-9.11a12.73 12.73 0 0 1 3.98-2.66c1.43-.59 3-.88 4.73-.88 1.25 0 2.36.2 3.33.61a6.81 6.81 0 0 1 3.94 4.38c.33 1.04.5 2.19.5 3.43V93h-1.74a1.8 1.8 0 0 1-.88-.18c-.2-.13-.36-.38-.48-.74l-.44-2.12-1.72 1.46a9.48 9.48 0 0 1-3.74 1.7c-.69.15-1.46.23-2.3.23-.87 0-1.69-.12-2.45-.35a5.34 5.34 0 0 1-3.34-2.93 6.64 6.64 0 0 1-.49-2.64c0-.88.25-1.72.73-2.53a6.33 6.33 0 0 1 2.35-2.17c1.09-.63 2.5-1.15 4.25-1.54 1.75-.41 3.89-.65 6.42-.7v-1.75c0-1.73-.37-3.03-1.12-3.91-.75-.9-1.84-1.34-3.28-1.34-.97 0-1.78.12-2.44.37-.64.23-1.2.5-1.7.81l-1.23.82c-.33.23-.67.35-1 .35-.27 0-.5-.07-.69-.2a2.1 2.1 0 0 1-.48-.53l-.7-1.25zm27.67 19.5c-1.76 0-3.12-.5-4.07-1.48-.94-.98-1.41-2.4-1.41-4.25V74h-2.68a.9.9 0 0 1-.6-.2c-.16-.14-.24-.36-.24-.66v-1.56l3.65-.46.9-6.89c.05-.22.14-.4.29-.52a.88.88 0 0 1 .62-.22H142v7.67h6.44V74H142v13.38c0 .94.22 1.63.68 2.09.45.45 1.04.68 1.76.68a3.21 3.21 0 0 0 1.85-.53l.55-.35c.16-.12.3-.18.41-.18.2 0 .4.13.55.38l1.15 1.87a7.45 7.45 0 0 1-2.44 1.5 8.53 8.53 0 0 1-2.95.52zm19.68-10.4c-1.8.07-3.34.21-4.62.45-1.26.22-2.3.51-3.1.88-.8.36-1.37.8-1.74 1.3-.35.5-.53 1.05-.53 1.67 0 .58.1 1.1.3 1.52a2.9 2.9 0 0 0 .76 1.05c.34.27.73.46 1.17.6a6.13 6.13 0 0 0 1.45.17 7.3 7.3 0 0 0 3.5-.81 12.04 12.04 0 0 0 2.82-2.2v-4.62zm-12.65-9.1a12.72 12.72 0 0 1 3.99-2.66c1.42-.59 3-.88 4.72-.88 1.25 0 2.36.2 3.33.61a6.81 6.81 0 0 1 3.94 4.38c.33 1.04.5 2.19.5 3.43V93h-1.74a1.8 1.8 0 0 1-.88-.18c-.2-.13-.36-.38-.48-.74l-.44-2.12-1.72 1.46a9.48 9.48 0 0 1-3.74 1.7c-.69.15-1.46.23-2.3.23-.87 0-1.69-.12-2.45-.35a5.33 5.33 0 0 1-3.34-2.93 6.62 6.62 0 0 1-.49-2.64c0-.88.25-1.72.73-2.53a6.33 6.33 0 0 1 2.35-2.17c1.09-.63 2.5-1.15 4.25-1.54 1.74-.41 3.89-.65 6.42-.7v-1.75c0-1.73-.37-3.03-1.12-3.91-.75-.9-1.84-1.34-3.28-1.34-.97 0-1.78.12-2.44.37-.64.23-1.2.5-1.7.81l-1.22.82c-.34.23-.68.35-1.02.35-.26 0-.49-.07-.68-.2a1.88 1.88 0 0 1-.48-.53l-.7-1.25zM40.98 32.25c0 2.36-.38 4.53-1.12 6.51a14.26 14.26 0 0 1-8.1 8.4c-1.9.78-4.02 1.17-6.34 1.17-2.31 0-4.42-.39-6.33-1.17a14.31 14.31 0 0 1-8.08-8.4 18.29 18.29 0 0 1-1.12-6.51c0-2.36.38-4.53 1.12-6.5.75-1.97 1.8-3.67 3.17-5.1a14.32 14.32 0 0 1 4.9-3.34c1.92-.8 4.03-1.19 6.34-1.19 2.32 0 4.43.4 6.34 1.19 1.92.8 3.56 1.9 4.93 3.34a14.87 14.87 0 0 1 3.17 5.1 18.1 18.1 0 0 1 1.12 6.5zm-4.38 0c0-1.94-.26-3.68-.8-5.22a10.91 10.91 0 0 0-2.24-3.89 9.68 9.68 0 0 0-3.52-2.46 11.95 11.95 0 0 0-4.62-.86c-1.68 0-3.21.28-4.6.86a9.88 9.88 0 0 0-3.54 2.46 10.91 10.91 0 0 0-2.24 3.9c-.53 1.53-.8 3.27-.8 5.2 0 1.94.27 3.68.8 5.22a11.17 11.17 0 0 0 2.24 3.9 10.01 10.01 0 0 0 3.55 2.44c1.38.56 2.9.83 4.6.83s3.24-.27 4.61-.83a9.8 9.8 0 0 0 3.52-2.44 11.17 11.17 0 0 0 2.25-3.9c.53-1.54.8-3.28.8-5.21zm26.22-6.54V48H60.5c-.56 0-.9-.27-1.05-.81l-.31-2.4a12.45 12.45 0 0 1-3.26 2.6c-1.2.64-2.58.96-4.13.96-1.22 0-2.3-.2-3.24-.6a6.52 6.52 0 0 1-2.33-1.7 7.37 7.37 0 0 1-1.43-2.67c-.3-1.04-.46-2.2-.46-3.45V25.7h3.91v14.22c0 1.68.38 2.99 1.15 3.91.77.93 1.96 1.39 3.54 1.39 1.16 0 2.24-.27 3.23-.82a10.42 10.42 0 0 0 2.8-2.28V25.7h3.91zm8.61 4.47a9.94 9.94 0 0 1 2.6-3.56 5.64 5.64 0 0 1 3.76-1.3c.47 0 .92.05 1.34.15.44.1.83.27 1.17.49l-.3 2.92c-.09.37-.3.55-.66.55-.2 0-.5-.04-.9-.13a6.21 6.21 0 0 0-3.24.18 4.23 4.23 0 0 0-1.47.92c-.42.4-.81.9-1.17 1.5-.33.58-.64 1.26-.92 2.02V48H67.7V25.71h2.25c.42 0 .72.08.88.25.16.16.27.44.33.83l.26 3.39zm61.16-13.7L122.75 48h-3.82l-7.99-24.05a21.95 21.95 0 0 1-.42-1.58 38.36 38.36 0 0 1-.44 1.58L102.05 48h-3.83L88.4 16.47h3.54c.38 0 .7.1.95.29.26.2.43.43.5.73l6.52 21.9.28 1.28.29 1.46.3-1.46.38-1.27 7.41-21.91c.1-.25.26-.48.51-.69.27-.22.58-.33.95-.33h1.23c.38 0 .69.1.92.29a1.77 1.77 0 0 1 .53.73l7.4 21.9a28.4 28.4 0 0 1 .68 2.62 29.52 29.52 0 0 1 .52-2.61l6.54-21.91a1.31 1.31 0 0 1 .48-.7c.27-.21.58-.32.95-.32h3.32zm9.35 8.88c1.63 0 3.1.27 4.4.82a9.43 9.43 0 0 1 5.46 5.94c.5 1.4.74 2.98.74 4.73 0 1.76-.25 3.34-.74 4.75a9.43 9.43 0 0 1-5.46 5.92c-1.3.52-2.77.79-4.4.79-1.64 0-3.12-.27-4.44-.8a9.42 9.42 0 0 1-3.35-2.3c-.92-1-1.63-2.2-2.13-3.61-.49-1.41-.73-3-.73-4.75s.24-3.33.73-4.73c.5-1.43 1.2-2.64 2.13-3.63.93-1 2.04-1.77 3.35-2.31 1.32-.55 2.8-.82 4.44-.82zm0 19.89c2.2 0 3.84-.73 4.93-2.2 1.08-1.48 1.63-3.54 1.63-6.18 0-2.66-.55-4.72-1.63-6.2-1.09-1.49-2.73-2.23-4.93-2.23-1.12 0-2.09.2-2.93.57a5.71 5.71 0 0 0-2.06 1.65c-.55.72-.96 1.61-1.24 2.67-.26 1.04-.4 2.22-.4 3.54 0 2.64.55 4.7 1.64 6.18 1.1 1.47 2.76 2.2 4.99 2.2zm17.97-15.07a9.94 9.94 0 0 1 2.6-3.56 5.64 5.64 0 0 1 3.76-1.3c.47 0 .91.05 1.34.15.44.1.83.27 1.16.49l-.28 2.92c-.09.37-.31.55-.66.55-.2 0-.5-.04-.9-.13a6.2 6.2 0 0 0-3.24.18 4.23 4.23 0 0 0-1.47.92c-.43.4-.82.9-1.17 1.5a13.1 13.1 0 0 0-.92 2.02V48h-3.94V25.71h2.24c.43 0 .72.08.88.25.17.16.28.44.33.83l.27 3.39zm15.04-14.59V48h-3.92V15.6h3.92zm19.55 15.43a6.22 6.22 0 0 0-2.38-2.05 6.7 6.7 0 0 0-2.86-.6c-2.07 0-3.66.75-4.77 2.23-1.12 1.48-1.68 3.6-1.68 6.33 0 1.46.13 2.7.38 3.74a7.29 7.29 0 0 0 1.1 2.56 4.35 4.35 0 0 0 1.78 1.45c.7.3 1.5.46 2.4.46 1.29 0 2.41-.3 3.36-.88a9.6 9.6 0 0 0 2.67-2.49V31.02zm3.91-15.43V48h-2.33c-.56 0-.9-.27-1.06-.81l-.35-2.71a12.13 12.13 0 0 1-3.25 2.77 8.28 8.28 0 0 1-4.23 1.06 7.31 7.31 0 0 1-6.14-2.9c-.73-.96-1.3-2.15-1.69-3.57a18.35 18.35 0 0 1 .07-9.48 11.29 11.29 0 0 1 1.89-3.7 8.7 8.7 0 0 1 7.06-3.34 7.96 7.96 0 0 1 6.12 2.62V15.59h3.91zM46.61 70.71V93H42.7V70.71h3.91zm.84-7c0 .39-.08.75-.24 1.09-.15.32-.35.61-.62.88-.25.25-.55.44-.9.59a2.67 2.67 0 0 1-2.16 0 2.9 2.9 0 0 1-1.45-1.47 2.67 2.67 0 0 1 0-2.16c.15-.35.35-.65.6-.9.25-.27.53-.47.85-.62a2.67 2.67 0 0 1 2.16 0c.35.15.65.35.9.62.27.25.47.55.62.9.16.34.24.7.24 1.08zm7.97 10.24c.49-.54 1-1.04 1.54-1.48a9.85 9.85 0 0 1 3.66-1.84 8.96 8.96 0 0 1 5.43.35c.94.4 1.72.97 2.33 1.71.63.74 1.11 1.62 1.43 2.67.32 1.04.49 2.19.49 3.45V93h-3.94V78.81c0-1.69-.4-3-1.17-3.92-.76-.93-1.93-1.4-3.5-1.4-1.15 0-2.24.27-3.25.83-1 .56-1.92 1.31-2.77 2.27V93h-3.94V70.71h2.35c.56 0 .9.28 1.04.82l.3 2.42zm57.7 3.3c0 2.36-.37 4.5-1.11 6.44a14.3 14.3 0 0 1-3.17 4.98c-1.37 1.37-3 2.45-4.93 3.2-1.9.76-4.02 1.13-6.33 1.13H85.8V61.47h11.77c2.31 0 4.42.39 6.33 1.15a13.8 13.8 0 0 1 8.1 8.18 17.75 17.75 0 0 1 1.12 6.45zm-4.37 0c0-1.94-.26-3.67-.8-5.2a10.94 10.94 0 0 0-2.23-3.87 9.57 9.57 0 0 0-3.53-2.42 12.23 12.23 0 0 0-4.61-.83h-7.5v24.62h7.5c1.7 0 3.24-.28 4.61-.84a9.7 9.7 0 0 0 3.53-2.4 10.94 10.94 0 0 0 2.24-3.87c.53-1.53.8-3.26.8-5.2zm19.8 5.72c-1.8.06-3.34.2-4.62.44-1.26.22-2.3.51-3.1.88-.8.36-1.37.8-1.74 1.3-.35.5-.53 1.05-.53 1.67 0 .58.1 1.1.3 1.52a3 3 0 0 0 .76 1.05c.34.27.73.46 1.17.6a6.13 6.13 0 0 0 1.45.17 7.28 7.28 0 0 0 3.5-.81 11.95 11.95 0 0 0 2.82-2.2v-4.62zm-12.65-9.11a12.73 12.73 0 0 1 3.98-2.66c1.43-.59 3-.88 4.73-.88 1.25 0 2.36.2 3.33.61a6.81 6.81 0 0 1 3.94 4.38c.33 1.04.5 2.19.5 3.43V93h-1.74a1.8 1.8 0 0 1-.88-.18c-.2-.13-.36-.38-.48-.74l-.44-2.12-1.72 1.46a9.48 9.48 0 0 1-3.74 1.7c-.69.15-1.46.23-2.3.23-.87 0-1.69-.12-2.45-.35a5.34 5.34 0 0 1-3.34-2.93 6.64 6.64 0 0 1-.49-2.64c0-.88.25-1.72.73-2.53a6.33 6.33 0 0 1 2.35-2.17c1.09-.63 2.5-1.15 4.25-1.54 1.75-.41 3.89-.65 6.42-.7v-1.75c0-1.73-.37-3.03-1.12-3.91-.75-.9-1.84-1.34-3.28-1.34-.97 0-1.78.12-2.44.37-.64.23-1.2.5-1.7.81l-1.23.82c-.33.23-.67.35-1 .35-.27 0-.5-.07-.69-.2a2.1 2.1 0 0 1-.48-.53l-.7-1.25zm27.67 19.5c-1.76 0-3.12-.5-4.07-1.48-.94-.98-1.41-2.4-1.41-4.25V74h-2.68a.9.9 0 0 1-.6-.2c-.16-.14-.24-.36-.24-.66v-1.56l3.65-.46.9-6.89c.05-.22.14-.4.29-.52a.88.88 0 0 1 .62-.22H142v7.67h6.44V74H142v13.38c0 .94.22 1.63.68 2.09.45.45 1.04.68 1.76.68a3.21 3.21 0 0 0 1.85-.53l.55-.35c.16-.12.3-.18.41-.18.2 0 .4.13.55.38l1.15 1.87a7.45 7.45 0 0 1-2.44 1.5 8.53 8.53 0 0 1-2.95.52zm19.68-10.4c-1.8.07-3.34.21-4.62.45-1.26.22-2.3.51-3.1.88-.8.36-1.37.8-1.74 1.3-.35.5-.53 1.05-.53 1.67 0 .58.1 1.1.3 1.52a2.9 2.9 0 0 0 .76 1.05c.34.27.73.46 1.17.6a6.13 6.13 0 0 0 1.45.17 7.3 7.3 0 0 0 3.5-.81 12.04 12.04 0 0 0 2.82-2.2v-4.62zm-12.65-9.1a12.72 12.72 0 0 1 3.99-2.66c1.42-.59 3-.88 4.72-.88 1.25 0 2.36.2 3.33.61a6.81 6.81 0 0 1 3.94 4.38c.33 1.04.5 2.19.5 3.43V93h-1.74a1.8 1.8 0 0 1-.88-.18c-.2-.13-.36-.38-.48-.74l-.44-2.12-1.72 1.46a9.48 9.48 0 0 1-3.74 1.7c-.69.15-1.46.23-2.3.23-.87 0-1.69-.12-2.45-.35a5.33 5.33 0 0 1-3.34-2.93 6.62 6.62 0 0 1-.49-2.64c0-.88.25-1.72.73-2.53a6.33 6.33 0 0 1 2.35-2.17c1.09-.63 2.5-1.15 4.25-1.54 1.74-.41 3.89-.65 6.42-.7v-1.75c0-1.73-.37-3.03-1.12-3.91-.75-.9-1.84-1.34-3.28-1.34-.97 0-1.78.12-2.44.37-.64.23-1.2.5-1.7.81l-1.22.82c-.34.23-.68.35-1.02.35-.26 0-.49-.07-.68-.2a1.88 1.88 0 0 1-.48-.53l-.7-1.25z"
    fill="#fff"
  />
  <path fill="#D42B21" d="M0 106.79h210V120H0z" />
</g>
<defs>
  <clipPath id="clip0"><path fill="#fff" d="M0 0h210v120H0z" /></clipPath>
</defs>
</svg></g><a href="https://ourworldindata.org/grapher/energy-consumption-by-source-and-country?stackMode=absolute" style="font-family:&#x27;Playfair Display&#x27;, Georgia, &#x27;Times New Roman&#x27;, &#x27;Liberation Serif&#x27;, serif" target="_blank" rel="noopener"><text font-size="25.20" x="15.0" y="36.9" fill="#555"><tspan x="15" y="36.924">Energy consumption by source, World</tspan></text></a><text x="15.0" y="58.2" style="font-size:14.4px;line-height:1.2" fill="#666"><tspan x="15" y="58.2">Primary energy consumption is measured in terawatt-hours (TWh). Here an inefficiency factor (the &#x27;substitution&#x27;</tspan><tspan x="15" y="75.4">method) has been applied for fossil fuels, meaning the shares by each energy source give a better approximation of</tspan><tspan x="15" y="92.7">final energy consumption.</tspan></text></g><g class="StackedArea"><defs><clipPath id="boundsClip-2"><rect x="78.968" y="112.03999999999999" width="820" height="836.48"></rect></clipPath></defs><rect x="15" y="112.03999999999999" width="820" height="418.24" fill="transparent"></rect><g class="DualAxisView"><g class="HorizontalAxis"><line x1="79" y1="509.08000000000004" x2="79" y2="514.08" stroke="#999"></line><line x1="727.1" y1="509.08000000000004" x2="727.1" y2="514.08" stroke="#999"></line><line x1="252.6" y1="509.08000000000004" x2="252.6" y2="514.08" stroke="#999"></line><line x1="368.3" y1="509.08000000000004" x2="368.3" y2="514.08" stroke="#999"></line><line x1="484.1" y1="509.08000000000004" x2="484.1" y2="514.08" stroke="#999"></line><line x1="599.8" y1="509.08000000000004" x2="599.8" y2="514.08" stroke="#999"></line><text x="78.968" y="530.28" fill="#666" text-anchor="start" font-size="16.2">1965</text><text x="727.1" y="530.28" fill="#666" text-anchor="end" font-size="16.2">2021</text><text x="252.6" y="530.28" fill="#666" text-anchor="middle" font-size="16.2">1980</text><text x="368.3" y="530.28" fill="#666" text-anchor="middle" font-size="16.2">1990</text><text x="484.1" y="530.28" fill="#666" text-anchor="middle" font-size="16.2">2000</text><text x="599.8" y="530.28" fill="#666" text-anchor="middle" font-size="16.2">2010</text></g><g class="VerticalAxis"><text x="73.97" y="509.1" dy=".32em" text-anchor="end" fill="#666" font-size="16.2">0</text><text x="73.97" y="460.6" dy=".32em" text-anchor="end" fill="#666" font-size="16.2">20,000</text><text x="73.97" y="412.1" dy=".32em" text-anchor="end" fill="#666" font-size="16.2">40,000</text><text x="73.97" y="363.6" dy=".32em" text-anchor="end" fill="#666" font-size="16.2">60,000</text><text x="73.97" y="315.1" dy=".32em" text-anchor="end" fill="#666" font-size="16.2">80,000</text><text x="73.97" y="266.6" dy=".32em" text-anchor="end" fill="#666" font-size="16.2">100,000</text><text x="73.97" y="218" dy=".32em" text-anchor="end" fill="#666" font-size="16.2">120,000</text><text x="73.97" y="169.5" dy=".32em" text-anchor="end" fill="#666" font-size="16.2">140,000</text><text x="73.97" y="121" dy=".32em" text-anchor="end" fill="#666" font-size="16.2">160,000</text></g><g class="AxisGridLines horizontalLines"><line x1="78.97" y1="509.1" x2="727.10" y2="509.1" stroke="#999"></line><line x1="78.97" y1="460.6" x2="727.10" y2="460.6" stroke="#ddd" stroke-dasharray="3,2"></line><line x1="78.97" y1="412.1" x2="727.10" y2="412.1" stroke="#ddd" stroke-dasharray="3,2"></line><line x1="78.97" y1="363.6" x2="727.10" y2="363.6" stroke="#ddd" stroke-dasharray="3,2"></line><line x1="78.97" y1="315.1" x2="727.10" y2="315.1" stroke="#ddd" stroke-dasharray="3,2"></line><line x1="78.97" y1="266.6" x2="727.10" y2="266.6" stroke="#ddd" stroke-dasharray="3,2"></line><line x1="78.97" y1="218" x2="727.10" y2="218" stroke="#ddd" stroke-dasharray="3,2"></line><line x1="78.97" y1="169.5" x2="727.10" y2="169.5" stroke="#ddd" stroke-dasharray="3,2"></line><line x1="78.97" y1="121" x2="727.10" y2="121" stroke="#ddd" stroke-dasharray="3,2"></line></g></g><g clip-path="url(#boundsClip-2)"><g class="LineLabels" style="cursor:default"><g class="legendMark"><g class="indicator"><path d="M731.1,113 H754.2428571428572 V125.53999999999999 H758.1" stroke="#999" stroke-width="0.5" fill="none"></path></g><rect x="727.1" y="112.03999999999999" width="104.25500000000001" height="27" fill="#fff" opacity="0"></rect><text font-size="13.50" font-weight="400" x="762.1" y="123.8" fill="#578145"><tspan x="762.1" y="123.785">Other</tspan><tspan x="762.1" y="137.285">renewables</tspan></text></g><g class="legendMark"><g class="indicator"><path d="M731.1,115.3 H750.3857142857144 V147.79 H758.1" stroke="#999" stroke-width="0.5" fill="none"></path></g><rect x="727.1" y="141.04" width="83.195" height="13.5" fill="#fff" opacity="0"></rect><text font-size="13.50" font-weight="400" x="762.1" y="152.8" fill="#9a5129"><tspan x="762.1" y="152.785">Biofuels</tspan></text></g><g class="legendMark"><g class="indicator"><path d="M731.1,119.9 H746.5285714285715 V163.29 H758.1" stroke="#999" stroke-width="0.5" fill="none"></path></g><rect x="727.1" y="156.54" width="66.59" height="13.5" fill="#fff" opacity="0"></rect><text font-size="13.50" font-weight="400" x="762.1" y="168.3" fill="#d96855"><tspan x="762.1" y="168.285">Solar</tspan></text></g><g class="legendMark"><g class="indicator"><path d="M731.1,129.1 H742.6714285714286 V178.79 H758.1" stroke="#999" stroke-width="0.5" fill="none"></path></g><rect x="727.1" y="172.04" width="65.78" height="13.5" fill="#fff" opacity="0"></rect><text font-size="13.50" font-weight="400" x="762.1" y="183.8" fill="#00295b"><tspan x="762.1" y="183.785">Wind</tspan></text></g><g class="legendMark"><g class="indicator"><path d="M731.1,148.6 H738.8142857142858 V194.29 H758.1" stroke="#999" stroke-width="0.5" fill="none"></path></g><rect x="727.1" y="187.54" width="107.9" height="13.5" fill="#fff" opacity="0"></rect><text font-size="13.50" font-weight="400" x="762.1" y="199.3" fill="#286bbb"><tspan x="762.1" y="199.285">Hydropower</tspan></text></g><g class="legendMark"><g class="indicator"><path d="M731.1,170.7 H734.9571428571429 V209.79 H758.1" stroke="#999" stroke-width="0.5" fill="none"></path></g><rect x="727.1" y="203.04" width="81.575" height="13.5" fill="#fff" opacity="0"></rect><text font-size="13.50" font-weight="400" x="762.1" y="214.8" fill="#00847e"><tspan x="762.1" y="214.785">Nuclear</tspan></text></g><g class="legendMark"><g class="indicator"><path d="M731.1,228.2 H744.6 V228.2 H758.1" stroke="#999" stroke-width="0.5" fill="none"></path></g><rect x="727.1" y="221.45" width="59.84" height="13.5" fill="#fff" opacity="0"></rect><text font-size="13.50" font-weight="400" x="762.1" y="233.2" fill="#6d3e91"><tspan x="762.1" y="233.195">Gas</tspan></text></g><g class="legendMark"><g class="indicator"><path d="M731.1,331 H744.6 V331 H758.1" stroke="#999" stroke-width="0.5" fill="none"></path></g><rect x="727.1" y="324.25" width="62.81" height="13.5" fill="#fff" opacity="0"></rect><text font-size="13.50" font-weight="400" x="762.1" y="336.0" fill="#883039"><tspan x="762.1" y="335.995">Coal</tspan></text></g><g class="legendMark"><g class="indicator"><path d="M731.1,447 H744.6 V447 H758.1" stroke="#999" stroke-width="0.5" fill="none"></path></g><rect x="727.1" y="440.25" width="51.47" height="13.5" fill="#fff" opacity="0"></rect><text font-size="13.50" font-weight="400" x="762.1" y="452.0" fill="#c15065"><tspan x="762.1" y="451.995">Oil</tspan></text></g></g><g class="Areas"><rect x="78.968" y="112.03999999999999" width="648.1320000000001" height="397.0400000000001" opacity="0" fill="rgba(255,255,255,0)"></rect><path class="Oil-area" stroke-linecap="round" d="M79 465.5L90.5 462.2L102.1 458.8L113.7 454.5L125.3 450L136.8 444.8L148.4 441.2L160 436L171.6 430.2L183.1 431.3L194.7 432.2L206.3 427.2L217.9 424.4L229.4 420.5L241 419.2L252.6 422.9L264.1 426L275.7 428.6L287.3 429.2L298.9 427.4L310.4 427.4L322 424.9L333.6 423.2L345.2 420.4L356.7 419L368.3 417.9L379.9 417.9L391.5 416.6L403 417L414.6 415L426.2 413.4L437.8 411.3L449.3 408.6L460.9 408.1L472.5 406.3L484.1 405.1L495.6 404.2L507.2 403.3L518.8 401L530.3 396.9L541.9 395.9L553.5 394.7L565.1 393.3L576.6 394.3L588.2 396.6L599.8 392.9L611.4 391.9L622.9 390.2L634.5 389L646.1 388.2L657.7 385.9L669.2 383.5L680.8 381.7L692.4 379.9L704 379.6L715.5 391.7L727.1 385L727.1 509.08000000000004L78.968 509.08000000000004" fill="#c15065" fill-opacity="0.7"></path><path class="Coal-area" stroke-linecap="round" d="M79 426.3L90.5 422.6L102.1 419.8L113.7 415L125.3 409.3L136.8 403.4L148.4 400L160 394.4L171.6 387.3L183.1 388.4L194.7 388.4L206.3 381.9L217.9 377.7L229.4 373.3L241 369.8L252.6 372.4L264.1 374.7L275.7 376.7L287.3 375.7L298.9 371.6L310.4 369.3L322 366.1L333.6 362.1L345.2 357.5L356.7 355.4L368.3 355L379.9 355.6L391.5 354.6L403 354.7L414.6 352.5L426.2 350.5L437.8 346.8L449.3 344.3L460.9 344.1L472.5 342.1L484.1 338.6L495.6 336.6L507.2 333.1L518.8 324.6L530.3 315.2L541.9 308.2L553.5 302.3L565.1 295.7L576.6 295.4L588.2 299.2L599.8 291.1L611.4 285.2L622.9 283.1L634.5 280.2L646.1 278.7L657.7 279L669.2 278L680.8 275.6L692.4 272.5L704 273.7L715.5 290L727.1 277.1L727.1 385L715.5 391.7L704 379.6L692.4 379.9L680.8 381.7L669.2 383.5L657.7 385.9L646.1 388.2L634.5 389L622.9 390.2L611.4 391.9L599.8 392.9L588.2 396.6L576.6 394.3L565.1 393.3L553.5 394.7L541.9 395.9L530.3 396.9L518.8 401L507.2 403.3L495.6 404.2L484.1 405.1L472.5 406.3L460.9 408.1L449.3 408.6L437.8 411.3L426.2 413.4L414.6 415L403 417L391.5 416.6L379.9 417.9L368.3 417.9L356.7 419L345.2 420.4L333.6 423.2L322 424.9L310.4 427.4L298.9 427.4L287.3 429.2L275.7 428.6L264.1 426L252.6 422.9L241 419.2L229.4 420.5L217.9 424.4L206.3 427.2L194.7 432.2L183.1 431.3L171.6 430.2L160 436L148.4 441.2L136.8 444.8L125.3 450L113.7 454.5L102.1 458.8L90.5 462.2L79 465.5" fill="#883039" fill-opacity="0.7"></path><path class="Gas-area" stroke-linecap="round" d="M79 411L90.5 405.9L102.1 402L113.7 395.5L125.3 387.9L136.8 380.1L148.4 375.1L160 368.1L171.6 359.7L183.1 360.1L194.7 360.2L206.3 351.9L217.9 346.8L229.4 341.1L241 335.6L252.6 337.8L264.1 339.8L275.7 341.6L287.3 340.1L298.9 333L310.4 329.8L322 326.3L333.6 320.2L345.2 313.6L356.7 309.6L368.3 307.8L379.9 307.2L391.5 305.9L403 305.6L414.6 303L426.2 299.3L437.8 293.1L449.3 290.9L460.9 289.7L472.5 286.1L484.1 280.4L495.6 277.6L507.2 272.4L518.8 262.2L530.3 250.4L541.9 241.6L553.5 234L565.1 224.6L576.6 222.6L588.2 227.9L599.8 214.5L611.4 206.7L622.9 202.6L634.5 198.4L646.1 196.4L657.7 194.7L669.2 191.8L680.8 187L692.4 179.4L704 178.9L715.5 196.7L727.1 179.2L727.1 277.1L715.5 290L704 273.7L692.4 272.5L680.8 275.6L669.2 278L657.7 279L646.1 278.7L634.5 280.2L622.9 283.1L611.4 285.2L599.8 291.1L588.2 299.2L576.6 295.4L565.1 295.7L553.5 302.3L541.9 308.2L530.3 315.2L518.8 324.6L507.2 333.1L495.6 336.6L484.1 338.6L472.5 342.1L460.9 344.1L449.3 344.3L437.8 346.8L426.2 350.5L414.6 352.5L403 354.7L391.5 354.6L379.9 355.6L368.3 355L356.7 355.4L345.2 357.5L333.6 362.1L322 366.1L310.4 369.3L298.9 371.6L287.3 375.7L275.7 376.7L264.1 374.7L252.6 372.4L241 369.8L229.4 373.3L217.9 377.7L206.3 381.9L194.7 388.4L183.1 388.4L171.6 387.3L160 394.4L148.4 400L136.8 403.4L125.3 409.3L113.7 415L102.1 419.8L90.5 422.6L79 426.3" fill="#6d3e91" fill-opacity="0.7"></path><path class="Nuclear-area" stroke-linecap="round" d="M79 410.8L90.5 405.7L102.1 401.7L113.7 395.1L125.3 387.4L136.8 379.6L148.4 374.3L160 367L171.6 358.3L183.1 358.3L194.7 357.6L206.3 349L217.9 343.1L229.4 336.8L241 331.1L252.6 332.9L264.1 334L275.7 335.4L287.3 333L298.9 324.4L310.4 319.6L322 315.3L333.6 308.2L345.2 300.6L356.7 296.2L368.3 294L379.9 292.8L391.5 291.4L403 290.5L414.6 287.7L426.2 283.3L437.8 276.5L449.3 274.4L460.9 273L472.5 268.8L484.1 262.6L495.6 259.5L507.2 254.1L518.8 244.3L530.3 231.9L541.9 223.2L553.5 215.5L565.1 206.5L576.6 204.7L588.2 210.3L599.8 196.6L611.4 189.7L622.9 186.8L634.5 182.6L646.1 180.3L657.7 178.6L669.2 175.5L680.8 170.7L692.4 162.8L704 161.8L715.5 180.2L727.1 162.1L727.1 179.2L715.5 196.7L704 178.9L692.4 179.4L680.8 187L669.2 191.8L657.7 194.7L646.1 196.4L634.5 198.4L622.9 202.6L611.4 206.7L599.8 214.5L588.2 227.9L576.6 222.6L565.1 224.6L553.5 234L541.9 241.6L530.3 250.4L518.8 262.2L507.2 272.4L495.6 277.6L484.1 280.4L472.5 286.1L460.9 289.7L449.3 290.9L437.8 293.1L426.2 299.3L414.6 303L403 305.6L391.5 305.9L379.9 307.2L368.3 307.8L356.7 309.6L345.2 313.6L333.6 320.2L322 326.3L310.4 329.8L298.9 333L287.3 340.1L275.7 341.6L264.1 339.8L252.6 337.8L241 335.6L229.4 341.1L217.9 346.8L206.3 351.9L194.7 360.2L183.1 360.1L171.6 359.7L160 368.1L148.4 375.1L136.8 380.1L125.3 387.9L113.7 395.5L102.1 402L90.5 405.9L79 411" fill="#00847e" fill-opacity="0.7"></path><path class="Hydropower-area" stroke-linecap="round" d="M79 404.2L90.5 398.6L102.1 394.5L113.7 387.5L125.3 379.4L136.8 371.1L148.4 365.5L160 357.8L171.6 349L183.1 348L194.7 347.2L206.3 338.6L217.9 332.4L229.4 325.2L241 318.9L252.6 320.5L264.1 321.3L275.7 322.4L287.3 319.5L298.9 310.5L310.4 305.4L322 300.9L333.6 293.7L345.2 285.5L356.7 281.3L368.3 278.5L379.9 276.9L391.5 275.5L403 273.7L414.6 270.8L426.2 265.5L437.8 258.5L449.3 256L460.9 254.5L472.5 250.1L484.1 243.6L495.6 241.1L507.2 235.5L518.8 225.9L530.3 212.2L541.9 203L553.5 194.6L565.1 185.4L576.6 182.5L588.2 188.3L599.8 173.5L611.4 166.3L622.9 162.6L634.5 157.6L646.1 154.8L657.7 153.2L669.2 149.5L680.8 144.4L692.4 136L704 134.7L715.5 152.6L727.1 135L727.1 162.1L715.5 180.2L704 161.8L692.4 162.8L680.8 170.7L669.2 175.5L657.7 178.6L646.1 180.3L634.5 182.6L622.9 186.8L611.4 189.7L599.8 196.6L588.2 210.3L576.6 204.7L565.1 206.5L553.5 215.5L541.9 223.2L530.3 231.9L518.8 244.3L507.2 254.1L495.6 259.5L484.1 262.6L472.5 268.8L460.9 273L449.3 274.4L437.8 276.5L426.2 283.3L414.6 287.7L403 290.5L391.5 291.4L379.9 292.8L368.3 294L356.7 296.2L345.2 300.6L333.6 308.2L322 315.3L310.4 319.6L298.9 324.4L287.3 333L275.7 335.4L264.1 334L252.6 332.9L241 331.1L229.4 336.8L217.9 343.1L206.3 349L194.7 357.6L183.1 358.3L171.6 358.3L160 367L148.4 374.3L136.8 379.6L125.3 387.4L113.7 395.1L102.1 401.7L90.5 405.7L79 410.8" fill="#286bbb" fill-opacity="0.7"></path><path class="Wind-area" stroke-linecap="round" d="M79 404.2L90.5 398.6L102.1 394.5L113.7 387.5L125.3 379.4L136.8 371.1L148.4 365.5L160 357.8L171.6 349L183.1 348L194.7 347.2L206.3 338.6L217.9 332.4L229.4 325.2L241 318.9L252.6 320.5L264.1 321.3L275.7 322.4L287.3 319.5L298.9 310.5L310.4 305.4L322 300.9L333.6 293.7L345.2 285.5L356.7 281.2L368.3 278.5L379.9 276.9L391.5 275.5L403 273.7L414.6 270.7L426.2 265.4L437.8 258.4L449.3 256L460.9 254.4L472.5 250L484.1 243.4L495.6 240.8L507.2 235.1L518.8 225.4L530.3 211.6L541.9 202.2L553.5 193.7L565.1 184.3L576.6 181L588.2 186.5L599.8 171.2L611.4 163.4L622.9 159L634.5 153.4L646.1 150.2L657.7 147.8L669.2 143.2L680.8 137L692.4 127.8L704 125.6L715.5 142.4L727.1 123.2L727.1 135L715.5 152.6L704 134.7L692.4 136L680.8 144.4L669.2 149.5L657.7 153.2L646.1 154.8L634.5 157.6L622.9 162.6L611.4 166.3L599.8 173.5L588.2 188.3L576.6 182.5L565.1 185.4L553.5 194.6L541.9 203L530.3 212.2L518.8 225.9L507.2 235.5L495.6 241.1L484.1 243.6L472.5 250.1L460.9 254.5L449.3 256L437.8 258.5L426.2 265.5L414.6 270.8L403 273.7L391.5 275.5L379.9 276.9L368.3 278.5L356.7 281.3L345.2 285.5L333.6 293.7L322 300.9L310.4 305.4L298.9 310.5L287.3 319.5L275.7 322.4L264.1 321.3L252.6 320.5L241 318.9L229.4 325.2L217.9 332.4L206.3 338.6L194.7 347.2L183.1 348L171.6 349L160 357.8L148.4 365.5L136.8 371.1L125.3 379.4L113.7 387.5L102.1 394.5L90.5 398.6L79 404.2" fill="#00295b" fill-opacity="0.7"></path><path class="Solar-area" stroke-linecap="round" d="M79 404.2L90.5 398.6L102.1 394.5L113.7 387.5L125.3 379.4L136.8 371.1L148.4 365.5L160 357.8L171.6 349L183.1 348L194.7 347.2L206.3 338.6L217.9 332.4L229.4 325.2L241 318.9L252.6 320.5L264.1 321.3L275.7 322.4L287.3 319.5L298.9 310.5L310.4 305.4L322 300.9L333.6 293.7L345.2 285.5L356.7 281.2L368.3 278.5L379.9 276.9L391.5 275.5L403 273.7L414.6 270.7L426.2 265.4L437.8 258.4L449.3 255.9L460.9 254.4L472.5 250L484.1 243.4L495.6 240.8L507.2 235.1L518.8 225.4L530.3 211.6L541.9 202.2L553.5 193.7L565.1 184.2L576.6 180.9L588.2 186.3L599.8 170.9L611.4 162.9L622.9 158.4L634.5 152.5L646.1 148.9L657.7 146.2L669.2 141.1L680.8 134.2L692.4 124.1L704 121.1L715.5 137L727.1 116.7L727.1 123.2L715.5 142.4L704 125.6L692.4 127.8L680.8 137L669.2 143.2L657.7 147.8L646.1 150.2L634.5 153.4L622.9 159L611.4 163.4L599.8 171.2L588.2 186.5L576.6 181L565.1 184.3L553.5 193.7L541.9 202.2L530.3 211.6L518.8 225.4L507.2 235.1L495.6 240.8L484.1 243.4L472.5 250L460.9 254.4L449.3 256L437.8 258.4L426.2 265.4L414.6 270.7L403 273.7L391.5 275.5L379.9 276.9L368.3 278.5L356.7 281.2L345.2 285.5L333.6 293.7L322 300.9L310.4 305.4L298.9 310.5L287.3 319.5L275.7 322.4L264.1 321.3L252.6 320.5L241 318.9L229.4 325.2L217.9 332.4L206.3 338.6L194.7 347.2L183.1 348L171.6 349L160 357.8L148.4 365.5L136.8 371.1L125.3 379.4L113.7 387.5L102.1 394.5L90.5 398.6L79 404.2" fill="#e56e5a" fill-opacity="0.7"></path><path class="Biofuels-area" stroke-linecap="round" d="M79 404.2L90.5 398.6L102.1 394.4L113.7 387.5L125.3 379.4L136.8 371.1L148.4 365.5L160 357.8L171.6 349L183.1 348L194.7 347.2L206.3 338.6L217.9 332.3L229.4 325.2L241 318.9L252.6 320.4L264.1 321.3L275.7 322.4L287.3 319.4L298.9 310.4L310.4 305.2L322 300.7L333.6 293.5L345.2 285.3L356.7 281L368.3 278.3L379.9 276.6L391.5 275.2L403 273.4L414.6 270.5L426.2 265.1L437.8 258.1L449.3 255.6L460.9 254.1L472.5 249.7L484.1 243.1L495.6 240.5L507.2 234.7L518.8 225L530.3 211.1L541.9 201.6L553.5 192.9L565.1 183.3L576.6 179.6L588.2 184.9L599.8 169.3L611.4 161.2L622.9 156.5L634.5 150.5L646.1 146.8L657.7 144L669.2 138.8L680.8 131.8L692.4 121.6L704 118.4L715.5 134.4L727.1 113.9L727.1 116.7L715.5 137L704 121.1L692.4 124.1L680.8 134.2L669.2 141.1L657.7 146.2L646.1 148.9L634.5 152.5L622.9 158.4L611.4 162.9L599.8 170.9L588.2 186.3L576.6 180.9L565.1 184.2L553.5 193.7L541.9 202.2L530.3 211.6L518.8 225.4L507.2 235.1L495.6 240.8L484.1 243.4L472.5 250L460.9 254.4L449.3 255.9L437.8 258.4L426.2 265.4L414.6 270.7L403 273.7L391.5 275.5L379.9 276.9L368.3 278.5L356.7 281.2L345.2 285.5L333.6 293.7L322 300.9L310.4 305.4L298.9 310.5L287.3 319.5L275.7 322.4L264.1 321.3L252.6 320.5L241 318.9L229.4 325.2L217.9 332.4L206.3 338.6L194.7 347.2L183.1 348L171.6 349L160 357.8L148.4 365.5L136.8 371.1L125.3 379.4L113.7 387.5L102.1 394.5L90.5 398.6L79 404.2" fill="#9a5129" fill-opacity="0.7"></path><path class="Other-renewables-area" stroke-linecap="round" d="M79 404.2L90.5 398.6L102.1 394.4L113.7 387.5L125.3 379.3L136.8 371.1L148.4 365.4L160 357.7L171.6 348.9L183.1 347.9L194.7 347.1L206.3 338.5L217.9 332.2L229.4 325.1L241 318.7L252.6 320.3L264.1 321.1L275.7 322.2L287.3 319.2L298.9 310.2L310.4 305L322 300.5L333.6 293.2L345.2 285.1L356.7 280.8L368.3 278L379.9 276.4L391.5 274.9L403 273.1L414.6 270.1L426.2 264.8L437.8 257.8L449.3 255.3L460.9 253.6L472.5 249.2L484.1 242.6L495.6 240.1L507.2 234.2L518.8 224.5L530.3 210.5L541.9 201L553.5 192.3L565.1 182.6L576.6 178.9L588.2 184L599.8 168.3L611.4 160.2L622.9 155.5L634.5 149.3L646.1 145.5L657.7 142.6L669.2 137.4L680.8 130.4L692.4 120L704 116.8L715.5 132.7L727.1 112L727.1 113.9L715.5 134.4L704 118.4L692.4 121.6L680.8 131.8L669.2 138.8L657.7 144L646.1 146.8L634.5 150.5L622.9 156.5L611.4 161.2L599.8 169.3L588.2 184.9L576.6 179.6L565.1 183.3L553.5 192.9L541.9 201.6L530.3 211.1L518.8 225L507.2 234.7L495.6 240.5L484.1 243.1L472.5 249.7L460.9 254.1L449.3 255.6L437.8 258.1L426.2 265.1L414.6 270.5L403 273.4L391.5 275.2L379.9 276.6L368.3 278.3L356.7 281L345.2 285.3L333.6 293.5L322 300.7L310.4 305.2L298.9 310.4L287.3 319.4L275.7 322.4L264.1 321.3L252.6 320.4L241 318.9L229.4 325.2L217.9 332.3L206.3 338.6L194.7 347.2L183.1 348L171.6 349L160 357.8L148.4 365.5L136.8 371.1L125.3 379.4L113.7 387.5L102.1 394.4L90.5 398.6L79 404.2" fill="#578145" fill-opacity="0.7"></path><path class="Oil-border" stroke-linecap="round" d="M79 465.5L90.5 462.2L102.1 458.8L113.7 454.5L125.3 450L136.8 444.8L148.4 441.2L160 436L171.6 430.2L183.1 431.3L194.7 432.2L206.3 427.2L217.9 424.4L229.4 420.5L241 419.2L252.6 422.9L264.1 426L275.7 428.6L287.3 429.2L298.9 427.4L310.4 427.4L322 424.9L333.6 423.2L345.2 420.4L356.7 419L368.3 417.9L379.9 417.9L391.5 416.6L403 417L414.6 415L426.2 413.4L437.8 411.3L449.3 408.6L460.9 408.1L472.5 406.3L484.1 405.1L495.6 404.2L507.2 403.3L518.8 401L530.3 396.9L541.9 395.9L553.5 394.7L565.1 393.3L576.6 394.3L588.2 396.6L599.8 392.9L611.4 391.9L622.9 390.2L634.5 389L646.1 388.2L657.7 385.9L669.2 383.5L680.8 381.7L692.4 379.9L704 379.6L715.5 391.7L727.1 385" stroke="rgb(161, 67, 85)" stroke-opacity="0.7" stroke-width="0.5" fill="none"></path><path class="Coal-border" stroke-linecap="round" d="M79 426.3L90.5 422.6L102.1 419.8L113.7 415L125.3 409.3L136.8 403.4L148.4 400L160 394.4L171.6 387.3L183.1 388.4L194.7 388.4L206.3 381.9L217.9 377.7L229.4 373.3L241 369.8L252.6 372.4L264.1 374.7L275.7 376.7L287.3 375.7L298.9 371.6L310.4 369.3L322 366.1L333.6 362.1L345.2 357.5L356.7 355.4L368.3 355L379.9 355.6L391.5 354.6L403 354.7L414.6 352.5L426.2 350.5L437.8 346.8L449.3 344.3L460.9 344.1L472.5 342.1L484.1 338.6L495.6 336.6L507.2 333.1L518.8 324.6L530.3 315.2L541.9 308.2L553.5 302.3L565.1 295.7L576.6 295.4L588.2 299.2L599.8 291.1L611.4 285.2L622.9 283.1L634.5 280.2L646.1 278.7L657.7 279L669.2 278L680.8 275.6L692.4 272.5L704 273.7L715.5 290L727.1 277.1" stroke="rgb(114, 40, 48)" stroke-opacity="0.7" stroke-width="0.5" fill="none"></path><path class="Gas-border" stroke-linecap="round" d="M79 411L90.5 405.9L102.1 402L113.7 395.5L125.3 387.9L136.8 380.1L148.4 375.1L160 368.1L171.6 359.7L183.1 360.1L194.7 360.2L206.3 351.9L217.9 346.8L229.4 341.1L241 335.6L252.6 337.8L264.1 339.8L275.7 341.6L287.3 340.1L298.9 333L310.4 329.8L322 326.3L333.6 320.2L345.2 313.6L356.7 309.6L368.3 307.8L379.9 307.2L391.5 305.9L403 305.6L414.6 303L426.2 299.3L437.8 293.1L449.3 290.9L460.9 289.7L472.5 286.1L484.1 280.4L495.6 277.6L507.2 272.4L518.8 262.2L530.3 250.4L541.9 241.6L553.5 234L565.1 224.6L576.6 222.6L588.2 227.9L599.8 214.5L611.4 206.7L622.9 202.6L634.5 198.4L646.1 196.4L657.7 194.7L669.2 191.8L680.8 187L692.4 179.4L704 178.9L715.5 196.7L727.1 179.2" stroke="rgb(91, 52, 121)" stroke-opacity="0.7" stroke-width="0.5" fill="none"></path><path class="Nuclear-border" stroke-linecap="round" d="M79 410.8L90.5 405.7L102.1 401.7L113.7 395.1L125.3 387.4L136.8 379.6L148.4 374.3L160 367L171.6 358.3L183.1 358.3L194.7 357.6L206.3 349L217.9 343.1L229.4 336.8L241 331.1L252.6 332.9L264.1 334L275.7 335.4L287.3 333L298.9 324.4L310.4 319.6L322 315.3L333.6 308.2L345.2 300.6L356.7 296.2L368.3 294L379.9 292.8L391.5 291.4L403 290.5L414.6 287.7L426.2 283.3L437.8 276.5L449.3 274.4L460.9 273L472.5 268.8L484.1 262.6L495.6 259.5L507.2 254.1L518.8 244.3L530.3 231.9L541.9 223.2L553.5 215.5L565.1 206.5L576.6 204.7L588.2 210.3L599.8 196.6L611.4 189.7L622.9 186.8L634.5 182.6L646.1 180.3L657.7 178.6L669.2 175.5L680.8 170.7L692.4 162.8L704 161.8L715.5 180.2L727.1 162.1" stroke="rgb(0, 110, 105)" stroke-opacity="0.7" stroke-width="0.5" fill="none"></path><path class="Hydropower-border" stroke-linecap="round" d="M79 404.2L90.5 398.6L102.1 394.5L113.7 387.5L125.3 379.4L136.8 371.1L148.4 365.5L160 357.8L171.6 349L183.1 348L194.7 347.2L206.3 338.6L217.9 332.4L229.4 325.2L241 318.9L252.6 320.5L264.1 321.3L275.7 322.4L287.3 319.5L298.9 310.5L310.4 305.4L322 300.9L333.6 293.7L345.2 285.5L356.7 281.3L368.3 278.5L379.9 276.9L391.5 275.5L403 273.7L414.6 270.8L426.2 265.5L437.8 258.5L449.3 256L460.9 254.5L472.5 250.1L484.1 243.6L495.6 241.1L507.2 235.5L518.8 225.9L530.3 212.2L541.9 203L553.5 194.6L565.1 185.4L576.6 182.5L588.2 188.3L599.8 173.5L611.4 166.3L622.9 162.6L634.5 157.6L646.1 154.8L657.7 153.2L669.2 149.5L680.8 144.4L692.4 136L704 134.7L715.5 152.6L727.1 135" stroke="rgb(33, 90, 156)" stroke-opacity="0.7" stroke-width="0.5" fill="none"></path><path class="Wind-border" stroke-linecap="round" d="M79 404.2L90.5 398.6L102.1 394.5L113.7 387.5L125.3 379.4L136.8 371.1L148.4 365.5L160 357.8L171.6 349L183.1 348L194.7 347.2L206.3 338.6L217.9 332.4L229.4 325.2L241 318.9L252.6 320.5L264.1 321.3L275.7 322.4L287.3 319.5L298.9 310.5L310.4 305.4L322 300.9L333.6 293.7L345.2 285.5L356.7 281.2L368.3 278.5L379.9 276.9L391.5 275.5L403 273.7L414.6 270.7L426.2 265.4L437.8 258.4L449.3 256L460.9 254.4L472.5 250L484.1 243.4L495.6 240.8L507.2 235.1L518.8 225.4L530.3 211.6L541.9 202.2L553.5 193.7L565.1 184.3L576.6 181L588.2 186.5L599.8 171.2L611.4 163.4L622.9 159L634.5 153.4L646.1 150.2L657.7 147.8L669.2 143.2L680.8 137L692.4 127.8L704 125.6L715.5 142.4L727.1 123.2" stroke="rgb(0, 34, 76)" stroke-opacity="0.7" stroke-width="0.5" fill="none"></path><path class="Solar-border" stroke-linecap="round" d="M79 404.2L90.5 398.6L102.1 394.5L113.7 387.5L125.3 379.4L136.8 371.1L148.4 365.5L160 357.8L171.6 349L183.1 348L194.7 347.2L206.3 338.6L217.9 332.4L229.4 325.2L241 318.9L252.6 320.5L264.1 321.3L275.7 322.4L287.3 319.5L298.9 310.5L310.4 305.4L322 300.9L333.6 293.7L345.2 285.5L356.7 281.2L368.3 278.5L379.9 276.9L391.5 275.5L403 273.7L414.6 270.7L426.2 265.4L437.8 258.4L449.3 255.9L460.9 254.4L472.5 250L484.1 243.4L495.6 240.8L507.2 235.1L518.8 225.4L530.3 211.6L541.9 202.2L553.5 193.7L565.1 184.2L576.6 180.9L588.2 186.3L599.8 170.9L611.4 162.9L622.9 158.4L634.5 152.5L646.1 148.9L657.7 146.2L669.2 141.1L680.8 134.2L692.4 124.1L704 121.1L715.5 137L727.1 116.7" stroke="rgb(192, 92, 75)" stroke-opacity="0.7" stroke-width="0.5" fill="none"></path><path class="Biofuels-border" stroke-linecap="round" d="M79 404.2L90.5 398.6L102.1 394.4L113.7 387.5L125.3 379.4L136.8 371.1L148.4 365.5L160 357.8L171.6 349L183.1 348L194.7 347.2L206.3 338.6L217.9 332.3L229.4 325.2L241 318.9L252.6 320.4L264.1 321.3L275.7 322.4L287.3 319.4L298.9 310.4L310.4 305.2L322 300.7L333.6 293.5L345.2 285.3L356.7 281L368.3 278.3L379.9 276.6L391.5 275.2L403 273.4L414.6 270.5L426.2 265.1L437.8 258.1L449.3 255.6L460.9 254.1L472.5 249.7L484.1 243.1L495.6 240.5L507.2 234.7L518.8 225L530.3 211.1L541.9 201.6L553.5 192.9L565.1 183.3L576.6 179.6L588.2 184.9L599.8 169.3L611.4 161.2L622.9 156.5L634.5 150.5L646.1 146.8L657.7 144L669.2 138.8L680.8 131.8L692.4 121.6L704 118.4L715.5 134.4L727.1 113.9" stroke="rgb(129, 68, 34)" stroke-opacity="0.7" stroke-width="0.5" fill="none"></path><path class="Other-renewables-border" stroke-linecap="round" d="M79 404.2L90.5 398.6L102.1 394.4L113.7 387.5L125.3 379.3L136.8 371.1L148.4 365.4L160 357.7L171.6 348.9L183.1 347.9L194.7 347.1L206.3 338.5L217.9 332.2L229.4 325.1L241 318.7L252.6 320.3L264.1 321.1L275.7 322.2L287.3 319.2L298.9 310.2L310.4 305L322 300.5L333.6 293.2L345.2 285.1L356.7 280.8L368.3 278L379.9 276.4L391.5 274.9L403 273.1L414.6 270.1L426.2 264.8L437.8 257.8L449.3 255.3L460.9 253.6L472.5 249.2L484.1 242.6L495.6 240.1L507.2 234.2L518.8 224.5L530.3 210.5L541.9 201L553.5 192.3L565.1 182.6L576.6 178.9L588.2 184L599.8 168.3L611.4 160.2L622.9 155.5L634.5 149.3L646.1 145.5L657.7 142.6L669.2 137.4L680.8 130.4L692.4 120L704 116.8L715.5 132.7L727.1 112" stroke="rgb(73, 108, 58)" stroke-opacity="0.7" stroke-width="0.5" fill="none"></path></g></g></g><g class="SourcesFooter" style="fill:#777"><g style="fill:#777"><text font-size="12.60" x="15.0" y="566.9"><tspan x="15" y="566.872">Source: BP Statistical Review of World Energy</tspan></text></g><text x="15.0" y="582.7" style="font-size:12.6px;line-height:1.1"><tspan x="15" y="582.7">Note: &#x27;Other renewables&#x27; includes geothermal, biomass and waste energy.</tspan></text><text font-size="12.60" x="627.9" y="566.9"><tspan x="627.856" y="566.872"><a target='_blank' style='fill: #777;' href='https://ourworldindata.org/energy'>OurWorldInData.org/energy</a> • <a style="fill: #777;" class="cclogo" href="http://creativecommons.org/licenses/by/4.0/deed.en_US" target="_blank">CC BY</a></tspan></text></g></svg>