<?xml version="1.0" encoding="UTF-8" standalone="no"?>
<!DOCTYPE svg PUBLIC "-//W3C//DTD SVG 1.1//EN" "http://www.w3.org/Graphics/SVG/1.1/DTD/svg11.dtd">
<svg xmlns="http://www.w3.org/2000/svg" xmlns:xlink="http://www.w3.org/1999/xlink" xmlns:serif="http://www.serif.com/" width="100%" height="100%" viewBox="0 0 257 75" version="1.1" xml:space="preserve" style="fill-rule:evenodd;clip-rule:evenodd;stroke-linecap:round;"><rect id="rect3522" x="134.262" y="28.699" width="14.999" height="26.024" style="fill:#10ff2e;fill-opacity:0.392157;stroke:#000;stroke-width:1px;"/><rect id="rect3508" x="119.261" y="28.699" width="14.999" height="26.024" style="fill:#10ff2e;fill-opacity:0.392157;stroke:#000;stroke-width:1px;"/><rect id="rect3510" x="104.261" y="28.699" width="14.999" height="26.024" style="fill:#10ff2e;fill-opacity:0.392157;stroke:#000;stroke-width:1px;"/><rect id="rect3512" x="89.261" y="28.699" width="14.999" height="26.024" style="fill:#10ff2e;fill-opacity:0.392157;stroke:#000;stroke-width:1px;"/><rect id="rect3514" x="74.261" y="28.699" width="14.999" height="26.024" style="fill:#10ff2e;fill-opacity:0.392157;stroke:#000;stroke-width:1px;"/><rect id="rect3516" x="59.26" y="28.699" width="14.999" height="26.024" style="fill:#10ff2e;fill-opacity:0.392157;stroke:#000;stroke-width:1px;"/><rect id="rect3518" x="44.26" y="28.699" width="14.999" height="26.024" style="fill:#10ff2e;fill-opacity:0.392157;stroke:#000;stroke-width:1px;"/><rect id="rect3520" x="29.26" y="28.699" width="14.999" height="26.024" style="fill:#10ff2e;fill-opacity:0.392157;stroke:#000;stroke-width:1px;"/><rect id="rect3147" x="29.26" y="28.7" width="120.001" height="26.024" style="fill:none;stroke:#000;stroke-width:2px;"/><rect id="rect31471" serif:id="rect3147" x="29.26" y="28.7" width="120.001" height="26.024" style="fill:none;stroke:#000;stroke-width:2px;"/><path id="path2170" d="M30.239,25.223l0,-9.425l118.139,0l0,9.425" style="fill:none;stroke:#008000;stroke-width:1px;stroke-linecap:butt;"/><path id="path2172" d="M150.261,25.223l0,-9.425l104.16,0l0,9.425" style="fill:none;stroke:#800000;stroke-width:1px;stroke-linecap:butt;"/><rect id="rect3149" x="14.261" y="28.699" width="14.999" height="26.024" style="fill:#0af5ff;fill-opacity:0.235294;stroke:#000;stroke-width:2px;"/><g id="text3151"><switch style="font-family:'ArialMT', 'Arial', sans-serif;font-size:14.641px;"><text x="1.454px" y="11.142px" style="font-family:'ArialMT', 'Arial', sans-serif;font-size:14.641px;" id="trsvg26-fr" systemLanguage="fr"><tspan id="trsvg1-fr">signe</tspan></text><text x="1.454px" y="11.142px" style="font-family:'ArialMT', 'Arial', sans-serif;font-size:14.641px;" id="trsvg26"><tspan id="trsvg1">sign</tspan></text></switch></g><g id="text3369"><switch style="font-family:'ArialMT', 'Arial', sans-serif;font-size:14.641px;"><text x="34.561px" y="11.142px" style="font-family:'ArialMT', 'Arial', sans-serif;font-size:14.641px;" id="trsvg27-fr" systemLanguage="fr"><tspan id="trsvg2-fr">exposant (8 bits)</tspan></text><text x="34.561px" y="11.142px" style="font-family:'ArialMT', 'Arial', sans-serif;font-size:14.641px;" id="trsvg27"><tspan id="trsvg2">exponent (8 bits)</tspan></text></switch></g><g id="text3377"><switch style="font-family:'ArialMT', 'Arial', sans-serif;font-size:14.641px;"><text x="153.889px" y="11.55px" style="font-family:'ArialMT', 'Arial', sans-serif;font-size:14.641px;" id="trsvg28-fr" systemLanguage="fr"><tspan id="trsvg3-fr">mantisse (7 bits)</tspan></text><text x="153.889px" y="11.55px" style="font-family:'ArialMT', 'Arial', sans-serif;font-size:14.641px;" id="trsvg28"><tspan id="trsvg3">fraction (7 bits)</tspan></text></switch></g><path id="path3381" d="M249.544,59.223c0,0.715 -0.381,1.376 -1,1.734c-0.619,0.358 -1.382,0.358 -2.001,0c-0.619,-0.358 -1,-1.019 -0.999,-1.734c-0.001,-0.715 0.38,-1.376 0.999,-1.734c0.619,-0.357 1.382,-0.357 2.001,0c0.619,0.358 1,1.019 1,1.734Z" style="fill-rule:nonzero;"/><g id="text3383"><switch style="font-family:'ArialMT', 'Arial', sans-serif;font-size:14.041px;"><text x="243.687px" y="74.339px" style="font-family:'ArialMT', 'Arial', sans-serif;font-size:14.041px;" id="trsvg29"><tspan id="trsvg4">0</tspan></text></switch></g><path id="path3397" d="M143.761,59.223c0.001,0.715 -0.38,1.376 -0.999,1.734c-0.619,0.358 -1.382,0.358 -2.002,0c-0.619,-0.358 -1,-1.019 -0.999,-1.734c-0.001,-0.715 0.38,-1.376 0.999,-1.734c0.62,-0.357 1.383,-0.357 2.002,0c0.619,0.358 1,1.019 0.999,1.734Z" style="fill-rule:nonzero;"/><g id="text3399"><switch style="font-family:'ArialMT', 'Arial', sans-serif;font-size:14.041px;"><text x="137.885px" y="74.339px" style="font-family:'ArialMT', 'Arial', sans-serif;font-size:14.041px;" id="trsvg30"><tspan id="trsvg5">7</tspan></text></switch></g><path id="path3413" d="M23.76,59.223c0.001,0.715 -0.38,1.376 -0.999,1.734c-0.619,0.358 -1.382,0.358 -2.001,0c-0.619,-0.358 -1,-1.019 -1,-1.734c0,-0.715 0.381,-1.376 1,-1.734c0.619,-0.357 1.382,-0.357 2.001,0c0.619,0.358 1,1.019 0.999,1.734Z" style="fill-rule:nonzero;"/><g id="text3415"><switch style="font-family:'ArialMT', 'Arial', sans-serif;font-size:14.041px;"><text x="10.448px" y="74.339px" style="font-family:'ArialMT', 'Arial', sans-serif;font-size:14.041px;" id="trsvg31"><tspan id="trsvg6">15</tspan></text></switch></g><path id="path2232" d="M21.76,25.223l0,-9.425" style="fill:none;stroke:#008080;stroke-width:1px;stroke-linecap:butt;"/><rect id="rect3525" x="149.26" y="28.699" width="14.999" height="26.024" style="fill:#ff1e1e;fill-opacity:0.356863;stroke:#000;stroke-width:1px;"/><rect id="rect3533" x="164.304" y="28.699" width="14.999" height="26.024" style="fill:#ff1e1e;fill-opacity:0.356863;stroke:#000;stroke-width:1px;"/><rect id="rect3535" x="179.348" y="28.699" width="14.999" height="26.024" style="fill:#ff1e1e;fill-opacity:0.356863;stroke:#000;stroke-width:1px;"/><rect id="rect3537" x="194.392" y="28.699" width="14.999" height="26.024" style="fill:#ff1e1e;fill-opacity:0.356863;stroke:#000;stroke-width:1px;"/><rect id="rect3539" x="209.437" y="28.699" width="14.999" height="26.024" style="fill:#ff1e1e;fill-opacity:0.356863;stroke:#000;stroke-width:1px;"/><rect id="rect3541" x="224.481" y="28.699" width="14.999" height="26.024" style="fill:#ff1e1e;fill-opacity:0.356863;stroke:#000;stroke-width:1px;"/><rect id="rect3543" x="239.525" y="28.699" width="14.999" height="26.024" style="fill:#ff1e1e;fill-opacity:0.356863;stroke:#000;stroke-width:1px;"/><g id="text3581"><switch style="font-family:'ArialMT', 'Arial', sans-serif;font-size:14.041px;"><text x="18.384px" y="46.757px" style="font-family:'ArialMT', 'Arial', sans-serif;font-size:14.041px;" id="trsvg32"><tspan id="trsvg7">0</tspan></text></switch></g><g id="text3585"><switch style="font-family:'ArialMT', 'Arial', sans-serif;font-size:14.041px;"><text x="33.415px" y="46.757px" style="font-family:'ArialMT', 'Arial', sans-serif;font-size:14.041px;" id="trsvg33"><tspan id="trsvg8">0</tspan></text></switch></g><g id="text3589"><switch style="font-family:'ArialMT', 'Arial', sans-serif;font-size:14.041px;"><text x="48.446px" y="46.757px" style="font-family:'ArialMT', 'Arial', sans-serif;font-size:14.041px;" id="trsvg34"><tspan id="trsvg9">1</tspan></text></switch></g><g id="text3593"><switch style="font-family:'ArialMT', 'Arial', sans-serif;font-size:14.041px;"><text x="63.478px" y="46.757px" style="font-family:'ArialMT', 'Arial', sans-serif;font-size:14.041px;" id="trsvg35"><tspan id="trsvg10">1</tspan></text></switch></g><g id="text3597"><switch style="font-family:'ArialMT', 'Arial', sans-serif;font-size:14.041px;"><text x="78.509px" y="46.757px" style="font-family:'ArialMT', 'Arial', sans-serif;font-size:14.041px;" id="trsvg36"><tspan id="trsvg11">1</tspan></text></switch></g><g id="text3601"><switch style="font-family:'ArialMT', 'Arial', sans-serif;font-size:14.041px;"><text x="93.54px" y="46.757px" style="font-family:'ArialMT', 'Arial', sans-serif;font-size:14.041px;" id="trsvg37"><tspan id="trsvg12">1</tspan></text></switch></g><g id="text3605"><switch style="font-family:'ArialMT', 'Arial', sans-serif;font-size:14.041px;"><text x="108.572px" y="46.757px" style="font-family:'ArialMT', 'Arial', sans-serif;font-size:14.041px;" id="trsvg38"><tspan id="trsvg13">1</tspan></text></switch></g><g id="text3609"><switch style="font-family:'ArialMT', 'Arial', sans-serif;font-size:14.041px;"><text x="123.603px" y="46.757px" style="font-family:'ArialMT', 'Arial', sans-serif;font-size:14.041px;" id="trsvg39"><tspan id="trsvg14">0</tspan></text></switch></g><g id="text3613"><switch style="font-family:'ArialMT', 'Arial', sans-serif;font-size:14.041px;"><text x="137.634px" y="46.757px" style="font-family:'ArialMT', 'Arial', sans-serif;font-size:14.041px;" id="trsvg40"><tspan id="trsvg15">0</tspan></text></switch></g><g id="text3617"><switch style="font-family:'ArialMT', 'Arial', sans-serif;font-size:14.041px;"><text x="152.666px" y="46.757px" style="font-family:'ArialMT', 'Arial', sans-serif;font-size:14.041px;" id="trsvg41"><tspan id="trsvg16">0</tspan></text></switch></g><g id="text3621"><switch style="font-family:'ArialMT', 'Arial', sans-serif;font-size:14.041px;"><text x="167.697px" y="46.757px" style="font-family:'ArialMT', 'Arial', sans-serif;font-size:14.041px;" id="trsvg42"><tspan id="trsvg17">1</tspan></text></switch></g><g id="text3625"><switch style="font-family:'ArialMT', 'Arial', sans-serif;font-size:14.041px;"><text x="183.728px" y="46.757px" style="font-family:'ArialMT', 'Arial', sans-serif;font-size:14.041px;" id="trsvg43"><tspan id="trsvg18">0</tspan></text></switch></g><g id="text3629"><switch style="font-family:'ArialMT', 'Arial', sans-serif;font-size:14.041px;"><text x="198.76px" y="46.757px" style="font-family:'ArialMT', 'Arial', sans-serif;font-size:14.041px;" id="trsvg44"><tspan id="trsvg19">0</tspan></text></switch></g><g id="text3633"><switch style="font-family:'ArialMT', 'Arial', sans-serif;font-size:14.041px;"><text x="213.791px" y="46.757px" style="font-family:'ArialMT', 'Arial', sans-serif;font-size:14.041px;" id="trsvg45"><tspan id="trsvg20">0</tspan></text></switch></g><g id="text3637"><switch style="font-family:'ArialMT', 'Arial', sans-serif;font-size:14.041px;"><text x="228.822px" y="46.757px" style="font-family:'ArialMT', 'Arial', sans-serif;font-size:14.041px;" id="trsvg46"><tspan id="trsvg21">0</tspan></text></switch></g><g id="text3641"><switch style="font-family:'ArialMT', 'Arial', sans-serif;font-size:14.041px;"><text x="243.854px" y="46.757px" style="font-family:'ArialMT', 'Arial', sans-serif;font-size:14.041px;" id="trsvg47"><tspan id="trsvg22">0</tspan></text></switch></g><path id="path3959" d="M38.759,59.223c0.001,0.715 -0.38,1.376 -0.999,1.734c-0.619,0.358 -1.382,0.358 -2.001,0c-0.619,-0.358 -1,-1.019 -1,-1.734c0,-0.715 0.381,-1.376 1,-1.734c0.619,-0.357 1.382,-0.357 2.001,0c0.619,0.358 1,1.019 0.999,1.734Z" style="fill-rule:nonzero;"/><g id="text3961"><switch style="font-family:'ArialMT', 'Arial', sans-serif;font-size:14.041px;"><text x="31.948px" y="74.339px" style="font-family:'ArialMT', 'Arial', sans-serif;font-size:14.041px;" id="trsvg48"><tspan id="trsvg23">14</tspan></text></switch></g><path id="path3965" d="M158.759,59.223c0.001,0.715 -0.38,1.376 -0.999,1.734c-0.619,0.358 -1.382,0.358 -2.001,0c-0.619,-0.358 -1,-1.019 -1,-1.734c0,-0.715 0.381,-1.376 1,-1.734c0.619,-0.357 1.382,-0.357 2.001,0c0.619,0.358 1,1.019 0.999,1.734Z" style="fill-rule:nonzero;"/><g id="text3967"><switch style="font-family:'ArialMT', 'Arial', sans-serif;font-size:14.041px;"><text x="152.901px" y="74.18px" style="font-family:'ArialMT', 'Arial', sans-serif;font-size:14.041px;" id="trsvg49"><tspan id="trsvg24">6</tspan></text></switch></g><g id="text3971"><switch style="font-family:'ArialMT', 'Arial', sans-serif;font-size:14.041px;"><text x="170.516px" y="71.635px" style="font-family:'ArialMT', 'Arial', sans-serif;font-size:14.041px;" id="trsvg50-fr" systemLanguage="fr"><tspan id="trsvg25-fr">â† index -</tspan></text><text x="170.516px" y="71.635px" style="font-family:'ArialMT', 'Arial', sans-serif;font-size:14.041px;" id="trsvg50"><tspan id="trsvg25">(bit index)</tspan></text></switch></g><rect id="rect31472" serif:id="rect3147" x="149.464" y="28.7" width="105.014" height="26.024" style="fill:none;stroke:#000;stroke-width:1.88px;"/></svg>
