<?xml version="1.0" encoding="UTF-8" standalone="no"?>
<svg
   width="128"
   height="128"
   version="1.1"
   id="svg1"
   sodipodi:docname="icon.svg"
   xmlns:inkscape="http://www.inkscape.org/namespaces/inkscape"
   xmlns:sodipodi="http://sodipodi.sourceforge.net/DTD/sodipodi-0.dtd"
   xmlns="http://www.w3.org/2000/svg"
   xmlns:svg="http://www.w3.org/2000/svg">
  <sodipodi:namedview
     id="namedview1"
     pagecolor="#505050"
     bordercolor="#eeeeee"
     borderopacity="1"
     inkscape:showpageshadow="0"
     inkscape:pageopacity="0"
     inkscape:pagecheckerboard="0"
     inkscape:deskcolor="#d1d1d1" />
  <defs
     id="defs1">
    <style
       id="style1"><![CDATA[
            /* colors from open-props */
            :where(svg) {
                --gray-0: #f8f9fa;
                --gray-1: #f1f3f5;
                --gray-2: #e9ecef;
                --gray-3: #dee2e6;
                --gray-4: #ced4da;
                --gray-5: #adb5bd;
                --gray-6: #868e96;
                --gray-7: #495057;
                --gray-8: #343a40;
                --gray-9: #212529;
                --gray-10: #16191d;
                --gray-11: #0d0f12;
                --gray-12: #030507;
            }

            @font-face {
                font-family: EB Garamond Initials Fill1;
                src: url('../fonts/EB-Garamond-Initials/build/EBGaramond-InitialsF1.otf');
            }

            @font-face {
                font-family: EB Garamond Initials Fill2;
                src: url('../fonts/EB-Garamond-Initials/build/EBGaramond-InitialsF2.otf');
            }

            #decoration {
                stroke: var(--gray-7);
            }

            #initial {
                stroke: var(--gray-8);
                fill: var(--gray-10);
            }

            ]]></style>
  </defs>
  <!-- <rect x="0" y="0" width="128" height="128" /> -->
  <path
     d="m 22.528,97.28 c -4.096,5.632 -6.912,7.936 -14.592,12.544 0.384,-1.408 0.896,-2.688 1.664,-3.456 3.584,-4.096 8.064,-7.296 12.928,-9.088 z m 48.128,-1.408 c 0.256,0.128 0.512,0.512 0.384,0.896 -0.128,0.384 -0.768,0.64 -1.536,0.512 -0.768,-0.128 -0.896,-0.512 -0.384,-0.896 0.512,-0.256 1.28,-0.512 1.536,-0.512 z m 12.16,-60.8 c 7.296,4.864 13.312,14.08 13.056,22.4 0,1.024 -0.384,2.56 -1.152,4.096 0,0 0,0.128 0,0.128 C 84.224,55.424 82.432,43.264 82.816,35.072 Z M 35.2,2.688 C 37.248,4.864 37.12,4.224 33.28,3.2 15.616,-1.792 10.752,6.912 6.912,11.776 6.528,10.88 5.888,8.064 6.656,6.528 8.448,2.816 13.44,-0.64 7.296,1.664 4.864,2.56 1.664,1.024 1.92,4.864 c 0.128,2.432 0,3.072 -0.768,3.072 -1.152,0 -1.152,0.128 0,2.944 0.64,1.792 1.536,2.688 1.408,1.28 0,-0.64 0.768,-0.64 1.28,-0.256 0.768,0.768 -0.128,8.064 -1.024,8.704 -0.896,0.512 -1.664,3.072 -1.024,3.072 1.024,0 3.072,10.24 6.912,14.464 0,1.024 -2.56,0.896 -4.864,-0.256 -1.792,-0.896 -2.048,-0.896 -3.072,0 -1.024,1.024 -1.024,1.152 0.256,2.432 0.896,0.896 2.56,1.152 4.096,1.92 5.12,2.56 6.016,-0.512 7.296,0.128 2.944,1.792 10.368,10.496 11.136,14.848 0.256,1.408 0,1.408 -2.304,-0.896 -1.28,-1.28 -2.944,-2.304 -3.712,-2.304 -1.664,0 -4.096,-2.048 -4.096,-3.584 0,-0.512 -0.384,-1.28 -0.64,-1.792 -2.944,-4.224 -9.088,1.152 -10.24,3.072 -0.384,0.512 -1.152,1.28 -1.152,3.456 0,1.92 -0.128,4.608 -0.384,6.144 -0.384,2.304 -0.256,2.56 0.512,1.92 0.512,-0.384 1.664,-2.176 2.56,-4.096 0.896,-1.792 1.92,-3.456 2.304,-3.84 1.408,-1.152 4.48,-1.408 6.528,-0.512 2.048,1.024 4.992,1.152 6.272,3.072 0.896,1.536 0.896,1.536 -1.28,2.176 C 16,60.8 15.744,60.672 14.08,59.136 12.544,57.6 12.288,57.6 10.24,58.24 8.576,58.752 7.808,59.52 7.168,61.056 6.656,62.208 6.272,63.36 6.272,63.488 c 0,0.256 1.152,0.256 2.56,0 L 11.392,63.232 9.6,64.64 c -1.024,0.768 -2.176,1.408 -2.56,1.536 -1.024,0 -2.688,1.664 -3.712,3.584 -0.512,1.024 -1.024,1.92 -1.664,2.816 -1.024,1.28 -0.896,1.408 0.64,2.048 2.56,1.024 3.84,0.768 4.48,-0.896 0.768,-1.92 1.792,-1.92 2.176,-0.128 0.512,2.176 4.992,3.072 7.04,1.408 1.28,-1.024 1.92,-3.456 0.768,-3.456 -0.384,0 -0.896,0.256 -1.152,0.64 -0.512,0.768 -5.248,0.256 -5.888,-0.64 -0.896,-1.536 -0.256,-3.2 1.92,-4.608 1.664,-1.152 2.56,-1.408 5.12,-1.152 3.84,0.512 4.992,-0.128 3.968,-2.048 -0.512,-1.152 -0.512,-1.536 0.384,-2.176 1.024,-0.768 1.28,-0.64 2.176,0.512 2.176,2.816 3.072,8.704 1.408,10.112 -0.512,0.384 -0.896,1.152 -0.896,1.664 0,1.408 -0.896,1.92 -1.536,2.56 -1.792,1.92 -1.536,5.632 0.256,7.552 0.896,0.896 1.792,1.408 2.304,1.28 2.304,-0.64 1.152,5.248 -0.768,9.344 -0.128,0.128 -0.256,0.128 -0.256,0.128 l -6.144,1.792 c -2.048,0.64 -2.176,0 -0.256,-2.176 1.152,-1.152 1.792,-2.56 1.792,-5.12 0,-7.936 -9.984,-11.264 -15.488,-7.936 -3.584,2.176 -4.224,3.584 -3.456,6.272 0.384,1.664 0.896,2.176 1.92,2.176 0.64,0.128 1.792,0.256 2.432,0.256 1.664,0.384 1.92,-1.28 0.512,-2.944 -0.768,-0.64 -1.408,-1.92 -1.408,-2.688 0,-1.024 0.384,-1.152 1.792,-1.28 4.736,-0.384 5.12,1.92 6.656,5.248 1.536,3.456 2.816,2.816 2.304,0.512 -0.384,-1.664 0.128,-1.92 1.28,-0.768 1.024,0.896 0.896,3.456 -0.128,5.376 -0.512,0.768 -0.896,2.048 -0.896,2.688 0,0.768 -0.64,2.432 -2.688,4.224 -6.784,5.504 -5.376,8.576 -7.424,10.24 -2.688,2.176 -2.048,6.528 -1.28,9.728 1.28,5.504 3.2,6.656 9.344,5.76 3.968,-0.512 6.4,-1.792 7.68,-3.84 0.512,-0.64 0.512,-1.152 0,-1.664 -0.512,-0.512 -1.536,-0.128 -3.968,1.152 -2.432,1.408 -5.888,1.664 -6.912,-0.256 -0.896,-1.664 -1.536,-3.456 -1.792,-5.376 1.792,-7.808 12.544,-7.936 17.664,-19.584 6.912,-1.664 14.336,-0.384 21.12,5.12 2.304,1.92 2.304,2.176 1.408,2.944 -1.024,0.64 -1.024,0.768 0.128,1.792 0.768,0.64 2.176,1.024 4.352,1.152 l 3.2,0.128 -0.128,-2.048 c -0.128,-1.792 0,-2.048 1.664,-1.92 4.48,0.256 12.544,5.76 14.464,10.496 -1.28,-0.512 -2.56,-0.64 -4.096,-0.896 -9.472,-2.048 -23.424,3.328 -23.424,3.328 h -0.128 c -0.512,0.384 -1.408,1.024 -2.56,1.536 -2.56,1.152 -3.584,1.28 -5.632,0.896 -3.2,-0.64 -5.248,-0.384 -6.272,0.768 -0.512,0.384 -1.152,0.768 -1.536,0.768 -0.256,0 -0.512,0.512 -0.512,1.024 0,0.512 0.64,0.896 2.048,0.896 1.152,0 2.304,0.256 2.432,0.512 0.64,1.024 -2.176,2.048 -4.864,1.664 -2.816,-0.384 -3.328,0.128 -1.664,1.664 2.048,2.048 7.808,0.512 12.672,-3.328 2.048,-1.536 5.248,-3.584 7.296,-4.48 3.328,-1.536 4.352,-2.816 14.336,-2.944 5.888,-0.128 10.24,0.256 9.728,0.384 -0.64,0.256 -1.536,1.664 -1.792,2.432 -0.64,2.944 -4.736,3.712 -9.856,1.92 -3.584,-1.28 -7.296,-1.28 -9.856,0 -2.304,1.024 -8.192,6.144 -7.68,6.656 0.64,0.64 6.272,-1.664 7.168,-2.944 1.408,-1.664 4.224,-0.896 4.224,1.152 0,0.768 0.384,1.664 0.768,1.92 1.024,0.512 5.248,0.256 6.656,-0.512 1.024,-0.512 1.024,-0.64 0.128,-1.536 -1.408,-1.408 -0.256,-2.176 2.048,-1.408 3.328,1.152 6.272,-0.128 8.576,-3.712 1.024,-1.664 2.176,-2.816 2.304,-2.688 0.896,0.896 0.384,5.888 -1.92,7.168 -2.432,1.28 -4.096,2.048 -3.584,2.944 0.256,0.512 1.92,0 1.92,0 1.024,0 2.56,-0.512 3.2,-1.152 0.512,-0.384 1.024,-1.536 1.152,-1.92 0.256,0.384 0.896,1.92 1.536,2.304 0.64,0.512 3.968,1.024 3.84,0.256 0,-0.256 -0.896,-1.152 -2.048,-1.92 -1.92,-1.28 -2.176,-1.792 -1.92,-3.328 0.256,-0.896 0.384,-2.048 0.384,-2.56 0,-1.664 1.28,-0.768 3.968,3.072 1.536,2.176 3.584,4.224 6.016,4.352 5.248,0.256 12.16,-0.256 15.36,-7.168 0.128,-0.256 -0.384,-0.512 -1.024,-0.512 -0.64,0 -1.408,0.512 -1.664,1.28 -0.512,1.664 -4.096,3.2 -6.272,2.688 -1.536,-0.384 -1.664,-0.512 -1.024,-1.536 0.512,-1.024 0.512,-1.28 -0.256,-1.792 -0.384,-0.256 -1.408,-0.384 -2.048,-0.256 -5.888,1.152 -9.216,-0.128 -10.368,-2.176 -3.584,-6.016 -10.88,-12.032 -17.152,-14.72 -2.176,-1.024 -0.896,-2.048 2.176,-2.432 4.096,-0.512 4.48,-0.512 7.296,-0.128 1.792,0.384 2.944,0.256 3.584,-0.384 0.896,-0.512 0.768,-0.384 -0.128,0.64 0,0 -0.64,0.896 -0.512,1.408 0,0.768 0.512,1.024 1.152,1.408 2.304,1.92 5.632,2.176 10.752,0.768 3.2,-0.768 2.56,-1.92 -1.024,-2.176 -2.688,-0.128 -5.12,-1.408 -5.12,-2.56 0,-0.64 2.944,-1.792 4.608,-1.792 2.816,0 4.224,0.64 4.992,2.176 0.384,0.896 1.28,1.664 2.432,1.792 1.152,0.256 2.048,0.768 2.304,1.28 0.256,0.896 2.304,1.152 2.816,0.256 0.256,-0.384 0,-1.28 -0.384,-2.176 -0.896,-2.048 -0.128,-2.56 1.536,-1.152 0.768,0.768 1.664,1.152 2.048,1.024 1.28,-0.512 0.896,-2.304 -0.768,-3.84 -1.664,-1.664 -5.376,-2.048 -11.008,-1.28 -2.048,0.256 -3.84,0.256 -3.84,0 11.264,-6.784 28.928,-3.84 32.768,5.12 0.64,1.408 1.152,2.56 1.152,2.688 0,0 -0.896,1.024 -2.048,2.176 -2.56,2.688 -2.816,4.224 -0.64,3.712 2.048,-0.512 1.92,0.256 -0.128,1.92 -1.664,1.408 -1.664,1.408 -0.512,2.304 1.664,1.28 4.352,1.152 6.272,-0.256 1.792,-1.408 2.432,-1.152 1.408,0.768 -0.256,0.768 -0.64,2.048 -0.768,2.816 -0.256,1.408 -0.384,1.536 -3.84,1.536 -2.944,0 -3.84,0.256 -4.992,1.408 -1.792,1.664 0.128,2.432 3.072,2.944 3.712,0.64 4.48,1.024 0.64,2.816 -2.56,1.152 -8.064,-0.896 -8.064,-3.968 0,-1.664 1.792,-4.096 3.072,-4.096 1.536,0 1.408,-1.152 -0.128,-1.792 -3.456,-1.408 -6.784,5.632 -6.272,7.936 0.128,1.28 0.896,1.536 1.536,2.304 2.048,3.072 5.376,2.944 4.352,1.92 -0.768,-0.768 -0.896,-1.664 0.768,-0.896 1.536,0.64 5.888,1.152 9.6,-1.664 2.176,0 1.536,2.176 3.712,0.256 0.64,-0.64 0.768,-1.152 0.256,-1.664 -0.512,-0.64 -0.384,-2.048 0.64,-5.12 3.712,-11.52 -4.352,-19.072 -9.984,-23.168 1.28,-0.384 5.248,1.28 7.04,2.944 1.408,1.408 1.92,1.536 3.328,1.024 1.28,-0.384 1.792,-1.152 2.176,-2.944 0.768,-3.584 0.256,-4.352 -1.92,-2.816 -1.792,1.408 -8.192,1.024 -7.04,0.64 0.384,-0.128 1.28,-0.768 2.304,-1.408 7.168,-4.608 6.784,-12.672 2.56,-17.024 -3.328,-3.328 -8.832,-4.48 -9.344,-1.92 -0.128,1.024 0.128,1.152 1.408,0.768 2.432,-0.64 3.456,0.512 3.456,3.968 0,3.84 0.768,5.76 2.816,5.376 1.792,-0.384 2.944,1.024 2.176,3.2 -1.536,3.712 -5.248,5.12 -8.576,6.016 -1.024,0.256 -3.712,-0.256 -4.48,-0.64 -9.856,-4.224 -20.608,-3.84 -32.512,1.92 6.272,-4.864 10.624,-8.448 13.952,-13.824 1.664,-2.688 2.048,-2.688 2.56,-0.768 0.256,0.896 -0.128,1.792 -0.896,2.56 -0.64,0.768 -1.408,1.152 -1.152,1.664 0.256,0.512 1.536,0.256 3.328,0.512 3.328,0.256 3.968,0.128 5.248,-2.304 2.56,-4.608 3.84,-6.784 7.808,-5.632 2.304,0.64 3.84,2.304 2.944,4.224 -1.92,4.48 -0.384,4.224 0.384,3.712 1.152,-1.024 2.304,-3.072 1.408,-5.76 -1.152,-3.712 -3.328,-5.888 -5.632,-5.76 -2.688,0.128 -3.328,0 -3.328,-0.64 0,-0.256 0.64,-0.64 1.536,-0.896 1.664,-0.384 1.792,-1.408 0.64,-3.072 -0.768,-1.024 -1.024,-1.024 -3.456,-0.256 -1.408,0.384 -2.688,1.28 -2.816,1.792 -0.256,0.512 -0.768,1.408 -1.152,1.92 -0.64,0.64 -0.768,1.28 -0.256,2.56 0.896,2.176 1.28,4.992 0.256,5.76 -1.536,1.536 -2.816,1.792 -2.304,-0.256 0.128,-0.512 0,-1.536 -0.64,-2.432 -1.28,-2.048 -1.536,-2.816 -0.384,-6.528 0.768,-2.304 2.176,-8.448 2.176,-10.88 0,-2.56 1.408,-4.224 3.968,-5.248 2.432,-1.024 3.84,-0.256 4.096,2.304 0.256,2.944 -0.768,4.48 -2.816,3.968 -1.28,-0.256 -1.92,0 -2.176,0.64 -0.512,1.536 0.128,2.176 2.56,2.176 3.456,-0.128 4.48,-1.28 5.248,-6.016 0.256,-2.176 0.128,-2.944 -1.536,-5.376 -1.536,-2.176 -2.176,-2.688 -3.328,-2.432 -2.176,0.384 -1.792,-0.896 0.768,-3.072 4.48,-3.712 4.608,-3.84 3.84,-4.48 -1.024,-1.152 -5.248,1.28 -8.832,5.12 -1.792,1.92 -2.688,3.2 -2.816,2.944 -1.152,-5.888 -6.912,-13.312 -14.464,-17.92 0,-0.256 0.128,-1.152 0.384,-2.176 0.256,-0.896 0.64,-1.792 1.792,-3.584 1.152,-1.92 1.92,-1.92 2.56,-3.072 4.864,-10.112 15.616,-16.64 22.144,-12.544 1.792,1.152 -0.896,3.2 -4.736,3.2 -1.792,0 -3.456,0.256 -3.712,0.512 -1.024,1.024 2.688,3.584 5.888,4.096 3.712,0.64 5.504,0 7.04,-2.432 0.512,-1.024 1.408,-1.92 1.92,-1.92 7.68,1.92 7.936,13.568 4.224,18.944 -2.432,3.456 -4.096,4.096 -7.424,2.688 -1.408,-0.64 -2.304,-0.64 -3.072,-0.256 -1.152,0.64 -3.456,-0.64 -5.248,-2.816 -1.408,-1.664 -2.048,-5.376 -1.152,-6.912 1.024,-1.792 3.456,-1.664 3.84,0.128 0.512,1.792 3.84,5.248 4.992,5.248 0.512,0 0.896,-0.512 0.896,-1.152 0,-0.64 0.256,-1.28 0.64,-1.408 0.256,-0.128 0.384,-1.408 0.128,-3.2 0,-0.512 0,-0.768 -0.128,-1.152 0.64,0.64 1.152,1.28 1.792,1.92 0.896,0.768 0.768,2.304 1.152,2.816 1.28,1.536 2.688,0.896 1.92,-1.024 -5.248,-12.16 -20.48,-5.888 -19.072,1.408 0.128,1.024 0.128,1.792 -0.256,1.792 -0.64,0 -2.944,-2.56 -4.096,-4.608 -1.152,-1.92 -4.864,-1.408 -7.296,1.024 -2.432,2.304 -2.56,3.2 -0.64,4.48 1.664,1.152 2.432,1.152 1.92,-0.128 -0.128,-0.64 0,-1.536 0.256,-1.92 0.896,-1.28 3.072,0.512 4.096,2.304 3.2,6.272 6.4,7.296 7.424,4.608 0.768,-1.92 1.92,-1.536 1.92,0.512 0,1.28 0.512,2.944 3.456,1.792 5.248,-2.048 13.44,-0.768 13.184,5.76 -0.128,2.304 -1.536,3.2 -3.072,2.944 -1.024,-0.128 -1.152,-0.512 -1.152,-2.432 0.128,-2.048 0,-2.176 -1.664,-2.176 -1.408,0 -3.584,1.28 -3.584,2.048 0,0.128 0.768,1.024 1.664,1.792 l 1.664,1.536 -1.28,0.384 c -1.664,0.512 -1.792,1.28 -0.128,3.2 1.024,1.28 1.28,1.28 3.328,0.64 1.152,-0.384 2.816,-1.536 3.712,-2.432 1.92,-2.176 3.2,-2.304 3.2,-0.256 0,2.176 -2.688,4.864 -5.888,6.144 -3.84,1.408 -4.352,1.92 -4.48,4.864 -0.128,3.328 0.896,5.76 3.072,7.04 l 1.792,1.152 v -5.76 l 1.152,1.408 c 0.512,0.896 1.152,1.792 1.664,2.688 0.384,0.64 1.152,1.408 1.792,1.792 1.152,0.64 2.304,1.28 3.456,2.048 1.28,0.768 2.432,1.28 2.56,1.28 0.128,0 0.384,-1.92 0.384,-4.224 0,-3.584 -0.256,-4.096 -1.152,-4.224 -1.92,-0.256 -7.04,-2.048 -4.48,-4.608 0.512,-0.512 1.152,-1.408 2.176,-4.096 4.224,-10.368 -0.512,-13.696 -5.888,-17.792 7.168,-4.352 9.088,-18.176 1.92,-24.448 -1.408,-1.28 -2.944,-2.048 -2.944,-2.304 0,-0.768 6.912,-1.152 7.424,-0.512 0.128,0.384 0.768,0.512 1.28,0.256 0.768,-0.256 1.024,-1.152 1.024,-3.84 0,-5.632 -2.176,-8.064 -4.992,-5.632 -0.896,0.64 -1.28,0.64 -1.792,0.128 -1.024,-1.024 -6.912,-0.896 -7.552,0 -0.256,0.384 -0.384,1.28 -0.384,1.792 0.256,1.28 -1.024,1.664 -3.712,1.152 -1.92,-0.384 -2.56,-0.384 -3.456,0.64 -1.152,1.024 -4.224,1.664 -4.224,0.768 0,-0.256 0.896,-1.408 1.92,-2.432 2.56,-2.56 1.92,-3.328 -2.432,-2.944 -3.968,0.512 -4.864,1.408 -4.864,4.864 0,1.408 -0.256,3.072 -0.384,3.584 -0.64,1.664 -1.28,1.024 -1.408,-1.152 -0.768,-7.424 -9.088,-9.472 -12.288,-7.552 -1.536,0.768 0.768,1.536 2.176,2.688 2.944,2.304 4.608,4.992 4.608,7.552 0,1.536 0.128,1.664 1.408,1.28 2.304,-0.512 2.56,0.64 0.768,3.2 -1.792,2.688 -5.376,6.272 -5.76,5.888 C 87.424,7.424 78.08,3.2 67.072,1.664 64.64,1.28 62.848,0.768 60.928,2.048 59.136,3.2 57.984,4.864 57.344,3.2 57.216,2.432 56.576,1.92 55.936,1.408 54.912,0.768 53.888,2.048 52.352,1.28 51.712,1.024 49.792,0 50.688,2.688 c 1.152,3.84 7.296,5.76 10.752,3.456 1.792,-1.28 3.072,-1.536 4.864,-0.128 1.152,0.768 0,1.92 -2.048,1.92 -1.92,0 -2.56,1.792 -0.64,1.92 0.512,0 1.536,0.384 2.176,0.896 0.64,0.512 1.792,0.896 2.432,0.896 L 70.272,9.984 C 70.4,9.728 70.912,9.6 71.68,9.472 c 0.896,0 2.176,0 3.84,0.128 4.736,0.512 4.864,0.512 5.12,2.048 0.128,1.28 -0.256,1.664 -1.28,2.048 -1.92,0.512 -1.792,0.512 -3.456,-0.896 -0.896,-0.768 -2.304,-1.152 -3.712,-1.152 l -5.12,2.048 c -2.56,2.048 -2.688,4.224 -0.384,3.584 0.896,-0.256 1.28,-0.128 1.28,0.64 0,0.512 -0.256,1.024 -0.64,1.28 -0.896,0.64 -0.64,3.072 0.64,4.608 0.896,1.152 1.28,1.28 1.92,0.64 0.384,-0.384 1.152,-0.768 1.792,-0.768 0.512,0 1.536,-0.64 2.304,-1.408 1.152,-1.28 1.152,-1.408 0.384,-2.176 -0.768,-0.64 -1.28,-0.64 -2.432,-0.128 -2.688,1.28 -2.56,-0.64 0.128,-2.432 1.28,-0.896 1.664,-0.896 3.712,0 0.896,0.384 2.048,0.64 3.2,0.64 0.384,0 0.768,-0.128 1.28,-0.128 2.432,-0.384 2.432,-0.512 2.304,4.224 -0.128,1.92 -0.896,4.736 -1.408,8.576 0,0.128 -0.128,0.384 -0.128,0.512 -7.68,-3.968 -16.64,-4.736 -24.448,1.92 -0.896,0.768 -2.432,0.256 -4.48,-1.536 -1.536,-1.408 -1.28,-1.792 1.152,-2.176 3.328,-0.512 5.12,-1.92 4.864,-3.968 -0.128,-1.28 -0.512,-1.664 -2.816,-2.176 -3.968,-0.896 -3.84,-2.176 0.384,-4.096 3.072,-1.408 5.12,-2.304 1.664,-1.92 -8.704,1.152 -12.288,9.216 -8.192,16 1.024,1.664 2.816,2.304 3.072,2.048 1.408,-0.768 1.664,0.512 0.64,2.432 -3.968,7.296 -5.504,12.16 -2.56,23.04 0.768,2.816 -0.128,3.328 -2.816,3.328 -0.64,0 -1.28,0.256 -1.408,0.512 -0.256,3.072 -0.128,4.096 0.896,4.992 2.432,2.304 5.248,1.536 5.248,-1.536 0,-2.176 1.28,-2.816 3.072,-1.664 1.92,1.408 8.192,3.456 5.12,8.96 -0.256,-1.92 -2.432,-1.408 -4.224,-3.2 -1.664,-1.664 -1.92,1.28 -2.048,2.944 0,1.792 -0.256,3.456 -0.64,3.712 -1.152,1.152 -2.816,0.128 -3.584,-2.304 -0.384,-1.28 -1.28,-2.816 -2.048,-3.456 -1.536,-1.28 -2.048,-1.024 -1.152,0.512 0.256,0.64 0.896,2.56 1.28,4.224 1.152,5.12 2.816,6.016 8.32,4.352 2.56,-0.768 4.224,-2.432 5.632,-5.76 1.152,-3.072 2.048,-1.024 1.792,3.968 0,1.408 -2.304,3.968 -3.072,3.456 -1.152,-0.64 -3.072,0.512 -4.224,2.304 -0.768,1.28 -1.152,1.664 -1.152,0.896 0,-0.64 -0.512,-1.024 -1.28,-1.024 -1.92,0 -1.408,1.536 1.28,3.84 2.688,2.304 2.56,2.432 -0.768,3.072 -2.176,0.384 -2.304,0.384 -3.328,-1.92 -0.896,-2.304 -2.304,-3.712 -3.712,-3.84 -1.024,0 -0.896,1.92 0.512,5.12 0.896,2.304 1.408,2.944 3.328,3.072 13.312,1.024 18.176,-15.872 13.184,-22.912 -2.944,-4.224 -2.688,-5.248 0.64,-5.248 3.584,0 6.4,-1.024 8.32,-2.944 6.272,-6.656 7.168,-12.16 3.072,-17.664 -2.944,-3.968 -6.016,-3.712 -9.088,1.024 -1.792,2.432 -1.92,3.072 -1.408,4.992 l 0.512,2.176 0.768,-1.664 c 0.384,-1.024 0.64,-2.304 0.64,-3.072 0,-3.2 4.224,-3.968 6.912,-1.152 1.792,1.92 2.048,3.328 0.64,4.48 -0.896,0.64 -1.152,0.512 -2.176,-0.768 -0.896,-1.152 -1.28,-1.28 -2.176,-0.768 -0.64,0.384 -1.408,1.408 -1.92,2.304 -0.64,1.408 -0.64,1.92 0.256,3.712 0.896,1.664 1.024,2.176 0.256,3.84 -0.896,2.304 -2.816,3.456 -6.656,3.968 -2.304,0.384 -3.072,0.256 -4.224,-0.768 l -1.536,-1.28 1.408,-1.152 c 0.64,-0.768 1.536,-2.304 1.664,-3.456 0.384,-1.92 0.128,-2.56 -1.536,-4.736 -1.024,-1.408 -2.048,-2.944 -2.176,-3.584 -0.384,-1.152 -1.408,-1.408 -1.408,-0.384 0,0.256 0.384,1.28 0.896,2.048 0.896,1.408 0.896,1.536 -0.64,3.584 -0.768,1.024 -1.536,2.56 -1.536,3.328 0,2.176 -1.408,1.152 -2.048,-1.536 -3.072,-13.696 4.864,-26.752 16.896,-27.648 -2.432,1.024 -3.456,1.92 -4.864,2.944 -1.408,1.024 -3.072,2.56 -3.584,3.584 -0.64,1.28 -1.28,2.432 -2.048,3.584 -1.92,2.816 -1.664,4.992 1.152,8.576 1.408,1.792 2.688,3.328 2.816,3.328 0.256,0 0.128,-1.536 -0.128,-3.328 -0.384,-3.072 -0.256,-3.328 1.408,-4.224 0.896,-0.64 2.304,-1.92 2.944,-3.072 1.408,-2.048 1.408,-2.048 0.256,-2.688 -0.64,-0.384 -1.792,-0.64 -2.432,-0.64 -2.048,0 -1.024,-1.28 1.408,-3.584 4.224,-3.968 9.856,-3.584 14.976,-0.768 -0.896,13.184 3.84,22.784 11.136,28.8 1.664,1.408 2.432,2.688 2.304,4.608 -0.384,6.656 -2.816,10.496 -7.424,16 -1.408,1.792 -0.768,1.024 0.896,-2.304 2.688,-4.864 1.664,-12.288 -1.024,-15.36 -4.608,-5.12 -3.84,-11.776 -4.992,-8.832 -1.152,2.56 0.384,5.248 1.152,6.784 1.792,3.456 2.176,4.608 1.792,6.4 -0.256,1.408 -0.128,2.432 0.256,3.072 1.152,1.28 0.512,0.896 -0.768,1.28 -2.304,0.512 -2.816,-0.128 -2.816,-3.328 0,-2.304 -0.256,-3.2 -1.536,-4.352 -1.536,-1.408 -1.536,-1.408 -2.432,-0.384 -0.64,1.024 -0.64,1.408 0.128,2.944 1.024,2.048 0.128,2.304 -2.048,0.768 -1.024,-0.768 -1.536,-0.64 -3.712,0.384 -2.816,1.408 -2.688,0.768 -1.536,6.656 0.256,1.408 0.64,1.792 2.048,1.792 2.176,0 2.688,-0.64 1.28,-1.664 -1.92,-1.28 -1.536,-2.56 0.768,-2.56 1.408,0 2.432,0.512 4.224,2.432 2.432,2.432 3.84,2.816 6.016,1.664 1.152,-0.512 1.152,-0.512 0.768,0.768 -0.256,1.024 -0.512,2.048 -0.64,3.072 -0.256,0.896 -1.024,1.92 -1.792,2.432 -0.896,0.384 -1.536,1.152 -1.536,1.792 0,1.024 -3.072,4.352 -4.992,5.376 -0.768,0.512 -1.152,0.256 -1.92,-1.408 -1.28,-2.688 -0.768,-5.12 1.28,-7.68 0.896,-1.024 1.408,-2.176 1.152,-2.688 -0.384,-1.152 -1.536,-1.152 -1.536,-0.128 0,0.512 -0.896,0.768 -1.792,1.28 -6.4,3.84 -5.76,9.6 -4.736,10.368 2.176,1.536 -0.128,2.048 -1.152,3.072 -0.896,0.768 -1.28,2.176 -2.688,2.304 -6.528,0.512 -7.424,2.688 -11.648,1.92 C 52.736,99.072 51.712,98.816 50.944,98.688 48,98.304 46.72,98.56 45.44,97.792 40.832,95.232 33.28,92.928 26.24,94.208 32.256,77.824 27.392,60.288 23.168,51.2 c -0.768,-1.664 -0.64,-4.992 1.28,-6.016 2.176,-1.408 2.176,-1.664 0.256,-4.864 -0.768,-1.28 -1.536,-2.56 -1.536,-2.816 0,-0.256 1.024,-0.768 2.176,-1.152 2.432,-0.896 2.432,-1.92 0.128,-2.176 -1.024,-0.128 -2.176,0.384 -3.456,1.408 -2.432,2.304 -3.2,6.784 -1.664,10.496 0.896,2.176 1.024,3.584 0.768,3.328 -1.536,-2.432 -4.608,-5.504 -7.04,-7.808 -0.512,-0.64 0.128,-1.024 1.024,-1.152 1.792,-0.256 1.664,-0.512 0.768,-2.432 -1.28,-2.304 -3.328,-2.944 -3.712,-1.152 -0.128,0.64 -1.792,0.128 -3.2,-2.816 C 5.504,26.88 4.992,24.192 6.528,17.92 c 0.896,-4.096 3.84,-7.552 6.656,-7.552 1.024,0 3.2,-0.128 4.736,-0.896 2.048,-1.024 6.272,0.128 6.272,0 0.512,-0.768 -0.64,-1.28 -1.28,-2.048 -0.896,-1.024 -3.328,-1.28 -2.816,-1.792 0.64,-0.64 2.048,-0.256 3.584,-0.64 12.672,-3.072 13.312,14.72 4.864,17.792 -1.28,0.512 -1.792,1.536 -3.2,-0.64 -1.024,-1.536 -1.152,-1.536 -2.176,-0.512 -0.64,0.64 -1.152,1.664 -1.152,2.432 0,5.248 -6.784,8.192 -9.088,3.968 -0.896,-1.664 1.664,-4.352 4.096,-4.352 2.304,0 2.816,-0.768 1.408,-1.92 -2.56,-2.432 -7.296,1.664 -7.424,5.12 0,3.2 1.792,4.736 4.224,5.632 4.608,1.792 11.008,-0.64 13.184,-4.992 0.384,-0.768 0.64,-1.152 0.896,-1.408 6.656,-6.784 9.216,-13.312 4.48,-19.84 4.48,2.56 10.112,2.432 13.824,-0.512 C 50.56,3.584 49.28,1.408 46.08,3.328 45.184,3.84 44.8,3.84 44.544,3.328 43.904,1.536 41.984,1.024 40.32,0.768 39.168,0.768 38.656,-0.384 35.584,0.384 34.176,0.768 33.792,1.152 35.2,2.688 Z"
     id="decoration"
     style="font-size:128px;font-family:'EB Garamond Initials Fill1';text-anchor:middle;fill:#003cba;stroke-width:0.5"
     aria-label="L" />
  <path
     d="m 16.512,13.696 c -1.152,0 -1.28,0 -1.28,0.384 0,0.768 -0.128,1.408 0.256,1.408 7.296,0 15.36,2.176 15.36,10.496 0,23.424 0.128,46.72 0.128,72.448 0,9.344 -10.368,13.952 -15.36,16.896 -1.536,0.896 2.304,1.024 3.072,1.024 h 41.856 c 3.712,0 22.272,-0.768 39.168,0.384 4.864,0.384 4.48,-0.256 5.248,-1.664 1.664,-2.944 7.68,-20.224 10.624,-28.8 -2.944,4.608 -12.288,19.712 -19.84,21.76 -12.416,3.456 -41.344,3.328 -44.416,3.328 -7.04,0 -7.04,-0.768 -7.04,-6.272 0,-26.368 0.128,-51.968 0.128,-76.544 0,-9.856 6.016,-13.056 13.568,-13.056 0.384,0 0.256,-0.64 0.256,-1.408 0,-0.384 -0.128,-0.384 -1.28,-0.384 h -1.536 c -1.152,0 -8.576,0.256 -17.792,0.256 -9.216,0 -18.432,-0.256 -19.584,-0.256 z"
     id="initial"
     style="font-size:128px;font-family:'EB Garamond Initials Fill2';text-anchor:middle"
     aria-label="L" />
</svg>
