<?xml version="1.0" encoding="utf-8" standalone="no"?>
<!DOCTYPE svg PUBLIC "-//W3C//DTD SVG 1.1//EN"
  "http://www.w3.org/Graphics/SVG/1.1/DTD/svg11.dtd">
<!-- Created with matplotlib (https://matplotlib.org/) -->
<svg height="482.266125pt" version="1.1" viewBox="0 0 690.163125 482.266125" width="690.163125pt" xmlns="http://www.w3.org/2000/svg" xmlns:xlink="http://www.w3.org/1999/xlink">
 <defs>
  <style type="text/css">
*{stroke-linecap:butt;stroke-linejoin:round;}
  </style>
 </defs>
 <g id="figure_1">
  <g id="patch_1">
   <path d="M 0 482.266125 
L 690.163125 482.266125 
L 690.163125 0 
L 0 0 
z
" style="fill:none;"/>
  </g>
  <g id="axes_1">
   <g id="patch_2">
    <path d="M 30.103125 458.388 
L 682.963125 458.388 
L 682.963125 7.2 
L 30.103125 7.2 
z
" style="fill:#ffffff;"/>
   </g>
   <g id="PathCollection_1">
    <defs>
     <path d="M 0 3 
C 0.795609 3 1.55874 2.683901 2.12132 2.12132 
C 2.683901 1.55874 3 0.795609 3 0 
C 3 -0.795609 2.683901 -1.55874 2.12132 -2.12132 
C 1.55874 -2.683901 0.795609 -3 0 -3 
C -0.795609 -3 -1.55874 -2.683901 -2.12132 -2.12132 
C -2.683901 -1.55874 -3 -0.795609 -3 0 
C -3 0.795609 -2.683901 1.55874 -2.12132 2.12132 
C -1.55874 2.683901 -0.795609 3 0 3 
z
" id="m3ae3c69586" style="stroke:#008000;stroke-opacity:0.5;"/>
    </defs>
    <g clip-path="url(#p6bc7dcc894)">
     <use style="fill:#008000;fill-opacity:0.5;stroke:#008000;stroke-opacity:0.5;" x="60.34437" xlink:href="#m3ae3c69586" y="183.604123"/>
     <use style="fill:#008000;fill-opacity:0.5;stroke:#008000;stroke-opacity:0.5;" x="89.580501" xlink:href="#m3ae3c69586" y="137.423858"/>
     <use style="fill:#008000;fill-opacity:0.5;stroke:#008000;stroke-opacity:0.5;" x="126.379291" xlink:href="#m3ae3c69586" y="91.835647"/>
     <use style="fill:#008000;fill-opacity:0.5;stroke:#008000;stroke-opacity:0.5;" x="165.022631" xlink:href="#m3ae3c69586" y="57.496476"/>
     <use style="fill:#008000;fill-opacity:0.5;stroke:#008000;stroke-opacity:0.5;" x="203.573744" xlink:href="#m3ae3c69586" y="36.57721"/>
     <use style="fill:#008000;fill-opacity:0.5;stroke:#008000;stroke-opacity:0.5;" x="241.755947" xlink:href="#m3ae3c69586" y="28.584472"/>
     <use style="fill:#008000;fill-opacity:0.5;stroke:#008000;stroke-opacity:0.5;" x="279.477013" xlink:href="#m3ae3c69586" y="33.912964"/>
     <use style="fill:#008000;fill-opacity:0.5;stroke:#008000;stroke-opacity:0.5;" x="317.47476" xlink:href="#m3ae3c69586" y="52.562687"/>
     <use style="fill:#008000;fill-opacity:0.5;stroke:#008000;stroke-opacity:0.5;" x="356.487011" xlink:href="#m3ae3c69586" y="84.336288"/>
     <use style="fill:#008000;fill-opacity:0.5;stroke:#008000;stroke-opacity:0.5;" x="395.499262" xlink:href="#m3ae3c69586" y="129.332444"/>
     <use style="fill:#008000;fill-opacity:0.5;stroke:#008000;stroke-opacity:0.5;" x="434.419285" xlink:href="#m3ae3c69586" y="188.340561"/>
     <use style="fill:#008000;fill-opacity:0.5;stroke:#008000;stroke-opacity:0.5;" x="473.154854" xlink:href="#m3ae3c69586" y="259.781826"/>
     <use style="fill:#008000;fill-opacity:0.5;stroke:#008000;stroke-opacity:0.5;" x="511.982649" xlink:href="#m3ae3c69586" y="344.34697"/>
     <use style="fill:#008000;fill-opacity:0.5;stroke:#008000;stroke-opacity:0.5;" x="546.844661" xlink:href="#m3ae3c69586" y="413.913395"/>
     <use style="fill:#008000;fill-opacity:0.5;stroke:#008000;stroke-opacity:0.5;" x="573.498421" xlink:href="#m3ae3c69586" y="437.003528"/>
     <use style="fill:#008000;fill-opacity:0.5;stroke:#008000;stroke-opacity:0.5;" x="591.206109" xlink:href="#m3ae3c69586" y="414.50545"/>
     <use style="fill:#008000;fill-opacity:0.5;stroke:#008000;stroke-opacity:0.5;" x="601.720049" xlink:href="#m3ae3c69586" y="358.556282"/>
     <use style="fill:#008000;fill-opacity:0.5;stroke:#008000;stroke-opacity:0.5;" x="611.588396" xlink:href="#m3ae3c69586" y="312.869396"/>
     <use style="fill:#008000;fill-opacity:0.5;stroke:#008000;stroke-opacity:0.5;" x="621.456743" xlink:href="#m3ae3c69586" y="281.095795"/>
     <use style="fill:#008000;fill-opacity:0.5;stroke:#008000;stroke-opacity:0.5;" x="631.417318" xlink:href="#m3ae3c69586" y="263.334154"/>
     <use style="fill:#008000;fill-opacity:0.5;stroke:#008000;stroke-opacity:0.5;" x="641.931258" xlink:href="#m3ae3c69586" y="259.091096"/>
     <use style="fill:#008000;fill-opacity:0.5;stroke:#008000;stroke-opacity:0.5;" x="652.72188" xlink:href="#m3ae3c69586" y="269.353377"/>
    </g>
   </g>
   <g id="Quiver_1">
    <path clip-path="url(#p6bc7dcc894)" d="M 58.257026 182.324747 
L 132.391563 61.371924 
L 126.9375 60.900514 
L 145.993295 43.865213 
L 139.461558 68.576774 
L 136.566249 63.930677 
L 62.431713 184.8835 
L 58.257026 182.324747 
" style="fill:#0000ff;fill-opacity:0.5;"/>
    <path clip-path="url(#p6bc7dcc894)" d="M 87.622276 135.95445 
L 191.108932 -1.958328 
L 185.723074 -2.938919 
L 206.29183 -18.112945 
L 197.472424 5.87753 
L 195.025382 0.980488 
L 91.538726 138.893266 
L 87.622276 135.95445 
" style="fill:#0000ff;fill-opacity:0.5;"/>
    <path clip-path="url(#p6bc7dcc894)" d="M 124.662916 90.089834 
L 240.972547 -24.258562 
L 235.793985 -26.033814 
L 258.401239 -37.960123 
L 246.092233 -15.558936 
L 244.405297 -20.766936 
L 128.095665 93.58146 
L 124.662916 90.089834 
" style="fill:#0000ff;fill-opacity:0.5;"/>
    <path clip-path="url(#p6bc7dcc894)" d="M 163.65667 55.464739 
L 277.653333 -21.176563 
L 272.889674 -23.874076 
L 297.30493 -31.438474 
L 281.08544 -11.683653 
L 280.385255 -17.113088 
L 166.388592 59.528213 
L 163.65667 55.464739 
" style="fill:#0000ff;fill-opacity:0.5;"/>
    <path clip-path="url(#p6bc7dcc894)" d="M 202.768814 34.265092 
L 310.274456 -3.161417 
L 306.352476 -6.980725 
L 331.888454 -8.09367 
L 311.182057 6.891988 
L 311.884316 1.46282 
L 204.378675 38.889329 
L 202.768814 34.265092 
" style="fill:#0000ff;fill-opacity:0.5;"/>
    <path clip-path="url(#p6bc7dcc894)" d="M 241.669634 26.137769 
L 345.230754 22.484416 
L 342.611425 17.677323 
L 367.337394 24.154302 
L 343.129303 32.357541 
L 345.40338 27.377822 
L 241.84226 31.031175 
L 241.669634 26.137769 
" style="fill:#0000ff;fill-opacity:0.5;"/>
    <path clip-path="url(#p6bc7dcc894)" d="M 280.190198 31.57092 
L 385.874749 63.753348 
L 384.959075 58.356074 
L 406.239964 72.514061 
L 380.679963 72.40834 
L 384.448378 68.437437 
L 278.763827 36.255009 
L 280.190198 31.57092 
" style="fill:#0000ff;fill-opacity:0.5;"/>
    <path clip-path="url(#p6bc7dcc894)" d="M 318.742224 50.468088 
L 431.144697 118.483991 
L 431.585025 113.027331 
L 448.728619 131.985759 
L 423.980245 125.594922 
L 428.60977 122.673188 
L 316.207297 54.657285 
L 318.742224 50.468088 
" style="fill:#0000ff;fill-opacity:0.5;"/>
    <path clip-path="url(#p6bc7dcc894)" d="M 358.135914 82.526613 
L 476.61282 190.478001 
L 478.100951 185.209748 
L 491.250993 207.127805 
L 468.207533 196.067799 
L 473.315014 194.097352 
L 354.838108 86.145963 
L 358.135914 82.526613 
" style="fill:#0000ff;fill-opacity:0.5;"/>
    <path clip-path="url(#p6bc7dcc894)" d="M 397.41301 127.80556 
L 518.06886 279.031828 
L 520.369473 274.064313 
L 529.897065 297.782445 
L 508.886984 283.225615 
L 514.241364 282.085596 
L 393.585514 130.859328 
L 397.41301 127.80556 
" style="fill:#0000ff;fill-opacity:0.5;"/>
    <path clip-path="url(#p6bc7dcc894)" d="M 436.48449 187.025747 
L 560.567994 381.926165 
L 563.383589 377.231333 
L 570.336116 401.82782 
L 550.992362 385.120217 
L 556.437585 384.555793 
L 432.354081 189.655375 
L 436.48449 187.025747 
" style="fill:#0000ff;fill-opacity:0.5;"/>
    <path clip-path="url(#p6bc7dcc894)" d="M 475.314852 258.629345 
L 601.456966 495.046883 
L 604.624482 490.581922 
L 609.669298 515.639349 
L 591.664492 497.496809 
L 597.13697 497.351845 
L 470.994855 260.934307 
L 475.314852 258.629345 
" style="fill:#0000ff;fill-opacity:0.5;"/>
    <path clip-path="url(#p6bc7dcc894)" d="M 514.192244 343.292695 
L 639.33553 605.573508 
L 642.700446 601.255364 
L 646.614406 626.514139 
L 629.442875 607.581012 
L 634.916339 607.682058 
L 509.773054 345.401245 
L 514.192244 343.292695 
" style="fill:#0000ff;fill-opacity:0.5;"/>
    <path clip-path="url(#p6bc7dcc894)" d="M 548.832422 412.484196 
L 643.692707 544.417921 
L 646.23903 539.571761 
L 654.56774 563.736972 
L 634.312462 548.146957 
L 639.717184 547.27632 
L 544.856899 415.342595 
L 548.832422 412.484196 
" style="fill:#0000ff;fill-opacity:0.5;"/>
    <path clip-path="url(#p6bc7dcc894)" d="M 573.561785 434.556123 
L 625.100655 435.890484 
L 622.779979 430.93231 
L 647.063935 438.908167 
L 622.399793 445.61674 
L 624.973927 440.785294 
L 573.435056 439.450933 
L 573.561785 434.556123 
" style="fill:#0000ff;fill-opacity:0.5;"/>
    <path clip-path="url(#p6bc7dcc894)" d="M 588.876426 413.752866 
L 630.347132 285.377091 
L 624.935182 286.201606 
L 639.450074 265.162529 
L 638.913279 290.717112 
L 635.006498 286.88226 
L 593.535792 415.258034 
L 588.876426 413.752866 
" style="fill:#0000ff;fill-opacity:0.5;"/>
    <path clip-path="url(#p6bc7dcc894)" d="M 599.320049 358.072748 
L 629.982255 205.882428 
L 624.698721 207.315359 
L 636.734067 184.765963 
L 639.09872 210.216567 
L 634.782255 206.849498 
L 604.120049 359.039817 
L 599.320049 358.072748 
" style="fill:#0000ff;fill-opacity:0.5;"/>
    <path clip-path="url(#p6bc7dcc894)" d="M 609.222593 312.239489 
L 637.898942 204.536956 
L 632.53743 205.642945 
L 645.933909 183.874638 
L 646.732246 209.422387 
L 642.630548 205.79677 
L 613.954199 313.499303 
L 609.222593 312.239489 
" style="fill:#0000ff;fill-opacity:0.5;"/>
    <path clip-path="url(#p6bc7dcc894)" d="M 619.208763 280.126057 
L 645.333819 219.564726 
L 639.868121 219.87323 
L 656.309438 200.302643 
L 653.356002 225.691657 
L 649.829779 221.504201 
L 623.704723 282.065532 
L 619.208763 280.126057 
" style="fill:#0000ff;fill-opacity:0.5;"/>
    <path clip-path="url(#p6bc7dcc894)" d="M 629.705759 261.58362 
L 650.46297 241.288557 
L 645.289317 239.499048 
L 667.929338 227.635057 
L 655.558674 250.002254 
L 653.886089 244.789626 
L 633.128877 265.084688 
L 629.705759 261.58362 
" style="fill:#0000ff;fill-opacity:0.5;"/>
    <path clip-path="url(#p6bc7dcc894)" d="M 642.575809 256.72924 
L 656.055597 260.40788 
L 654.982844 255.039619 
L 676.667741 268.570696 
L 651.115537 269.210749 
L 654.766494 265.13159 
L 641.286707 261.452951 
L 642.575809 256.72924 
" style="fill:#0000ff;fill-opacity:0.5;"/>
    <path clip-path="url(#p6bc7dcc894)" d="M 654.749371 267.981121 
L 680.096139 305.430652 
L 682.778865 300.658649 
L 690.418951 325.050326 
L 670.61392 308.892185 
L 676.041157 308.175164 
L 650.69439 270.725633 
L 654.749371 267.981121 
" style="fill:#0000ff;fill-opacity:0.5;"/>
   </g>
   <g id="Quiver_2">
    <path clip-path="url(#p6bc7dcc894)" style="fill:#ff0000;fill-opacity:0.5;"/>
    <path clip-path="url(#p6bc7dcc894)" d="M 88.440736 135.257123 
L 160.907404 97.137591 
L 156.461139 93.943885 
L 181.547787 89.046446 
L 163.299726 106.944298 
L 163.186933 101.471062 
L 90.720265 139.590593 
L 88.440736 135.257123 
" style="fill:#ff0000;fill-opacity:0.5;"/>
    <path clip-path="url(#p6bc7dcc894)" d="M 128.403707 90.458859 
L 166.037062 145.794589 
L 168.709106 141.016597 
L 176.403738 165.391122 
L 156.56261 149.277325 
L 161.98823 148.548165 
L 124.354875 93.212435 
L 128.403707 90.458859 
" style="fill:#ff0000;fill-opacity:0.5;"/>
    <path clip-path="url(#p6bc7dcc894)" d="M 167.468063 57.379567 
L 172.309812 158.656104 
L 177.083767 155.976853 
L 170.916564 180.781901 
L 162.411175 156.678309 
L 167.418948 158.889922 
L 162.577199 57.613385 
L 167.468063 57.379567 
" style="fill:#ff0000;fill-opacity:0.5;"/>
    <path clip-path="url(#p6bc7dcc894)" d="M 206.019075 36.696232 
L 200.424804 151.632203 
L 205.434486 149.424916 
L 196.908282 173.521153 
L 190.762505 148.710788 
L 195.534144 151.394161 
L 201.128414 36.458189 
L 206.019075 36.696232 
" style="fill:#ff0000;fill-opacity:0.5;"/>
    <path clip-path="url(#p6bc7dcc894)" d="M 244.201814 28.691912 
L 239.544353 134.718869 
L 244.543526 132.487883 
L 236.131528 156.624227 
L 229.868328 131.843243 
L 234.652621 134.503989 
L 239.310081 28.477032 
L 244.201814 28.691912 
" style="fill:#ff0000;fill-opacity:0.5;"/>
    <path clip-path="url(#p6bc7dcc894)" d="M 281.925119 33.888852 
L 283.061027 149.219504 
L 287.933128 146.723175 
L 280.829926 171.276573 
L 273.24449 146.867845 
L 278.164814 149.267728 
L 277.028906 33.937076 
L 281.925119 33.888852 
" style="fill:#ff0000;fill-opacity:0.5;"/>
    <path clip-path="url(#p6bc7dcc894)" d="M 319.916926 52.390551 
L 327.314905 157.348785 
L 332.027101 154.562347 
L 326.421964 179.500415 
L 317.374105 155.595163 
L 322.430573 157.693057 
L 315.032594 52.734823 
L 319.916926 52.390551 
" style="fill:#ff0000;fill-opacity:0.5;"/>
    <path clip-path="url(#p6bc7dcc894)" d="M 358.932968 84.230933 
L 363.655692 193.87565 
L 368.442251 191.218983 
L 362.157926 215.994618 
L 353.766509 191.851111 
L 358.763778 194.086359 
L 354.041054 84.441643 
L 358.932968 84.230933 
" style="fill:#ff0000;fill-opacity:0.5;"/>
    <path clip-path="url(#p6bc7dcc894)" d="M 397.945475 129.431671 
L 393.303973 243.857558 
L 398.295626 241.609798 
L 389.964719 265.774252 
L 383.618346 241.014438 
L 388.411546 243.659105 
L 393.053049 129.233217 
L 397.945475 129.431671 
" style="fill:#ff0000;fill-opacity:0.5;"/>
    <path clip-path="url(#p6bc7dcc894)" d="M 436.867264 188.305796 
L 438.460394 300.487055 
L 443.321585 297.969547 
L 436.325298 322.553623 
L 428.633716 298.178135 
L 433.564437 300.556584 
L 431.971307 188.375326 
L 436.867264 188.305796 
" style="fill:#ff0000;fill-opacity:0.5;"/>
    <path clip-path="url(#p6bc7dcc894)" d="M 475.603079 259.781645 
L 475.610786 363.835576 
L 480.507055 361.386989 
L 473.164193 385.869783 
L 465.817705 361.388077 
L 470.714336 363.835939 
L 470.706629 259.782007 
L 475.603079 259.781645 
" style="fill:#ff0000;fill-opacity:0.5;"/>
    <path clip-path="url(#p6bc7dcc894)" d="M 514.421932 344.556024 
L 509.617676 400.612942 
L 514.705296 398.591768 
L 505.296904 422.357436 
L 500.069598 397.337442 
L 504.73911 400.194834 
L 509.543366 344.137916 
L 514.421932 344.556024 
" style="fill:#ff0000;fill-opacity:0.5;"/>
    <path clip-path="url(#p6bc7dcc894)" d="M 544.442737 414.387281 
L 470.543084 39.821723 
L 466.213123 43.171419 
L 468.680035 17.730523 
L 480.624665 40.328103 
L 475.346932 38.873951 
L 549.246584 413.439509 
L 544.442737 414.387281 
" style="fill:#ff0000;fill-opacity:0.5;"/>
    <path clip-path="url(#p6bc7dcc894)" d="M 571.101443 437.50183 
L 481.584442 6.898752 
L 477.288789 10.292332 
L 479.496705 -15.172348 
L 491.670654 7.302522 
L 486.378397 5.902148 
L 575.895398 436.505226 
L 571.101443 437.50183 
" style="fill:#ff0000;fill-opacity:0.5;"/>
    <path clip-path="url(#p6bc7dcc894)" d="M 588.804564 414.981253 
L 502.791933 -19.155092 
L 498.464646 -15.801942 
L 500.911254 -41.244798 
L 512.873915 -18.656757 
L 507.595022 -20.106697 
L 593.607654 414.029647 
L 588.804564 414.981253 
" style="fill:#ff0000;fill-opacity:0.5;"/>
    <path clip-path="url(#p6bc7dcc894)" d="M 599.584214 359.75295 
L 570.665342 308.137998 
L 567.590339 312.667168 
L 562.031168 287.718813 
L 580.405351 305.487162 
L 574.937013 305.744662 
L 603.855884 357.359615 
L 599.584214 359.75295 
" style="fill:#ff0000;fill-opacity:0.5;"/>
    <path clip-path="url(#p6bc7dcc894)" d="M 614.036393 312.902845 
L 612.505856 424.916735 
L 617.435298 422.535636 
L 609.756819 446.915254 
L 602.747319 422.334942 
L 607.609863 424.849837 
L 609.1404 312.835947 
L 614.036393 312.902845 
" style="fill:#ff0000;fill-opacity:0.5;"/>
    <path clip-path="url(#p6bc7dcc894)" d="M 623.904697 281.059358 
L 625.71705 402.819987 
L 630.576521 400.29916 
L 623.597027 424.888009 
L 615.888798 400.51778 
L 620.821143 402.892861 
L 619.008789 281.132231 
L 623.904697 281.059358 
" style="fill:#ff0000;fill-opacity:0.5;"/>
    <path clip-path="url(#p6bc7dcc894)" d="M 633.861571 263.19476 
L 640.252147 375.252848 
L 645.00126 372.529807 
L 639.062436 397.390523 
L 630.335739 373.366169 
L 635.36364 375.531635 
L 628.973064 263.473548 
L 633.861571 263.19476 
" style="fill:#ff0000;fill-opacity:0.5;"/>
    <path clip-path="url(#p6bc7dcc894)" d="M 644.379152 259.131318 
L 642.424155 378.109346 
L 647.360167 375.741897 
L 639.614256 400.100174 
L 632.6728 375.50056 
L 637.528366 378.0289 
L 639.483363 259.050873 
L 644.379152 259.131318 
" style="fill:#ff0000;fill-opacity:0.5;"/>
    <path clip-path="url(#p6bc7dcc894)" d="M 655.168865 269.27545 
L 658.93321 387.47938 
L 663.749251 384.876542 
L 657.187569 409.580168 
L 649.067344 385.344104 
L 654.039241 387.635235 
L 650.274896 269.431304 
L 655.168865 269.27545 
" style="fill:#ff0000;fill-opacity:0.5;"/>
   </g>
   <g id="matplotlib.axis_1">
    <g id="xtick_1">
     <g id="line2d_1">
      <defs>
       <path d="M 0 0 
L 0 3.5 
" id="mec6eaaba62" style="stroke:#000000;stroke-width:0.8;"/>
      </defs>
      <g>
       <use style="stroke:#000000;stroke-width:0.8;" x="147.041713" xlink:href="#mec6eaaba62" y="458.388"/>
      </g>
     </g>
     <g id="text_1">
      <!-- 1 -->
      <defs>
       <path d="M 12.40625 8.296875 
L 28.515625 8.296875 
L 28.515625 63.921875 
L 10.984375 60.40625 
L 10.984375 69.390625 
L 28.421875 72.90625 
L 38.28125 72.90625 
L 38.28125 8.296875 
L 54.390625 8.296875 
L 54.390625 0 
L 12.40625 0 
z
" id="DejaVuSans-49"/>
      </defs>
      <g transform="translate(143.860463 472.986437)scale(0.1 -0.1)">
       <use xlink:href="#DejaVuSans-49"/>
      </g>
     </g>
    </g>
    <g id="xtick_2">
     <g id="line2d_2">
      <g>
       <use style="stroke:#000000;stroke-width:0.8;" x="270.168937" xlink:href="#mec6eaaba62" y="458.388"/>
      </g>
     </g>
     <g id="text_2">
      <!-- 2 -->
      <defs>
       <path d="M 19.1875 8.296875 
L 53.609375 8.296875 
L 53.609375 0 
L 7.328125 0 
L 7.328125 8.296875 
Q 12.9375 14.109375 22.625 23.890625 
Q 32.328125 33.6875 34.8125 36.53125 
Q 39.546875 41.84375 41.421875 45.53125 
Q 43.3125 49.21875 43.3125 52.78125 
Q 43.3125 58.59375 39.234375 62.25 
Q 35.15625 65.921875 28.609375 65.921875 
Q 23.96875 65.921875 18.8125 64.3125 
Q 13.671875 62.703125 7.8125 59.421875 
L 7.8125 69.390625 
Q 13.765625 71.78125 18.9375 73 
Q 24.125 74.21875 28.421875 74.21875 
Q 39.75 74.21875 46.484375 68.546875 
Q 53.21875 62.890625 53.21875 53.421875 
Q 53.21875 48.921875 51.53125 44.890625 
Q 49.859375 40.875 45.40625 35.40625 
Q 44.1875 33.984375 37.640625 27.21875 
Q 31.109375 20.453125 19.1875 8.296875 
z
" id="DejaVuSans-50"/>
      </defs>
      <g transform="translate(266.987687 472.986437)scale(0.1 -0.1)">
       <use xlink:href="#DejaVuSans-50"/>
      </g>
     </g>
    </g>
    <g id="xtick_3">
     <g id="line2d_3">
      <g>
       <use style="stroke:#000000;stroke-width:0.8;" x="393.29616" xlink:href="#mec6eaaba62" y="458.388"/>
      </g>
     </g>
     <g id="text_3">
      <!-- 3 -->
      <defs>
       <path d="M 40.578125 39.3125 
Q 47.65625 37.796875 51.625 33 
Q 55.609375 28.21875 55.609375 21.1875 
Q 55.609375 10.40625 48.1875 4.484375 
Q 40.765625 -1.421875 27.09375 -1.421875 
Q 22.515625 -1.421875 17.65625 -0.515625 
Q 12.796875 0.390625 7.625 2.203125 
L 7.625 11.71875 
Q 11.71875 9.328125 16.59375 8.109375 
Q 21.484375 6.890625 26.8125 6.890625 
Q 36.078125 6.890625 40.9375 10.546875 
Q 45.796875 14.203125 45.796875 21.1875 
Q 45.796875 27.640625 41.28125 31.265625 
Q 36.765625 34.90625 28.71875 34.90625 
L 20.21875 34.90625 
L 20.21875 43.015625 
L 29.109375 43.015625 
Q 36.375 43.015625 40.234375 45.921875 
Q 44.09375 48.828125 44.09375 54.296875 
Q 44.09375 59.90625 40.109375 62.90625 
Q 36.140625 65.921875 28.71875 65.921875 
Q 24.65625 65.921875 20.015625 65.03125 
Q 15.375 64.15625 9.8125 62.3125 
L 9.8125 71.09375 
Q 15.4375 72.65625 20.34375 73.4375 
Q 25.25 74.21875 29.59375 74.21875 
Q 40.828125 74.21875 47.359375 69.109375 
Q 53.90625 64.015625 53.90625 55.328125 
Q 53.90625 49.265625 50.4375 45.09375 
Q 46.96875 40.921875 40.578125 39.3125 
z
" id="DejaVuSans-51"/>
      </defs>
      <g transform="translate(390.11491 472.986437)scale(0.1 -0.1)">
       <use xlink:href="#DejaVuSans-51"/>
      </g>
     </g>
    </g>
    <g id="xtick_4">
     <g id="line2d_4">
      <g>
       <use style="stroke:#000000;stroke-width:0.8;" x="516.423384" xlink:href="#mec6eaaba62" y="458.388"/>
      </g>
     </g>
     <g id="text_4">
      <!-- 4 -->
      <defs>
       <path d="M 37.796875 64.3125 
L 12.890625 25.390625 
L 37.796875 25.390625 
z
M 35.203125 72.90625 
L 47.609375 72.90625 
L 47.609375 25.390625 
L 58.015625 25.390625 
L 58.015625 17.1875 
L 47.609375 17.1875 
L 47.609375 0 
L 37.796875 0 
L 37.796875 17.1875 
L 4.890625 17.1875 
L 4.890625 26.703125 
z
" id="DejaVuSans-52"/>
      </defs>
      <g transform="translate(513.242134 472.986437)scale(0.1 -0.1)">
       <use xlink:href="#DejaVuSans-52"/>
      </g>
     </g>
    </g>
    <g id="xtick_5">
     <g id="line2d_5">
      <g>
       <use style="stroke:#000000;stroke-width:0.8;" x="639.550607" xlink:href="#mec6eaaba62" y="458.388"/>
      </g>
     </g>
     <g id="text_5">
      <!-- 5 -->
      <defs>
       <path d="M 10.796875 72.90625 
L 49.515625 72.90625 
L 49.515625 64.59375 
L 19.828125 64.59375 
L 19.828125 46.734375 
Q 21.96875 47.46875 24.109375 47.828125 
Q 26.265625 48.1875 28.421875 48.1875 
Q 40.625 48.1875 47.75 41.5 
Q 54.890625 34.8125 54.890625 23.390625 
Q 54.890625 11.625 47.5625 5.09375 
Q 40.234375 -1.421875 26.90625 -1.421875 
Q 22.3125 -1.421875 17.546875 -0.640625 
Q 12.796875 0.140625 7.71875 1.703125 
L 7.71875 11.625 
Q 12.109375 9.234375 16.796875 8.0625 
Q 21.484375 6.890625 26.703125 6.890625 
Q 35.15625 6.890625 40.078125 11.328125 
Q 45.015625 15.765625 45.015625 23.390625 
Q 45.015625 31 40.078125 35.4375 
Q 35.15625 39.890625 26.703125 39.890625 
Q 22.75 39.890625 18.8125 39.015625 
Q 14.890625 38.140625 10.796875 36.28125 
z
" id="DejaVuSans-53"/>
      </defs>
      <g transform="translate(636.369357 472.986437)scale(0.1 -0.1)">
       <use xlink:href="#DejaVuSans-53"/>
      </g>
     </g>
    </g>
   </g>
   <g id="matplotlib.axis_2">
    <g id="ytick_1">
     <g id="line2d_6">
      <defs>
       <path d="M 0 0 
L -3.5 0 
" id="m21179d10ab" style="stroke:#000000;stroke-width:0.8;"/>
      </defs>
      <g>
       <use style="stroke:#000000;stroke-width:0.8;" x="30.103125" xlink:href="#m21179d10ab" y="448.300058"/>
      </g>
     </g>
     <g id="text_6">
      <!-- 0.5 -->
      <defs>
       <path d="M 31.78125 66.40625 
Q 24.171875 66.40625 20.328125 58.90625 
Q 16.5 51.421875 16.5 36.375 
Q 16.5 21.390625 20.328125 13.890625 
Q 24.171875 6.390625 31.78125 6.390625 
Q 39.453125 6.390625 43.28125 13.890625 
Q 47.125 21.390625 47.125 36.375 
Q 47.125 51.421875 43.28125 58.90625 
Q 39.453125 66.40625 31.78125 66.40625 
z
M 31.78125 74.21875 
Q 44.046875 74.21875 50.515625 64.515625 
Q 56.984375 54.828125 56.984375 36.375 
Q 56.984375 17.96875 50.515625 8.265625 
Q 44.046875 -1.421875 31.78125 -1.421875 
Q 19.53125 -1.421875 13.0625 8.265625 
Q 6.59375 17.96875 6.59375 36.375 
Q 6.59375 54.828125 13.0625 64.515625 
Q 19.53125 74.21875 31.78125 74.21875 
z
" id="DejaVuSans-48"/>
       <path d="M 10.6875 12.40625 
L 21 12.40625 
L 21 0 
L 10.6875 0 
z
" id="DejaVuSans-46"/>
      </defs>
      <g transform="translate(7.2 452.099276)scale(0.1 -0.1)">
       <use xlink:href="#DejaVuSans-48"/>
       <use x="63.623047" xlink:href="#DejaVuSans-46"/>
       <use x="95.410156" xlink:href="#DejaVuSans-53"/>
      </g>
     </g>
    </g>
    <g id="ytick_2">
     <g id="line2d_7">
      <g>
       <use style="stroke:#000000;stroke-width:0.8;" x="30.103125" xlink:href="#m21179d10ab" y="382.432127"/>
      </g>
     </g>
     <g id="text_7">
      <!-- 1.0 -->
      <g transform="translate(7.2 386.231345)scale(0.1 -0.1)">
       <use xlink:href="#DejaVuSans-49"/>
       <use x="63.623047" xlink:href="#DejaVuSans-46"/>
       <use x="95.410156" xlink:href="#DejaVuSans-48"/>
      </g>
     </g>
    </g>
    <g id="ytick_3">
     <g id="line2d_8">
      <g>
       <use style="stroke:#000000;stroke-width:0.8;" x="30.103125" xlink:href="#m21179d10ab" y="316.564196"/>
      </g>
     </g>
     <g id="text_8">
      <!-- 1.5 -->
      <g transform="translate(7.2 320.363415)scale(0.1 -0.1)">
       <use xlink:href="#DejaVuSans-49"/>
       <use x="63.623047" xlink:href="#DejaVuSans-46"/>
       <use x="95.410156" xlink:href="#DejaVuSans-53"/>
      </g>
     </g>
    </g>
    <g id="ytick_4">
     <g id="line2d_9">
      <g>
       <use style="stroke:#000000;stroke-width:0.8;" x="30.103125" xlink:href="#m21179d10ab" y="250.696265"/>
      </g>
     </g>
     <g id="text_9">
      <!-- 2.0 -->
      <g transform="translate(7.2 254.495484)scale(0.1 -0.1)">
       <use xlink:href="#DejaVuSans-50"/>
       <use x="63.623047" xlink:href="#DejaVuSans-46"/>
       <use x="95.410156" xlink:href="#DejaVuSans-48"/>
      </g>
     </g>
    </g>
    <g id="ytick_5">
     <g id="line2d_10">
      <g>
       <use style="stroke:#000000;stroke-width:0.8;" x="30.103125" xlink:href="#m21179d10ab" y="184.828334"/>
      </g>
     </g>
     <g id="text_10">
      <!-- 2.5 -->
      <g transform="translate(7.2 188.627553)scale(0.1 -0.1)">
       <use xlink:href="#DejaVuSans-50"/>
       <use x="63.623047" xlink:href="#DejaVuSans-46"/>
       <use x="95.410156" xlink:href="#DejaVuSans-53"/>
      </g>
     </g>
    </g>
    <g id="ytick_6">
     <g id="line2d_11">
      <g>
       <use style="stroke:#000000;stroke-width:0.8;" x="30.103125" xlink:href="#m21179d10ab" y="118.960404"/>
      </g>
     </g>
     <g id="text_11">
      <!-- 3.0 -->
      <g transform="translate(7.2 122.759622)scale(0.1 -0.1)">
       <use xlink:href="#DejaVuSans-51"/>
       <use x="63.623047" xlink:href="#DejaVuSans-46"/>
       <use x="95.410156" xlink:href="#DejaVuSans-48"/>
      </g>
     </g>
    </g>
    <g id="ytick_7">
     <g id="line2d_12">
      <g>
       <use style="stroke:#000000;stroke-width:0.8;" x="30.103125" xlink:href="#m21179d10ab" y="53.092473"/>
      </g>
     </g>
     <g id="text_12">
      <!-- 3.5 -->
      <g transform="translate(7.2 56.891692)scale(0.1 -0.1)">
       <use xlink:href="#DejaVuSans-51"/>
       <use x="63.623047" xlink:href="#DejaVuSans-46"/>
       <use x="95.410156" xlink:href="#DejaVuSans-53"/>
      </g>
     </g>
    </g>
   </g>
   <g id="patch_3">
    <path d="M 30.103125 458.388 
L 30.103125 7.2 
" style="fill:none;stroke:#000000;stroke-linecap:square;stroke-linejoin:miter;stroke-width:0.8;"/>
   </g>
   <g id="patch_4">
    <path d="M 682.963125 458.388 
L 682.963125 7.2 
" style="fill:none;stroke:#000000;stroke-linecap:square;stroke-linejoin:miter;stroke-width:0.8;"/>
   </g>
   <g id="patch_5">
    <path d="M 30.103125 458.388 
L 682.963125 458.388 
" style="fill:none;stroke:#000000;stroke-linecap:square;stroke-linejoin:miter;stroke-width:0.8;"/>
   </g>
   <g id="patch_6">
    <path d="M 30.103125 7.2 
L 682.963125 7.2 
" style="fill:none;stroke:#000000;stroke-linecap:square;stroke-linejoin:miter;stroke-width:0.8;"/>
   </g>
   <g id="legend_1">
    <g id="patch_7">
     <path d="M 631.163125 45.478125 
L 675.963125 45.478125 
Q 677.963125 45.478125 677.963125 43.478125 
L 677.963125 14.2 
Q 677.963125 12.2 675.963125 12.2 
L 631.163125 12.2 
Q 629.163125 12.2 629.163125 14.2 
L 629.163125 43.478125 
Q 629.163125 45.478125 631.163125 45.478125 
z
" style="fill:#ffffff;opacity:0.8;stroke:#cccccc;stroke-linejoin:miter;"/>
    </g>
    <g id="patch_8">
     <path d="M 633.163125 23.798437 
L 653.163125 23.798437 
L 653.163125 16.798437 
L 633.163125 16.798437 
z
" style="fill:#0000ff;opacity:0.5;"/>
    </g>
    <g id="text_13">
     <!-- $\vec{v}$ -->
     <defs>
      <path d="M -47.015625 63.53125 
L -47.015625 68.40625 
L -10.84375 68.40625 
L -17.28125 75.984375 
L -11.140625 75.984375 
L -2.59375 65.96875 
L -11.140625 55.953125 
L -17.28125 55.953125 
L -10.84375 63.53125 
z
" id="DejaVuSans-8407"/>
      <path d="M 7.171875 54.6875 
L 16.703125 54.6875 
L 24.703125 8.203125 
L 50.875 54.6875 
L 60.40625 54.6875 
L 29.296875 0 
L 17.1875 0 
z
" id="DejaVuSans-Oblique-118"/>
     </defs>
     <g transform="translate(661.163125 23.798437)scale(0.1 -0.1)">
      <use transform="translate(61.810547 12.015625)" xlink:href="#DejaVuSans-8407"/>
      <use transform="translate(0 0.78125)" xlink:href="#DejaVuSans-Oblique-118"/>
     </g>
    </g>
    <g id="patch_9">
     <path d="M 633.163125 39.398437 
L 653.163125 39.398437 
L 653.163125 32.398437 
L 633.163125 32.398437 
z
" style="fill:#ff0000;opacity:0.5;"/>
    </g>
    <g id="text_14">
     <!-- $\vec{\Delta v}$ -->
     <defs>
      <path d="M 34.1875 63.1875 
L 14.15625 8.203125 
L 54.25 8.203125 
z
M 0.78125 0 
L 28.609375 72.90625 
L 39.796875 72.90625 
L 67.578125 0 
z
" id="DejaVuSans-916"/>
     </defs>
     <g transform="translate(661.163125 39.398437)scale(0.1 -0.1)">
      <use transform="translate(104.912598 30.015625)" xlink:href="#DejaVuSans-8407"/>
      <use transform="translate(0 0.5625)" xlink:href="#DejaVuSans-916"/>
      <use transform="translate(68.408203 0.5625)" xlink:href="#DejaVuSans-Oblique-118"/>
     </g>
    </g>
   </g>
  </g>
 </g>
 <defs>
  <clipPath id="p6bc7dcc894">
   <rect height="451.188" width="652.86" x="30.103125" y="7.2"/>
  </clipPath>
 </defs>
</svg>
