<?xml version="1.0" encoding="UTF-8" standalone="no"?>
<svg
   width="460"
   height="100"
   version="1.1"
   id="svg1"
   sodipodi:docname="logo-white.svg"
   xmlns:inkscape="http://www.inkscape.org/namespaces/inkscape"
   xmlns:sodipodi="http://sodipodi.sourceforge.net/DTD/sodipodi-0.dtd"
   xmlns="http://www.w3.org/2000/svg"
   xmlns:svg="http://www.w3.org/2000/svg">
  <defs
     id="defs1" />
  <sodipodi:namedview
     id="namedview1"
     pagecolor="#505050"
     bordercolor="#eeeeee"
     borderopacity="1"
     inkscape:showpageshadow="0"
     inkscape:pageopacity="0"
     inkscape:pagecheckerboard="0"
     inkscape:deskcolor="#d1d1d1" />
  <path
     d="M 36.04,68.32 V 27.16 c 0,-6.84 3.24,-6.96 10.08,-8.88 1.08,-0.36 1.8,-0.96 1.8,-2.04 0,-1.44 -2.4,-2.16 -4.2,-2.16 -4.08,0 -9,0.6 -13.2,0.6 -4.32,0 -8.64,-0.6 -13.32,-0.6 -2.64,0 -4.32,0.72 -4.32,2.16 0,1.08 0.84,1.68 1.92,2.04 6.84,1.92 9.84,2.04 9.84,8.88 v 42.36 c 0,4.44 -1.56,8.28 -5.64,10.08 -2.64,1.2 -6.6,1.8 -6.6,3.6 0,1.2 2.64,1.92 3.96,2.04 0.84,0 7.92,-0.6 13.56,-0.6 12.72,0 35.4,0.6 39.84,0.6 2.04,0 2.4,-0.48 3.36,-2.28 0.96,-1.56 3.96,-11.28 3.96,-14.52 0,-3.36 -0.96,-5.64 -2.16,-5.64 -1.08,0 -2.64,0.96 -3.24,2.28 C 68.2,72.4 66.64,79.6 57.4,79.6 H 44.32 c -5.76,0 -8.28,-5.16 -8.28,-11.28 z m 81.95995,1.08 V 49.24 c 0,-1.68 -0.6,-4.44 2.04,-8.4 l 6.84,-10.56 c 6.72,-10.32 7.08,-9.6 14.28,-12 1.08,-0.36 2.04,-0.96 2.04,-2.04 0,-1.44 -2.4,-2.16 -4.2,-2.16 -1.8,0 -5.88,0.6 -7.68,0.6 -1.8,0 -6.84,-0.6 -8.64,-0.6 -1.8,0 -4.2,0.72 -4.2,2.16 0,1.08 0.96,1.8 2.04,2.16 2.16,0.72 4.32,3.36 3.48,4.8 l -4.44,7.8 c -3,5.28 -3.84,7.44 -5.04,7.44 -1.08,0 -2.4,-2.16 -3.72,-4.92 0,0 -5.88,-11.16 -5.88,-12.36 0,-0.84 0.12,-1.68 3.6,-2.88 1.08,-0.36 1.8,-0.96 1.8,-2.04 0,-1.44 -2.4,-2.16 -4.2,-2.16 -4.08,0 -7.319998,0.6 -11.519998,0.6 -4.32,0 -4.8,-0.6 -9.48,-0.6 -1.8,0 -4.2,0.72 -4.2,2.16 0,1.08 0.84,1.68 1.92,2.04 4.44,1.44 11.88,4.56 15.24,13.2 l 5.399998,13.92 c 1.56,3.96 3.12,6.48 3.12,15.24 v 8.76 c 0,4.56 -1.56,8.4 -5.64,10.2 -2.639998,1.2 -6.599998,1.8 -6.599998,3.6 0,1.2 2.64,1.92 3.96,2.04 0.84,0 7.919998,-0.72 13.559998,-0.72 5.76,0 13.68,0.72 14.52,0.72 1.32,-0.12 3.84,-0.84 3.84,-2.04 0,-1.8 -3.96,-2.4 -6.6,-3.6 -4.08,-1.8 -5.64,-5.64 -5.64,-10.2 z m 63.59997,-57.36 c -23.64,0 -43.44,16.32 -43.44,39.96 0,21.36 20.88,34.92 41.16,34.92 6.72,0 15.12,-1.32 19.92,-3 3,-1.08 3.6,-1.92 5.52,-5.88 1.08,-2.28 4.8,-10.44 4.8,-11.4 0,-2.16 -0.96,-3.36 -1.92,-3.36 -0.96,0 -1.68,0.24 -2.16,0.96 -6.36,9 -9.12,17.4 -21.24,17.4 -19.08,0 -32.64,-16.32 -32.64,-34.68 0,-16.56 12.12,-29.52 27.6,-29.52 8.52,0 20.04,3.12 21.72,8.4 1.56,5.04 3,7.56 4.8,7.56 1.32,0 2.16,-1.32 2.16,-3.36 0,-6.6 -0.84,-12.96 -3.6,-13.2 -2.76,-0.24 -13.56,-4.8 -22.68,-4.8 z m 58.32001,30.24 V 22.12 c 0,-1.56 0.48,-2.52 3.72,-2.52 h 14.28 c 5.76,0 8.76,1.92 9.72,3.96 1.08,2.4 2.88,4.56 4.32,4.56 1.44,0 1.92,-1.68 1.92,-3.12 0,-1.32 -0.6,-7.92 -1.08,-9.84 -0.24,-1.08 -1.2,-1.68 -3.12,-1.68 -2.16,0 -9.24,0.6 -14.28,0.6 h -34.44 c -2.52,0 -4.2,0.72 -4.2,2.16 0,1.08 0.84,1.68 1.92,2.04 6.84,1.92 9.84,2.04 9.84,8.88 v 42.36 c 0,4.44 -1.56,8.28 -5.64,10.08 -2.64,1.2 -6.6,1.8 -6.6,3.6 0,1.2 2.64,1.92 3.96,2.04 0.84,0 7.92,-0.6 13.56,-0.6 12.72,0 34.44,0.6 38.88,0.6 2.04,0 2.28,-0.48 3.24,-2.28 0.96,-1.56 4.56,-10.44 4.56,-13.8 0,-1.8 -0.48,-3 -1.68,-3 -1.08,0 -2.64,0.96 -3.24,2.28 -3.48,7.32 -5.04,11.16 -14.28,11.16 h -13.08 c -5.76,0 -8.28,-5.16 -8.28,-11.4 V 54.76 c 0,-2.28 0.6,-2.88 2.88,-2.88 h 12.6 c 2.52,0 3.36,1.2 4.2,2.52 0.72,1.2 2.28,4.56 3.84,4.56 1.2,0 1.56,-1.92 1.56,-3.12 0,-1.32 -0.12,-5.04 -0.12,-6.84 0,-1.8 0.48,-6 0.48,-6.96 0,-1.44 -0.24,-2.4 -1.32,-2.4 -1.32,0 -2.4,1.8 -3.72,3 -2.16,2.04 -3.48,3.36 -7.32,3.36 h -10.32 c -1.68,0 -2.76,-0.84 -2.76,-3.72 z M 349.35997,25.96 c 0,-4.68 1.08,-5.88 6.6,-7.68 1.08,-0.36 2.04,-0.96 2.04,-2.04 0,-1.44 -2.4,-2.16 -4.2,-2.16 -1.8,0 -5.88,0.6 -7.68,0.6 -1.8,0 -6,-0.6 -7.8,-0.6 -1.8,0 -4.2,0.72 -4.2,2.16 0,1.08 0.96,1.8 2.04,2.16 5.04,1.68 6.36,1.56 6.36,7.8 v 22.32 c 0,18.72 -4.08,31.2 -20.52,31.2 -14.64,0 -18.12,-9.6 -18.12,-28.8 v -24 c 0,-4.8 2.88,-6.96 8.04,-8.64 1.08,-0.36 1.8,-0.96 1.8,-2.04 0,-1.44 -2.4,-2.16 -4.2,-2.16 -4.08,0 -9.48,0.6 -13.68,0.6 -4.32,0 -4.8,-0.6 -9.48,-0.6 -1.8,0 -4.2,0.72 -4.2,2.16 0,1.08 0.84,1.68 1.92,2.04 7.56,2.52 8.4,3.12 8.4,8.88 v 27.12 c 0,18.36 5.52,31.44 27,31.44 17.64,0 29.88,-12.12 29.88,-30.72 z m 92.16004,43.56 -2.04,-39.6 c -0.36,-6.84 0.96,-9.24 4.68,-10.8 4.8,-2.04 5.76,-2.4 5.76,-3.6 0,-1.2 -0.48,-2.04 -1.92,-2.04 -3.84,0 -12.12,1.2 -15.24,1.2 -3.12,0 -4.8,0 -6.12,2.76 l -16.92,35.16 c -1.2,2.64 -2.52,4.08 -3.48,4.08 -0.6,0 -2.64,-1.2 -3,-2.04 l -13.2,-32.4 c -2.28,-5.4 -4.32,-7.56 -7.56,-7.56 -5.52,0 -9,-0.6 -13.32,-0.6 -1.44,0 -4.08,-0.12 -4.08,1.68 0,1.92 4.32,3.72 6.48,5.76 3,2.76 4.92,5.04 3.84,13.56 l -4.08,31.92 c -0.84,6 -2.88,10.8 -6.96,12.6 -2.76,1.2 -6.6,1.8 -6.6,3.6 0,1.2 2.64,1.92 3.96,2.04 0.84,0 5.4,-0.72 11.04,-0.72 5.76,0 11.04,0.72 11.88,0.72 1.32,-0.12 3.84,-0.84 3.84,-2.04 0,-1.8 -3.96,-2.4 -6.6,-3.6 -3.12,-1.44 -3.96,-7.32 -3.72,-10.56 l 1.56,-25.56 c 0.6,-9.6 1.2,-8.4 2.16,-8.4 0.96,0 2.04,2.04 4.2,7.68 l 11.88,30.48 c 2.52,6.48 3.48,7.44 4.68,7.44 1.08,0 6.12,-10.32 6.6,-11.4 l 10.92,-25.08 c 3.84,-9.6 5.52,-9.48 6.6,-9.48 1.08,0 2.04,5.52 2.4,11.64 l 0.96,23.16 c 0.24,4.44 -1.56,8.28 -5.64,10.08 -2.64,1.2 -6.6,1.8 -6.6,3.6 0,1.2 2.64,1.92 3.96,2.04 0.84,0 7.92,-0.72 13.56,-0.72 5.76,0 13.68,0.72 14.52,0.72 1.32,-0.12 3.84,-0.84 3.84,-2.04 0,-1.8 -3.96,-2.4 -6.6,-3.6 -4.08,-1.8 -5.4,-5.64 -5.64,-10.08 z"
     id="text1"
     style="font-size:120px;font-family:'EB Garamond SC';fill:#ffffff;stroke:#003cba;stroke-width:0.5"
     aria-label="LYCEUM" />
</svg>
