
    <svg width="500.0" height="375" xmlns="http://www.w3.org/2000/svg"
         dominant-baseline="middle" text-anchor="middle">
        <style>
            .etiquette {
                font: 500 25px sans-serif;
                text-align: center;
            }
            .noeud {
                fill: lightgray;
            }

        </style>
        <g transform="scale(1)">
    <line x1="244.75" x2="119.75" y1="75" y2="150" stroke="#333" stroke-width="1.5" /><line x1="244.75" x2="369.75" y1="75" y2="150" stroke="#333" stroke-width="1.5" /><line x1="119.75" x2="57.25" y1="150" y2="225" stroke="#333" stroke-width="1.5" /><line x1="119.75" x2="182.25" y1="150" y2="225" stroke="#333" stroke-width="1.5" /><line x1="182.25" x2="213.5" y1="225" y2="300" stroke="#333" stroke-width="1.5" />
            <!--<rect x="244.75" y="75" rx="2.5" ry="25" width="55.00000000000001" height="27.500000000000004" fill="blue"/>-->
            <circle class="noeud" cx="244.75" cy="75" r="25" stroke="#333" stroke-width="1.5" />
                   <text class="etiquette" x="244.75" y="75" dominant-baseline="middle">3</text>
            <!--<rect x="119.75" y="150" rx="2.5" ry="25" width="55.00000000000001" height="27.500000000000004" fill="blue"/>-->
            <circle class="noeud" cx="119.75" cy="150" r="25" stroke="#333" stroke-width="1.5" />
                   <text class="etiquette" x="119.75" y="150" dominant-baseline="middle">2</text>
            <!--<rect x="369.75" y="150" rx="2.5" ry="25" width="55.00000000000001" height="27.500000000000004" fill="blue"/>-->
            <circle class="noeud" cx="369.75" cy="150" r="25" stroke="#333" stroke-width="1.5" />
                   <text class="etiquette" x="369.75" y="150" dominant-baseline="middle">6</text>
            <!--<rect x="57.25" y="225" rx="2.5" ry="25" width="55.00000000000001" height="27.500000000000004" fill="blue"/>-->
            <circle class="noeud" cx="57.25" cy="225" r="25" stroke="#333" stroke-width="1.5" />
                   <text class="etiquette" x="57.25" y="225" dominant-baseline="middle">1</text>
            <!--<rect x="182.25" y="225" rx="2.5" ry="25" width="55.00000000000001" height="27.500000000000004" fill="blue"/>-->
            <circle class="noeud" cx="182.25" cy="225" r="25" stroke="#333" stroke-width="1.5" />
                   <text class="etiquette" x="182.25" y="225" dominant-baseline="middle">4</text>
            <!--<rect x="213.5" y="300" rx="2.5" ry="25" width="55.00000000000001" height="27.500000000000004" fill="blue"/>-->
            <circle class="noeud" cx="213.5" cy="300" r="25" stroke="#333" stroke-width="1.5" />
                   <text class="etiquette" x="213.5" y="300" dominant-baseline="middle">5</text></g></svg>