<?xml version="1.0" encoding="UTF-8" standalone="no"?>
<svg
   xmlns:dc="http://purl.org/dc/elements/1.1/"
   xmlns:cc="http://creativecommons.org/ns#"
   xmlns:rdf="http://www.w3.org/1999/02/22-rdf-syntax-ns#"
   xmlns:svg="http://www.w3.org/2000/svg"
   xmlns="http://www.w3.org/2000/svg"
   id="svg4"
   version="1.1"
   height="100"
   width="100">
  <metadata
     id="metadata10">
    <rdf:RDF>
      <cc:Work
         rdf:about="">
        <dc:format>image/svg+xml</dc:format>
        <dc:type
           rdf:resource="http://purl.org/dc/dcmitype/StillImage" />
      </cc:Work>
    </rdf:RDF>
  </metadata>
  <defs
     id="defs8" />
  <g
     id="text2"
     style="font-size:100px;font-family:'EB Garamond Initials Fill2';fill:#ffffff;stroke:#003cba"
     aria-label="L">
    <path
       id="path12"
       style="font-size:100px;font-family:'EB Garamond Initials Fill2';fill:#ffffff;stroke:#003cba"
       d="m 53.6,14.5 q 0.2,0 0.3,0.2 0.1,0.2 0,0.5 0,0.2 -0.3,0.2 -3.9,0.5 -6.2,1 -2.2,0.5 -4.4,1.5 -2.2,1 -3.2,2.6 -1,1.6 -1,4 v 47.2 q 0,6 1.6,8.2 1.7,2.3 6.2,2.3 h 13.3 q 9.7,0 15.3,-4.8 5.7,-4.8 9,-13.9 0.2,-0.6 1,-0.6 0.2,0 0.2,0.2 -2.1,9.9 -5.6,21.3 -0.3,0.9 -1.2,0.9 H 12.5 q -0.2,0 -0.4,-0.3 -0.1,-0.2 0,-0.5 0.1,-0.2 0.4,-0.2 0.9,-0.1 2.8,-0.4 1.9,-0.2 2.6,-0.3 0.8,-0.1 2.3,-0.4 1.5,-0.2 2.1,-0.5 0.7,-0.2 1.7,-0.6 1,-0.4 1.4,-0.9 0.5,-0.5 1,-1.2 0.5,-0.7 0.7,-1.6 0.2,-0.8 0.2,-1.9 v -52 q 0,-1.9 -0.8,-3.3 -0.7,-1.5 -1.8,-2.4 -1.1,-0.9 -3.3,-1.5 -2.1,-0.7 -4,-1 -1.8,-0.4 -4.9,-0.8 -0.3,0 -0.4,-0.2 0,-0.3 0.1,-0.5 0.1,-0.3 0.3,-0.3 z" />
  </g>
</svg>
