<?xml version="1.0" encoding="UTF-8" standalone="no"?>
<svg
   xmlns:dc="http://purl.org/dc/elements/1.1/"
   xmlns:cc="http://creativecommons.org/ns#"
   xmlns:rdf="http://www.w3.org/1999/02/22-rdf-syntax-ns#"
   xmlns:svg="http://www.w3.org/2000/svg"
   xmlns="http://www.w3.org/2000/svg"
   id="svg6"
   version="1.1"
   height="100"
   width="100">
  <metadata
     id="metadata12">
    <rdf:RDF>
      <cc:Work
         rdf:about="">
        <dc:format>image/svg+xml</dc:format>
        <dc:type
           rdf:resource="http://purl.org/dc/dcmitype/StillImage" />
      </cc:Work>
    </rdf:RDF>
  </metadata>
  <defs
     id="defs10" />
  <g
     id="text2"
     style="font-size:100px;font-family:'EB Garamond Initials Fill1';fill:#003cba;stroke-width:0.5"
     aria-label="L">
    <path
       id="path14"
       style="font-size:100px;font-family:'EB Garamond Initials Fill1';fill:#003cba;stroke-width:0.5"
       d="m 17.8,87.1 q 0,-0.8 -0.6,-1.5 -0.6,-0.7 -1.1,-0.7 -0.5,0 -1.2,0.8 -0.6,0.9 -1.2,0.9 -0.8,0 -0.8,1.1 0,0.9 1.1,0.9 3.8,0 3.8,-1.5 z m -10,-5.6 q -1,0 -1,0.6 0,1.1 2.4,2.3 l 2.2,1.2 -0.5,-1.7 Q 10.1,81.5 7.8,81.5 Z m 13.6,-17 q 0,-0.7 -0.3,-0.7 -0.2,0 -0.7,0.6 -0.4,0.6 -0.8,1.3 -0.4,0.6 -0.8,1.3 l -0.4,0.7 q -0.3,0.4 -0.7,2.6 -0.3,2.2 -0.3,3.7 0,1.9 0.5,1.9 0.8,0 1.4,-3.5 0.5,-3.2 1.5,-5.6 0.6,-1.5 0.6,-2.3 z m 0.9,-1.6 q 0.8,0 1.6,-0.9 0.8,-0.9 0.8,-1.7 0,-0.3 -0.3,-0.3 -0.8,0 -1.7,1 -0.9,1 -0.9,1.5 0,0.4 0.5,0.4 z m -7.1,-4.6 q 0,-0.8 -0.4,-1.1 -0.4,-0.3 -1.7,-0.3 -1.8,0 -1.8,0.6 0,1.5 2.8,1.5 1.1,0 1.1,-0.7 z M 60.1,25.9 q 0,1.1 0.6,3.6 0.7,2.5 1.2,2.5 0.3,0 0.1,-1.2 -0.4,-3.6 -0.4,-6.1 -0.2,0.1 -0.7,0.2 -0.5,0.1 -0.8,0.2 z m 7.3,-5 q 12.7,0 22,9.8 9.4,9.8 9.4,22.5 0,19.8 -14.3,22.7 -3.1,0.5 -4.9,0.4 -1.8,-0.1 -3.6,-0.5 -1.8,-0.3 -2,-0.3 -2,0 -3.2,0.7 -1.6,0.8 -2.1,0.8 -1.5,0 -1.5,-1.7 0,-1.3 -2.5,-2.8 -2.5,-1.6 -3.8,-3.1 -0.9,-1 -1.1,-1 -0.2,0 -0.2,0.5 0,0.9 -1,0.9 -1.7,0 -1.7,-2.8 0,-0.4 0.2,-1.3 0.2,-1 0.2,-1.4 0,-0.9 -0.5,-0.9 -0.8,0 -0.8,0.6 0,0.6 -0.8,0.6 -0.8,0 -1.5,-0.5 -0.7,-0.6 -0.7,-1.5 0,-1 0.8,-2 0.9,-1 2,-1 0.2,0 0.2,0.2 0,0.5 1.2,0.5 1.2,0 2.2,-2 1,-2.2 3.5,-3.6 2.6,-1.5 5.5,-1.5 2.1,0 4.3,1.8 2.2,1.7 2.2,3.2 0,0.7 0.9,0.6 0.3,-0.1 0.7,0.3 0.5,0.4 0.5,0.7 0,1.3 -0.8,2.4 -0.8,1.1 -0.8,1.3 0,1 0.8,1 0.6,0 1.4,-0.7 0.8,-0.8 0.8,-1.4 0,-0.5 0.9,-1 0.9,-0.5 1.8,-0.5 1.3,0 1.3,1.2 0,1 -0.9,2.5 -0.9,1.4 -1.4,1.4 -0.3,0 -0.3,-0.3 0,-0.1 0.1,-0.7 0.2,-0.6 0.2,-0.7 0,-0.5 -0.4,-0.5 -0.6,0 -1.9,1.5 -1.2,1.4 -2.2,1.3 -1,-0.1 -1.7,-1.4 -0.6,-1.4 -0.6,-2 0,-0.5 -0.7,-0.5 h -0.4 q -1,0 -1.7,-1.1 -0.6,-1.1 -0.6,-2.1 0,-1.1 0.6,-1.1 0.7,0 0.7,0.7 0,0.2 -0.2,0.7 -0.2,0.4 -0.2,0.5 0,0.3 0.4,0.3 2.1,0 2.1,-1.7 0,-1.4 -1.7,-2.9 -1.7,-1.5 -3.7,-1.5 -1.9,0 -3.5,1.1 -1.6,1.1 -2,2.5 -0.1,0.4 -0.3,0.9 -0.1,0.5 -0.3,1.1 -0.1,0.6 -0.2,0.8 0,0.2 -0.1,0.5 -0.1,0.2 -0.1,0.2 0,0.2 0.1,0.2 0.2,0 1.4,-0.4 1.2,-0.5 1.5,-0.5 1.4,0 1.5,2.5 0.1,1.4 0.2,1.8 0.2,0.4 0.9,0.4 h 1 q 0.9,0 0.9,0.3 0,0.5 -0.8,0.5 -0.9,0 -0.9,0.6 0,0.9 -1.6,0.9 -1.3,0 -1.6,-0.7 -0.4,-0.8 -1.2,-0.8 -0.6,0 -0.6,0.6 0,0.4 0.1,0.6 0.7,1.5 3.2,3.4 2.5,1.9 3.7,1.9 0.5,0 0.5,-0.5 v -0.7 q 0,-0.8 0.5,-1.4 0.5,-0.7 1.1,-0.7 0.6,0 2.1,1.4 1.6,1.4 1.6,1.7 0,0.1 -1.3,0.1 -1.4,0 -1.4,0.3 0,0.3 0.6,0.8 0.7,0.6 1.4,0.6 1.9,0 4.5,-0.3 2.7,-0.3 4.6,-0.6 l 1.9,-0.3 q 0.6,0 1.2,-0.8 2.3,-3.1 3.1,-5.5 l 0.6,-2.1 0.2,2.3 q 0.1,0.6 0,1.1 0,0.5 0,0.9 0,0.4 0.1,0.4 1.7,0 3.8,-5.3 2.2,-5.3 2.2,-8.5 0,-15.3 -6.9,-23.6 -6.9,-8.4 -20.8,-8.4 -2.1,0 -5.2,0.5 -0.1,0.5 -0.1,1.5 0,2.6 0.4,6 0.5,3.4 0.9,3.7 1,0.6 1.3,1.4 0.3,0.6 0.4,0.6 0.2,0 0.6,-0.7 0.7,-1.3 3,-1.3 1.8,0 3.9,0.5 2.1,0.5 2.3,1 0.1,0.4 0.4,0.4 0.1,0 1.2,-0.5 1.2,-0.5 1.4,-0.5 0.3,0 0.3,0.7 0,1.4 -2.3,1.4 -2.5,0 -4.4,-1.6 -0.5,-0.5 -0.8,-0.5 -0.2,0 -0.2,0.2 0,0.5 -1.3,0.5 -0.9,0 -2.4,0.9 -1.5,0.8 -1.5,1.3 0,0.1 2.1,0.9 2.2,0.7 2.2,1.2 0,0.8 3.2,1.1 1.1,0 2.9,0.2 1.8,0.2 2.5,0.2 0.9,0 0.9,-0.2 0,-0.4 1.2,-0.4 1.3,0 1.3,-0.4 0,-0.5 2.2,-1.6 2.2,-1.2 2.2,-2.9 0,-1.4 0.4,-1.4 1.5,0 1.5,2.8 0,2.8 -1.2,4.1 -0.7,0.9 -1,0.9 -0.3,0 -0.4,-0.6 -0.4,-0.9 -0.9,-0.9 -0.9,0 -2.5,1.1 -1.5,1.1 -2.1,2.1 -0.7,1.1 -0.7,3.6 0,2.9 0.9,4.5 0.7,1.2 2.3,2.3 1.6,1 2.7,1 0.6,0 0.6,-2.8 0,-2.9 -0.7,-3.5 -0.2,-0.2 -0.2,-0.4 0,-0.6 1.3,-1.2 1.4,-0.6 2.7,-0.6 1.3,0 1.7,0.5 0.5,0.5 1,2.2 0.3,1.2 0.3,2.1 0,1.5 -0.6,1.5 -0.4,0 -0.8,-0.7 -0.4,-0.7 -0.4,-1.3 0,-0.2 0.1,-0.7 0.2,-0.5 0.2,-0.7 0,-0.3 -0.5,-0.3 -2.4,0 -2.4,2.2 0,2.3 3.1,6.2 0.4,0.4 0.4,1.2 0,1.7 -1.9,3 -0.9,0.6 -1.1,0.6 -0.3,0 -0.6,-0.6 Q 87.6,62 87.2,62 87.1,62 86.5,61.4 84,59.2 83.8,61 q -0.2,-0.1 -0.2,-1 0,-1 -0.7,-1 -2.6,0 -4.8,-2.7 -2.1,-2.8 -2.1,-5.6 0,-3.3 1.9,-5.7 0.5,-0.8 0.5,-1.1 0,-0.3 -0.5,-0.3 -0.3,0 -1.3,0.2 -0.9,0.2 -1.4,0.2 -4.8,0 -7.5,-1.7 -0.4,-0.2 -0.6,-0.2 -0.3,0 -0.3,0.9 0,0.4 0.1,1.8 0.2,1.4 0.2,1.7 0,0.7 -0.2,0.7 -0.3,0 -1,-1.7 -0.6,-1.8 -0.6,-2.7 0,-1 0.4,-1.5 0.4,-0.6 0.4,-0.8 0,-0.6 -1.6,-1.8 -1.9,-1.4 -3.9,-5 -2,-3.7 -2,-6.9 v -1.2 q -11.9,4.3 -11.9,15.8 0,7.4 4.2,9.9 2.5,1.5 2.5,2.4 0,0.6 -1.5,0.6 -3.2,0 -5.1,3.2 -0.6,1.1 -0.6,1.8 0,0.5 0.4,1.5 0.4,1 1,1 0.5,0 1.2,-0.5 0.7,-0.6 0.7,-1.1 0,-0.1 -0.1,-0.2 0,-0.2 0,-0.3 0,-0.5 0.5,-1 0.6,-0.5 1.1,-0.5 0.6,0 0.6,0.9 0,1.1 -0.8,2.4 -0.7,1.3 -1.7,1.3 -1.6,0 -4.8,-1.8 -3.4,-1.8 -4.3,-1.8 -1.4,0 -6.4,0.4 -1.9,0.2 -6,0.7 -1.7,0 -2.7,1.5 -1,1.5 -1,3.7 0,0.9 0.5,2.9 0.5,1.9 0.5,2.8 0,2 -0.4,2 -0.1,0 -0.2,-1.9 -0.3,-3.6 -1.8,-3.6 -0.6,0 -1.3,0.7 -0.6,0.6 -0.6,1.2 0,0.2 -0.5,4.2 -0.4,4 -0.4,5.3 0,1.5 0.2,1.5 0.4,0 1.7,-1.9 1.3,-1.9 2,-3.5 0.1,-0.2 0.2,-0.2 0.2,0 0.2,0.9 0,1.6 -1.5,3.3 -2.5,2.7 -2.5,4.5 0,2.7 0.7,3.8 1.1,1.7 2.5,3.1 1.5,1.5 2.4,1.8 1.1,0.4 1.1,0.9 0,0.3 1.4,1.1 1.5,0.9 2,0.9 l 0.1,-0.1 -0.4,-0.6 q -1.2,-1.4 -1.2,-4.1 v -0.1 q 0.2,0 0.6,0.9 0.9,1.7 1.5,1.7 0.2,0 0.2,-0.4 0,-0.6 -0.2,-1 -1.3,-3.9 -1.8,-3.9 -0.1,0 -0.5,0.4 -0.4,0.5 -0.6,0.5 -0.3,0 -0.7,-0.6 -0.3,-0.3 0,-0.4 4.4,-1 4.4,0.2 0,2.5 0.6,4.6 0.7,2.2 1.5,2.2 h 0.3 q 0.7,0 1.1,0.4 0.4,0.5 2.4,0.9 1.9,0.4 2.8,1 0.8,0.4 0.9,0.4 0.2,0 0.2,-0.2 0,-0.5 1.6,-0.5 2,0 3.5,-1.8 1.5,-1.8 1.5,-3.9 0,-1.4 -1,-2.4 -1,-0.9 -2.6,-0.9 -2.5,0 -2.8,2.3 l -0.2,1.7 q 0.6,-0.3 1.7,-1.1 1.2,-0.8 1.7,-1.1 l 0.1,1.8 q 0,2.5 -3,2.5 -1.1,0 -1.9,-1.3 -0.8,-1.2 -0.8,-2.1 0,-0.6 0.4,-0.6 0.8,0 1.4,-1.5 0.8,-1.9 3.3,-1.9 0.8,0 1.5,0.3 0.7,0.3 1.4,0.9 0.8,0.6 1.1,0.7 0.9,0.5 0.9,3.5 0,3 -1.7,4 -1.7,1 -1.7,1.5 0,0.7 -1.9,1.3 -1.9,0.6 -4.4,0.6 -2.6,0 -6.4,-0.9 -3.7,-0.8 -3.7,-1.4 0,-0.4 -2.5,-1.7 -2.7,-1.3 -4.8,-3.8 -2.4,-2.5 -4.5,-2.5 -1.2,0 -3.3,0.8 -2.1,0.9 -2.1,1.8 0,0.7 1.9,0.9 1.9,0.2 2.2,1 0.5,1.4 1.9,1.4 1.3,0 1.3,-0.5 0,-0.2 -0.5,-0.7 -0.7,-0.7 -0.7,-1.4 0,-0.8 0.4,-0.8 0.4,0 1,1.2 0.7,1.2 0.7,1.8 0,0.8 -1,1.7 -1,1 -1.6,1 -0.5,0 -0.5,-0.5 0,-0.2 -0.2,-0.2 -0.3,0 -0.9,0.6 l -1.1,1 -1,-1.1 q -0.8,-0.9 -1.7,-0.9 -1.1,0 -1.1,1.3 0,1.9 -4.6,1.9 H 5.4 Q 2.9,99 2.3,98.6 1.8,98.2 1.8,96.5 q 0,-0.7 0.6,-0.7 0.1,0 0.6,0.1 0.6,0.1 0.8,0.1 0.8,0 2.7,-0.9 2,-0.9 2,-1.4 0,-0.2 -1,-0.2 -1.8,0 -2.9,-0.9 -1,-0.9 -1,-2.3 0,-2.4 1,-2.4 0.8,0 0.8,0.8 v 0.4 q 0,1.3 0.8,1.3 0.2,0 1.5,-0.5 1.3,-0.5 1.5,-0.5 0.7,0 1.4,1.8 l 0.2,0.2 q 0.3,0 0.7,-1.3 0.5,-1.3 0.5,-2 0,-2 -2.8,-2.6 -2,-0.4 -3.5,-2.9 -1.4,-2.4 -1.4,-5.1 0,-2.2 1,-3.5 0.6,-0.9 0.6,-1.4 0,-0.7 -0.7,-1.4 Q 3.2,69 3.2,66.7 3.2,65.1 3.9,64 5,62.2 6,60.1 6.5,59.1 6.5,58.8 6.5,58.1 4.4,57.3 3,56.7 2,55.7 1,54.6 1,53.9 q 0,-0.6 0.8,-0.6 0.6,0 3.4,0.6 2.8,0.5 3.3,0.5 0.6,0 0.6,-0.3 0,-0.1 -0.4,-0.9 -0.4,-0.9 -0.4,-1.1 0,-0.4 0.6,-0.4 1.2,0 4,2.2 0.4,0.4 0.8,0.4 0.4,0 1.2,-0.5 1.4,-0.7 2.5,-0.7 1.1,0 2.5,0.7 0.7,0.4 0.7,0.5 h -0.1 q -0.8,-0.1 -1.2,-0.1 -1,0 -1.8,1.1 -0.8,1 -0.8,2.4 0,0.4 0.2,1.2 0.2,0.8 0.2,1 0,0.4 -0.4,0.4 -0.2,0 -0.7,0 -0.5,-0.1 -0.8,-0.1 -3.2,0 -3.2,2.1 0,1.3 1.3,1.6 1.3,0.3 1.3,1.6 0,1.6 -1.8,1.6 -1.4,0 -2.8,-0.8 -1.4,-0.9 -1.4,-1.9 0,-1.2 -1.1,-1.2 -0.8,0 -1.7,0.5 -0.9,0.5 -0.9,1.2 0,0.8 0.4,1.7 0.5,1.4 1.1,1.9 0.7,0.5 2.3,0.8 1.5,0.3 2,0.7 0.5,0.3 0.5,1.1 0,1.4 1.3,1.6 1.3,0.3 1.3,2.6 0,1.4 -0.8,1.4 -0.7,0 -1.3,-0.7 -0.5,-0.7 -0.5,-1.5 0,-0.8 -0.8,-0.8 -0.7,0 -2.2,1 -1.3,0.9 -1.3,2.7 0,2.1 1.7,2.7 1.7,0.6 2.7,2.3 1.6,2.6 2.7,2.6 0.6,0 1.3,-0.4 1.3,-0.7 1.3,-4.3 0,-0.6 -0.1,-2.2 0,-1.6 0,-2.3 0,-4.6 0.7,-8.1 0.7,-3.5 1.9,-4.2 0.3,-0.3 0.3,-0.5 0,-0.2 -0.8,-1.1 -0.8,-0.9 -0.8,-1.1 0,-0.3 0.3,-0.3 0.6,0 1.4,0.8 0.7,0.7 1,0.7 0.3,0 1.5,-1.5 1.6,-1.9 3.3,-2 0.2,0 2.9,-0.3 2.8,-0.4 6.1,-0.6 3.4,-0.3 6.3,-0.1 0.3,0 0.6,0.3 0.3,0.2 0.7,0.6 0.4,0.3 0.6,0.4 0.6,0.4 1,0.4 0.1,-0.1 0,-0.2 -0.1,-0.2 -0.3,-0.7 -0.2,-0.6 -0.2,-1.1 0,-0.9 0.9,-2.4 1,-1.5 1,-1.9 0,-0.4 -0.4,-1 -0.4,-0.6 -0.7,-0.8 -0.6,-0.4 -1.6,-2.9 -1,-2.5 -1,-4.6 0,-7.7 5.1,-13.4 5.1,-5.8 12.8,-8.1 1.2,-6.3 5.1,-11.4 0.6,-0.8 1.6,-1.9 1.1,-1.2 1.8,-1.9 0.7,-0.8 0.7,-0.9 0,-0.3 -1.4,-0.3 h -8.7 q -1.6,0 -3,1 -1.4,0.9 -1.4,1.7 0,0.3 0,0.8 0.1,0.5 0.1,0.7 0,4 -5.7,4 -1.9,0 -4.8,-1.5 -2.9,-1.6 -2.9,-2.5 0,-0.7 0.1,-1.1 0.2,-0.4 0.2,-1 0,-2.1 -2.6,-2.1 H 21.5 q -1,0 -1.2,0.3 -0.1,0.2 0.3,0.8 0.4,0.6 0.4,0.9 0,0.7 -0.2,1.3 -0.1,0.6 -0.3,1.1 -0.1,0.4 -0.6,0.9 -0.4,0.4 -0.7,0.7 -0.2,0.2 -0.9,0.6 -0.6,0.4 -1,0.6 -0.3,0.2 -1.2,0.6 -0.8,0.4 -1.1,0.6 -0.2,0.1 -0.4,1.5 -0.2,1.3 -0.4,2.8 -0.2,1.4 -0.3,1.7 -0.2,0.4 -1.4,1.3 -1.1,0.9 -2.3,1.9 -1.1,1 -2.1,3.7 -0.9,2.7 -0.9,6.6 0,6.8 1.9,9.8 1.9,2.9 6.6,2.9 3.6,0 6,-2.3 2.4,-2.4 2.4,-5.2 0,-2.8 -1.7,-4.9 -1.7,-2.2 -4.1,-2.2 -5.2,0 -5.2,4.1 0,3.5 2.6,3.5 1.2,0 1.2,-0.7 0,-0.3 -0.5,-0.7 -0.5,-0.5 -0.5,-0.9 0,-0.7 0.6,-1.4 0.7,-0.7 1.3,-0.7 0.8,0 1.5,0.9 0.8,0.9 0.8,1.8 0,1.2 -0.9,1.4 -0.8,0.2 -0.8,1.1 0,1.1 -1.4,1.1 -2.3,0 -4,-1.7 -1.6,-1.7 -1.6,-4.1 0,-2 1,-3.9 1,-1.9 2.2,-2.4 1.3,-0.4 1.3,-0.5 0,-0.1 -0.9,-1 -1.1,-1.1 -1.1,-2.1 0,-1.5 1,-2.4 1,-1 2.5,-1 1.7,0 1.7,1.6 0,1 -0.8,1 -0.2,0 -0.7,-0.5 -0.4,-0.5 -0.7,-0.5 -0.6,0 -0.6,1.4 0,0.3 0,0.5 0.1,0.2 0.1,0.4 0.1,0.1 0.2,0.2 0.1,0.1 0.3,0.2 0.2,0.1 0.3,0.2 0.1,0 0.4,0.1 0.3,0 0.4,0 0.2,0 0.6,0.1 0.4,0 0.6,0 2.5,0.3 2.5,1.6 0,0.9 -0.7,0.9 -0.9,0 -0.9,0.5 0,1 0.6,1.3 2.3,0.9 3.6,3.1 1.3,2.1 1.3,4.4 0,4.6 -3.1,7.6 -3,2.9 -7.2,2.9 Q 2.2,49.1 1.7,32.9 1,22.3 7.7,15.2 9.1,13.8 9.1,12.2 9.1,11.9 8.8,11.8 8.6,11.7 8.1,11.6 7.6,11.4 7.2,11.2 4.5,9.6 4.5,7.2 q 0,-4.3 2.1,-5 1,-0.3 1.8,-0.3 1.1,0 1.1,1.8 0,1.1 -1.4,1.8 -1.4,0.6 -1.4,1.1 0,2.1 2.2,2.1 1,0 2,-0.7 1,-0.7 1.8,-0.7 1.4,0 1.4,1.5 0,0.2 -0.2,1 -0.1,0.8 -0.1,0.9 0,1 2,1 0.2,0 0.3,0 2.6,0 2.6,-2.8 0,-2.3 -1,-3.4 Q 16.8,4.3 14.5,3.3 11.4,2 11.4,1.6 q 0,-0.1 0.5,-0.1 0.2,0 4.5,0.5 4.3,0.4 5.6,0.4 h 23.3 q 0.1,0 0.5,0.2 0.4,0.2 0.4,0.4 0,0.6 -1,1.8 -0.9,1.1 -0.9,2.2 0,1.3 1.2,2.1 1.2,0.8 2.7,0.8 1.5,0 2.7,-0.8 1.2,-0.8 1.2,-2.1 0,-1.1 -1,-2.2 -0.9,-1.2 -0.9,-1.8 0,-0.6 1.2,-0.6 h 33.5 q 0.8,0 1.6,0.4 l 0.8,0.4 q 0.4,0 0,-0.5 Q 87,2.2 87,1.8 q 0,-1.7 2.6,-1.7 1,0 1.9,0.5 1,0.5 1,1.4 0,1.5 -1.7,1.5 -1.1,0 -1.1,0.4 0,0.4 0.8,0.8 2.2,1 4,3.4 1.9,2.3 1.9,5.5 0,0.8 -1.1,2.8 -1,2 -1,2.7 0,0.2 0.4,0.6 0.4,0.3 0.4,0.6 0,0.5 -1,1.9 -1,1.4 -1,1.8 0,0.3 0.3,0.6 0.4,0.2 0.6,0.2 0.8,0 2.2,-1.1 1.4,-1.1 1.6,-1.9 0.1,-0.5 0.3,-0.6 l 0.2,0.3 v 0.4 q 0,1.5 -2.1,3.5 -2,2 -3.3,2 -3.8,0 -3.9,-3.1 0,-0.2 0.1,-0.7 0.1,-0.6 0.2,-0.9 0.1,-0.3 0,-0.4 -0.3,0 -1.2,0.6 -0.8,0.6 -1.5,0.6 -1.3,0 -3.7,-1.4 -2.4,-1.4 -2.4,-2.2 0,-0.3 1.8,-0.7 0.8,-0.1 1.5,-0.9 0.7,-0.8 1.5,-0.8 0.3,0 2.1,1 1.8,1 2.3,1 0.4,0 0.4,-0.6 0,-0.8 -1,-1 -0.5,-0.1 -0.9,-0.8 -0.4,-0.7 -0.4,-1.3 0,-2 2.5,-2 1.2,0 1.2,1 0,0.2 -0.4,0.6 -0.3,0.4 -0.3,0.6 0,0.5 0.9,0.5 2.5,0 2.5,-3.8 0,-3 -4,-6.1 -1,4.3 -3,4.3 -0.8,0 -1.8,-0.8 -1,-0.8 -1,-1.6 0,-0.3 1.1,-1.6 1.1,-1.4 1.1,-2.1 0,-0.7 -5.7,-0.7 -2,0 -2.9,1 -0.8,0.9 -0.8,3 0,0.8 0.7,1.7 0.8,0.8 1.5,0.8 0.4,0 0.5,-0.3 0.8,-1.3 1,-1.3 0.1,0 0.1,0.3 0,1.9 -1,4.4 -0.1,0.3 -0.1,0.8 0,0.9 0.6,1.3 0.6,0.3 0.6,0.8 0,1.1 -1.8,1.1 -1.1,0 -2.2,-1 -1,-1.1 -1,-2.2 0,-1 -1,-1.2 -0.9,-0.2 -2,-1.6 l -1,-1.5 q -1.6,0.8 -4,4.1 -2.4,3.2 -3.7,6.8 2,-0.2 3,-0.2 z m -54.7,-6 q 1.1,-1 1.1,-1.5 0,-0.5 -1.7,-0.5 -1.1,0 -1.5,0.3 -0.3,0.3 -0.3,1.2 0,1.5 0.7,1.5 0.6,0 1.7,-1 z M 75.8,9.2 q 0,-0.9 -1.8,-0.9 -0.3,0 -0.3,0.2 0,1 1.6,1 0.5,0 0.5,-0.3 z M 52.4,27.4 q 0.3,-0.1 -0.1,-0.5 l -0.4,-0.1 q -0.9,0 -3.1,2.4 -2.2,2.4 -4.2,6.5 -2,4.1 -2,7.7 0,2.6 1.7,5.7 1.8,3.1 2.8,3.1 1.1,0 1.1,-0.4 0,-0.7 -1.6,-3.5 -1.5,-2.9 -1.5,-5.3 0,-9.7 7.3,-15.6 z M 2.5,13.4 q 1.2,0 1.2,0.6 0,0.5 -0.7,1.3 L 1.9,16.6 1.8,15 q 0,-1.6 0.7,-1.6 z m 8.7,3.8 q -3.5,2.2 -5.5,5.6 -2,3.4 -2,9.7 0,2.5 1.4,6.9 1.1,3.2 1.6,3.2 0.1,0 0.1,-0.3 0,-0.4 -0.3,-1.6 -1.4,-5.2 -1.4,-7.3 0,-2.6 1.1,-5.9 1.2,-3.4 2.3,-4.5 2,-2 3.9,-6.1 0.2,-0.4 -0.7,0 -0.2,0.1 -0.5,0.3 z m -8,46 q -0.3,0 -0.9,-0.8 -0.6,-0.8 -0.6,-0.9 0,-0.3 0.9,-0.3 0.8,0 0.8,1.2 0,0.8 -0.2,0.8 z m 56.5,25.9 q 0,1.2 0.7,2.5 0.8,1.4 1.4,1.4 0.3,0 0.3,-0.6 0,-0.9 1,-1.4 0.6,-0.3 0.6,-0.5 0,-0.2 -1,-0.5 -1.5,-0.3 -1.5,-1 0,-0.6 -1,-0.6 -0.5,0 -0.5,0.7 z M 90.7,78 q 0,-1.1 1.9,-2.7 2,-1.5 3.8,-1.5 0.9,0 1.8,0.5 0.9,0.6 0.9,1.5 0,0.5 -0.7,0.5 -0.3,0 -0.8,-0.4 -0.4,-0.3 -0.7,-0.3 -0.9,0 -1.7,0.6 -0.8,0.7 -0.8,1.5 0,1.6 2,3.1 0.9,0.6 0.9,1.5 0,1.3 -1.5,6 -1.5,4.7 -1.5,5.2 0,0.5 1.3,0.5 3.7,0 3.7,2.9 v 2 q -0.5,-0.4 -1.5,-1.1 -0.9,-0.7 -1.4,-1 l -0.6,1.1 q -0.4,1 -2.2,1 -1.1,0 -1.4,-0.4 -0.2,-0.3 -0.2,-1.6 0,-2 -0.7,-2 -0.7,0 -2.9,0.7 -2.1,0.7 -3.8,0.7 -3.4,0 -3.4,0.2 0,0.3 2.6,1.3 2.5,1.1 2.5,1.5 0,0.4 -1.1,0 -2.1,-0.3 -4.9,-0.3 -5.1,-0.1 -5.1,-1.8 0,-0.4 0.5,-1.7 0.6,-1.2 0.6,-1.5 0,-0.3 -0.5,-0.3 -1.4,0 -4.4,1 -3,1 -4.6,1 -0.8,0 -2,-0.4 -1.1,-0.4 -1.5,-0.4 -0.2,0 -0.2,0.5 0,0.8 -1.7,1.7 L 59.6,98 v -2.3 q 0,-1.9 -0.3,-1.9 -0.1,0 -0.9,0.6 -1.3,1.1 -2.3,2.3 -0.9,1.1 -2.4,1.1 -1.2,0 -2.4,-0.7 -1.1,-0.7 -1.1,-1.6 0,-0.7 0.8,-0.7 0.9,0 0.9,0.5 0,0.4 0.7,0.4 1.5,0 1.5,-1.7 0,-0.4 -0.4,-1.4 -0.4,-1 -0.4,-1.3 0,-0.8 1.3,-1.9 1.3,-1 2,-1 0.3,0 0.4,-0.2 0.1,-0.1 0.1,-0.3 0.1,-0.1 0,-0.5 0,-0.3 0,-0.4 0,-0.8 1.2,-0.8 0.8,0 1.1,0.3 0.3,0.3 0.6,0.8 0.4,0.6 1,0.9 0.9,0.6 1.1,0.6 0.1,0 0.1,-0.1 L 62,88.2 q -0.1,-0.4 -0.1,-0.6 0,-0.7 2.2,-0.7 4,0.4 4.1,0.8 0,0.7 1.4,0.7 1.3,0 1.8,-0.7 0.6,-0.6 1.2,-0.6 0.8,0 0.8,0.3 0,0.9 -3,2.3 -3.1,1.5 -3.1,2 0,0.1 0.2,0.1 0.1,0 0.5,-0.2 0.4,-0.1 0.6,-0.1 0.8,0 2.4,0.8 1.6,0.8 3,0.8 2.5,0 2.5,-1 0,-0.3 -0.4,-0.3 -1.2,0 -1.2,-1.5 0,-1.5 1.3,-2.6 1.3,-1.1 2.8,-1.1 1.4,0 1.9,0.9 0.5,0.9 1.8,0.9 1.1,0 1.1,-0.7 0,-0.3 0.3,-0.6 0.4,-0.3 0.8,-0.3 0.3,0 0.3,0.3 0,1.3 -2.4,3.2 -1.6,1.3 -1.6,1.7 0,0.1 0.2,0.1 0.1,0 0.3,-0.1 0.3,0 0.5,0 0.7,0 2.9,0.9 2.3,1 3.1,1 1.8,0 4.1,-2.6 2.3,-2.5 2.3,-4 0,-1.6 -1.4,-3.8 -1.4,-2.2 -2.5,-2.2 -1.7,0 -3,1.6 -0.9,1.1 0,1.5 0.1,0.1 0.4,0.1 0.5,0 0.6,-0.3 0.4,-0.5 1,-0.5 1,0 1,1 0,0.7 -0.4,0.9 -0.4,0.2 -1.7,0.2 -1.6,0 -2.2,-0.7 -0.6,-0.7 -0.6,-2.4 0,-2.9 2.8,-3.4 Q 90.7,79 90.7,78 Z M 27.6,97.6 q -0.7,0 -1.6,-0.4 -0.8,-0.4 -0.8,-0.9 0,-0.1 0.3,-0.1 2.9,0 2.9,1 0,0.4 -0.8,0.4 z m -6,-86.2 q 0,-0.7 0.6,-1.3 0.7,-0.6 1.4,-0.6 1.3,0 2.7,1.4 1,1 1,1.2 0,0.4 -1.4,0.8 -1.4,0.4 -1.8,0.4 -0.8,0 -0.8,-0.8 0,-0.6 -0.7,-0.6 -0.1,0 -0.3,0.1 -0.1,0 -0.2,0 -0.5,0 -0.5,-0.6 z m 11.8,0.1 q 0,-2.2 0.5,-2.2 0.2,0 0.8,0.4 0.6,0.4 0.7,0.4 0.1,0 1,-1.2 0.9,-1.3 1.1,-1.3 0.1,0.2 0,0.7 -0.1,0.4 -0.3,1.2 -0.1,0.8 -0.1,1.2 0,0.7 2,4.2 2,3.4 2,4.9 0,2.4 7.7,2.4 2.7,0 4.5,-2 1.9,-2.1 3.5,-5.7 0.2,-0.8 0.2,-1.4 0,-0.6 -0.4,-1.4 -0.4,-0.8 -0.7,-1.3 -0.3,-0.5 -0.7,-1 L 54.8,8.8 54.2,7.7 55.5,8.8 q 1.3,1.1 1.3,1.9 0,0.5 0.3,0.5 0.1,0 0.6,-0.3 0.5,-0.3 0.6,-0.3 0.2,0 0.5,0.4 0.3,0.4 0.3,0.8 0,0.3 -0.6,1 -0.6,0.7 -0.9,1.2 -0.3,0.4 0.2,0.7 0.8,0.2 0.8,1.8 0,1.5 -0.7,1.5 h -0.3 q -0.7,0 -0.7,2 0,1.2 -0.2,1.6 -0.1,0.4 -0.8,0.4 -0.3,0 -1,-0.1 -0.7,-0.1 -0.9,-0.1 -2.1,0 -2.1,1.1 0,0.2 0.2,0.5 0.2,0.3 0.2,0.4 0,0.4 -0.7,0.8 Q 51,25 50.5,25 50,25 49.5,24.1 48.9,23 48.1,23 q -0.7,0 -0.7,1 0,0.9 -0.5,1.7 -0.5,0.7 -1.1,0.7 -1,0 -1,-1.7 0,-1.9 -1.1,-1.9 -0.6,0 -0.6,0.9 0,0.8 -0.5,0.8 -1.1,0 -1.4,-1.7 -0.3,-1.3 -1.8,-1.3 L 39,21.6 38.6,21.7 Q 38,21.7 38,20.6 38,18.7 35.7,15.2 33.4,11.7 33.4,11.5 Z M 56.9,51 h -0.4 q -0.8,0 -1.4,-0.8 -0.5,-0.8 -0.5,-1.7 0,-0.8 0.5,-1.3 0.6,-0.6 0.6,-1.1 0,-0.8 -1.8,-0.8 -1.6,0 -2.5,-1.4 -0.9,-1.5 -0.9,-3.5 0,-4 2.8,-5.6 1.1,-0.6 1.9,-0.6 0.9,0 2,0.9 1.1,0.9 1.1,2 0,1.7 -1.5,1.7 -0.6,0 -0.6,-0.7 0,-0.2 0.2,-0.8 0.2,-0.6 0.2,-0.8 0,-1 -1,-1 -1.2,0 -2,1.3 -0.7,1.2 -0.7,2.5 0,2.5 2.3,2.5 1.3,0 2.7,-0.7 0.8,-0.4 1.6,-0.4 1.6,0 2.5,3.2 1.6,5.7 4,5.7 1.2,0 1.2,-0.8 0,-0.5 0.3,-0.5 0.2,0 0.8,0.3 1.2,0.5 1.7,0.5 0.6,0 0.6,-0.4 0,-0.1 -0.1,-0.2 0,-0.1 0,-0.2 0,-0.8 1.6,-0.8 0.7,0 0.7,0.4 0,0.3 -0.3,0.9 -0.4,0.9 -1,1.2 -0.5,0.2 -2.2,0.3 -2.8,0 -4,0.3 -0.4,0.1 -0.9,0.1 -0.6,0 -0.6,-0.4 0,-0.9 -1.5,-2.5 -1.5,-1.7 -2.4,-1.7 -0.9,0 -1.6,0.8 -0.6,0.7 -0.6,1.7 0,2 1.1,2 0.4,0 1.2,-0.6 l 1.1,-1.1 v 1.2 q 0,1.2 -1.1,1.2 -1.4,0 -1.7,0.5 Q 58.1,52 58,52 57.8,52 57.8,51.6 57.8,51 56.9,51 Z M 41.4,68.3 q 0,-0.4 0.4,-0.4 0.4,0 1.6,0.3 1.2,0.2 1.6,0.2 2,0 2.8,-1.2 0.6,-0.8 1.1,-0.8 0.8,0.1 2.9,1.5 2.2,1.3 2.2,1.7 0,0.2 -0.4,0.2 -0.3,0 -1,-0.3 -0.6,-0.4 -0.8,-0.4 -0.1,0 -0.1,0.1 0,0.1 -0.1,0.1 -0.2,0 -0.8,-0.3 -0.5,-0.4 -0.6,-0.4 -0.2,0 -0.2,0.6 0,0.6 0.5,1.1 0.5,0.5 1.3,0.9 0.8,0.5 1.1,0.8 1.1,1.1 1.9,1.1 1,0 2.9,0.7 2.4,0.9 2.4,4.2 0,0.4 -0.1,0.4 -0.1,0 -0.4,-0.6 -0.9,-1.5 -1.7,-2.2 -0.1,-0.1 -0.3,-0.2 -0.2,-0.2 -0.3,-0.2 -0.1,0 -0.1,0.3 0,2.3 1.6,4.4 0.5,0.7 0.5,0.9 0,0.3 -0.7,0.7 -0.6,0.5 -1,0.5 -0.5,0 -0.6,-1.7 -0.2,-2.2 -0.9,-3.4 -0.5,-0.8 -0.6,-0.8 -0.2,0 -0.3,1.5 l -0.1,1.9 -1.3,-2 q -0.8,-1.4 -0.8,-2 0,-0.3 0.4,-0.9 0.4,-0.5 0.4,-0.7 0,-0.4 -0.7,-0.7 Q 52,72.7 51.4,71.7 51,71.1 50,70.5 q -0.9,-0.6 -1.4,-0.6 -0.3,0 -0.3,0.2 0,0.3 0.7,0.8 0.5,0.3 1.6,2 1.1,1.8 1.1,2.3 0,0.3 -0.5,0.3 -0.6,0 -3.2,-1.2 -2.5,-1.1 -3,-1.1 -0.1,0 -0.1,0.1 0,0.2 0.2,0.3 0.6,0.5 1.5,2.1 0.9,1.7 0.9,2.3 0,0.2 -0.1,0.2 -3.3,-1 -3.3,-5.5 0,-0.4 0,-1.3 0.1,-0.9 0.1,-1.2 0,-1.3 -0.9,-1.3 h -0.7 q -1.2,0 -1.2,-0.6 z M 75.8,30 q 0,-0.4 1,-1.1 1.1,-0.7 1.8,-0.7 0.6,0 2.2,1 1.1,0.7 2.1,2.2 1.1,1.5 1.1,2.3 0,0.5 -0.4,0.5 -0.5,0 -1.1,-0.8 -0.6,-0.8 -0.6,-1.5 0,-2.1 -2.2,-2.1 -2,0 -2,1.5 0,0.9 1.1,2.5 0.4,0.6 0.4,0.6 -0.1,0 -1.1,-0.5 -1,-0.5 -1.1,-0.5 -0.3,0 -0.6,0.4 -0.5,0.7 -2.4,0.7 -1.4,0 -1.4,-0.2 0,-0.1 0,-0.1 0.1,0 0.1,-0.1 0,-0.7 -0.8,-2.1 -1,-2 -2.4,-2 h -0.3 q -1.1,0 -1.1,-0.4 0,-0.7 1.8,-0.7 0.8,0 2.8,0.9 2.1,0.8 2.5,0.8 0.6,0 0.6,-0.6 z m 8,9 q -1.1,0 -1.1,-1.5 0,-1.7 1.5,-1.8 l 1.6,-0.2 Q 85.7,36.3 85.5,37.2 85,39 83.8,39 Z M 23.4,88.3 q 0.4,0 1.4,0.9 1.1,0.9 1.1,1.3 0,0.2 -0.2,0.2 -0.4,0 -1.4,-1.1 -1,-1.1 -1,-1.2 0,-0.1 0.1,-0.1 z M 61.9,21.4 Q 63.7,14.1 74.3,6.4 75,5.8 75,5.3 75,4.9 73.3,4.9 q -1.8,0 -1.8,1.1 0,0.5 -2.2,2 -2.1,1.4 -4.8,5.5 -2.6,4.1 -3.7,8.2 0.2,-0.1 0.5,-0.2 0.4,-0.1 0.6,-0.1 z" />
  </g>
  <g
     id="text4"
     style="font-size:100px;font-family:'EB Garamond Initials Fill2';fill:#ffffff;stroke:#003cba"
     aria-label="L">
    <path
       id="path17"
       style="font-size:100px;font-family:'EB Garamond Initials Fill2';fill:#ffffff;stroke:#003cba"
       d="m 53.6,14.5 q 0.2,0 0.3,0.2 0.1,0.2 0,0.5 0,0.2 -0.3,0.2 -3.9,0.5 -6.2,1 -2.2,0.5 -4.4,1.5 -2.2,1 -3.2,2.6 -1,1.6 -1,4 v 47.2 q 0,6 1.6,8.2 1.7,2.3 6.2,2.3 h 13.3 q 9.7,0 15.3,-4.8 5.7,-4.8 9,-13.9 0.2,-0.6 1,-0.6 0.2,0 0.2,0.2 -2.1,9.9 -5.6,21.3 -0.3,0.9 -1.2,0.9 H 12.5 q -0.2,0 -0.4,-0.3 -0.1,-0.2 0,-0.5 0.1,-0.2 0.4,-0.2 0.9,-0.1 2.8,-0.4 1.9,-0.2 2.6,-0.3 0.8,-0.1 2.3,-0.4 1.5,-0.2 2.1,-0.5 0.7,-0.2 1.7,-0.6 1,-0.4 1.4,-0.9 0.5,-0.5 1,-1.2 0.5,-0.7 0.7,-1.6 0.2,-0.8 0.2,-1.9 v -52 q 0,-1.9 -0.8,-3.3 -0.7,-1.5 -1.8,-2.4 -1.1,-0.9 -3.3,-1.5 -2.1,-0.7 -4,-1 -1.8,-0.4 -4.9,-0.8 -0.3,0 -0.4,-0.2 0,-0.3 0.1,-0.5 0.1,-0.3 0.3,-0.3 z" />
  </g>
</svg>
