<?xml version="1.0" encoding="UTF-8" standalone="no"?>
<svg
   xmlns:dc="http://purl.org/dc/elements/1.1/"
   xmlns:cc="http://creativecommons.org/ns#"
   xmlns:rdf="http://www.w3.org/1999/02/22-rdf-syntax-ns#"
   xmlns:svg="http://www.w3.org/2000/svg"
   xmlns="http://www.w3.org/2000/svg"
   id="svg4"
   version="1.1"
   height="100"
   width="460">
  <metadata
     id="metadata10">
    <rdf:RDF>
      <cc:Work
         rdf:about="">
        <dc:format>image/svg+xml</dc:format>
        <dc:type
           rdf:resource="http://purl.org/dc/dcmitype/StillImage" />
      </cc:Work>
    </rdf:RDF>
  </metadata>
  <defs
     id="defs8" />
  <g
     id="text2"
     style="font-size:120px;font-family:'EB Garamond SC';fill:#000000;stroke:#003cba;stroke-width:0.5"
     aria-label="LYCEUM">
    <path
       id="path12"
       style="font-size:120px;font-family:'EB Garamond SC';fill:#000000;stroke:#003cba;stroke-width:0.5"
       d="m 36.04,68.32 q 0,4.92 2.04,8.16 2.16,3.12 6.24,3.12 H 57.4 q 2.28,0 4.08,-0.6 1.8,-0.72 2.88,-1.44 1.2,-0.84 2.4,-2.52 1.2,-1.8 1.68,-2.88 0.6,-1.08 1.68,-3.48 1.08,-2.52 1.56,-3.6 1.08,-2.28 3.24,-2.28 2.16,0 2.16,5.64 0,2.28 -1.56,7.8 -1.56,5.4 -2.4,6.72 -0.72,1.44 -1.32,1.92 -0.6,0.36 -2.04,0.36 -1.2,0 -16.8,-0.24 -15.6,-0.36 -23.04,-0.36 -2.52,0 -5.76,0.12 -3.12,0.12 -5.4,0.24 -2.16,0.24 -2.4,0.24 -3.96,-0.36 -3.96,-2.04 0,-0.84 0.96,-1.32 0.96,-0.6 2.88,-1.2 2.04,-0.72 2.76,-1.08 5.64,-2.52 5.64,-10.08 V 27.16 q 0,-1.08 -0.12,-1.92 0,-0.96 -0.36,-1.68 Q 23.8,22.72 23.56,22.24 23.44,21.76 22.72,21.28 22,20.8 21.76,20.56 21.52,20.32 20.32,19.96 19.24,19.48 18.76,19.36 18.4,19.24 16.84,18.88 15.4,18.4 14.8,18.28 q -1.92,-0.6 -1.92,-2.04 0,-2.16 4.32,-2.16 2.4,0 6.72,0.36 4.44,0.24 6.6,0.24 2.16,0 6.6,-0.24 4.56,-0.36 6.6,-0.36 1.56,0 2.88,0.6 1.32,0.6 1.32,1.56 0,1.44 -1.8,2.04 -0.6,0.24 -2.16,0.6 -1.44,0.36 -1.92,0.6 -0.48,0.12 -1.56,0.48 -1.08,0.36 -1.44,0.6 -0.36,0.24 -1.08,0.72 -0.6,0.48 -0.84,0.96 -0.24,0.48 -0.6,1.32 -0.36,0.72 -0.48,1.68 0,0.84 0,1.92 z" />
    <path
       id="path14"
       style="font-size:120px;font-family:'EB Garamond SC';fill:#000000;stroke:#003cba;stroke-width:0.5"
       d="m 118.09562,69.4 q 0,7.68 5.64001,10.2 0.71999,0.36 2.64,1.08 2.03999,0.6 3,1.2 0.95999,0.48 0.95999,1.32 0,1.68 -3.83999,2.04 -0.24,0 -2.76,-0.24 -2.40001,-0.12 -5.88,-0.24 -3.36,-0.24 -5.88,-0.24 -2.52001,0 -5.76,0.24 -3.12001,0.12 -5.40001,0.24 -2.159995,0.24 -2.399995,0.24 -3.96,-0.36 -3.96,-2.04 0,-0.84 0.96,-1.32 0.96,-0.6 2.88,-1.2 2.039995,-0.72 2.760005,-1.08 5.64,-2.52 5.64,-10.2 v -8.76 q 0,-2.16 -0.12,-3.96 -0.12001,-1.8 -0.36,-2.88 -0.12001,-1.2 -0.60001,-2.64 -0.35999,-1.44 -0.59999,-1.92 -0.12001,-0.48 -0.72,-1.92 -0.6,-1.56 -0.72,-1.92 L 98.175625,31.48 q -3.72,-9.48 -15.24,-13.2 -1.92,-0.6 -1.92,-2.04 0,-0.96 1.32,-1.56 1.32,-0.6 2.88,-0.6 2.4,0 4.8,0.36 2.52,0.24 4.68,0.24 2.16,0 5.759995,-0.24 3.72,-0.36 5.76001,-0.36 1.56,0 2.87999,0.6 1.32001,0.6 1.32001,1.56 0,1.44 -1.80001,2.04 -3.59999,1.2 -3.59999,2.88 0,0.48 1.43999,3.6 1.44,3.12 2.88,6 l 1.56,2.76 q 2.40001,4.92 3.72,4.92 0.24001,0 0.48001,-0.12 0.24,-0.12 0.48,-0.36 0.35999,-0.36 0.59999,-0.72 0.24001,-0.36 0.6,-1.08 0.48001,-0.72 0.72,-1.32 0.36001,-0.72 0.96,-1.8 0.72,-1.08 1.20001,-2.04 l 4.43999,-7.8 q 0.60001,-1.08 -0.6,-2.64 -1.19999,-1.56 -2.88,-2.16 -2.03999,-0.72 -2.03999,-2.16 0,-0.96 1.31999,-1.56 1.32001,-0.6 2.88001,-0.6 0.96,0 4.31999,0.36 3.36,0.24 4.32,0.24 0.96001,0 3.84,-0.24 2.88,-0.36 3.84,-0.36 1.56,0 2.88,0.6 1.32,0.6 1.32,1.56 0,1.32 -2.04,2.04 -0.6,0.24 -1.92,0.72 -1.32,0.36 -1.8,0.48 -0.36,0.12 -1.32,0.48 -0.83999,0.36 -1.2,0.6 -0.36,0.24 -1.07999,0.72 -0.72001,0.48 -1.20001,1.08 -0.35999,0.48 -1.08,1.2 -0.6,0.72 -1.32,1.8 -0.72,0.96 -1.56,2.16 -0.72,1.08 -1.79999,2.76 l -6.84,10.56 q -0.72,1.08 -1.2,2.16 -0.48001,1.08 -0.72,2.16 -0.12001,0.96 -0.24,1.56 0,0.48 0,1.44 0.11999,0.96 0.11999,1.08 z" />
    <path
       id="path16"
       style="font-size:120px;font-family:'EB Garamond SC';fill:#000000;stroke:#003cba;stroke-width:0.5"
       d="m 181.7725,12.04 q 5.52,0 14.04,2.4 8.52,2.4 8.64,2.4 3.6,0.36 3.6,13.2 0,3.36 -2.16,3.36 -2.52,0 -4.8,-7.56 -1.2,-3.72 -8.04,-6 -6.72,-2.4 -13.68,-2.4 -11.64,0 -19.68,8.64 -7.92,8.52 -7.92,20.88 0,14.16 9.24,24.48 9.36,10.2 23.4,10.2 3.48,0 6.12,-0.72 2.64,-0.84 4.8,-2.88 2.28,-2.16 3.48,-3.6 1.2,-1.56 3.48,-5.04 2.28,-3.6 3.36,-5.16 0.6,-0.96 2.16,-0.96 1.92,0 1.92,3.36 0,1.32 -4.8,11.4 -1.44,3.12 -2.4,4.08 -0.96,0.96 -3.12,1.8 -8.52,3 -19.92,3 -10.32,0 -19.68,-4.2 -9.24,-4.2 -15.36,-12.36 -6.12,-8.16 -6.12,-18.36 0,-17.4 12.6,-28.68 12.72,-11.28 30.84,-11.28 z" />
    <path
       id="path18"
       style="font-size:120px;font-family:'EB Garamond SC';fill:#000000;stroke:#003cba;stroke-width:0.5"
       d="m 240.18062,42.28 q 0,3.72 2.76,3.72 h 10.32 q 1.80001,0 3.12,-0.48 1.44,-0.48 2.04,-0.96 0.72,-0.6 2.16,-1.92 0.36,-0.36 1.08,-1.2 0.84001,-0.96 1.44,-1.32 0.6,-0.48 1.2,-0.48 1.32001,0 1.32001,2.4 0,0.36 -0.24001,3.24 -0.24,2.76 -0.24,3.72 0,0.96 0,3.6 0.12,2.64 0.12,3.24 0,3.12 -1.56,3.12 -0.48,0 -0.95999,-0.36 -0.48001,-0.36 -0.96001,-0.96 -0.36,-0.6 -0.71999,-1.08 -0.24001,-0.48 -0.72001,-1.2 -0.35999,-0.84 -0.47999,-0.96 -1.56001,-2.52 -4.20001,-2.52 h -12.6 q -1.68,0 -2.28,0.6 -0.6,0.6 -0.6,2.28 V 68.2 q 0,5.04 2.04,8.28 2.16,3.12 6.24,3.12 h 13.08 q 3.36,0 5.52001,-0.48 2.15999,-0.6 3.83999,-2.4 1.68,-1.92 2.4,-3.24 0.84,-1.44 2.52,-5.04 1.08,-2.28 3.24001,-2.28 1.68,0 1.68,3 0,2.28 -1.80001,7.32 -1.8,4.92 -2.75999,6.48 -0.60001,1.08 -0.84001,1.44 -0.24,0.36 -0.83999,0.6 -0.60001,0.24 -1.56001,0.24 -1.19999,0 -16.31999,-0.24 -15.12,-0.36 -22.56,-0.36 -2.52001,0 -5.76001,0.12 -3.12,0.12 -5.4,0.24 -2.16,0.24 -2.39999,0.24 -3.96001,-0.36 -3.96001,-2.04 0,-0.84 0.96001,-1.32 0.95999,-0.6 2.87999,-1.2 2.04,-0.72 2.76,-1.08 5.64,-2.52 5.64,-10.08 V 27.16 q 0,-1.08 -0.12,-1.92 0,-0.96 -0.36,-1.68 -0.36,-0.84 -0.6,-1.32 -0.12,-0.48 -0.84,-0.96 -0.72,-0.48 -0.96,-0.72 -0.24,-0.24 -1.44,-0.6 -1.08,-0.48 -1.56,-0.6 -0.36,-0.12 -1.92,-0.48 -1.44,-0.48 -2.04,-0.6 -1.92,-0.6 -1.92,-2.04 0,-2.16 4.2,-2.16 h 34.44 q 2.88,0 8.16,-0.24 5.4,-0.36 6.12,-0.36 2.76,0 3.12001,1.68 1.07999,4.32 1.07999,9.84 0,3.12 -1.92,3.12 -2.28,0 -4.32,-4.56 -1.92,-3.96 -9.71999,-3.96 h -14.28001 q -2.28,0 -3,0.6 -0.72,0.6 -0.72,1.92 z" />
    <path
       id="path20"
       style="font-size:120px;font-family:'EB Garamond SC';fill:#000000;stroke:#003cba;stroke-width:0.5"
       d="M 349.54375,25.96 V 55 q 0,13.92 -8.28,22.32 -8.28,8.4 -21.6,8.4 -15.12,0 -21.12,-8.16 -5.88,-8.16 -5.88,-23.28 V 27.16 q 0,-4.2 -1.32,-5.52 -1.32,-1.44 -7.08,-3.36 -1.92,-0.6 -1.92,-2.04 0,-0.96 1.32,-1.56 1.32,-0.6 2.88,-0.6 2.4,0 4.8,0.36 2.52,0.24 4.68,0.24 2.16,0 6.84,-0.24 4.8,-0.36 6.84,-0.36 1.56,0 2.88,0.6 1.32,0.6 1.32,1.56 0,1.44 -1.8,2.04 -4.08,1.32 -6.12,3.24 -1.92,1.92 -1.92,5.4 v 24 q 0,15.24 3.72,22.08 3.84,6.72 14.4,6.72 11.64,0 16.08,-7.92 4.44,-7.92 4.44,-23.28 V 26.2 q 0,-3.12 -0.72,-4.56 -0.72,-1.44 -1.56,-1.8 -0.72,-0.36 -4.08,-1.44 -2.04,-0.72 -2.04,-2.16 0,-0.96 1.32,-1.56 1.32,-0.6 2.88,-0.6 0.96,0 3.96,0.36 3,0.24 3.84,0.24 0.84,0 3.84,-0.24 3,-0.36 3.84,-0.36 1.56,0 2.88,0.6 1.32,0.6 1.32,1.56 0,1.32 -2.04,2.04 -4.2,1.32 -5.4,2.76 -1.2,1.44 -1.2,4.92 z" />
    <path
       id="path22"
       style="font-size:120px;font-family:'EB Garamond SC';fill:#000000;stroke:#003cba;stroke-width:0.5"
       d="m 441.72625,69.52 q 0.48,7.8 5.64,10.08 0.72,0.36 2.64,1.08 2.04,0.6 3,1.2 0.96,0.48 0.96,1.32 0,1.68 -3.84,2.04 -0.24,0 -2.76,-0.24 -2.4,-0.12 -5.88,-0.24 -3.36,-0.24 -5.88,-0.24 -2.52,0 -5.76,0.24 -3.12,0.12 -5.4,0.24 -2.16,0.24 -2.4,0.24 -3.96,-0.36 -3.96,-2.04 0,-0.84 0.96,-1.32 0.96,-0.6 2.88,-1.2 2.04,-0.72 2.76,-1.08 6,-2.64 5.64,-10.08 l -0.96,-23.16 q -0.72,-11.64 -2.4,-11.64 -0.84,0 -1.44,0.36 -0.48,0.24 -1.92,2.52 -1.44,2.16 -3.24,6.6 l -10.92,25.08 q -0.96,2.16 -3.48,6.84 -2.4,4.56 -3.12,4.56 -0.96,0 -1.92,-1.44 -0.96,-1.44 -2.76,-6 l -11.88,-30.48 q -3,-7.68 -4.2,-7.68 -0.84,0 -0.96,0 -0.12,0 -0.6,1.92 -0.36,1.92 -0.6,6.48 l -1.56,25.56 q -0.24,3 0.6,6.36 0.96,3.24 3.12,4.2 0.72,0.36 2.64,1.08 2.04,0.6 3,1.2 0.96,0.48 0.96,1.32 0,1.68 -3.84,2.04 -0.24,0 -2.04,-0.24 -1.8,-0.12 -4.56,-0.24 -2.76,-0.24 -5.28,-0.24 -2.52,0 -5.04,0.24 -2.52,0.12 -4.2,0.24 -1.56,0.24 -1.8,0.24 -3.96,-0.36 -3.96,-2.04 0,-0.84 0.84,-1.32 0.96,-0.6 3,-1.2 2.04,-0.72 2.76,-1.08 5.52,-2.4 6.96,-12.6 l 4.08,-31.92 q 0.72,-5.88 -0.24,-8.52 -0.96,-2.64 -3.6,-5.04 -0.72,-0.72 -2.52,-1.8 -1.8,-1.2 -2.88,-2.16 -1.08,-0.96 -1.08,-1.8 0,-1.68 4.08,-1.68 2.04,0 6.24,0.36 4.2,0.24 7.08,0.24 2.4,0 4.08,1.8 1.8,1.68 3.48,5.76 l 13.2,32.4 q 0.24,0.6 1.32,1.32 1.2,0.72 1.68,0.72 1.68,0 3.48,-4.08 l 16.92,-35.16 q 0.96,-1.92 2.16,-2.28 1.2,-0.48 3.96,-0.48 1.44,0 7.32,-0.6 5.88,-0.6 7.92,-0.6 1.92,0 1.92,2.04 0,0.84 -0.96,1.44 -0.84,0.48 -4.8,2.16 -2.88,1.2 -3.96,3.48 -0.96,2.28 -0.72,7.32 z" />
  </g>
</svg>
