<?xml version="1.0" encoding="UTF-8"?>
<svg xmlns="http://www.w3.org/2000/svg" xmlns:xlink="http://www.w3.org/1999/xlink" width="285.058pt" height="228.366pt" viewBox="0 0 285.058 228.366" version="1.1">
<defs>
<clipPath id="clip1">
  <path d="M 0 23 L 285.058594 23 L 285.058594 205 L 0 205 Z M 0 23 "/>
</clipPath>
</defs>
<g id="surface1">
<path style="fill:none;stroke-width:1.59404;stroke-linecap:butt;stroke-linejoin:miter;stroke:rgb(0%,0%,0%);stroke-opacity:1;stroke-miterlimit:10;" d="M -141.732125 -113.387312 L -141.732125 113.386125 L 141.732719 113.386125 L 141.732719 -113.387312 Z M -141.732125 -113.387312 " transform="matrix(1,0,0,-1,142.529,114.183)"/>
<path style="fill:none;stroke-width:0.3985;stroke-linecap:butt;stroke-linejoin:miter;stroke:rgb(50%,50%,50%);stroke-opacity:1;stroke-miterlimit:10;" d="M -141.732125 -113.387312 L 141.732719 -113.387312 M -141.732125 -85.039656 L 141.732719 -85.039656 M -141.732125 -56.692 L 141.732719 -56.692 M -141.732125 -28.34825 L 141.732719 -28.34825 M -141.732125 -0.00059375 L 141.732719 -0.00059375 M -141.732125 28.347063 L 141.732719 28.347063 M -141.732125 56.694719 L 141.732719 56.694719 M -141.732125 85.038469 L 141.732719 85.038469 M -141.732125 113.378313 L 141.732719 113.378313 M -141.732125 -113.387312 L -141.732125 113.386125 M -113.388375 -113.387312 L -113.388375 113.386125 M -85.040719 -113.387312 L -85.040719 113.386125 M -56.693062 -113.387312 L -56.693062 113.386125 M -28.345406 -113.387312 L -28.345406 113.386125 M -0.00165625 -113.387312 L -0.00165625 113.386125 M 28.346 -113.387312 L 28.346 113.386125 M 56.693656 -113.387312 L 56.693656 113.386125 M 85.041313 -113.387312 L 85.041313 113.386125 M 113.388969 -113.387312 L 113.388969 113.386125 M 141.724906 -113.387312 L 141.724906 113.386125 " transform="matrix(1,0,0,-1,142.529,114.183)"/>
<path style="fill:none;stroke-width:0.79701;stroke-linecap:butt;stroke-linejoin:miter;stroke:rgb(0%,0%,0%);stroke-opacity:1;stroke-miterlimit:10;" d="M -141.732125 -0.00059375 L 141.732719 -0.00059375 " transform="matrix(1,0,0,-1,142.529,114.183)"/>
<path style="fill:none;stroke-width:0.59776;stroke-linecap:butt;stroke-linejoin:miter;stroke:rgb(0%,0%,0%);stroke-opacity:1;stroke-miterlimit:10;" d="M -141.732125 -1.418562 L -141.732125 1.417375 " transform="matrix(1,0,0,-1,142.529,114.183)"/>
<path style="fill:none;stroke-width:0.59776;stroke-linecap:butt;stroke-linejoin:miter;stroke:rgb(0%,0%,0%);stroke-opacity:1;stroke-miterlimit:10;" d="M -136.064156 -1.418562 L -136.064156 1.417375 " transform="matrix(1,0,0,-1,142.529,114.183)"/>
<path style="fill:none;stroke-width:0.59776;stroke-linecap:butt;stroke-linejoin:miter;stroke:rgb(0%,0%,0%);stroke-opacity:1;stroke-miterlimit:10;" d="M -130.396187 -1.418562 L -130.396187 1.417375 " transform="matrix(1,0,0,-1,142.529,114.183)"/>
<path style="fill:none;stroke-width:0.59776;stroke-linecap:butt;stroke-linejoin:miter;stroke:rgb(0%,0%,0%);stroke-opacity:1;stroke-miterlimit:10;" d="M -124.724312 -1.418562 L -124.724312 1.417375 " transform="matrix(1,0,0,-1,142.529,114.183)"/>
<path style="fill:none;stroke-width:0.59776;stroke-linecap:butt;stroke-linejoin:miter;stroke:rgb(0%,0%,0%);stroke-opacity:1;stroke-miterlimit:10;" d="M -119.056344 -1.418562 L -119.056344 1.417375 " transform="matrix(1,0,0,-1,142.529,114.183)"/>
<path style="fill:none;stroke-width:0.59776;stroke-linecap:butt;stroke-linejoin:miter;stroke:rgb(0%,0%,0%);stroke-opacity:1;stroke-miterlimit:10;" d="M -113.388375 -1.418562 L -113.388375 1.417375 " transform="matrix(1,0,0,-1,142.529,114.183)"/>
<path style="fill:none;stroke-width:0.59776;stroke-linecap:butt;stroke-linejoin:miter;stroke:rgb(0%,0%,0%);stroke-opacity:1;stroke-miterlimit:10;" d="M -107.7165 -1.418562 L -107.7165 1.417375 " transform="matrix(1,0,0,-1,142.529,114.183)"/>
<path style="fill:none;stroke-width:0.59776;stroke-linecap:butt;stroke-linejoin:miter;stroke:rgb(0%,0%,0%);stroke-opacity:1;stroke-miterlimit:10;" d="M -102.048531 -1.418562 L -102.048531 1.417375 " transform="matrix(1,0,0,-1,142.529,114.183)"/>
<path style="fill:none;stroke-width:0.59776;stroke-linecap:butt;stroke-linejoin:miter;stroke:rgb(0%,0%,0%);stroke-opacity:1;stroke-miterlimit:10;" d="M -96.380562 -1.418562 L -96.380562 1.417375 " transform="matrix(1,0,0,-1,142.529,114.183)"/>
<path style="fill:none;stroke-width:0.59776;stroke-linecap:butt;stroke-linejoin:miter;stroke:rgb(0%,0%,0%);stroke-opacity:1;stroke-miterlimit:10;" d="M -90.708687 -1.418562 L -90.708687 1.417375 " transform="matrix(1,0,0,-1,142.529,114.183)"/>
<path style="fill:none;stroke-width:0.59776;stroke-linecap:butt;stroke-linejoin:miter;stroke:rgb(0%,0%,0%);stroke-opacity:1;stroke-miterlimit:10;" d="M -85.040719 -1.418562 L -85.040719 1.417375 " transform="matrix(1,0,0,-1,142.529,114.183)"/>
<path style="fill:none;stroke-width:0.59776;stroke-linecap:butt;stroke-linejoin:miter;stroke:rgb(0%,0%,0%);stroke-opacity:1;stroke-miterlimit:10;" d="M -79.37275 -1.418562 L -79.37275 1.417375 " transform="matrix(1,0,0,-1,142.529,114.183)"/>
<path style="fill:none;stroke-width:0.59776;stroke-linecap:butt;stroke-linejoin:miter;stroke:rgb(0%,0%,0%);stroke-opacity:1;stroke-miterlimit:10;" d="M -73.700875 -1.418562 L -73.700875 1.417375 " transform="matrix(1,0,0,-1,142.529,114.183)"/>
<path style="fill:none;stroke-width:0.59776;stroke-linecap:butt;stroke-linejoin:miter;stroke:rgb(0%,0%,0%);stroke-opacity:1;stroke-miterlimit:10;" d="M -68.032906 -1.418562 L -68.032906 1.417375 " transform="matrix(1,0,0,-1,142.529,114.183)"/>
<path style="fill:none;stroke-width:0.59776;stroke-linecap:butt;stroke-linejoin:miter;stroke:rgb(0%,0%,0%);stroke-opacity:1;stroke-miterlimit:10;" d="M -62.364937 -1.418562 L -62.364937 1.417375 " transform="matrix(1,0,0,-1,142.529,114.183)"/>
<path style="fill:none;stroke-width:0.59776;stroke-linecap:butt;stroke-linejoin:miter;stroke:rgb(0%,0%,0%);stroke-opacity:1;stroke-miterlimit:10;" d="M -56.693062 -1.418562 L -56.693062 1.417375 " transform="matrix(1,0,0,-1,142.529,114.183)"/>
<path style="fill:none;stroke-width:0.59776;stroke-linecap:butt;stroke-linejoin:miter;stroke:rgb(0%,0%,0%);stroke-opacity:1;stroke-miterlimit:10;" d="M -51.025094 -1.418562 L -51.025094 1.417375 " transform="matrix(1,0,0,-1,142.529,114.183)"/>
<path style="fill:none;stroke-width:0.59776;stroke-linecap:butt;stroke-linejoin:miter;stroke:rgb(0%,0%,0%);stroke-opacity:1;stroke-miterlimit:10;" d="M -45.357125 -1.418562 L -45.357125 1.417375 " transform="matrix(1,0,0,-1,142.529,114.183)"/>
<path style="fill:none;stroke-width:0.59776;stroke-linecap:butt;stroke-linejoin:miter;stroke:rgb(0%,0%,0%);stroke-opacity:1;stroke-miterlimit:10;" d="M -39.68525 -1.418562 L -39.68525 1.417375 " transform="matrix(1,0,0,-1,142.529,114.183)"/>
<path style="fill:none;stroke-width:0.59776;stroke-linecap:butt;stroke-linejoin:miter;stroke:rgb(0%,0%,0%);stroke-opacity:1;stroke-miterlimit:10;" d="M -34.017281 -1.418562 L -34.017281 1.417375 " transform="matrix(1,0,0,-1,142.529,114.183)"/>
<path style="fill:none;stroke-width:0.59776;stroke-linecap:butt;stroke-linejoin:miter;stroke:rgb(0%,0%,0%);stroke-opacity:1;stroke-miterlimit:10;" d="M -28.349312 -1.418562 L -28.349312 1.417375 " transform="matrix(1,0,0,-1,142.529,114.183)"/>
<path style="fill:none;stroke-width:0.59776;stroke-linecap:butt;stroke-linejoin:miter;stroke:rgb(0%,0%,0%);stroke-opacity:1;stroke-miterlimit:10;" d="M -22.677437 -1.418562 L -22.677437 1.417375 " transform="matrix(1,0,0,-1,142.529,114.183)"/>
<path style="fill:none;stroke-width:0.59776;stroke-linecap:butt;stroke-linejoin:miter;stroke:rgb(0%,0%,0%);stroke-opacity:1;stroke-miterlimit:10;" d="M -17.009469 -1.418562 L -17.009469 1.417375 " transform="matrix(1,0,0,-1,142.529,114.183)"/>
<path style="fill:none;stroke-width:0.59776;stroke-linecap:butt;stroke-linejoin:miter;stroke:rgb(0%,0%,0%);stroke-opacity:1;stroke-miterlimit:10;" d="M -11.3415 -1.418562 L -11.3415 1.417375 " transform="matrix(1,0,0,-1,142.529,114.183)"/>
<path style="fill:none;stroke-width:0.59776;stroke-linecap:butt;stroke-linejoin:miter;stroke:rgb(0%,0%,0%);stroke-opacity:1;stroke-miterlimit:10;" d="M -5.669625 -1.418562 L -5.669625 1.417375 " transform="matrix(1,0,0,-1,142.529,114.183)"/>
<path style="fill:none;stroke-width:0.59776;stroke-linecap:butt;stroke-linejoin:miter;stroke:rgb(0%,0%,0%);stroke-opacity:1;stroke-miterlimit:10;" d="M -0.00165625 -1.418562 L -0.00165625 1.417375 " transform="matrix(1,0,0,-1,142.529,114.183)"/>
<path style="fill:none;stroke-width:0.59776;stroke-linecap:butt;stroke-linejoin:miter;stroke:rgb(0%,0%,0%);stroke-opacity:1;stroke-miterlimit:10;" d="M 5.666313 -1.418562 L 5.666313 1.417375 " transform="matrix(1,0,0,-1,142.529,114.183)"/>
<path style="fill:none;stroke-width:0.59776;stroke-linecap:butt;stroke-linejoin:miter;stroke:rgb(0%,0%,0%);stroke-opacity:1;stroke-miterlimit:10;" d="M 11.338188 -1.418562 L 11.338188 1.417375 " transform="matrix(1,0,0,-1,142.529,114.183)"/>
<path style="fill:none;stroke-width:0.59776;stroke-linecap:butt;stroke-linejoin:miter;stroke:rgb(0%,0%,0%);stroke-opacity:1;stroke-miterlimit:10;" d="M 17.006156 -1.418562 L 17.006156 1.417375 " transform="matrix(1,0,0,-1,142.529,114.183)"/>
<path style="fill:none;stroke-width:0.59776;stroke-linecap:butt;stroke-linejoin:miter;stroke:rgb(0%,0%,0%);stroke-opacity:1;stroke-miterlimit:10;" d="M 22.674125 -1.418562 L 22.674125 1.417375 " transform="matrix(1,0,0,-1,142.529,114.183)"/>
<path style="fill:none;stroke-width:0.59776;stroke-linecap:butt;stroke-linejoin:miter;stroke:rgb(0%,0%,0%);stroke-opacity:1;stroke-miterlimit:10;" d="M 28.346 -1.418562 L 28.346 1.417375 " transform="matrix(1,0,0,-1,142.529,114.183)"/>
<path style="fill:none;stroke-width:0.59776;stroke-linecap:butt;stroke-linejoin:miter;stroke:rgb(0%,0%,0%);stroke-opacity:1;stroke-miterlimit:10;" d="M 34.013969 -1.418562 L 34.013969 1.417375 " transform="matrix(1,0,0,-1,142.529,114.183)"/>
<path style="fill:none;stroke-width:0.59776;stroke-linecap:butt;stroke-linejoin:miter;stroke:rgb(0%,0%,0%);stroke-opacity:1;stroke-miterlimit:10;" d="M 39.681938 -1.418562 L 39.681938 1.417375 " transform="matrix(1,0,0,-1,142.529,114.183)"/>
<path style="fill:none;stroke-width:0.59776;stroke-linecap:butt;stroke-linejoin:miter;stroke:rgb(0%,0%,0%);stroke-opacity:1;stroke-miterlimit:10;" d="M 45.353813 -1.418562 L 45.353813 1.417375 " transform="matrix(1,0,0,-1,142.529,114.183)"/>
<path style="fill:none;stroke-width:0.59776;stroke-linecap:butt;stroke-linejoin:miter;stroke:rgb(0%,0%,0%);stroke-opacity:1;stroke-miterlimit:10;" d="M 51.021781 -1.418562 L 51.021781 1.417375 " transform="matrix(1,0,0,-1,142.529,114.183)"/>
<path style="fill:none;stroke-width:0.59776;stroke-linecap:butt;stroke-linejoin:miter;stroke:rgb(0%,0%,0%);stroke-opacity:1;stroke-miterlimit:10;" d="M 56.68975 -1.418562 L 56.68975 1.417375 " transform="matrix(1,0,0,-1,142.529,114.183)"/>
<path style="fill:none;stroke-width:0.59776;stroke-linecap:butt;stroke-linejoin:miter;stroke:rgb(0%,0%,0%);stroke-opacity:1;stroke-miterlimit:10;" d="M 62.361625 -1.418562 L 62.361625 1.417375 " transform="matrix(1,0,0,-1,142.529,114.183)"/>
<path style="fill:none;stroke-width:0.59776;stroke-linecap:butt;stroke-linejoin:miter;stroke:rgb(0%,0%,0%);stroke-opacity:1;stroke-miterlimit:10;" d="M 68.029594 -1.418562 L 68.029594 1.417375 " transform="matrix(1,0,0,-1,142.529,114.183)"/>
<path style="fill:none;stroke-width:0.59776;stroke-linecap:butt;stroke-linejoin:miter;stroke:rgb(0%,0%,0%);stroke-opacity:1;stroke-miterlimit:10;" d="M 73.697563 -1.418562 L 73.697563 1.417375 " transform="matrix(1,0,0,-1,142.529,114.183)"/>
<path style="fill:none;stroke-width:0.59776;stroke-linecap:butt;stroke-linejoin:miter;stroke:rgb(0%,0%,0%);stroke-opacity:1;stroke-miterlimit:10;" d="M 79.369438 -1.418562 L 79.369438 1.417375 " transform="matrix(1,0,0,-1,142.529,114.183)"/>
<path style="fill:none;stroke-width:0.59776;stroke-linecap:butt;stroke-linejoin:miter;stroke:rgb(0%,0%,0%);stroke-opacity:1;stroke-miterlimit:10;" d="M 85.037406 -1.418562 L 85.037406 1.417375 " transform="matrix(1,0,0,-1,142.529,114.183)"/>
<path style="fill:none;stroke-width:0.59776;stroke-linecap:butt;stroke-linejoin:miter;stroke:rgb(0%,0%,0%);stroke-opacity:1;stroke-miterlimit:10;" d="M 90.705375 -1.418562 L 90.705375 1.417375 " transform="matrix(1,0,0,-1,142.529,114.183)"/>
<path style="fill:none;stroke-width:0.59776;stroke-linecap:butt;stroke-linejoin:miter;stroke:rgb(0%,0%,0%);stroke-opacity:1;stroke-miterlimit:10;" d="M 96.37725 -1.418562 L 96.37725 1.417375 " transform="matrix(1,0,0,-1,142.529,114.183)"/>
<path style="fill:none;stroke-width:0.59776;stroke-linecap:butt;stroke-linejoin:miter;stroke:rgb(0%,0%,0%);stroke-opacity:1;stroke-miterlimit:10;" d="M 102.045219 -1.418562 L 102.045219 1.417375 " transform="matrix(1,0,0,-1,142.529,114.183)"/>
<path style="fill:none;stroke-width:0.59776;stroke-linecap:butt;stroke-linejoin:miter;stroke:rgb(0%,0%,0%);stroke-opacity:1;stroke-miterlimit:10;" d="M 107.713188 -1.418562 L 107.713188 1.417375 " transform="matrix(1,0,0,-1,142.529,114.183)"/>
<path style="fill:none;stroke-width:0.59776;stroke-linecap:butt;stroke-linejoin:miter;stroke:rgb(0%,0%,0%);stroke-opacity:1;stroke-miterlimit:10;" d="M 113.385063 -1.418562 L 113.385063 1.417375 " transform="matrix(1,0,0,-1,142.529,114.183)"/>
<path style="fill:none;stroke-width:0.59776;stroke-linecap:butt;stroke-linejoin:miter;stroke:rgb(0%,0%,0%);stroke-opacity:1;stroke-miterlimit:10;" d="M 119.053031 -1.418562 L 119.053031 1.417375 " transform="matrix(1,0,0,-1,142.529,114.183)"/>
<path style="fill:none;stroke-width:0.59776;stroke-linecap:butt;stroke-linejoin:miter;stroke:rgb(0%,0%,0%);stroke-opacity:1;stroke-miterlimit:10;" d="M 124.721 -1.418562 L 124.721 1.417375 " transform="matrix(1,0,0,-1,142.529,114.183)"/>
<path style="fill:none;stroke-width:0.59776;stroke-linecap:butt;stroke-linejoin:miter;stroke:rgb(0%,0%,0%);stroke-opacity:1;stroke-miterlimit:10;" d="M 130.392875 -1.418562 L 130.392875 1.417375 " transform="matrix(1,0,0,-1,142.529,114.183)"/>
<path style="fill:none;stroke-width:0.59776;stroke-linecap:butt;stroke-linejoin:miter;stroke:rgb(0%,0%,0%);stroke-opacity:1;stroke-miterlimit:10;" d="M 136.060844 -1.418562 L 136.060844 1.417375 " transform="matrix(1,0,0,-1,142.529,114.183)"/>
<path style="fill:none;stroke-width:0.59776;stroke-linecap:butt;stroke-linejoin:miter;stroke:rgb(0%,0%,0%);stroke-opacity:1;stroke-miterlimit:10;" d="M 141.728813 -1.418562 L 141.728813 1.417375 " transform="matrix(1,0,0,-1,142.529,114.183)"/>
<path style="fill:none;stroke-width:0.79701;stroke-linecap:butt;stroke-linejoin:miter;stroke:rgb(0%,0%,0%);stroke-opacity:1;stroke-miterlimit:10;" d="M -141.732125 -2.836531 L -141.732125 2.835344 " transform="matrix(1,0,0,-1,142.529,114.183)"/>
<path style="fill:none;stroke-width:0.79701;stroke-linecap:butt;stroke-linejoin:miter;stroke:rgb(0%,0%,0%);stroke-opacity:1;stroke-miterlimit:10;" d="M -113.388375 -2.836531 L -113.388375 2.835344 " transform="matrix(1,0,0,-1,142.529,114.183)"/>
<path style="fill:none;stroke-width:0.79701;stroke-linecap:butt;stroke-linejoin:miter;stroke:rgb(0%,0%,0%);stroke-opacity:1;stroke-miterlimit:10;" d="M -85.040719 -2.836531 L -85.040719 2.835344 " transform="matrix(1,0,0,-1,142.529,114.183)"/>
<path style="fill:none;stroke-width:0.79701;stroke-linecap:butt;stroke-linejoin:miter;stroke:rgb(0%,0%,0%);stroke-opacity:1;stroke-miterlimit:10;" d="M -56.693062 -2.836531 L -56.693062 2.835344 " transform="matrix(1,0,0,-1,142.529,114.183)"/>
<path style="fill:none;stroke-width:0.79701;stroke-linecap:butt;stroke-linejoin:miter;stroke:rgb(0%,0%,0%);stroke-opacity:1;stroke-miterlimit:10;" d="M -28.345406 -2.836531 L -28.345406 2.835344 " transform="matrix(1,0,0,-1,142.529,114.183)"/>
<path style="fill:none;stroke-width:0.79701;stroke-linecap:butt;stroke-linejoin:miter;stroke:rgb(0%,0%,0%);stroke-opacity:1;stroke-miterlimit:10;" d="M -0.00165625 -2.836531 L -0.00165625 2.835344 " transform="matrix(1,0,0,-1,142.529,114.183)"/>
<path style="fill:none;stroke-width:0.79701;stroke-linecap:butt;stroke-linejoin:miter;stroke:rgb(0%,0%,0%);stroke-opacity:1;stroke-miterlimit:10;" d="M 28.346 -2.836531 L 28.346 2.835344 " transform="matrix(1,0,0,-1,142.529,114.183)"/>
<path style="fill:none;stroke-width:0.79701;stroke-linecap:butt;stroke-linejoin:miter;stroke:rgb(0%,0%,0%);stroke-opacity:1;stroke-miterlimit:10;" d="M 56.693656 -2.836531 L 56.693656 2.835344 " transform="matrix(1,0,0,-1,142.529,114.183)"/>
<path style="fill:none;stroke-width:0.79701;stroke-linecap:butt;stroke-linejoin:miter;stroke:rgb(0%,0%,0%);stroke-opacity:1;stroke-miterlimit:10;" d="M 85.041313 -2.836531 L 85.041313 2.835344 " transform="matrix(1,0,0,-1,142.529,114.183)"/>
<path style="fill:none;stroke-width:0.79701;stroke-linecap:butt;stroke-linejoin:miter;stroke:rgb(0%,0%,0%);stroke-opacity:1;stroke-miterlimit:10;" d="M 113.388969 -2.836531 L 113.388969 2.835344 " transform="matrix(1,0,0,-1,142.529,114.183)"/>
<path style="fill:none;stroke-width:0.79701;stroke-linecap:butt;stroke-linejoin:miter;stroke:rgb(0%,0%,0%);stroke-opacity:1;stroke-miterlimit:10;" d="M 141.732719 -2.836531 L 141.732719 2.835344 " transform="matrix(1,0,0,-1,142.529,114.183)"/>
<path style="fill:none;stroke-width:0.3985;stroke-linecap:butt;stroke-linejoin:miter;stroke:rgb(0%,0%,0%);stroke-opacity:1;stroke-miterlimit:10;" d="M -0.00165625 -113.387312 L -0.00165625 113.386125 " transform="matrix(1,0,0,-1,142.529,114.183)"/>
<path style="fill:none;stroke-width:0.59776;stroke-linecap:butt;stroke-linejoin:miter;stroke:rgb(0%,0%,0%);stroke-opacity:1;stroke-miterlimit:10;" d="M -1.415719 -113.387312 L 1.416313 -113.387312 " transform="matrix(1,0,0,-1,142.529,114.183)"/>
<path style="fill:none;stroke-width:0.59776;stroke-linecap:butt;stroke-linejoin:miter;stroke:rgb(0%,0%,0%);stroke-opacity:1;stroke-miterlimit:10;" d="M -1.415719 -107.719344 L 1.416313 -107.719344 " transform="matrix(1,0,0,-1,142.529,114.183)"/>
<path style="fill:none;stroke-width:0.59776;stroke-linecap:butt;stroke-linejoin:miter;stroke:rgb(0%,0%,0%);stroke-opacity:1;stroke-miterlimit:10;" d="M -1.415719 -102.047469 L 1.416313 -102.047469 " transform="matrix(1,0,0,-1,142.529,114.183)"/>
<path style="fill:none;stroke-width:0.59776;stroke-linecap:butt;stroke-linejoin:miter;stroke:rgb(0%,0%,0%);stroke-opacity:1;stroke-miterlimit:10;" d="M -1.415719 -96.3795 L 1.416313 -96.3795 " transform="matrix(1,0,0,-1,142.529,114.183)"/>
<path style="fill:none;stroke-width:0.59776;stroke-linecap:butt;stroke-linejoin:miter;stroke:rgb(0%,0%,0%);stroke-opacity:1;stroke-miterlimit:10;" d="M -1.415719 -90.711531 L 1.416313 -90.711531 " transform="matrix(1,0,0,-1,142.529,114.183)"/>
<path style="fill:none;stroke-width:0.59776;stroke-linecap:butt;stroke-linejoin:miter;stroke:rgb(0%,0%,0%);stroke-opacity:1;stroke-miterlimit:10;" d="M -1.415719 -85.039656 L 1.416313 -85.039656 " transform="matrix(1,0,0,-1,142.529,114.183)"/>
<path style="fill:none;stroke-width:0.59776;stroke-linecap:butt;stroke-linejoin:miter;stroke:rgb(0%,0%,0%);stroke-opacity:1;stroke-miterlimit:10;" d="M -1.415719 -79.371687 L 1.416313 -79.371687 " transform="matrix(1,0,0,-1,142.529,114.183)"/>
<path style="fill:none;stroke-width:0.59776;stroke-linecap:butt;stroke-linejoin:miter;stroke:rgb(0%,0%,0%);stroke-opacity:1;stroke-miterlimit:10;" d="M -1.415719 -73.703719 L 1.416313 -73.703719 " transform="matrix(1,0,0,-1,142.529,114.183)"/>
<path style="fill:none;stroke-width:0.59776;stroke-linecap:butt;stroke-linejoin:miter;stroke:rgb(0%,0%,0%);stroke-opacity:1;stroke-miterlimit:10;" d="M -1.415719 -68.031844 L 1.416313 -68.031844 " transform="matrix(1,0,0,-1,142.529,114.183)"/>
<path style="fill:none;stroke-width:0.59776;stroke-linecap:butt;stroke-linejoin:miter;stroke:rgb(0%,0%,0%);stroke-opacity:1;stroke-miterlimit:10;" d="M -1.415719 -62.363875 L 1.416313 -62.363875 " transform="matrix(1,0,0,-1,142.529,114.183)"/>
<path style="fill:none;stroke-width:0.59776;stroke-linecap:butt;stroke-linejoin:miter;stroke:rgb(0%,0%,0%);stroke-opacity:1;stroke-miterlimit:10;" d="M -1.415719 -56.695906 L 1.416313 -56.695906 " transform="matrix(1,0,0,-1,142.529,114.183)"/>
<path style="fill:none;stroke-width:0.59776;stroke-linecap:butt;stroke-linejoin:miter;stroke:rgb(0%,0%,0%);stroke-opacity:1;stroke-miterlimit:10;" d="M -1.415719 -51.024031 L 1.416313 -51.024031 " transform="matrix(1,0,0,-1,142.529,114.183)"/>
<path style="fill:none;stroke-width:0.59776;stroke-linecap:butt;stroke-linejoin:miter;stroke:rgb(0%,0%,0%);stroke-opacity:1;stroke-miterlimit:10;" d="M -1.415719 -45.356062 L 1.416313 -45.356062 " transform="matrix(1,0,0,-1,142.529,114.183)"/>
<path style="fill:none;stroke-width:0.59776;stroke-linecap:butt;stroke-linejoin:miter;stroke:rgb(0%,0%,0%);stroke-opacity:1;stroke-miterlimit:10;" d="M -1.415719 -39.688094 L 1.416313 -39.688094 " transform="matrix(1,0,0,-1,142.529,114.183)"/>
<path style="fill:none;stroke-width:0.59776;stroke-linecap:butt;stroke-linejoin:miter;stroke:rgb(0%,0%,0%);stroke-opacity:1;stroke-miterlimit:10;" d="M -1.415719 -34.016219 L 1.416313 -34.016219 " transform="matrix(1,0,0,-1,142.529,114.183)"/>
<path style="fill:none;stroke-width:0.59776;stroke-linecap:butt;stroke-linejoin:miter;stroke:rgb(0%,0%,0%);stroke-opacity:1;stroke-miterlimit:10;" d="M -1.415719 -28.34825 L 1.416313 -28.34825 " transform="matrix(1,0,0,-1,142.529,114.183)"/>
<path style="fill:none;stroke-width:0.59776;stroke-linecap:butt;stroke-linejoin:miter;stroke:rgb(0%,0%,0%);stroke-opacity:1;stroke-miterlimit:10;" d="M -1.415719 -22.680281 L 1.416313 -22.680281 " transform="matrix(1,0,0,-1,142.529,114.183)"/>
<path style="fill:none;stroke-width:0.59776;stroke-linecap:butt;stroke-linejoin:miter;stroke:rgb(0%,0%,0%);stroke-opacity:1;stroke-miterlimit:10;" d="M -1.415719 -17.008406 L 1.416313 -17.008406 " transform="matrix(1,0,0,-1,142.529,114.183)"/>
<path style="fill:none;stroke-width:0.59776;stroke-linecap:butt;stroke-linejoin:miter;stroke:rgb(0%,0%,0%);stroke-opacity:1;stroke-miterlimit:10;" d="M -1.415719 -11.340437 L 1.416313 -11.340437 " transform="matrix(1,0,0,-1,142.529,114.183)"/>
<path style="fill:none;stroke-width:0.59776;stroke-linecap:butt;stroke-linejoin:miter;stroke:rgb(0%,0%,0%);stroke-opacity:1;stroke-miterlimit:10;" d="M -1.415719 -5.672469 L 1.416313 -5.672469 " transform="matrix(1,0,0,-1,142.529,114.183)"/>
<path style="fill:none;stroke-width:0.59776;stroke-linecap:butt;stroke-linejoin:miter;stroke:rgb(0%,0%,0%);stroke-opacity:1;stroke-miterlimit:10;" d="M -1.415719 -0.00059375 L 1.416313 -0.00059375 " transform="matrix(1,0,0,-1,142.529,114.183)"/>
<path style="fill:none;stroke-width:0.59776;stroke-linecap:butt;stroke-linejoin:miter;stroke:rgb(0%,0%,0%);stroke-opacity:1;stroke-miterlimit:10;" d="M -1.415719 5.667375 L 1.416313 5.667375 " transform="matrix(1,0,0,-1,142.529,114.183)"/>
<path style="fill:none;stroke-width:0.59776;stroke-linecap:butt;stroke-linejoin:miter;stroke:rgb(0%,0%,0%);stroke-opacity:1;stroke-miterlimit:10;" d="M -1.415719 11.335344 L 1.416313 11.335344 " transform="matrix(1,0,0,-1,142.529,114.183)"/>
<path style="fill:none;stroke-width:0.59776;stroke-linecap:butt;stroke-linejoin:miter;stroke:rgb(0%,0%,0%);stroke-opacity:1;stroke-miterlimit:10;" d="M -1.415719 17.007219 L 1.416313 17.007219 " transform="matrix(1,0,0,-1,142.529,114.183)"/>
<path style="fill:none;stroke-width:0.59776;stroke-linecap:butt;stroke-linejoin:miter;stroke:rgb(0%,0%,0%);stroke-opacity:1;stroke-miterlimit:10;" d="M -1.415719 22.675188 L 1.416313 22.675188 " transform="matrix(1,0,0,-1,142.529,114.183)"/>
<path style="fill:none;stroke-width:0.59776;stroke-linecap:butt;stroke-linejoin:miter;stroke:rgb(0%,0%,0%);stroke-opacity:1;stroke-miterlimit:10;" d="M -1.415719 28.343156 L 1.416313 28.343156 " transform="matrix(1,0,0,-1,142.529,114.183)"/>
<path style="fill:none;stroke-width:0.59776;stroke-linecap:butt;stroke-linejoin:miter;stroke:rgb(0%,0%,0%);stroke-opacity:1;stroke-miterlimit:10;" d="M -1.415719 34.015031 L 1.416313 34.015031 " transform="matrix(1,0,0,-1,142.529,114.183)"/>
<path style="fill:none;stroke-width:0.59776;stroke-linecap:butt;stroke-linejoin:miter;stroke:rgb(0%,0%,0%);stroke-opacity:1;stroke-miterlimit:10;" d="M -1.415719 39.683 L 1.416313 39.683 " transform="matrix(1,0,0,-1,142.529,114.183)"/>
<path style="fill:none;stroke-width:0.59776;stroke-linecap:butt;stroke-linejoin:miter;stroke:rgb(0%,0%,0%);stroke-opacity:1;stroke-miterlimit:10;" d="M -1.415719 45.350969 L 1.416313 45.350969 " transform="matrix(1,0,0,-1,142.529,114.183)"/>
<path style="fill:none;stroke-width:0.59776;stroke-linecap:butt;stroke-linejoin:miter;stroke:rgb(0%,0%,0%);stroke-opacity:1;stroke-miterlimit:10;" d="M -1.415719 51.022844 L 1.416313 51.022844 " transform="matrix(1,0,0,-1,142.529,114.183)"/>
<path style="fill:none;stroke-width:0.59776;stroke-linecap:butt;stroke-linejoin:miter;stroke:rgb(0%,0%,0%);stroke-opacity:1;stroke-miterlimit:10;" d="M -1.415719 56.690813 L 1.416313 56.690813 " transform="matrix(1,0,0,-1,142.529,114.183)"/>
<path style="fill:none;stroke-width:0.59776;stroke-linecap:butt;stroke-linejoin:miter;stroke:rgb(0%,0%,0%);stroke-opacity:1;stroke-miterlimit:10;" d="M -1.415719 62.358781 L 1.416313 62.358781 " transform="matrix(1,0,0,-1,142.529,114.183)"/>
<path style="fill:none;stroke-width:0.59776;stroke-linecap:butt;stroke-linejoin:miter;stroke:rgb(0%,0%,0%);stroke-opacity:1;stroke-miterlimit:10;" d="M -1.415719 68.030656 L 1.416313 68.030656 " transform="matrix(1,0,0,-1,142.529,114.183)"/>
<path style="fill:none;stroke-width:0.59776;stroke-linecap:butt;stroke-linejoin:miter;stroke:rgb(0%,0%,0%);stroke-opacity:1;stroke-miterlimit:10;" d="M -1.415719 73.698625 L 1.416313 73.698625 " transform="matrix(1,0,0,-1,142.529,114.183)"/>
<path style="fill:none;stroke-width:0.59776;stroke-linecap:butt;stroke-linejoin:miter;stroke:rgb(0%,0%,0%);stroke-opacity:1;stroke-miterlimit:10;" d="M -1.415719 79.366594 L 1.416313 79.366594 " transform="matrix(1,0,0,-1,142.529,114.183)"/>
<path style="fill:none;stroke-width:0.59776;stroke-linecap:butt;stroke-linejoin:miter;stroke:rgb(0%,0%,0%);stroke-opacity:1;stroke-miterlimit:10;" d="M -1.415719 85.038469 L 1.416313 85.038469 " transform="matrix(1,0,0,-1,142.529,114.183)"/>
<path style="fill:none;stroke-width:0.59776;stroke-linecap:butt;stroke-linejoin:miter;stroke:rgb(0%,0%,0%);stroke-opacity:1;stroke-miterlimit:10;" d="M -1.415719 90.706438 L 1.416313 90.706438 " transform="matrix(1,0,0,-1,142.529,114.183)"/>
<path style="fill:none;stroke-width:0.59776;stroke-linecap:butt;stroke-linejoin:miter;stroke:rgb(0%,0%,0%);stroke-opacity:1;stroke-miterlimit:10;" d="M -1.415719 96.374406 L 1.416313 96.374406 " transform="matrix(1,0,0,-1,142.529,114.183)"/>
<path style="fill:none;stroke-width:0.59776;stroke-linecap:butt;stroke-linejoin:miter;stroke:rgb(0%,0%,0%);stroke-opacity:1;stroke-miterlimit:10;" d="M -1.415719 102.046281 L 1.416313 102.046281 " transform="matrix(1,0,0,-1,142.529,114.183)"/>
<path style="fill:none;stroke-width:0.59776;stroke-linecap:butt;stroke-linejoin:miter;stroke:rgb(0%,0%,0%);stroke-opacity:1;stroke-miterlimit:10;" d="M -1.415719 107.71425 L 1.416313 107.71425 " transform="matrix(1,0,0,-1,142.529,114.183)"/>
<path style="fill:none;stroke-width:0.59776;stroke-linecap:butt;stroke-linejoin:miter;stroke:rgb(0%,0%,0%);stroke-opacity:1;stroke-miterlimit:10;" d="M -1.415719 113.382219 L 1.416313 113.382219 " transform="matrix(1,0,0,-1,142.529,114.183)"/>
<path style="fill:none;stroke-width:0.79701;stroke-linecap:butt;stroke-linejoin:miter;stroke:rgb(0%,0%,0%);stroke-opacity:1;stroke-miterlimit:10;" d="M -2.833687 -113.387312 L 2.834281 -113.387312 " transform="matrix(1,0,0,-1,142.529,114.183)"/>
<path style="fill:none;stroke-width:0.79701;stroke-linecap:butt;stroke-linejoin:miter;stroke:rgb(0%,0%,0%);stroke-opacity:1;stroke-miterlimit:10;" d="M -2.833687 -85.039656 L 2.834281 -85.039656 " transform="matrix(1,0,0,-1,142.529,114.183)"/>
<path style="fill:none;stroke-width:0.79701;stroke-linecap:butt;stroke-linejoin:miter;stroke:rgb(0%,0%,0%);stroke-opacity:1;stroke-miterlimit:10;" d="M -2.833687 -56.692 L 2.834281 -56.692 " transform="matrix(1,0,0,-1,142.529,114.183)"/>
<path style="fill:none;stroke-width:0.79701;stroke-linecap:butt;stroke-linejoin:miter;stroke:rgb(0%,0%,0%);stroke-opacity:1;stroke-miterlimit:10;" d="M -2.833687 -28.34825 L 2.834281 -28.34825 " transform="matrix(1,0,0,-1,142.529,114.183)"/>
<path style="fill:none;stroke-width:0.79701;stroke-linecap:butt;stroke-linejoin:miter;stroke:rgb(0%,0%,0%);stroke-opacity:1;stroke-miterlimit:10;" d="M -2.833687 -0.00059375 L 2.834281 -0.00059375 " transform="matrix(1,0,0,-1,142.529,114.183)"/>
<path style="fill:none;stroke-width:0.79701;stroke-linecap:butt;stroke-linejoin:miter;stroke:rgb(0%,0%,0%);stroke-opacity:1;stroke-miterlimit:10;" d="M -2.833687 28.347063 L 2.834281 28.347063 " transform="matrix(1,0,0,-1,142.529,114.183)"/>
<path style="fill:none;stroke-width:0.79701;stroke-linecap:butt;stroke-linejoin:miter;stroke:rgb(0%,0%,0%);stroke-opacity:1;stroke-miterlimit:10;" d="M -2.833687 56.694719 L 2.834281 56.694719 " transform="matrix(1,0,0,-1,142.529,114.183)"/>
<path style="fill:none;stroke-width:0.79701;stroke-linecap:butt;stroke-linejoin:miter;stroke:rgb(0%,0%,0%);stroke-opacity:1;stroke-miterlimit:10;" d="M -2.833687 85.038469 L 2.834281 85.038469 " transform="matrix(1,0,0,-1,142.529,114.183)"/>
<path style="fill:none;stroke-width:0.79701;stroke-linecap:butt;stroke-linejoin:miter;stroke:rgb(0%,0%,0%);stroke-opacity:1;stroke-miterlimit:10;" d="M -2.833687 113.386125 L 2.834281 113.386125 " transform="matrix(1,0,0,-1,142.529,114.183)"/>
<g clip-path="url(#clip1)" clip-rule="nonzero">
<path style="fill:none;stroke-width:0.79701;stroke-linecap:butt;stroke-linejoin:miter;stroke:rgb(0%,0%,100%);stroke-opacity:1;stroke-miterlimit:10;" d="M -141.732125 -62.992781 L -141.165719 -61.215437 L -140.599312 -59.356062 L -140.032906 -57.422469 L -139.4665 -55.414656 L -138.900094 -53.332625 L -138.333687 -51.180281 L -137.767281 -48.965437 L -137.196969 -46.684187 L -136.630562 -44.344344 L -136.064156 -41.945906 L -135.49775 -39.492781 L -134.931344 -36.988875 L -134.364937 -34.438094 L -133.798531 -31.844344 L -133.228219 -29.203719 L -132.661812 -26.531844 L -132.095406 -23.820906 L -131.529 -21.078719 L -130.962594 -18.313094 L -130.396187 -15.520125 L -129.829781 -12.707625 L -129.259469 -9.8795 L -128.693062 -7.039656 L -128.126656 -4.188094 L -126.427437 4.378313 L -125.861031 7.225969 L -125.294625 10.065813 L -124.724312 12.893938 L -124.157906 15.706438 L -123.5915 18.4955 L -123.025094 21.261125 L -122.458687 23.999406 L -121.892281 26.706438 L -121.325875 29.378313 L -120.755562 32.015031 L -120.189156 34.608781 L -119.62275 37.155656 L -119.056344 39.655656 L -118.489937 42.104875 L -117.923531 44.499406 L -117.357125 46.835344 L -116.786812 49.112688 L -116.220406 51.323625 L -115.654 53.472063 L -115.087594 55.546281 L -114.521187 57.554094 L -113.954781 59.483781 L -113.388375 61.335344 L -112.821969 63.108781 L -112.251656 64.800188 L -111.68525 66.409563 L -111.118844 67.929094 L -110.552437 69.362688 L -109.986031 70.706438 L -109.419625 71.960344 L -108.853219 73.116594 L -108.286812 74.183 L -107.7165 75.147844 L -107.150094 76.018938 L -106.583687 76.792375 L -106.017281 77.46425 L -105.450875 78.038469 L -104.884469 78.507219 L -104.314156 78.878313 L -103.74775 79.143938 L -103.181344 79.308 L -102.614937 79.3705 L -102.048531 79.327531 L -101.482125 79.186906 L -100.915719 78.940813 L -100.349312 78.58925 L -99.779 78.140031 L -99.212594 77.58925 L -98.646187 76.936906 L -98.079781 76.183 L -97.513375 75.331438 L -96.946969 74.382219 L -96.380562 73.33925 L -95.814156 72.198625 L -95.243844 70.96425 L -94.677437 69.640031 L -94.111031 68.225969 L -93.544625 66.722063 L -92.978219 65.128313 L -92.411812 63.456438 L -91.845406 61.698625 L -91.275094 59.858781 L -90.708687 57.944719 L -90.142281 55.956438 L -89.575875 53.893938 L -89.009469 51.761125 L -88.443062 49.561906 L -87.876656 47.300188 L -87.306344 44.972063 L -86.739937 42.58925 L -86.173531 40.15175 L -85.607125 37.663469 L -85.040719 35.124406 L -84.474312 32.538469 L -83.907906 29.913469 L -83.3415 27.2455 L -82.771187 24.546281 L -82.204781 21.811906 L -81.638375 19.050188 L -81.071969 16.265031 L -80.505562 13.460344 L -79.939156 10.636125 L -79.37275 7.796281 L -78.802437 4.948625 L -78.236031 2.097063 L -77.669625 -0.762312 L -77.103219 -3.617781 L -76.536812 -6.469344 L -75.970406 -9.313094 L -75.404 -12.141219 L -74.833687 -14.957625 L -74.267281 -17.7545 L -73.700875 -20.527937 L -73.134469 -23.274031 L -72.568062 -25.988875 L -72.001656 -28.672469 L -71.43525 -31.317 L -70.868844 -33.922469 L -70.298531 -36.481062 L -69.732125 -38.996687 L -69.165719 -41.457625 L -68.599312 -43.867781 L -68.032906 -46.219344 L -67.4665 -48.512312 L -66.900094 -50.742781 L -66.329781 -52.906844 L -65.763375 -55.000594 L -65.196969 -57.024031 L -64.630562 -58.977156 L -64.064156 -60.84825 L -63.49775 -62.645125 L -62.931344 -64.356062 L -62.361031 -65.988875 L -61.794625 -67.531844 L -61.228219 -68.988875 L -60.661812 -70.356062 L -60.095406 -71.633406 L -59.529 -72.817 L -58.962594 -73.906844 L -58.396187 -74.899031 L -57.825875 -75.797469 L -57.259469 -76.594344 L -56.693062 -77.293562 L -56.126656 -77.895125 L -55.56025 -78.391219 L -54.993844 -78.789656 L -54.427437 -79.082625 L -53.857125 -79.274031 L -53.290719 -79.363875 L -52.724312 -79.352156 L -52.157906 -79.234969 L -51.5915 -79.016219 L -51.025094 -78.692 L -50.458687 -78.270125 L -49.888375 -77.742781 L -49.321969 -77.117781 L -48.755562 -76.391219 L -48.189156 -75.567 L -47.62275 -74.645125 L -47.056344 -73.625594 L -46.489937 -72.512312 L -45.923531 -71.301375 L -45.353219 -70.000594 L -44.786812 -68.609969 L -44.220406 -67.1295 L -43.654 -65.563094 L -43.087594 -63.91075 L -42.521187 -62.172469 L -41.954781 -60.356062 L -41.388375 -58.461531 L -40.818062 -56.492781 L -40.251656 -54.449812 L -39.68525 -52.336531 L -39.118844 -50.152937 L -38.552437 -47.906844 L -37.986031 -45.59825 L -37.419625 -43.231062 L -36.849312 -40.809187 L -36.282906 -38.328719 L -35.7165 -35.805281 L -35.150094 -33.231062 L -34.583687 -30.617781 L -34.017281 -27.961531 L -33.450875 -25.270125 L -32.880562 -22.543562 L -32.314156 -19.789656 L -31.74775 -17.012312 L -31.181344 -14.211531 L -30.614937 -11.391219 L -30.048531 -8.555281 L -29.482125 -5.711531 L -28.915719 -2.856062 L -28.345406 -0.00059375 L -27.779 2.858781 L -27.212594 5.710344 L -26.646187 8.554094 L -26.079781 11.390031 L -25.513375 14.210344 L -24.946969 17.011125 L -24.376656 19.792375 L -23.81025 22.542375 L -23.243844 25.268938 L -22.677437 27.960344 L -22.111031 30.616594 L -21.544625 33.233781 L -20.978219 35.804094 L -20.407906 38.331438 L -19.8415 40.808 L -19.275094 43.229875 L -18.708687 45.600969 L -18.142281 47.909563 L -17.575875 50.155656 L -17.009469 52.335344 L -16.443062 54.448625 L -15.87275 56.491594 L -15.306344 58.46425 L -14.739937 60.358781 L -14.173531 62.175188 L -13.607125 63.909563 L -13.040719 65.561906 L -12.474312 67.128313 L -11.904 68.608781 L -11.337594 70.003313 L -10.771187 71.304094 L -10.204781 72.511125 L -9.638375 73.628313 L -9.071969 74.647844 L -8.505562 75.569719 L -7.93525 76.393938 L -7.368844 77.1205 L -6.802437 77.7455 L -6.236031 78.268938 L -5.669625 78.694719 L -5.103219 79.015031 L -4.536812 79.233781 L -3.970406 79.350969 L -3.400094 79.362688 L -2.833687 79.27675 L -2.267281 79.081438 L -1.700875 78.788469 L -1.134469 78.393938 L -0.568062 77.893938 L -0.00165625 77.296281 L 0.568656 76.597063 L 1.135063 75.796281 L 1.701469 74.90175 L 2.267875 73.905656 L 2.834281 72.819719 L 3.400688 71.632219 L 3.967094 70.358781 L 4.537406 68.991594 L 5.103813 67.530656 L 5.670219 65.987688 L 6.236625 64.358781 L 6.803031 62.643938 L 7.369438 60.847063 L 7.935844 58.975969 L 8.50225 57.02675 L 9.072563 55.003313 L 9.638969 52.905656 L 10.205375 50.741594 L 10.771781 48.511125 L 11.338188 46.222063 L 11.904594 43.866594 L 12.471 41.460344 L 13.041313 38.9955 L 13.607719 36.483781 L 14.174125 33.921281 L 14.740531 31.315813 L 15.306938 28.671281 L 15.873344 25.987688 L 16.43975 23.272844 L 17.010063 20.52675 L 17.576469 17.753313 L 18.142875 14.956438 L 18.709281 12.143938 L 19.275688 9.311906 L 19.842094 6.468156 L 20.4085 3.616594 L 20.974906 0.761125 L 21.545219 -2.094344 L 22.111625 -4.949812 L 22.678031 -7.797469 L 23.244438 -10.637312 L 23.810844 -13.461531 L 24.37725 -16.266219 L 24.943656 -19.051375 L 25.510063 -21.813094 L 26.080375 -24.547469 L 26.646781 -27.246687 L 27.213188 -29.91075 L 27.779594 -32.539656 L 28.346 -35.121687 L 28.912406 -37.66075 L 29.478813 -40.152937 L 30.049125 -42.590437 L 30.615531 -44.97325 L 31.181938 -47.297469 L 31.748344 -49.563094 L 32.31475 -51.762312 L 32.881156 -53.895125 L 33.447563 -55.957625 L 34.017875 -57.945906 L 34.584281 -59.859969 L 35.150688 -61.695906 L 35.717094 -63.453719 L 36.2835 -65.1295 L 36.849906 -66.719344 L 37.416313 -68.22325 L 37.982719 -69.641219 L 38.553031 -70.965437 L 39.119438 -72.199812 L 39.685844 -73.340437 L 40.25225 -74.383406 L 40.818656 -75.332625 L 41.385063 -76.184187 L 41.951469 -76.934187 L 42.521781 -77.586531 L 43.088188 -78.141219 L 43.654594 -78.590437 L 44.221 -78.938094 L 44.787406 -79.184187 L 45.353813 -79.328719 L 45.920219 -79.371687 L 46.490531 -79.309187 L 47.056938 -79.145125 L 47.623344 -78.875594 L 48.18975 -78.508406 L 48.756156 -78.03575 L 49.322563 -77.465437 L 49.888969 -76.793562 L 50.455375 -76.020125 L 51.025688 -75.149031 L 51.592094 -74.180281 L 52.1585 -73.117781 L 52.724906 -71.957625 L 53.291313 -70.707625 L 53.857719 -69.363875 L 54.424125 -67.930281 L 54.994438 -66.406844 L 55.560844 -64.801375 L 56.12725 -63.109969 L 56.693656 -61.336531 L 57.260063 -59.481062 L 57.826469 -57.551375 L 58.392875 -55.547469 L 58.963188 -53.469344 L 59.529594 -51.324812 L 60.096 -49.113875 L 60.662406 -46.836531 L 61.228813 -44.500594 L 61.795219 -42.106062 L 62.361625 -39.656844 L 62.928031 -37.156844 L 63.498344 -34.609969 L 64.06475 -32.016219 L 64.631156 -29.3795 L 65.197563 -26.707625 L 65.763969 -24.000594 L 66.330375 -21.262312 L 66.896781 -18.496687 L 67.467094 -15.703719 L 68.0335 -12.895125 L 68.599906 -10.067 L 69.166313 -7.227156 L 69.732719 -4.3795 L 70.299125 -1.524031 L 70.865531 1.335344 L 71.435844 4.190813 L 72.00225 7.038469 L 72.568656 9.882219 L 73.135063 12.710344 L 73.701469 15.518938 L 74.267875 18.311906 L 74.834281 21.081438 L 75.400688 23.819719 L 75.971 26.530656 L 76.537406 29.206438 L 77.103813 31.843156 L 77.670219 34.436906 L 78.236625 36.991594 L 78.803031 39.4955 L 79.369438 41.944719 L 79.93975 44.343156 L 80.506156 46.686906 L 81.072563 48.96425 L 81.638969 51.183 L 82.205375 53.331438 L 82.771781 55.413469 L 83.338188 57.421281 L 83.9085 59.358781 L 84.474906 61.21425 L 85.041313 62.9955 L 85.607719 64.690813 L 86.174125 66.304094 L 86.740531 67.831438 L 87.306938 69.272844 L 87.873344 70.6205 L 88.443656 71.878313 L 89.010063 73.046281 L 89.576469 74.112688 L 90.142875 75.08925 L 90.709281 75.96425 L 91.275688 76.7455 L 91.842094 77.425188 L 92.4085 78.003313 L 92.978813 78.479875 L 93.545219 78.854875 L 94.111625 79.128313 L 94.678031 79.300188 L 95.244438 79.3705 L 95.810844 79.335344 L 96.37725 79.198625 L 96.947563 78.960344 L 97.513969 78.616594 L 98.080375 78.171281 L 98.646781 77.628313 L 99.213188 76.979875 L 99.779594 76.233781 L 100.346 75.390031 L 100.916313 74.448625 L 101.482719 73.409563 L 102.049125 72.27675 L 102.615531 71.050188 L 103.181938 69.729875 L 103.748344 68.319719 L 104.31475 66.819719 L 104.881156 65.237688 L 105.451469 63.565813 L 106.017875 61.815813 L 106.584281 59.983781 L 107.150688 58.073625 L 107.717094 56.08925 L 108.2835 54.030656 L 108.849906 51.90175 L 109.420219 49.710344 L 109.986625 47.448625 L 110.553031 45.128313 L 111.119438 42.749406 L 111.685844 40.315813 L 112.25225 37.827531 L 112.818656 35.292375 L 113.388969 32.710344 L 113.955375 30.085344 L 114.521781 27.425188 L 115.088188 24.725969 L 115.654594 21.9955 L 116.221 19.233781 L 116.787406 16.452531 L 117.353813 13.643938 L 117.924125 10.823625 L 118.490531 7.983781 L 119.056938 5.136125 L 119.623344 2.284563 L 120.18975 -0.574812 L 120.756156 -3.430281 L 121.322563 -6.281844 L 121.892875 -9.125594 L 122.459281 -11.957625 L 123.025688 -14.774031 L 123.592094 -17.570906 L 124.1585 -20.344344 L 124.724906 -23.094344 L 125.291313 -25.813094 L 125.861625 -28.496687 L 126.428031 -31.145125 L 126.994438 -33.750594 L 127.560844 -36.313094 L 128.12725 -38.832625 L 128.693656 -41.297469 L 129.260063 -43.711531 L 129.830375 -46.067 L 130.396781 -48.363875 L 130.963188 -50.59825 L 131.529594 -52.766219 L 132.096 -54.863875 L 132.662406 -56.895125 L 133.228813 -58.84825 L 133.795219 -60.727156 L 134.365531 -62.527937 L 134.931938 -64.246687 L 135.498344 -65.883406 L 136.06475 -67.434187 L 136.631156 -68.895125 L 137.197563 -70.270125 L 137.763969 -71.551375 L 138.334281 -72.742781 L 138.900688 -73.840437 L 139.467094 -74.840437 L 140.0335 -75.742781 L 140.599906 -76.547469 L 141.166313 -77.2545 L 141.732719 -77.856062 " transform="matrix(1,0,0,-1,142.529,114.183)"/>
</g>
</g>
</svg>
