<svg version="1" xmlns="http://www.w3.org/2000/svg" width="1365.333" height="1365.333" viewBox="0 0 1024.000000 1024.000000"><path d="M907 5.8c-7 3.5-9.3 7.4-8.6 15 .3 3.1 1.3 6.2 2.5 7.8 1.2 1.5 2.1 3.1 2.1 3.5 0 1.6-4.5 1-8.9-1.2-10.7-5.1-.9-4.9-189.4-4.9-193.8 0-181.7-.4-181.7 6 0 4.3 1.7 7.7 8.2 15.8 9.9 12.5 12.6 21.4 9.6 31.4-1.7 5.9-8.7 13-16.3 16.8-18.7 9.3-41.6 6.3-55.4-7.1-11-10.7-9.9-24.8 3-41 6-7.4 9.5-14 8.6-16.3-.4-.9-2.1-2.5-3.9-3.6-3.3-2-5-2-130.3-2-104.9 0-129.3-.3-140.5-1.5-7.4-.8-17.8-1.9-23-2.5-36.8-4-53.7-5.3-54.4-4.2-1.3 2.1 6.9 6.9 23.7 13.9 16.5 6.9 31.6 16.2 38.4 23.5 5.2 5.6 8.5 14.6 10.4 28 2.5 17.8-3.4 31.1-15.7 35.4-4.8 1.7-20.2 1.8-25.8.2-6.6-1.9-8.6-4.3-8.6-10.4 0-2.9.5-6.5 1.1-8 .5-1.6 1.1-5.8 1.1-9.5.1-5.8-.2-7.2-2.5-10.2-5.5-7.2-14.2-6.7-29.2 1.8-13.5 7.7-20.1 8.9-30 5.5-9.5-3.3-12.7-7.6-12.9-17.2-.1-6.9.6-7.8 11.9-13.8 10.1-5.3 13-8.1 15.1-14.3 1.4-4.3 1.5-5.8.4-10.6-1.7-8-4.9-11.1-11.3-11.1-2.7 0-6.7.4-8.8 1-2.2.5-5.7 1.5-8 2.1-8 2.1-16.5 12.8-19.2 24.4-.5 2.2-1.2 10.3-1.4 17.9-.4 11.3-.1 15 1.2 19.3 4.1 13 17.1 25.8 31 30.7 5.7 2.1 9.3 3.5 11.5 4.6 1.1.5 1.5 2.5 1.5 7.1 0 8.9-4.1 17.4-13.1 27.2-28.9 31.4-47 64.9-55.8 103.2-5.3 23.6-6 30.2-5.9 58.5 0 14.6.6 31 1.2 36.5.7 5.5 1.6 13.4 2.1 17.5 1.7 14.1 7.3 39.4 9.1 41.5.5.5.9 1.7.9 2.6 0 2.5 8.3 21.2 13 29 12.6 21.3 28.5 35.2 52.5 46 12.9 5.8 40.4 10.9 58.5 10.8 7.5 0 23.2-2.2 30.5-4.2 30.5-8.5 58.8-34.9 68.5-63.7 3.8-11.5 6.9-28.6 7-39.1 0-11.2-3.5-24.7-10-38.4-7.8-16.3-20.8-29.3-36.4-36.4-6.3-2.9-9.6-7.5-9.6-13.5 0-5.1.9-5.9 8.1-7 5.9-1 7.4-2.7 7.4-8.6 0-4.7-.4-5.5-3.7-8.5-4.8-4.4-11.4-6.3-27.5-8-19.1-1.9-23.3-5.1-23.3-17.8 0-9.6 3.2-14.7 8.3-13.1 1.2.3 4.4 2.7 7 5.1 4 3.7 5.3 4.4 7.4 3.8 4-1 5.2-3.4 5.3-10.2 0-5.8-.2-6.5-3.4-9.7-4.7-4.7-11.2-6.1-19.9-4.2-11.6 2.4-19.8 8.3-24.9 17.9-2 3.6-2.3 5.7-2.3 14.2 0 11.6.3 12.2 10.5 22.8 9.9 10.4 10 11.2 1.6 13.7-8.7 2.6-11.9 4.6-17.9 11-7 7.5-13 18.7-17.4 32-2.4 7.5-2.8 10-2.8 21.5 0 19.8 4 30 17 43.1 9.8 9.8 18.9 14.7 30.7 16.5 13.7 2 21.7-1.3 21.8-9 .1-4 2.7-10 5-11.3.8-.4 3.2-1.5 5.2-2.3 2.7-1.1 4.4-2.7 5.9-5.7 7.3-14.4-11.3-38.8-25.6-33.7-4.9 1.8-12.2 9.9-13.6 15.1-1.4 5.3-.6 8.1 4 13.7 6.1 7.3 6.4 10.9 1 13.6-3.7 1.9-14.6 1.9-19.2 0-4.1-1.7-10-7.2-12.1-11.3-2-3.9-4.6-17.1-4.6-23.4 0-11.1 4.6-23.4 11.1-29.9 4.5-4.5 14.8-9.8 21.9-11.2 8-1.6 27.9-2 32.9-.6 9.5 2.6 16.3 6.9 25.1 15.8 10.3 10.6 16.5 21.7 20.5 37.4 2 7.8 2 26.7-.1 34.9-5.3 20.8-23.8 42.6-44.8 52.7-12.8 6.1-23.6 8.5-39.6 8.5-25.4.2-43.5-5.6-56.9-18.1-6.5-5.9-16.1-19.5-16.1-22.6 0-.7-.4-1.7-.9-2.2-1.4-1.5-6.8-19.3-8-26.5-.7-3.6-1.8-10.3-2.7-15-3.1-17.6-2.8-70.3.5-85.4.5-2.2 1.5-6.8 2.1-10.1 3.3-16.7 14-41.4 21.9-50.9 1.6-1.9 16.7-14.6 31.4-26.5 4.2-3.4 8.4-7.5 9.2-9 .8-1.6 2.3-9.1 3.5-16.7 1.1-7.7 2.6-16.8 3.3-20.4l1.2-6.5 5.5.3c11 .6 56.6 11 62.2 14.2 1 .6 2.2 1 2.8 1 1.5 0 17.8 7.9 22.5 10.9 8.8 5.6 20.4 20.9 24.9 32.9 5.7 15.1 5.6 12.6 5.6 199.1 0 116.1-.3 171.9-1 173.2-.9 1.5-2.2 1.9-6.3 1.9-14.6.1-27.8 6.9-38.7 19.8-9.4 11.2-14.7 16.2-17.3 16.2-1.4 0-4.3-1.8-7.3-4.6-9.3-8.7-15.9-11.9-18.3-9-1.1 1.2-.8 2.2 1.5 5.3 1.5 2.1 3.3 4.2 3.9 4.8 3.6 3.4 9.5 12.1 9.5 14.1 0 1.4-1.8 3.9-4.8 6.8-7.5 7.1-13.6 20.7-16.2 36.6-.4 2.5-1.7 9.7-2.8 16-4.3 24.7-4.7 30.7-4.7 83.5 0 45.9-.2 51.7-1.8 58-2.9 11.1-.5 10-30.1 13.5-4.9.6-8.5.6-9.6 0-2.5-1.3-6.9-7.1-12.4-16.2-6.2-10.3-14-17.2-25.9-23.2-5.3-2.6-10.9-6-12.3-7.5-7.9-7.8-9.6-25.3-3.7-38.1 4.1-8.7 23-21 32.6-21 5.7 0 7.5 2 8.8 10 1.2 7.7 2 9.3 7.2 14.7 4.5 4.7 9.3 6.3 13.2 4.5 3.4-1.5 5.9-10.6 5.1-17.6-1.5-12-6.3-19.3-14-21.4-2.5-.6-6.2-2.6-8.1-4.5-3.1-2.8-3.6-4.1-4.5-10.5-.6-4.1-1.5-8.2-2-9.2-2.1-3.9-8.1-6.6-22-9.8-18.9-4.4-19.2-4.5-24.5-9.4-5.5-5-9.7-12.4-13.4-23.5-5.2-15.5-.7-23.7 15.9-28.9 11.8-3.7 20 .2 20 9.5 0 4.4 3.3 11.4 7.1 14.9 1.8 1.7 7.6 5.3 12.8 7.9l9.5 4.8h23.5l3.1-3.1c8.6-8.5 4.2-24.1-7.5-27.3-10.2-2.8-14-7.5-13.9-17.1.1-10.4 3.4-14.8 14.2-19.2 4.9-1.9 7.7-2.3 20.2-2.4 8-.1 15.1-.2 15.8-.3 1.7-.1 1.5-3.7-.9-13.8-3.6-14.9-1.3-26.7 7.1-37.1 6-7.4 11.4-10.1 20.3-10.2 3.7 0 6.7-.4 6.7-.9 0-1.2-9.3-5.8-15.5-7.6-2.7-.8-8.6-1.5-13-1.5-9.1.1-15.4 1.8-28.3 8.1-5.3 2.6-9.2 3.9-10.6 3.5-1.1-.3-7.4-4.3-13.9-9-12-8.6-21.3-13.7-29.4-16.1-4-1.2-5-1.2-7.5.1-1.5.8-2.8 1.9-2.8 2.5 0 .6 1.8 4.9 4 9.6 2.3 4.7 4 9.3 3.8 10.2-.2.9-1.6 2.2-3.1 2.9-2.4 1.2-4.4 1.1-13-.3-5.6-.9-12-2-14.2-2.5-2.2-.5-7.4-1.6-11.5-2.4-4.1-.8-10-2-13-2.6-3-.6-9.6-1.4-14.5-1.7-7.7-.5-9.3-.3-10.8 1.1-4.3 4.3-.9 11.8 10.5 22.9 7 6.8 10.7 9.5 16.6 12.3 17.8 8.3 20 9.5 23.5 12.9 2 2 3.7 4.4 3.7 5.4 0 3.8-9.7 23.9-21.3 44.4C44.9 663.1 44 665.9 44 679.6c0 9.2.4 12.5 2.5 18.9 2.7 8.3 9 18.9 15.4 25.8 4.8 5.2 9.1 13.1 9.1 16.7 0 2.6-4.7 12.9-7.3 15.9-2.7 3.1-6.5 12.7-7.6 19.2-4.9 28.9 4.7 61.3 24.2 81.6 7.4 7.8 13.3 11.5 21.7 13.7 9.8 2.7 18.2 6.3 22.2 9.7 5.1 4.1 8.8 12.3 8.8 19.2 0 5-3.6 18.8-6 22.9-.6 1-1 2.4-1 3.2 0 2.4-4.3 6.8-6 6.1-.8-.3-2.7-3.2-4.3-6.5-1.5-3.2-4.3-7.5-6.2-9.6-3.1-3.3-3.8-3.6-7.2-3-2.1.4-5.6 1.4-7.8 2.3-2.2.8-4.9 1.9-6 2.3-1.1.4-4 1.6-6.4 2.6-6.1 2.5-11.5 2.4-14.3-.3-1.7-1.7-2.3-3.9-2.9-11-.4-4.8-.8-8.9-.8-9-.1-.1-1.5-1-3.2-1.9-3.9-2-7.7-.7-10.2 3.5-3.9 6.7-4 26.6-.2 34.1 2 3.8 10.7 11.6 15.1 13.6 4.7 2 16.2 4.3 22.4 4.4 6.4.1 9 .9 9 3 0 3.6-11.2 10.7-27 17-3 1.2-6.4 2.6-7.5 3-5.4 2.2-11.9 3.2-16.3 2.6-14-2-13.8-2-15.6.5-2.6 3.7-1.7 16.3 1.6 22.7 2.7 5.2 15.9 7.6 41.3 7.6 26 0 37.7-2.2 45-8.6 3.8-3.4 4.4-4.5 5.5-10.5 1.6-8.5 2.2-9.8 6.1-11.7 7.4-3.7 14.3-.9 25 9.9 4 4.1 7.8 7.5 8.4 7.5.5 0 4.6-3.2 9-7 9-7.9 11.6-8.6 14-4 2.2 4.3 5.8 4 13.5-1.2 11.7-7.8 18.5-19.6 15.9-27.5-1.2-3.6-5.6-13.3-8.3-18.1-4.2-7.3-9.3-9.1-10.8-3.7-1.4 5.2.8 11.8 6.3 18 5.4 6.2 6 8.7 2.7 10.9-3.6 2.2-7.8 2.7-14.2 1.6-7.3-1.2-12.1-4.7-15.6-11.5-1.4-2.7-3.6-5.7-5-6.7-3.2-2.3-15.4-5.8-20.5-5.8-8.4 0-17.5-5-17.5-9.5s7.6-11.2 18.6-16.5c5.6-2.8 10.7-5 11.3-5 .5 0 4.6-1.2 9-2.6 7-2.2 9.4-2.5 17.8-2.2 8.4.3 10.7.8 16.3 3.5 10.2 4.8 18.4 11.3 33.5 26.7 15.6 15.7 25 23.2 37.6 29.9 4.6 2.5 10.4 5.6 12.9 6.9 8.7 4.6 15.9 9.8 19.1 13.8 1.7 2.1 5.1 4.8 7.5 6 4.7 2.2 18.8 6.5 26.9 8.2 23.9 5 39.4 7.4 56 8.8 13.1 1.1 16.9 1.1 30-.4 14.8-1.7 20.4-2.8 29.9-6 10.1-3.4 16.6-8.2 16.6-12.2 0-2.6 5.7-7.9 15-14 9.5-6.1 12.8-10.3 16.7-21.1 1.5-4 1.8-8.1 1.8-23.8l-.1-19-2.9-6c-2.4-4.8-4-6.5-7.9-8.8-2.7-1.6-6.7-4.3-8.7-6.1-2.1-1.8-7.2-5-11.4-7.1-11.8-5.9-24.2-6.1-37-.4-5.6 2.5-9.7 7.1-14.4 16.5-4.7 9.2-8.5 13.3-13.3 14.3-3.3.7-3.3.7-3.6 7.1-.2 5.7.2 7.3 3 12.8 4.4 8.4 9.5 14.6 14.3 17.4 3.4 2 5.2 2.3 12.2 2.1 12.6-.3 20.8-4.8 24.6-13.2 1.6-3.7 2-6.5 1.9-15.5-.1-6-.6-11.4-1-11.8-.8-.8-6.3 2.7-25.6 15.9-2.6 1.8-5.7 3.3-6.7 3.3-1.6 0-1.8-.6-1.3-4.8 2.1-18.4 3.9-23.7 10-29.1 10.6-9.3 30.6-9.1 43.6.4 17.4 12.7 18.3 37.4 2.3 61.5-10.2 15.3-25 24-41 24-8.2 0-14 1.9-14.8 5-.8 3.2-3.3 2.6-15.2-3.7-5.3-2.8-19.4-7.2-33.5-10.4-7-1.5-11.6-3.6-15.7-7.1-3.6-3-8.9-4.8-14.4-4.8-2.5 0-4.3-.8-6.2-2.7-2.7-3-7.5-12.5-8.7-17.7-.4-1.7-1.7-6.5-2.8-10.6-2.3-8.3-4.2-23.6-4.2-33.3 0-9.5-1.2-10.2-15.4-10.1-10.6.1-27 2.7-29 4.5-1 .9 3.1 7.6 5.3 8.4 1.6.6 4.6-1.2 8.9-5.5 1.8-1.7 4-3 4.9-2.8 2.6.5 8.5 13 16.7 35.3 3.1 8.3 3.6 17.9 1 18.9-2.5 1-10.9-8-15.2-16.3-2.1-4-4.2-7.1-4.8-7-1.2.5-.8 8.7.7 16.4 1.5 7.5 5.1 15.4 10.1 22 3.9 5.2 4.5 6.9 2.8 8-1.3.8-9.3-2.1-14.5-5.4-2.2-1.3-4.9-3-6-3.6-8.7-4.8-12.6-8.1-14.2-11.7-1.5-3.3-2.9-4.5-10.7-8.4-11.5-5.8-13.9-7.6-25.8-19.7-20.2-20.3-31.9-39.5-30.6-50.3l.3-2.9 297.2-.3 297.1-.2 3-3c2.8-2.8 3.8-5.3 10.3-26.5 2.7-9 5.5-18.5 9.1-31 5.7-20.4 6.7-23.7 7.4-26.5.4-1.4 1.1-3 1.6-3.6.8-1.1 9.4-2.7 21.3-3.9 5.4-.6 24.3-4.9 32-7.4 37.6-12 67-35.1 87.6-68.6 17.7-28.8 28.3-63.8 32.8-108.5 5.1-49.9 2.1-93.9-9.2-135-3.1-11.3-8.6-26.4-14.4-40-.8-1.9-4.2-8.8-7.4-15.3C956.2 345.6 908 292.2 857 260.3c-14-8.8-27.4-16-38.5-20.7-2.2-1-4.9-2.1-6-2.6-7.2-3.1-20.8-8.1-23.6-8.6-1.9-.4-3.8-1-4.4-1.4-1.4-1-24.3-6.5-33-7.9-26.1-4.2-28.2-4.4-52-4.2-13.2.1-25.8.3-28 .4-3.8.2-4 .1-3.7-2.5.1-1.5.9-3.9 1.7-5.5.8-1.5 1.5-3.2 1.5-3.7 0-1.3 11.5-24.7 15.1-30.7 1.8-3 3.7-6.3 4.3-7.4 1.9-3.2 8.9-14 9.5-14.5.3-.3 2.1-2.8 4-5.5 13.2-19.2 36.9-42.7 41.3-41 .9.4 4.1 4.4 7.2 8.9 7.5 11.2 15.6 18.6 23 21.1 7.1 2.4 10.3 5.9 11.1 12.3 1.7 12.5 7.6 21.3 19.2 28.8 4.9 3.2 5.7 3.4 14.2 3.4 10.1 0 14.3-1.6 16.2-6.2 1.7-4.1.4-7.1-4.7-11.3-7.6-6.3-9.3-13.7-5.3-23.7 3-7.7 5.6-16.2 7.3-25 1.8-8.9 2.1-20.1.5-19.6-.5.2-3.2 3.5-5.8 7.3-4.2 6.3-5.1 7-8.3 7.3-2 .2-5.1-.4-6.8-1.3-4.4-2.3-11.6-10-14.1-15.2-2-4.1-2.1-5.5-1.5-14.3 1.4-22.7 11-32.7 32.6-34.5 4.1-.3 17.4-.1 29.5.4 22.9 1.1 31.6 2.7 33.8 6.3 1.9 2.9-3.2 12.2-14 25.6-6.7 8.3-8.5 12.3-7.1 16.4 1.8 5.3 5.3 9.3 12.7 14.3 11.7 7.7 20.2 7.3 28.4-1.4 5.5-5.9 9.5-13.6 13.3-25.9 1.8-5.8 3.3-9.2 4.2-9.2 1.9 0 5.4 2.8 14.3 11.6 17.8 17.3 24.7 30.3 25.6 48.2 1.3 24.6-7.9 39.4-24.6 39.6-10.4.1-12.6-3.6-6.9-11.5 3.3-4.6 4-8.8 1.8-11.4-1.8-2.1-7.5-4.5-10.9-4.5-4.8 0-14.4 3-17.7 5.5-7 5.3-8.2 17.3-2.9 27 3.9 7 3.9 7 10.5 9.4 6.5 2.4 9 5.4 9 10.9 0 3-2.6 6.2-5.2 6.2-.8 0-6.2-2.4-11.9-5.4-5.7-2.9-14.9-7.6-20.3-10.5-14.2-7.3-16.4-7-28 3.7-5.5 5.1-8.5 7.1-11.3 7.7-2 .4-7.2 1.8-11.5 3.1-10.7 3.4-11.2 6.2-2.5 14.5 9.4 9.1 34.9 22.8 47.9 25.8 9.3 2.2 12.5 1.3 26.2-7.2 3.3-2 6.5-3.7 7.2-3.7 2 0 2.3 2.6.7 7.1-2.1 6.1-2 20.2.2 25.4 5.4 12.7 15.9 18.5 33.2 18.5 8.5 0 10-.3 15.5-3 8.4-4.2 14-8.5 23.4-18.2 8.2-8.4 13.9-15.9 16.3-21.3 2.4-5.4 4-14.7 2.9-16.8-1.2-2.4-2-1.5-4.3 4.7-4.3 11.8-31.3 31.4-40.1 29.2-1.5-.4-4-2-5.6-3.7-4.1-4-3.3-6.8 5.9-20.8 8.1-12.3 11.2-18.3 11.3-21.8 0-1.2-1.8-4.3-4-6.8-2.4-2.8-3.9-5.4-3.6-6.4.2-.9.8-3.2 1.2-5.1.3-1.9 1-4.1 1.4-5 15.4-30.8 19-39.7 19-46.9 0-8.5-3-23-6.7-32.1-9.3-22.9-28.2-42.8-53.2-56-3.5-1.9-7-4.5-7.9-5.8-1.4-2.1-1.4-2.5.5-4.3 1.4-1.5 4.1-2.2 10.6-2.9 12.6-1.3 16.1-4.4 16.1-14.3 0-8.3-4-12.5-15.7-16.8C932.9 3.5 928.9 3 922 3c-8.3.1-10.2.4-15 2.8zM772.9 52.2c1.2.7 2.3 1.8 2.5 2.4.8 2.1-5.4 10.2-10.7 14-5.8 4.1-31.7 24.8-35.8 28.5-1.4 1.3-5.6 5.1-9.4 8.4-19 16.5-38.5 38.4-52.4 58.8-9.4 13.6-16.9 28.5-22 43.7-1.8 5.2-3.8 10-4.4 10.7-1.5 1.4-10.7 2.9-10.7 1.6 0-.8 5.8-18.1 9.5-28.3 2.5-6.9 14.9-31.9 20.1-40.7 21.1-35.2 39.5-57.4 59.9-71.9 15.5-11.1 17.3-12.9 19.1-19.1 1.7-5.9 4.1-8.1 10.2-9.4 5.2-1.1 21.7-.2 24.1 1.3zm-360.5 8c6.2 1.9 12.1 8.3 13.6 14.9 1 4.7.9 6.7-.8 14.8-2.8 13.3-1.3 16.9 10.8 25.7 5.4 4 32 17.8 39 20.3 17.4 6.2 35.9 7.1 53.7 2.5 21.8-5.5 33-21.9 30.1-43.8-.8-6.1-.7-8.8.2-11.8 2.7-8 15.4-17.8 28.7-22.1 4.6-1.5 11.4-1.7 60.5-1.7 56.1 0 57.8.1 57.8 3.5 0 .6-1 2.2-2.2 3.6-1.9 2.1-13.8 15.1-27.4 29.9-15.5 16.8-36 49-44.7 70-5.7 13.7-10.2 26-11.7 31.5-.4 1.6-1.7 6.4-2.8 10.5-1.1 4.1-2.3 9.3-2.7 11.5-.7 4.3-3.9 8.5-6.4 8.5-1.4 0-7.2 1.8-12.6 4-37.9 15.1-60.9 28.6-86.5 50.5-36.9 31.7-60.2 67.2-71.5 109-5.4 20.1-8.1 53.2-5.5 68.1 2.4 13.6 5.9 25.8 10.2 35.4 7.4 16.4 10.4 21.8 14.2 25.5 5.9 5.6 9.1 10.3 10.9 15.5 1.3 4 1.3 4.9-.1 8.5-.8 2.2-3.1 6.5-5 9.5-6 9.5-10.8 19.3-12.1 24.7-1.4 5.6-.3 13.8 2.5 19.1 5.1 9.8-3.8 7.9-17.6-3.7-7.7-6.5-9.5-7.1-22.3-7.1-6.2 0-11.8-.4-12.5-.8-1-.7-1.2-35.9-.9-177.8.3-193 0-183.8 5.8-187 1.3-.7 5-1.3 8.3-1.4 9.7 0 14.9 4.4 18.1 15.5 2.1 7.5 4.7 11.8 8 13.3 5.9 2.7 8.8.4 10.1-7.8.8-5.7 2.8-8 6.9-8 6.9 0 10 6 11.5 22.3 1 10.7 3 13.7 9 13.7 7.7 0 13.1-7.4 15.6-21.2 1.9-10.6 3.3-12.8 8.1-12.8 5.5 0 9.6 3.3 15.9 12.8 1.9 2.9 4.7 5.8 6 6.4 4.8 2.2 16.5-2.7 19.4-8.2.8-1.5.6-3.1-1-6.6-3.5-7.6-1.3-12.1 7.3-15 4.2-1.4 7-1.5 16.6-.9 25 1.7 23.8 2.5 25.1-18.2 1.1-19.3 2.5-22.1 11.5-23.5 3.8-.6 5.8-14.6 3.3-23.1-.7-2.3-2.9-5.6-5-7.6-2.4-2.2-3.8-4.5-3.8-6 0-1.4 2.4-5.5 5.8-9.9 9.7-12.7 10.6-14.8 8-19.5-3.7-6.6-6.5-7.2-13-3.1-5.1 3.2-7.1 2.4-7.9-3.2-.7-5.1-4.4-10.7-11.1-16.9-6.6-6.1-10.6-9.5-11.3-9.5-1 0 2.6 6.2 10 17.5 4 6 9 14.6 11.1 19 3.7 7.6 3.9 8.5 3.9 17.2l-.1 9.2-7.7 15.3c-14.4 28.7-30.2 49.5-43.8 57.6-7.1 4.2-14.9 6.9-24.1 8.3-13.6 2.1-57.5-1.8-69.8-6.3-5.6-2.1-12.6-6.5-14.3-9.2-.9-1.3-2.1-5.5-2.7-9.2-.6-3.7-1.3-7.1-1.6-7.6-1.4-2.3 1.4-5 9.5-9.2 20.8-10.7 45.3-17.9 79.1-23.1 5.8-.8 13.2-2 16.5-2.5 3.3-.5 8.5-1.2 11.5-1.6 3-.3 6.3-1 7.3-1.6 1.8-.9 2.2-4.4.7-6.8-.9-1.5-3.4-1.5-144.6-2-2.4 0-17.7-29-18.8-35.6-.6-3.8-.3-7.1 2.5-23.6.7-4.3.9-8.1.5-8.5-.8-.8-1.4-.1-11.6 13.4-8 10.6-9 11-16 6.3-2.5-1.6-5.7-3-7.2-3-2.3 0-2.9.6-3.8 3.7-.5 2.1-1.2 6.7-1.5 10.3-.6 7.3-.5 7.6 11.8 26.9 3.1 5 5.7 9.3 5.7 9.6 0 .3-46.8.5-104 .5-59 0-104-.4-104-.9 0-1.5 2.9-3.3 16.6-10.2 17.1-8.6 25.3-14.1 33-22.1 8.6-8.8 10.6-13.4 12.4-27.1 1-8.3.8-9.6-3.7-18.3-2.9-5.5-2.6-7.9.9-9.4 3.7-1.5 187.2-1.3 192.2.2zm363.2 25.9c4.2 1.3 7.6 5.1 7.2 8.1-.3 2-.9 2.3-5.8 2.6-7.4.4-12.7-1.4-14.6-5.1-3.5-6.6 2.2-9 13.2-5.6zm-633.1 46c8.4 2.1 10 4.2 7.4 9.2-2.8 5.4-5 6.7-11.3 6.7-3.4 0-7.1.3-8.4.6-2.8.8-3.8 4.5-2.2 8.5 1.6 3.8.4 4.9-5.3 4.9-5.6 0-7.7-4-7.7-14.7 0-7.2.3-8.5 2.5-11.1 3.7-4.5 16-6.5 25-4.1zm-5.9 40c.6 1.1-6.3 15.9-11.9 25.4-7.3 12.3-16 24.8-21.9 31.5-14.9 17-19.9 26.2-28.8 53.3-8.9 26.7-12.6 50.1-10.9 67.2 1.9 18.7 5.6 36.3 13.9 66 2.6 9.6 3.6 18 2 19-4.4 2.7-12.4-14.8-22-48-8.4-29.1-9.3-36.5-8.7-66 .5-24.1 1-29.3 4.3-45.5 1.5-7.4 2.3-10 5.2-19 9.5-29.7 33.9-59.5 64.7-79.2 9.4-6 12.6-7.1 14.1-4.7zm611.9 72.4c80.4 7.9 136.8 35.8 179.8 88.8 4.7 5.7 16.7 23.1 16.7 24.1 0 .3 1.5 2.9 3.4 5.8 5.4 8.5 17.2 33.8 20.7 44.3 1.1 3.3 2.4 6.9 2.9 8 1.9 4.8 6 18.9 8.4 29 1.5 6 3.1 12.6 3.6 14.5 1.3 5.1 6.6 39.7 8 51.8 1.8 16 3 59.1 1.9 70-1.7 18.8-8.6 43.4-20.3 73-13.4 33.8-27.3 54.5-37.3 55.9l-4 .5-.6-17.8c-.3-9.9-.8-18.7-1.2-19.7-.8-2-2.4-2.3-2.9-.5-3.9 14.5-3.8 14.1-10 26.8-5.6 11.4-8.3 16.5-11.3 20.7-1.3 1.7-2.3 3.4-2.3 3.7 0 .8-12.5 18.3-14.3 20.1-2.8 2.7-6.6 4.3-12.7 5.3-3.6.6-11.1 1.9-16.8 2.8-11.6 1.9-13.3 1.5-11.4-3.3.9-2.3 6.7-25.4 16.2-64.8 5.1-20.8 8.1-35.8 7.8-38.3-.3-2.4-.7-2.7-3.8-2.5-4.4.2-6.1 2.2-9.5 11.6-1.5 3.9-3.2 7.6-3.6 8.2-.5.5-.9 1.5-.9 2.2 0 .7-1.1 3.6-2.4 6.5-1.3 2.9-3.6 8-5.1 11.3-5.4 12-15.1 30.7-18.5 35.5-.9 1.4-2 3.2-2.4 4-1.2 2.5-2.8 5.1-9.3 14.5-9.9 14.3-15.2 20.6-18.7 22-2.2.9-8.7 1.5-19.7 1.7-18.5.3-19.4.1-27.5-7.4-8-7.4-5.5-9.8 10.8-10.6 6-.3 11.1-.9 11.4-1.4.9-1.4-16-17.7-24.5-23.6-4-2.8-8.9-5.5-10.9-5.8-4.9-.9-9.4 1.7-13.4 7.9-2.8 4.4-3.2 6-3.6 13.6-.2 4.7-.9 9.2-1.5 10-1.6 1.9-11.1.9-17.3-1.9-16-7.3-43.2-29.8-53.7-44.6-4-5.5-5.4-11.4-3.9-15.5 2-5.2 11.1-4.2 15.9 1.7 5.9 7.3 7 8.2 12.3 9.3 3.9.8 6.9.8 11.4 0 6.8-1.2 9.1-2.7 10.1-6.7 1.3-5.4 3.1-7 8.9-7.7 6.2-.8 9.2-2.5 8.3-4.7-.7-1.9-5.1-2.8-14.3-2.8-7.9 0-11.3-1.1-13.2-4-.6-1-1.6-7-2.2-13.2-1.8-18.8-4-25.6-9.4-28.9-4.2-2.6-7-2.4-16.7 1.2-13.8 5.1-18 6.2-19.1 5.1-.7-.7-.4-3.2.9-7.9 1.1-3.7 3.2-11.3 4.8-16.8 1.5-5.5 3.6-12.4 4.7-15.2 7.6-20 30.8-34.2 55.7-34.3 9.6 0 12.4.7 23.9 6.2 18.8 9 34.1 31 30.8 44.2-1.7 6.8-10.4 12.5-19.3 12.6-7.3 0-8.2-1.9-4.7-9.7 1.8-4.1 1.8-8.8-.2-10.7-2.1-2.2-7.1-2.1-8.3.2-5.1 9.6 1.1 29.7 11.8 38 3.7 2.8 5 3.2 10.4 3.2 6.8 0 10.7 2.4 10.7 6.5 0 4.9 6.2 19 11.2 25.6 4.9 6.5 12.9 8.6 20.5 5.4 1.9-.8 9-6.9 15.7-13.4 12.3-12.1 15.7-14.2 19.5-12.1 2.5 1.3 2.7 5.1.7 12.8-1.7 6.1-1.2 8.2 1.6 8.2 4.9 0 16.1-15.9 20.8-29.5 4.7-13.8.5-21.5-11.7-21.5-11.2 0-26.3 8.8-26.3 15.2 0 8.2-13.8 21-22.7 21-5.2 0-6.8-1.1-8.3-5.7-1.3-4-.3-6.4 6.6-16.1 5.1-7.2 6.9-11.6 8.4-20.2 1.1-6.1 1-6.4-1.7-10.2-3-4.2-4.7-5-10.6-5-5.2 0-8.7-3.5-8.7-8.8 0-14.3-26.4-39-48.7-45.5-14-4.2-17.3-4.4-31.4-2.3-15.5 2.4-22.9 4.7-35.4 11.2-10.6 5.5-16.5 9.5-24.1 16.7-7.8 7.2-12.3 13.3-16.8 22.4-7.7 15.5-15.9 22.1-26.1 20.9-7-.8-8-1.2-9.3-4.2-1.5-3.1-5.1-3.1-11.7 0-12.1 5.6-20.7 21.8-17.5 33.1 2 7.2 9.9 13.2 18.8 14.1 5.8.6 9.5-1.2 10.2-4.9.3-1.4 1.3-3.6 2.2-4.7 2.2-2.5 8-2.7 9.9-.3 2 2.3 1.7 12.9-.5 23.8-3.6 17.3-.1 34.1 7.8 37.9 7.3 3.5 13.6.8 15.7-6.7 2.3-7.8 2-7.9 16.6 6.4 12.3 12 17.5 16.1 36.6 28.8 20.3 13.6 25.8 19.9 27 31.1.7 7.4 3.2 11.9 7.3 13.6 6.3 2.7 12.5 1.4 27-5.8 11.2-5.4 15.7-6.7 26.9-7.4 6.6-.5 10.8-.2 15.8 1 3.8.9 7.9 1.6 9.2 1.6 4.6 0 3.8 2.2-3.1 8.7-32.1 30.1-66.9 45.9-119.9 54.3-14.5 2.3-59.5 3.1-59.5 1 0-.4 2-2 4.4-3.4 5.9-3.4 8.9-7.3 8.1-10.4-.3-1.3-2.9-6-5.7-10.5-8.9-14.2-12.3-23.3-13.4-35.4-.6-7.1-.4-8.4 1-8.9 3.5-1.3 12.6 8.5 22 23.7 3.2 5.2 4 6 4.8 4.6 1.3-2.5-1.7-18.8-4.7-25-2.6-5.6-10.3-14-14.8-16.4-5.2-2.6-18.1-6.4-28.3-8.3-11.6-2.1-14.2-3.2-21-9.3-2.7-2.4-7.8-6.2-11.4-8.5-17.1-10.7-21-15-21-23.4 0-3.3.5-5 1.4-5.4 1.5-.6 7 1.8 9.8 4.4 1.2 1 2.9 1.3 5.5.9 3.1-.5 5.2 0 11.1 2.9 12.2 5.9 16.2 3.1 6.5-4.7-4.9-3.9-14.8-10.7-22.8-15.6-7.1-4.4-19.4-9.6-22.7-9.7-3.6-.1-4.4.5-10.6 7.2-7.5 8.1-12.3 10.7-22.3 12.1-6.8.9-15.3.1-25-2.4-3.1-.8-8.4-1.5-11.8-1.5-5.8 0-6.1.1-6.1 2.4 0 3.9 3.5 5.6 11.4 5.6 3.8 0 8.4.5 10.2 1.2 6 2.1 6.4 4 6.3 29.4-.1 24.8.9 31.4 5.8 42.1 4.4 9.5 14.5 18.8 23.3 21.3 2.4.7 3.2.6 3.6-.5 1.8-4.5-16.5-38.2-24.1-44.5-2.4-2-1.8-4 1.1-4 2.1 0 15.6 4.9 25.9 9.5 1.7.8 5.3 2.3 8 3.5 2.7 1.2 6.3 2.7 8 3.4 16.3 7 21.6 8 23.8 4.4 2.4-3.8-16.3-34.9-25.8-42.8-6.2-5.2-7.6-7.1-7.3-9.3.5-3.5 4.2-3.2 12.6.8 7.5 3.7 14.4 9.7 23.7 20.7 2.2 2.6 6.5 6.1 9.5 7.7 6.6 3.6 10 6.6 10 8.9-.1.9-1.2 3.5-2.5 5.7-5.8 9.6-5.7 9.3-4.4 14.8.6 2.9 2.5 7.7 4.2 10.7 4.8 8.7 13.6 22 14.5 22 .9 0 2.2-11.5 2.2-19.9 0-4.7 1.7-9.2 3.6-9.8 1.6-.5 7.1 8.4 9.8 15.9 3.1 8.5 4.4 14.2 5.1 22.4.9 10.1 2.6 18.2 4.1 19.5.8.6 1.4 1.5 1.4 2 0 1.1-134.8 1-141.5-.1-15.5-2.6-26.8-7.6-34.4-15.3-5.9-6.1-7.3-7.8-10.5-14.4-4.8-9.4-7.2-18.3-9.7-35.8-1.7-11.8-1.9-20.1-1.9-89.3V606l2.6-1c4-1.6 19.3-1.2 24.4.6 8.6 3 30.3 13.4 47.5 22.9 15.8 8.7 33.5 13.6 41.3 11.5 9.4-2.5 18.7-17.4 20.6-33.1.8-6.2-.3-10.3-3.3-11.8-3-1.6-9.4 1.3-13.6 6.2-3.1 3.6-3.5 4.7-3.5 10 0 9.1-4.4 14.5-15.4 19.1-6.9 2.9-11.6-1-16-13.2-3.8-10.7-3.4-16.5 1.7-27.2 3.2-6.7 12-18.1 17.4-22.6 10.4-8.7 19.2-12.1 35.3-13.4 13.5-1.1 16.5-2.5 15.6-7.3-.8-4.3-10.3-13.3-23.1-21.9-5.5-3.7-11.9-8.5-14.1-10.5-12.7-11.5-22.4-30.1-26.3-50.3-.6-3-1.6-7.8-2.1-10.5-.6-2.8-1.4-13.6-1.7-24.2-.6-20.5.8-35.6 4.7-51.3 1.1-4.1 2.2-8.6 2.5-10 .4-1.4 1-3.4 1.5-4.5.4-1.1 1.8-4.5 3-7.5 10.7-26.5 26.5-46.3 51.5-65 8.1-6 22.4-15 23.9-15 .4 0 2.3-1 4.4-2.3 4.5-2.8 25.5-11.7 27.7-11.7 1.2 0 1.5 1.7 1.5 10 0 9.4 2 24.8 4.1 31.5 7 22.7 14.3 38 27.7 58.5 10.4 15.8 18.6 25.2 28.5 32.3 2.3 1.7 7 5.9 10.5 9.4 6.9 7 7.6 9.6 4.2 14.8-4 5.8-6 11.7-6 17.2 0 5 2.1 16.2 4 20.8.4 1.1 1.5 4 2.5 6.5 3.3 8.4 7.4 16.8 8.5 17.5 2.8 1.7 3.3-1.4 2.1-13.2-.7-6.5-1.6-15-2-18.8-.4-3.9-.5-9.5-.2-12.5.6-5.1.8-5.5 3.3-5.8 1.7-.2 5.4 1.1 9.5 3.2 13.5 6.9 22.3 9.9 39.3 13.2 12.4 2.4 41.3 2.5 49.6.1 8.7-2.4 15-2.3 16.4.3 1.5 2.9.6 5.3-5.9 15-12.5 18.7-17.1 33-17.1 52.8 0 15.5 1.9 24.3 8.5 38.7 2.4 5.2 7 13 8.5 14.5.3.3 2.5 3.1 4.9 6.3 5.7 7.5 16 16.9 22.5 20.7 7 3.9 12.9 5.8 21.1 6.6 9.8.9 11.5 2.6 11.5 11.6 0 3.7.3 6.8.8 6.8.4 0 1.5-1.4 2.4-3 2-3.5 5.9-4 11.1-1.4 4.7 2.4 14.8 9.8 17.7 12.9 1.4 1.5 3.8 3.3 5.3 4.1 1.5.8 5.9 5.6 9.6 10.7 9.4 12.7 9.1 12.5 14.7 9.3 6.5-3.6 14.5-10.3 18.3-15.3 4.5-5.9 7.4-14.7 6.8-20.5-.7-5.3-1.5-7-7.7-15.2-27.3-36.2-34.7-61.4-22.1-74.6 6-6.2 19.8-9.1 23.6-5 1.8 1.9 1.8 2.3.2 7.4-3.1 9.8-1.6 17.8 4.8 25.4 3.3 4 6.4 3.9 8.3-.2 4.3-8.9 1.4-30.4-6.3-47.1-3.8-8.4-5.3-9.8-12.4-11.9-6.8-2-9.2-2-18.9 0-12 2.4-22.6 6.8-27.9 11.7-2.7 2.4-3 6.9-.6 8.8 7.4 6.2 10 52.4 3.5 62.6-4.7 7.5-30.2-4.5-46.8-21.9-12.9-13.6-17-28.8-16-60.3.5-18.4 1.5-23.1 6.6-32 7.6-13.3 34.6-32.5 45.7-32.5 5.1 0 7.4 2.1 11 9.7 1.3 2.9 2.7 5.3 2.9 5.3 4.4 0 16.1-15 19-24.3.8-2.9 2.2-10.1 2.9-16.1 2.3-17.4-.5-30.6-7.4-35.5-1.6-1.2-4-2.1-5.4-2.1-3.1 0-4.2 3.1-5.1 13.7-1.1 13.6-7.8 21.6-26.2 31.4-10.6 5.6-16 9.6-18.2 13.4-2.3 3.8-7.3 5.5-16.3 5.5-5.4 0-6.7.4-9.1 2.6-2.7 2.6-3 2.7-14.5 2.5-6.5-.1-14.5-.6-17.8-1.1-3.3-.5-10.3-1.2-15.5-1.5-24.7-1.6-30.9-2.3-38.5-4.3-6.6-1.7-11.5-4.6-11.5-6.7 0-2.5-5.8-7.2-11.7-9.5-3.2-1.3-7.1-2.9-8.8-3.5-1.6-.7-6.4-2.5-10.5-3.9-13.6-4.8-14.9-6.2-10.8-10.7 3.4-3.8 8.5-7.3 16.7-11.4 8.8-4.5 12.1-5.4 22.6-6.5 7.2-.8 8.2-1.1 10.5-3.9 1.4-1.7 3.1-3.1 3.9-3.1.8 0 4 2 7.2 4.5 15 11.8 27.8 15.9 47 15.3 17.1-.6 20.9-3 20.9-13.2 0-7-1.3-7.2-12.6-2.5-5.5 2.2-10.4 4.5-11.1 5.1-.6.5-2.9.8-5 .6-2.8-.2-3.9-.8-4.2-2.3-.6-3.4-4.5-5.6-17.6-10-9.7-3.3-19.7-5.2-35-6.6-22.3-2.1-33 1.2-41 12.7-2.5 3.5-4.9 5.9-6 5.9-1.2 0-2.9-2-4.9-5.6-1.7-3.2-5.8-8.3-9.2-11.5-7.9-7.6-8.3-8.8-12.9-41.9-.8-6.1-2-15.3-2.6-20.5-1.1-10.2-1.5-51.2-.5-52.9 2.9-4.6 60.5-7.5 90.1-4.6zM638 253.7c.7 14.6 3.4 49.4 4.4 56.8 1.4 10.7.9 14.8-1.7 15.3-3.5.7-8.2-9.5-13.3-28.3-5-18.9-5.4-21-5.4-31.1v-10.3l4.3-1.1c2.3-.6 4.7-1.3 5.2-1.5 1.9-.7 6.5-.5 6.5.2zM545 276c1.4 2.5.1 4.8-3.9 7.5-4.8 3.1-24 23.1-30.7 32-12.2 16.2-22.6 34.9-27.4 49.5-1.2 3.6-2.5 7.4-3 8.5-4.8 11.9-9 40-9 61.1 0 15.9.9 22.3 4.8 34.9 1.3 4.3 8.2 19.4 10.7 23.5 1.2 1.9 4.4 8 7.1 13.5 11.3 22.7 11.2 26.5-.7 26.5-6.5 0-10.1-2.2-16.6-9.8-6.6-7.6-11.9-16.3-19.2-31.3-10.6-21.7-13.9-36.4-12.7-55.9 1.8-28.7 9.8-53.1 29.6-89.5 15.7-29.1 40-59 56.4-69.7 5.3-3.4 13-3.9 14.6-.8zM157.6 582.1c4.2 1.3 6 3.5 7.5 9.2 1.2 4.3 1.1 4.9-.7 7.4-2.8 3.8-7.3 4.7-17.9 3.5-10.6-1.1-16.1-3.4-19.2-8.1-4.8-7.2-1.9-11.9 8.1-13.2 6-.8 17.8-.2 22.2 1.2zm104.1 31.8c1.3 2.1.3 7.2-2.4 12.5-2.5 4.7-10.5 12.8-14.8 14.7-10.9 5-15.6-.7-9-11.1 8.1-12.7 22.7-21.7 26.2-16.1zm19.7 4.7c.3.9.6 38.3.6 83.2 0 87.1-.4 94.9-4.9 105.5-5 11.7-16.5 24.5-25.9 28.8-3.4 1.6-6.6 2.9-7 2.9-.4 0-2 .7-3.5 1.5-4.4 2.3-17.8 6.5-21.7 6.7-4.9.4-4.9-1.7-.1-11.5 3.8-7.7 7.6-12.9 21.4-29.3 8.4-10 12.9-19.9 13.5-29.5.3-4.3 0-8.5-.6-9.5-.9-1.6-1.5-.8-4.6 5.6-5.3 11.3-10.1 19.4-18.4 31-12.3 17.3-17.3 21.4-18.8 15.4-1-4 .3-37.2 2.1-51.4 2.2-18.5 3.3-27.8 5.1-45 1.9-17.9 2.4-19.6 7.2-24.6 11.3-11.7 22.1-9.6 27.5 5.4 3.4 9.4 5.7 22.3 5.7 31.9 0 8.3.8 10.4 3 7.8 1.7-2 1.8-23.5.2-30-9.9-41-10.3-43.5-7.7-57.6 3.2-17.1 9.1-27.9 19.4-35.5 5.2-3.8 6.6-4.1 7.5-1.8zm-53.2 35.9c1.5 5.5-.7 15.2-6.9 31-2.9 7.5-5.2 14.1-6.3 18-3 11-4.8 19-5.9 25.5-4.5 27.7-8.6 41.3-13.7 44.6-3.9 2.6-6 .5-7.5-7.7-2.4-13.6 2.2-55.1 7.8-70.9 1.9-5.2 14.8-27.2 20.5-35 7.1-9.5 10.5-11.1 12-5.5zM103.6 834c9.9 4.5 16 13.5 21 30.8 2.2 8 1.2 9.4-4.2 6-2.2-1.4-7.9-4.6-12.9-7.3-12.6-6.7-15.4-8.4-20.3-12.3-4.3-3.4-8.2-9.6-8.2-12.9 0-2.9 2.8-6.1 5.8-6.6 4.8-.8 14.6.4 18.8 2.3zm80.3 37.6c4 2.4 8.1 11.1 8.1 17.3 0 2.7-.8 4.6-2.7 6.7-5.8 6.1-13.9 8.4-30.4 8.4-11.7 0-12.7-.1-14.6-2.3-2.4-2.5-2.6-3.3-2.4-9.5.1-5 3.7-9.2 8-9.2 3.3 0 7.1-2.5 12.5-8.3l4.3-4.7h7.3c4.8 0 8.1.5 9.9 1.6z"/><path d="M249 97.7c-9.3 1.5-18 10.9-18 19.3 0 3.9 2.2 5.4 7.1 4.7 2.3-.3 5.2-.1 6.5.5 2.3 1.1 2.6 1.6 3.9 7.3 1 4.6 2.3 5.5 7.6 5.5 7.8 0 27.6-5.9 30.5-9.1 2-2.3 1.4-3.4-7-12.6-9.7-10.6-22.2-17-30.6-15.6zM798.5 292.9c-9.4 5.2-14.1 9.3-14.8 13.1-1.7 8.3-6.2 8.2-27.7-.6-20-8.1-31.3-11-39-10.1-13.7 1.6-16.5 9.7-3.3 9.7 12.9 0 20.2 4.8 28.6 18.7 4.9 8.2 10.2 21.7 9.3 23.9-1.1 2.9 2.3 3.6 15.1 3.2 14.2-.5 16.6-1.3 23-7 2.4-2.1 4.6-3.8 5.1-3.8.8 0 15.1 6.6 19.4 9 1.9 1.1.7-1.3-6.6-13.4-6-10-7.1-20.2-2.6-25.9 3.3-4.2 7.9-5.7 17.7-5.7 15.6 0 20.9 4.6 23.1 20.1.6 4.3 1.9 9.3 2.7 11 2.4 4.6 10.9 12.9 13.2 12.9 8.9 0 3.1-17.6-11.4-34.7-6.4-7.5-16.9-15.7-25.9-20.3-10.8-5.4-16.1-5.5-25.9-.1zM564.5 350.4c-7.3 2.3-17 8.1-22 13.1-5.7 5.7-11.5 16.4-14.1 26.1-2.3 8.5-2.6 35.2-.6 42.4 3.3 11.6 11.3 23.1 19 27.3 2.1 1.2 7.2 2.2 14 2.9 8.9.8 11.3 1.4 14 3.5 1.8 1.4 3.6 3.1 3.9 3.9.8 2.1-1.5 7-6.1 12.8-3.7 4.6-4.1 5.8-4.4 11.8-.5 7.7.7 12 4.9 17.8 4.4 6 8.2 8 15.7 8 5.3 0 6.7.4 8.7 2.5 1.4 1.3 2.5 3.3 2.5 4.5 0 3.2 2.6 3.4 6.4.5 2.8-2.1 4.9-2.8 11.1-3.2 8.6-.7 13.4-3.1 14.6-7.3 1-3.6 1.1-15 .1-15-.5 0-3.3 2.3-6.3 5-5.2 4.8-14.1 10-17.3 10-3.1 0-6.4-2.3-8-5.6-2-4.3-2.3-22.2-.3-25.7 5.2-9.4 12.8-14.7 20.8-14.7 4.4 0 6.1.8 13.9 6.6 12.9 9.7 22.7 22.9 26.7 35.9.8 2.9 1 3 7.3 2.9 3.6 0 9.4-.6 13-1.2 3.6-.6 16.6-1.6 28.9-2.2 22.7-1.1 27.1-1.9 31.4-5.8 2.9-2.6 6.5-8.6 8.3-13.9 1.5-4.4 1.5-4.8-.2-6.1-2.4-1.7-14.9-1.2-18.1.9-1.9 1.1-2.3 2.3-2.3 6 0 5-2.1 7.9-5.6 7.9-2.9 0-11.9-2.8-18.1-5.6-6.6-3.1-9.7-2.9-10.1.6-.5 4.3-2.3 6.7-6.3 8.5-12 5.4-27.2-5.2-36.6-25.5-1.9-4.1-3.8-8.2-4.2-9-.7-1.3-5.3-16.1-8.3-26.5-3.3-11.6-11.4-23.6-17.5-26.1-5.8-2.5-16.8-1.2-23.7 2.8-3.2 1.7-15.1 5.1-22.3 6.3-9.9 1.6-21.3-3.6-25.5-11.7-2.9-5.7-3.2-21.8-.4-29.4 4.5-12.4 9.6-19.3 17-22.8 7-3.3 11.5-3.4 15.4-.1 3.8 3.2 4.6 7.5 2.6 14.5-2.6 8.9-2.9 13.8-.9 16.1 2.3 2.5 7.1 2.4 11.3-.1 3.4-2.1 4.7-4.5 6.4-12 2.6-11.4-10-27.5-24.8-31.8-5.1-1.5-8.7-1.4-13.9.2zM876 364c-1.9.4-5.6 1.2-8.2 1.8-11 2.2-15.3 9.6-13.3 22.7 1.2 8.3 7.6 11.7 15.9 8.5 5.8-2.2 11.7-14.9 13-28.3.7-6.4.5-6.5-7.4-4.7zM32.3 139.1c-2.4 3.2-3.6 9.4-3 17.2.3 4.3.9 8.3 1.5 8.9.5.5 3.2-1.9 6.8-6.2 8.8-10.5 10.9-15.1 8.5-18.9-1.3-2-12.3-2.8-13.8-1zM29.6 626.5c-1.3 1.4-1.3 1.9.4 4.8 1.1 1.7 4.2 5.7 6.9 8.7 6.2 7 7.5 6.2 6.9-4-.3-6.1-.8-7.5-2.7-9.1-2.8-2.3-9.3-2.5-11.5-.4zM978.9 756.4c-14.9 5.2-30 16.1-38.3 27.6-3 4.2-4.6 8.3-6.1 15.2-.9 4.8-8.1 8.4-20.8 10.7-12.1 2.1-20.4 7.9-25 17-1.8 3.8-2.3 6.7-2.5 16-.8 24.4 6.4 32.1 29.7 32.1 9.1 0 15.6-1.6 17.3-4.3.4-.7.8-3.6.8-6.6 0-6.9-2.2-9.1-9.1-9.1-4.1 0-5.4.5-9.4 4-2.5 2.2-5.5 4-6.7 4-2.8 0-7.4-2.9-8.9-5.6-1.5-3 .7-7.9 6.4-14.1 11.4-12.3 25.8-17.4 35.5-12.4 9.3 4.7 23.1 24.1 29.7 41.6 1.9 5.1 3.4 13.5 3.5 19 0 8.1-5.4 18.9-16.4 32.6-12.6 15.8-23.3 25.4-34.3 30.8-11.4 5.7-22.2 4.2-47.3-6.4-12.9-5.5-24-8.5-31.1-8.5-3.8 0-7.1-.5-7.4-1.1-1.2-1.9 3.9-7.6 15.1-17.1 6-5 11.7-10.1 12.8-11.2 4.5-5.1 8.5-10.4 10-13.4 2.1-4.2 1.8-10.6-.6-11-2.8-.5-9.7 4.5-10.4 7.6-1.8 8.5-7.5 11-19 8.1-4.5-1.2-6.3-2.6-14.5-11.6-3-3.2-4.7-4.2-9.4-5.1-7.5-1.5-11-1.5-16.6.2-7.6 2.3-14.6 6.3-19.8 11.4-6.4 6.2-9.5 11.4-10.9 18.5-2.2 11.1 1.8 19.9 9.7 21.3 6.7 1.2 8 4.3 3.4 8.6-4.7 4.2-8.5 5.1-21.6 5-13.5-.1-20.1-1.7-35.1-8.7-14.5-6.7-23.2-8.4-28.4-5.6-3 1.6-7.2 1.4-7.2-.3 0-3.4 7.6-8.3 34.2-21.8 24.9-12.8 33.7-22.2 22.4-24.3-4.3-.8-9.7 1.7-15.1 6.9-5.2 5.2-11.6 7.1-20.7 6.3-6.5-.6-10.4-2.6-11.8-6.1-1.4-3.7-5.6-4.8-31.3-8.1-8.7-1.1-13.8-1.3-19.3-.6-12 1.5-14.1 4-11 12.9 2.3 6.5-.5 7-8.3 1.7-2.8-1.9-5.4-3.5-5.9-3.5-1.1 0-6.3-5.6-10.1-11.1-4.3-6.1-6.8-7.3-15.2-7.3-6.3-.1-7.3.2-9 2.3-1.7 2.1-1.9 3.4-1.4 8.5.8 7.6-1.2 11-7.4 12-9.4 1.5-25.7 14.1-30.2 23.3-2 4.2-2.1 5-1 9.2.7 2.5 2.3 7 3.7 9.9 3 6.3 4.1 16.4 2.5 21.5-3.4 10.1-18 13-22.5 4.4-1.9-3.6-2.1-3.7-7.6-3.7-3.1 0-6.1.5-6.8 1.2-1.7 1.7-1.5 8.3.3 11.8 2 3.9 8.9 9.4 16.1 12.7 5.3 2.5 7 2.8 16.4 2.8 8.3 0 11.2-.4 14-1.9 1.9-1 9.8-8.2 17.5-16.1 14-14.2 22.2-21.5 24.3-21.5 2.8 0 3.7 4.8 4 22.7.3 13 .7 18.3 1.5 18.3 1.3 0 11.2-4.9 21.3-10.6 7.2-3.9 12.4-9.4 12.4-13 0-3.7 1.8-6.4 4.3-6.4 1.2 0 6.7 1.4 12.2 3.1 13.3 4.2 17.5 4.8 27.5 4.2 11.3-.6 20.1-2.5 40-9 27.4-8.8 47.1-12.3 51.5-9 1.9 1.5 1.9 1.7-2.3 12.4-2.4 5.9-4.8 11.7-5.4 12.7-.5 1.1-1.2 4.4-1.5 7.5-.4 4.6-.2 6.1 1.6 8.2 5.2 6.6 22.5 10.9 43.6 10.9 14.9 0 51.7 2.6 56.5 4 5 1.4 9 1.3 9-.4 0-2.3-15.3-10.6-31-16.7-13.6-5.4-18.5-8.1-18.5-10.4 0-1.9.9-2 22.5-2.6 23.6-.7 37.7-2.7 47-6.7 1.4-.6 6.3-2.2 11-3.6 27.1-7.8 27.1-7.8 29 18.1 1 13.8 1.7 15.6 7.7 17.2 4.2 1.2 17.8.2 21.8-1.5 4.7-2.1 5.9-3.4 9.8-10.4 1.9-3.6 4.2-6.9 5-7.4 1.1-.7 4.9 1.6 14.7 8.7 7.3 5.3 13.9 9.7 14.6 9.7 1.1 0 1.4-2.3 1.4-10.4 0-5.8-.4-10.7-.9-11-.4-.3-1.1-2.4-1.5-4.6-.7-4.8-4.3-10.9-8.1-13.8-5.1-4-13.5-6.4-25-7.3-6.1-.4-12.3-1.3-13.9-1.9-2.9-1-2.9-1.1-2.3-7.3.4-3.4 2.1-10.7 3.8-16.2 1.7-5.5 3.5-11.4 4-13 2.3-8.3 4-13.8 6.8-22 4.5-13.7 8.6-27.9 11.4-39.5 5.3-21.8 4.8-24.7-5-34.1-11.8-11.4-15.2-15.3-17.9-20.8-3.1-6.4-3.6-14.9-1.1-19.6 3.9-7.5 15.4-14.5 23.7-14.5 1.6 0 5.1 1.6 8 3.5 5.9 4 10.7 4.6 13.4 1.6 1.5-1.7 1.6-2.4.5-6.1-3.9-13-23.9-19.7-41-13.6zM629.6 903c3.1 1.2 5.3 3.7 5.4 6.1 0 3 5.4 6.7 12.9 8.8 8.1 2.2 12.4 4.6 11.8 6.4-.2.7-1.9 2.2-3.8 3.4-8.7 5.6-11.9 9.8-11.9 15.7 0 1.3-.8 3.4-1.9 4.7l-1.9 2.3-3.5-1.8c-4.4-2.4-7.8-6.7-12.8-16.2-4.1-8-6.9-17-6.9-22.5 0-6.4 5.7-9.5 12.6-6.9zM249 903c0 1.6 17.1 19 20.3 20.7 7.6 3.9 4.4-4.4-4.6-12.1-9.6-8.1-15.7-11.4-15.7-8.6zM269.1 983.3c-3.9 4.8 17.4 14.1 26.5 11.5 2.6-.7 3.4-1.4 3.4-3.2 0-4.8-7.2-7.9-21.1-9-5.9-.5-7.9-.3-8.8.7z"/></svg>