
    <svg width="320.0" height="240.0"
         xmlns="http://www.w3.org/2000/svg">
        <style>
            .bt-label {
                font: 300 16.0px sans-serif;;
                text-align: center;
                dominant-baseline: middle;
                text-anchor: middle;
            }
            .bt-node {
                fill: lightgray;
                stroke-width: 1.5;
            }

        </style>
        <g stroke="#111">
    <line x1="157.0" x2="77.0" y1="48.0" y2="96.0"/><line x1="157.0" x2="237.0" y1="48.0" y2="96.0"/><line x1="77.0" x2="37.0" y1="96.0" y2="144.0"/><line x1="237.0" x2="197.0" y1="96.0" y2="144.0"/><line x1="237.0" x2="277.0" y1="96.0" y2="144.0"/><line x1="37.0" x2="57.0" y1="144.0" y2="192.0"/><line x1="197.0" x2="177.0" y1="144.0" y2="192.0"/><line x1="277.0" x2="257.0" y1="144.0" y2="192.0"/>
            <circle class="bt-node" cx="157.0" cy="48.0" r="16.0"/>
            <text class="bt-label" x="157.0" y="48.0">3</text>
            <circle class="bt-node" cx="77.0" cy="96.0" r="16.0"/>
            <text class="bt-label" x="77.0" y="96.0">2</text>
            <circle class="bt-node" cx="237.0" cy="96.0" r="16.0"/>
            <text class="bt-label" x="237.0" y="96.0">9</text>
            <circle class="bt-node" cx="37.0" cy="144.0" r="16.0"/>
            <text class="bt-label" x="37.0" y="144.0">0</text>
            <circle class="bt-node" cx="197.0" cy="144.0" r="16.0"/>
            <text class="bt-label" x="197.0" y="144.0">8</text>
            <circle class="bt-node" cx="277.0" cy="144.0" r="16.0"/>
            <text class="bt-label" x="277.0" y="144.0">13</text>
            <circle class="bt-node" cx="57.0" cy="192.0" r="16.0"/>
            <text class="bt-label" x="57.0" y="192.0">1</text>
            <circle class="bt-node" cx="177.0" cy="192.0" r="16.0"/>
            <text class="bt-label" x="177.0" y="192.0">6</text>
            <circle class="bt-node" cx="257.0" cy="192.0" r="16.0"/>
            <text class="bt-label" x="257.0" y="192.0">10</text></g></svg>