<?xml version="1.0" encoding="UTF-8" standalone="no"?>
<!DOCTYPE svg PUBLIC "-//W3C//DTD SVG 1.1//EN"
 "http://www.w3.org/Graphics/SVG/1.1/DTD/svg11.dtd">
<!-- Generated by graphviz version 2.40.1 (20161225.0304)
 -->
<!-- Title: %0 Pages: 1 -->
<svg width="638pt" height="264pt"
 viewBox="0.00 0.00 638.00 264.00" xmlns="http://www.w3.org/2000/svg" xmlns:xlink="http://www.w3.org/1999/xlink">
<g id="graph0" class="graph" transform="scale(1 1) rotate(0) translate(4 260)">
<title>%0</title>
<polygon fill="#ffffff" stroke="transparent" points="-4,4 -4,-260 634,-260 634,4 -4,4"/>
<!-- 140364689978608 -->
<g id="node1" class="node">
<title>140364689978608</title>
<path fill="#d3d3d3" stroke="#d3d3d3" d="M296,-219.5C296,-219.5 334,-219.5 334,-219.5 340,-219.5 346,-225.5 346,-231.5 346,-231.5 346,-243.5 346,-243.5 346,-249.5 340,-255.5 334,-255.5 334,-255.5 296,-255.5 296,-255.5 290,-255.5 284,-249.5 284,-243.5 284,-243.5 284,-231.5 284,-231.5 284,-225.5 290,-219.5 296,-219.5"/>
<text text-anchor="middle" x="293.75" y="-233.3" font-family="Times,serif" font-size="14.00" fill="#000000"> </text>
<polyline fill="none" stroke="#d3d3d3" points="303.5,-219.5 303.5,-255.5 "/>
<text text-anchor="middle" x="315" y="-233.3" font-family="Times,serif" font-size="14.00" fill="#000000">8</text>
<polyline fill="none" stroke="#d3d3d3" points="326.5,-219.5 326.5,-255.5 "/>
<text text-anchor="middle" x="336.25" y="-233.3" font-family="Times,serif" font-size="14.00" fill="#000000"> </text>
</g>
<!-- 140364689973520 -->
<g id="node2" class="node">
<title>140364689973520</title>
<path fill="#d3d3d3" stroke="#d3d3d3" d="M191.5,-146.5C191.5,-146.5 236.5,-146.5 236.5,-146.5 242.5,-146.5 248.5,-152.5 248.5,-158.5 248.5,-158.5 248.5,-170.5 248.5,-170.5 248.5,-176.5 242.5,-182.5 236.5,-182.5 236.5,-182.5 191.5,-182.5 191.5,-182.5 185.5,-182.5 179.5,-176.5 179.5,-170.5 179.5,-170.5 179.5,-158.5 179.5,-158.5 179.5,-152.5 185.5,-146.5 191.5,-146.5"/>
<text text-anchor="middle" x="189.25" y="-160.3" font-family="Times,serif" font-size="14.00" fill="#000000"> </text>
<polyline fill="none" stroke="#d3d3d3" points="199,-146.5 199,-182.5 "/>
<text text-anchor="middle" x="214" y="-160.3" font-family="Times,serif" font-size="14.00" fill="#000000">10</text>
<polyline fill="none" stroke="#d3d3d3" points="229,-146.5 229,-182.5 "/>
<text text-anchor="middle" x="238.75" y="-160.3" font-family="Times,serif" font-size="14.00" fill="#000000"> </text>
</g>
<!-- 140364689978608&#45;&gt;140364689973520 -->
<g id="edge1" class="edge">
<title>140364689978608:l&#45;&gt;140364689973520:v</title>
<path fill="none" stroke="#000000" d="M294,-219.5C294,-184.4575 229.9851,-213.848 216.482,-192.3968"/>
<polygon fill="#000000" stroke="#000000" points="219.8275,-191.3482 214,-182.5 213.0377,-193.051 219.8275,-191.3482"/>
</g>
<!-- 140364689966272 -->
<g id="node3" class="node">
<title>140364689966272</title>
<path fill="#d3d3d3" stroke="#d3d3d3" d="M401,-146.5C401,-146.5 439,-146.5 439,-146.5 445,-146.5 451,-152.5 451,-158.5 451,-158.5 451,-170.5 451,-170.5 451,-176.5 445,-182.5 439,-182.5 439,-182.5 401,-182.5 401,-182.5 395,-182.5 389,-176.5 389,-170.5 389,-170.5 389,-158.5 389,-158.5 389,-152.5 395,-146.5 401,-146.5"/>
<text text-anchor="middle" x="398.75" y="-160.3" font-family="Times,serif" font-size="14.00" fill="#000000"> </text>
<polyline fill="none" stroke="#d3d3d3" points="408.5,-146.5 408.5,-182.5 "/>
<text text-anchor="middle" x="420" y="-160.3" font-family="Times,serif" font-size="14.00" fill="#000000">9</text>
<polyline fill="none" stroke="#d3d3d3" points="431.5,-146.5 431.5,-182.5 "/>
<text text-anchor="middle" x="441.25" y="-160.3" font-family="Times,serif" font-size="14.00" fill="#000000"> </text>
</g>
<!-- 140364689978608&#45;&gt;140364689966272 -->
<g id="edge2" class="edge">
<title>140364689978608:r&#45;&gt;140364689966272:v</title>
<path fill="none" stroke="#000000" d="M336,-219.5C336,-182.8486 403.804,-215.1181 417.5766,-192.4663"/>
<polygon fill="#000000" stroke="#000000" points="421.0381,-193.0438 420,-182.5 414.2363,-191.3899 421.0381,-193.0438"/>
</g>
<!-- 140364686130480 -->
<g id="node4" class="node">
<title>140364686130480</title>
<path fill="#d3d3d3" stroke="#d3d3d3" d="M67.5,-73.5C67.5,-73.5 112.5,-73.5 112.5,-73.5 118.5,-73.5 124.5,-79.5 124.5,-85.5 124.5,-85.5 124.5,-97.5 124.5,-97.5 124.5,-103.5 118.5,-109.5 112.5,-109.5 112.5,-109.5 67.5,-109.5 67.5,-109.5 61.5,-109.5 55.5,-103.5 55.5,-97.5 55.5,-97.5 55.5,-85.5 55.5,-85.5 55.5,-79.5 61.5,-73.5 67.5,-73.5"/>
<text text-anchor="middle" x="65.25" y="-87.3" font-family="Times,serif" font-size="14.00" fill="#000000"> </text>
<polyline fill="none" stroke="#d3d3d3" points="75,-73.5 75,-109.5 "/>
<text text-anchor="middle" x="90" y="-87.3" font-family="Times,serif" font-size="14.00" fill="#000000">12</text>
<polyline fill="none" stroke="#d3d3d3" points="105,-73.5 105,-109.5 "/>
<text text-anchor="middle" x="114.75" y="-87.3" font-family="Times,serif" font-size="14.00" fill="#000000"> </text>
</g>
<!-- 140364689973520&#45;&gt;140364686130480 -->
<g id="edge3" class="edge">
<title>140364689973520:l&#45;&gt;140364686130480:v</title>
<path fill="none" stroke="#000000" d="M189,-146.5C189,-103.5642 106.2845,-147.4526 92.0678,-119.4396"/>
<polygon fill="#000000" stroke="#000000" points="95.4634,-118.5775 90,-109.5 88.6101,-120.0033 95.4634,-118.5775"/>
</g>
<!-- 140364686123424 -->
<g id="node5" class="node">
<title>140364686123424</title>
<path fill="#d3d3d3" stroke="#d3d3d3" d="M216.5,-73.5C216.5,-73.5 261.5,-73.5 261.5,-73.5 267.5,-73.5 273.5,-79.5 273.5,-85.5 273.5,-85.5 273.5,-97.5 273.5,-97.5 273.5,-103.5 267.5,-109.5 261.5,-109.5 261.5,-109.5 216.5,-109.5 216.5,-109.5 210.5,-109.5 204.5,-103.5 204.5,-97.5 204.5,-97.5 204.5,-85.5 204.5,-85.5 204.5,-79.5 210.5,-73.5 216.5,-73.5"/>
<text text-anchor="middle" x="214.25" y="-87.3" font-family="Times,serif" font-size="14.00" fill="#000000"> </text>
<polyline fill="none" stroke="#d3d3d3" points="224,-73.5 224,-109.5 "/>
<text text-anchor="middle" x="239" y="-87.3" font-family="Times,serif" font-size="14.00" fill="#000000">14</text>
<polyline fill="none" stroke="#d3d3d3" points="254,-73.5 254,-109.5 "/>
<text text-anchor="middle" x="263.75" y="-87.3" font-family="Times,serif" font-size="14.00" fill="#000000"> </text>
</g>
<!-- 140364689973520&#45;&gt;140364686123424 -->
<g id="edge4" class="edge">
<title>140364689973520:r&#45;&gt;140364686123424:v</title>
<path fill="none" stroke="#000000" d="M239,-146.5C239,-134.0382 239,-128.6592 239,-119.6281"/>
<polygon fill="#000000" stroke="#000000" points="242.5001,-119.5 239,-109.5 235.5001,-119.5 242.5001,-119.5"/>
</g>
<!-- 140364686123376 -->
<g id="node6" class="node">
<title>140364686123376</title>
<path fill="#d3d3d3" stroke="#d3d3d3" d="M380,-73.5C380,-73.5 418,-73.5 418,-73.5 424,-73.5 430,-79.5 430,-85.5 430,-85.5 430,-97.5 430,-97.5 430,-103.5 424,-109.5 418,-109.5 418,-109.5 380,-109.5 380,-109.5 374,-109.5 368,-103.5 368,-97.5 368,-97.5 368,-85.5 368,-85.5 368,-79.5 374,-73.5 380,-73.5"/>
<text text-anchor="middle" x="377.75" y="-87.3" font-family="Times,serif" font-size="14.00" fill="#000000"> </text>
<polyline fill="none" stroke="#d3d3d3" points="387.5,-73.5 387.5,-109.5 "/>
<text text-anchor="middle" x="399" y="-87.3" font-family="Times,serif" font-size="14.00" fill="#000000">2</text>
<polyline fill="none" stroke="#d3d3d3" points="410.5,-73.5 410.5,-109.5 "/>
<text text-anchor="middle" x="420.25" y="-87.3" font-family="Times,serif" font-size="14.00" fill="#000000"> </text>
</g>
<!-- 140364689966272&#45;&gt;140364686123376 -->
<g id="edge5" class="edge">
<title>140364689966272:l&#45;&gt;140364686123376:v</title>
<path fill="none" stroke="#000000" d="M399,-146.5C399,-134.0382 399,-128.6592 399,-119.6281"/>
<polygon fill="#000000" stroke="#000000" points="402.5001,-119.5 399,-109.5 395.5001,-119.5 402.5001,-119.5"/>
</g>
<!-- 140364686124240 -->
<g id="node7" class="node">
<title>140364686124240</title>
<path fill="#d3d3d3" stroke="#d3d3d3" d="M521.5,-73.5C521.5,-73.5 566.5,-73.5 566.5,-73.5 572.5,-73.5 578.5,-79.5 578.5,-85.5 578.5,-85.5 578.5,-97.5 578.5,-97.5 578.5,-103.5 572.5,-109.5 566.5,-109.5 566.5,-109.5 521.5,-109.5 521.5,-109.5 515.5,-109.5 509.5,-103.5 509.5,-97.5 509.5,-97.5 509.5,-85.5 509.5,-85.5 509.5,-79.5 515.5,-73.5 521.5,-73.5"/>
<text text-anchor="middle" x="519.25" y="-87.3" font-family="Times,serif" font-size="14.00" fill="#000000"> </text>
<polyline fill="none" stroke="#d3d3d3" points="529,-73.5 529,-109.5 "/>
<text text-anchor="middle" x="544" y="-87.3" font-family="Times,serif" font-size="14.00" fill="#000000">11</text>
<polyline fill="none" stroke="#d3d3d3" points="559,-73.5 559,-109.5 "/>
<text text-anchor="middle" x="568.75" y="-87.3" font-family="Times,serif" font-size="14.00" fill="#000000"> </text>
</g>
<!-- 140364689966272&#45;&gt;140364686124240 -->
<g id="edge6" class="edge">
<title>140364689966272:r&#45;&gt;140364686124240:v</title>
<path fill="none" stroke="#000000" d="M441,-146.5C441,-101.8483 527.7947,-148.9845 542.0344,-119.3918"/>
<polygon fill="#000000" stroke="#000000" points="545.4838,-119.9904 544,-109.5 538.6181,-118.6261 545.4838,-119.9904"/>
</g>
<!-- 140364686130144 -->
<g id="node8" class="node">
<title>140364686130144</title>
<path fill="#d3d3d3" stroke="#d3d3d3" d="M12,-.5C12,-.5 50,-.5 50,-.5 56,-.5 62,-6.5 62,-12.5 62,-12.5 62,-24.5 62,-24.5 62,-30.5 56,-36.5 50,-36.5 50,-36.5 12,-36.5 12,-36.5 6,-36.5 0,-30.5 0,-24.5 0,-24.5 0,-12.5 0,-12.5 0,-6.5 6,-.5 12,-.5"/>
<text text-anchor="middle" x="9.75" y="-14.3" font-family="Times,serif" font-size="14.00" fill="#000000"> </text>
<polyline fill="none" stroke="#d3d3d3" points="19.5,-.5 19.5,-36.5 "/>
<text text-anchor="middle" x="31" y="-14.3" font-family="Times,serif" font-size="14.00" fill="#000000">5</text>
<polyline fill="none" stroke="#d3d3d3" points="42.5,-.5 42.5,-36.5 "/>
<text text-anchor="middle" x="52.25" y="-14.3" font-family="Times,serif" font-size="14.00" fill="#000000"> </text>
</g>
<!-- 140364686130480&#45;&gt;140364686130144 -->
<g id="edge7" class="edge">
<title>140364686130480:l&#45;&gt;140364686130144:v</title>
<path fill="none" stroke="#000000" d="M65,-73.5C65,-55.3544 42.5547,-57.0129 34.1377,-46.2939"/>
<polygon fill="#000000" stroke="#000000" points="37.3842,-44.9553 31,-36.5 30.7179,-47.0911 37.3842,-44.9553"/>
</g>
<!-- 140364686114976 -->
<g id="node9" class="node">
<title>140364686114976</title>
<path fill="#d3d3d3" stroke="#d3d3d3" d="M92.5,-.5C92.5,-.5 137.5,-.5 137.5,-.5 143.5,-.5 149.5,-6.5 149.5,-12.5 149.5,-12.5 149.5,-24.5 149.5,-24.5 149.5,-30.5 143.5,-36.5 137.5,-36.5 137.5,-36.5 92.5,-36.5 92.5,-36.5 86.5,-36.5 80.5,-30.5 80.5,-24.5 80.5,-24.5 80.5,-12.5 80.5,-12.5 80.5,-6.5 86.5,-.5 92.5,-.5"/>
<text text-anchor="middle" x="90.25" y="-14.3" font-family="Times,serif" font-size="14.00" fill="#000000"> </text>
<polyline fill="none" stroke="#d3d3d3" points="100,-.5 100,-36.5 "/>
<text text-anchor="middle" x="115" y="-14.3" font-family="Times,serif" font-size="14.00" fill="#000000">13</text>
<polyline fill="none" stroke="#d3d3d3" points="130,-.5 130,-36.5 "/>
<text text-anchor="middle" x="139.75" y="-14.3" font-family="Times,serif" font-size="14.00" fill="#000000"> </text>
</g>
<!-- 140364686130480&#45;&gt;140364686114976 -->
<g id="edge8" class="edge">
<title>140364686130480:r&#45;&gt;140364686114976:v</title>
<path fill="none" stroke="#000000" d="M115,-73.5C115,-61.0382 115,-55.6592 115,-46.6281"/>
<polygon fill="#000000" stroke="#000000" points="118.5001,-46.5 115,-36.5 111.5001,-46.5 118.5001,-46.5"/>
</g>
<!-- 140364686123952 -->
<g id="node10" class="node">
<title>140364686123952</title>
<path fill="#d3d3d3" stroke="#d3d3d3" d="M180,-.5C180,-.5 218,-.5 218,-.5 224,-.5 230,-6.5 230,-12.5 230,-12.5 230,-24.5 230,-24.5 230,-30.5 224,-36.5 218,-36.5 218,-36.5 180,-36.5 180,-36.5 174,-36.5 168,-30.5 168,-24.5 168,-24.5 168,-12.5 168,-12.5 168,-6.5 174,-.5 180,-.5"/>
<text text-anchor="middle" x="177.75" y="-14.3" font-family="Times,serif" font-size="14.00" fill="#000000"> </text>
<polyline fill="none" stroke="#d3d3d3" points="187.5,-.5 187.5,-36.5 "/>
<text text-anchor="middle" x="199" y="-14.3" font-family="Times,serif" font-size="14.00" fill="#000000">7</text>
<polyline fill="none" stroke="#d3d3d3" points="210.5,-.5 210.5,-36.5 "/>
<text text-anchor="middle" x="220.25" y="-14.3" font-family="Times,serif" font-size="14.00" fill="#000000"> </text>
</g>
<!-- 140364686123424&#45;&gt;140364686123952 -->
<g id="edge9" class="edge">
<title>140364686123424:l&#45;&gt;140364686123952:v</title>
<path fill="none" stroke="#000000" d="M214,-73.5C214,-59.7758 205.0269,-55.7624 200.961,-46.4384"/>
<polygon fill="#000000" stroke="#000000" points="204.3697,-45.6333 199,-36.5 197.5021,-46.9884 204.3697,-45.6333"/>
</g>
<!-- 140364686989856 -->
<g id="node11" class="node">
<title>140364686989856</title>
<path fill="#d3d3d3" stroke="#d3d3d3" d="M260,-.5C260,-.5 298,-.5 298,-.5 304,-.5 310,-6.5 310,-12.5 310,-12.5 310,-24.5 310,-24.5 310,-30.5 304,-36.5 298,-36.5 298,-36.5 260,-36.5 260,-36.5 254,-36.5 248,-30.5 248,-24.5 248,-24.5 248,-12.5 248,-12.5 248,-6.5 254,-.5 260,-.5"/>
<text text-anchor="middle" x="257.75" y="-14.3" font-family="Times,serif" font-size="14.00" fill="#000000"> </text>
<polyline fill="none" stroke="#d3d3d3" points="267.5,-.5 267.5,-36.5 "/>
<text text-anchor="middle" x="279" y="-14.3" font-family="Times,serif" font-size="14.00" fill="#000000">1</text>
<polyline fill="none" stroke="#d3d3d3" points="290.5,-.5 290.5,-36.5 "/>
<text text-anchor="middle" x="300.25" y="-14.3" font-family="Times,serif" font-size="14.00" fill="#000000"> </text>
</g>
<!-- 140364686123424&#45;&gt;140364686989856 -->
<g id="edge10" class="edge">
<title>140364686123424:r&#45;&gt;140364686989856:v</title>
<path fill="none" stroke="#000000" d="M264,-73.5C264,-59.7758 272.9731,-55.7624 277.039,-46.4384"/>
<polygon fill="#000000" stroke="#000000" points="280.4979,-46.9884 279,-36.5 273.6303,-45.6333 280.4979,-46.9884"/>
</g>
<!-- 140364686998160 -->
<g id="node12" class="node">
<title>140364686998160</title>
<path fill="#d3d3d3" stroke="#d3d3d3" d="M340,-.5C340,-.5 378,-.5 378,-.5 384,-.5 390,-6.5 390,-12.5 390,-12.5 390,-24.5 390,-24.5 390,-30.5 384,-36.5 378,-36.5 378,-36.5 340,-36.5 340,-36.5 334,-36.5 328,-30.5 328,-24.5 328,-24.5 328,-12.5 328,-12.5 328,-6.5 334,-.5 340,-.5"/>
<text text-anchor="middle" x="337.75" y="-14.3" font-family="Times,serif" font-size="14.00" fill="#000000"> </text>
<polyline fill="none" stroke="#d3d3d3" points="347.5,-.5 347.5,-36.5 "/>
<text text-anchor="middle" x="359" y="-14.3" font-family="Times,serif" font-size="14.00" fill="#000000">0</text>
<polyline fill="none" stroke="#d3d3d3" points="370.5,-.5 370.5,-36.5 "/>
<text text-anchor="middle" x="380.25" y="-14.3" font-family="Times,serif" font-size="14.00" fill="#000000"> </text>
</g>
<!-- 140364686123376&#45;&gt;140364686998160 -->
<g id="edge11" class="edge">
<title>140364686123376:l&#45;&gt;140364686998160:v</title>
<path fill="none" stroke="#000000" d="M378,-73.5C378,-59.0579 366.4033,-55.8815 361.3298,-46.3681"/>
<polygon fill="#000000" stroke="#000000" points="364.7042,-45.4282 359,-36.5 357.8915,-47.0367 364.7042,-45.4282"/>
</g>
<!-- 140364686995376 -->
<g id="node13" class="node">
<title>140364686995376</title>
<path fill="#d3d3d3" stroke="#d3d3d3" d="M420,-.5C420,-.5 458,-.5 458,-.5 464,-.5 470,-6.5 470,-12.5 470,-12.5 470,-24.5 470,-24.5 470,-30.5 464,-36.5 458,-36.5 458,-36.5 420,-36.5 420,-36.5 414,-36.5 408,-30.5 408,-24.5 408,-24.5 408,-12.5 408,-12.5 408,-6.5 414,-.5 420,-.5"/>
<text text-anchor="middle" x="417.75" y="-14.3" font-family="Times,serif" font-size="14.00" fill="#000000"> </text>
<polyline fill="none" stroke="#d3d3d3" points="427.5,-.5 427.5,-36.5 "/>
<text text-anchor="middle" x="439" y="-14.3" font-family="Times,serif" font-size="14.00" fill="#000000">4</text>
<polyline fill="none" stroke="#d3d3d3" points="450.5,-.5 450.5,-36.5 "/>
<text text-anchor="middle" x="460.25" y="-14.3" font-family="Times,serif" font-size="14.00" fill="#000000"> </text>
</g>
<!-- 140364686123376&#45;&gt;140364686995376 -->
<g id="edge12" class="edge">
<title>140364686123376:r&#45;&gt;140364686995376:v</title>
<path fill="none" stroke="#000000" d="M420,-73.5C420,-59.0579 431.5967,-55.8815 436.6702,-46.3681"/>
<polygon fill="#000000" stroke="#000000" points="440.1085,-47.0367 439,-36.5 433.2958,-45.4282 440.1085,-47.0367"/>
</g>
<!-- 140364686994704 -->
<g id="node14" class="node">
<title>140364686994704</title>
<path fill="#d3d3d3" stroke="#d3d3d3" d="M500,-.5C500,-.5 538,-.5 538,-.5 544,-.5 550,-6.5 550,-12.5 550,-12.5 550,-24.5 550,-24.5 550,-30.5 544,-36.5 538,-36.5 538,-36.5 500,-36.5 500,-36.5 494,-36.5 488,-30.5 488,-24.5 488,-24.5 488,-12.5 488,-12.5 488,-6.5 494,-.5 500,-.5"/>
<text text-anchor="middle" x="497.75" y="-14.3" font-family="Times,serif" font-size="14.00" fill="#000000"> </text>
<polyline fill="none" stroke="#d3d3d3" points="507.5,-.5 507.5,-36.5 "/>
<text text-anchor="middle" x="519" y="-14.3" font-family="Times,serif" font-size="14.00" fill="#000000">6</text>
<polyline fill="none" stroke="#d3d3d3" points="530.5,-.5 530.5,-36.5 "/>
<text text-anchor="middle" x="540.25" y="-14.3" font-family="Times,serif" font-size="14.00" fill="#000000"> </text>
</g>
<!-- 140364686124240&#45;&gt;140364686994704 -->
<g id="edge13" class="edge">
<title>140364686124240:l&#45;&gt;140364686994704:v</title>
<path fill="none" stroke="#000000" d="M519,-73.5C519,-61.0382 519,-55.6592 519,-46.6281"/>
<polygon fill="#000000" stroke="#000000" points="522.5001,-46.5 519,-36.5 515.5001,-46.5 522.5001,-46.5"/>
</g>
<!-- 140364686989136 -->
<g id="node15" class="node">
<title>140364686989136</title>
<path fill="#d3d3d3" stroke="#d3d3d3" d="M580,-.5C580,-.5 618,-.5 618,-.5 624,-.5 630,-6.5 630,-12.5 630,-12.5 630,-24.5 630,-24.5 630,-30.5 624,-36.5 618,-36.5 618,-36.5 580,-36.5 580,-36.5 574,-36.5 568,-30.5 568,-24.5 568,-24.5 568,-12.5 568,-12.5 568,-6.5 574,-.5 580,-.5"/>
<text text-anchor="middle" x="577.75" y="-14.3" font-family="Times,serif" font-size="14.00" fill="#000000"> </text>
<polyline fill="none" stroke="#d3d3d3" points="587.5,-.5 587.5,-36.5 "/>
<text text-anchor="middle" x="599" y="-14.3" font-family="Times,serif" font-size="14.00" fill="#000000">3</text>
<polyline fill="none" stroke="#d3d3d3" points="610.5,-.5 610.5,-36.5 "/>
<text text-anchor="middle" x="620.25" y="-14.3" font-family="Times,serif" font-size="14.00" fill="#000000"> </text>
</g>
<!-- 140364686124240&#45;&gt;140364686989136 -->
<g id="edge14" class="edge">
<title>140364686124240:r&#45;&gt;140364686989136:v</title>
<path fill="none" stroke="#000000" d="M569,-73.5C569,-56.4642 588.4257,-56.5956 596.0138,-46.2657"/>
<polygon fill="#000000" stroke="#000000" points="599.4228,-47.0864 599,-36.5 592.7287,-45.0394 599.4228,-47.0864"/>
</g>
</g>
</svg>