<?xml version="1.0" encoding="utf-8" standalone="no"?>
<!DOCTYPE svg PUBLIC "-//W3C//DTD SVG 1.1//EN"
  "http://www.w3.org/Graphics/SVG/1.1/DTD/svg11.dtd">
<!-- Created with matplotlib (https://matplotlib.org/) -->
<svg height="482.266125pt" version="1.1" viewBox="0 0 690.163125 482.266125" width="690.163125pt" xmlns="http://www.w3.org/2000/svg" xmlns:xlink="http://www.w3.org/1999/xlink">
 <defs>
  <style type="text/css">
*{stroke-linecap:butt;stroke-linejoin:round;}
  </style>
 </defs>
 <g id="figure_1">
  <g id="patch_1">
   <path d="M 0 482.266125 
L 690.163125 482.266125 
L 690.163125 0 
L 0 0 
z
" style="fill:none;"/>
  </g>
  <g id="axes_1">
   <g id="patch_2">
    <path d="M 30.103125 458.388 
L 682.963125 458.388 
L 682.963125 7.2 
L 30.103125 7.2 
z
" style="fill:#ffffff;"/>
   </g>
   <g id="PathCollection_1">
    <defs>
     <path d="M 0 3 
C 0.795609 3 1.55874 2.683901 2.12132 2.12132 
C 2.683901 1.55874 3 0.795609 3 0 
C 3 -0.795609 2.683901 -1.55874 2.12132 -2.12132 
C 1.55874 -2.683901 0.795609 -3 0 -3 
C -0.795609 -3 -1.55874 -2.683901 -2.12132 -2.12132 
C -2.683901 -1.55874 -3 -0.795609 -3 0 
C -3 0.795609 -2.683901 1.55874 -2.12132 2.12132 
C -1.55874 2.683901 -0.795609 3 0 3 
z
" id="m90d344250a" style="stroke:#008000;stroke-opacity:0.5;"/>
    </defs>
    <g clip-path="url(#p6f0214797f)">
     <use style="fill:#008000;fill-opacity:0.5;stroke:#008000;stroke-opacity:0.5;" x="60.337251" xlink:href="#m90d344250a" y="197.122705"/>
     <use style="fill:#008000;fill-opacity:0.5;stroke:#008000;stroke-opacity:0.5;" x="67.804756" xlink:href="#m90d344250a" y="183.604123"/>
     <use style="fill:#008000;fill-opacity:0.5;stroke:#008000;stroke-opacity:0.5;" x="76.182933" xlink:href="#m90d344250a" y="169.000108"/>
     <use style="fill:#008000;fill-opacity:0.5;stroke:#008000;stroke-opacity:0.5;" x="86.018184" xlink:href="#m90d344250a" y="153.50801"/>
     <use style="fill:#008000;fill-opacity:0.5;stroke:#008000;stroke-opacity:0.5;" x="96.67304" xlink:href="#m90d344250a" y="137.423858"/>
     <use style="fill:#008000;fill-opacity:0.5;stroke:#008000;stroke-opacity:0.5;" x="108.056432" xlink:href="#m90d344250a" y="121.438382"/>
     <use style="fill:#008000;fill-opacity:0.5;stroke:#008000;stroke-opacity:0.5;" x="120.441563" xlink:href="#m90d344250a" y="106.04496"/>
     <use style="fill:#008000;fill-opacity:0.5;stroke:#008000;stroke-opacity:0.5;" x="133.008829" xlink:href="#m90d344250a" y="91.835647"/>
     <use style="fill:#008000;fill-opacity:0.5;stroke:#008000;stroke-opacity:0.5;" x="145.667161" xlink:href="#m90d344250a" y="79.205148"/>
     <use style="fill:#008000;fill-opacity:0.5;stroke:#008000;stroke-opacity:0.5;" x="158.416561" xlink:href="#m90d344250a" y="67.561405"/>
     <use style="fill:#008000;fill-opacity:0.5;stroke:#008000;stroke-opacity:0.5;" x="171.165961" xlink:href="#m90d344250a" y="57.496476"/>
     <use style="fill:#008000;fill-opacity:0.5;stroke:#008000;stroke-opacity:0.5;" x="184.006427" xlink:href="#m90d344250a" y="48.911683"/>
     <use style="fill:#008000;fill-opacity:0.5;stroke:#008000;stroke-opacity:0.5;" x="196.755827" xlink:href="#m90d344250a" y="42.103054"/>
     <use style="fill:#008000;fill-opacity:0.5;stroke:#008000;stroke-opacity:0.5;" x="209.232025" xlink:href="#m90d344250a" y="36.57721"/>
     <use style="fill:#008000;fill-opacity:0.5;stroke:#008000;stroke-opacity:0.5;" x="221.890358" xlink:href="#m90d344250a" y="32.630179"/>
     <use style="fill:#008000;fill-opacity:0.5;stroke:#008000;stroke-opacity:0.5;" x="234.457623" xlink:href="#m90d344250a" y="29.867257"/>
     <use style="fill:#008000;fill-opacity:0.5;stroke:#008000;stroke-opacity:0.5;" x="246.933822" xlink:href="#m90d344250a" y="28.584472"/>
     <use style="fill:#008000;fill-opacity:0.5;stroke:#008000;stroke-opacity:0.5;" x="259.227885" xlink:href="#m90d344250a" y="28.979175"/>
     <use style="fill:#008000;fill-opacity:0.5;stroke:#008000;stroke-opacity:0.5;" x="271.704084" xlink:href="#m90d344250a" y="30.459312"/>
     <use style="fill:#008000;fill-opacity:0.5;stroke:#008000;stroke-opacity:0.5;" x="284.180282" xlink:href="#m90d344250a" y="33.912964"/>
     <use style="fill:#008000;fill-opacity:0.5;stroke:#008000;stroke-opacity:0.5;" x="296.565413" xlink:href="#m90d344250a" y="38.748077"/>
     <use style="fill:#008000;fill-opacity:0.5;stroke:#008000;stroke-opacity:0.5;" x="309.132678" xlink:href="#m90d344250a" y="45.063327"/>
     <use style="fill:#008000;fill-opacity:0.5;stroke:#008000;stroke-opacity:0.5;" x="321.699944" xlink:href="#m90d344250a" y="52.562687"/>
     <use style="fill:#008000;fill-opacity:0.5;stroke:#008000;stroke-opacity:0.5;" x="334.631478" xlink:href="#m90d344250a" y="61.739534"/>
     <use style="fill:#008000;fill-opacity:0.5;stroke:#008000;stroke-opacity:0.5;" x="347.380877" xlink:href="#m90d344250a" y="72.297843"/>
     <use style="fill:#008000;fill-opacity:0.5;stroke:#008000;stroke-opacity:0.5;" x="360.221344" xlink:href="#m90d344250a" y="84.336288"/>
     <use style="fill:#008000;fill-opacity:0.5;stroke:#008000;stroke-opacity:0.5;" x="373.243945" xlink:href="#m90d344250a" y="97.756194"/>
     <use style="fill:#008000;fill-opacity:0.5;stroke:#008000;stroke-opacity:0.5;" x="386.084412" xlink:href="#m90d344250a" y="112.853589"/>
     <use style="fill:#008000;fill-opacity:0.5;stroke:#008000;stroke-opacity:0.5;" x="398.742745" xlink:href="#m90d344250a" y="129.332444"/>
     <use style="fill:#008000;fill-opacity:0.5;stroke:#008000;stroke-opacity:0.5;" x="411.492144" xlink:href="#m90d344250a" y="147.390112"/>
     <use style="fill:#008000;fill-opacity:0.5;stroke:#008000;stroke-opacity:0.5;" x="424.514745" xlink:href="#m90d344250a" y="167.223944"/>
     <use style="fill:#008000;fill-opacity:0.5;stroke:#008000;stroke-opacity:0.5;" x="437.173078" xlink:href="#m90d344250a" y="188.340561"/>
     <use style="fill:#008000;fill-opacity:0.5;stroke:#008000;stroke-opacity:0.5;" x="450.104612" xlink:href="#m90d344250a" y="210.739963"/>
     <use style="fill:#008000;fill-opacity:0.5;stroke:#008000;stroke-opacity:0.5;" x="462.58081" xlink:href="#m90d344250a" y="234.520826"/>
     <use style="fill:#008000;fill-opacity:0.5;stroke:#008000;stroke-opacity:0.5;" x="475.421277" xlink:href="#m90d344250a" y="259.781826"/>
     <use style="fill:#008000;fill-opacity:0.5;stroke:#008000;stroke-opacity:0.5;" x="488.261744" xlink:href="#m90d344250a" y="286.424287"/>
     <use style="fill:#008000;fill-opacity:0.5;stroke:#008000;stroke-opacity:0.5;" x="500.829009" xlink:href="#m90d344250a" y="314.744236"/>
     <use style="fill:#008000;fill-opacity:0.5;stroke:#008000;stroke-opacity:0.5;" x="513.760543" xlink:href="#m90d344250a" y="344.34697"/>
     <use style="fill:#008000;fill-opacity:0.5;stroke:#008000;stroke-opacity:0.5;" x="526.236741" xlink:href="#m90d344250a" y="373.061622"/>
     <use style="fill:#008000;fill-opacity:0.5;stroke:#008000;stroke-opacity:0.5;" x="537.620134" xlink:href="#m90d344250a" y="396.053079"/>
     <use style="fill:#008000;fill-opacity:0.5;stroke:#008000;stroke-opacity:0.5;" x="548.183922" xlink:href="#m90d344250a" y="413.913395"/>
     <use style="fill:#008000;fill-opacity:0.5;stroke:#008000;stroke-opacity:0.5;" x="558.019173" xlink:href="#m90d344250a" y="426.543895"/>
     <use style="fill:#008000;fill-opacity:0.5;stroke:#008000;stroke-opacity:0.5;" x="566.579484" xlink:href="#m90d344250a" y="434.437958"/>
     <use style="fill:#008000;fill-opacity:0.5;stroke:#008000;stroke-opacity:0.5;" x="574.502326" xlink:href="#m90d344250a" y="437.003528"/>
     <use style="fill:#008000;fill-opacity:0.5;stroke:#008000;stroke-opacity:0.5;" x="581.150227" xlink:href="#m90d344250a" y="434.733985"/>
     <use style="fill:#008000;fill-opacity:0.5;stroke:#008000;stroke-opacity:0.5;" x="586.887457" xlink:href="#m90d344250a" y="427.333301"/>
     <use style="fill:#008000;fill-opacity:0.5;stroke:#008000;stroke-opacity:0.5;" x="591.987217" xlink:href="#m90d344250a" y="414.50545"/>
     <use style="fill:#008000;fill-opacity:0.5;stroke:#008000;stroke-opacity:0.5;" x="595.812036" xlink:href="#m90d344250a" y="396.645134"/>
     <use style="fill:#008000;fill-opacity:0.5;stroke:#008000;stroke-opacity:0.5;" x="599.181521" xlink:href="#m90d344250a" y="376.712626"/>
     <use style="fill:#008000;fill-opacity:0.5;stroke:#008000;stroke-opacity:0.5;" x="602.368871" xlink:href="#m90d344250a" y="358.556282"/>
     <use style="fill:#008000;fill-opacity:0.5;stroke:#008000;stroke-opacity:0.5;" x="605.647288" xlink:href="#m90d344250a" y="341.880075"/>
     <use style="fill:#008000;fill-opacity:0.5;stroke:#008000;stroke-opacity:0.5;" x="608.834638" xlink:href="#m90d344250a" y="326.782681"/>
     <use style="fill:#008000;fill-opacity:0.5;stroke:#008000;stroke-opacity:0.5;" x="612.113055" xlink:href="#m90d344250a" y="312.869396"/>
     <use style="fill:#008000;fill-opacity:0.5;stroke:#008000;stroke-opacity:0.5;" x="615.209337" xlink:href="#m90d344250a" y="300.830951"/>
     <use style="fill:#008000;fill-opacity:0.5;stroke:#008000;stroke-opacity:0.5;" x="618.396687" xlink:href="#m90d344250a" y="290.075291"/>
     <use style="fill:#008000;fill-opacity:0.5;stroke:#008000;stroke-opacity:0.5;" x="621.857239" xlink:href="#m90d344250a" y="281.095795"/>
     <use style="fill:#008000;fill-opacity:0.5;stroke:#008000;stroke-opacity:0.5;" x="624.862454" xlink:href="#m90d344250a" y="273.793787"/>
     <use style="fill:#008000;fill-opacity:0.5;stroke:#008000;stroke-opacity:0.5;" x="628.414073" xlink:href="#m90d344250a" y="267.87324"/>
     <use style="fill:#008000;fill-opacity:0.5;stroke:#008000;stroke-opacity:0.5;" x="631.69249" xlink:href="#m90d344250a" y="263.334154"/>
     <use style="fill:#008000;fill-opacity:0.5;stroke:#008000;stroke-opacity:0.5;" x="635.426243" xlink:href="#m90d344250a" y="260.472556"/>
     <use style="fill:#008000;fill-opacity:0.5;stroke:#008000;stroke-opacity:0.5;" x="638.70466" xlink:href="#m90d344250a" y="258.99242"/>
     <use style="fill:#008000;fill-opacity:0.5;stroke:#008000;stroke-opacity:0.5;" x="642.074144" xlink:href="#m90d344250a" y="259.091096"/>
     <use style="fill:#008000;fill-opacity:0.5;stroke:#008000;stroke-opacity:0.5;" x="645.534695" xlink:href="#m90d344250a" y="261.064611"/>
     <use style="fill:#008000;fill-opacity:0.5;stroke:#008000;stroke-opacity:0.5;" x="649.086314" xlink:href="#m90d344250a" y="264.320912"/>
     <use style="fill:#008000;fill-opacity:0.5;stroke:#008000;stroke-opacity:0.5;" x="652.728999" xlink:href="#m90d344250a" y="269.353377"/>
    </g>
   </g>
   <g id="Quiver_1">
    <path clip-path="url(#p6f0214797f)" d="M 58.395577 195.9337 
L 290.636549 -183.321429 
L 285.564196 -183.757765 
L 303.27927 -199.607492 
L 297.214241 -176.623734 
L 294.519898 -180.943419 
L 62.278925 198.31171 
L 58.395577 195.9337 
" style="fill:#0000ff;fill-opacity:0.5;"/>
    <path clip-path="url(#p6f0214797f)" d="M 65.863567 182.414327 
L 311.307163 -218.034603 
L 306.234987 -218.473005 
L 323.956517 -234.315514 
L 317.882125 -211.334229 
L 315.189542 -215.655011 
L 69.745946 184.793919 
L 65.863567 182.414327 
" style="fill:#0000ff;fill-opacity:0.5;"/>
    <path clip-path="url(#p6f0214797f)" d="M 74.279588 167.750665 
L 352.275577 -255.735933 
L 347.219443 -256.331473 
L 365.42391 -271.616598 
L 358.639516 -248.834815 
L 356.082268 -253.237046 
L 78.086279 170.249551 
L 74.279588 167.750665 
" style="fill:#0000ff;fill-opacity:0.5;"/>
    <path clip-path="url(#p6f0214797f)" d="M 84.155197 152.199152 
L 394.724037 -289.854605 
L 389.689204 -290.609335 
L 408.36675 -305.312632 
L 400.867128 -282.756184 
L 398.450012 -287.236888 
L 87.881172 154.816869 
L 84.155197 152.199152 
" style="fill:#0000ff;fill-opacity:0.5;"/>
    <path clip-path="url(#p6f0214797f)" d="M 94.851928 136.057336 
L 431.240896 -312.235602 
L 426.23215 -313.147534 
L 445.360705 -327.259091 
L 437.158824 -304.948403 
L 434.883121 -309.502559 
L 98.494152 138.79038 
L 94.851928 136.057336 
" style="fill:#0000ff;fill-opacity:0.5;"/>
    <path clip-path="url(#p6f0214797f)" d="M 106.297873 119.992248 
L 466.071229 -317.507403 
L 461.107978 -318.64111 
L 480.844987 -331.888303 
L 471.659333 -309.964311 
L 469.588348 -314.615136 
L 109.814992 122.884515 
L 106.297873 119.992248 
" style="fill:#0000ff;fill-opacity:0.5;"/>
    <path clip-path="url(#p6f0214797f)" d="M 118.760231 104.509723 
L 493.608257 -306.009432 
L 488.710355 -307.398573 
L 509.106723 -319.606188 
L 498.79835 -298.187151 
L 496.970922 -302.938958 
L 122.122896 107.580197 
L 118.760231 104.509723 
" style="fill:#0000ff;fill-opacity:0.5;"/>
    <path clip-path="url(#p6f0214797f)" d="M 131.412633 90.212074 
L 510.50845 -282.491359 
L 505.692485 -284.142309 
L 526.716805 -295.233552 
L 515.269662 -274.400871 
L 513.700843 -279.244213 
L 134.605025 93.459221 
L 131.412633 90.212074 
" style="fill:#0000ff;fill-opacity:0.5;"/>
    <path clip-path="url(#p6f0214797f)" d="M 144.161146 77.497591 
L 523.712786 -257.256019 
L 518.993199 -259.165116 
L 540.58681 -269.102602 
L 528.029292 -248.919777 
L 526.724818 -253.840906 
L 147.173177 80.912704 
L 144.161146 77.497591 
" style="fill:#0000ff;fill-opacity:0.5;"/>
    <path clip-path="url(#p6f0214797f)" d="M 157.01302 65.768669 
L 535.593967 -230.623911 
L 530.994148 -232.805843 
L 553.132138 -241.463042 
L 539.415394 -222.049423 
L 538.401048 -227.038438 
L 159.820102 69.354142 
L 157.01302 65.768669 
" style="fill:#0000ff;fill-opacity:0.5;"/>
    <path clip-path="url(#p6f0214797f)" d="M 169.895643 55.606999 
L 546.453829 -197.557513 
L 542.023716 -200.066149 
L 564.729442 -207.100896 
L 549.645623 -188.729286 
L 548.994464 -193.778558 
L 172.436279 59.385953 
L 169.895643 55.606999 
" style="fill:#0000ff;fill-opacity:0.5;"/>
    <path clip-path="url(#p6f0214797f)" d="M 182.897094 46.923415 
L 555.163742 -160.778949 
L 550.956806 -163.646151 
L 574.167489 -168.774685 
L 557.612809 -151.716542 
L 557.38241 -156.802412 
L 185.115761 50.899951 
L 182.897094 46.923415 
" style="fill:#0000ff;fill-opacity:0.5;"/>
    <path clip-path="url(#p6f0214797f)" d="M 195.818735 40.028038 
L 561.440507 -125.089416 
L 557.491307 -128.302355 
L 581.052741 -131.44823 
L 563.11386 -115.852261 
L 563.314692 -120.939385 
L 197.692919 44.17807 
L 195.818735 40.028038 
" style="fill:#0000ff;fill-opacity:0.5;"/>
    <path clip-path="url(#p6f0214797f)" d="M 208.483456 34.426984 
L 569.825581 -91.368966 
L 566.178214 -94.920849 
L 589.926191 -95.955868 
L 570.669633 -82.019489 
L 571.32272 -87.068512 
L 209.980595 38.727437 
L 208.483456 34.426984 
" style="fill:#0000ff;fill-opacity:0.5;"/>
    <path clip-path="url(#p6f0214797f)" d="M 221.345597 30.419508 
L 580.459766 -58.07464 
L 577.159572 -61.951221 
L 600.900568 -60.766819 
L 580.428139 -48.687194 
L 581.549288 -53.653297 
L 222.435119 34.84085 
L 221.345597 30.419508 
" style="fill:#0000ff;fill-opacity:0.5;"/>
    <path clip-path="url(#p6f0214797f)" d="M 234.129283 27.614254 
L 589.676319 -24.201282 
L 586.766634 -28.378949 
L 610.28169 -24.903346 
L 588.736678 -14.860928 
L 590.333 -19.695276 
L 234.785964 32.120261 
L 234.129283 27.614254 
" style="fill:#0000ff;fill-opacity:0.5;"/>
    <path clip-path="url(#p6f0214797f)" d="M 246.853552 26.309084 
L 598.386009 13.907979 
L 595.950083 9.437474 
L 618.944767 15.460942 
L 596.4317 23.089799 
L 598.546548 18.458755 
L 247.014091 30.85986 
L 246.853552 26.309084 
" style="fill:#0000ff;fill-opacity:0.5;"/>
    <path clip-path="url(#p6f0214797f)" d="M 259.391519 26.70826 
L 610.565048 52.012446 
L 608.621399 47.306982 
L 630.839652 55.75606 
L 607.639599 60.932474 
L 610.237781 56.554276 
L 259.064252 31.25009 
L 259.391519 26.70826 
" style="fill:#0000ff;fill-opacity:0.5;"/>
    <path clip-path="url(#p6f0214797f)" d="M 272.118905 28.220617 
L 626.394858 93.8666 
L 624.985806 88.974389 
L 646.128291 99.83869 
L 622.496877 102.406558 
L 625.565215 98.34399 
L 271.289262 32.698007 
L 272.118905 28.220617 
" style="fill:#0000ff;fill-opacity:0.5;"/>
    <path clip-path="url(#p6f0214797f)" d="M 284.843531 31.734907 
L 641.206893 140.252549 
L 640.355334 135.233186 
L 660.146158 148.399847 
L 636.37584 148.301529 
L 639.880395 144.608664 
L 283.517033 36.091021 
L 284.843531 31.734907 
" style="fill:#0000ff;fill-opacity:0.5;"/>
    <path clip-path="url(#p6f0214797f)" d="M 297.430392 36.641981 
L 657.501162 184.523893 
L 657.125023 179.446721 
L 675.591054 194.4148 
L 651.93515 192.083301 
L 655.771205 188.736087 
L 295.700434 40.854174 
L 297.430392 36.641981 
" style="fill:#0000ff;fill-opacity:0.5;"/>
    <path clip-path="url(#p6f0214797f)" d="M 310.16273 43.032853 
L 675.75626 228.497039 
L 675.78589 223.406039 
L 693.000476 239.797979 
L 669.605579 235.588884 
L 673.696157 232.557988 
L 308.102627 47.093802 
L 310.16273 43.032853 
" style="fill:#0000ff;fill-opacity:0.5;"/>
    <path clip-path="url(#p6f0214797f)" d="M 322.878661 50.61475 
L 695.624321 276.167017 
L 696.033818 271.092427 
L 711.977037 288.723406 
L 688.961516 282.780048 
L 693.266887 280.062891 
L 320.521227 54.510624 
L 322.878661 50.61475 
" style="fill:#0000ff;fill-opacity:0.5;"/>
    <path clip-path="url(#p6f0214797f)" d="M 335.948562 59.882353 
L 714.534981 328.370008 
L 715.311969 323.338562 
L 729.932526 342.080947 
L 707.409464 334.481648 
L 711.900813 332.08437 
L 333.314394 63.596715 
L 335.948562 59.882353 
" style="fill:#0000ff;fill-opacity:0.5;"/>
    <path clip-path="url(#p6f0214797f)" d="M 348.816836 70.530966 
L 730.506358 380.733824 
L 731.611398 375.764111 
L 744.972294 395.424328 
L 722.995647 386.365374 
L 727.634441 384.267578 
L 345.944919 74.06472 
L 348.816836 70.530966 
" style="fill:#0000ff;fill-opacity:0.5;"/>
    <path clip-path="url(#p6f0214797f)" d="M 361.754793 82.653324 
L 748.29999 434.85775 
L 749.683924 429.958374 
L 761.913214 450.341753 
L 740.483231 440.056156 
L 745.233092 438.223678 
L 358.687895 86.019252 
L 361.754793 82.653324 
" style="fill:#0000ff;fill-opacity:0.5;"/>
    <path clip-path="url(#p6f0214797f)" d="M 374.869934 96.162459 
L 764.10692 493.276714 
L 765.765162 488.463255 
L 776.824549 509.504349 
L 756.009229 498.025667 
L 760.854942 496.464185 
L 371.617956 99.34993 
L 374.869934 96.162459 
" style="fill:#0000ff;fill-opacity:0.5;"/>
    <path clip-path="url(#p6f0214797f)" d="M 387.796163 111.352342 
L 775.605292 553.53975 
L 777.527546 548.825506 
L 787.404763 570.446751 
L 767.257043 557.832987 
L 772.181791 556.542244 
L 384.372662 114.354836 
L 387.796163 111.352342 
" style="fill:#0000ff;fill-opacity:0.5;"/>
    <path clip-path="url(#p6f0214797f)" d="M 400.522494 127.912471 
L 789.130623 614.981743 
L 791.27015 610.362047 
L 800.13063 632.419462 
L 780.591652 618.881885 
L 785.571124 617.821688 
L 396.962995 130.752417 
L 400.522494 127.912471 
" style="fill:#0000ff;fill-opacity:0.5;"/>
    <path clip-path="url(#p6f0214797f)" d="M 413.326068 146.040833 
L 807.002807 681.121564 
L 809.321376 676.589082 
L 817.312395 698.976161 
L 798.317831 684.684757 
L 803.334959 683.820123 
L 409.65822 148.739391 
L 413.326068 146.040833 
" style="fill:#0000ff;fill-opacity:0.5;"/>
    <path clip-path="url(#p6f0214797f)" d="M 426.396651 165.942436 
L 821.640128 746.360925 
L 824.122431 741.916003 
L 831.291794 764.579584 
L 812.830997 749.605051 
L 817.876317 748.923941 
L 422.63284 168.505452 
L 426.396651 165.942436 
" style="fill:#0000ff;fill-opacity:0.5;"/>
    <path clip-path="url(#p6f0214797f)" d="M 439.093679 187.117809 
L 834.504123 808.196827 
L 837.122573 803.830722 
L 843.588292 826.70499 
L 825.598966 811.167235 
L 830.662921 810.642332 
L 435.252477 189.563313 
L 439.093679 187.117809 
" style="fill:#0000ff;fill-opacity:0.5;"/>
    <path clip-path="url(#p6f0214797f)" d="M 452.0602 209.573985 
L 846.394192 870.954456 
L 849.139391 866.666911 
L 854.932405 889.720732 
L 837.405859 873.662779 
L 842.483014 873.286412 
L 448.149023 211.905941 
L 452.0602 209.573985 
" style="fill:#0000ff;fill-opacity:0.5;"/>
    <path clip-path="url(#p6f0214797f)" d="M 464.56641 233.406724 
L 859.291259 936.90234 
L 862.148358 932.688536 
L 867.332576 955.886845 
L 850.234756 939.373147 
L 855.320059 939.130544 
L 460.59521 235.634928 
L 464.56641 233.406724 
" style="fill:#0000ff;fill-opacity:0.5;"/>
    <path clip-path="url(#p6f0214797f)" d="M 477.430034 258.71004 
L 876.306229 1006.290088 
L 879.251959 1002.137758 
L 883.943543 1025.440692 
L 867.199413 1008.568473 
L 872.288714 1008.433659 
L 473.412519 260.853612 
L 477.430034 258.71004 
" style="fill:#0000ff;fill-opacity:0.5;"/>
    <path clip-path="url(#p6f0214797f)" d="M 490.296295 285.402312 
L 888.567017 1078.280862 
L 891.614145 1074.202361 
L 895.730243 1097.613798 
L 879.406837 1080.334212 
L 884.497915 1080.324812 
L 486.227192 287.446262 
L 490.296295 285.402312 
" style="fill:#0000ff;fill-opacity:0.5;"/>
    <path clip-path="url(#p6f0214797f)" d="M 502.881601 313.758996 
L 901.607705 1144.442335 
L 904.72765 1140.419264 
L 908.422269 1163.900905 
L 892.412096 1146.330701 
L 897.50252 1146.412814 
L 498.776417 315.729475 
L 502.881601 313.758996 
" style="fill:#0000ff;fill-opacity:0.5;"/>
    <path clip-path="url(#p6f0214797f)" d="M 515.815425 343.366514 
L 910.048033 1169.616592 
L 913.177342 1165.600799 
L 916.817251 1189.090983 
L 900.848051 1171.483532 
L 905.93827 1171.577502 
L 511.705661 345.327425 
L 515.815425 343.366514 
" style="fill:#0000ff;fill-opacity:0.5;"/>
    <path clip-path="url(#p6f0214797f)" d="M 528.268596 372.034297 
L 899.825611 1106.904306 
L 902.861997 1102.817802 
L 907.039677 1126.218329 
L 890.670865 1108.98175 
L 895.7619 1108.958956 
L 524.204886 374.088947 
L 528.268596 372.034297 
" style="fill:#0000ff;fill-opacity:0.5;"/>
    <path clip-path="url(#p6f0214797f)" d="M 539.58787 394.907721 
L 880.22384 980.123628 
L 883.013955 975.865176 
L 888.564327 998.978614 
L 871.207537 982.737325 
L 876.288368 982.414345 
L 535.652397 397.198437 
L 539.58787 394.907721 
" style="fill:#0000ff;fill-opacity:0.5;"/>
    <path clip-path="url(#p6f0214797f)" d="M 550.032502 412.584267 
L 859.980097 843.66605 
L 862.348129 839.159213 
L 870.093672 861.632402 
L 851.256646 847.133983 
L 856.282936 846.324307 
L 546.335342 415.242524 
L 550.032502 412.584267 
" style="fill:#0000ff;fill-opacity:0.5;"/>
    <path clip-path="url(#p6f0214797f)" d="M 559.654062 424.959291 
L 833.490295 707.485263 
L 835.175469 702.681166 
L 846.116843 723.783868 
L 825.366135 712.188791 
L 830.220517 710.654472 
L 556.384284 428.128499 
L 559.654062 424.959291 
" style="fill:#0000ff;fill-opacity:0.5;"/>
    <path clip-path="url(#p6f0214797f)" d="M 567.733218 432.47512 
L 802.7413 570.610281 
L 803.085931 565.530873 
L 819.253101 582.956725 
L 796.163527 577.307896 
L 800.433832 574.535955 
L 565.42575 436.400795 
L 567.733218 432.47512 
" style="fill:#0000ff;fill-opacity:0.5;"/>
    <path clip-path="url(#p6f0214797f)" d="M 574.561253 434.727488 
L 771.998782 439.839221 
L 769.840596 435.228213 
L 792.424217 442.64561 
L 769.487031 448.884455 
L 771.880927 444.391302 
L 574.443398 439.279568 
L 574.561253 434.727488 
" style="fill:#0000ff;fill-opacity:0.5;"/>
    <path clip-path="url(#p6f0214797f)" d="M 579.821813 432.884891 
L 755.828978 306.439042 
L 751.323057 304.069267 
L 773.79924 296.332415 
L 759.293538 315.163832 
L 758.485805 310.137231 
L 582.47864 436.583079 
L 579.821813 432.884891 
" style="fill:#0000ff;fill-opacity:0.5;"/>
    <path clip-path="url(#p6f0214797f)" d="M 584.917224 426.192243 
L 746.481991 147.223117 
L 741.400467 146.911232 
L 758.721753 130.632082 
L 753.221863 153.757585 
L 750.422457 149.505235 
L 588.857689 428.47436 
L 584.917224 426.192243 
" style="fill:#0000ff;fill-opacity:0.5;"/>
    <path clip-path="url(#p6f0214797f)" d="M 589.820655 413.805561 
L 728.102286 -14.255912 
L 723.069274 -13.489129 
L 736.56785 -33.055072 
L 736.068641 -9.289794 
L 732.435408 -12.856133 
L 594.153778 415.205339 
L 589.820655 413.805561 
" style="fill:#0000ff;fill-opacity:0.5;"/>
    <path clip-path="url(#p6f0214797f)" d="M 593.58753 396.159951 
L 708.560216 -130.976216 
L 703.62602 -129.722075 
L 715.15137 -150.511592 
L 716.97306 -126.810977 
L 713.00923 -130.00585 
L 598.036543 397.130317 
L 593.58753 396.159951 
" style="fill:#0000ff;fill-opacity:0.5;"/>
    <path clip-path="url(#p6f0214797f)" d="M 596.94563 376.282946 
L 700.767471 -163.966327 
L 695.86601 -162.589796 
L 706.870481 -183.659663 
L 709.281354 -160.011716 
L 705.239252 -163.106967 
L 601.417411 377.142306 
L 596.94563 376.282946 
" style="fill:#0000ff;fill-opacity:0.5;"/>
    <path clip-path="url(#p6f0214797f)" d="M 600.136916 358.106604 
L 701.086883 -142.953483 
L 696.173296 -141.620884 
L 707.36594 -162.591396 
L 709.565023 -138.922816 
L 705.550792 -142.054126 
L 604.600825 359.00596 
L 600.136916 358.106604 
" style="fill:#0000ff;fill-opacity:0.5;"/>
    <path clip-path="url(#p6f0214797f)" d="M 603.423721 341.390605 
L 703.714477 -114.210108 
L 698.777872 -112.965483 
L 710.34328 -133.732741 
L 712.119274 -110.028658 
L 708.161611 -113.231167 
L 607.870855 342.369546 
L 603.423721 341.390605 
" style="fill:#0000ff;fill-opacity:0.5;"/>
    <path clip-path="url(#p6f0214797f)" d="M 606.621319 326.248778 
L 706.167901 -86.425768 
L 701.207361 -85.280256 
L 713.186349 -105.811732 
L 714.487272 -82.076836 
L 710.594538 -85.357961 
L 611.047956 327.316584 
L 606.621319 326.248778 
" style="fill:#0000ff;fill-opacity:0.5;"/>
    <path clip-path="url(#p6f0214797f)" d="M 609.912903 312.283594 
L 707.602071 -54.617046 
L 702.615965 -53.588497 
L 715.074437 -73.832611 
L 715.816876 -50.073687 
L 712.002374 -53.445442 
L 614.313206 313.455198 
L 609.912903 312.283594 
" style="fill:#0000ff;fill-opacity:0.5;"/>
    <path clip-path="url(#p6f0214797f)" d="M 613.029774 300.172668 
L 709.740411 -20.034816 
L 704.723002 -19.171817 
L 717.844516 -38.992603 
L 717.800382 -15.222123 
L 714.099538 -18.718251 
L 617.388901 301.489233 
L 613.029774 300.172668 
" style="fill:#0000ff;fill-opacity:0.5;"/>
    <path clip-path="url(#p6f0214797f)" d="M 616.255129 289.302272 
L 714.846905 16.165306 
L 709.790769 16.760827 
L 723.945635 -2.335703 
L 722.640121 21.398941 
L 719.130023 17.711344 
L 620.538246 290.84831 
L 616.255129 289.302272 
" style="fill:#0000ff;fill-opacity:0.5;"/>
    <path clip-path="url(#p6f0214797f)" d="M 619.76666 280.193957 
L 716.025247 57.053834 
L 710.942251 57.340737 
L 726.232366 39.14046 
L 723.485726 62.751764 
L 720.206405 58.857509 
L 623.947818 281.997632 
L 619.76666 280.193957 
" style="fill:#0000ff;fill-opacity:0.5;"/>
    <path clip-path="url(#p6f0214797f)" d="M 622.857315 272.715246 
L 718.300552 95.274668 
L 713.211733 95.122725 
L 730.012559 78.30696 
L 725.242566 101.59397 
L 722.310829 97.43175 
L 626.867593 274.872328 
L 622.857315 272.715246 
" style="fill:#0000ff;fill-opacity:0.5;"/>
    <path clip-path="url(#p6f0214797f)" d="M 626.556895 266.55615 
L 722.555289 131.192512 
L 717.523845 130.415511 
L 736.266272 115.795007 
L 728.666909 138.318048 
L 726.269644 133.826692 
L 630.27125 269.19033 
L 626.556895 266.55615 
" style="fill:#0000ff;fill-opacity:0.5;"/>
    <path clip-path="url(#p6f0214797f)" d="M 630.100772 261.70619 
L 724.329277 169.575637 
L 719.517877 167.911428 
L 740.572668 156.87814 
L 729.068185 177.67921 
L 727.512713 172.831565 
L 633.284208 264.962118 
L 630.100772 261.70619 
" style="fill:#0000ff;fill-opacity:0.5;"/>
    <path clip-path="url(#p6f0214797f)" d="M 634.28577 258.501984 
L 722.844433 207.248498 
L 718.592916 204.447826 
L 741.720055 198.95482 
L 725.43575 216.271259 
L 725.125377 211.189642 
L 636.566715 262.443129 
L 634.28577 258.501984 
" style="fill:#0000ff;fill-opacity:0.5;"/>
    <path clip-path="url(#p6f0214797f)" d="M 638.303985 256.75115 
L 719.307458 242.270078 
L 716.26484 238.188212 
L 739.879564 240.905281 
L 718.668884 251.635833 
L 720.108806 246.752619 
L 639.105334 261.23369 
L 638.303985 256.75115 
" style="fill:#0000ff;fill-opacity:0.5;"/>
    <path clip-path="url(#p6f0214797f)" d="M 642.673564 256.894615 
L 725.907133 279.60909 
L 724.909493 274.616709 
L 745.076038 287.200355 
L 721.31297 287.795592 
L 724.708292 284.002051 
L 641.474723 261.287576 
L 642.673564 256.894615 
" style="fill:#0000ff;fill-opacity:0.5;"/>
    <path clip-path="url(#p6f0214797f)" d="M 646.821381 259.186242 
L 737.909714 321.581926 
L 738.604718 316.538502 
L 753.528349 335.040473 
L 730.8846 327.808716 
L 735.336342 325.338664 
L 644.248009 262.94298 
L 646.821381 259.186242 
" style="fill:#0000ff;fill-opacity:0.5;"/>
    <path clip-path="url(#p6f0214797f)" d="M 650.748237 262.764685 
L 748.698479 367.367606 
L 750.4661 362.593229 
L 761.042594 383.881147 
L 740.494557 371.930588 
L 745.374632 370.480059 
L 647.42439 265.877138 
L 650.748237 262.764685 
" style="fill:#0000ff;fill-opacity:0.5;"/>
    <path clip-path="url(#p6f0214797f)" d="M 654.614527 268.077205 
L 755.815351 417.600151 
L 758.310236 413.162279 
L 765.415372 435.846077 
L 746.997066 420.819311 
L 752.044295 420.152495 
L 650.843471 270.629549 
L 654.614527 268.077205 
" style="fill:#0000ff;fill-opacity:0.5;"/>
   </g>
   <g id="Quiver_2">
    <path clip-path="url(#p6f0214797f)" style="fill:#ff0000;fill-opacity:0.5;"/>
    <path clip-path="url(#p6f0214797f)" d="M 65.872648 182.399636 
L 68.241885 178.599163 
L 63.173181 178.122296 
L 81.01438 162.414676 
L 74.765831 185.34922 
L 72.106102 181.008137 
L 69.736865 184.808611 
L 65.872648 182.399636 
" style="fill:#ff0000;fill-opacity:0.5;"/>
    <path clip-path="url(#p6f0214797f)" d="M 74.875317 167.136249 
L 90.768249 155.986341 
L 86.289157 153.566239 
L 108.850598 146.081653 
L 94.134855 164.749394 
L 93.383481 159.714059 
L 77.49055 170.863967 
L 74.875317 167.136249 
" style="fill:#ff0000;fill-opacity:0.5;"/>
    <path clip-path="url(#p6f0214797f)" d="M 84.892441 151.528987 
L 99.709682 143.100375 
L 95.479171 140.268073 
L 118.646634 134.947704 
L 102.233634 152.142212 
L 101.961169 147.058422 
L 87.143928 155.487033 
L 84.892441 151.528987 
" style="fill:#ff0000;fill-opacity:0.5;"/>
    <path clip-path="url(#p6f0214797f)" d="M 96.108884 135.218057 
L 102.088354 133.688747 
L 98.754241 129.8413 
L 122.504723 130.817144 
L 102.139177 143.076108 
L 103.216666 138.10035 
L 97.237196 139.629659 
L 96.108884 135.218057 
" style="fill:#ff0000;fill-opacity:0.5;"/>
    <path clip-path="url(#p6f0214797f)" d="M 108.877965 119.314961 
L 114.102176 121.336163 
L 113.621822 116.267788 
L 132.39143 130.85338 
L 108.692624 129.008313 
L 112.459111 125.583004 
L 107.234899 123.561802 
L 108.877965 119.314961 
" style="fill:#ff0000;fill-opacity:0.5;"/>
    <path clip-path="url(#p6f0214797f)" d="M 122.330584 104.773963 
L 128.474231 113.904964 
L 130.981275 109.47395 
L 138.024184 132.177146 
L 119.647152 117.099932 
L 124.69619 116.446958 
L 118.552543 107.315957 
L 122.330584 104.773963 
" style="fill:#ff0000;fill-opacity:0.5;"/>
    <path clip-path="url(#p6f0214797f)" d="M 135.248622 91.4268 
L 138.529983 109.4031 
L 142.600722 106.345611 
L 139.969819 129.970091 
L 129.161961 108.798698 
L 134.050396 110.220796 
L 130.769035 92.244495 
L 135.248622 91.4268 
" style="fill:#ff0000;fill-opacity:0.5;"/>
    <path clip-path="url(#p6f0214797f)" d="M 147.936943 79.026481 
L 149.376448 97.313944 
L 153.737345 94.686829 
L 148.714667 117.920649 
L 140.118654 95.75883 
L 144.836884 97.671278 
L 143.397379 79.383814 
L 147.936943 79.026481 
" style="fill:#ff0000;fill-opacity:0.5;"/>
    <path clip-path="url(#p6f0214797f)" d="M 160.691215 67.462507 
L 161.519128 86.504497 
L 165.969538 84.032047 
L 160.134556 107.075282 
L 152.321613 84.625435 
L 156.96982 86.702293 
L 156.141907 67.660303 
L 160.691215 67.462507 
" style="fill:#ff0000;fill-opacity:0.5;"/>
    <path clip-path="url(#p6f0214797f)" d="M 173.442051 57.439504 
L 174.056898 82.00321 
L 178.552106 79.613175 
L 172.293558 102.544992 
L 164.895566 79.955008 
L 169.504718 82.117154 
L 168.889871 57.553448 
L 173.442051 57.439504 
" style="fill:#ff0000;fill-opacity:0.5;"/>
    <path clip-path="url(#p6f0214797f)" d="M 186.282683 48.961623 
L 185.677066 76.565622 
L 190.279516 74.389246 
L 182.951353 97.00198 
L 176.621985 74.089608 
L 181.124556 76.465743 
L 181.730172 48.861743 
L 186.282683 48.961623 
" style="fill:#ff0000;fill-opacity:0.5;"/>
    <path clip-path="url(#p6f0214797f)" d="M 199.024475 42.295588 
L 196.87177 67.661099 
L 201.6016 65.77752 
L 192.870314 87.886395 
L 187.989713 64.622315 
L 192.334475 67.276031 
L 194.487179 41.91052 
L 199.024475 42.295588 
" style="fill:#ff0000;fill-opacity:0.5;"/>
    <path clip-path="url(#p6f0214797f)" d="M 211.507007 36.668272 
L 210.602994 59.253097 
L 215.244018 57.160239 
L 207.508458 79.636867 
L 201.594131 56.613869 
L 206.053032 59.070974 
L 206.957044 36.486149 
L 211.507007 36.668272 
" style="fill:#ff0000;fill-opacity:0.5;"/>
    <path clip-path="url(#p6f0214797f)" d="M 224.16716 32.631747 
L 224.152639 53.714562 
L 228.707813 51.440896 
L 221.861723 74.204216 
L 215.046998 51.431487 
L 219.599034 53.711426 
L 219.613555 32.628611 
L 224.16716 32.631747 
" style="fill:#ff0000;fill-opacity:0.5;"/>
    <path clip-path="url(#p6f0214797f)" d="M 236.731353 29.985512 
L 235.639767 50.973878 
L 240.305482 48.936657 
L 232.301746 71.319193 
L 226.663102 48.22713 
L 231.092308 50.737369 
L 232.183893 29.749003 
L 236.731353 29.985512 
" style="fill:#ff0000;fill-opacity:0.5;"/>
    <path clip-path="url(#p6f0214797f)" d="M 249.204007 28.757942 
L 247.326555 53.327976 
L 252.040395 51.404731 
L 243.495141 73.586172 
L 238.419285 50.363912 
L 242.786185 52.981037 
L 244.663636 28.411002 
L 249.204007 28.757942 
" style="fill:#ff0000;fill-opacity:0.5;"/>
    <path clip-path="url(#p6f0214797f)" d="M 261.504491 29.009192 
L 261.204809 51.738701 
L 265.788035 49.522129 
L 258.658056 72.198131 
L 252.128404 49.342031 
L 256.651598 51.678669 
L 256.95128 28.949159 
L 261.504491 29.009192 
" style="fill:#ff0000;fill-opacity:0.5;"/>
    <path clip-path="url(#p6f0214797f)" d="M 273.9786 30.357303 
L 275.121393 55.838503 
L 279.568418 53.359969 
L 273.764954 76.411161 
L 265.921318 53.97202 
L 270.57236 56.04252 
L 269.429567 30.561321 
L 273.9786 30.357303 
" style="fill:#ff0000;fill-opacity:0.5;"/>
    <path clip-path="url(#p6f0214797f)" d="M 286.457076 33.919504 
L 286.377519 61.614581 
L 290.937647 59.350868 
L 284.041864 82.099183 
L 277.276885 59.311626 
L 281.823932 61.6015 
L 281.903488 33.906424 
L 286.457076 33.919504 
" style="fill:#ff0000;fill-opacity:0.5;"/>
    <path clip-path="url(#p6f0214797f)" d="M 298.841308 38.683787 
L 299.489929 61.644961 
L 303.977428 59.240484 
L 297.792651 82.192308 
L 290.322058 59.626229 
L 294.938139 61.773543 
L 294.289518 38.812368 
L 298.841308 38.683787 
" style="fill:#ff0000;fill-opacity:0.5;"/>
    <path clip-path="url(#p6f0214797f)" d="M 311.402951 44.891001 
L 312.943887 65.191648 
L 317.312105 62.576722 
L 312.224557 85.796424 
L 303.690472 63.610683 
L 308.403343 65.536302 
L 306.862406 45.235654 
L 311.402951 44.891001 
" style="fill:#ff0000;fill-opacity:0.5;"/>
    <path clip-path="url(#p6f0214797f)" d="M 323.963531 52.317731 
L 326.38445 74.688926 
L 330.666669 71.935426 
L 326.325467 95.306169 
L 317.085144 73.405163 
L 321.857275 75.178838 
L 319.436356 52.807643 
L 323.963531 52.317731 
" style="fill:#ff0000;fill-opacity:0.5;"/>
    <path clip-path="url(#p6f0214797f)" d="M 336.903205 61.587588 
L 338.555348 86.288585 
L 342.946856 83.712965 
L 337.651135 106.886075 
L 329.316493 84.624642 
L 334.011894 86.592477 
L 332.359751 61.89148 
L 336.903205 61.587588 
" style="fill:#ff0000;fill-opacity:0.5;"/>
    <path clip-path="url(#p6f0214797f)" d="M 349.657641 72.284455 
L 349.791837 95.105543 
L 354.331976 92.802003 
L 347.635567 115.609803 
L 340.671394 92.882332 
L 345.23831 95.132319 
L 345.104114 72.311231 
L 349.657641 72.284455 
" style="fill:#ff0000;fill-opacity:0.5;"/>
    <path clip-path="url(#p6f0214797f)" d="M 362.494653 84.210192 
L 363.755477 106.940809 
L 368.175998 104.415308 
L 362.617033 127.526682 
L 354.536147 105.171885 
L 359.20886 107.193001 
L 357.948036 84.462384 
L 362.494653 84.210192 
" style="fill:#ff0000;fill-opacity:0.5;"/>
    <path clip-path="url(#p6f0214797f)" d="M 375.520746 97.752826 
L 375.558155 123.036919 
L 380.108387 120.753381 
L 373.311672 143.531493 
L 366.447584 120.773593 
L 371.004554 123.043657 
L 370.967145 97.759563 
L 375.520746 97.752826 
" style="fill:#ff0000;fill-opacity:0.5;"/>
    <path clip-path="url(#p6f0214797f)" d="M 388.351701 113.061511 
L 386.050881 138.150831 
L 390.793381 136.299386 
L 381.912292 158.348511 
L 377.189646 135.051853 
L 381.516302 137.734986 
L 383.817123 112.645667 
L 388.351701 113.061511 
" style="fill:#ff0000;fill-opacity:0.5;"/>
    <path clip-path="url(#p6f0214797f)" d="M 401.01841 129.404414 
L 400.238099 154.077677 
L 404.861399 151.945951 
L 397.314707 174.486695 
L 391.207408 151.514133 
L 395.686769 153.933738 
L 396.467079 129.260474 
L 401.01841 129.404414 
" style="fill:#ff0000;fill-opacity:0.5;"/>
    <path clip-path="url(#p6f0214797f)" d="M 413.763553 147.233475 
L 415.682079 175.054227 
L 420.068259 172.469545 
L 414.820402 195.653541 
L 406.439808 173.409366 
L 411.139262 175.367501 
L 409.220736 147.546749 
L 413.763553 147.233475 
" style="fill:#ff0000;fill-opacity:0.5;"/>
    <path clip-path="url(#p6f0214797f)" d="M 426.791538 167.230798 
L 426.716653 192.105835 
L 431.277092 189.842751 
L 424.378172 212.590115 
L 417.616336 189.801626 
L 422.163067 192.092127 
L 422.237953 167.21709 
L 426.791538 167.230798 
" style="fill:#ff0000;fill-opacity:0.5;"/>
    <path clip-path="url(#p6f0214797f)" d="M 439.448736 188.412744 
L 438.811667 208.496993 
L 443.435168 206.365701 
L 435.886357 228.905735 
L 429.781217 205.9326 
L 434.26035 208.352626 
L 434.897419 188.268377 
L 439.448736 188.412744 
" style="fill:#ff0000;fill-opacity:0.5;"/>
    <path clip-path="url(#p6f0214797f)" d="M 452.377151 210.879239 
L 451.173003 230.527094 
L 455.857358 228.533106 
L 447.646981 250.84067 
L 442.222123 227.697451 
L 446.627925 230.248542 
L 447.832073 210.600687 
L 452.377151 210.879239 
" style="fill:#ff0000;fill-opacity:0.5;"/>
    <path clip-path="url(#p6f0214797f)" d="M 464.857197 234.564368 
L 464.446831 256.018291 
L 469.043146 253.828989 
L 461.778564 276.462228 
L 455.384826 253.567735 
L 459.894057 255.931207 
L 460.304423 234.477284 
L 464.857197 234.564368 
" style="fill:#ff0000;fill-opacity:0.5;"/>
    <path clip-path="url(#p6f0214797f)" d="M 477.691828 259.613216 
L 479.442925 283.19393 
L 483.815416 280.586158 
L 478.689867 303.797501 
L 470.19211 281.597821 
L 474.901822 283.531151 
L 473.150726 259.950436 
L 477.691828 259.613216 
" style="fill:#ff0000;fill-opacity:0.5;"/>
    <path clip-path="url(#p6f0214797f)" d="M 490.536909 286.510638 
L 489.605247 311.057813 
L 494.241928 308.955351 
L 486.552919 331.447946 
L 480.590939 308.437242 
L 485.054917 310.88511 
L 485.986579 286.337935 
L 490.536909 286.510638 
" style="fill:#ff0000;fill-opacity:0.5;"/>
    <path clip-path="url(#p6f0214797f)" d="M 503.105728 314.763752 
L 502.958963 331.884763 
L 507.531918 329.647077 
L 500.506594 352.355721 
L 493.871602 329.529978 
L 498.405524 331.84573 
L 498.55229 314.724719 
L 503.105728 314.763752 
" style="fill:#ff0000;fill-opacity:0.5;"/>
    <path clip-path="url(#p6f0214797f)" d="M 513.318772 344.794867 
L 512.870875 344.353096 
L 512.435229 345.690662 
L 509.281571 339.929258 
L 515.085857 343.003278 
L 513.754417 343.457302 
L 514.202314 343.899073 
L 513.318772 344.794867 
" style="fill:#ff0000;fill-opacity:0.5;"/>
    <path clip-path="url(#p6f0214797f)" d="M 524.022781 373.59286 
L 506.862332 302.075894 
L 502.965651 305.35233 
L 504.295148 281.619018 
L 516.24941 302.164901 
L 511.290252 301.013418 
L 528.450701 372.530384 
L 524.022781 373.59286 
" style="fill:#ff0000;fill-opacity:0.5;"/>
    <path clip-path="url(#p6f0214797f)" d="M 535.384507 396.484131 
L 510.376512 266.781649 
L 506.336311 269.87938 
L 508.732669 246.229958 
L 519.750071 267.293067 
L 514.847765 265.919545 
L 539.85576 395.622027 
L 535.384507 396.484131 
" style="fill:#ff0000;fill-opacity:0.5;"/>
    <path clip-path="url(#p6f0214797f)" d="M 545.941731 414.308885 
L 522.207206 279.748123 
L 518.118313 282.781293 
L 520.889994 259.172916 
L 531.571459 280.408357 
L 526.691588 278.957145 
L 550.426113 413.517906 
L 545.941731 414.308885 
" style="fill:#ff0000;fill-opacity:0.5;"/>
    <path clip-path="url(#p6f0214797f)" d="M 555.789874 427.006558 
L 528.721621 296.580727 
L 524.725686 299.735353 
L 526.786951 276.054372 
L 538.101481 296.959374 
L 533.180219 295.655401 
L 560.248472 426.081232 
L 555.789874 427.006558 
" style="fill:#ff0000;fill-opacity:0.5;"/>
    <path clip-path="url(#p6f0214797f)" d="M 564.349654 434.898052 
L 537.412107 304.34614 
L 533.412539 307.496159 
L 535.50109 283.817569 
L 546.791524 304.735594 
L 541.871768 303.425951 
L 568.809315 433.977863 
L 564.349654 434.898052 
" style="fill:#ff0000;fill-opacity:0.5;"/>
    <path clip-path="url(#p6f0214797f)" d="M 572.274028 437.470993 
L 544.832914 306.665478 
L 540.843785 309.828705 
L 542.854029 286.143338 
L 554.213568 307.023917 
L 549.289509 305.730549 
L 576.730623 436.536063 
L 572.274028 437.470993 
" style="fill:#ff0000;fill-opacity:0.5;"/>
    <path clip-path="url(#p6f0214797f)" d="M 578.926271 435.221685 
L 550.135198 303.931767 
L 546.174985 307.131123 
L 547.969855 283.428462 
L 559.518722 304.204923 
L 554.58311 302.956367 
L 583.374183 434.246285 
L 578.926271 435.221685 
" style="fill:#ff0000;fill-opacity:0.5;"/>
    <path clip-path="url(#p6f0214797f)" d="M 584.645413 427.729627 
L 560.579128 291.584933 
L 556.491368 294.619628 
L 559.25424 271.010218 
L 569.943627 292.241673 
L 565.063215 290.792282 
L 589.1295 426.936976 
L 584.645413 427.729627 
" style="fill:#ff0000;fill-opacity:0.5;"/>
    <path clip-path="url(#p6f0214797f)" d="M 589.754203 414.949841 
L 564.315322 287.122483 
L 560.293686 290.244279 
L 562.548814 266.580973 
L 573.691766 287.577932 
L 568.781348 286.233701 
L 594.22023 414.061059 
L 589.754203 414.949841 
" style="fill:#ff0000;fill-opacity:0.5;"/>
    <path clip-path="url(#p6f0214797f)" d="M 593.610188 397.224528 
L 573.088084 319.235195 
L 569.263782 322.595831 
L 570.075385 298.83917 
L 582.47487 319.119467 
L 577.49178 318.076407 
L 598.013884 396.06574 
L 593.610188 397.224528 
" style="fill:#ff0000;fill-opacity:0.5;"/>
    <path clip-path="url(#p6f0214797f)" d="M 597.940771 377.849 
L 596.804398 376.608251 
L 595.459273 380.121747 
L 587.817783 364.305134 
L 602.903768 373.303505 
L 599.285896 374.335503 
L 600.42227 375.576252 
L 597.940771 377.849 
" style="fill:#ff0000;fill-opacity:0.5;"/>
    <path clip-path="url(#p6f0214797f)" d="M 604.6404 358.711155 
L 603.362766 377.450369 
L 608.060698 375.488584 
L 599.697388 397.739263 
L 594.43152 374.559351 
L 598.819707 377.140625 
L 600.097341 358.40141 
L 604.6404 358.711155 
" style="fill:#ff0000;fill-opacity:0.5;"/>
    <path clip-path="url(#p6f0214797f)" d="M 607.924057 341.892382 
L 607.789357 366.811852 
L 612.355204 364.559696 
L 605.401826 387.290473 
L 598.694585 364.485855 
L 603.235818 366.787239 
L 603.370518 341.867769 
L 607.924057 341.892382 
" style="fill:#ff0000;fill-opacity:0.5;"/>
    <path clip-path="url(#p6f0214797f)" d="M 611.111393 326.797379 
L 610.966841 349.188498 
L 615.53505 346.941139 
L 608.557801 369.6646 
L 601.874517 346.85295 
L 606.41333 349.159102 
L 606.557882 326.767983 
L 611.111393 326.797379 
" style="fill:#ff0000;fill-opacity:0.5;"/>
    <path clip-path="url(#p6f0214797f)" d="M 614.388926 312.934521 
L 613.665833 338.203796 
L 618.282701 336.058175 
L 610.803835 358.621513 
L 604.627473 335.667423 
L 609.11409 338.073545 
L 609.837183 312.804271 
L 614.388926 312.934521 
" style="fill:#ff0000;fill-opacity:0.5;"/>
    <path clip-path="url(#p6f0214797f)" d="M 617.486121 300.840378 
L 617.377743 327.013863 
L 621.940737 324.755935 
L 615.016111 347.495487 
L 608.280037 324.699369 
L 612.824176 326.995008 
L 612.932554 300.821523 
L 617.486121 300.840378 
" style="fill:#ff0000;fill-opacity:0.5;"/>
    <path clip-path="url(#p6f0214797f)" d="M 620.66828 289.921354 
L 622.467241 316.468006 
L 626.85649 313.888539 
L 621.581079 337.066281 
L 613.226931 314.81216 
L 617.924054 316.775879 
L 616.125094 290.229227 
L 620.66828 289.921354 
" style="fill:#ff0000;fill-opacity:0.5;"/>
    <path clip-path="url(#p6f0214797f)" d="M 624.133713 281.134488 
L 623.630037 310.767856 
L 628.221679 308.568768 
L 621.005326 331.217431 
L 614.562833 308.33661 
L 619.077089 310.69047 
L 619.580764 281.057102 
L 624.133713 281.134488 
" style="fill:#ff0000;fill-opacity:0.5;"/>
    <path clip-path="url(#p6f0214797f)" d="M 627.138301 273.727807 
L 627.877918 299.239601 
L 632.363632 296.831795 
L 626.195887 319.788202 
L 618.708551 297.227672 
L 623.326224 299.37156 
L 622.586607 273.859766 
L 627.138301 273.727807 
" style="fill:#ff0000;fill-opacity:0.5;"/>
    <path clip-path="url(#p6f0214797f)" d="M 630.682482 267.677917 
L 632.610029 290.0637 
L 636.951524 287.404644 
L 632.099529 310.674707 
L 623.341068 288.576584 
L 628.07321 290.454346 
L 626.145663 268.068563 
L 630.682482 267.677917 
" style="fill:#ff0000;fill-opacity:0.5;"/>
    <path clip-path="url(#p6f0214797f)" d="M 633.965471 263.202295 
L 635.403788 287.995936 
L 639.817892 285.459237 
L 634.317538 308.584629 
L 626.180002 286.250391 
L 630.857825 288.259655 
L 629.419508 263.466013 
L 633.965471 263.202295 
" style="fill:#ff0000;fill-opacity:0.5;"/>
    <path clip-path="url(#p6f0214797f)" d="M 637.702898 260.498513 
L 637.417899 285.496189 
L 641.997166 283.271446 
L 634.90764 305.960129 
L 628.337235 283.11571 
L 632.864589 285.444277 
L 633.149587 260.4466 
L 637.702898 260.498513 
" style="fill:#ff0000;fill-opacity:0.5;"/>
    <path clip-path="url(#p6f0214797f)" d="M 640.975169 259.161587 
L 639.093974 284.410389 
L 643.804161 282.478214 
L 635.300958 304.675809 
L 630.181102 281.46321 
L 634.552955 284.072055 
L 636.43415 258.823252 
L 640.975169 259.161587 
" style="fill:#ff0000;fill-opacity:0.5;"/>
    <path clip-path="url(#p6f0214797f)" d="M 644.349764 259.01771 
L 645.295835 288.354669 
L 649.77369 285.932279 
L 643.680681 308.908635 
L 636.119969 286.37259 
L 640.744595 288.501439 
L 639.798524 259.164481 
L 644.349764 259.01771 
" style="fill:#ff0000;fill-opacity:0.5;"/>
    <path clip-path="url(#p6f0214797f)" d="M 647.807155 260.924054 
L 649.494233 288.199885 
L 653.898596 285.64631 
L 648.486789 308.792584 
L 640.263835 286.489654 
L 644.949313 288.480999 
L 643.262235 261.205168 
L 647.807155 260.924054 
" style="fill:#ff0000;fill-opacity:0.5;"/>
    <path clip-path="url(#p6f0214797f)" d="M 651.360614 264.214192 
L 652.554195 289.650437 
L 656.996076 287.162697 
L 651.240376 310.225862 
L 643.350273 287.803018 
L 648.005594 289.863878 
L 646.812013 264.427632 
L 651.360614 264.214192 
" style="fill:#ff0000;fill-opacity:0.5;"/>
    <path clip-path="url(#p6f0214797f)" d="M 655.005586 269.384722 
L 654.646337 295.476663 
L 659.230857 293.262766 
L 652.087641 315.934602 
L 645.571334 293.074694 
L 650.093163 295.413972 
L 650.452412 269.322031 
L 655.005586 269.384722 
" style="fill:#ff0000;fill-opacity:0.5;"/>
   </g>
   <g id="matplotlib.axis_1">
    <g id="xtick_1">
     <g id="line2d_1">
      <defs>
       <path d="M 0 0 
L 0 3.5 
" id="m13eb70a82a" style="stroke:#000000;stroke-width:0.8;"/>
      </defs>
      <g>
       <use style="stroke:#000000;stroke-width:0.8;" x="31.833236" xlink:href="#m13eb70a82a" y="458.388"/>
      </g>
     </g>
     <g id="text_1">
      <!-- 0 -->
      <defs>
       <path d="M 31.78125 66.40625 
Q 24.171875 66.40625 20.328125 58.90625 
Q 16.5 51.421875 16.5 36.375 
Q 16.5 21.390625 20.328125 13.890625 
Q 24.171875 6.390625 31.78125 6.390625 
Q 39.453125 6.390625 43.28125 13.890625 
Q 47.125 21.390625 47.125 36.375 
Q 47.125 51.421875 43.28125 58.90625 
Q 39.453125 66.40625 31.78125 66.40625 
z
M 31.78125 74.21875 
Q 44.046875 74.21875 50.515625 64.515625 
Q 56.984375 54.828125 56.984375 36.375 
Q 56.984375 17.96875 50.515625 8.265625 
Q 44.046875 -1.421875 31.78125 -1.421875 
Q 19.53125 -1.421875 13.0625 8.265625 
Q 6.59375 17.96875 6.59375 36.375 
Q 6.59375 54.828125 13.0625 64.515625 
Q 19.53125 74.21875 31.78125 74.21875 
z
" id="DejaVuSans-48"/>
      </defs>
      <g transform="translate(28.651986 472.986437)scale(0.1 -0.1)">
       <use xlink:href="#DejaVuSans-48"/>
      </g>
     </g>
    </g>
    <g id="xtick_2">
     <g id="line2d_2">
      <g>
       <use style="stroke:#000000;stroke-width:0.8;" x="153.411278" xlink:href="#m13eb70a82a" y="458.388"/>
      </g>
     </g>
     <g id="text_2">
      <!-- 1 -->
      <defs>
       <path d="M 12.40625 8.296875 
L 28.515625 8.296875 
L 28.515625 63.921875 
L 10.984375 60.40625 
L 10.984375 69.390625 
L 28.421875 72.90625 
L 38.28125 72.90625 
L 38.28125 8.296875 
L 54.390625 8.296875 
L 54.390625 0 
L 12.40625 0 
z
" id="DejaVuSans-49"/>
      </defs>
      <g transform="translate(150.230028 472.986437)scale(0.1 -0.1)">
       <use xlink:href="#DejaVuSans-49"/>
      </g>
     </g>
    </g>
    <g id="xtick_3">
     <g id="line2d_3">
      <g>
       <use style="stroke:#000000;stroke-width:0.8;" x="274.98932" xlink:href="#m13eb70a82a" y="458.388"/>
      </g>
     </g>
     <g id="text_3">
      <!-- 2 -->
      <defs>
       <path d="M 19.1875 8.296875 
L 53.609375 8.296875 
L 53.609375 0 
L 7.328125 0 
L 7.328125 8.296875 
Q 12.9375 14.109375 22.625 23.890625 
Q 32.328125 33.6875 34.8125 36.53125 
Q 39.546875 41.84375 41.421875 45.53125 
Q 43.3125 49.21875 43.3125 52.78125 
Q 43.3125 58.59375 39.234375 62.25 
Q 35.15625 65.921875 28.609375 65.921875 
Q 23.96875 65.921875 18.8125 64.3125 
Q 13.671875 62.703125 7.8125 59.421875 
L 7.8125 69.390625 
Q 13.765625 71.78125 18.9375 73 
Q 24.125 74.21875 28.421875 74.21875 
Q 39.75 74.21875 46.484375 68.546875 
Q 53.21875 62.890625 53.21875 53.421875 
Q 53.21875 48.921875 51.53125 44.890625 
Q 49.859375 40.875 45.40625 35.40625 
Q 44.1875 33.984375 37.640625 27.21875 
Q 31.109375 20.453125 19.1875 8.296875 
z
" id="DejaVuSans-50"/>
      </defs>
      <g transform="translate(271.80807 472.986437)scale(0.1 -0.1)">
       <use xlink:href="#DejaVuSans-50"/>
      </g>
     </g>
    </g>
    <g id="xtick_4">
     <g id="line2d_4">
      <g>
       <use style="stroke:#000000;stroke-width:0.8;" x="396.567362" xlink:href="#m13eb70a82a" y="458.388"/>
      </g>
     </g>
     <g id="text_4">
      <!-- 3 -->
      <defs>
       <path d="M 40.578125 39.3125 
Q 47.65625 37.796875 51.625 33 
Q 55.609375 28.21875 55.609375 21.1875 
Q 55.609375 10.40625 48.1875 4.484375 
Q 40.765625 -1.421875 27.09375 -1.421875 
Q 22.515625 -1.421875 17.65625 -0.515625 
Q 12.796875 0.390625 7.625 2.203125 
L 7.625 11.71875 
Q 11.71875 9.328125 16.59375 8.109375 
Q 21.484375 6.890625 26.8125 6.890625 
Q 36.078125 6.890625 40.9375 10.546875 
Q 45.796875 14.203125 45.796875 21.1875 
Q 45.796875 27.640625 41.28125 31.265625 
Q 36.765625 34.90625 28.71875 34.90625 
L 20.21875 34.90625 
L 20.21875 43.015625 
L 29.109375 43.015625 
Q 36.375 43.015625 40.234375 45.921875 
Q 44.09375 48.828125 44.09375 54.296875 
Q 44.09375 59.90625 40.109375 62.90625 
Q 36.140625 65.921875 28.71875 65.921875 
Q 24.65625 65.921875 20.015625 65.03125 
Q 15.375 64.15625 9.8125 62.3125 
L 9.8125 71.09375 
Q 15.4375 72.65625 20.34375 73.4375 
Q 25.25 74.21875 29.59375 74.21875 
Q 40.828125 74.21875 47.359375 69.109375 
Q 53.90625 64.015625 53.90625 55.328125 
Q 53.90625 49.265625 50.4375 45.09375 
Q 46.96875 40.921875 40.578125 39.3125 
z
" id="DejaVuSans-51"/>
      </defs>
      <g transform="translate(393.386112 472.986437)scale(0.1 -0.1)">
       <use xlink:href="#DejaVuSans-51"/>
      </g>
     </g>
    </g>
    <g id="xtick_5">
     <g id="line2d_5">
      <g>
       <use style="stroke:#000000;stroke-width:0.8;" x="518.145404" xlink:href="#m13eb70a82a" y="458.388"/>
      </g>
     </g>
     <g id="text_5">
      <!-- 4 -->
      <defs>
       <path d="M 37.796875 64.3125 
L 12.890625 25.390625 
L 37.796875 25.390625 
z
M 35.203125 72.90625 
L 47.609375 72.90625 
L 47.609375 25.390625 
L 58.015625 25.390625 
L 58.015625 17.1875 
L 47.609375 17.1875 
L 47.609375 0 
L 37.796875 0 
L 37.796875 17.1875 
L 4.890625 17.1875 
L 4.890625 26.703125 
z
" id="DejaVuSans-52"/>
      </defs>
      <g transform="translate(514.964154 472.986437)scale(0.1 -0.1)">
       <use xlink:href="#DejaVuSans-52"/>
      </g>
     </g>
    </g>
    <g id="xtick_6">
     <g id="line2d_6">
      <g>
       <use style="stroke:#000000;stroke-width:0.8;" x="639.723446" xlink:href="#m13eb70a82a" y="458.388"/>
      </g>
     </g>
     <g id="text_6">
      <!-- 5 -->
      <defs>
       <path d="M 10.796875 72.90625 
L 49.515625 72.90625 
L 49.515625 64.59375 
L 19.828125 64.59375 
L 19.828125 46.734375 
Q 21.96875 47.46875 24.109375 47.828125 
Q 26.265625 48.1875 28.421875 48.1875 
Q 40.625 48.1875 47.75 41.5 
Q 54.890625 34.8125 54.890625 23.390625 
Q 54.890625 11.625 47.5625 5.09375 
Q 40.234375 -1.421875 26.90625 -1.421875 
Q 22.3125 -1.421875 17.546875 -0.640625 
Q 12.796875 0.140625 7.71875 1.703125 
L 7.71875 11.625 
Q 12.109375 9.234375 16.796875 8.0625 
Q 21.484375 6.890625 26.703125 6.890625 
Q 35.15625 6.890625 40.078125 11.328125 
Q 45.015625 15.765625 45.015625 23.390625 
Q 45.015625 31 40.078125 35.4375 
Q 35.15625 39.890625 26.703125 39.890625 
Q 22.75 39.890625 18.8125 39.015625 
Q 14.890625 38.140625 10.796875 36.28125 
z
" id="DejaVuSans-53"/>
      </defs>
      <g transform="translate(636.542196 472.986437)scale(0.1 -0.1)">
       <use xlink:href="#DejaVuSans-53"/>
      </g>
     </g>
    </g>
   </g>
   <g id="matplotlib.axis_2">
    <g id="ytick_1">
     <g id="line2d_7">
      <defs>
       <path d="M 0 0 
L -3.5 0 
" id="m077e80c93d" style="stroke:#000000;stroke-width:0.8;"/>
      </defs>
      <g>
       <use style="stroke:#000000;stroke-width:0.8;" x="30.103125" xlink:href="#m077e80c93d" y="448.300058"/>
      </g>
     </g>
     <g id="text_7">
      <!-- 0.5 -->
      <defs>
       <path d="M 10.6875 12.40625 
L 21 12.40625 
L 21 0 
L 10.6875 0 
z
" id="DejaVuSans-46"/>
      </defs>
      <g transform="translate(7.2 452.099276)scale(0.1 -0.1)">
       <use xlink:href="#DejaVuSans-48"/>
       <use x="63.623047" xlink:href="#DejaVuSans-46"/>
       <use x="95.410156" xlink:href="#DejaVuSans-53"/>
      </g>
     </g>
    </g>
    <g id="ytick_2">
     <g id="line2d_8">
      <g>
       <use style="stroke:#000000;stroke-width:0.8;" x="30.103125" xlink:href="#m077e80c93d" y="382.432127"/>
      </g>
     </g>
     <g id="text_8">
      <!-- 1.0 -->
      <g transform="translate(7.2 386.231345)scale(0.1 -0.1)">
       <use xlink:href="#DejaVuSans-49"/>
       <use x="63.623047" xlink:href="#DejaVuSans-46"/>
       <use x="95.410156" xlink:href="#DejaVuSans-48"/>
      </g>
     </g>
    </g>
    <g id="ytick_3">
     <g id="line2d_9">
      <g>
       <use style="stroke:#000000;stroke-width:0.8;" x="30.103125" xlink:href="#m077e80c93d" y="316.564196"/>
      </g>
     </g>
     <g id="text_9">
      <!-- 1.5 -->
      <g transform="translate(7.2 320.363415)scale(0.1 -0.1)">
       <use xlink:href="#DejaVuSans-49"/>
       <use x="63.623047" xlink:href="#DejaVuSans-46"/>
       <use x="95.410156" xlink:href="#DejaVuSans-53"/>
      </g>
     </g>
    </g>
    <g id="ytick_4">
     <g id="line2d_10">
      <g>
       <use style="stroke:#000000;stroke-width:0.8;" x="30.103125" xlink:href="#m077e80c93d" y="250.696265"/>
      </g>
     </g>
     <g id="text_10">
      <!-- 2.0 -->
      <g transform="translate(7.2 254.495484)scale(0.1 -0.1)">
       <use xlink:href="#DejaVuSans-50"/>
       <use x="63.623047" xlink:href="#DejaVuSans-46"/>
       <use x="95.410156" xlink:href="#DejaVuSans-48"/>
      </g>
     </g>
    </g>
    <g id="ytick_5">
     <g id="line2d_11">
      <g>
       <use style="stroke:#000000;stroke-width:0.8;" x="30.103125" xlink:href="#m077e80c93d" y="184.828334"/>
      </g>
     </g>
     <g id="text_11">
      <!-- 2.5 -->
      <g transform="translate(7.2 188.627553)scale(0.1 -0.1)">
       <use xlink:href="#DejaVuSans-50"/>
       <use x="63.623047" xlink:href="#DejaVuSans-46"/>
       <use x="95.410156" xlink:href="#DejaVuSans-53"/>
      </g>
     </g>
    </g>
    <g id="ytick_6">
     <g id="line2d_12">
      <g>
       <use style="stroke:#000000;stroke-width:0.8;" x="30.103125" xlink:href="#m077e80c93d" y="118.960404"/>
      </g>
     </g>
     <g id="text_12">
      <!-- 3.0 -->
      <g transform="translate(7.2 122.759622)scale(0.1 -0.1)">
       <use xlink:href="#DejaVuSans-51"/>
       <use x="63.623047" xlink:href="#DejaVuSans-46"/>
       <use x="95.410156" xlink:href="#DejaVuSans-48"/>
      </g>
     </g>
    </g>
    <g id="ytick_7">
     <g id="line2d_13">
      <g>
       <use style="stroke:#000000;stroke-width:0.8;" x="30.103125" xlink:href="#m077e80c93d" y="53.092473"/>
      </g>
     </g>
     <g id="text_13">
      <!-- 3.5 -->
      <g transform="translate(7.2 56.891692)scale(0.1 -0.1)">
       <use xlink:href="#DejaVuSans-51"/>
       <use x="63.623047" xlink:href="#DejaVuSans-46"/>
       <use x="95.410156" xlink:href="#DejaVuSans-53"/>
      </g>
     </g>
    </g>
   </g>
   <g id="patch_3">
    <path d="M 30.103125 458.388 
L 30.103125 7.2 
" style="fill:none;stroke:#000000;stroke-linecap:square;stroke-linejoin:miter;stroke-width:0.8;"/>
   </g>
   <g id="patch_4">
    <path d="M 682.963125 458.388 
L 682.963125 7.2 
" style="fill:none;stroke:#000000;stroke-linecap:square;stroke-linejoin:miter;stroke-width:0.8;"/>
   </g>
   <g id="patch_5">
    <path d="M 30.103125 458.388 
L 682.963125 458.388 
" style="fill:none;stroke:#000000;stroke-linecap:square;stroke-linejoin:miter;stroke-width:0.8;"/>
   </g>
   <g id="patch_6">
    <path d="M 30.103125 7.2 
L 682.963125 7.2 
" style="fill:none;stroke:#000000;stroke-linecap:square;stroke-linejoin:miter;stroke-width:0.8;"/>
   </g>
   <g id="legend_1">
    <g id="patch_7">
     <path d="M 631.163125 45.478125 
L 675.963125 45.478125 
Q 677.963125 45.478125 677.963125 43.478125 
L 677.963125 14.2 
Q 677.963125 12.2 675.963125 12.2 
L 631.163125 12.2 
Q 629.163125 12.2 629.163125 14.2 
L 629.163125 43.478125 
Q 629.163125 45.478125 631.163125 45.478125 
z
" style="fill:#ffffff;opacity:0.8;stroke:#cccccc;stroke-linejoin:miter;"/>
    </g>
    <g id="patch_8">
     <path d="M 633.163125 23.798437 
L 653.163125 23.798437 
L 653.163125 16.798437 
L 633.163125 16.798437 
z
" style="fill:#0000ff;opacity:0.5;"/>
    </g>
    <g id="text_14">
     <!-- $\vec{v}$ -->
     <defs>
      <path d="M -47.015625 63.53125 
L -47.015625 68.40625 
L -10.84375 68.40625 
L -17.28125 75.984375 
L -11.140625 75.984375 
L -2.59375 65.96875 
L -11.140625 55.953125 
L -17.28125 55.953125 
L -10.84375 63.53125 
z
" id="DejaVuSans-8407"/>
      <path d="M 7.171875 54.6875 
L 16.703125 54.6875 
L 24.703125 8.203125 
L 50.875 54.6875 
L 60.40625 54.6875 
L 29.296875 0 
L 17.1875 0 
z
" id="DejaVuSans-Oblique-118"/>
     </defs>
     <g transform="translate(661.163125 23.798437)scale(0.1 -0.1)">
      <use transform="translate(61.810547 12.015625)" xlink:href="#DejaVuSans-8407"/>
      <use transform="translate(0 0.78125)" xlink:href="#DejaVuSans-Oblique-118"/>
     </g>
    </g>
    <g id="patch_9">
     <path d="M 633.163125 39.398437 
L 653.163125 39.398437 
L 653.163125 32.398437 
L 633.163125 32.398437 
z
" style="fill:#ff0000;opacity:0.5;"/>
    </g>
    <g id="text_15">
     <!-- $\vec{\Delta v}$ -->
     <defs>
      <path d="M 34.1875 63.1875 
L 14.15625 8.203125 
L 54.25 8.203125 
z
M 0.78125 0 
L 28.609375 72.90625 
L 39.796875 72.90625 
L 67.578125 0 
z
" id="DejaVuSans-916"/>
     </defs>
     <g transform="translate(661.163125 39.398437)scale(0.1 -0.1)">
      <use transform="translate(104.912598 30.015625)" xlink:href="#DejaVuSans-8407"/>
      <use transform="translate(0 0.5625)" xlink:href="#DejaVuSans-916"/>
      <use transform="translate(68.408203 0.5625)" xlink:href="#DejaVuSans-Oblique-118"/>
     </g>
    </g>
   </g>
  </g>
 </g>
 <defs>
  <clipPath id="p6f0214797f">
   <rect height="451.188" width="652.86" x="30.103125" y="7.2"/>
  </clipPath>
 </defs>
</svg>
